G04 #@! TF.GenerationSoftware,KiCad,Pcbnew,(5.99.0-12170-ge0011fcd93)*
G04 #@! TF.CreationDate,2021-10-18T14:42:09-07:00*
G04 #@! TF.ProjectId,microbug,6d696372-6f62-4756-972e-6b696361645f,rev?*
G04 #@! TF.SameCoordinates,Original*
G04 #@! TF.FileFunction,Profile,NP*
%FSLAX46Y46*%
G04 Gerber Fmt 4.6, Leading zero omitted, Abs format (unit mm)*
G04 Created by KiCad (PCBNEW (5.99.0-12170-ge0011fcd93)) date 2021-10-18 14:42:09*
%MOMM*%
%LPD*%
G01*
G04 APERTURE LIST*
G04 #@! TA.AperFunction,Profile*
%ADD10C,0.200000*%
G04 #@! TD*
%ADD11C,0.200000*%
G04 APERTURE END LIST*
D10*
X88187603Y-70000151D02*
X88089480Y-70000151D01*
X88285729Y-70000151D02*
X88187603Y-70000151D01*
X88678230Y-70000151D02*
X88580104Y-70000151D01*
X88776354Y-70000151D02*
X88678230Y-70000151D01*
X89680117Y-69989052D02*
X89724911Y-69985665D01*
X88580104Y-70000151D02*
X88481978Y-70000151D01*
X88383855Y-70000151D02*
X88285729Y-70000151D01*
X89947666Y-69962064D02*
X89991926Y-69956005D01*
D11*
X58330112Y-72000149D02*
X58345600Y-72306881D01*
X58391061Y-72604753D01*
X58464985Y-72892257D01*
X58565866Y-73167884D01*
X58692195Y-73430127D01*
X58842464Y-73677478D01*
X59015165Y-73908428D01*
X59208790Y-74121470D01*
X59421832Y-74315095D01*
X59652782Y-74487796D01*
X59900132Y-74638066D01*
X60162375Y-74764395D01*
X60438002Y-74865275D01*
X60725506Y-74939200D01*
X61023378Y-74984661D01*
X61330111Y-75000150D01*
D10*
X89168855Y-70000151D02*
X89070729Y-70000151D01*
X61330111Y-75000150D02*
X87080105Y-75000150D01*
X88481978Y-70000151D02*
X88383855Y-70000151D01*
X89070729Y-70000151D02*
X88972606Y-70000151D01*
X89365104Y-70000151D02*
X89266978Y-70000151D01*
X88874480Y-70000151D02*
X88776354Y-70000151D01*
X88972606Y-70000151D02*
X88874480Y-70000151D01*
X89266978Y-70000151D02*
X89168855Y-70000151D01*
X90036074Y-69949497D02*
X90080104Y-69942538D01*
X89991926Y-69956005D02*
X90036074Y-69949497D01*
X89903301Y-69967673D02*
X89947666Y-69962064D01*
X90080104Y-72000149D02*
X90080104Y-69942612D01*
X89858835Y-69972833D02*
X89903301Y-69967673D01*
X89590339Y-69994370D02*
X89635257Y-69991989D01*
X89500354Y-69998074D02*
X89545370Y-69996487D01*
X89410216Y-69999926D02*
X89455301Y-69999132D01*
X89455301Y-69999132D02*
X89500354Y-69998074D01*
X89769634Y-69981829D02*
X89814277Y-69977542D01*
X89365104Y-70000151D02*
X89410216Y-69999926D01*
X89724911Y-69985665D02*
X89769634Y-69981829D01*
X89635257Y-69991989D02*
X89680117Y-69989052D01*
D11*
X87080105Y-75000150D02*
X87386837Y-74984661D01*
X87684709Y-74939200D01*
X87972213Y-74865275D01*
X88247840Y-74764395D01*
X88510083Y-74638066D01*
X88757433Y-74487796D01*
X88988383Y-74315095D01*
X89201425Y-74121470D01*
X89395050Y-73908428D01*
X89567751Y-73677478D01*
X89718020Y-73430127D01*
X89844349Y-73167884D01*
X89945230Y-72892257D01*
X90019154Y-72604753D01*
X90064615Y-72306881D01*
X90080104Y-72000149D01*
D10*
X89814277Y-69977542D02*
X89858835Y-69972833D01*
X89545370Y-69996487D02*
X89590339Y-69994370D01*
X87991354Y-70000151D02*
X87893230Y-70000151D01*
X88089480Y-70000151D02*
X87991354Y-70000151D01*
X63780663Y-67980201D02*
X63797093Y-67750151D01*
X63654036Y-68419232D02*
X63732445Y-68203604D01*
X63413043Y-68822634D02*
X63547036Y-68625953D01*
X60615112Y-70000151D02*
X60940451Y-69988536D01*
X58774959Y-65508313D02*
X58730099Y-65511250D01*
X58819877Y-65505932D02*
X58774959Y-65508313D01*
X58954915Y-65501169D02*
X58909862Y-65502228D01*
X59045112Y-65500151D02*
X59143238Y-65500151D01*
X62865112Y-69341140D02*
X63070481Y-69181361D01*
X62394188Y-69615886D02*
X62639147Y-69486360D01*
X60320736Y-65500151D02*
X60418862Y-65500151D01*
X60222610Y-65500151D02*
X60320736Y-65500151D01*
X58640582Y-65518473D02*
X58595939Y-65522733D01*
X60124487Y-65500151D02*
X60222610Y-65500151D01*
X58730099Y-65511250D02*
X58685305Y-65514637D01*
X90080104Y-65557690D02*
X90080104Y-52775157D01*
X60026361Y-65500151D02*
X60124487Y-65500151D01*
X59928238Y-65500151D02*
X60026361Y-65500151D01*
X63253660Y-69008146D02*
X63413043Y-68822634D01*
X63070481Y-69181361D02*
X63253660Y-69008146D01*
X61561336Y-69898996D02*
X61853681Y-69823335D01*
X61256393Y-69954439D02*
X61561336Y-69898996D01*
X58506915Y-65532628D02*
X58462550Y-65538238D01*
X59241361Y-65500151D02*
X59339487Y-65500151D01*
X58909862Y-65502228D02*
X58864846Y-65503815D01*
X60516986Y-65500151D02*
X60615112Y-65500151D01*
X89410216Y-65500302D02*
X89365104Y-65500077D01*
X62131833Y-69728588D02*
X62394188Y-69615886D01*
X59437613Y-65500151D02*
X59535736Y-65500151D01*
X58374142Y-65550805D02*
X58330112Y-65557764D01*
D11*
X74205108Y-36900156D02*
X73388182Y-36920812D01*
X72581982Y-36982116D01*
X71787502Y-37083071D01*
X71005742Y-37222679D01*
X70237699Y-37399942D01*
X69484370Y-37613864D01*
X68746752Y-37863446D01*
X68025843Y-38147691D01*
X67322641Y-38465602D01*
X66638142Y-38816181D01*
X65973345Y-39198431D01*
X65329247Y-39611354D01*
X64706845Y-40053954D01*
X64107136Y-40525232D01*
X63531119Y-41024191D01*
X62979791Y-41549833D01*
X62454148Y-42101162D01*
X61955189Y-42677179D01*
X61483911Y-43276887D01*
X61041312Y-43899289D01*
X60628388Y-44543388D01*
X60246138Y-45208185D01*
X59895559Y-45892684D01*
X59577648Y-46595887D01*
X59293402Y-47316796D01*
X59043820Y-48054414D01*
X58829898Y-48807744D01*
X58652635Y-49575788D01*
X58513027Y-50357549D01*
X58412072Y-51152029D01*
X58350768Y-51958230D01*
X58330112Y-52775157D01*
D10*
X59633862Y-65500151D02*
X59731986Y-65500151D01*
X59045112Y-65500151D02*
X59000000Y-65500376D01*
X58330112Y-52775157D02*
X58330112Y-65557690D01*
X58418290Y-65544296D02*
X58374142Y-65550805D01*
X58462550Y-65538238D02*
X58418290Y-65544296D01*
X59000000Y-65500376D02*
X58954915Y-65501169D01*
D11*
X90080104Y-52775157D02*
X90059447Y-51958230D01*
X89998143Y-51152029D01*
X89897188Y-50357549D01*
X89757580Y-49575788D01*
X89580317Y-48807744D01*
X89366395Y-48054414D01*
X89116813Y-47316796D01*
X88832567Y-46595887D01*
X88514656Y-45892684D01*
X88164077Y-45208185D01*
X87781827Y-44543388D01*
X87368903Y-43899289D01*
X86926304Y-43276887D01*
X86455026Y-42677179D01*
X85956067Y-42101162D01*
X85430424Y-41549833D01*
X84879096Y-41024191D01*
X84303079Y-40525232D01*
X83703370Y-40053954D01*
X83080968Y-39611354D01*
X82436870Y-39198431D01*
X81772073Y-38816181D01*
X81087574Y-38465602D01*
X80384372Y-38147691D01*
X79663463Y-37863446D01*
X78925845Y-37613864D01*
X78172516Y-37399942D01*
X77404473Y-37222679D01*
X76622713Y-37083071D01*
X75828233Y-36982116D01*
X75022033Y-36920812D01*
X74205108Y-36900156D01*
D10*
X58595939Y-65522733D02*
X58551381Y-65527469D01*
X59339487Y-65500151D02*
X59437613Y-65500151D01*
X63654036Y-67081070D02*
X63547036Y-66874349D01*
X59830112Y-65500151D02*
X59928238Y-65500151D01*
X60418862Y-65500151D02*
X60516986Y-65500151D01*
X63732445Y-68203604D02*
X63780663Y-67980201D01*
X62639147Y-69486360D02*
X62865112Y-69341140D01*
X63547036Y-68625953D02*
X63654036Y-68419232D01*
X58551381Y-65527469D02*
X58506915Y-65532628D01*
X60940451Y-69988536D02*
X61256393Y-69954439D01*
X59731986Y-65500151D02*
X59830112Y-65500151D01*
X59535736Y-65500151D02*
X59633862Y-65500151D01*
X59143238Y-65500151D02*
X59241361Y-65500151D01*
X58685305Y-65514637D02*
X58640582Y-65518473D01*
X63732445Y-67296698D02*
X63654036Y-67081070D01*
X61853681Y-69823335D02*
X62131833Y-69728588D01*
X63797093Y-67750151D02*
X63780663Y-67520101D01*
X58864846Y-65503815D02*
X58819877Y-65505932D01*
X63780663Y-67520101D02*
X63732445Y-67296698D01*
X84756180Y-67081070D02*
X84677771Y-67296698D01*
X88972606Y-65500151D02*
X89070729Y-65500151D01*
X88678230Y-65500151D02*
X88776354Y-65500151D01*
X88089480Y-65500151D02*
X88187603Y-65500151D01*
X86016028Y-69615886D02*
X86278383Y-69728588D01*
X85156556Y-69008146D02*
X85339735Y-69181361D01*
X86556535Y-69823335D02*
X86848880Y-69898996D01*
X85156556Y-66492155D02*
X84997173Y-66677668D01*
X85339735Y-66318941D02*
X85156556Y-66492155D01*
X85771069Y-69486360D02*
X86016028Y-69615886D01*
X85545104Y-66159162D02*
X85339735Y-66318941D01*
X89455301Y-65501095D02*
X89410216Y-65500302D01*
X88580104Y-65500151D02*
X88678230Y-65500151D01*
X87153823Y-69954439D02*
X87469765Y-69988536D01*
X86556535Y-65676966D02*
X86278383Y-65771714D01*
X84629553Y-67520101D02*
X84613123Y-67750151D01*
X89500354Y-65502154D02*
X89455301Y-65501095D01*
X89070729Y-65500151D02*
X89168855Y-65500151D01*
X84677771Y-67296698D02*
X84629553Y-67520101D01*
X89858835Y-65527395D02*
X89814277Y-65522659D01*
X86848880Y-69898996D02*
X87153823Y-69954439D01*
X87469765Y-69988536D02*
X87795104Y-70000151D01*
X84756180Y-68419232D02*
X84863180Y-68625953D01*
X87469765Y-65511766D02*
X87153823Y-65545863D01*
X89545370Y-65503741D02*
X89500354Y-65502154D01*
X86848880Y-65601306D02*
X86556535Y-65676966D01*
X89590339Y-65505858D02*
X89545370Y-65503741D01*
X87893230Y-65500151D02*
X87991354Y-65500151D01*
X89635257Y-65508239D02*
X89590339Y-65505858D01*
X89680117Y-65511176D02*
X89635257Y-65508239D01*
X89769634Y-65518399D02*
X89724911Y-65514563D01*
X84863180Y-66874349D02*
X84756180Y-67081070D01*
X87991354Y-65500151D02*
X88089480Y-65500151D01*
X89814277Y-65522659D02*
X89769634Y-65518399D01*
X89266978Y-65500151D02*
X89365104Y-65500151D01*
X88187603Y-65500151D02*
X88285729Y-65500151D01*
X87795104Y-65500151D02*
X87893230Y-65500151D01*
X85339735Y-69181361D02*
X85545104Y-69341140D01*
X84997173Y-68822634D02*
X85156556Y-69008146D01*
X84613123Y-67750151D02*
X84629553Y-67980201D01*
X84997173Y-66677668D02*
X84863180Y-66874349D01*
X87893230Y-70000151D02*
X87795104Y-70000151D01*
X88776354Y-65500151D02*
X88874480Y-65500151D01*
X89991926Y-65544222D02*
X89947666Y-65538163D01*
X86278383Y-65771714D02*
X86016028Y-65884416D01*
X86278383Y-69728588D02*
X86556535Y-69823335D01*
X85771069Y-66013942D02*
X85545104Y-66159162D01*
X90080104Y-65557690D02*
X90036074Y-65550731D01*
X84677771Y-68203604D02*
X84756180Y-68419232D01*
X87153823Y-65545863D02*
X86848880Y-65601306D01*
X89724911Y-65514563D02*
X89680117Y-65511176D01*
X89903301Y-65532554D02*
X89858835Y-65527395D01*
X89947666Y-65538163D02*
X89903301Y-65532554D01*
X86016028Y-65884416D02*
X85771069Y-66013942D01*
X90036074Y-65550731D02*
X89991926Y-65544222D01*
X89168855Y-65500151D02*
X89266978Y-65500151D01*
X88383855Y-65500151D02*
X88481978Y-65500151D01*
X85545104Y-69341140D02*
X85771069Y-69486360D01*
X88874480Y-65500151D02*
X88972606Y-65500151D01*
X88481978Y-65500151D02*
X88580104Y-65500151D01*
X87795104Y-65500151D02*
X87469765Y-65511766D01*
X84863180Y-68625953D02*
X84997173Y-68822634D01*
X88285729Y-65500151D02*
X88383855Y-65500151D01*
X84629553Y-67980201D02*
X84677771Y-68203604D01*
X58774959Y-69992063D02*
X58819877Y-69994444D01*
X58864846Y-69996561D02*
X58909862Y-69998148D01*
X58506915Y-69967748D02*
X58551381Y-69972907D01*
X59143238Y-70000151D02*
X59045112Y-70000151D01*
X63547036Y-66874349D02*
X63413043Y-66677668D01*
X58462550Y-69962138D02*
X58506915Y-69967748D01*
X59241361Y-70000151D02*
X59143238Y-70000151D01*
X60940451Y-65511766D02*
X60615112Y-65500151D01*
X58330112Y-69942612D02*
X58374142Y-69949571D01*
X60124487Y-70000151D02*
X60026361Y-70000151D01*
X58909862Y-69998148D02*
X58954915Y-69999207D01*
X59633862Y-70000151D02*
X59535736Y-70000151D01*
X58551381Y-69972907D02*
X58595939Y-69977617D01*
X63253660Y-66492155D02*
X63070481Y-66318941D01*
X59535736Y-70000151D02*
X59437613Y-70000151D01*
X59830112Y-70000151D02*
X59731986Y-70000151D01*
X58330112Y-69942612D02*
X58330112Y-72000149D01*
X58954915Y-69999207D02*
X59000000Y-70000000D01*
X58819877Y-69994444D02*
X58864846Y-69996561D01*
X58685305Y-69985739D02*
X58730099Y-69989126D01*
X58418290Y-69956079D02*
X58462550Y-69962138D01*
X63070481Y-66318941D02*
X62865112Y-66159162D01*
X59731986Y-70000151D02*
X59633862Y-70000151D01*
X58374142Y-69949571D02*
X58418290Y-69956079D01*
X61561336Y-65601306D02*
X61256393Y-65545863D01*
X60222610Y-70000151D02*
X60124487Y-70000151D01*
X62131833Y-65771714D02*
X61853681Y-65676966D01*
X62639147Y-66013942D02*
X62394188Y-65884416D01*
X58730099Y-69989126D02*
X58774959Y-69992063D01*
X62394188Y-65884416D02*
X62131833Y-65771714D01*
X60320736Y-70000151D02*
X60222610Y-70000151D01*
X60516986Y-70000151D02*
X60418862Y-70000151D01*
X63413043Y-66677668D02*
X63253660Y-66492155D01*
X59437613Y-70000151D02*
X59339487Y-70000151D01*
X62865112Y-66159162D02*
X62639147Y-66013942D01*
X58640582Y-69981903D02*
X58685305Y-69985739D01*
X59339487Y-70000151D02*
X59241361Y-70000151D01*
X60615112Y-70000151D02*
X60516986Y-70000151D01*
X61256393Y-65545863D02*
X60940451Y-65511766D01*
X60418862Y-70000151D02*
X60320736Y-70000151D01*
X60026361Y-70000151D02*
X59928238Y-70000151D01*
X59928238Y-70000151D02*
X59830112Y-70000151D01*
X61853681Y-65676966D02*
X61561336Y-65601306D01*
X58595939Y-69977617D02*
X58640582Y-69981903D01*
X59000000Y-70000000D02*
X59045112Y-70000225D01*
M02*
