M48
; DRILL file {KiCad (5.99.0-12170-ge0011fcd93)} date Mon Oct 18 14:42:17 2021
; FORMAT={-:-/ absolute / inch / decimal}
; #@! TF.CreationDate,2021-10-18T14:42:17-07:00
; #@! TF.GenerationSoftware,Kicad,Pcbnew,(5.99.0-12170-ge0011fcd93)
; #@! TF.FileFunction,Plated,1,2,PTH
FMAT,2
INCH
; #@! TA.AperFunction,Plated,PTH,ViaDrill
T1C0.0157
; #@! TA.AperFunction,Plated,PTH,ComponentDrill
T2C0.0354
; #@! TA.AperFunction,Plated,PTH,ComponentDrill
T3C0.0394
%
G90
G05
T1
X2.5276Y-1.811
X2.6201Y-2.4646
X2.622Y-1.6614
X2.6521Y-1.6931
X2.77Y-2.63
X2.79Y-1.88
X2.83Y-2.725
X2.836Y-2.808
X2.845Y-1.835
X2.86Y-2.375
X2.864Y-2.842
X2.87Y-2.698
X2.875Y-2.605
X2.906Y-2.73
X2.91Y-2.814
X2.9409Y-2.0955
X2.949Y-2.2325
X3.0Y-1.765
X3.02Y-2.6337
X3.0815Y-1.7586
X3.1Y-1.975
X3.146Y-2.912
X3.1732Y-2.1102
X3.186Y-2.313
X3.215Y-2.045
X3.252Y-1.6063
X3.252Y-2.3248
X3.305Y-2.285
T2
X2.405Y-2.86
X2.505Y-2.86
X2.9115Y-1.5928
X2.9115Y-1.6928
X3.335Y-2.86
X3.435Y-2.86
T3
X2.4094Y-1.9362
X2.4094Y-2.0362
X2.4094Y-2.1362
X2.4094Y-2.2362
X2.59Y-1.89
X2.59Y-1.99
X3.3098Y-1.896
X3.4098Y-1.896
X3.4354Y-2.0409
X3.4354Y-2.1409
X3.4354Y-2.2409
T0
M30
