G04 #@! TF.GenerationSoftware,KiCad,Pcbnew,(5.99.0-12170-ge0011fcd93)*
G04 #@! TF.CreationDate,2021-10-18T14:42:09-07:00*
G04 #@! TF.ProjectId,microbug,6d696372-6f62-4756-972e-6b696361645f,rev?*
G04 #@! TF.SameCoordinates,Original*
G04 #@! TF.FileFunction,Legend,Top*
G04 #@! TF.FilePolarity,Positive*
%FSLAX46Y46*%
G04 Gerber Fmt 4.6, Leading zero omitted, Abs format (unit mm)*
G04 Created by KiCad (PCBNEW (5.99.0-12170-ge0011fcd93)) date 2021-10-18 14:42:09*
%MOMM*%
%LPD*%
G01*
G04 APERTURE LIST*
%ADD10C,0.190500*%
%ADD11C,0.254000*%
%ADD12C,0.150000*%
%ADD13C,0.300000*%
%ADD14C,0.120000*%
G04 APERTURE END LIST*
D10*
X84672714Y-57458428D02*
X85434714Y-57458428D01*
X84709000Y-57458428D02*
X84672714Y-57385857D01*
X84672714Y-57240714D01*
X84709000Y-57168142D01*
X84745285Y-57131857D01*
X84817857Y-57095571D01*
X85035571Y-57095571D01*
X85108142Y-57131857D01*
X85144428Y-57168142D01*
X85180714Y-57240714D01*
X85180714Y-57385857D01*
X85144428Y-57458428D01*
X85180714Y-56769000D02*
X84672714Y-56769000D01*
X84817857Y-56769000D02*
X84745285Y-56732714D01*
X84709000Y-56696428D01*
X84672714Y-56623857D01*
X84672714Y-56551285D01*
X84672714Y-55970714D02*
X85289571Y-55970714D01*
X85362142Y-56007000D01*
X85398428Y-56043285D01*
X85434714Y-56115857D01*
X85434714Y-56224714D01*
X85398428Y-56297285D01*
X85144428Y-55970714D02*
X85180714Y-56043285D01*
X85180714Y-56188428D01*
X85144428Y-56261000D01*
X85108142Y-56297285D01*
X85035571Y-56333571D01*
X84817857Y-56333571D01*
X84745285Y-56297285D01*
X84709000Y-56261000D01*
X84672714Y-56188428D01*
X84672714Y-56043285D01*
X84709000Y-55970714D01*
X85180714Y-52705000D02*
X84418714Y-52705000D01*
X84709000Y-52705000D02*
X84672714Y-52632428D01*
X84672714Y-52487285D01*
X84709000Y-52414714D01*
X84745285Y-52378428D01*
X84817857Y-52342142D01*
X85035571Y-52342142D01*
X85108142Y-52378428D01*
X85144428Y-52414714D01*
X85180714Y-52487285D01*
X85180714Y-52632428D01*
X85144428Y-52705000D01*
X85180714Y-51689000D02*
X84781571Y-51689000D01*
X84709000Y-51725285D01*
X84672714Y-51797857D01*
X84672714Y-51943000D01*
X84709000Y-52015571D01*
X85144428Y-51689000D02*
X85180714Y-51761571D01*
X85180714Y-51943000D01*
X85144428Y-52015571D01*
X85071857Y-52051857D01*
X84999285Y-52051857D01*
X84926714Y-52015571D01*
X84890428Y-51943000D01*
X84890428Y-51761571D01*
X84854142Y-51689000D01*
X84672714Y-51435000D02*
X84672714Y-51144714D01*
X84418714Y-51326142D02*
X85071857Y-51326142D01*
X85144428Y-51289857D01*
X85180714Y-51217285D01*
X85180714Y-51144714D01*
X63844714Y-57095571D02*
X63481857Y-57349571D01*
X63844714Y-57530999D02*
X63082714Y-57530999D01*
X63082714Y-57240714D01*
X63119000Y-57168142D01*
X63155285Y-57131857D01*
X63227857Y-57095571D01*
X63336714Y-57095571D01*
X63409285Y-57131857D01*
X63445571Y-57168142D01*
X63481857Y-57240714D01*
X63481857Y-57530999D01*
X63082714Y-56841571D02*
X63844714Y-56333571D01*
X63082714Y-56333571D02*
X63844714Y-56841571D01*
X63082714Y-54990999D02*
X63082714Y-54555571D01*
X63844714Y-54773285D02*
X63082714Y-54773285D01*
X63082714Y-54374142D02*
X63844714Y-53866142D01*
X63082714Y-53866142D02*
X63844714Y-54374142D01*
X63554428Y-52414714D02*
X63554428Y-51834142D01*
X63844714Y-52124428D02*
X63264142Y-52124428D01*
X63554428Y-49729571D02*
X63554428Y-49149000D01*
D11*
X59200142Y-60518523D02*
X59200142Y-59248523D01*
X59683952Y-59248523D01*
X59804904Y-59309000D01*
X59865380Y-59369476D01*
X59925857Y-59490428D01*
X59925857Y-59671857D01*
X59865380Y-59792809D01*
X59804904Y-59853285D01*
X59683952Y-59913761D01*
X59200142Y-59913761D01*
X61195857Y-60518523D02*
X60772523Y-59913761D01*
X60470142Y-60518523D02*
X60470142Y-59248523D01*
X60953952Y-59248523D01*
X61074904Y-59309000D01*
X61135380Y-59369476D01*
X61195857Y-59490428D01*
X61195857Y-59671857D01*
X61135380Y-59792809D01*
X61074904Y-59853285D01*
X60953952Y-59913761D01*
X60470142Y-59913761D01*
X61982047Y-59248523D02*
X62223952Y-59248523D01*
X62344904Y-59309000D01*
X62465857Y-59429952D01*
X62526333Y-59671857D01*
X62526333Y-60095190D01*
X62465857Y-60337095D01*
X62344904Y-60458047D01*
X62223952Y-60518523D01*
X61982047Y-60518523D01*
X61861095Y-60458047D01*
X61740142Y-60337095D01*
X61679666Y-60095190D01*
X61679666Y-59671857D01*
X61740142Y-59429952D01*
X61861095Y-59309000D01*
X61982047Y-59248523D01*
X63735857Y-59309000D02*
X63614904Y-59248523D01*
X63433476Y-59248523D01*
X63252047Y-59309000D01*
X63131095Y-59429952D01*
X63070619Y-59550904D01*
X63010142Y-59792809D01*
X63010142Y-59974238D01*
X63070619Y-60216142D01*
X63131095Y-60337095D01*
X63252047Y-60458047D01*
X63433476Y-60518523D01*
X63554428Y-60518523D01*
X63735857Y-60458047D01*
X63796333Y-60397571D01*
X63796333Y-59974238D01*
X63554428Y-59974238D01*
X84793666Y-60264523D02*
X84793666Y-58994523D01*
X85277476Y-58994523D01*
X85398428Y-59055000D01*
X85458904Y-59115476D01*
X85519380Y-59236428D01*
X85519380Y-59417857D01*
X85458904Y-59538809D01*
X85398428Y-59599285D01*
X85277476Y-59659761D01*
X84793666Y-59659761D01*
X85942714Y-58994523D02*
X86245095Y-60264523D01*
X86487000Y-59357380D01*
X86728904Y-60264523D01*
X87031285Y-58994523D01*
X88240809Y-60264523D02*
X87817476Y-59659761D01*
X87515095Y-60264523D02*
X87515095Y-58994523D01*
X87998904Y-58994523D01*
X88119857Y-59055000D01*
X88180333Y-59115476D01*
X88240809Y-59236428D01*
X88240809Y-59417857D01*
X88180333Y-59538809D01*
X88119857Y-59599285D01*
X87998904Y-59659761D01*
X87515095Y-59659761D01*
D12*
X64595523Y-53411380D02*
X64595523Y-52411380D01*
X64833619Y-52411380D01*
X64976476Y-52459000D01*
X65071714Y-52554238D01*
X65119333Y-52649476D01*
X65166952Y-52839952D01*
X65166952Y-52982809D01*
X65119333Y-53173285D01*
X65071714Y-53268523D01*
X64976476Y-53363761D01*
X64833619Y-53411380D01*
X64595523Y-53411380D01*
X65547904Y-53125666D02*
X66024095Y-53125666D01*
X65452666Y-53411380D02*
X65786000Y-52411380D01*
X66119333Y-53411380D01*
X67024095Y-53316142D02*
X66976476Y-53363761D01*
X66833619Y-53411380D01*
X66738380Y-53411380D01*
X66595523Y-53363761D01*
X66500285Y-53268523D01*
X66452666Y-53173285D01*
X66405047Y-52982809D01*
X66405047Y-52839952D01*
X66452666Y-52649476D01*
X66500285Y-52554238D01*
X66595523Y-52459000D01*
X66738380Y-52411380D01*
X66833619Y-52411380D01*
X66976476Y-52459000D01*
X67024095Y-52506619D01*
X84394047Y-63546428D02*
X85155952Y-63546428D01*
X84775000Y-63927380D02*
X84775000Y-63165476D01*
X80137095Y-47887000D02*
X80041857Y-47839380D01*
X79899000Y-47839380D01*
X79756142Y-47887000D01*
X79660904Y-47982238D01*
X79613285Y-48077476D01*
X79565666Y-48267952D01*
X79565666Y-48410809D01*
X79613285Y-48601285D01*
X79660904Y-48696523D01*
X79756142Y-48791761D01*
X79899000Y-48839380D01*
X79994238Y-48839380D01*
X80137095Y-48791761D01*
X80184714Y-48744142D01*
X80184714Y-48410809D01*
X79994238Y-48410809D01*
X80613285Y-48839380D02*
X80613285Y-47839380D01*
X81184714Y-48839380D01*
X81184714Y-47839380D01*
X81660904Y-48839380D02*
X81660904Y-47839380D01*
X81899000Y-47839380D01*
X82041857Y-47887000D01*
X82137095Y-47982238D01*
X82184714Y-48077476D01*
X82232333Y-48267952D01*
X82232333Y-48410809D01*
X82184714Y-48601285D01*
X82137095Y-48696523D01*
X82041857Y-48791761D01*
X81899000Y-48839380D01*
X81660904Y-48839380D01*
X81669047Y-63596428D02*
X82430952Y-63596428D01*
X88265047Y-49093428D02*
X89026952Y-49093428D01*
X88646000Y-49474380D02*
X88646000Y-48712476D01*
D13*
X65214571Y-46081142D02*
X66357428Y-46081142D01*
D12*
X71101380Y-40114666D02*
X70625190Y-40448000D01*
X71101380Y-40686095D02*
X70101380Y-40686095D01*
X70101380Y-40305142D01*
X70149000Y-40209904D01*
X70196619Y-40162285D01*
X70291857Y-40114666D01*
X70434714Y-40114666D01*
X70529952Y-40162285D01*
X70577571Y-40209904D01*
X70625190Y-40305142D01*
X70625190Y-40686095D01*
X70101380Y-39781333D02*
X70101380Y-39162285D01*
X70482333Y-39495619D01*
X70482333Y-39352761D01*
X70529952Y-39257523D01*
X70577571Y-39209904D01*
X70672809Y-39162285D01*
X70910904Y-39162285D01*
X71006142Y-39209904D01*
X71053761Y-39257523D01*
X71101380Y-39352761D01*
X71101380Y-39638476D01*
X71053761Y-39733714D01*
X71006142Y-39781333D01*
X86627030Y-45512732D02*
X86054610Y-45411717D01*
X86222969Y-45916793D02*
X85515862Y-45209687D01*
X85785236Y-44940312D01*
X85886251Y-44906641D01*
X85953595Y-44906641D01*
X86054610Y-44940312D01*
X86155625Y-45041328D01*
X86189297Y-45142343D01*
X86189297Y-45209687D01*
X86155625Y-45310702D01*
X85886251Y-45580076D01*
X86761717Y-44435236D02*
X87233122Y-44906641D01*
X86323984Y-44334221D02*
X86660702Y-45007656D01*
X87098435Y-44569923D01*
X77705380Y-40142667D02*
X77229190Y-40476001D01*
X77705380Y-40714096D02*
X76705380Y-40714096D01*
X76705380Y-40333143D01*
X76753000Y-40237905D01*
X76800619Y-40190286D01*
X76895857Y-40142667D01*
X77038714Y-40142667D01*
X77133952Y-40190286D01*
X77181571Y-40237905D01*
X77229190Y-40333143D01*
X77229190Y-40714096D01*
X76705380Y-39237905D02*
X76705380Y-39714096D01*
X77181571Y-39761715D01*
X77133952Y-39714096D01*
X77086333Y-39618858D01*
X77086333Y-39380762D01*
X77133952Y-39285524D01*
X77181571Y-39237905D01*
X77276809Y-39190286D01*
X77514904Y-39190286D01*
X77610142Y-39237905D01*
X77657761Y-39285524D01*
X77705380Y-39380762D01*
X77705380Y-39618858D01*
X77657761Y-39714096D01*
X77610142Y-39761715D01*
X72973380Y-46196665D02*
X72497190Y-46529999D01*
X72973380Y-46768094D02*
X71973380Y-46768094D01*
X71973380Y-46387141D01*
X72021000Y-46291903D01*
X72068619Y-46244284D01*
X72163857Y-46196665D01*
X72306714Y-46196665D01*
X72401952Y-46244284D01*
X72449571Y-46291903D01*
X72497190Y-46387141D01*
X72497190Y-46768094D01*
X71973380Y-45339522D02*
X71973380Y-45529999D01*
X72021000Y-45625237D01*
X72068619Y-45672856D01*
X72211476Y-45768094D01*
X72401952Y-45815713D01*
X72782904Y-45815713D01*
X72878142Y-45768094D01*
X72925761Y-45720475D01*
X72973380Y-45625237D01*
X72973380Y-45434760D01*
X72925761Y-45339522D01*
X72878142Y-45291903D01*
X72782904Y-45244284D01*
X72544809Y-45244284D01*
X72449571Y-45291903D01*
X72401952Y-45339522D01*
X72354333Y-45434760D01*
X72354333Y-45625237D01*
X72401952Y-45720475D01*
X72449571Y-45768094D01*
X72544809Y-45815713D01*
X62088030Y-45592732D02*
X61515610Y-45491717D01*
X61683969Y-45996793D02*
X60976862Y-45289687D01*
X61246236Y-45020312D01*
X61347251Y-44986641D01*
X61414595Y-44986641D01*
X61515610Y-45020312D01*
X61616625Y-45121328D01*
X61650297Y-45222343D01*
X61650297Y-45289687D01*
X61616625Y-45390702D01*
X61347251Y-45660076D01*
X61717641Y-44683595D02*
X61717641Y-44616251D01*
X61751312Y-44515236D01*
X61919671Y-44346877D01*
X62020687Y-44313206D01*
X62088030Y-44313206D01*
X62189045Y-44346877D01*
X62256389Y-44414221D01*
X62323732Y-44548908D01*
X62323732Y-45357030D01*
X62761465Y-44919297D01*
X79787714Y-71621333D02*
X79825809Y-71659428D01*
X79863904Y-71773714D01*
X79863904Y-71849904D01*
X79825809Y-71964190D01*
X79749619Y-72040380D01*
X79673428Y-72078476D01*
X79521047Y-72116571D01*
X79406761Y-72116571D01*
X79254380Y-72078476D01*
X79178190Y-72040380D01*
X79102000Y-71964190D01*
X79063904Y-71849904D01*
X79063904Y-71773714D01*
X79102000Y-71659428D01*
X79140095Y-71621333D01*
X79140095Y-71316571D02*
X79102000Y-71278476D01*
X79063904Y-71202285D01*
X79063904Y-71011809D01*
X79102000Y-70935619D01*
X79140095Y-70897523D01*
X79216285Y-70859428D01*
X79292476Y-70859428D01*
X79406761Y-70897523D01*
X79863904Y-71354666D01*
X79863904Y-70859428D01*
X78263714Y-71621333D02*
X78301809Y-71659428D01*
X78339904Y-71773714D01*
X78339904Y-71849904D01*
X78301809Y-71964190D01*
X78225619Y-72040380D01*
X78149428Y-72078476D01*
X77997047Y-72116571D01*
X77882761Y-72116571D01*
X77730380Y-72078476D01*
X77654190Y-72040380D01*
X77578000Y-71964190D01*
X77539904Y-71849904D01*
X77539904Y-71773714D01*
X77578000Y-71659428D01*
X77616095Y-71621333D01*
X77539904Y-71354666D02*
X77539904Y-70859428D01*
X77844666Y-71126095D01*
X77844666Y-71011809D01*
X77882761Y-70935619D01*
X77920857Y-70897523D01*
X77997047Y-70859428D01*
X78187523Y-70859428D01*
X78263714Y-70897523D01*
X78301809Y-70935619D01*
X78339904Y-71011809D01*
X78339904Y-71240380D01*
X78301809Y-71316571D01*
X78263714Y-71354666D01*
X68000380Y-68900523D02*
X67000380Y-68900523D01*
X67714666Y-68567190D01*
X67000380Y-68233857D01*
X68000380Y-68233857D01*
X68000380Y-67233857D02*
X68000380Y-67805285D01*
X68000380Y-67519571D02*
X67000380Y-67519571D01*
X67143238Y-67614809D01*
X67238476Y-67710047D01*
X67286095Y-67805285D01*
X81367380Y-68100523D02*
X80367380Y-68100523D01*
X81081666Y-67767190D01*
X80367380Y-67433857D01*
X81367380Y-67433857D01*
X80462619Y-67005285D02*
X80415000Y-66957666D01*
X80367380Y-66862428D01*
X80367380Y-66624333D01*
X80415000Y-66529095D01*
X80462619Y-66481476D01*
X80557857Y-66433857D01*
X80653095Y-66433857D01*
X80795952Y-66481476D01*
X81367380Y-67052904D01*
X81367380Y-66433857D01*
X66040095Y-56602380D02*
X66040095Y-57411904D01*
X66087714Y-57507142D01*
X66135333Y-57554761D01*
X66230571Y-57602380D01*
X66421047Y-57602380D01*
X66516285Y-57554761D01*
X66563904Y-57507142D01*
X66611523Y-57411904D01*
X66611523Y-56602380D01*
X67611523Y-57602380D02*
X67040095Y-57602380D01*
X67325809Y-57602380D02*
X67325809Y-56602380D01*
X67230571Y-56745238D01*
X67135333Y-56840476D01*
X67040095Y-56888095D01*
X71842333Y-65702380D02*
X71509000Y-65226190D01*
X71270904Y-65702380D02*
X71270904Y-64702380D01*
X71651857Y-64702380D01*
X71747095Y-64750000D01*
X71794714Y-64797619D01*
X71842333Y-64892857D01*
X71842333Y-65035714D01*
X71794714Y-65130952D01*
X71747095Y-65178571D01*
X71651857Y-65226190D01*
X71270904Y-65226190D01*
X72794714Y-65702380D02*
X72223285Y-65702380D01*
X72509000Y-65702380D02*
X72509000Y-64702380D01*
X72413761Y-64845238D01*
X72318523Y-64940476D01*
X72223285Y-64988095D01*
X72833333Y-49833142D02*
X72785714Y-49880761D01*
X72642857Y-49928380D01*
X72547619Y-49928380D01*
X72404761Y-49880761D01*
X72309523Y-49785523D01*
X72261904Y-49690285D01*
X72214285Y-49499809D01*
X72214285Y-49356952D01*
X72261904Y-49166476D01*
X72309523Y-49071238D01*
X72404761Y-48976000D01*
X72547619Y-48928380D01*
X72642857Y-48928380D01*
X72785714Y-48976000D01*
X72833333Y-49023619D01*
X73785714Y-49928380D02*
X73214285Y-49928380D01*
X73500000Y-49928380D02*
X73500000Y-48928380D01*
X73404761Y-49071238D01*
X73309523Y-49166476D01*
X73214285Y-49214095D01*
X74583333Y-65702380D02*
X74250000Y-65226190D01*
X74011904Y-65702380D02*
X74011904Y-64702380D01*
X74392857Y-64702380D01*
X74488095Y-64750000D01*
X74535714Y-64797619D01*
X74583333Y-64892857D01*
X74583333Y-65035714D01*
X74535714Y-65130952D01*
X74488095Y-65178571D01*
X74392857Y-65226190D01*
X74011904Y-65226190D01*
X74916666Y-64702380D02*
X75583333Y-64702380D01*
X75154761Y-65702380D01*
X65301904Y-73096380D02*
X65301904Y-72096380D01*
X65540000Y-72096380D01*
X65682857Y-72144000D01*
X65778095Y-72239238D01*
X65825714Y-72334476D01*
X65873333Y-72524952D01*
X65873333Y-72667809D01*
X65825714Y-72858285D01*
X65778095Y-72953523D01*
X65682857Y-73048761D01*
X65540000Y-73096380D01*
X65301904Y-73096380D01*
X66825714Y-73096380D02*
X66254285Y-73096380D01*
X66540000Y-73096380D02*
X66540000Y-72096380D01*
X66444761Y-72239238D01*
X66349523Y-72334476D01*
X66254285Y-72382095D01*
X81557904Y-73096380D02*
X81557904Y-72096380D01*
X81796000Y-72096380D01*
X81938857Y-72144000D01*
X82034095Y-72239238D01*
X82081714Y-72334476D01*
X82129333Y-72524952D01*
X82129333Y-72667809D01*
X82081714Y-72858285D01*
X82034095Y-72953523D01*
X81938857Y-73048761D01*
X81796000Y-73096380D01*
X81557904Y-73096380D01*
X82462666Y-72096380D02*
X83081714Y-72096380D01*
X82748380Y-72477333D01*
X82891238Y-72477333D01*
X82986476Y-72524952D01*
X83034095Y-72572571D01*
X83081714Y-72667809D01*
X83081714Y-72905904D01*
X83034095Y-73001142D01*
X82986476Y-73048761D01*
X82891238Y-73096380D01*
X82605523Y-73096380D01*
X82510285Y-73048761D01*
X82462666Y-73001142D01*
X72438095Y-66106380D02*
X72438095Y-66915904D01*
X72485714Y-67011142D01*
X72533333Y-67058761D01*
X72628571Y-67106380D01*
X72819047Y-67106380D01*
X72914285Y-67058761D01*
X72961904Y-67011142D01*
X73009523Y-66915904D01*
X73009523Y-66106380D01*
X73961904Y-66106380D02*
X73485714Y-66106380D01*
X73438095Y-66582571D01*
X73485714Y-66534952D01*
X73580952Y-66487333D01*
X73819047Y-66487333D01*
X73914285Y-66534952D01*
X73961904Y-66582571D01*
X74009523Y-66677809D01*
X74009523Y-66915904D01*
X73961904Y-67011142D01*
X73914285Y-67058761D01*
X73819047Y-67106380D01*
X73580952Y-67106380D01*
X73485714Y-67058761D01*
X73438095Y-67011142D01*
X83510380Y-56681666D02*
X83034190Y-57015000D01*
X83510380Y-57253095D02*
X82510380Y-57253095D01*
X82510380Y-56872142D01*
X82558000Y-56776904D01*
X82605619Y-56729285D01*
X82700857Y-56681666D01*
X82843714Y-56681666D01*
X82938952Y-56729285D01*
X82986571Y-56776904D01*
X83034190Y-56872142D01*
X83034190Y-57253095D01*
X82938952Y-56110238D02*
X82891333Y-56205476D01*
X82843714Y-56253095D01*
X82748476Y-56300714D01*
X82700857Y-56300714D01*
X82605619Y-56253095D01*
X82558000Y-56205476D01*
X82510380Y-56110238D01*
X82510380Y-55919761D01*
X82558000Y-55824523D01*
X82605619Y-55776904D01*
X82700857Y-55729285D01*
X82748476Y-55729285D01*
X82843714Y-55776904D01*
X82891333Y-55824523D01*
X82938952Y-55919761D01*
X82938952Y-56110238D01*
X82986571Y-56205476D01*
X83034190Y-56253095D01*
X83129428Y-56300714D01*
X83319904Y-56300714D01*
X83415142Y-56253095D01*
X83462761Y-56205476D01*
X83510380Y-56110238D01*
X83510380Y-55919761D01*
X83462761Y-55824523D01*
X83415142Y-55776904D01*
X83319904Y-55729285D01*
X83129428Y-55729285D01*
X83034190Y-55776904D01*
X82986571Y-55824523D01*
X82938952Y-55919761D01*
X68191142Y-74569580D02*
X67857809Y-74093390D01*
X67619714Y-74569580D02*
X67619714Y-73569580D01*
X68000666Y-73569580D01*
X68095904Y-73617200D01*
X68143523Y-73664819D01*
X68191142Y-73760057D01*
X68191142Y-73902914D01*
X68143523Y-73998152D01*
X68095904Y-74045771D01*
X68000666Y-74093390D01*
X67619714Y-74093390D01*
X69143523Y-74569580D02*
X68572095Y-74569580D01*
X68857809Y-74569580D02*
X68857809Y-73569580D01*
X68762571Y-73712438D01*
X68667333Y-73807676D01*
X68572095Y-73855295D01*
X69762571Y-73569580D02*
X69857809Y-73569580D01*
X69953047Y-73617200D01*
X70000666Y-73664819D01*
X70048285Y-73760057D01*
X70095904Y-73950533D01*
X70095904Y-74188628D01*
X70048285Y-74379104D01*
X70000666Y-74474342D01*
X69953047Y-74521961D01*
X69857809Y-74569580D01*
X69762571Y-74569580D01*
X69667333Y-74521961D01*
X69619714Y-74474342D01*
X69572095Y-74379104D01*
X69524476Y-74188628D01*
X69524476Y-73950533D01*
X69572095Y-73760057D01*
X69619714Y-73664819D01*
X69667333Y-73617200D01*
X69762571Y-73569580D01*
X77836733Y-74569580D02*
X77503400Y-74093390D01*
X77265304Y-74569580D02*
X77265304Y-73569580D01*
X77646257Y-73569580D01*
X77741495Y-73617200D01*
X77789114Y-73664819D01*
X77836733Y-73760057D01*
X77836733Y-73902914D01*
X77789114Y-73998152D01*
X77741495Y-74045771D01*
X77646257Y-74093390D01*
X77265304Y-74093390D01*
X78312923Y-74569580D02*
X78503400Y-74569580D01*
X78598638Y-74521961D01*
X78646257Y-74474342D01*
X78741495Y-74331485D01*
X78789114Y-74141009D01*
X78789114Y-73760057D01*
X78741495Y-73664819D01*
X78693876Y-73617200D01*
X78598638Y-73569580D01*
X78408161Y-73569580D01*
X78312923Y-73617200D01*
X78265304Y-73664819D01*
X78217685Y-73760057D01*
X78217685Y-73998152D01*
X78265304Y-74093390D01*
X78312923Y-74141009D01*
X78408161Y-74188628D01*
X78598638Y-74188628D01*
X78693876Y-74141009D01*
X78741495Y-74093390D01*
X78789114Y-73998152D01*
X59066666Y-57052380D02*
X59066666Y-57766666D01*
X59019047Y-57909523D01*
X58923809Y-58004761D01*
X58780952Y-58052380D01*
X58685714Y-58052380D01*
X60066666Y-58052380D02*
X59495238Y-58052380D01*
X59780952Y-58052380D02*
X59780952Y-57052380D01*
X59685714Y-57195238D01*
X59590476Y-57290476D01*
X59495238Y-57338095D01*
D14*
X71159000Y-42457734D02*
X71159000Y-42800268D01*
X70139000Y-42457734D02*
X70139000Y-42800268D01*
X85244011Y-42772762D02*
X85001802Y-42530553D01*
X84522762Y-43494011D02*
X84280553Y-43251802D01*
X77763000Y-42457733D02*
X77763000Y-42800267D01*
X76743000Y-42457733D02*
X76743000Y-42800267D01*
X74461000Y-46201266D02*
X74461000Y-45858732D01*
X73441000Y-46201266D02*
X73441000Y-45858732D01*
X85929000Y-58249000D02*
X88589000Y-58249000D01*
X85929000Y-53109000D02*
X88589000Y-53109000D01*
X85929000Y-53109000D02*
X85929000Y-58249000D01*
X88589000Y-53109000D02*
X88589000Y-58249000D01*
X85929000Y-51839000D02*
X85929000Y-50509000D01*
X85929000Y-50509000D02*
X87259000Y-50509000D01*
X63325553Y-42994198D02*
X63567762Y-42751989D01*
X64046802Y-43715447D02*
X64289011Y-43473238D01*
X78992000Y-68930733D02*
X78992000Y-69273267D01*
X80012000Y-68930733D02*
X80012000Y-69273267D01*
X77341000Y-68930733D02*
X77341000Y-69273267D01*
X78361000Y-68930733D02*
X78361000Y-69273267D01*
D12*
X64948000Y-64491000D02*
X66748000Y-64491000D01*
X66748000Y-70891000D02*
X64948000Y-70891000D01*
X66748000Y-64491000D02*
X66748000Y-70891000D01*
X83515000Y-70891000D02*
X81715000Y-70891000D01*
X81715000Y-64491000D02*
X83515000Y-64491000D01*
X81715000Y-70891000D02*
X81715000Y-64491000D01*
D14*
X77938000Y-63850000D02*
X77938000Y-63615000D01*
X70218000Y-63850000D02*
X70218000Y-63615000D01*
X70218000Y-50830000D02*
X70218000Y-51065000D01*
X70218000Y-51065000D02*
X68403000Y-51065000D01*
X77938000Y-50830000D02*
X77938000Y-51065000D01*
X74078000Y-50830000D02*
X77938000Y-50830000D01*
X74078000Y-50830000D02*
X70218000Y-50830000D01*
X74078000Y-63850000D02*
X70218000Y-63850000D01*
X74078000Y-63850000D02*
X77938000Y-63850000D01*
X69297733Y-66169000D02*
X69640267Y-66169000D01*
X69297733Y-65149000D02*
X69640267Y-65149000D01*
X70171267Y-49986000D02*
X69828733Y-49986000D01*
X70171267Y-48966000D02*
X69828733Y-48966000D01*
X77387267Y-66042000D02*
X77044733Y-66042000D01*
X77387267Y-65022000D02*
X77044733Y-65022000D01*
X64456000Y-48006000D02*
X64456000Y-46676000D01*
X64456000Y-51876000D02*
X67116000Y-51876000D01*
X67116000Y-49276000D02*
X67116000Y-51876000D01*
X64456000Y-49276000D02*
X67116000Y-49276000D01*
X64456000Y-46676000D02*
X65786000Y-46676000D01*
X64456000Y-49276000D02*
X64456000Y-51876000D01*
X60797000Y-71408000D02*
X60797000Y-71564000D01*
X60797000Y-73724000D02*
X60797000Y-73880000D01*
X63398130Y-71564163D02*
G75*
G03*
X61316039Y-71564000I-1041130J-1079837D01*
G01*
X63398130Y-73723837D02*
G75*
G02*
X61316039Y-73724000I-1041130J1079837D01*
G01*
X64029335Y-71565392D02*
G75*
G03*
X60797000Y-71408484I-1672335J-1078608D01*
G01*
X64029335Y-73722608D02*
G75*
G02*
X60797000Y-73879516I-1672335J1078608D01*
G01*
X87539000Y-73880000D02*
X87539000Y-73724000D01*
X87539000Y-71564000D02*
X87539000Y-71408000D01*
X84937870Y-71564163D02*
G75*
G02*
X87019961Y-71564000I1041130J-1079837D01*
G01*
X84306665Y-73722608D02*
G75*
G03*
X87539000Y-73879516I1672335J1078608D01*
G01*
X84937870Y-73723837D02*
G75*
G03*
X87019961Y-73724000I1041130J1079837D01*
G01*
X84306665Y-71565392D02*
G75*
G02*
X87539000Y-71408484I1672335J-1078608D01*
G01*
X72644000Y-67369000D02*
X74844000Y-67369000D01*
X72644000Y-72839000D02*
X74844000Y-72839000D01*
X72644000Y-72839000D02*
X70444000Y-72839000D01*
X72644000Y-67369000D02*
X69044000Y-67369000D01*
X85339000Y-49488400D02*
X85339000Y-46828400D01*
X85339000Y-46828400D02*
X87939000Y-46828400D01*
X82739000Y-49488400D02*
X82739000Y-48158400D01*
X85339000Y-49488400D02*
X87939000Y-49488400D01*
X87939000Y-49488400D02*
X87939000Y-46828400D01*
X84069000Y-49488400D02*
X82739000Y-49488400D01*
X80890000Y-55628733D02*
X80890000Y-55971267D01*
X81910000Y-55628733D02*
X81910000Y-55971267D01*
X71837733Y-74627200D02*
X72180267Y-74627200D01*
X71837733Y-73607200D02*
X72180267Y-73607200D01*
X75583867Y-74627200D02*
X75241333Y-74627200D01*
X75583867Y-73607200D02*
X75241333Y-73607200D01*
X62530000Y-55530000D02*
X62530000Y-47850000D01*
X62530000Y-55530000D02*
X59870000Y-55530000D01*
X62530000Y-58130000D02*
X61200000Y-58130000D01*
X62530000Y-47850000D02*
X59870000Y-47850000D01*
X62530000Y-56800000D02*
X62530000Y-58130000D01*
X59870000Y-55530000D02*
X59870000Y-47850000D01*
M02*
