G04 #@! TF.GenerationSoftware,KiCad,Pcbnew,(5.99.0-12170-ge0011fcd93)*
G04 #@! TF.CreationDate,2021-10-18T14:42:09-07:00*
G04 #@! TF.ProjectId,microbug,6d696372-6f62-4756-972e-6b696361645f,rev?*
G04 #@! TF.SameCoordinates,Original*
G04 #@! TF.FileFunction,Legend,Bot*
G04 #@! TF.FilePolarity,Positive*
%FSLAX46Y46*%
G04 Gerber Fmt 4.6, Leading zero omitted, Abs format (unit mm)*
G04 Created by KiCad (PCBNEW (5.99.0-12170-ge0011fcd93)) date 2021-10-18 14:42:09*
%MOMM*%
%LPD*%
G01*
G04 APERTURE LIST*
%ADD10C,0.300000*%
%ADD11C,0.150000*%
%ADD12C,0.120000*%
%ADD13C,0.010000*%
G04 APERTURE END LIST*
D10*
X78772436Y-47223071D02*
X78772436Y-46223071D01*
X78772436Y-46365928D02*
X78701008Y-46294500D01*
X78558150Y-46223071D01*
X78343865Y-46223071D01*
X78201008Y-46294500D01*
X78129579Y-46437357D01*
X78129579Y-47223071D01*
X78129579Y-46437357D02*
X78058150Y-46294500D01*
X77915293Y-46223071D01*
X77701008Y-46223071D01*
X77558150Y-46294500D01*
X77486722Y-46437357D01*
X77486722Y-47223071D01*
X76772436Y-47223071D02*
X76772436Y-46223071D01*
X76772436Y-45723071D02*
X76843865Y-45794500D01*
X76772436Y-45865928D01*
X76701008Y-45794500D01*
X76772436Y-45723071D01*
X76772436Y-45865928D01*
X75415293Y-47151642D02*
X75558150Y-47223071D01*
X75843865Y-47223071D01*
X75986722Y-47151642D01*
X76058150Y-47080214D01*
X76129579Y-46937357D01*
X76129579Y-46508785D01*
X76058150Y-46365928D01*
X75986722Y-46294500D01*
X75843865Y-46223071D01*
X75558150Y-46223071D01*
X75415293Y-46294500D01*
X74772436Y-47223071D02*
X74772436Y-46223071D01*
X74772436Y-46508785D02*
X74701008Y-46365928D01*
X74629579Y-46294500D01*
X74486722Y-46223071D01*
X74343865Y-46223071D01*
X73629579Y-47223071D02*
X73772436Y-47151642D01*
X73843865Y-47080214D01*
X73915293Y-46937357D01*
X73915293Y-46508785D01*
X73843865Y-46365928D01*
X73772436Y-46294500D01*
X73629579Y-46223071D01*
X73415293Y-46223071D01*
X73272436Y-46294500D01*
X73201008Y-46365928D01*
X73129579Y-46508785D01*
X73129579Y-46937357D01*
X73201008Y-47080214D01*
X73272436Y-47151642D01*
X73415293Y-47223071D01*
X73629579Y-47223071D01*
X72486722Y-47223071D02*
X72486722Y-45723071D01*
X72486722Y-46294500D02*
X72343865Y-46223071D01*
X72058150Y-46223071D01*
X71915293Y-46294500D01*
X71843865Y-46365928D01*
X71772436Y-46508785D01*
X71772436Y-46937357D01*
X71843865Y-47080214D01*
X71915293Y-47151642D01*
X72058150Y-47223071D01*
X72343865Y-47223071D01*
X72486722Y-47151642D01*
X70486722Y-46223071D02*
X70486722Y-47223071D01*
X71129579Y-46223071D02*
X71129579Y-47008785D01*
X71058150Y-47151642D01*
X70915293Y-47223071D01*
X70701008Y-47223071D01*
X70558150Y-47151642D01*
X70486722Y-47080214D01*
X69129579Y-46223071D02*
X69129579Y-47437357D01*
X69201008Y-47580214D01*
X69272436Y-47651642D01*
X69415293Y-47723071D01*
X69629579Y-47723071D01*
X69772436Y-47651642D01*
X69129579Y-47151642D02*
X69272436Y-47223071D01*
X69558150Y-47223071D01*
X69701008Y-47151642D01*
X69772436Y-47080214D01*
X69843865Y-46937357D01*
X69843865Y-46508785D01*
X69772436Y-46365928D01*
X69701008Y-46294500D01*
X69558150Y-46223071D01*
X69272436Y-46223071D01*
X69129579Y-46294500D01*
X76093865Y-48638071D02*
X75736722Y-49638071D01*
X75379579Y-48638071D01*
X74522436Y-48138071D02*
X74379579Y-48138071D01*
X74236722Y-48209500D01*
X74165293Y-48280928D01*
X74093865Y-48423785D01*
X74022436Y-48709500D01*
X74022436Y-49066642D01*
X74093865Y-49352357D01*
X74165293Y-49495214D01*
X74236722Y-49566642D01*
X74379579Y-49638071D01*
X74522436Y-49638071D01*
X74665293Y-49566642D01*
X74736722Y-49495214D01*
X74808150Y-49352357D01*
X74879579Y-49066642D01*
X74879579Y-48709500D01*
X74808150Y-48423785D01*
X74736722Y-48280928D01*
X74665293Y-48209500D01*
X74522436Y-48138071D01*
X73379579Y-49495214D02*
X73308150Y-49566642D01*
X73379579Y-49638071D01*
X73451008Y-49566642D01*
X73379579Y-49495214D01*
X73379579Y-49638071D01*
X71879579Y-49638071D02*
X72736722Y-49638071D01*
X72308150Y-49638071D02*
X72308150Y-48138071D01*
X72451008Y-48352357D01*
X72593865Y-48495214D01*
X72736722Y-48566642D01*
D11*
X74689095Y-39130380D02*
X74689095Y-38130380D01*
X74451000Y-38130380D01*
X74308142Y-38178000D01*
X74212904Y-38273238D01*
X74165285Y-38368476D01*
X74117666Y-38558952D01*
X74117666Y-38701809D01*
X74165285Y-38892285D01*
X74212904Y-38987523D01*
X74308142Y-39082761D01*
X74451000Y-39130380D01*
X74689095Y-39130380D01*
X73736714Y-38225619D02*
X73689095Y-38178000D01*
X73593857Y-38130380D01*
X73355761Y-38130380D01*
X73260523Y-38178000D01*
X73212904Y-38225619D01*
X73165285Y-38320857D01*
X73165285Y-38416095D01*
X73212904Y-38558952D01*
X73784333Y-39130380D01*
X73165285Y-39130380D01*
X64452380Y-43838095D02*
X65261904Y-43838095D01*
X65357142Y-43885714D01*
X65404761Y-43933333D01*
X65452380Y-44028571D01*
X65452380Y-44219047D01*
X65404761Y-44314285D01*
X65357142Y-44361904D01*
X65261904Y-44409523D01*
X64452380Y-44409523D01*
X64547619Y-44838095D02*
X64500000Y-44885714D01*
X64452380Y-44980952D01*
X64452380Y-45219047D01*
X64500000Y-45314285D01*
X64547619Y-45361904D01*
X64642857Y-45409523D01*
X64738095Y-45409523D01*
X64880952Y-45361904D01*
X65452380Y-44790476D01*
X65452380Y-45409523D01*
X74965703Y-55442582D02*
X74822846Y-55490201D01*
X74775227Y-55537820D01*
X74727608Y-55633058D01*
X74727608Y-55775915D01*
X74775227Y-55871153D01*
X74822846Y-55918772D01*
X74918084Y-55966391D01*
X75299036Y-55966391D01*
X75299036Y-54966391D01*
X74965703Y-54966391D01*
X74870465Y-55014011D01*
X74822846Y-55061630D01*
X74775227Y-55156868D01*
X74775227Y-55252106D01*
X74822846Y-55347344D01*
X74870465Y-55394963D01*
X74965703Y-55442582D01*
X75299036Y-55442582D01*
X74441893Y-54966391D02*
X73870465Y-54966391D01*
X74156179Y-55966391D02*
X74156179Y-54966391D01*
X73013322Y-55966391D02*
X73584750Y-55966391D01*
X73299036Y-55966391D02*
X73299036Y-54966391D01*
X73394274Y-55109249D01*
X73489512Y-55204487D01*
X73584750Y-55252106D01*
X82552380Y-42038095D02*
X83361904Y-42038095D01*
X83457142Y-42085714D01*
X83504761Y-42133333D01*
X83552380Y-42228571D01*
X83552380Y-42419047D01*
X83504761Y-42514285D01*
X83457142Y-42561904D01*
X83361904Y-42609523D01*
X82552380Y-42609523D01*
X82552380Y-42990476D02*
X82552380Y-43609523D01*
X82933333Y-43276190D01*
X82933333Y-43419047D01*
X82980952Y-43514285D01*
X83028571Y-43561904D01*
X83123809Y-43609523D01*
X83361904Y-43609523D01*
X83457142Y-43561904D01*
X83504761Y-43514285D01*
X83552380Y-43419047D01*
X83552380Y-43133333D01*
X83504761Y-43038095D01*
X83457142Y-42990476D01*
D12*
X72715000Y-40166000D02*
X72871000Y-40166000D01*
X75031000Y-40166000D02*
X75187000Y-40166000D01*
X75030837Y-42767130D02*
G75*
G03*
X75031000Y-40685039I-1079837J1041130D01*
G01*
X72871163Y-42767130D02*
G75*
G02*
X72871000Y-40685039I1079837J1041130D01*
G01*
X75029608Y-43398335D02*
G75*
G03*
X75186516Y-40166000I-1078608J1672335D01*
G01*
X72872392Y-43398335D02*
G75*
G02*
X72715484Y-40166000I1078608J1672335D01*
G01*
X69300000Y-44000000D02*
X69300000Y-39800000D01*
X65900000Y-44000000D02*
X65900000Y-41200000D01*
D11*
X84339989Y-65674011D02*
X84339989Y-68214011D01*
X84339989Y-54244011D02*
X84339989Y-58054011D01*
X70369989Y-50434011D02*
X77989989Y-50434011D01*
X77989989Y-50434011D02*
X84339989Y-54244011D01*
X70369989Y-50434011D02*
X64019989Y-54244011D01*
X64019989Y-65674011D02*
X64019989Y-68214011D01*
X64019989Y-54244011D02*
X64019989Y-58054011D01*
D13*
X67631709Y-70131779D02*
X67591583Y-70145461D01*
X67591583Y-70145461D02*
X67555460Y-70165608D01*
X67555460Y-70165608D02*
X67523812Y-70191858D01*
X67523812Y-70191858D02*
X67497107Y-70223847D01*
X67497107Y-70223847D02*
X67475818Y-70261214D01*
X67475818Y-70261214D02*
X67465663Y-70286574D01*
X67465663Y-70286574D02*
X67457067Y-70322443D01*
X67457067Y-70322443D02*
X67454484Y-70360717D01*
X67454484Y-70360717D02*
X67457913Y-70398810D01*
X67457913Y-70398810D02*
X67465663Y-70429427D01*
X67465663Y-70429427D02*
X67483384Y-70469910D01*
X67483384Y-70469910D02*
X67506735Y-70505190D01*
X67506735Y-70505190D02*
X67535247Y-70534908D01*
X67535247Y-70534908D02*
X67568445Y-70558710D01*
X67568445Y-70558710D02*
X67605859Y-70576238D01*
X67605859Y-70576238D02*
X67647016Y-70587137D01*
X67647016Y-70587137D02*
X67679277Y-70590708D01*
X67679277Y-70590708D02*
X67708431Y-70590548D01*
X67708431Y-70590548D02*
X67734631Y-70587319D01*
X67734631Y-70587319D02*
X67737892Y-70586627D01*
X67737892Y-70586627D02*
X67777082Y-70573977D01*
X67777082Y-70573977D02*
X67813037Y-70554368D01*
X67813037Y-70554368D02*
X67846157Y-70527575D01*
X67846157Y-70527575D02*
X67851347Y-70522478D01*
X67851347Y-70522478D02*
X67875956Y-70494607D01*
X67875956Y-70494607D02*
X67894283Y-70466279D01*
X67894283Y-70466279D02*
X67907645Y-70435214D01*
X67907645Y-70435214D02*
X67913834Y-70414287D01*
X67913834Y-70414287D02*
X67920348Y-70373330D01*
X67920348Y-70373330D02*
X67919882Y-70353443D01*
X67919882Y-70353443D02*
X67899402Y-70353443D01*
X67899402Y-70353443D02*
X67896904Y-70391274D01*
X67896904Y-70391274D02*
X67887833Y-70427911D01*
X67887833Y-70427911D02*
X67872190Y-70462001D01*
X67872190Y-70462001D02*
X67867458Y-70469651D01*
X67867458Y-70469651D02*
X67842330Y-70501864D01*
X67842330Y-70501864D02*
X67812919Y-70528656D01*
X67812919Y-70528656D02*
X67780205Y-70549307D01*
X67780205Y-70549307D02*
X67745171Y-70563093D01*
X67745171Y-70563093D02*
X67737964Y-70564965D01*
X67737964Y-70564965D02*
X67721007Y-70567486D01*
X67721007Y-70567486D02*
X67699499Y-70568569D01*
X67699499Y-70568569D02*
X67676297Y-70568274D01*
X67676297Y-70568274D02*
X67654261Y-70566662D01*
X67654261Y-70566662D02*
X67636248Y-70563793D01*
X67636248Y-70563793D02*
X67632117Y-70562715D01*
X67632117Y-70562715D02*
X67596569Y-70548541D01*
X67596569Y-70548541D02*
X67563558Y-70528352D01*
X67563558Y-70528352D02*
X67534496Y-70503279D01*
X67534496Y-70503279D02*
X67510798Y-70474455D01*
X67510798Y-70474455D02*
X67500517Y-70457328D01*
X67500517Y-70457328D02*
X67485179Y-70420311D01*
X67485179Y-70420311D02*
X67477178Y-70382641D01*
X67477178Y-70382641D02*
X67476166Y-70345105D01*
X67476166Y-70345105D02*
X67481798Y-70308491D01*
X67481798Y-70308491D02*
X67493729Y-70273587D01*
X67493729Y-70273587D02*
X67511613Y-70241179D01*
X67511613Y-70241179D02*
X67535104Y-70212056D01*
X67535104Y-70212056D02*
X67563857Y-70187005D01*
X67563857Y-70187005D02*
X67597525Y-70166814D01*
X67597525Y-70166814D02*
X67634242Y-70152706D01*
X67634242Y-70152706D02*
X67657834Y-70148324D01*
X67657834Y-70148324D02*
X67685587Y-70147014D01*
X67685587Y-70147014D02*
X67714581Y-70148619D01*
X67714581Y-70148619D02*
X67741896Y-70152983D01*
X67741896Y-70152983D02*
X67763963Y-70159676D01*
X67763963Y-70159676D02*
X67800330Y-70178499D01*
X67800330Y-70178499D02*
X67831743Y-70203070D01*
X67831743Y-70203070D02*
X67858848Y-70233930D01*
X67858848Y-70233930D02*
X67867458Y-70246349D01*
X67867458Y-70246349D02*
X67884679Y-70279626D01*
X67884679Y-70279626D02*
X67895327Y-70315776D01*
X67895327Y-70315776D02*
X67899402Y-70353443D01*
X67899402Y-70353443D02*
X67919882Y-70353443D01*
X67919882Y-70353443D02*
X67919373Y-70331779D01*
X67919373Y-70331779D02*
X67911047Y-70290754D01*
X67911047Y-70290754D02*
X67895506Y-70251373D01*
X67895506Y-70251373D02*
X67893450Y-70247358D01*
X67893450Y-70247358D02*
X67878032Y-70223518D01*
X67878032Y-70223518D02*
X67857306Y-70199386D01*
X67857306Y-70199386D02*
X67833411Y-70177036D01*
X67833411Y-70177036D02*
X67808487Y-70158546D01*
X67808487Y-70158546D02*
X67792600Y-70149507D01*
X67792600Y-70149507D02*
X67753556Y-70134149D01*
X67753556Y-70134149D02*
X67714057Y-70125874D01*
X67714057Y-70125874D02*
X67675369Y-70124924D01*
X67675369Y-70124924D02*
X67631709Y-70131779D01*
X67631709Y-70131779D02*
X67631709Y-70131779D01*
G36*
X67913834Y-70414287D02*
G01*
X67907645Y-70435214D01*
X67894283Y-70466279D01*
X67875956Y-70494607D01*
X67851347Y-70522478D01*
X67846157Y-70527575D01*
X67813037Y-70554368D01*
X67777082Y-70573977D01*
X67737892Y-70586627D01*
X67734631Y-70587319D01*
X67708431Y-70590548D01*
X67679277Y-70590708D01*
X67647016Y-70587137D01*
X67605859Y-70576238D01*
X67568445Y-70558710D01*
X67535247Y-70534908D01*
X67506735Y-70505190D01*
X67483384Y-70469910D01*
X67465663Y-70429427D01*
X67457913Y-70398810D01*
X67454484Y-70360717D01*
X67455538Y-70345105D01*
X67476166Y-70345105D01*
X67477178Y-70382641D01*
X67485179Y-70420311D01*
X67500517Y-70457328D01*
X67510798Y-70474455D01*
X67534496Y-70503279D01*
X67563558Y-70528352D01*
X67596569Y-70548541D01*
X67632117Y-70562715D01*
X67636248Y-70563793D01*
X67654261Y-70566662D01*
X67676297Y-70568274D01*
X67699499Y-70568569D01*
X67721007Y-70567486D01*
X67737964Y-70564965D01*
X67745171Y-70563093D01*
X67780205Y-70549307D01*
X67812919Y-70528656D01*
X67842330Y-70501864D01*
X67867458Y-70469651D01*
X67872190Y-70462001D01*
X67887833Y-70427911D01*
X67896904Y-70391274D01*
X67899402Y-70353443D01*
X67895327Y-70315776D01*
X67884679Y-70279626D01*
X67867458Y-70246349D01*
X67858848Y-70233930D01*
X67831743Y-70203070D01*
X67800330Y-70178499D01*
X67763963Y-70159676D01*
X67741896Y-70152983D01*
X67714581Y-70148619D01*
X67685587Y-70147014D01*
X67657834Y-70148324D01*
X67634242Y-70152706D01*
X67597525Y-70166814D01*
X67563857Y-70187005D01*
X67535104Y-70212056D01*
X67511613Y-70241179D01*
X67493729Y-70273587D01*
X67481798Y-70308491D01*
X67476166Y-70345105D01*
X67455538Y-70345105D01*
X67457067Y-70322443D01*
X67465663Y-70286574D01*
X67475818Y-70261214D01*
X67497107Y-70223847D01*
X67523812Y-70191858D01*
X67555460Y-70165608D01*
X67591583Y-70145461D01*
X67631709Y-70131779D01*
X67675369Y-70124924D01*
X67714057Y-70125874D01*
X67753556Y-70134149D01*
X67792600Y-70149507D01*
X67808487Y-70158546D01*
X67833411Y-70177036D01*
X67857306Y-70199386D01*
X67878032Y-70223518D01*
X67893450Y-70247358D01*
X67895506Y-70251373D01*
X67911047Y-70290754D01*
X67919373Y-70331779D01*
X67919882Y-70353443D01*
X67920348Y-70373330D01*
X67913834Y-70414287D01*
G37*
X67913834Y-70414287D02*
X67907645Y-70435214D01*
X67894283Y-70466279D01*
X67875956Y-70494607D01*
X67851347Y-70522478D01*
X67846157Y-70527575D01*
X67813037Y-70554368D01*
X67777082Y-70573977D01*
X67737892Y-70586627D01*
X67734631Y-70587319D01*
X67708431Y-70590548D01*
X67679277Y-70590708D01*
X67647016Y-70587137D01*
X67605859Y-70576238D01*
X67568445Y-70558710D01*
X67535247Y-70534908D01*
X67506735Y-70505190D01*
X67483384Y-70469910D01*
X67465663Y-70429427D01*
X67457913Y-70398810D01*
X67454484Y-70360717D01*
X67455538Y-70345105D01*
X67476166Y-70345105D01*
X67477178Y-70382641D01*
X67485179Y-70420311D01*
X67500517Y-70457328D01*
X67510798Y-70474455D01*
X67534496Y-70503279D01*
X67563558Y-70528352D01*
X67596569Y-70548541D01*
X67632117Y-70562715D01*
X67636248Y-70563793D01*
X67654261Y-70566662D01*
X67676297Y-70568274D01*
X67699499Y-70568569D01*
X67721007Y-70567486D01*
X67737964Y-70564965D01*
X67745171Y-70563093D01*
X67780205Y-70549307D01*
X67812919Y-70528656D01*
X67842330Y-70501864D01*
X67867458Y-70469651D01*
X67872190Y-70462001D01*
X67887833Y-70427911D01*
X67896904Y-70391274D01*
X67899402Y-70353443D01*
X67895327Y-70315776D01*
X67884679Y-70279626D01*
X67867458Y-70246349D01*
X67858848Y-70233930D01*
X67831743Y-70203070D01*
X67800330Y-70178499D01*
X67763963Y-70159676D01*
X67741896Y-70152983D01*
X67714581Y-70148619D01*
X67685587Y-70147014D01*
X67657834Y-70148324D01*
X67634242Y-70152706D01*
X67597525Y-70166814D01*
X67563857Y-70187005D01*
X67535104Y-70212056D01*
X67511613Y-70241179D01*
X67493729Y-70273587D01*
X67481798Y-70308491D01*
X67476166Y-70345105D01*
X67455538Y-70345105D01*
X67457067Y-70322443D01*
X67465663Y-70286574D01*
X67475818Y-70261214D01*
X67497107Y-70223847D01*
X67523812Y-70191858D01*
X67555460Y-70165608D01*
X67591583Y-70145461D01*
X67631709Y-70131779D01*
X67675369Y-70124924D01*
X67714057Y-70125874D01*
X67753556Y-70134149D01*
X67792600Y-70149507D01*
X67808487Y-70158546D01*
X67833411Y-70177036D01*
X67857306Y-70199386D01*
X67878032Y-70223518D01*
X67893450Y-70247358D01*
X67895506Y-70251373D01*
X67911047Y-70290754D01*
X67919373Y-70331779D01*
X67919882Y-70353443D01*
X67920348Y-70373330D01*
X67913834Y-70414287D01*
X67656390Y-67759623D02*
X67620738Y-67770130D01*
X67620738Y-67770130D02*
X67607827Y-67775898D01*
X67607827Y-67775898D02*
X67605532Y-67777190D01*
X67605532Y-67777190D02*
X67602569Y-67779204D01*
X67602569Y-67779204D02*
X67598786Y-67782091D01*
X67598786Y-67782091D02*
X67594030Y-67786001D01*
X67594030Y-67786001D02*
X67588150Y-67791086D01*
X67588150Y-67791086D02*
X67580992Y-67797495D01*
X67580992Y-67797495D02*
X67572405Y-67805380D01*
X67572405Y-67805380D02*
X67562236Y-67814891D01*
X67562236Y-67814891D02*
X67550332Y-67826180D01*
X67550332Y-67826180D02*
X67536542Y-67839397D01*
X67536542Y-67839397D02*
X67520712Y-67854693D01*
X67520712Y-67854693D02*
X67502690Y-67872218D01*
X67502690Y-67872218D02*
X67482325Y-67892123D01*
X67482325Y-67892123D02*
X67459463Y-67914560D01*
X67459463Y-67914560D02*
X67433952Y-67939679D01*
X67433952Y-67939679D02*
X67405640Y-67967630D01*
X67405640Y-67967630D02*
X67374374Y-67998565D01*
X67374374Y-67998565D02*
X67340002Y-68032633D01*
X67340002Y-68032633D02*
X67302371Y-68069987D01*
X67302371Y-68069987D02*
X67261330Y-68110777D01*
X67261330Y-68110777D02*
X67216725Y-68155153D01*
X67216725Y-68155153D02*
X67168404Y-68203267D01*
X67168404Y-68203267D02*
X67116216Y-68255268D01*
X67116216Y-68255268D02*
X67060006Y-68311309D01*
X67060006Y-68311309D02*
X66999624Y-68371539D01*
X66999624Y-68371539D02*
X66934917Y-68436109D01*
X66934917Y-68436109D02*
X66865731Y-68505171D01*
X66865731Y-68505171D02*
X66791916Y-68578875D01*
X66791916Y-68578875D02*
X66713318Y-68657371D01*
X66713318Y-68657371D02*
X66629785Y-68740811D01*
X66629785Y-68740811D02*
X66541164Y-68829345D01*
X66541164Y-68829345D02*
X66447304Y-68923124D01*
X66447304Y-68923124D02*
X66360988Y-69009373D01*
X66360988Y-69009373D02*
X66278894Y-69091417D01*
X66278894Y-69091417D02*
X66198137Y-69172151D01*
X66198137Y-69172151D02*
X66118895Y-69251394D01*
X66118895Y-69251394D02*
X66041347Y-69328968D01*
X66041347Y-69328968D02*
X65965674Y-69404691D01*
X65965674Y-69404691D02*
X65892053Y-69478384D01*
X65892053Y-69478384D02*
X65820666Y-69549867D01*
X65820666Y-69549867D02*
X65751690Y-69618959D01*
X65751690Y-69618959D02*
X65685305Y-69685481D01*
X65685305Y-69685481D02*
X65621692Y-69749253D01*
X65621692Y-69749253D02*
X65561028Y-69810094D01*
X65561028Y-69810094D02*
X65503494Y-69867825D01*
X65503494Y-69867825D02*
X65449268Y-69922265D01*
X65449268Y-69922265D02*
X65398531Y-69973235D01*
X65398531Y-69973235D02*
X65351461Y-70020555D01*
X65351461Y-70020555D02*
X65308237Y-70064043D01*
X65308237Y-70064043D02*
X65269041Y-70103522D01*
X65269041Y-70103522D02*
X65234049Y-70138809D01*
X65234049Y-70138809D02*
X65203443Y-70169726D01*
X65203443Y-70169726D02*
X65177400Y-70196092D01*
X65177400Y-70196092D02*
X65156102Y-70217727D01*
X65156102Y-70217727D02*
X65139726Y-70234452D01*
X65139726Y-70234452D02*
X65128452Y-70246085D01*
X65128452Y-70246085D02*
X65122461Y-70252448D01*
X65122461Y-70252448D02*
X65121593Y-70253464D01*
X65121593Y-70253464D02*
X65103135Y-70284315D01*
X65103135Y-70284315D02*
X65091608Y-70317635D01*
X65091608Y-70317635D02*
X65087009Y-70352283D01*
X65087009Y-70352283D02*
X65089339Y-70387116D01*
X65089339Y-70387116D02*
X65098598Y-70420992D01*
X65098598Y-70420992D02*
X65114787Y-70452770D01*
X65114787Y-70452770D02*
X65121601Y-70462536D01*
X65121601Y-70462536D02*
X65125545Y-70466880D01*
X65125545Y-70466880D02*
X65134830Y-70476554D01*
X65134830Y-70476554D02*
X65149263Y-70491367D01*
X65149263Y-70491367D02*
X65168654Y-70511126D01*
X65168654Y-70511126D02*
X65192811Y-70535639D01*
X65192811Y-70535639D02*
X65221544Y-70564715D01*
X65221544Y-70564715D02*
X65254662Y-70598161D01*
X65254662Y-70598161D02*
X65291973Y-70635786D01*
X65291973Y-70635786D02*
X65333287Y-70677399D01*
X65333287Y-70677399D02*
X65378412Y-70722806D01*
X65378412Y-70722806D02*
X65427158Y-70771816D01*
X65427158Y-70771816D02*
X65479334Y-70824238D01*
X65479334Y-70824238D02*
X65534749Y-70879879D01*
X65534749Y-70879879D02*
X65593211Y-70938547D01*
X65593211Y-70938547D02*
X65654530Y-71000051D01*
X65654530Y-71000051D02*
X65718515Y-71064199D01*
X65718515Y-71064199D02*
X65784974Y-71130798D01*
X65784974Y-71130798D02*
X65853718Y-71199658D01*
X65853718Y-71199658D02*
X65924553Y-71270585D01*
X65924553Y-71270585D02*
X65997291Y-71343389D01*
X65997291Y-71343389D02*
X66071740Y-71417876D01*
X66071740Y-71417876D02*
X66147708Y-71493856D01*
X66147708Y-71493856D02*
X66221296Y-71567428D01*
X66221296Y-71567428D02*
X67304138Y-72649857D01*
X67304138Y-72649857D02*
X67304138Y-72554452D01*
X67304138Y-72554452D02*
X67334423Y-72553311D01*
X67334423Y-72553311D02*
X67364707Y-72552170D01*
X67364707Y-72552170D02*
X67365690Y-71201085D01*
X67365690Y-71201085D02*
X67365750Y-71117165D01*
X67365750Y-71117165D02*
X67113489Y-71117165D01*
X67113489Y-71117165D02*
X67111425Y-71131283D01*
X67111425Y-71131283D02*
X67110429Y-71139254D01*
X67110429Y-71139254D02*
X67108799Y-71153654D01*
X67108799Y-71153654D02*
X67106681Y-71173135D01*
X67106681Y-71173135D02*
X67104219Y-71196350D01*
X67104219Y-71196350D02*
X67101561Y-71221950D01*
X67101561Y-71221950D02*
X67100454Y-71232762D01*
X67100454Y-71232762D02*
X67091547Y-71320124D01*
X67091547Y-71320124D02*
X67067912Y-71317502D01*
X67067912Y-71317502D02*
X67057295Y-71316108D01*
X67057295Y-71316108D02*
X67040401Y-71313628D01*
X67040401Y-71313628D02*
X67018655Y-71310284D01*
X67018655Y-71310284D02*
X66993485Y-71306296D01*
X66993485Y-71306296D02*
X66966318Y-71301888D01*
X66966318Y-71301888D02*
X66950492Y-71299272D01*
X66950492Y-71299272D02*
X66835451Y-71278610D01*
X66835451Y-71278610D02*
X66724496Y-71255639D01*
X66724496Y-71255639D02*
X66617932Y-71230475D01*
X66617932Y-71230475D02*
X66516065Y-71203235D01*
X66516065Y-71203235D02*
X66419201Y-71174036D01*
X66419201Y-71174036D02*
X66327646Y-71142994D01*
X66327646Y-71142994D02*
X66241705Y-71110227D01*
X66241705Y-71110227D02*
X66161686Y-71075851D01*
X66161686Y-71075851D02*
X66087892Y-71039982D01*
X66087892Y-71039982D02*
X66020632Y-71002738D01*
X66020632Y-71002738D02*
X65960209Y-70964236D01*
X65960209Y-70964236D02*
X65906931Y-70924592D01*
X65906931Y-70924592D02*
X65861102Y-70883923D01*
X65861102Y-70883923D02*
X65860176Y-70883013D01*
X65860176Y-70883013D02*
X65822046Y-70841961D01*
X65822046Y-70841961D02*
X65791504Y-70801171D01*
X65791504Y-70801171D02*
X65768349Y-70760237D01*
X65768349Y-70760237D02*
X65752383Y-70718750D01*
X65752383Y-70718750D02*
X65743405Y-70676304D01*
X65743405Y-70676304D02*
X65741119Y-70639706D01*
X65741119Y-70639706D02*
X65742961Y-70603831D01*
X65742961Y-70603831D02*
X65748864Y-70571825D01*
X65748864Y-70571825D02*
X65759578Y-70540478D01*
X65759578Y-70540478D02*
X65769098Y-70519699D01*
X65769098Y-70519699D02*
X65794068Y-70477709D01*
X65794068Y-70477709D02*
X65826625Y-70437095D01*
X65826625Y-70437095D02*
X65866652Y-70397921D01*
X65866652Y-70397921D02*
X65914032Y-70360251D01*
X65914032Y-70360251D02*
X65968647Y-70324150D01*
X65968647Y-70324150D02*
X66030380Y-70289681D01*
X66030380Y-70289681D02*
X66099114Y-70256909D01*
X66099114Y-70256909D02*
X66174731Y-70225898D01*
X66174731Y-70225898D02*
X66257115Y-70196711D01*
X66257115Y-70196711D02*
X66346147Y-70169414D01*
X66346147Y-70169414D02*
X66441712Y-70144069D01*
X66441712Y-70144069D02*
X66467890Y-70137742D01*
X66467890Y-70137742D02*
X66539641Y-70120735D01*
X66539641Y-70120735D02*
X66558053Y-70063291D01*
X66558053Y-70063291D02*
X66564498Y-70043397D01*
X66564498Y-70043397D02*
X66570174Y-70026274D01*
X66570174Y-70026274D02*
X66574634Y-70013243D01*
X66574634Y-70013243D02*
X66577431Y-70005623D01*
X66577431Y-70005623D02*
X66578096Y-70004216D01*
X66578096Y-70004216D02*
X66582138Y-70004259D01*
X66582138Y-70004259D02*
X66593186Y-70004899D01*
X66593186Y-70004899D02*
X66610458Y-70006075D01*
X66610458Y-70006075D02*
X66633174Y-70007723D01*
X66633174Y-70007723D02*
X66660552Y-70009779D01*
X66660552Y-70009779D02*
X66691812Y-70012180D01*
X66691812Y-70012180D02*
X66726171Y-70014863D01*
X66726171Y-70014863D02*
X66762849Y-70017764D01*
X66762849Y-70017764D02*
X66801064Y-70020819D01*
X66801064Y-70020819D02*
X66840036Y-70023967D01*
X66840036Y-70023967D02*
X66878982Y-70027142D01*
X66878982Y-70027142D02*
X66917122Y-70030282D01*
X66917122Y-70030282D02*
X66953674Y-70033324D01*
X66953674Y-70033324D02*
X66987857Y-70036204D01*
X66987857Y-70036204D02*
X67018890Y-70038858D01*
X67018890Y-70038858D02*
X67045992Y-70041223D01*
X67045992Y-70041223D02*
X67068381Y-70043237D01*
X67068381Y-70043237D02*
X67085277Y-70044835D01*
X67085277Y-70044835D02*
X67095897Y-70045954D01*
X67095897Y-70045954D02*
X67099457Y-70046509D01*
X67099457Y-70046509D02*
X67096086Y-70047908D01*
X67096086Y-70047908D02*
X67085953Y-70051486D01*
X67085953Y-70051486D02*
X67069734Y-70057022D01*
X67069734Y-70057022D02*
X67048106Y-70064297D01*
X67048106Y-70064297D02*
X67021743Y-70073090D01*
X67021743Y-70073090D02*
X66991322Y-70083179D01*
X66991322Y-70083179D02*
X66957519Y-70094343D01*
X66957519Y-70094343D02*
X66921010Y-70106364D01*
X66921010Y-70106364D02*
X66882471Y-70119018D01*
X66882471Y-70119018D02*
X66842577Y-70132086D01*
X66842577Y-70132086D02*
X66802004Y-70145348D01*
X66802004Y-70145348D02*
X66761429Y-70158582D01*
X66761429Y-70158582D02*
X66721527Y-70171567D01*
X66721527Y-70171567D02*
X66682974Y-70184083D01*
X66682974Y-70184083D02*
X66646447Y-70195909D01*
X66646447Y-70195909D02*
X66612620Y-70206825D01*
X66612620Y-70206825D02*
X66582170Y-70216610D01*
X66582170Y-70216610D02*
X66555774Y-70225042D01*
X66555774Y-70225042D02*
X66534106Y-70231902D01*
X66534106Y-70231902D02*
X66517842Y-70236968D01*
X66517842Y-70236968D02*
X66507660Y-70240020D01*
X66507660Y-70240020D02*
X66504286Y-70240866D01*
X66504286Y-70240866D02*
X66502990Y-70237285D01*
X66502990Y-70237285D02*
X66504997Y-70226734D01*
X66504997Y-70226734D02*
X66510288Y-70209316D01*
X66510288Y-70209316D02*
X66511104Y-70206882D01*
X66511104Y-70206882D02*
X66515947Y-70191849D01*
X66515947Y-70191849D02*
X66519371Y-70179826D01*
X66519371Y-70179826D02*
X66520902Y-70172556D01*
X66520902Y-70172556D02*
X66520807Y-70171244D01*
X66520807Y-70171244D02*
X66515936Y-70171233D01*
X66515936Y-70171233D02*
X66504685Y-70173755D01*
X66504685Y-70173755D02*
X66487951Y-70178494D01*
X66487951Y-70178494D02*
X66466634Y-70185137D01*
X66466634Y-70185137D02*
X66441631Y-70193368D01*
X66441631Y-70193368D02*
X66413840Y-70202873D01*
X66413840Y-70202873D02*
X66384159Y-70213337D01*
X66384159Y-70213337D02*
X66353488Y-70224446D01*
X66353488Y-70224446D02*
X66322722Y-70235885D01*
X66322722Y-70235885D02*
X66292762Y-70247339D01*
X66292762Y-70247339D02*
X66264505Y-70258494D01*
X66264505Y-70258494D02*
X66238850Y-70269036D01*
X66238850Y-70269036D02*
X66226349Y-70274382D01*
X66226349Y-70274382D02*
X66161271Y-70304521D01*
X66161271Y-70304521D02*
X66101580Y-70335900D01*
X66101580Y-70335900D02*
X66047501Y-70368295D01*
X66047501Y-70368295D02*
X65999255Y-70401485D01*
X65999255Y-70401485D02*
X65957064Y-70435245D01*
X65957064Y-70435245D02*
X65921153Y-70469355D01*
X65921153Y-70469355D02*
X65891744Y-70503590D01*
X65891744Y-70503590D02*
X65869059Y-70537728D01*
X65869059Y-70537728D02*
X65853322Y-70571546D01*
X65853322Y-70571546D02*
X65844754Y-70604822D01*
X65844754Y-70604822D02*
X65843580Y-70637333D01*
X65843580Y-70637333D02*
X65846108Y-70654538D01*
X65846108Y-70654538D02*
X65857472Y-70689268D01*
X65857472Y-70689268D02*
X65876391Y-70723406D01*
X65876391Y-70723406D02*
X65902619Y-70756850D01*
X65902619Y-70756850D02*
X65935913Y-70789502D01*
X65935913Y-70789502D02*
X65976027Y-70821263D01*
X65976027Y-70821263D02*
X66022716Y-70852032D01*
X66022716Y-70852032D02*
X66075736Y-70881711D01*
X66075736Y-70881711D02*
X66134841Y-70910201D01*
X66134841Y-70910201D02*
X66199786Y-70937401D01*
X66199786Y-70937401D02*
X66270328Y-70963213D01*
X66270328Y-70963213D02*
X66346219Y-70987536D01*
X66346219Y-70987536D02*
X66427217Y-71010272D01*
X66427217Y-71010272D02*
X66513076Y-71031322D01*
X66513076Y-71031322D02*
X66603551Y-71050585D01*
X66603551Y-71050585D02*
X66698396Y-71067962D01*
X66698396Y-71067962D02*
X66797369Y-71083355D01*
X66797369Y-71083355D02*
X66900222Y-71096662D01*
X66900222Y-71096662D02*
X66948538Y-71102032D01*
X66948538Y-71102032D02*
X66977095Y-71104995D01*
X66977095Y-71104995D02*
X67005433Y-71107845D01*
X67005433Y-71107845D02*
X67031834Y-71110415D01*
X67031834Y-71110415D02*
X67054577Y-71112540D01*
X67054577Y-71112540D02*
X67071946Y-71114053D01*
X67071946Y-71114053D02*
X67076929Y-71114444D01*
X67076929Y-71114444D02*
X67113489Y-71117165D01*
X67113489Y-71117165D02*
X67365750Y-71117165D01*
X67365750Y-71117165D02*
X67366672Y-69850000D01*
X67366672Y-69850000D02*
X67308046Y-69850000D01*
X67308046Y-69850000D02*
X67308046Y-69807358D01*
X67308046Y-69807358D02*
X67336377Y-69806210D01*
X67336377Y-69806210D02*
X67364707Y-69805062D01*
X67364707Y-69805062D02*
X67364707Y-69211093D01*
X67364707Y-69211093D02*
X67336377Y-69209945D01*
X67336377Y-69209945D02*
X67308046Y-69208796D01*
X67308046Y-69208796D02*
X67308046Y-69166154D01*
X67308046Y-69166154D02*
X67364875Y-69166154D01*
X67364875Y-69166154D02*
X67387850Y-69049900D01*
X67387850Y-69049900D02*
X67395303Y-69012854D01*
X67395303Y-69012854D02*
X67401598Y-68983062D01*
X67401598Y-68983062D02*
X67406846Y-68960065D01*
X67406846Y-68960065D02*
X67411159Y-68943406D01*
X67411159Y-68943406D02*
X67414647Y-68932627D01*
X67414647Y-68932627D02*
X67417422Y-68927271D01*
X67417422Y-68927271D02*
X67417654Y-68927025D01*
X67417654Y-68927025D02*
X67422119Y-68919424D01*
X67422119Y-68919424D02*
X67425910Y-68907405D01*
X67425910Y-68907405D02*
X67427290Y-68899996D01*
X67427290Y-68899996D02*
X67429529Y-68888529D01*
X67429529Y-68888529D02*
X67431982Y-68884832D01*
X67431982Y-68884832D02*
X67434599Y-68888861D01*
X67434599Y-68888861D02*
X67437328Y-68900575D01*
X67437328Y-68900575D02*
X67438707Y-68909223D01*
X67438707Y-68909223D02*
X67441444Y-68921188D01*
X67441444Y-68921188D02*
X67445092Y-68927297D01*
X67445092Y-68927297D02*
X67446500Y-68927785D01*
X67446500Y-68927785D02*
X67449776Y-68931613D01*
X67449776Y-68931613D02*
X67453673Y-68943124D01*
X67453673Y-68943124D02*
X67458205Y-68962361D01*
X67458205Y-68962361D02*
X67460484Y-68973700D01*
X67460484Y-68973700D02*
X67464151Y-68992035D01*
X67464151Y-68992035D02*
X67467523Y-69007738D01*
X67467523Y-69007738D02*
X67470219Y-69019107D01*
X67470219Y-69019107D02*
X67471830Y-69024386D01*
X67471830Y-69024386D02*
X67473209Y-69021456D01*
X67473209Y-69021456D02*
X67476460Y-69011527D01*
X67476460Y-69011527D02*
X67481428Y-68995151D01*
X67481428Y-68995151D02*
X67487956Y-68972877D01*
X67487956Y-68972877D02*
X67495889Y-68945254D01*
X67495889Y-68945254D02*
X67505070Y-68912833D01*
X67505070Y-68912833D02*
X67515343Y-68876162D01*
X67515343Y-68876162D02*
X67526551Y-68835793D01*
X67526551Y-68835793D02*
X67538539Y-68792274D01*
X67538539Y-68792274D02*
X67551151Y-68746155D01*
X67551151Y-68746155D02*
X67557315Y-68723494D01*
X67557315Y-68723494D02*
X67640324Y-68417831D01*
X67640324Y-68417831D02*
X67640262Y-68366054D01*
X67640262Y-68366054D02*
X67640307Y-68345067D01*
X67640307Y-68345067D02*
X67640619Y-68330664D01*
X67640619Y-68330664D02*
X67641376Y-68321615D01*
X67641376Y-68321615D02*
X67642757Y-68316688D01*
X67642757Y-68316688D02*
X67644939Y-68314653D01*
X67644939Y-68314653D02*
X67647752Y-68314277D01*
X67647752Y-68314277D02*
X67654917Y-68311207D01*
X67654917Y-68311207D02*
X67657245Y-68307439D01*
X67657245Y-68307439D02*
X67658233Y-68301840D01*
X67658233Y-68301840D02*
X67660018Y-68289585D01*
X67660018Y-68289585D02*
X67662452Y-68271777D01*
X67662452Y-68271777D02*
X67665386Y-68249516D01*
X67665386Y-68249516D02*
X67668674Y-68223906D01*
X67668674Y-68223906D02*
X67671913Y-68198099D01*
X67671913Y-68198099D02*
X67675341Y-68170892D01*
X67675341Y-68170892D02*
X67678514Y-68146494D01*
X67678514Y-68146494D02*
X67681293Y-68125897D01*
X67681293Y-68125897D02*
X67683542Y-68110097D01*
X67683542Y-68110097D02*
X67685123Y-68100087D01*
X67685123Y-68100087D02*
X67685892Y-68096852D01*
X67685892Y-68096852D02*
X67686627Y-68100790D01*
X67686627Y-68100790D02*
X67688196Y-68111268D01*
X67688196Y-68111268D02*
X67690438Y-68127073D01*
X67690438Y-68127073D02*
X67693190Y-68146993D01*
X67693190Y-68146993D02*
X67696293Y-68169815D01*
X67696293Y-68169815D02*
X67699584Y-68194328D01*
X67699584Y-68194328D02*
X67702902Y-68219320D01*
X67702902Y-68219320D02*
X67706087Y-68243578D01*
X67706087Y-68243578D02*
X67708976Y-68265889D01*
X67708976Y-68265889D02*
X67711408Y-68285042D01*
X67711408Y-68285042D02*
X67713222Y-68299824D01*
X67713222Y-68299824D02*
X67714257Y-68309023D01*
X67714257Y-68309023D02*
X67714437Y-68311347D01*
X67714437Y-68311347D02*
X67717726Y-68313730D01*
X67717726Y-68313730D02*
X67722261Y-68314277D01*
X67722261Y-68314277D02*
X67725530Y-68314722D01*
X67725530Y-68314722D02*
X67727724Y-68316913D01*
X67727724Y-68316913D02*
X67729048Y-68322131D01*
X67729048Y-68322131D02*
X67729705Y-68331660D01*
X67729705Y-68331660D02*
X67729899Y-68346781D01*
X67729899Y-68346781D02*
X67729866Y-68362147D01*
X67729866Y-68362147D02*
X67729654Y-68410016D01*
X67729654Y-68410016D02*
X67812904Y-68717718D01*
X67812904Y-68717718D02*
X67825770Y-68765177D01*
X67825770Y-68765177D02*
X67838080Y-68810400D01*
X67838080Y-68810400D02*
X67849678Y-68852828D01*
X67849678Y-68852828D02*
X67860410Y-68891900D01*
X67860410Y-68891900D02*
X67870120Y-68927058D01*
X67870120Y-68927058D02*
X67878653Y-68957742D01*
X67878653Y-68957742D02*
X67885853Y-68983392D01*
X67885853Y-68983392D02*
X67891565Y-69003449D01*
X67891565Y-69003449D02*
X67895634Y-69017353D01*
X67895634Y-69017353D02*
X67897904Y-69024544D01*
X67897904Y-69024544D02*
X67898314Y-69025448D01*
X67898314Y-69025448D02*
X67899839Y-69021863D01*
X67899839Y-69021863D02*
X67902411Y-69012070D01*
X67902411Y-69012070D02*
X67905675Y-68997552D01*
X67905675Y-68997552D02*
X67909277Y-68979790D01*
X67909277Y-68979790D02*
X67909397Y-68979165D01*
X67909397Y-68979165D02*
X67914244Y-68956159D01*
X67914244Y-68956159D02*
X67918646Y-68940104D01*
X67918646Y-68940104D02*
X67922862Y-68930170D01*
X67922862Y-68930170D02*
X67925799Y-68926449D01*
X67925799Y-68926449D02*
X67931635Y-68917749D01*
X67931635Y-68917749D02*
X67933666Y-68909262D01*
X67933666Y-68909262D02*
X67935100Y-68897006D01*
X67935100Y-68897006D02*
X67936981Y-68888708D01*
X67936981Y-68888708D02*
X67938761Y-68884515D01*
X67938761Y-68884515D02*
X67940492Y-68885618D01*
X67940492Y-68885618D02*
X67942646Y-68892888D01*
X67942646Y-68892888D02*
X67944915Y-68903362D01*
X67944915Y-68903362D02*
X67948293Y-68916431D01*
X67948293Y-68916431D02*
X67951936Y-68925154D01*
X67951936Y-68925154D02*
X67954705Y-68927785D01*
X67954705Y-68927785D02*
X67957037Y-68931624D01*
X67957037Y-68931624D02*
X67960571Y-68943063D01*
X67960571Y-68943063D02*
X67965279Y-68961982D01*
X67965279Y-68961982D02*
X67971131Y-68988264D01*
X67971131Y-68988264D02*
X67978100Y-69021789D01*
X67978100Y-69021789D02*
X67981775Y-69040131D01*
X67981775Y-69040131D02*
X67987526Y-69069007D01*
X67987526Y-69069007D02*
X67992862Y-69095602D01*
X67992862Y-69095602D02*
X67997575Y-69118889D01*
X67997575Y-69118889D02*
X68001455Y-69137842D01*
X68001455Y-69137842D02*
X68004294Y-69151434D01*
X68004294Y-69151434D02*
X68005882Y-69158638D01*
X68005882Y-69158638D02*
X68006058Y-69159316D01*
X68006058Y-69159316D02*
X68008327Y-69162907D01*
X68008327Y-69162907D02*
X68013649Y-69164997D01*
X68013649Y-69164997D02*
X68023692Y-69165955D01*
X68023692Y-69165955D02*
X68037094Y-69166154D01*
X68037094Y-69166154D02*
X68066138Y-69166154D01*
X68066138Y-69166154D02*
X68066138Y-69209139D01*
X68066138Y-69209139D02*
X68011430Y-69209139D01*
X68011430Y-69209139D02*
X68011430Y-69807016D01*
X68011430Y-69807016D02*
X68066138Y-69807016D01*
X68066138Y-69807016D02*
X68066138Y-69850000D01*
X68066138Y-69850000D02*
X68011430Y-69850000D01*
X68011430Y-69850000D02*
X68011430Y-72554123D01*
X68011430Y-72554123D02*
X68069805Y-72554123D01*
X68069805Y-72554123D02*
X68070902Y-72601051D01*
X68070902Y-72601051D02*
X68072000Y-72647978D01*
X68072000Y-72647978D02*
X69166507Y-71552812D01*
X69166507Y-71552812D02*
X69259142Y-71460119D01*
X69259142Y-71460119D02*
X69346413Y-71372788D01*
X69346413Y-71372788D02*
X69428480Y-71290657D01*
X69428480Y-71290657D02*
X69505505Y-71213561D01*
X69505505Y-71213561D02*
X69577650Y-71141337D01*
X69577650Y-71141337D02*
X69645076Y-71073820D01*
X69645076Y-71073820D02*
X69707945Y-71010848D01*
X69707945Y-71010848D02*
X69766417Y-70952258D01*
X69766417Y-70952258D02*
X69820655Y-70897884D01*
X69820655Y-70897884D02*
X69870821Y-70847564D01*
X69870821Y-70847564D02*
X69917074Y-70801133D01*
X69917074Y-70801133D02*
X69959578Y-70758429D01*
X69959578Y-70758429D02*
X69998493Y-70719288D01*
X69998493Y-70719288D02*
X70033981Y-70683546D01*
X70033981Y-70683546D02*
X70066204Y-70651039D01*
X70066204Y-70651039D02*
X70090154Y-70626829D01*
X70090154Y-70626829D02*
X69634503Y-70626829D01*
X69634503Y-70626829D02*
X69634218Y-70654028D01*
X69634218Y-70654028D02*
X69632183Y-70680147D01*
X69632183Y-70680147D02*
X69628445Y-70702297D01*
X69628445Y-70702297D02*
X69627617Y-70705559D01*
X69627617Y-70705559D02*
X69611185Y-70751461D01*
X69611185Y-70751461D02*
X69587049Y-70796297D01*
X69587049Y-70796297D02*
X69555202Y-70840071D01*
X69555202Y-70840071D02*
X69515638Y-70882789D01*
X69515638Y-70882789D02*
X69468352Y-70924456D01*
X69468352Y-70924456D02*
X69413337Y-70965079D01*
X69413337Y-70965079D02*
X69350588Y-71004663D01*
X69350588Y-71004663D02*
X69280099Y-71043213D01*
X69280099Y-71043213D02*
X69259938Y-71053347D01*
X69259938Y-71053347D02*
X69174230Y-71092854D01*
X69174230Y-71092854D02*
X69081399Y-71130268D01*
X69081399Y-71130268D02*
X68981885Y-71165462D01*
X68981885Y-71165462D02*
X68876130Y-71198306D01*
X68876130Y-71198306D02*
X68764575Y-71228672D01*
X68764575Y-71228672D02*
X68647660Y-71256431D01*
X68647660Y-71256431D02*
X68525828Y-71281456D01*
X68525828Y-71281456D02*
X68402200Y-71303185D01*
X68402200Y-71303185D02*
X68378703Y-71306989D01*
X68378703Y-71306989D02*
X68357316Y-71310462D01*
X68357316Y-71310462D02*
X68339457Y-71313371D01*
X68339457Y-71313371D02*
X68326545Y-71315486D01*
X68326545Y-71315486D02*
X68320138Y-71316552D01*
X68320138Y-71316552D02*
X68310340Y-71317807D01*
X68310340Y-71317807D02*
X68299331Y-71318643D01*
X68299331Y-71318643D02*
X68289908Y-71318922D01*
X68289908Y-71318922D02*
X68284868Y-71318505D01*
X68284868Y-71318505D02*
X68284628Y-71318316D01*
X68284628Y-71318316D02*
X68283690Y-71312955D01*
X68283690Y-71312955D02*
X68282210Y-71301318D01*
X68282210Y-71301318D02*
X68280315Y-71284678D01*
X68280315Y-71284678D02*
X68278128Y-71264304D01*
X68278128Y-71264304D02*
X68275775Y-71241469D01*
X68275775Y-71241469D02*
X68273380Y-71217444D01*
X68273380Y-71217444D02*
X68271067Y-71193499D01*
X68271067Y-71193499D02*
X68268962Y-71170906D01*
X68268962Y-71170906D02*
X68267189Y-71150936D01*
X68267189Y-71150936D02*
X68265872Y-71134861D01*
X68265872Y-71134861D02*
X68265137Y-71123952D01*
X68265137Y-71123952D02*
X68265108Y-71119479D01*
X68265108Y-71119479D02*
X68265127Y-71119448D01*
X68265127Y-71119448D02*
X68269545Y-71118356D01*
X68269545Y-71118356D02*
X68280528Y-71116787D01*
X68280528Y-71116787D02*
X68296850Y-71114885D01*
X68296850Y-71114885D02*
X68317284Y-71112790D01*
X68317284Y-71112790D02*
X68340604Y-71110644D01*
X68340604Y-71110644D02*
X68343584Y-71110385D01*
X68343584Y-71110385D02*
X68453038Y-71099593D01*
X68453038Y-71099593D02*
X68559187Y-71086385D01*
X68559187Y-71086385D02*
X68661696Y-71070864D01*
X68661696Y-71070864D02*
X68760228Y-71053132D01*
X68760228Y-71053132D02*
X68854446Y-71033292D01*
X68854446Y-71033292D02*
X68944015Y-71011446D01*
X68944015Y-71011446D02*
X69028598Y-70987698D01*
X69028598Y-70987698D02*
X69107858Y-70962150D01*
X69107858Y-70962150D02*
X69181458Y-70934904D01*
X69181458Y-70934904D02*
X69249063Y-70906062D01*
X69249063Y-70906062D02*
X69310336Y-70875729D01*
X69310336Y-70875729D02*
X69364940Y-70844005D01*
X69364940Y-70844005D02*
X69412539Y-70810995D01*
X69412539Y-70810995D02*
X69452797Y-70776799D01*
X69452797Y-70776799D02*
X69459685Y-70770080D01*
X69459685Y-70770080D02*
X69476833Y-70752350D01*
X69476833Y-70752350D02*
X69489622Y-70737428D01*
X69489622Y-70737428D02*
X69499703Y-70723124D01*
X69499703Y-70723124D02*
X69508727Y-70707250D01*
X69508727Y-70707250D02*
X69512109Y-70700580D01*
X69512109Y-70700580D02*
X69520497Y-70682809D01*
X69520497Y-70682809D02*
X69525778Y-70668787D01*
X69525778Y-70668787D02*
X69528804Y-70655523D01*
X69528804Y-70655523D02*
X69530429Y-70640030D01*
X69530429Y-70640030D02*
X69530716Y-70635461D01*
X69530716Y-70635461D02*
X69531188Y-70615761D01*
X69531188Y-70615761D02*
X69529623Y-70599554D01*
X69529623Y-70599554D02*
X69525517Y-70582671D01*
X69525517Y-70582671D02*
X69523560Y-70576372D01*
X69523560Y-70576372D02*
X69508000Y-70540082D01*
X69508000Y-70540082D02*
X69484876Y-70504028D01*
X69484876Y-70504028D02*
X69454438Y-70468321D01*
X69454438Y-70468321D02*
X69416937Y-70433072D01*
X69416937Y-70433072D02*
X69372623Y-70398393D01*
X69372623Y-70398393D02*
X69321746Y-70364396D01*
X69321746Y-70364396D02*
X69264557Y-70331193D01*
X69264557Y-70331193D02*
X69201306Y-70298895D01*
X69201306Y-70298895D02*
X69132243Y-70267613D01*
X69132243Y-70267613D02*
X69057619Y-70237460D01*
X69057619Y-70237460D02*
X68977683Y-70208547D01*
X68977683Y-70208547D02*
X68892688Y-70180986D01*
X68892688Y-70180986D02*
X68802881Y-70154888D01*
X68802881Y-70154888D02*
X68708515Y-70130366D01*
X68708515Y-70130366D02*
X68609840Y-70107530D01*
X68609840Y-70107530D02*
X68507105Y-70086493D01*
X68507105Y-70086493D02*
X68400561Y-70067366D01*
X68400561Y-70067366D02*
X68371896Y-70062660D01*
X68371896Y-70062660D02*
X68346426Y-70058497D01*
X68346426Y-70058497D02*
X68323823Y-70054685D01*
X68323823Y-70054685D02*
X68305130Y-70051408D01*
X68305130Y-70051408D02*
X68291393Y-70048853D01*
X68291393Y-70048853D02*
X68283656Y-70047207D01*
X68283656Y-70047207D02*
X68282339Y-70046713D01*
X68282339Y-70046713D02*
X68286641Y-70046542D01*
X68286641Y-70046542D02*
X68297675Y-70047147D01*
X68297675Y-70047147D02*
X68314407Y-70048426D01*
X68314407Y-70048426D02*
X68335801Y-70050279D01*
X68335801Y-70050279D02*
X68360824Y-70052603D01*
X68360824Y-70052603D02*
X68388441Y-70055298D01*
X68388441Y-70055298D02*
X68417618Y-70058263D01*
X68417618Y-70058263D02*
X68447321Y-70061396D01*
X68447321Y-70061396D02*
X68476514Y-70064597D01*
X68476514Y-70064597D02*
X68504164Y-70067765D01*
X68504164Y-70067765D02*
X68529236Y-70070797D01*
X68529236Y-70070797D02*
X68531153Y-70071038D01*
X68531153Y-70071038D02*
X68639794Y-70086259D01*
X68639794Y-70086259D02*
X68745702Y-70104178D01*
X68745702Y-70104178D02*
X68848081Y-70124607D01*
X68848081Y-70124607D02*
X68946135Y-70147358D01*
X68946135Y-70147358D02*
X69039067Y-70172244D01*
X69039067Y-70172244D02*
X69126080Y-70199078D01*
X69126080Y-70199078D02*
X69206380Y-70227673D01*
X69206380Y-70227673D02*
X69220861Y-70233309D01*
X69220861Y-70233309D02*
X69249108Y-70245110D01*
X69249108Y-70245110D02*
X69280734Y-70259410D01*
X69280734Y-70259410D02*
X69313987Y-70275328D01*
X69313987Y-70275328D02*
X69347120Y-70291983D01*
X69347120Y-70291983D02*
X69378382Y-70308494D01*
X69378382Y-70308494D02*
X69406025Y-70323978D01*
X69406025Y-70323978D02*
X69428297Y-70337556D01*
X69428297Y-70337556D02*
X69429923Y-70338618D01*
X69429923Y-70338618D02*
X69482356Y-70376263D01*
X69482356Y-70376263D02*
X69527228Y-70415263D01*
X69527228Y-70415263D02*
X69564504Y-70455578D01*
X69564504Y-70455578D02*
X69594151Y-70497164D01*
X69594151Y-70497164D02*
X69616133Y-70539981D01*
X69616133Y-70539981D02*
X69629636Y-70580739D01*
X69629636Y-70580739D02*
X69632992Y-70601436D01*
X69632992Y-70601436D02*
X69634503Y-70626829D01*
X69634503Y-70626829D02*
X70090154Y-70626829D01*
X70090154Y-70626829D02*
X70095323Y-70621604D01*
X70095323Y-70621604D02*
X70121499Y-70595077D01*
X70121499Y-70595077D02*
X70144893Y-70571294D01*
X70144893Y-70571294D02*
X70165669Y-70550092D01*
X70165669Y-70550092D02*
X70183986Y-70531308D01*
X70183986Y-70531308D02*
X70200006Y-70514777D01*
X70200006Y-70514777D02*
X70213892Y-70500336D01*
X70213892Y-70500336D02*
X70225803Y-70487821D01*
X70225803Y-70487821D02*
X70235903Y-70477069D01*
X70235903Y-70477069D02*
X70244352Y-70467916D01*
X70244352Y-70467916D02*
X70251311Y-70460198D01*
X70251311Y-70460198D02*
X70256943Y-70453752D01*
X70256943Y-70453752D02*
X70261409Y-70448414D01*
X70261409Y-70448414D02*
X70264870Y-70444021D01*
X70264870Y-70444021D02*
X70267487Y-70440408D01*
X70267487Y-70440408D02*
X70269423Y-70437413D01*
X70269423Y-70437413D02*
X70270838Y-70434871D01*
X70270838Y-70434871D02*
X70271838Y-70432750D01*
X70271838Y-70432750D02*
X70284064Y-70396788D01*
X70284064Y-70396788D02*
X70288722Y-70361971D01*
X70288722Y-70361971D02*
X70285804Y-70327457D01*
X70285804Y-70327457D02*
X70275301Y-70292406D01*
X70275301Y-70292406D02*
X70270255Y-70280764D01*
X70270255Y-70280764D02*
X70269127Y-70278509D01*
X70269127Y-70278509D02*
X70267646Y-70275965D01*
X70267646Y-70275965D02*
X70265661Y-70272975D01*
X70265661Y-70272975D02*
X70263019Y-70269388D01*
X70263019Y-70269388D02*
X70259569Y-70265048D01*
X70259569Y-70265048D02*
X70255158Y-70259801D01*
X70255158Y-70259801D02*
X70249634Y-70253495D01*
X70249634Y-70253495D02*
X70242845Y-70245974D01*
X70242845Y-70245974D02*
X70234639Y-70237086D01*
X70234639Y-70237086D02*
X70224863Y-70226675D01*
X70224863Y-70226675D02*
X70213365Y-70214589D01*
X70213365Y-70214589D02*
X70199993Y-70200673D01*
X70199993Y-70200673D02*
X70184595Y-70184774D01*
X70184595Y-70184774D02*
X70167019Y-70166737D01*
X70167019Y-70166737D02*
X70147112Y-70146408D01*
X70147112Y-70146408D02*
X70124722Y-70123634D01*
X70124722Y-70123634D02*
X70099698Y-70098261D01*
X70099698Y-70098261D02*
X70071886Y-70070135D01*
X70071886Y-70070135D02*
X70041136Y-70039101D01*
X70041136Y-70039101D02*
X70007293Y-70005007D01*
X70007293Y-70005007D02*
X69970207Y-69967697D01*
X69970207Y-69967697D02*
X69929726Y-69927019D01*
X69929726Y-69927019D02*
X69885696Y-69882818D01*
X69885696Y-69882818D02*
X69837966Y-69834941D01*
X69837966Y-69834941D02*
X69786384Y-69783233D01*
X69786384Y-69783233D02*
X69730797Y-69727540D01*
X69730797Y-69727540D02*
X69671053Y-69667710D01*
X69671053Y-69667710D02*
X69607000Y-69603586D01*
X69607000Y-69603586D02*
X69538486Y-69535017D01*
X69538486Y-69535017D02*
X69465359Y-69461848D01*
X69465359Y-69461848D02*
X69387467Y-69383924D01*
X69387467Y-69383924D02*
X69304656Y-69301093D01*
X69304656Y-69301093D02*
X69216776Y-69213200D01*
X69216776Y-69213200D02*
X69123673Y-69120091D01*
X69123673Y-69120091D02*
X69025197Y-69021612D01*
X69025197Y-69021612D02*
X69024338Y-69020754D01*
X69024338Y-69020754D02*
X68925793Y-68922211D01*
X68925793Y-68922211D02*
X68832619Y-68829043D01*
X68832619Y-68829043D02*
X68744662Y-68741099D01*
X68744662Y-68741099D02*
X68661768Y-68658227D01*
X68661768Y-68658227D02*
X68583784Y-68580274D01*
X68583784Y-68580274D02*
X68510555Y-68507089D01*
X68510555Y-68507089D02*
X68441928Y-68438519D01*
X68441928Y-68438519D02*
X68377750Y-68374412D01*
X68377750Y-68374412D02*
X68317866Y-68314616D01*
X68317866Y-68314616D02*
X68262122Y-68258979D01*
X68262122Y-68258979D02*
X68210365Y-68207349D01*
X68210365Y-68207349D02*
X68162441Y-68159574D01*
X68162441Y-68159574D02*
X68118196Y-68115501D01*
X68118196Y-68115501D02*
X68077476Y-68074979D01*
X68077476Y-68074979D02*
X68040127Y-68037856D01*
X68040127Y-68037856D02*
X68005997Y-68003978D01*
X68005997Y-68003978D02*
X67974930Y-67973196D01*
X67974930Y-67973196D02*
X67946773Y-67945355D01*
X67946773Y-67945355D02*
X67921373Y-67920304D01*
X67921373Y-67920304D02*
X67898574Y-67897891D01*
X67898574Y-67897891D02*
X67878225Y-67877965D01*
X67878225Y-67877965D02*
X67860170Y-67860372D01*
X67860170Y-67860372D02*
X67844257Y-67844960D01*
X67844257Y-67844960D02*
X67830330Y-67831578D01*
X67830330Y-67831578D02*
X67818237Y-67820074D01*
X67818237Y-67820074D02*
X67807824Y-67810295D01*
X67807824Y-67810295D02*
X67798936Y-67802089D01*
X67798936Y-67802089D02*
X67791421Y-67795305D01*
X67791421Y-67795305D02*
X67785123Y-67789789D01*
X67785123Y-67789789D02*
X67779890Y-67785391D01*
X67779890Y-67785391D02*
X67775568Y-67781957D01*
X67775568Y-67781957D02*
X67772002Y-67779336D01*
X67772002Y-67779336D02*
X67769040Y-67777376D01*
X67769040Y-67777376D02*
X67766526Y-67775924D01*
X67766526Y-67775924D02*
X67764573Y-67774951D01*
X67764573Y-67774951D02*
X67728383Y-67762033D01*
X67728383Y-67762033D02*
X67692297Y-67756924D01*
X67692297Y-67756924D02*
X67656390Y-67759623D01*
X67656390Y-67759623D02*
X67656390Y-67759623D01*
G36*
X67364707Y-72552170D02*
G01*
X67334423Y-72553311D01*
X67304138Y-72554452D01*
X67304138Y-72649857D01*
X66221296Y-71567428D01*
X66147708Y-71493856D01*
X66071740Y-71417876D01*
X65997291Y-71343389D01*
X65924553Y-71270585D01*
X65853718Y-71199658D01*
X65784974Y-71130798D01*
X65718515Y-71064199D01*
X65654530Y-71000051D01*
X65593211Y-70938547D01*
X65534749Y-70879879D01*
X65479334Y-70824238D01*
X65427158Y-70771816D01*
X65378412Y-70722806D01*
X65333287Y-70677399D01*
X65295865Y-70639706D01*
X65741119Y-70639706D01*
X65743405Y-70676304D01*
X65752383Y-70718750D01*
X65768349Y-70760237D01*
X65791504Y-70801171D01*
X65822046Y-70841961D01*
X65860176Y-70883013D01*
X65861102Y-70883923D01*
X65906931Y-70924592D01*
X65960209Y-70964236D01*
X66020632Y-71002738D01*
X66087892Y-71039982D01*
X66161686Y-71075851D01*
X66241705Y-71110227D01*
X66327646Y-71142994D01*
X66419201Y-71174036D01*
X66516065Y-71203235D01*
X66617932Y-71230475D01*
X66724496Y-71255639D01*
X66835451Y-71278610D01*
X66950492Y-71299272D01*
X66966318Y-71301888D01*
X66993485Y-71306296D01*
X67018655Y-71310284D01*
X67040401Y-71313628D01*
X67057295Y-71316108D01*
X67067912Y-71317502D01*
X67091547Y-71320124D01*
X67100454Y-71232762D01*
X67101561Y-71221950D01*
X67104219Y-71196350D01*
X67106681Y-71173135D01*
X67108799Y-71153654D01*
X67110429Y-71139254D01*
X67111425Y-71131283D01*
X67113489Y-71117165D01*
X67076929Y-71114444D01*
X67071946Y-71114053D01*
X67054577Y-71112540D01*
X67031834Y-71110415D01*
X67005433Y-71107845D01*
X66977095Y-71104995D01*
X66948538Y-71102032D01*
X66900222Y-71096662D01*
X66797369Y-71083355D01*
X66698396Y-71067962D01*
X66603551Y-71050585D01*
X66513076Y-71031322D01*
X66427217Y-71010272D01*
X66346219Y-70987536D01*
X66270328Y-70963213D01*
X66199786Y-70937401D01*
X66134841Y-70910201D01*
X66075736Y-70881711D01*
X66022716Y-70852032D01*
X65976027Y-70821263D01*
X65935913Y-70789502D01*
X65902619Y-70756850D01*
X65876391Y-70723406D01*
X65857472Y-70689268D01*
X65846108Y-70654538D01*
X65843580Y-70637333D01*
X65844754Y-70604822D01*
X65853322Y-70571546D01*
X65869059Y-70537728D01*
X65891744Y-70503590D01*
X65921153Y-70469355D01*
X65957064Y-70435245D01*
X65999255Y-70401485D01*
X66047501Y-70368295D01*
X66101580Y-70335900D01*
X66161271Y-70304521D01*
X66226349Y-70274382D01*
X66238850Y-70269036D01*
X66264505Y-70258494D01*
X66292762Y-70247339D01*
X66322722Y-70235885D01*
X66353488Y-70224446D01*
X66384159Y-70213337D01*
X66413840Y-70202873D01*
X66441631Y-70193368D01*
X66466634Y-70185137D01*
X66487951Y-70178494D01*
X66504685Y-70173755D01*
X66515936Y-70171233D01*
X66520807Y-70171244D01*
X66520902Y-70172556D01*
X66519371Y-70179826D01*
X66515947Y-70191849D01*
X66511104Y-70206882D01*
X66510288Y-70209316D01*
X66504997Y-70226734D01*
X66502990Y-70237285D01*
X66504286Y-70240866D01*
X66507660Y-70240020D01*
X66517842Y-70236968D01*
X66534106Y-70231902D01*
X66555774Y-70225042D01*
X66582170Y-70216610D01*
X66612620Y-70206825D01*
X66646447Y-70195909D01*
X66682974Y-70184083D01*
X66721527Y-70171567D01*
X66761429Y-70158582D01*
X66802004Y-70145348D01*
X66842577Y-70132086D01*
X66882471Y-70119018D01*
X66921010Y-70106364D01*
X66957519Y-70094343D01*
X66991322Y-70083179D01*
X67021743Y-70073090D01*
X67048106Y-70064297D01*
X67069734Y-70057022D01*
X67085953Y-70051486D01*
X67096086Y-70047908D01*
X67099457Y-70046509D01*
X67095897Y-70045954D01*
X67085277Y-70044835D01*
X67068381Y-70043237D01*
X67045992Y-70041223D01*
X67018890Y-70038858D01*
X66987857Y-70036204D01*
X66953674Y-70033324D01*
X66917122Y-70030282D01*
X66878982Y-70027142D01*
X66840036Y-70023967D01*
X66801064Y-70020819D01*
X66762849Y-70017764D01*
X66726171Y-70014863D01*
X66691812Y-70012180D01*
X66660552Y-70009779D01*
X66633174Y-70007723D01*
X66610458Y-70006075D01*
X66593186Y-70004899D01*
X66582138Y-70004259D01*
X66578096Y-70004216D01*
X66577431Y-70005623D01*
X66574634Y-70013243D01*
X66570174Y-70026274D01*
X66564498Y-70043397D01*
X66558053Y-70063291D01*
X66539641Y-70120735D01*
X66467890Y-70137742D01*
X66441712Y-70144069D01*
X66346147Y-70169414D01*
X66257115Y-70196711D01*
X66174731Y-70225898D01*
X66099114Y-70256909D01*
X66030380Y-70289681D01*
X65968647Y-70324150D01*
X65914032Y-70360251D01*
X65866652Y-70397921D01*
X65826625Y-70437095D01*
X65794068Y-70477709D01*
X65769098Y-70519699D01*
X65759578Y-70540478D01*
X65748864Y-70571825D01*
X65742961Y-70603831D01*
X65741119Y-70639706D01*
X65295865Y-70639706D01*
X65291973Y-70635786D01*
X65254662Y-70598161D01*
X65221544Y-70564715D01*
X65192811Y-70535639D01*
X65168654Y-70511126D01*
X65149263Y-70491367D01*
X65134830Y-70476554D01*
X65125545Y-70466880D01*
X65121601Y-70462536D01*
X65114787Y-70452770D01*
X65098598Y-70420992D01*
X65089339Y-70387116D01*
X65087009Y-70352283D01*
X65091608Y-70317635D01*
X65103135Y-70284315D01*
X65121593Y-70253464D01*
X65122461Y-70252448D01*
X65128452Y-70246085D01*
X65139726Y-70234452D01*
X65156102Y-70217727D01*
X65177400Y-70196092D01*
X65203443Y-70169726D01*
X65234049Y-70138809D01*
X65269041Y-70103522D01*
X65308237Y-70064043D01*
X65351461Y-70020555D01*
X65398531Y-69973235D01*
X65449268Y-69922265D01*
X65503494Y-69867825D01*
X65561028Y-69810094D01*
X65621692Y-69749253D01*
X65685305Y-69685481D01*
X65751690Y-69618959D01*
X65820666Y-69549867D01*
X65892053Y-69478384D01*
X65965674Y-69404691D01*
X66041347Y-69328968D01*
X66118895Y-69251394D01*
X66198137Y-69172151D01*
X66278894Y-69091417D01*
X66360988Y-69009373D01*
X66447304Y-68923124D01*
X66541164Y-68829345D01*
X66629785Y-68740811D01*
X66713318Y-68657371D01*
X66791916Y-68578875D01*
X66865731Y-68505171D01*
X66934917Y-68436109D01*
X66999624Y-68371539D01*
X67060006Y-68311309D01*
X67116216Y-68255268D01*
X67168404Y-68203267D01*
X67216725Y-68155153D01*
X67261330Y-68110777D01*
X67302371Y-68069987D01*
X67340002Y-68032633D01*
X67374374Y-67998565D01*
X67405640Y-67967630D01*
X67433952Y-67939679D01*
X67459463Y-67914560D01*
X67482325Y-67892123D01*
X67502690Y-67872218D01*
X67520712Y-67854693D01*
X67536542Y-67839397D01*
X67550332Y-67826180D01*
X67562236Y-67814891D01*
X67572405Y-67805380D01*
X67580992Y-67797495D01*
X67588150Y-67791086D01*
X67594030Y-67786001D01*
X67598786Y-67782091D01*
X67602569Y-67779204D01*
X67605532Y-67777190D01*
X67607827Y-67775898D01*
X67620738Y-67770130D01*
X67656390Y-67759623D01*
X67692297Y-67756924D01*
X67728383Y-67762033D01*
X67764573Y-67774951D01*
X67766526Y-67775924D01*
X67769040Y-67777376D01*
X67772002Y-67779336D01*
X67775568Y-67781957D01*
X67779890Y-67785391D01*
X67785123Y-67789789D01*
X67791421Y-67795305D01*
X67798936Y-67802089D01*
X67807824Y-67810295D01*
X67818237Y-67820074D01*
X67830330Y-67831578D01*
X67844257Y-67844960D01*
X67860170Y-67860372D01*
X67878225Y-67877965D01*
X67898574Y-67897891D01*
X67921373Y-67920304D01*
X67946773Y-67945355D01*
X67974930Y-67973196D01*
X68005997Y-68003978D01*
X68040127Y-68037856D01*
X68077476Y-68074979D01*
X68118196Y-68115501D01*
X68162441Y-68159574D01*
X68210365Y-68207349D01*
X68262122Y-68258979D01*
X68317866Y-68314616D01*
X68377750Y-68374412D01*
X68441928Y-68438519D01*
X68510555Y-68507089D01*
X68583784Y-68580274D01*
X68661768Y-68658227D01*
X68744662Y-68741099D01*
X68832619Y-68829043D01*
X68925793Y-68922211D01*
X69024338Y-69020754D01*
X69025197Y-69021612D01*
X69123673Y-69120091D01*
X69216776Y-69213200D01*
X69304656Y-69301093D01*
X69387467Y-69383924D01*
X69465359Y-69461848D01*
X69538486Y-69535017D01*
X69607000Y-69603586D01*
X69671053Y-69667710D01*
X69730797Y-69727540D01*
X69786384Y-69783233D01*
X69837966Y-69834941D01*
X69885696Y-69882818D01*
X69929726Y-69927019D01*
X69970207Y-69967697D01*
X70007293Y-70005007D01*
X70041136Y-70039101D01*
X70071886Y-70070135D01*
X70099698Y-70098261D01*
X70124722Y-70123634D01*
X70147112Y-70146408D01*
X70167019Y-70166737D01*
X70184595Y-70184774D01*
X70199993Y-70200673D01*
X70213365Y-70214589D01*
X70224863Y-70226675D01*
X70234639Y-70237086D01*
X70242845Y-70245974D01*
X70249634Y-70253495D01*
X70255158Y-70259801D01*
X70259569Y-70265048D01*
X70263019Y-70269388D01*
X70265661Y-70272975D01*
X70267646Y-70275965D01*
X70269127Y-70278509D01*
X70270255Y-70280764D01*
X70275301Y-70292406D01*
X70285804Y-70327457D01*
X70288722Y-70361971D01*
X70284064Y-70396788D01*
X70271838Y-70432750D01*
X70270838Y-70434871D01*
X70269423Y-70437413D01*
X70267487Y-70440408D01*
X70264870Y-70444021D01*
X70261409Y-70448414D01*
X70256943Y-70453752D01*
X70251311Y-70460198D01*
X70244352Y-70467916D01*
X70235903Y-70477069D01*
X70225803Y-70487821D01*
X70213892Y-70500336D01*
X70200006Y-70514777D01*
X70183986Y-70531308D01*
X70165669Y-70550092D01*
X70144893Y-70571294D01*
X70121499Y-70595077D01*
X70095323Y-70621604D01*
X70090154Y-70626829D01*
X70066204Y-70651039D01*
X70033981Y-70683546D01*
X69998493Y-70719288D01*
X69959578Y-70758429D01*
X69917074Y-70801133D01*
X69870821Y-70847564D01*
X69820655Y-70897884D01*
X69766417Y-70952258D01*
X69707945Y-71010848D01*
X69645076Y-71073820D01*
X69577650Y-71141337D01*
X69505505Y-71213561D01*
X69428480Y-71290657D01*
X69346413Y-71372788D01*
X69259142Y-71460119D01*
X69166507Y-71552812D01*
X68072000Y-72647978D01*
X68070902Y-72601051D01*
X68069805Y-72554123D01*
X68011430Y-72554123D01*
X68011430Y-71119479D01*
X68265108Y-71119479D01*
X68265137Y-71123952D01*
X68265872Y-71134861D01*
X68267189Y-71150936D01*
X68268962Y-71170906D01*
X68271067Y-71193499D01*
X68273380Y-71217444D01*
X68275775Y-71241469D01*
X68278128Y-71264304D01*
X68280315Y-71284678D01*
X68282210Y-71301318D01*
X68283690Y-71312955D01*
X68284628Y-71318316D01*
X68284868Y-71318505D01*
X68289908Y-71318922D01*
X68299331Y-71318643D01*
X68310340Y-71317807D01*
X68320138Y-71316552D01*
X68326545Y-71315486D01*
X68339457Y-71313371D01*
X68357316Y-71310462D01*
X68378703Y-71306989D01*
X68402200Y-71303185D01*
X68525828Y-71281456D01*
X68647660Y-71256431D01*
X68764575Y-71228672D01*
X68876130Y-71198306D01*
X68981885Y-71165462D01*
X69081399Y-71130268D01*
X69174230Y-71092854D01*
X69259938Y-71053347D01*
X69280099Y-71043213D01*
X69350588Y-71004663D01*
X69413337Y-70965079D01*
X69468352Y-70924456D01*
X69515638Y-70882789D01*
X69555202Y-70840071D01*
X69587049Y-70796297D01*
X69611185Y-70751461D01*
X69627617Y-70705559D01*
X69628445Y-70702297D01*
X69632183Y-70680147D01*
X69634218Y-70654028D01*
X69634503Y-70626829D01*
X69632992Y-70601436D01*
X69629636Y-70580739D01*
X69616133Y-70539981D01*
X69594151Y-70497164D01*
X69564504Y-70455578D01*
X69527228Y-70415263D01*
X69482356Y-70376263D01*
X69429923Y-70338618D01*
X69428297Y-70337556D01*
X69406025Y-70323978D01*
X69378382Y-70308494D01*
X69347120Y-70291983D01*
X69313987Y-70275328D01*
X69280734Y-70259410D01*
X69249108Y-70245110D01*
X69220861Y-70233309D01*
X69206380Y-70227673D01*
X69126080Y-70199078D01*
X69039067Y-70172244D01*
X68946135Y-70147358D01*
X68848081Y-70124607D01*
X68745702Y-70104178D01*
X68639794Y-70086259D01*
X68531153Y-70071038D01*
X68529236Y-70070797D01*
X68504164Y-70067765D01*
X68476514Y-70064597D01*
X68447321Y-70061396D01*
X68417618Y-70058263D01*
X68388441Y-70055298D01*
X68360824Y-70052603D01*
X68335801Y-70050279D01*
X68314407Y-70048426D01*
X68297675Y-70047147D01*
X68286641Y-70046542D01*
X68282339Y-70046713D01*
X68283656Y-70047207D01*
X68291393Y-70048853D01*
X68305130Y-70051408D01*
X68323823Y-70054685D01*
X68346426Y-70058497D01*
X68371896Y-70062660D01*
X68400561Y-70067366D01*
X68507105Y-70086493D01*
X68609840Y-70107530D01*
X68708515Y-70130366D01*
X68802881Y-70154888D01*
X68892688Y-70180986D01*
X68977683Y-70208547D01*
X69057619Y-70237460D01*
X69132243Y-70267613D01*
X69201306Y-70298895D01*
X69264557Y-70331193D01*
X69321746Y-70364396D01*
X69372623Y-70398393D01*
X69416937Y-70433072D01*
X69454438Y-70468321D01*
X69484876Y-70504028D01*
X69508000Y-70540082D01*
X69523560Y-70576372D01*
X69525517Y-70582671D01*
X69529623Y-70599554D01*
X69531188Y-70615761D01*
X69530716Y-70635461D01*
X69530429Y-70640030D01*
X69528804Y-70655523D01*
X69525778Y-70668787D01*
X69520497Y-70682809D01*
X69512109Y-70700580D01*
X69508727Y-70707250D01*
X69499703Y-70723124D01*
X69489622Y-70737428D01*
X69476833Y-70752350D01*
X69459685Y-70770080D01*
X69452797Y-70776799D01*
X69412539Y-70810995D01*
X69364940Y-70844005D01*
X69310336Y-70875729D01*
X69249063Y-70906062D01*
X69181458Y-70934904D01*
X69107858Y-70962150D01*
X69028598Y-70987698D01*
X68944015Y-71011446D01*
X68854446Y-71033292D01*
X68760228Y-71053132D01*
X68661696Y-71070864D01*
X68559187Y-71086385D01*
X68453038Y-71099593D01*
X68343584Y-71110385D01*
X68340604Y-71110644D01*
X68317284Y-71112790D01*
X68296850Y-71114885D01*
X68280528Y-71116787D01*
X68269545Y-71118356D01*
X68265127Y-71119448D01*
X68265108Y-71119479D01*
X68011430Y-71119479D01*
X68011430Y-69850000D01*
X68066138Y-69850000D01*
X68066138Y-69807016D01*
X68011430Y-69807016D01*
X68011430Y-69209139D01*
X68066138Y-69209139D01*
X68066138Y-69166154D01*
X68037094Y-69166154D01*
X68023692Y-69165955D01*
X68013649Y-69164997D01*
X68008327Y-69162907D01*
X68006058Y-69159316D01*
X68005882Y-69158638D01*
X68004294Y-69151434D01*
X68001455Y-69137842D01*
X67997575Y-69118889D01*
X67992862Y-69095602D01*
X67987526Y-69069007D01*
X67981775Y-69040131D01*
X67978100Y-69021789D01*
X67971131Y-68988264D01*
X67965279Y-68961982D01*
X67960571Y-68943063D01*
X67957037Y-68931624D01*
X67954705Y-68927785D01*
X67951936Y-68925154D01*
X67948293Y-68916431D01*
X67944915Y-68903362D01*
X67942646Y-68892888D01*
X67940492Y-68885618D01*
X67938761Y-68884515D01*
X67936981Y-68888708D01*
X67935100Y-68897006D01*
X67933666Y-68909262D01*
X67931635Y-68917749D01*
X67925799Y-68926449D01*
X67922862Y-68930170D01*
X67918646Y-68940104D01*
X67914244Y-68956159D01*
X67909397Y-68979165D01*
X67909277Y-68979790D01*
X67905675Y-68997552D01*
X67902411Y-69012070D01*
X67899839Y-69021863D01*
X67898314Y-69025448D01*
X67897904Y-69024544D01*
X67895634Y-69017353D01*
X67891565Y-69003449D01*
X67885853Y-68983392D01*
X67878653Y-68957742D01*
X67870120Y-68927058D01*
X67860410Y-68891900D01*
X67849678Y-68852828D01*
X67838080Y-68810400D01*
X67825770Y-68765177D01*
X67812904Y-68717718D01*
X67729654Y-68410016D01*
X67729866Y-68362147D01*
X67729899Y-68346781D01*
X67729705Y-68331660D01*
X67729048Y-68322131D01*
X67727724Y-68316913D01*
X67725530Y-68314722D01*
X67722261Y-68314277D01*
X67717726Y-68313730D01*
X67714437Y-68311347D01*
X67714257Y-68309023D01*
X67713222Y-68299824D01*
X67711408Y-68285042D01*
X67708976Y-68265889D01*
X67706087Y-68243578D01*
X67702902Y-68219320D01*
X67699584Y-68194328D01*
X67696293Y-68169815D01*
X67693190Y-68146993D01*
X67690438Y-68127073D01*
X67688196Y-68111268D01*
X67686627Y-68100790D01*
X67685892Y-68096852D01*
X67685123Y-68100087D01*
X67683542Y-68110097D01*
X67681293Y-68125897D01*
X67678514Y-68146494D01*
X67675341Y-68170892D01*
X67671913Y-68198099D01*
X67668674Y-68223906D01*
X67665386Y-68249516D01*
X67662452Y-68271777D01*
X67660018Y-68289585D01*
X67658233Y-68301840D01*
X67657245Y-68307439D01*
X67654917Y-68311207D01*
X67647752Y-68314277D01*
X67644939Y-68314653D01*
X67642757Y-68316688D01*
X67641376Y-68321615D01*
X67640619Y-68330664D01*
X67640307Y-68345067D01*
X67640262Y-68366054D01*
X67640324Y-68417831D01*
X67557315Y-68723494D01*
X67551151Y-68746155D01*
X67538539Y-68792274D01*
X67526551Y-68835793D01*
X67515343Y-68876162D01*
X67505070Y-68912833D01*
X67495889Y-68945254D01*
X67487956Y-68972877D01*
X67481428Y-68995151D01*
X67476460Y-69011527D01*
X67473209Y-69021456D01*
X67471830Y-69024386D01*
X67470219Y-69019107D01*
X67467523Y-69007738D01*
X67464151Y-68992035D01*
X67460484Y-68973700D01*
X67458205Y-68962361D01*
X67453673Y-68943124D01*
X67449776Y-68931613D01*
X67446500Y-68927785D01*
X67445092Y-68927297D01*
X67441444Y-68921188D01*
X67438707Y-68909223D01*
X67437328Y-68900575D01*
X67434599Y-68888861D01*
X67431982Y-68884832D01*
X67429529Y-68888529D01*
X67427290Y-68899996D01*
X67425910Y-68907405D01*
X67422119Y-68919424D01*
X67417654Y-68927025D01*
X67417422Y-68927271D01*
X67414647Y-68932627D01*
X67411159Y-68943406D01*
X67406846Y-68960065D01*
X67401598Y-68983062D01*
X67395303Y-69012854D01*
X67387850Y-69049900D01*
X67364875Y-69166154D01*
X67308046Y-69166154D01*
X67308046Y-69208796D01*
X67336377Y-69209945D01*
X67364707Y-69211093D01*
X67364707Y-69805062D01*
X67336377Y-69806210D01*
X67308046Y-69807358D01*
X67308046Y-69850000D01*
X67366672Y-69850000D01*
X67365750Y-71117165D01*
X67365690Y-71201085D01*
X67364707Y-72552170D01*
G37*
X67364707Y-72552170D02*
X67334423Y-72553311D01*
X67304138Y-72554452D01*
X67304138Y-72649857D01*
X66221296Y-71567428D01*
X66147708Y-71493856D01*
X66071740Y-71417876D01*
X65997291Y-71343389D01*
X65924553Y-71270585D01*
X65853718Y-71199658D01*
X65784974Y-71130798D01*
X65718515Y-71064199D01*
X65654530Y-71000051D01*
X65593211Y-70938547D01*
X65534749Y-70879879D01*
X65479334Y-70824238D01*
X65427158Y-70771816D01*
X65378412Y-70722806D01*
X65333287Y-70677399D01*
X65295865Y-70639706D01*
X65741119Y-70639706D01*
X65743405Y-70676304D01*
X65752383Y-70718750D01*
X65768349Y-70760237D01*
X65791504Y-70801171D01*
X65822046Y-70841961D01*
X65860176Y-70883013D01*
X65861102Y-70883923D01*
X65906931Y-70924592D01*
X65960209Y-70964236D01*
X66020632Y-71002738D01*
X66087892Y-71039982D01*
X66161686Y-71075851D01*
X66241705Y-71110227D01*
X66327646Y-71142994D01*
X66419201Y-71174036D01*
X66516065Y-71203235D01*
X66617932Y-71230475D01*
X66724496Y-71255639D01*
X66835451Y-71278610D01*
X66950492Y-71299272D01*
X66966318Y-71301888D01*
X66993485Y-71306296D01*
X67018655Y-71310284D01*
X67040401Y-71313628D01*
X67057295Y-71316108D01*
X67067912Y-71317502D01*
X67091547Y-71320124D01*
X67100454Y-71232762D01*
X67101561Y-71221950D01*
X67104219Y-71196350D01*
X67106681Y-71173135D01*
X67108799Y-71153654D01*
X67110429Y-71139254D01*
X67111425Y-71131283D01*
X67113489Y-71117165D01*
X67076929Y-71114444D01*
X67071946Y-71114053D01*
X67054577Y-71112540D01*
X67031834Y-71110415D01*
X67005433Y-71107845D01*
X66977095Y-71104995D01*
X66948538Y-71102032D01*
X66900222Y-71096662D01*
X66797369Y-71083355D01*
X66698396Y-71067962D01*
X66603551Y-71050585D01*
X66513076Y-71031322D01*
X66427217Y-71010272D01*
X66346219Y-70987536D01*
X66270328Y-70963213D01*
X66199786Y-70937401D01*
X66134841Y-70910201D01*
X66075736Y-70881711D01*
X66022716Y-70852032D01*
X65976027Y-70821263D01*
X65935913Y-70789502D01*
X65902619Y-70756850D01*
X65876391Y-70723406D01*
X65857472Y-70689268D01*
X65846108Y-70654538D01*
X65843580Y-70637333D01*
X65844754Y-70604822D01*
X65853322Y-70571546D01*
X65869059Y-70537728D01*
X65891744Y-70503590D01*
X65921153Y-70469355D01*
X65957064Y-70435245D01*
X65999255Y-70401485D01*
X66047501Y-70368295D01*
X66101580Y-70335900D01*
X66161271Y-70304521D01*
X66226349Y-70274382D01*
X66238850Y-70269036D01*
X66264505Y-70258494D01*
X66292762Y-70247339D01*
X66322722Y-70235885D01*
X66353488Y-70224446D01*
X66384159Y-70213337D01*
X66413840Y-70202873D01*
X66441631Y-70193368D01*
X66466634Y-70185137D01*
X66487951Y-70178494D01*
X66504685Y-70173755D01*
X66515936Y-70171233D01*
X66520807Y-70171244D01*
X66520902Y-70172556D01*
X66519371Y-70179826D01*
X66515947Y-70191849D01*
X66511104Y-70206882D01*
X66510288Y-70209316D01*
X66504997Y-70226734D01*
X66502990Y-70237285D01*
X66504286Y-70240866D01*
X66507660Y-70240020D01*
X66517842Y-70236968D01*
X66534106Y-70231902D01*
X66555774Y-70225042D01*
X66582170Y-70216610D01*
X66612620Y-70206825D01*
X66646447Y-70195909D01*
X66682974Y-70184083D01*
X66721527Y-70171567D01*
X66761429Y-70158582D01*
X66802004Y-70145348D01*
X66842577Y-70132086D01*
X66882471Y-70119018D01*
X66921010Y-70106364D01*
X66957519Y-70094343D01*
X66991322Y-70083179D01*
X67021743Y-70073090D01*
X67048106Y-70064297D01*
X67069734Y-70057022D01*
X67085953Y-70051486D01*
X67096086Y-70047908D01*
X67099457Y-70046509D01*
X67095897Y-70045954D01*
X67085277Y-70044835D01*
X67068381Y-70043237D01*
X67045992Y-70041223D01*
X67018890Y-70038858D01*
X66987857Y-70036204D01*
X66953674Y-70033324D01*
X66917122Y-70030282D01*
X66878982Y-70027142D01*
X66840036Y-70023967D01*
X66801064Y-70020819D01*
X66762849Y-70017764D01*
X66726171Y-70014863D01*
X66691812Y-70012180D01*
X66660552Y-70009779D01*
X66633174Y-70007723D01*
X66610458Y-70006075D01*
X66593186Y-70004899D01*
X66582138Y-70004259D01*
X66578096Y-70004216D01*
X66577431Y-70005623D01*
X66574634Y-70013243D01*
X66570174Y-70026274D01*
X66564498Y-70043397D01*
X66558053Y-70063291D01*
X66539641Y-70120735D01*
X66467890Y-70137742D01*
X66441712Y-70144069D01*
X66346147Y-70169414D01*
X66257115Y-70196711D01*
X66174731Y-70225898D01*
X66099114Y-70256909D01*
X66030380Y-70289681D01*
X65968647Y-70324150D01*
X65914032Y-70360251D01*
X65866652Y-70397921D01*
X65826625Y-70437095D01*
X65794068Y-70477709D01*
X65769098Y-70519699D01*
X65759578Y-70540478D01*
X65748864Y-70571825D01*
X65742961Y-70603831D01*
X65741119Y-70639706D01*
X65295865Y-70639706D01*
X65291973Y-70635786D01*
X65254662Y-70598161D01*
X65221544Y-70564715D01*
X65192811Y-70535639D01*
X65168654Y-70511126D01*
X65149263Y-70491367D01*
X65134830Y-70476554D01*
X65125545Y-70466880D01*
X65121601Y-70462536D01*
X65114787Y-70452770D01*
X65098598Y-70420992D01*
X65089339Y-70387116D01*
X65087009Y-70352283D01*
X65091608Y-70317635D01*
X65103135Y-70284315D01*
X65121593Y-70253464D01*
X65122461Y-70252448D01*
X65128452Y-70246085D01*
X65139726Y-70234452D01*
X65156102Y-70217727D01*
X65177400Y-70196092D01*
X65203443Y-70169726D01*
X65234049Y-70138809D01*
X65269041Y-70103522D01*
X65308237Y-70064043D01*
X65351461Y-70020555D01*
X65398531Y-69973235D01*
X65449268Y-69922265D01*
X65503494Y-69867825D01*
X65561028Y-69810094D01*
X65621692Y-69749253D01*
X65685305Y-69685481D01*
X65751690Y-69618959D01*
X65820666Y-69549867D01*
X65892053Y-69478384D01*
X65965674Y-69404691D01*
X66041347Y-69328968D01*
X66118895Y-69251394D01*
X66198137Y-69172151D01*
X66278894Y-69091417D01*
X66360988Y-69009373D01*
X66447304Y-68923124D01*
X66541164Y-68829345D01*
X66629785Y-68740811D01*
X66713318Y-68657371D01*
X66791916Y-68578875D01*
X66865731Y-68505171D01*
X66934917Y-68436109D01*
X66999624Y-68371539D01*
X67060006Y-68311309D01*
X67116216Y-68255268D01*
X67168404Y-68203267D01*
X67216725Y-68155153D01*
X67261330Y-68110777D01*
X67302371Y-68069987D01*
X67340002Y-68032633D01*
X67374374Y-67998565D01*
X67405640Y-67967630D01*
X67433952Y-67939679D01*
X67459463Y-67914560D01*
X67482325Y-67892123D01*
X67502690Y-67872218D01*
X67520712Y-67854693D01*
X67536542Y-67839397D01*
X67550332Y-67826180D01*
X67562236Y-67814891D01*
X67572405Y-67805380D01*
X67580992Y-67797495D01*
X67588150Y-67791086D01*
X67594030Y-67786001D01*
X67598786Y-67782091D01*
X67602569Y-67779204D01*
X67605532Y-67777190D01*
X67607827Y-67775898D01*
X67620738Y-67770130D01*
X67656390Y-67759623D01*
X67692297Y-67756924D01*
X67728383Y-67762033D01*
X67764573Y-67774951D01*
X67766526Y-67775924D01*
X67769040Y-67777376D01*
X67772002Y-67779336D01*
X67775568Y-67781957D01*
X67779890Y-67785391D01*
X67785123Y-67789789D01*
X67791421Y-67795305D01*
X67798936Y-67802089D01*
X67807824Y-67810295D01*
X67818237Y-67820074D01*
X67830330Y-67831578D01*
X67844257Y-67844960D01*
X67860170Y-67860372D01*
X67878225Y-67877965D01*
X67898574Y-67897891D01*
X67921373Y-67920304D01*
X67946773Y-67945355D01*
X67974930Y-67973196D01*
X68005997Y-68003978D01*
X68040127Y-68037856D01*
X68077476Y-68074979D01*
X68118196Y-68115501D01*
X68162441Y-68159574D01*
X68210365Y-68207349D01*
X68262122Y-68258979D01*
X68317866Y-68314616D01*
X68377750Y-68374412D01*
X68441928Y-68438519D01*
X68510555Y-68507089D01*
X68583784Y-68580274D01*
X68661768Y-68658227D01*
X68744662Y-68741099D01*
X68832619Y-68829043D01*
X68925793Y-68922211D01*
X69024338Y-69020754D01*
X69025197Y-69021612D01*
X69123673Y-69120091D01*
X69216776Y-69213200D01*
X69304656Y-69301093D01*
X69387467Y-69383924D01*
X69465359Y-69461848D01*
X69538486Y-69535017D01*
X69607000Y-69603586D01*
X69671053Y-69667710D01*
X69730797Y-69727540D01*
X69786384Y-69783233D01*
X69837966Y-69834941D01*
X69885696Y-69882818D01*
X69929726Y-69927019D01*
X69970207Y-69967697D01*
X70007293Y-70005007D01*
X70041136Y-70039101D01*
X70071886Y-70070135D01*
X70099698Y-70098261D01*
X70124722Y-70123634D01*
X70147112Y-70146408D01*
X70167019Y-70166737D01*
X70184595Y-70184774D01*
X70199993Y-70200673D01*
X70213365Y-70214589D01*
X70224863Y-70226675D01*
X70234639Y-70237086D01*
X70242845Y-70245974D01*
X70249634Y-70253495D01*
X70255158Y-70259801D01*
X70259569Y-70265048D01*
X70263019Y-70269388D01*
X70265661Y-70272975D01*
X70267646Y-70275965D01*
X70269127Y-70278509D01*
X70270255Y-70280764D01*
X70275301Y-70292406D01*
X70285804Y-70327457D01*
X70288722Y-70361971D01*
X70284064Y-70396788D01*
X70271838Y-70432750D01*
X70270838Y-70434871D01*
X70269423Y-70437413D01*
X70267487Y-70440408D01*
X70264870Y-70444021D01*
X70261409Y-70448414D01*
X70256943Y-70453752D01*
X70251311Y-70460198D01*
X70244352Y-70467916D01*
X70235903Y-70477069D01*
X70225803Y-70487821D01*
X70213892Y-70500336D01*
X70200006Y-70514777D01*
X70183986Y-70531308D01*
X70165669Y-70550092D01*
X70144893Y-70571294D01*
X70121499Y-70595077D01*
X70095323Y-70621604D01*
X70090154Y-70626829D01*
X70066204Y-70651039D01*
X70033981Y-70683546D01*
X69998493Y-70719288D01*
X69959578Y-70758429D01*
X69917074Y-70801133D01*
X69870821Y-70847564D01*
X69820655Y-70897884D01*
X69766417Y-70952258D01*
X69707945Y-71010848D01*
X69645076Y-71073820D01*
X69577650Y-71141337D01*
X69505505Y-71213561D01*
X69428480Y-71290657D01*
X69346413Y-71372788D01*
X69259142Y-71460119D01*
X69166507Y-71552812D01*
X68072000Y-72647978D01*
X68070902Y-72601051D01*
X68069805Y-72554123D01*
X68011430Y-72554123D01*
X68011430Y-71119479D01*
X68265108Y-71119479D01*
X68265137Y-71123952D01*
X68265872Y-71134861D01*
X68267189Y-71150936D01*
X68268962Y-71170906D01*
X68271067Y-71193499D01*
X68273380Y-71217444D01*
X68275775Y-71241469D01*
X68278128Y-71264304D01*
X68280315Y-71284678D01*
X68282210Y-71301318D01*
X68283690Y-71312955D01*
X68284628Y-71318316D01*
X68284868Y-71318505D01*
X68289908Y-71318922D01*
X68299331Y-71318643D01*
X68310340Y-71317807D01*
X68320138Y-71316552D01*
X68326545Y-71315486D01*
X68339457Y-71313371D01*
X68357316Y-71310462D01*
X68378703Y-71306989D01*
X68402200Y-71303185D01*
X68525828Y-71281456D01*
X68647660Y-71256431D01*
X68764575Y-71228672D01*
X68876130Y-71198306D01*
X68981885Y-71165462D01*
X69081399Y-71130268D01*
X69174230Y-71092854D01*
X69259938Y-71053347D01*
X69280099Y-71043213D01*
X69350588Y-71004663D01*
X69413337Y-70965079D01*
X69468352Y-70924456D01*
X69515638Y-70882789D01*
X69555202Y-70840071D01*
X69587049Y-70796297D01*
X69611185Y-70751461D01*
X69627617Y-70705559D01*
X69628445Y-70702297D01*
X69632183Y-70680147D01*
X69634218Y-70654028D01*
X69634503Y-70626829D01*
X69632992Y-70601436D01*
X69629636Y-70580739D01*
X69616133Y-70539981D01*
X69594151Y-70497164D01*
X69564504Y-70455578D01*
X69527228Y-70415263D01*
X69482356Y-70376263D01*
X69429923Y-70338618D01*
X69428297Y-70337556D01*
X69406025Y-70323978D01*
X69378382Y-70308494D01*
X69347120Y-70291983D01*
X69313987Y-70275328D01*
X69280734Y-70259410D01*
X69249108Y-70245110D01*
X69220861Y-70233309D01*
X69206380Y-70227673D01*
X69126080Y-70199078D01*
X69039067Y-70172244D01*
X68946135Y-70147358D01*
X68848081Y-70124607D01*
X68745702Y-70104178D01*
X68639794Y-70086259D01*
X68531153Y-70071038D01*
X68529236Y-70070797D01*
X68504164Y-70067765D01*
X68476514Y-70064597D01*
X68447321Y-70061396D01*
X68417618Y-70058263D01*
X68388441Y-70055298D01*
X68360824Y-70052603D01*
X68335801Y-70050279D01*
X68314407Y-70048426D01*
X68297675Y-70047147D01*
X68286641Y-70046542D01*
X68282339Y-70046713D01*
X68283656Y-70047207D01*
X68291393Y-70048853D01*
X68305130Y-70051408D01*
X68323823Y-70054685D01*
X68346426Y-70058497D01*
X68371896Y-70062660D01*
X68400561Y-70067366D01*
X68507105Y-70086493D01*
X68609840Y-70107530D01*
X68708515Y-70130366D01*
X68802881Y-70154888D01*
X68892688Y-70180986D01*
X68977683Y-70208547D01*
X69057619Y-70237460D01*
X69132243Y-70267613D01*
X69201306Y-70298895D01*
X69264557Y-70331193D01*
X69321746Y-70364396D01*
X69372623Y-70398393D01*
X69416937Y-70433072D01*
X69454438Y-70468321D01*
X69484876Y-70504028D01*
X69508000Y-70540082D01*
X69523560Y-70576372D01*
X69525517Y-70582671D01*
X69529623Y-70599554D01*
X69531188Y-70615761D01*
X69530716Y-70635461D01*
X69530429Y-70640030D01*
X69528804Y-70655523D01*
X69525778Y-70668787D01*
X69520497Y-70682809D01*
X69512109Y-70700580D01*
X69508727Y-70707250D01*
X69499703Y-70723124D01*
X69489622Y-70737428D01*
X69476833Y-70752350D01*
X69459685Y-70770080D01*
X69452797Y-70776799D01*
X69412539Y-70810995D01*
X69364940Y-70844005D01*
X69310336Y-70875729D01*
X69249063Y-70906062D01*
X69181458Y-70934904D01*
X69107858Y-70962150D01*
X69028598Y-70987698D01*
X68944015Y-71011446D01*
X68854446Y-71033292D01*
X68760228Y-71053132D01*
X68661696Y-71070864D01*
X68559187Y-71086385D01*
X68453038Y-71099593D01*
X68343584Y-71110385D01*
X68340604Y-71110644D01*
X68317284Y-71112790D01*
X68296850Y-71114885D01*
X68280528Y-71116787D01*
X68269545Y-71118356D01*
X68265127Y-71119448D01*
X68265108Y-71119479D01*
X68011430Y-71119479D01*
X68011430Y-69850000D01*
X68066138Y-69850000D01*
X68066138Y-69807016D01*
X68011430Y-69807016D01*
X68011430Y-69209139D01*
X68066138Y-69209139D01*
X68066138Y-69166154D01*
X68037094Y-69166154D01*
X68023692Y-69165955D01*
X68013649Y-69164997D01*
X68008327Y-69162907D01*
X68006058Y-69159316D01*
X68005882Y-69158638D01*
X68004294Y-69151434D01*
X68001455Y-69137842D01*
X67997575Y-69118889D01*
X67992862Y-69095602D01*
X67987526Y-69069007D01*
X67981775Y-69040131D01*
X67978100Y-69021789D01*
X67971131Y-68988264D01*
X67965279Y-68961982D01*
X67960571Y-68943063D01*
X67957037Y-68931624D01*
X67954705Y-68927785D01*
X67951936Y-68925154D01*
X67948293Y-68916431D01*
X67944915Y-68903362D01*
X67942646Y-68892888D01*
X67940492Y-68885618D01*
X67938761Y-68884515D01*
X67936981Y-68888708D01*
X67935100Y-68897006D01*
X67933666Y-68909262D01*
X67931635Y-68917749D01*
X67925799Y-68926449D01*
X67922862Y-68930170D01*
X67918646Y-68940104D01*
X67914244Y-68956159D01*
X67909397Y-68979165D01*
X67909277Y-68979790D01*
X67905675Y-68997552D01*
X67902411Y-69012070D01*
X67899839Y-69021863D01*
X67898314Y-69025448D01*
X67897904Y-69024544D01*
X67895634Y-69017353D01*
X67891565Y-69003449D01*
X67885853Y-68983392D01*
X67878653Y-68957742D01*
X67870120Y-68927058D01*
X67860410Y-68891900D01*
X67849678Y-68852828D01*
X67838080Y-68810400D01*
X67825770Y-68765177D01*
X67812904Y-68717718D01*
X67729654Y-68410016D01*
X67729866Y-68362147D01*
X67729899Y-68346781D01*
X67729705Y-68331660D01*
X67729048Y-68322131D01*
X67727724Y-68316913D01*
X67725530Y-68314722D01*
X67722261Y-68314277D01*
X67717726Y-68313730D01*
X67714437Y-68311347D01*
X67714257Y-68309023D01*
X67713222Y-68299824D01*
X67711408Y-68285042D01*
X67708976Y-68265889D01*
X67706087Y-68243578D01*
X67702902Y-68219320D01*
X67699584Y-68194328D01*
X67696293Y-68169815D01*
X67693190Y-68146993D01*
X67690438Y-68127073D01*
X67688196Y-68111268D01*
X67686627Y-68100790D01*
X67685892Y-68096852D01*
X67685123Y-68100087D01*
X67683542Y-68110097D01*
X67681293Y-68125897D01*
X67678514Y-68146494D01*
X67675341Y-68170892D01*
X67671913Y-68198099D01*
X67668674Y-68223906D01*
X67665386Y-68249516D01*
X67662452Y-68271777D01*
X67660018Y-68289585D01*
X67658233Y-68301840D01*
X67657245Y-68307439D01*
X67654917Y-68311207D01*
X67647752Y-68314277D01*
X67644939Y-68314653D01*
X67642757Y-68316688D01*
X67641376Y-68321615D01*
X67640619Y-68330664D01*
X67640307Y-68345067D01*
X67640262Y-68366054D01*
X67640324Y-68417831D01*
X67557315Y-68723494D01*
X67551151Y-68746155D01*
X67538539Y-68792274D01*
X67526551Y-68835793D01*
X67515343Y-68876162D01*
X67505070Y-68912833D01*
X67495889Y-68945254D01*
X67487956Y-68972877D01*
X67481428Y-68995151D01*
X67476460Y-69011527D01*
X67473209Y-69021456D01*
X67471830Y-69024386D01*
X67470219Y-69019107D01*
X67467523Y-69007738D01*
X67464151Y-68992035D01*
X67460484Y-68973700D01*
X67458205Y-68962361D01*
X67453673Y-68943124D01*
X67449776Y-68931613D01*
X67446500Y-68927785D01*
X67445092Y-68927297D01*
X67441444Y-68921188D01*
X67438707Y-68909223D01*
X67437328Y-68900575D01*
X67434599Y-68888861D01*
X67431982Y-68884832D01*
X67429529Y-68888529D01*
X67427290Y-68899996D01*
X67425910Y-68907405D01*
X67422119Y-68919424D01*
X67417654Y-68927025D01*
X67417422Y-68927271D01*
X67414647Y-68932627D01*
X67411159Y-68943406D01*
X67406846Y-68960065D01*
X67401598Y-68983062D01*
X67395303Y-69012854D01*
X67387850Y-69049900D01*
X67364875Y-69166154D01*
X67308046Y-69166154D01*
X67308046Y-69208796D01*
X67336377Y-69209945D01*
X67364707Y-69211093D01*
X67364707Y-69805062D01*
X67336377Y-69806210D01*
X67308046Y-69807358D01*
X67308046Y-69850000D01*
X67366672Y-69850000D01*
X67365750Y-71117165D01*
X67365690Y-71201085D01*
X67364707Y-72552170D01*
X67491538Y-69303262D02*
X67473818Y-69312252D01*
X67473818Y-69312252D02*
X67470085Y-69315285D01*
X67470085Y-69315285D02*
X67464470Y-69320432D01*
X67464470Y-69320432D02*
X67459754Y-69325643D01*
X67459754Y-69325643D02*
X67455860Y-69331616D01*
X67455860Y-69331616D02*
X67452708Y-69339048D01*
X67452708Y-69339048D02*
X67450221Y-69348638D01*
X67450221Y-69348638D02*
X67448319Y-69361083D01*
X67448319Y-69361083D02*
X67446924Y-69377080D01*
X67446924Y-69377080D02*
X67445959Y-69397328D01*
X67445959Y-69397328D02*
X67445343Y-69422524D01*
X67445343Y-69422524D02*
X67445000Y-69453367D01*
X67445000Y-69453367D02*
X67444850Y-69490554D01*
X67444850Y-69490554D02*
X67444815Y-69534782D01*
X67444815Y-69534782D02*
X67444815Y-69717139D01*
X67444815Y-69717139D02*
X67570221Y-69717139D01*
X67570221Y-69717139D02*
X67569064Y-69534454D01*
X67569064Y-69534454D02*
X67567907Y-69351770D01*
X67567907Y-69351770D02*
X67558138Y-69334185D01*
X67558138Y-69334185D02*
X67544901Y-69317016D01*
X67544901Y-69317016D02*
X67528465Y-69305941D01*
X67528465Y-69305941D02*
X67510216Y-69301257D01*
X67510216Y-69301257D02*
X67491538Y-69303262D01*
X67491538Y-69303262D02*
X67491538Y-69303262D01*
G36*
X67528465Y-69305941D02*
G01*
X67544901Y-69317016D01*
X67558138Y-69334185D01*
X67567907Y-69351770D01*
X67569064Y-69534454D01*
X67570221Y-69717139D01*
X67444815Y-69717139D01*
X67444815Y-69534782D01*
X67444850Y-69490554D01*
X67445000Y-69453367D01*
X67445343Y-69422524D01*
X67445959Y-69397328D01*
X67446924Y-69377080D01*
X67448319Y-69361083D01*
X67450221Y-69348638D01*
X67452708Y-69339048D01*
X67455860Y-69331616D01*
X67459754Y-69325643D01*
X67464470Y-69320432D01*
X67470085Y-69315285D01*
X67473818Y-69312252D01*
X67491538Y-69303262D01*
X67510216Y-69301257D01*
X67528465Y-69305941D01*
G37*
X67528465Y-69305941D02*
X67544901Y-69317016D01*
X67558138Y-69334185D01*
X67567907Y-69351770D01*
X67569064Y-69534454D01*
X67570221Y-69717139D01*
X67444815Y-69717139D01*
X67444815Y-69534782D01*
X67444850Y-69490554D01*
X67445000Y-69453367D01*
X67445343Y-69422524D01*
X67445959Y-69397328D01*
X67446924Y-69377080D01*
X67448319Y-69361083D01*
X67450221Y-69348638D01*
X67452708Y-69339048D01*
X67455860Y-69331616D01*
X67459754Y-69325643D01*
X67464470Y-69320432D01*
X67470085Y-69315285D01*
X67473818Y-69312252D01*
X67491538Y-69303262D01*
X67510216Y-69301257D01*
X67528465Y-69305941D01*
X67854219Y-69303060D02*
X67836074Y-69313181D01*
X67836074Y-69313181D02*
X67832758Y-69315937D01*
X67832758Y-69315937D02*
X67827262Y-69320816D01*
X67827262Y-69320816D02*
X67822655Y-69325444D01*
X67822655Y-69325444D02*
X67818858Y-69330522D01*
X67818858Y-69330522D02*
X67815794Y-69336751D01*
X67815794Y-69336751D02*
X67813384Y-69344834D01*
X67813384Y-69344834D02*
X67811549Y-69355470D01*
X67811549Y-69355470D02*
X67810211Y-69369363D01*
X67810211Y-69369363D02*
X67809292Y-69387213D01*
X67809292Y-69387213D02*
X67808712Y-69409722D01*
X67808712Y-69409722D02*
X67808395Y-69437591D01*
X67808395Y-69437591D02*
X67808260Y-69471522D01*
X67808260Y-69471522D02*
X67808230Y-69512217D01*
X67808230Y-69512217D02*
X67808230Y-69717139D01*
X67808230Y-69717139D02*
X67929369Y-69717139D01*
X67929369Y-69717139D02*
X67929369Y-69537259D01*
X67929369Y-69537259D02*
X67929356Y-69493073D01*
X67929356Y-69493073D02*
X67929267Y-69455990D01*
X67929267Y-69455990D02*
X67929031Y-69425296D01*
X67929031Y-69425296D02*
X67928575Y-69400280D01*
X67928575Y-69400280D02*
X67927826Y-69380228D01*
X67927826Y-69380228D02*
X67926713Y-69364428D01*
X67926713Y-69364428D02*
X67925161Y-69352167D01*
X67925161Y-69352167D02*
X67923099Y-69342732D01*
X67923099Y-69342732D02*
X67920455Y-69335411D01*
X67920455Y-69335411D02*
X67917156Y-69329490D01*
X67917156Y-69329490D02*
X67913128Y-69324258D01*
X67913128Y-69324258D02*
X67908301Y-69319002D01*
X67908301Y-69319002D02*
X67907025Y-69317668D01*
X67907025Y-69317668D02*
X67890596Y-69305325D01*
X67890596Y-69305325D02*
X67872693Y-69300449D01*
X67872693Y-69300449D02*
X67854219Y-69303060D01*
X67854219Y-69303060D02*
X67854219Y-69303060D01*
G36*
X67890596Y-69305325D02*
G01*
X67907025Y-69317668D01*
X67908301Y-69319002D01*
X67913128Y-69324258D01*
X67917156Y-69329490D01*
X67920455Y-69335411D01*
X67923099Y-69342732D01*
X67925161Y-69352167D01*
X67926713Y-69364428D01*
X67927826Y-69380228D01*
X67928575Y-69400280D01*
X67929031Y-69425296D01*
X67929267Y-69455990D01*
X67929356Y-69493073D01*
X67929369Y-69537259D01*
X67929369Y-69717139D01*
X67808230Y-69717139D01*
X67808230Y-69512217D01*
X67808260Y-69471522D01*
X67808395Y-69437591D01*
X67808712Y-69409722D01*
X67809292Y-69387213D01*
X67810211Y-69369363D01*
X67811549Y-69355470D01*
X67813384Y-69344834D01*
X67815794Y-69336751D01*
X67818858Y-69330522D01*
X67822655Y-69325444D01*
X67827262Y-69320816D01*
X67832758Y-69315937D01*
X67836074Y-69313181D01*
X67854219Y-69303060D01*
X67872693Y-69300449D01*
X67890596Y-69305325D01*
G37*
X67890596Y-69305325D02*
X67907025Y-69317668D01*
X67908301Y-69319002D01*
X67913128Y-69324258D01*
X67917156Y-69329490D01*
X67920455Y-69335411D01*
X67923099Y-69342732D01*
X67925161Y-69352167D01*
X67926713Y-69364428D01*
X67927826Y-69380228D01*
X67928575Y-69400280D01*
X67929031Y-69425296D01*
X67929267Y-69455990D01*
X67929356Y-69493073D01*
X67929369Y-69537259D01*
X67929369Y-69717139D01*
X67808230Y-69717139D01*
X67808230Y-69512217D01*
X67808260Y-69471522D01*
X67808395Y-69437591D01*
X67808712Y-69409722D01*
X67809292Y-69387213D01*
X67810211Y-69369363D01*
X67811549Y-69355470D01*
X67813384Y-69344834D01*
X67815794Y-69336751D01*
X67818858Y-69330522D01*
X67822655Y-69325444D01*
X67827262Y-69320816D01*
X67832758Y-69315937D01*
X67836074Y-69313181D01*
X67854219Y-69303060D01*
X67872693Y-69300449D01*
X67890596Y-69305325D01*
X67633169Y-66983361D02*
X67583571Y-66994261D01*
X67583571Y-66994261D02*
X67535392Y-67011872D01*
X67535392Y-67011872D02*
X67489335Y-67036207D01*
X67489335Y-67036207D02*
X67446098Y-67067280D01*
X67446098Y-67067280D02*
X67428161Y-67083080D01*
X67428161Y-67083080D02*
X67418304Y-67093408D01*
X67418304Y-67093408D02*
X67405007Y-67108955D01*
X67405007Y-67108955D02*
X67389253Y-67128494D01*
X67389253Y-67128494D02*
X67372023Y-67150799D01*
X67372023Y-67150799D02*
X67354299Y-67174644D01*
X67354299Y-67174644D02*
X67349280Y-67181572D01*
X67349280Y-67181572D02*
X67195662Y-67390781D01*
X67195662Y-67390781D02*
X67040989Y-67593185D01*
X67040989Y-67593185D02*
X66884413Y-67789791D01*
X66884413Y-67789791D02*
X66725081Y-67981607D01*
X66725081Y-67981607D02*
X66562143Y-68169641D01*
X66562143Y-68169641D02*
X66394749Y-68354899D01*
X66394749Y-68354899D02*
X66222048Y-68538391D01*
X66222048Y-68538391D02*
X66084938Y-68679086D01*
X66084938Y-68679086D02*
X65866774Y-68894307D01*
X65866774Y-68894307D02*
X65644031Y-69103351D01*
X65644031Y-69103351D02*
X65416430Y-69306457D01*
X65416430Y-69306457D02*
X65183690Y-69503866D01*
X65183690Y-69503866D02*
X64945533Y-69695817D01*
X64945533Y-69695817D02*
X64701678Y-69882550D01*
X64701678Y-69882550D02*
X64562892Y-69984665D01*
X64562892Y-69984665D02*
X64525653Y-70011846D01*
X64525653Y-70011846D02*
X64494211Y-70035220D01*
X64494211Y-70035220D02*
X64467891Y-70055364D01*
X64467891Y-70055364D02*
X64446018Y-70072852D01*
X64446018Y-70072852D02*
X64427916Y-70088260D01*
X64427916Y-70088260D02*
X64412911Y-70102163D01*
X64412911Y-70102163D02*
X64400329Y-70115137D01*
X64400329Y-70115137D02*
X64389493Y-70127757D01*
X64389493Y-70127757D02*
X64379729Y-70140598D01*
X64379729Y-70140598D02*
X64379352Y-70141123D01*
X64379352Y-70141123D02*
X64351220Y-70186631D01*
X64351220Y-70186631D02*
X64330388Y-70234539D01*
X64330388Y-70234539D02*
X64316751Y-70285197D01*
X64316751Y-70285197D02*
X64310200Y-70338952D01*
X64310200Y-70338952D02*
X64309554Y-70367770D01*
X64309554Y-70367770D02*
X64313057Y-70420000D01*
X64313057Y-70420000D02*
X64322876Y-70468524D01*
X64322876Y-70468524D02*
X64339439Y-70514776D01*
X64339439Y-70514776D02*
X64363177Y-70560194D01*
X64363177Y-70560194D02*
X64370957Y-70572629D01*
X64370957Y-70572629D02*
X64382362Y-70589155D01*
X64382362Y-70589155D02*
X64394930Y-70604938D01*
X64394930Y-70604938D02*
X64409412Y-70620637D01*
X64409412Y-70620637D02*
X64426555Y-70636913D01*
X64426555Y-70636913D02*
X64447109Y-70654425D01*
X64447109Y-70654425D02*
X64471823Y-70673832D01*
X64471823Y-70673832D02*
X64501446Y-70695794D01*
X64501446Y-70695794D02*
X64536726Y-70720971D01*
X64536726Y-70720971D02*
X64549899Y-70730210D01*
X64549899Y-70730210D02*
X64789394Y-70902361D01*
X64789394Y-70902361D02*
X65024281Y-71080783D01*
X65024281Y-71080783D02*
X65254416Y-71265333D01*
X65254416Y-71265333D02*
X65479656Y-71455867D01*
X65479656Y-71455867D02*
X65699857Y-71652242D01*
X65699857Y-71652242D02*
X65914876Y-71854314D01*
X65914876Y-71854314D02*
X66124568Y-72061939D01*
X66124568Y-72061939D02*
X66328790Y-72274974D01*
X66328790Y-72274974D02*
X66527398Y-72493275D01*
X66527398Y-72493275D02*
X66720248Y-72716699D01*
X66720248Y-72716699D02*
X66907197Y-72945102D01*
X66907197Y-72945102D02*
X67088100Y-73178340D01*
X67088100Y-73178340D02*
X67262815Y-73416269D01*
X67262815Y-73416269D02*
X67321887Y-73499785D01*
X67321887Y-73499785D02*
X67349830Y-73539089D01*
X67349830Y-73539089D02*
X67374539Y-73572389D01*
X67374539Y-73572389D02*
X67396748Y-73600410D01*
X67396748Y-73600410D02*
X67417192Y-73623881D01*
X67417192Y-73623881D02*
X67436606Y-73643530D01*
X67436606Y-73643530D02*
X67455724Y-73660083D01*
X67455724Y-73660083D02*
X67475281Y-73674268D01*
X67475281Y-73674268D02*
X67496011Y-73686813D01*
X67496011Y-73686813D02*
X67518649Y-73698445D01*
X67518649Y-73698445D02*
X67525936Y-73701872D01*
X67525936Y-73701872D02*
X67564501Y-73716638D01*
X67564501Y-73716638D02*
X67607099Y-73727657D01*
X67607099Y-73727657D02*
X67651365Y-73734579D01*
X67651365Y-73734579D02*
X67694932Y-73737053D01*
X67694932Y-73737053D02*
X67735435Y-73734730D01*
X67735435Y-73734730D02*
X67741800Y-73733840D01*
X67741800Y-73733840D02*
X67770629Y-73727715D01*
X67770629Y-73727715D02*
X67802599Y-73718114D01*
X67802599Y-73718114D02*
X67834801Y-73706097D01*
X67834801Y-73706097D02*
X67864327Y-73692725D01*
X67864327Y-73692725D02*
X67883222Y-73682286D01*
X67883222Y-73682286D02*
X67907193Y-73666233D01*
X67907193Y-73666233D02*
X67929736Y-73648187D01*
X67929736Y-73648187D02*
X67951761Y-73627190D01*
X67951761Y-73627190D02*
X67974178Y-73602283D01*
X67974178Y-73602283D02*
X67997896Y-73572507D01*
X67997896Y-73572507D02*
X68023824Y-73536902D01*
X68023824Y-73536902D02*
X68031481Y-73525935D01*
X68031481Y-73525935D02*
X68186817Y-73306951D01*
X68186817Y-73306951D02*
X68344805Y-73094661D01*
X68344805Y-73094661D02*
X68506156Y-72888190D01*
X68506156Y-72888190D02*
X68671579Y-72686662D01*
X68671579Y-72686662D02*
X68841786Y-72489201D01*
X68841786Y-72489201D02*
X69017486Y-72294932D01*
X69017486Y-72294932D02*
X69109657Y-72196570D01*
X69109657Y-72196570D02*
X69139616Y-72165271D01*
X69139616Y-72165271D02*
X69174068Y-72129792D01*
X69174068Y-72129792D02*
X69212152Y-72090988D01*
X69212152Y-72090988D02*
X69253006Y-72049714D01*
X69253006Y-72049714D02*
X69295767Y-72006825D01*
X69295767Y-72006825D02*
X69339573Y-71963176D01*
X69339573Y-71963176D02*
X69383562Y-71919622D01*
X69383562Y-71919622D02*
X69426872Y-71877018D01*
X69426872Y-71877018D02*
X69468640Y-71836220D01*
X69468640Y-71836220D02*
X69508004Y-71798082D01*
X69508004Y-71798082D02*
X69544103Y-71763460D01*
X69544103Y-71763460D02*
X69576073Y-71733208D01*
X69576073Y-71733208D02*
X69589852Y-71720348D01*
X69589852Y-71720348D02*
X69762926Y-71563063D01*
X69762926Y-71563063D02*
X69939643Y-71408976D01*
X69939643Y-71408976D02*
X70119097Y-71258815D01*
X70119097Y-71258815D02*
X70300386Y-71113302D01*
X70300386Y-71113302D02*
X70482605Y-70973162D01*
X70482605Y-70973162D02*
X70664850Y-70839121D01*
X70664850Y-70839121D02*
X70846217Y-70711903D01*
X70846217Y-70711903D02*
X70858184Y-70703730D01*
X70858184Y-70703730D02*
X70903187Y-70671297D01*
X70903187Y-70671297D02*
X70941288Y-70639796D01*
X70941288Y-70639796D02*
X70973188Y-70608340D01*
X70973188Y-70608340D02*
X70999587Y-70576045D01*
X70999587Y-70576045D02*
X71021184Y-70542025D01*
X71021184Y-70542025D02*
X71038681Y-70505396D01*
X71038681Y-70505396D02*
X71052776Y-70465272D01*
X71052776Y-70465272D02*
X71056184Y-70453381D01*
X71056184Y-70453381D02*
X71061010Y-70429132D01*
X71061010Y-70429132D02*
X71064063Y-70399634D01*
X71064063Y-70399634D02*
X71065341Y-70367252D01*
X71065341Y-70367252D02*
X71065202Y-70358000D01*
X71065202Y-70358000D02*
X70420103Y-70358000D01*
X70420103Y-70358000D02*
X70417567Y-70403211D01*
X70417567Y-70403211D02*
X70409573Y-70444126D01*
X70409573Y-70444126D02*
X70395538Y-70482554D01*
X70395538Y-70482554D02*
X70374880Y-70520307D01*
X70374880Y-70520307D02*
X70361735Y-70539708D01*
X70361735Y-70539708D02*
X70357760Y-70544162D01*
X70357760Y-70544162D02*
X70348473Y-70553907D01*
X70348473Y-70553907D02*
X70334088Y-70568727D01*
X70334088Y-70568727D02*
X70314821Y-70588409D01*
X70314821Y-70588409D02*
X70290886Y-70612736D01*
X70290886Y-70612736D02*
X70262499Y-70641495D01*
X70262499Y-70641495D02*
X70229875Y-70674469D01*
X70229875Y-70674469D02*
X70193228Y-70711446D01*
X70193228Y-70711446D02*
X70152773Y-70752209D01*
X70152773Y-70752209D02*
X70108726Y-70796543D01*
X70108726Y-70796543D02*
X70061302Y-70844235D01*
X70061302Y-70844235D02*
X70010715Y-70895068D01*
X70010715Y-70895068D02*
X69957180Y-70948829D01*
X69957180Y-70948829D02*
X69900913Y-71005302D01*
X69900913Y-71005302D02*
X69842128Y-71064272D01*
X69842128Y-71064272D02*
X69781040Y-71125525D01*
X69781040Y-71125525D02*
X69717865Y-71188845D01*
X69717865Y-71188845D02*
X69652817Y-71254018D01*
X69652817Y-71254018D02*
X69586111Y-71320829D01*
X69586111Y-71320829D02*
X69517962Y-71389062D01*
X69517962Y-71389062D02*
X69448586Y-71458504D01*
X69448586Y-71458504D02*
X69378196Y-71528940D01*
X69378196Y-71528940D02*
X69307009Y-71600153D01*
X69307009Y-71600153D02*
X69235239Y-71671930D01*
X69235239Y-71671930D02*
X69163101Y-71744056D01*
X69163101Y-71744056D02*
X69090810Y-71816316D01*
X69090810Y-71816316D02*
X69018581Y-71888494D01*
X69018581Y-71888494D02*
X68946629Y-71960377D01*
X68946629Y-71960377D02*
X68875169Y-72031749D01*
X68875169Y-72031749D02*
X68804416Y-72102395D01*
X68804416Y-72102395D02*
X68734585Y-72172100D01*
X68734585Y-72172100D02*
X68665891Y-72240650D01*
X68665891Y-72240650D02*
X68598548Y-72307830D01*
X68598548Y-72307830D02*
X68532773Y-72373425D01*
X68532773Y-72373425D02*
X68468779Y-72437219D01*
X68468779Y-72437219D02*
X68406782Y-72498999D01*
X68406782Y-72498999D02*
X68346997Y-72558548D01*
X68346997Y-72558548D02*
X68289639Y-72615654D01*
X68289639Y-72615654D02*
X68234922Y-72670099D01*
X68234922Y-72670099D02*
X68183062Y-72721671D01*
X68183062Y-72721671D02*
X68134274Y-72770152D01*
X68134274Y-72770152D02*
X68088773Y-72815330D01*
X68088773Y-72815330D02*
X68046773Y-72856989D01*
X68046773Y-72856989D02*
X68008489Y-72894914D01*
X68008489Y-72894914D02*
X67974137Y-72928890D01*
X67974137Y-72928890D02*
X67943932Y-72958703D01*
X67943932Y-72958703D02*
X67918088Y-72984137D01*
X67918088Y-72984137D02*
X67896821Y-73004978D01*
X67896821Y-73004978D02*
X67880345Y-73021010D01*
X67880345Y-73021010D02*
X67868875Y-73032020D01*
X67868875Y-73032020D02*
X67862627Y-73037791D01*
X67862627Y-73037791D02*
X67861667Y-73038566D01*
X67861667Y-73038566D02*
X67843779Y-73049303D01*
X67843779Y-73049303D02*
X67822196Y-73060435D01*
X67822196Y-73060435D02*
X67799765Y-73070632D01*
X67799765Y-73070632D02*
X67779334Y-73078562D01*
X67779334Y-73078562D02*
X67769591Y-73081582D01*
X67769591Y-73081582D02*
X67727469Y-73089298D01*
X67727469Y-73089298D02*
X67682581Y-73091106D01*
X67682581Y-73091106D02*
X67637274Y-73087011D01*
X67637274Y-73087011D02*
X67608938Y-73081244D01*
X67608938Y-73081244D02*
X67569808Y-73067993D01*
X67569808Y-73067993D02*
X67531056Y-73048482D01*
X67531056Y-73048482D02*
X67499523Y-73027309D01*
X67499523Y-73027309D02*
X67495077Y-73023264D01*
X67495077Y-73023264D02*
X67485291Y-73013867D01*
X67485291Y-73013867D02*
X67470343Y-72999298D01*
X67470343Y-72999298D02*
X67450414Y-72979736D01*
X67450414Y-72979736D02*
X67425684Y-72955361D01*
X67425684Y-72955361D02*
X67396334Y-72926351D01*
X67396334Y-72926351D02*
X67362543Y-72892887D01*
X67362543Y-72892887D02*
X67324491Y-72855148D01*
X67324491Y-72855148D02*
X67282360Y-72813313D01*
X67282360Y-72813313D02*
X67236328Y-72767561D01*
X67236328Y-72767561D02*
X67186576Y-72718072D01*
X67186576Y-72718072D02*
X67133285Y-72665026D01*
X67133285Y-72665026D02*
X67076634Y-72608602D01*
X67076634Y-72608602D02*
X67016804Y-72548978D01*
X67016804Y-72548978D02*
X66953974Y-72486336D01*
X66953974Y-72486336D02*
X66888325Y-72420853D01*
X66888325Y-72420853D02*
X66820037Y-72352710D01*
X66820037Y-72352710D02*
X66749291Y-72282086D01*
X66749291Y-72282086D02*
X66676265Y-72209160D01*
X66676265Y-72209160D02*
X66601142Y-72134111D01*
X66601142Y-72134111D02*
X66524100Y-72057120D01*
X66524100Y-72057120D02*
X66445320Y-71978365D01*
X66445320Y-71978365D02*
X66364981Y-71898026D01*
X66364981Y-71898026D02*
X66283265Y-71816283D01*
X66283265Y-71816283D02*
X66246675Y-71779671D01*
X66246675Y-71779671D02*
X66147443Y-71680381D01*
X66147443Y-71680381D02*
X66053578Y-71586469D01*
X66053578Y-71586469D02*
X65964928Y-71497778D01*
X65964928Y-71497778D02*
X65881342Y-71414151D01*
X65881342Y-71414151D02*
X65802670Y-71335432D01*
X65802670Y-71335432D02*
X65728759Y-71261463D01*
X65728759Y-71261463D02*
X65659458Y-71192089D01*
X65659458Y-71192089D02*
X65594616Y-71127153D01*
X65594616Y-71127153D02*
X65534082Y-71066496D01*
X65534082Y-71066496D02*
X65477705Y-71009964D01*
X65477705Y-71009964D02*
X65425333Y-70957399D01*
X65425333Y-70957399D02*
X65376815Y-70908645D01*
X65376815Y-70908645D02*
X65331999Y-70863544D01*
X65331999Y-70863544D02*
X65290735Y-70821939D01*
X65290735Y-70821939D02*
X65252872Y-70783675D01*
X65252872Y-70783675D02*
X65218257Y-70748595D01*
X65218257Y-70748595D02*
X65186740Y-70716541D01*
X65186740Y-70716541D02*
X65158169Y-70687357D01*
X65158169Y-70687357D02*
X65132393Y-70660886D01*
X65132393Y-70660886D02*
X65109261Y-70636971D01*
X65109261Y-70636971D02*
X65088622Y-70615456D01*
X65088622Y-70615456D02*
X65070324Y-70596184D01*
X65070324Y-70596184D02*
X65054216Y-70578998D01*
X65054216Y-70578998D02*
X65040147Y-70563742D01*
X65040147Y-70563742D02*
X65027965Y-70550258D01*
X65027965Y-70550258D02*
X65017520Y-70538390D01*
X65017520Y-70538390D02*
X65008659Y-70527981D01*
X65008659Y-70527981D02*
X65001232Y-70518874D01*
X65001232Y-70518874D02*
X64995088Y-70510913D01*
X64995088Y-70510913D02*
X64990075Y-70503941D01*
X64990075Y-70503941D02*
X64986041Y-70497801D01*
X64986041Y-70497801D02*
X64982837Y-70492336D01*
X64982837Y-70492336D02*
X64980309Y-70487390D01*
X64980309Y-70487390D02*
X64978308Y-70482806D01*
X64978308Y-70482806D02*
X64976681Y-70478427D01*
X64976681Y-70478427D02*
X64975278Y-70474097D01*
X64975278Y-70474097D02*
X64973947Y-70469658D01*
X64973947Y-70469658D02*
X64972537Y-70464953D01*
X64972537Y-70464953D02*
X64970897Y-70459827D01*
X64970897Y-70459827D02*
X64969728Y-70456450D01*
X64969728Y-70456450D02*
X64965205Y-70443476D01*
X64965205Y-70443476D02*
X64961969Y-70432664D01*
X64961969Y-70432664D02*
X64959806Y-70422273D01*
X64959806Y-70422273D02*
X64958500Y-70410559D01*
X64958500Y-70410559D02*
X64957835Y-70395779D01*
X64957835Y-70395779D02*
X64957597Y-70376190D01*
X64957597Y-70376190D02*
X64957569Y-70358000D01*
X64957569Y-70358000D02*
X64957632Y-70333837D01*
X64957632Y-70333837D02*
X64957966Y-70315746D01*
X64957966Y-70315746D02*
X64958786Y-70301984D01*
X64958786Y-70301984D02*
X64960307Y-70290808D01*
X64960307Y-70290808D02*
X64962744Y-70280475D01*
X64962744Y-70280475D02*
X64966313Y-70269242D01*
X64966313Y-70269242D02*
X64969728Y-70259550D01*
X64969728Y-70259550D02*
X64971581Y-70254092D01*
X64971581Y-70254092D02*
X64973112Y-70249151D01*
X64973112Y-70249151D02*
X64974473Y-70244570D01*
X64974473Y-70244570D02*
X64975814Y-70240193D01*
X64975814Y-70240193D02*
X64977287Y-70235862D01*
X64977287Y-70235862D02*
X64979043Y-70231421D01*
X64979043Y-70231421D02*
X64981234Y-70226713D01*
X64981234Y-70226713D02*
X64984011Y-70221581D01*
X64984011Y-70221581D02*
X64987524Y-70215869D01*
X64987524Y-70215869D02*
X64991926Y-70209419D01*
X64991926Y-70209419D02*
X64997367Y-70202076D01*
X64997367Y-70202076D02*
X65003999Y-70193682D01*
X65003999Y-70193682D02*
X65011972Y-70184081D01*
X65011972Y-70184081D02*
X65021440Y-70173116D01*
X65021440Y-70173116D02*
X65032551Y-70160629D01*
X65032551Y-70160629D02*
X65045459Y-70146465D01*
X65045459Y-70146465D02*
X65060314Y-70130467D01*
X65060314Y-70130467D02*
X65077267Y-70112477D01*
X65077267Y-70112477D02*
X65096470Y-70092340D01*
X65096470Y-70092340D02*
X65118074Y-70069898D01*
X65118074Y-70069898D02*
X65142230Y-70044994D01*
X65142230Y-70044994D02*
X65169089Y-70017473D01*
X65169089Y-70017473D02*
X65198803Y-69987176D01*
X65198803Y-69987176D02*
X65231523Y-69953948D01*
X65231523Y-69953948D02*
X65267401Y-69917631D01*
X65267401Y-69917631D02*
X65306587Y-69878069D01*
X65306587Y-69878069D02*
X65349233Y-69835105D01*
X65349233Y-69835105D02*
X65395490Y-69788583D01*
X65395490Y-69788583D02*
X65445509Y-69738345D01*
X65445509Y-69738345D02*
X65499442Y-69684234D01*
X65499442Y-69684234D02*
X65557439Y-69626095D01*
X65557439Y-69626095D02*
X65619653Y-69563771D01*
X65619653Y-69563771D02*
X65686235Y-69497103D01*
X65686235Y-69497103D02*
X65757335Y-69425937D01*
X65757335Y-69425937D02*
X65833105Y-69350115D01*
X65833105Y-69350115D02*
X65913696Y-69269480D01*
X65913696Y-69269480D02*
X65999260Y-69183875D01*
X65999260Y-69183875D02*
X66089947Y-69093145D01*
X66089947Y-69093145D02*
X66185910Y-68997131D01*
X66185910Y-68997131D02*
X66246675Y-68936329D01*
X66246675Y-68936329D02*
X66328944Y-68854021D01*
X66328944Y-68854021D02*
X66409914Y-68773038D01*
X66409914Y-68773038D02*
X66489407Y-68693559D01*
X66489407Y-68693559D02*
X66567241Y-68615764D01*
X66567241Y-68615764D02*
X66643237Y-68539833D01*
X66643237Y-68539833D02*
X66717214Y-68465945D01*
X66717214Y-68465945D02*
X66788992Y-68394279D01*
X66788992Y-68394279D02*
X66858391Y-68325015D01*
X66858391Y-68325015D02*
X66925231Y-68258331D01*
X66925231Y-68258331D02*
X66989332Y-68194409D01*
X66989332Y-68194409D02*
X67050513Y-68133426D01*
X67050513Y-68133426D02*
X67108595Y-68075562D01*
X67108595Y-68075562D02*
X67163396Y-68020998D01*
X67163396Y-68020998D02*
X67214738Y-67969911D01*
X67214738Y-67969911D02*
X67262440Y-67922482D01*
X67262440Y-67922482D02*
X67306321Y-67878889D01*
X67306321Y-67878889D02*
X67346202Y-67839314D01*
X67346202Y-67839314D02*
X67381903Y-67803934D01*
X67381903Y-67803934D02*
X67413242Y-67772929D01*
X67413242Y-67772929D02*
X67440041Y-67746478D01*
X67440041Y-67746478D02*
X67462119Y-67724762D01*
X67462119Y-67724762D02*
X67479295Y-67707959D01*
X67479295Y-67707959D02*
X67491391Y-67696249D01*
X67491391Y-67696249D02*
X67498224Y-67689811D01*
X67498224Y-67689811D02*
X67499523Y-67688691D01*
X67499523Y-67688691D02*
X67539433Y-67662328D01*
X67539433Y-67662328D02*
X67580879Y-67643291D01*
X67580879Y-67643291D02*
X67624808Y-67631264D01*
X67624808Y-67631264D02*
X67672163Y-67625927D01*
X67672163Y-67625927D02*
X67687092Y-67625584D01*
X67687092Y-67625584D02*
X67735383Y-67628587D01*
X67735383Y-67628587D02*
X67780171Y-67638234D01*
X67780171Y-67638234D02*
X67822557Y-67654851D01*
X67822557Y-67654851D02*
X67861667Y-67677434D01*
X67861667Y-67677434D02*
X67865874Y-67681158D01*
X67865874Y-67681158D02*
X67875384Y-67690202D01*
X67875384Y-67690202D02*
X67889982Y-67704351D01*
X67889982Y-67704351D02*
X67909453Y-67723389D01*
X67909453Y-67723389D02*
X67933583Y-67747102D01*
X67933583Y-67747102D02*
X67962155Y-67775276D01*
X67962155Y-67775276D02*
X67994956Y-67807695D01*
X67994956Y-67807695D02*
X68031771Y-67844144D01*
X68031771Y-67844144D02*
X68072383Y-67884409D01*
X68072383Y-67884409D02*
X68116579Y-67928274D01*
X68116579Y-67928274D02*
X68164143Y-67975526D01*
X68164143Y-67975526D02*
X68214861Y-68025948D01*
X68214861Y-68025948D02*
X68268517Y-68079326D01*
X68268517Y-68079326D02*
X68324897Y-68135446D01*
X68324897Y-68135446D02*
X68383785Y-68194091D01*
X68383785Y-68194091D02*
X68444966Y-68255049D01*
X68444966Y-68255049D02*
X68508226Y-68318103D01*
X68508226Y-68318103D02*
X68573349Y-68383038D01*
X68573349Y-68383038D02*
X68640122Y-68449641D01*
X68640122Y-68449641D02*
X68708327Y-68517695D01*
X68708327Y-68517695D02*
X68777751Y-68586987D01*
X68777751Y-68586987D02*
X68848179Y-68657301D01*
X68848179Y-68657301D02*
X68919396Y-68728422D01*
X68919396Y-68728422D02*
X68991186Y-68800136D01*
X68991186Y-68800136D02*
X69063335Y-68872227D01*
X69063335Y-68872227D02*
X69135628Y-68944481D01*
X69135628Y-68944481D02*
X69207849Y-69016683D01*
X69207849Y-69016683D02*
X69279785Y-69088618D01*
X69279785Y-69088618D02*
X69351219Y-69160071D01*
X69351219Y-69160071D02*
X69421937Y-69230828D01*
X69421937Y-69230828D02*
X69491723Y-69300673D01*
X69491723Y-69300673D02*
X69560364Y-69369391D01*
X69560364Y-69369391D02*
X69627644Y-69436768D01*
X69627644Y-69436768D02*
X69693347Y-69502589D01*
X69693347Y-69502589D02*
X69757260Y-69566639D01*
X69757260Y-69566639D02*
X69819167Y-69628703D01*
X69819167Y-69628703D02*
X69878852Y-69688566D01*
X69878852Y-69688566D02*
X69936102Y-69746013D01*
X69936102Y-69746013D02*
X69990701Y-69800830D01*
X69990701Y-69800830D02*
X70042434Y-69852801D01*
X70042434Y-69852801D02*
X70091086Y-69901712D01*
X70091086Y-69901712D02*
X70136442Y-69947348D01*
X70136442Y-69947348D02*
X70178287Y-69989494D01*
X70178287Y-69989494D02*
X70216407Y-70027935D01*
X70216407Y-70027935D02*
X70250585Y-70062457D01*
X70250585Y-70062457D02*
X70280608Y-70092843D01*
X70280608Y-70092843D02*
X70306261Y-70118881D01*
X70306261Y-70118881D02*
X70327327Y-70140353D01*
X70327327Y-70140353D02*
X70343593Y-70157047D01*
X70343593Y-70157047D02*
X70354844Y-70168746D01*
X70354844Y-70168746D02*
X70360864Y-70175237D01*
X70360864Y-70175237D02*
X70361735Y-70176293D01*
X70361735Y-70176293D02*
X70385961Y-70214393D01*
X70385961Y-70214393D02*
X70403270Y-70252254D01*
X70403270Y-70252254D02*
X70414245Y-70291686D01*
X70414245Y-70291686D02*
X70419467Y-70334499D01*
X70419467Y-70334499D02*
X70420103Y-70358000D01*
X70420103Y-70358000D02*
X71065202Y-70358000D01*
X71065202Y-70358000D02*
X71064845Y-70334348D01*
X71064845Y-70334348D02*
X71062576Y-70303286D01*
X71062576Y-70303286D02*
X71058532Y-70276430D01*
X71058532Y-70276430D02*
X71056184Y-70266527D01*
X71056184Y-70266527D02*
X71037847Y-70213240D01*
X71037847Y-70213240D02*
X71013379Y-70164643D01*
X71013379Y-70164643D02*
X70982881Y-70120915D01*
X70982881Y-70120915D02*
X70957603Y-70092903D01*
X70957603Y-70092903D02*
X70946370Y-70082593D01*
X70946370Y-70082593D02*
X70930171Y-70068943D01*
X70930171Y-70068943D02*
X70910438Y-70053098D01*
X70910438Y-70053098D02*
X70888605Y-70036206D01*
X70888605Y-70036206D02*
X70866104Y-70019410D01*
X70866104Y-70019410D02*
X70861643Y-70016160D01*
X70861643Y-70016160D02*
X70611581Y-69829985D01*
X70611581Y-69829985D02*
X70366316Y-69637907D01*
X70366316Y-69637907D02*
X70126012Y-69440085D01*
X70126012Y-69440085D02*
X69890831Y-69236682D01*
X69890831Y-69236682D02*
X69660934Y-69027861D01*
X69660934Y-69027861D02*
X69436484Y-68813783D01*
X69436484Y-68813783D02*
X69217643Y-68594611D01*
X69217643Y-68594611D02*
X69004574Y-68370506D01*
X69004574Y-68370506D02*
X68797439Y-68141631D01*
X68797439Y-68141631D02*
X68596400Y-67908148D01*
X68596400Y-67908148D02*
X68401618Y-67670218D01*
X68401618Y-67670218D02*
X68213258Y-67428004D01*
X68213258Y-67428004D02*
X68050743Y-67208400D01*
X68050743Y-67208400D02*
X68032623Y-67183672D01*
X68032623Y-67183672D02*
X68014501Y-67159565D01*
X68014501Y-67159565D02*
X67997298Y-67137260D01*
X67997298Y-67137260D02*
X67981935Y-67117937D01*
X67981935Y-67117937D02*
X67969334Y-67102777D01*
X67969334Y-67102777D02*
X67961217Y-67093769D01*
X67961217Y-67093769D02*
X67921312Y-67058091D01*
X67921312Y-67058091D02*
X67877918Y-67029024D01*
X67877918Y-67029024D02*
X67831738Y-67006583D01*
X67831738Y-67006583D02*
X67783472Y-66990782D01*
X67783472Y-66990782D02*
X67733821Y-66981635D01*
X67733821Y-66981635D02*
X67683486Y-66979157D01*
X67683486Y-66979157D02*
X67633169Y-66983361D01*
X67633169Y-66983361D02*
X67633169Y-66983361D01*
G36*
X71064063Y-70399634D02*
G01*
X71061010Y-70429132D01*
X71056184Y-70453381D01*
X71052776Y-70465272D01*
X71038681Y-70505396D01*
X71021184Y-70542025D01*
X70999587Y-70576045D01*
X70973188Y-70608340D01*
X70941288Y-70639796D01*
X70903187Y-70671297D01*
X70858184Y-70703730D01*
X70846217Y-70711903D01*
X70664850Y-70839121D01*
X70482605Y-70973162D01*
X70300386Y-71113302D01*
X70119097Y-71258815D01*
X69939643Y-71408976D01*
X69762926Y-71563063D01*
X69589852Y-71720348D01*
X69576073Y-71733208D01*
X69544103Y-71763460D01*
X69508004Y-71798082D01*
X69468640Y-71836220D01*
X69426872Y-71877018D01*
X69383562Y-71919622D01*
X69339573Y-71963176D01*
X69295767Y-72006825D01*
X69253006Y-72049714D01*
X69212152Y-72090988D01*
X69174068Y-72129792D01*
X69139616Y-72165271D01*
X69109657Y-72196570D01*
X69017486Y-72294932D01*
X68841786Y-72489201D01*
X68671579Y-72686662D01*
X68506156Y-72888190D01*
X68344805Y-73094661D01*
X68186817Y-73306951D01*
X68031481Y-73525935D01*
X68023824Y-73536902D01*
X67997896Y-73572507D01*
X67974178Y-73602283D01*
X67951761Y-73627190D01*
X67929736Y-73648187D01*
X67907193Y-73666233D01*
X67883222Y-73682286D01*
X67864327Y-73692725D01*
X67834801Y-73706097D01*
X67802599Y-73718114D01*
X67770629Y-73727715D01*
X67741800Y-73733840D01*
X67735435Y-73734730D01*
X67694932Y-73737053D01*
X67651365Y-73734579D01*
X67607099Y-73727657D01*
X67564501Y-73716638D01*
X67525936Y-73701872D01*
X67518649Y-73698445D01*
X67496011Y-73686813D01*
X67475281Y-73674268D01*
X67455724Y-73660083D01*
X67436606Y-73643530D01*
X67417192Y-73623881D01*
X67396748Y-73600410D01*
X67374539Y-73572389D01*
X67349830Y-73539089D01*
X67321887Y-73499785D01*
X67262815Y-73416269D01*
X67088100Y-73178340D01*
X66907197Y-72945102D01*
X66720248Y-72716699D01*
X66527398Y-72493275D01*
X66328790Y-72274974D01*
X66124568Y-72061939D01*
X65914876Y-71854314D01*
X65699857Y-71652242D01*
X65479656Y-71455867D01*
X65254416Y-71265333D01*
X65024281Y-71080783D01*
X64789394Y-70902361D01*
X64549899Y-70730210D01*
X64536726Y-70720971D01*
X64501446Y-70695794D01*
X64471823Y-70673832D01*
X64447109Y-70654425D01*
X64426555Y-70636913D01*
X64409412Y-70620637D01*
X64394930Y-70604938D01*
X64382362Y-70589155D01*
X64370957Y-70572629D01*
X64363177Y-70560194D01*
X64339439Y-70514776D01*
X64322876Y-70468524D01*
X64313057Y-70420000D01*
X64309554Y-70367770D01*
X64309773Y-70358000D01*
X64957569Y-70358000D01*
X64957597Y-70376190D01*
X64957835Y-70395779D01*
X64958500Y-70410559D01*
X64959806Y-70422273D01*
X64961969Y-70432664D01*
X64965205Y-70443476D01*
X64969728Y-70456450D01*
X64970897Y-70459827D01*
X64972537Y-70464953D01*
X64973947Y-70469658D01*
X64975278Y-70474097D01*
X64976681Y-70478427D01*
X64978308Y-70482806D01*
X64980309Y-70487390D01*
X64982837Y-70492336D01*
X64986041Y-70497801D01*
X64990075Y-70503941D01*
X64995088Y-70510913D01*
X65001232Y-70518874D01*
X65008659Y-70527981D01*
X65017520Y-70538390D01*
X65027965Y-70550258D01*
X65040147Y-70563742D01*
X65054216Y-70578998D01*
X65070324Y-70596184D01*
X65088622Y-70615456D01*
X65109261Y-70636971D01*
X65132393Y-70660886D01*
X65158169Y-70687357D01*
X65186740Y-70716541D01*
X65218257Y-70748595D01*
X65252872Y-70783675D01*
X65290735Y-70821939D01*
X65331999Y-70863544D01*
X65376815Y-70908645D01*
X65425333Y-70957399D01*
X65477705Y-71009964D01*
X65534082Y-71066496D01*
X65594616Y-71127153D01*
X65659458Y-71192089D01*
X65728759Y-71261463D01*
X65802670Y-71335432D01*
X65881342Y-71414151D01*
X65964928Y-71497778D01*
X66053578Y-71586469D01*
X66147443Y-71680381D01*
X66246675Y-71779671D01*
X66283265Y-71816283D01*
X66364981Y-71898026D01*
X66445320Y-71978365D01*
X66524100Y-72057120D01*
X66601142Y-72134111D01*
X66676265Y-72209160D01*
X66749291Y-72282086D01*
X66820037Y-72352710D01*
X66888325Y-72420853D01*
X66953974Y-72486336D01*
X67016804Y-72548978D01*
X67076634Y-72608602D01*
X67133285Y-72665026D01*
X67186576Y-72718072D01*
X67236328Y-72767561D01*
X67282360Y-72813313D01*
X67324491Y-72855148D01*
X67362543Y-72892887D01*
X67396334Y-72926351D01*
X67425684Y-72955361D01*
X67450414Y-72979736D01*
X67470343Y-72999298D01*
X67485291Y-73013867D01*
X67495077Y-73023264D01*
X67499523Y-73027309D01*
X67531056Y-73048482D01*
X67569808Y-73067993D01*
X67608938Y-73081244D01*
X67637274Y-73087011D01*
X67682581Y-73091106D01*
X67727469Y-73089298D01*
X67769591Y-73081582D01*
X67779334Y-73078562D01*
X67799765Y-73070632D01*
X67822196Y-73060435D01*
X67843779Y-73049303D01*
X67861667Y-73038566D01*
X67862627Y-73037791D01*
X67868875Y-73032020D01*
X67880345Y-73021010D01*
X67896821Y-73004978D01*
X67918088Y-72984137D01*
X67943932Y-72958703D01*
X67974137Y-72928890D01*
X68008489Y-72894914D01*
X68046773Y-72856989D01*
X68088773Y-72815330D01*
X68134274Y-72770152D01*
X68183062Y-72721671D01*
X68234922Y-72670099D01*
X68289639Y-72615654D01*
X68346997Y-72558548D01*
X68406782Y-72498999D01*
X68468779Y-72437219D01*
X68532773Y-72373425D01*
X68598548Y-72307830D01*
X68665891Y-72240650D01*
X68734585Y-72172100D01*
X68804416Y-72102395D01*
X68875169Y-72031749D01*
X68946629Y-71960377D01*
X69018581Y-71888494D01*
X69090810Y-71816316D01*
X69163101Y-71744056D01*
X69235239Y-71671930D01*
X69307009Y-71600153D01*
X69378196Y-71528940D01*
X69448586Y-71458504D01*
X69517962Y-71389062D01*
X69586111Y-71320829D01*
X69652817Y-71254018D01*
X69717865Y-71188845D01*
X69781040Y-71125525D01*
X69842128Y-71064272D01*
X69900913Y-71005302D01*
X69957180Y-70948829D01*
X70010715Y-70895068D01*
X70061302Y-70844235D01*
X70108726Y-70796543D01*
X70152773Y-70752209D01*
X70193228Y-70711446D01*
X70229875Y-70674469D01*
X70262499Y-70641495D01*
X70290886Y-70612736D01*
X70314821Y-70588409D01*
X70334088Y-70568727D01*
X70348473Y-70553907D01*
X70357760Y-70544162D01*
X70361735Y-70539708D01*
X70374880Y-70520307D01*
X70395538Y-70482554D01*
X70409573Y-70444126D01*
X70417567Y-70403211D01*
X70420103Y-70358000D01*
X70419467Y-70334499D01*
X70414245Y-70291686D01*
X70403270Y-70252254D01*
X70385961Y-70214393D01*
X70361735Y-70176293D01*
X70360864Y-70175237D01*
X70354844Y-70168746D01*
X70343593Y-70157047D01*
X70327327Y-70140353D01*
X70306261Y-70118881D01*
X70280608Y-70092843D01*
X70250585Y-70062457D01*
X70216407Y-70027935D01*
X70178287Y-69989494D01*
X70136442Y-69947348D01*
X70091086Y-69901712D01*
X70042434Y-69852801D01*
X69990701Y-69800830D01*
X69936102Y-69746013D01*
X69878852Y-69688566D01*
X69819167Y-69628703D01*
X69757260Y-69566639D01*
X69693347Y-69502589D01*
X69627644Y-69436768D01*
X69560364Y-69369391D01*
X69491723Y-69300673D01*
X69421937Y-69230828D01*
X69351219Y-69160071D01*
X69279785Y-69088618D01*
X69207849Y-69016683D01*
X69135628Y-68944481D01*
X69063335Y-68872227D01*
X68991186Y-68800136D01*
X68919396Y-68728422D01*
X68848179Y-68657301D01*
X68777751Y-68586987D01*
X68708327Y-68517695D01*
X68640122Y-68449641D01*
X68573349Y-68383038D01*
X68508226Y-68318103D01*
X68444966Y-68255049D01*
X68383785Y-68194091D01*
X68324897Y-68135446D01*
X68268517Y-68079326D01*
X68214861Y-68025948D01*
X68164143Y-67975526D01*
X68116579Y-67928274D01*
X68072383Y-67884409D01*
X68031771Y-67844144D01*
X67994956Y-67807695D01*
X67962155Y-67775276D01*
X67933583Y-67747102D01*
X67909453Y-67723389D01*
X67889982Y-67704351D01*
X67875384Y-67690202D01*
X67865874Y-67681158D01*
X67861667Y-67677434D01*
X67822557Y-67654851D01*
X67780171Y-67638234D01*
X67735383Y-67628587D01*
X67687092Y-67625584D01*
X67672163Y-67625927D01*
X67624808Y-67631264D01*
X67580879Y-67643291D01*
X67539433Y-67662328D01*
X67499523Y-67688691D01*
X67498224Y-67689811D01*
X67491391Y-67696249D01*
X67479295Y-67707959D01*
X67462119Y-67724762D01*
X67440041Y-67746478D01*
X67413242Y-67772929D01*
X67381903Y-67803934D01*
X67346202Y-67839314D01*
X67306321Y-67878889D01*
X67262440Y-67922482D01*
X67214738Y-67969911D01*
X67163396Y-68020998D01*
X67108595Y-68075562D01*
X67050513Y-68133426D01*
X66989332Y-68194409D01*
X66925231Y-68258331D01*
X66858391Y-68325015D01*
X66788992Y-68394279D01*
X66717214Y-68465945D01*
X66643237Y-68539833D01*
X66567241Y-68615764D01*
X66489407Y-68693559D01*
X66409914Y-68773038D01*
X66328944Y-68854021D01*
X66246675Y-68936329D01*
X66185910Y-68997131D01*
X66089947Y-69093145D01*
X65999260Y-69183875D01*
X65913696Y-69269480D01*
X65833105Y-69350115D01*
X65757335Y-69425937D01*
X65686235Y-69497103D01*
X65619653Y-69563771D01*
X65557439Y-69626095D01*
X65499442Y-69684234D01*
X65445509Y-69738345D01*
X65395490Y-69788583D01*
X65349233Y-69835105D01*
X65306587Y-69878069D01*
X65267401Y-69917631D01*
X65231523Y-69953948D01*
X65198803Y-69987176D01*
X65169089Y-70017473D01*
X65142230Y-70044994D01*
X65118074Y-70069898D01*
X65096470Y-70092340D01*
X65077267Y-70112477D01*
X65060314Y-70130467D01*
X65045459Y-70146465D01*
X65032551Y-70160629D01*
X65021440Y-70173116D01*
X65011972Y-70184081D01*
X65003999Y-70193682D01*
X64997367Y-70202076D01*
X64991926Y-70209419D01*
X64987524Y-70215869D01*
X64984011Y-70221581D01*
X64981234Y-70226713D01*
X64979043Y-70231421D01*
X64977287Y-70235862D01*
X64975814Y-70240193D01*
X64974473Y-70244570D01*
X64973112Y-70249151D01*
X64971581Y-70254092D01*
X64969728Y-70259550D01*
X64966313Y-70269242D01*
X64962744Y-70280475D01*
X64960307Y-70290808D01*
X64958786Y-70301984D01*
X64957966Y-70315746D01*
X64957632Y-70333837D01*
X64957569Y-70358000D01*
X64309773Y-70358000D01*
X64310200Y-70338952D01*
X64316751Y-70285197D01*
X64330388Y-70234539D01*
X64351220Y-70186631D01*
X64379352Y-70141123D01*
X64379729Y-70140598D01*
X64389493Y-70127757D01*
X64400329Y-70115137D01*
X64412911Y-70102163D01*
X64427916Y-70088260D01*
X64446018Y-70072852D01*
X64467891Y-70055364D01*
X64494211Y-70035220D01*
X64525653Y-70011846D01*
X64562892Y-69984665D01*
X64701678Y-69882550D01*
X64945533Y-69695817D01*
X65183690Y-69503866D01*
X65416430Y-69306457D01*
X65644031Y-69103351D01*
X65866774Y-68894307D01*
X66084938Y-68679086D01*
X66222048Y-68538391D01*
X66394749Y-68354899D01*
X66562143Y-68169641D01*
X66725081Y-67981607D01*
X66884413Y-67789791D01*
X67040989Y-67593185D01*
X67195662Y-67390781D01*
X67349280Y-67181572D01*
X67354299Y-67174644D01*
X67372023Y-67150799D01*
X67389253Y-67128494D01*
X67405007Y-67108955D01*
X67418304Y-67093408D01*
X67428161Y-67083080D01*
X67446098Y-67067280D01*
X67489335Y-67036207D01*
X67535392Y-67011872D01*
X67583571Y-66994261D01*
X67633169Y-66983361D01*
X67683486Y-66979157D01*
X67733821Y-66981635D01*
X67783472Y-66990782D01*
X67831738Y-67006583D01*
X67877918Y-67029024D01*
X67921312Y-67058091D01*
X67961217Y-67093769D01*
X67969334Y-67102777D01*
X67981935Y-67117937D01*
X67997298Y-67137260D01*
X68014501Y-67159565D01*
X68032623Y-67183672D01*
X68050743Y-67208400D01*
X68213258Y-67428004D01*
X68401618Y-67670218D01*
X68596400Y-67908148D01*
X68797439Y-68141631D01*
X69004574Y-68370506D01*
X69217643Y-68594611D01*
X69436484Y-68813783D01*
X69660934Y-69027861D01*
X69890831Y-69236682D01*
X70126012Y-69440085D01*
X70366316Y-69637907D01*
X70611581Y-69829985D01*
X70861643Y-70016160D01*
X70866104Y-70019410D01*
X70888605Y-70036206D01*
X70910438Y-70053098D01*
X70930171Y-70068943D01*
X70946370Y-70082593D01*
X70957603Y-70092903D01*
X70982881Y-70120915D01*
X71013379Y-70164643D01*
X71037847Y-70213240D01*
X71056184Y-70266527D01*
X71058532Y-70276430D01*
X71062576Y-70303286D01*
X71064845Y-70334348D01*
X71065202Y-70358000D01*
X71065341Y-70367252D01*
X71064063Y-70399634D01*
G37*
X71064063Y-70399634D02*
X71061010Y-70429132D01*
X71056184Y-70453381D01*
X71052776Y-70465272D01*
X71038681Y-70505396D01*
X71021184Y-70542025D01*
X70999587Y-70576045D01*
X70973188Y-70608340D01*
X70941288Y-70639796D01*
X70903187Y-70671297D01*
X70858184Y-70703730D01*
X70846217Y-70711903D01*
X70664850Y-70839121D01*
X70482605Y-70973162D01*
X70300386Y-71113302D01*
X70119097Y-71258815D01*
X69939643Y-71408976D01*
X69762926Y-71563063D01*
X69589852Y-71720348D01*
X69576073Y-71733208D01*
X69544103Y-71763460D01*
X69508004Y-71798082D01*
X69468640Y-71836220D01*
X69426872Y-71877018D01*
X69383562Y-71919622D01*
X69339573Y-71963176D01*
X69295767Y-72006825D01*
X69253006Y-72049714D01*
X69212152Y-72090988D01*
X69174068Y-72129792D01*
X69139616Y-72165271D01*
X69109657Y-72196570D01*
X69017486Y-72294932D01*
X68841786Y-72489201D01*
X68671579Y-72686662D01*
X68506156Y-72888190D01*
X68344805Y-73094661D01*
X68186817Y-73306951D01*
X68031481Y-73525935D01*
X68023824Y-73536902D01*
X67997896Y-73572507D01*
X67974178Y-73602283D01*
X67951761Y-73627190D01*
X67929736Y-73648187D01*
X67907193Y-73666233D01*
X67883222Y-73682286D01*
X67864327Y-73692725D01*
X67834801Y-73706097D01*
X67802599Y-73718114D01*
X67770629Y-73727715D01*
X67741800Y-73733840D01*
X67735435Y-73734730D01*
X67694932Y-73737053D01*
X67651365Y-73734579D01*
X67607099Y-73727657D01*
X67564501Y-73716638D01*
X67525936Y-73701872D01*
X67518649Y-73698445D01*
X67496011Y-73686813D01*
X67475281Y-73674268D01*
X67455724Y-73660083D01*
X67436606Y-73643530D01*
X67417192Y-73623881D01*
X67396748Y-73600410D01*
X67374539Y-73572389D01*
X67349830Y-73539089D01*
X67321887Y-73499785D01*
X67262815Y-73416269D01*
X67088100Y-73178340D01*
X66907197Y-72945102D01*
X66720248Y-72716699D01*
X66527398Y-72493275D01*
X66328790Y-72274974D01*
X66124568Y-72061939D01*
X65914876Y-71854314D01*
X65699857Y-71652242D01*
X65479656Y-71455867D01*
X65254416Y-71265333D01*
X65024281Y-71080783D01*
X64789394Y-70902361D01*
X64549899Y-70730210D01*
X64536726Y-70720971D01*
X64501446Y-70695794D01*
X64471823Y-70673832D01*
X64447109Y-70654425D01*
X64426555Y-70636913D01*
X64409412Y-70620637D01*
X64394930Y-70604938D01*
X64382362Y-70589155D01*
X64370957Y-70572629D01*
X64363177Y-70560194D01*
X64339439Y-70514776D01*
X64322876Y-70468524D01*
X64313057Y-70420000D01*
X64309554Y-70367770D01*
X64309773Y-70358000D01*
X64957569Y-70358000D01*
X64957597Y-70376190D01*
X64957835Y-70395779D01*
X64958500Y-70410559D01*
X64959806Y-70422273D01*
X64961969Y-70432664D01*
X64965205Y-70443476D01*
X64969728Y-70456450D01*
X64970897Y-70459827D01*
X64972537Y-70464953D01*
X64973947Y-70469658D01*
X64975278Y-70474097D01*
X64976681Y-70478427D01*
X64978308Y-70482806D01*
X64980309Y-70487390D01*
X64982837Y-70492336D01*
X64986041Y-70497801D01*
X64990075Y-70503941D01*
X64995088Y-70510913D01*
X65001232Y-70518874D01*
X65008659Y-70527981D01*
X65017520Y-70538390D01*
X65027965Y-70550258D01*
X65040147Y-70563742D01*
X65054216Y-70578998D01*
X65070324Y-70596184D01*
X65088622Y-70615456D01*
X65109261Y-70636971D01*
X65132393Y-70660886D01*
X65158169Y-70687357D01*
X65186740Y-70716541D01*
X65218257Y-70748595D01*
X65252872Y-70783675D01*
X65290735Y-70821939D01*
X65331999Y-70863544D01*
X65376815Y-70908645D01*
X65425333Y-70957399D01*
X65477705Y-71009964D01*
X65534082Y-71066496D01*
X65594616Y-71127153D01*
X65659458Y-71192089D01*
X65728759Y-71261463D01*
X65802670Y-71335432D01*
X65881342Y-71414151D01*
X65964928Y-71497778D01*
X66053578Y-71586469D01*
X66147443Y-71680381D01*
X66246675Y-71779671D01*
X66283265Y-71816283D01*
X66364981Y-71898026D01*
X66445320Y-71978365D01*
X66524100Y-72057120D01*
X66601142Y-72134111D01*
X66676265Y-72209160D01*
X66749291Y-72282086D01*
X66820037Y-72352710D01*
X66888325Y-72420853D01*
X66953974Y-72486336D01*
X67016804Y-72548978D01*
X67076634Y-72608602D01*
X67133285Y-72665026D01*
X67186576Y-72718072D01*
X67236328Y-72767561D01*
X67282360Y-72813313D01*
X67324491Y-72855148D01*
X67362543Y-72892887D01*
X67396334Y-72926351D01*
X67425684Y-72955361D01*
X67450414Y-72979736D01*
X67470343Y-72999298D01*
X67485291Y-73013867D01*
X67495077Y-73023264D01*
X67499523Y-73027309D01*
X67531056Y-73048482D01*
X67569808Y-73067993D01*
X67608938Y-73081244D01*
X67637274Y-73087011D01*
X67682581Y-73091106D01*
X67727469Y-73089298D01*
X67769591Y-73081582D01*
X67779334Y-73078562D01*
X67799765Y-73070632D01*
X67822196Y-73060435D01*
X67843779Y-73049303D01*
X67861667Y-73038566D01*
X67862627Y-73037791D01*
X67868875Y-73032020D01*
X67880345Y-73021010D01*
X67896821Y-73004978D01*
X67918088Y-72984137D01*
X67943932Y-72958703D01*
X67974137Y-72928890D01*
X68008489Y-72894914D01*
X68046773Y-72856989D01*
X68088773Y-72815330D01*
X68134274Y-72770152D01*
X68183062Y-72721671D01*
X68234922Y-72670099D01*
X68289639Y-72615654D01*
X68346997Y-72558548D01*
X68406782Y-72498999D01*
X68468779Y-72437219D01*
X68532773Y-72373425D01*
X68598548Y-72307830D01*
X68665891Y-72240650D01*
X68734585Y-72172100D01*
X68804416Y-72102395D01*
X68875169Y-72031749D01*
X68946629Y-71960377D01*
X69018581Y-71888494D01*
X69090810Y-71816316D01*
X69163101Y-71744056D01*
X69235239Y-71671930D01*
X69307009Y-71600153D01*
X69378196Y-71528940D01*
X69448586Y-71458504D01*
X69517962Y-71389062D01*
X69586111Y-71320829D01*
X69652817Y-71254018D01*
X69717865Y-71188845D01*
X69781040Y-71125525D01*
X69842128Y-71064272D01*
X69900913Y-71005302D01*
X69957180Y-70948829D01*
X70010715Y-70895068D01*
X70061302Y-70844235D01*
X70108726Y-70796543D01*
X70152773Y-70752209D01*
X70193228Y-70711446D01*
X70229875Y-70674469D01*
X70262499Y-70641495D01*
X70290886Y-70612736D01*
X70314821Y-70588409D01*
X70334088Y-70568727D01*
X70348473Y-70553907D01*
X70357760Y-70544162D01*
X70361735Y-70539708D01*
X70374880Y-70520307D01*
X70395538Y-70482554D01*
X70409573Y-70444126D01*
X70417567Y-70403211D01*
X70420103Y-70358000D01*
X70419467Y-70334499D01*
X70414245Y-70291686D01*
X70403270Y-70252254D01*
X70385961Y-70214393D01*
X70361735Y-70176293D01*
X70360864Y-70175237D01*
X70354844Y-70168746D01*
X70343593Y-70157047D01*
X70327327Y-70140353D01*
X70306261Y-70118881D01*
X70280608Y-70092843D01*
X70250585Y-70062457D01*
X70216407Y-70027935D01*
X70178287Y-69989494D01*
X70136442Y-69947348D01*
X70091086Y-69901712D01*
X70042434Y-69852801D01*
X69990701Y-69800830D01*
X69936102Y-69746013D01*
X69878852Y-69688566D01*
X69819167Y-69628703D01*
X69757260Y-69566639D01*
X69693347Y-69502589D01*
X69627644Y-69436768D01*
X69560364Y-69369391D01*
X69491723Y-69300673D01*
X69421937Y-69230828D01*
X69351219Y-69160071D01*
X69279785Y-69088618D01*
X69207849Y-69016683D01*
X69135628Y-68944481D01*
X69063335Y-68872227D01*
X68991186Y-68800136D01*
X68919396Y-68728422D01*
X68848179Y-68657301D01*
X68777751Y-68586987D01*
X68708327Y-68517695D01*
X68640122Y-68449641D01*
X68573349Y-68383038D01*
X68508226Y-68318103D01*
X68444966Y-68255049D01*
X68383785Y-68194091D01*
X68324897Y-68135446D01*
X68268517Y-68079326D01*
X68214861Y-68025948D01*
X68164143Y-67975526D01*
X68116579Y-67928274D01*
X68072383Y-67884409D01*
X68031771Y-67844144D01*
X67994956Y-67807695D01*
X67962155Y-67775276D01*
X67933583Y-67747102D01*
X67909453Y-67723389D01*
X67889982Y-67704351D01*
X67875384Y-67690202D01*
X67865874Y-67681158D01*
X67861667Y-67677434D01*
X67822557Y-67654851D01*
X67780171Y-67638234D01*
X67735383Y-67628587D01*
X67687092Y-67625584D01*
X67672163Y-67625927D01*
X67624808Y-67631264D01*
X67580879Y-67643291D01*
X67539433Y-67662328D01*
X67499523Y-67688691D01*
X67498224Y-67689811D01*
X67491391Y-67696249D01*
X67479295Y-67707959D01*
X67462119Y-67724762D01*
X67440041Y-67746478D01*
X67413242Y-67772929D01*
X67381903Y-67803934D01*
X67346202Y-67839314D01*
X67306321Y-67878889D01*
X67262440Y-67922482D01*
X67214738Y-67969911D01*
X67163396Y-68020998D01*
X67108595Y-68075562D01*
X67050513Y-68133426D01*
X66989332Y-68194409D01*
X66925231Y-68258331D01*
X66858391Y-68325015D01*
X66788992Y-68394279D01*
X66717214Y-68465945D01*
X66643237Y-68539833D01*
X66567241Y-68615764D01*
X66489407Y-68693559D01*
X66409914Y-68773038D01*
X66328944Y-68854021D01*
X66246675Y-68936329D01*
X66185910Y-68997131D01*
X66089947Y-69093145D01*
X65999260Y-69183875D01*
X65913696Y-69269480D01*
X65833105Y-69350115D01*
X65757335Y-69425937D01*
X65686235Y-69497103D01*
X65619653Y-69563771D01*
X65557439Y-69626095D01*
X65499442Y-69684234D01*
X65445509Y-69738345D01*
X65395490Y-69788583D01*
X65349233Y-69835105D01*
X65306587Y-69878069D01*
X65267401Y-69917631D01*
X65231523Y-69953948D01*
X65198803Y-69987176D01*
X65169089Y-70017473D01*
X65142230Y-70044994D01*
X65118074Y-70069898D01*
X65096470Y-70092340D01*
X65077267Y-70112477D01*
X65060314Y-70130467D01*
X65045459Y-70146465D01*
X65032551Y-70160629D01*
X65021440Y-70173116D01*
X65011972Y-70184081D01*
X65003999Y-70193682D01*
X64997367Y-70202076D01*
X64991926Y-70209419D01*
X64987524Y-70215869D01*
X64984011Y-70221581D01*
X64981234Y-70226713D01*
X64979043Y-70231421D01*
X64977287Y-70235862D01*
X64975814Y-70240193D01*
X64974473Y-70244570D01*
X64973112Y-70249151D01*
X64971581Y-70254092D01*
X64969728Y-70259550D01*
X64966313Y-70269242D01*
X64962744Y-70280475D01*
X64960307Y-70290808D01*
X64958786Y-70301984D01*
X64957966Y-70315746D01*
X64957632Y-70333837D01*
X64957569Y-70358000D01*
X64309773Y-70358000D01*
X64310200Y-70338952D01*
X64316751Y-70285197D01*
X64330388Y-70234539D01*
X64351220Y-70186631D01*
X64379352Y-70141123D01*
X64379729Y-70140598D01*
X64389493Y-70127757D01*
X64400329Y-70115137D01*
X64412911Y-70102163D01*
X64427916Y-70088260D01*
X64446018Y-70072852D01*
X64467891Y-70055364D01*
X64494211Y-70035220D01*
X64525653Y-70011846D01*
X64562892Y-69984665D01*
X64701678Y-69882550D01*
X64945533Y-69695817D01*
X65183690Y-69503866D01*
X65416430Y-69306457D01*
X65644031Y-69103351D01*
X65866774Y-68894307D01*
X66084938Y-68679086D01*
X66222048Y-68538391D01*
X66394749Y-68354899D01*
X66562143Y-68169641D01*
X66725081Y-67981607D01*
X66884413Y-67789791D01*
X67040989Y-67593185D01*
X67195662Y-67390781D01*
X67349280Y-67181572D01*
X67354299Y-67174644D01*
X67372023Y-67150799D01*
X67389253Y-67128494D01*
X67405007Y-67108955D01*
X67418304Y-67093408D01*
X67428161Y-67083080D01*
X67446098Y-67067280D01*
X67489335Y-67036207D01*
X67535392Y-67011872D01*
X67583571Y-66994261D01*
X67633169Y-66983361D01*
X67683486Y-66979157D01*
X67733821Y-66981635D01*
X67783472Y-66990782D01*
X67831738Y-67006583D01*
X67877918Y-67029024D01*
X67921312Y-67058091D01*
X67961217Y-67093769D01*
X67969334Y-67102777D01*
X67981935Y-67117937D01*
X67997298Y-67137260D01*
X68014501Y-67159565D01*
X68032623Y-67183672D01*
X68050743Y-67208400D01*
X68213258Y-67428004D01*
X68401618Y-67670218D01*
X68596400Y-67908148D01*
X68797439Y-68141631D01*
X69004574Y-68370506D01*
X69217643Y-68594611D01*
X69436484Y-68813783D01*
X69660934Y-69027861D01*
X69890831Y-69236682D01*
X70126012Y-69440085D01*
X70366316Y-69637907D01*
X70611581Y-69829985D01*
X70861643Y-70016160D01*
X70866104Y-70019410D01*
X70888605Y-70036206D01*
X70910438Y-70053098D01*
X70930171Y-70068943D01*
X70946370Y-70082593D01*
X70957603Y-70092903D01*
X70982881Y-70120915D01*
X71013379Y-70164643D01*
X71037847Y-70213240D01*
X71056184Y-70266527D01*
X71058532Y-70276430D01*
X71062576Y-70303286D01*
X71064845Y-70334348D01*
X71065202Y-70358000D01*
X71065341Y-70367252D01*
X71064063Y-70399634D01*
X67679271Y-69301677D02*
X67661369Y-69308666D01*
X67661369Y-69308666D02*
X67645692Y-69321246D01*
X67645692Y-69321246D02*
X67636292Y-69334185D01*
X67636292Y-69334185D02*
X67626523Y-69351770D01*
X67626523Y-69351770D02*
X67625366Y-69534454D01*
X67625366Y-69534454D02*
X67624209Y-69717139D01*
X67624209Y-69717139D02*
X67749615Y-69717139D01*
X67749615Y-69717139D02*
X67749593Y-69540316D01*
X67749593Y-69540316D02*
X67749483Y-69489958D01*
X67749483Y-69489958D02*
X67749168Y-69447048D01*
X67749168Y-69447048D02*
X67748648Y-69411652D01*
X67748648Y-69411652D02*
X67747926Y-69383838D01*
X67747926Y-69383838D02*
X67747002Y-69363670D01*
X67747002Y-69363670D02*
X67745879Y-69351217D01*
X67745879Y-69351217D02*
X67745256Y-69347950D01*
X67745256Y-69347950D02*
X67737598Y-69331678D01*
X67737598Y-69331678D02*
X67725170Y-69316979D01*
X67725170Y-69316979D02*
X67710186Y-69306012D01*
X67710186Y-69306012D02*
X67697483Y-69301310D01*
X67697483Y-69301310D02*
X67679271Y-69301677D01*
X67679271Y-69301677D02*
X67679271Y-69301677D01*
G36*
X67710186Y-69306012D02*
G01*
X67725170Y-69316979D01*
X67737598Y-69331678D01*
X67745256Y-69347950D01*
X67745879Y-69351217D01*
X67747002Y-69363670D01*
X67747926Y-69383838D01*
X67748648Y-69411652D01*
X67749168Y-69447048D01*
X67749483Y-69489958D01*
X67749593Y-69540316D01*
X67749615Y-69717139D01*
X67624209Y-69717139D01*
X67625366Y-69534454D01*
X67626523Y-69351770D01*
X67636292Y-69334185D01*
X67645692Y-69321246D01*
X67661369Y-69308666D01*
X67679271Y-69301677D01*
X67697483Y-69301310D01*
X67710186Y-69306012D01*
G37*
X67710186Y-69306012D02*
X67725170Y-69316979D01*
X67737598Y-69331678D01*
X67745256Y-69347950D01*
X67745879Y-69351217D01*
X67747002Y-69363670D01*
X67747926Y-69383838D01*
X67748648Y-69411652D01*
X67749168Y-69447048D01*
X67749483Y-69489958D01*
X67749593Y-69540316D01*
X67749615Y-69717139D01*
X67624209Y-69717139D01*
X67625366Y-69534454D01*
X67626523Y-69351770D01*
X67636292Y-69334185D01*
X67645692Y-69321246D01*
X67661369Y-69308666D01*
X67679271Y-69301677D01*
X67697483Y-69301310D01*
X67710186Y-69306012D01*
X67695884Y-70190687D02*
X67685138Y-70191923D01*
X67685138Y-70191923D02*
X67684082Y-70272881D01*
X67684082Y-70272881D02*
X67683026Y-70353838D01*
X67683026Y-70353838D02*
X67651577Y-70342242D01*
X67651577Y-70342242D02*
X67636944Y-70336976D01*
X67636944Y-70336976D02*
X67625118Y-70332959D01*
X67625118Y-70332959D02*
X67618001Y-70330829D01*
X67618001Y-70330829D02*
X67616943Y-70330647D01*
X67616943Y-70330647D02*
X67613953Y-70333820D01*
X67613953Y-70333820D02*
X67611082Y-70340641D01*
X67611082Y-70340641D02*
X67609802Y-70347059D01*
X67609802Y-70347059D02*
X67610290Y-70348932D01*
X67610290Y-70348932D02*
X67614146Y-70350573D01*
X67614146Y-70350573D02*
X67623952Y-70354321D01*
X67623952Y-70354321D02*
X67638298Y-70359647D01*
X67638298Y-70359647D02*
X67655775Y-70366024D01*
X67655775Y-70366024D02*
X67658981Y-70367183D01*
X67658981Y-70367183D02*
X67706630Y-70384393D01*
X67706630Y-70384393D02*
X67706630Y-70189450D01*
X67706630Y-70189450D02*
X67695884Y-70190687D01*
X67695884Y-70190687D02*
X67695884Y-70190687D01*
G36*
X67706630Y-70384393D02*
G01*
X67658981Y-70367183D01*
X67655775Y-70366024D01*
X67638298Y-70359647D01*
X67623952Y-70354321D01*
X67614146Y-70350573D01*
X67610290Y-70348932D01*
X67609802Y-70347059D01*
X67611082Y-70340641D01*
X67613953Y-70333820D01*
X67616943Y-70330647D01*
X67618001Y-70330829D01*
X67625118Y-70332959D01*
X67636944Y-70336976D01*
X67651577Y-70342242D01*
X67683026Y-70353838D01*
X67684082Y-70272881D01*
X67685138Y-70191923D01*
X67695884Y-70190687D01*
X67706630Y-70189450D01*
X67706630Y-70384393D01*
G37*
X67706630Y-70384393D02*
X67658981Y-70367183D01*
X67655775Y-70366024D01*
X67638298Y-70359647D01*
X67623952Y-70354321D01*
X67614146Y-70350573D01*
X67610290Y-70348932D01*
X67609802Y-70347059D01*
X67611082Y-70340641D01*
X67613953Y-70333820D01*
X67616943Y-70330647D01*
X67618001Y-70330829D01*
X67625118Y-70332959D01*
X67636944Y-70336976D01*
X67651577Y-70342242D01*
X67683026Y-70353838D01*
X67684082Y-70272881D01*
X67685138Y-70191923D01*
X67695884Y-70190687D01*
X67706630Y-70189450D01*
X67706630Y-70384393D01*
D12*
X78900000Y-44200000D02*
X78900000Y-41400000D01*
X82300000Y-44200000D02*
X82300000Y-40000000D01*
D13*
X78758769Y-70167500D02*
X78659202Y-70408910D01*
X78659202Y-70408910D02*
X78562358Y-70638792D01*
X78562358Y-70638792D02*
X78473508Y-70845012D01*
X78473508Y-70845012D02*
X78397919Y-71015436D01*
X78397919Y-71015436D02*
X78340860Y-71137930D01*
X78340860Y-71137930D02*
X78317640Y-71183500D01*
X78317640Y-71183500D02*
X78213237Y-71374000D01*
X78213237Y-71374000D02*
X79191757Y-71374000D01*
X79191757Y-71374000D02*
X79170869Y-71269561D01*
X79170869Y-71269561D02*
X79175366Y-71146314D01*
X79175366Y-71146314D02*
X79224165Y-70997418D01*
X79224165Y-70997418D02*
X79298348Y-70829715D01*
X79298348Y-70829715D02*
X80200635Y-70829715D01*
X80200635Y-70829715D02*
X80280531Y-71015437D01*
X80280531Y-71015437D02*
X80327531Y-71152210D01*
X80327531Y-71152210D02*
X80342202Y-71260740D01*
X80342202Y-71260740D02*
X80338736Y-71287580D01*
X80338736Y-71287580D02*
X80330751Y-71331315D01*
X80330751Y-71331315D02*
X80343388Y-71357058D01*
X80343388Y-71357058D02*
X80390635Y-71369577D01*
X80390635Y-71369577D02*
X80486480Y-71373638D01*
X80486480Y-71373638D02*
X80592351Y-71374000D01*
X80592351Y-71374000D02*
X80867656Y-71374000D01*
X80867656Y-71374000D02*
X80795790Y-71273073D01*
X80795790Y-71273073D02*
X80760880Y-71213265D01*
X80760880Y-71213265D02*
X80700276Y-71097821D01*
X80700276Y-71097821D02*
X80619025Y-70936844D01*
X80619025Y-70936844D02*
X80522171Y-70740437D01*
X80522171Y-70740437D02*
X80414760Y-70518704D01*
X80414760Y-70518704D02*
X80401097Y-70490075D01*
X80401097Y-70490075D02*
X80028143Y-70490075D01*
X80028143Y-70490075D02*
X79994722Y-70496144D01*
X79994722Y-70496144D02*
X79905906Y-70500714D01*
X79905906Y-70500714D02*
X79778872Y-70503012D01*
X79778872Y-70503012D02*
X79737857Y-70503143D01*
X79737857Y-70503143D02*
X79603043Y-70500959D01*
X79603043Y-70500959D02*
X79501528Y-70495155D01*
X79501528Y-70495155D02*
X79450483Y-70486853D01*
X79450483Y-70486853D02*
X79447572Y-70484172D01*
X79447572Y-70484172D02*
X79461100Y-70439088D01*
X79461100Y-70439088D02*
X79496207Y-70347323D01*
X79496207Y-70347323D02*
X79544671Y-70228369D01*
X79544671Y-70228369D02*
X79598273Y-70101717D01*
X79598273Y-70101717D02*
X79648792Y-69986858D01*
X79648792Y-69986858D02*
X79688008Y-69903283D01*
X79688008Y-69903283D02*
X79705724Y-69872043D01*
X79705724Y-69872043D02*
X79728197Y-69892244D01*
X79728197Y-69892244D02*
X79772698Y-69961811D01*
X79772698Y-69961811D02*
X79830652Y-70064304D01*
X79830652Y-70064304D02*
X79893485Y-70183287D01*
X79893485Y-70183287D02*
X79952620Y-70302322D01*
X79952620Y-70302322D02*
X79999481Y-70404970D01*
X79999481Y-70404970D02*
X80025495Y-70474794D01*
X80025495Y-70474794D02*
X80028143Y-70490075D01*
X80028143Y-70490075D02*
X80401097Y-70490075D01*
X80401097Y-70490075D02*
X80322548Y-70325497D01*
X80322548Y-70325497D02*
X80196134Y-70056804D01*
X80196134Y-70056804D02*
X80099378Y-69845829D01*
X80099378Y-69845829D02*
X80029425Y-69685410D01*
X80029425Y-69685410D02*
X79983420Y-69568384D01*
X79983420Y-69568384D02*
X79958507Y-69487588D01*
X79958507Y-69487588D02*
X79951831Y-69435859D01*
X79951831Y-69435859D02*
X79957791Y-69410424D01*
X79957791Y-69410424D02*
X79969251Y-69381984D01*
X79969251Y-69381984D02*
X79960398Y-69362751D01*
X79960398Y-69362751D02*
X79920405Y-69350932D01*
X79920405Y-69350932D02*
X79838441Y-69344732D01*
X79838441Y-69344732D02*
X79703677Y-69342355D01*
X79703677Y-69342355D02*
X79544953Y-69342000D01*
X79544953Y-69342000D02*
X79095496Y-69342000D01*
X79095496Y-69342000D02*
X78758769Y-70167500D01*
X78758769Y-70167500D02*
X78758769Y-70167500D01*
G36*
X80522171Y-70740437D02*
G01*
X80619025Y-70936844D01*
X80700276Y-71097821D01*
X80760880Y-71213265D01*
X80795790Y-71273073D01*
X80867656Y-71374000D01*
X80592351Y-71374000D01*
X80486480Y-71373638D01*
X80390635Y-71369577D01*
X80343388Y-71357058D01*
X80330751Y-71331315D01*
X80338736Y-71287580D01*
X80342202Y-71260740D01*
X80327531Y-71152210D01*
X80280531Y-71015437D01*
X80200635Y-70829715D01*
X79298348Y-70829715D01*
X79224165Y-70997418D01*
X79175366Y-71146314D01*
X79170869Y-71269561D01*
X79191757Y-71374000D01*
X78213237Y-71374000D01*
X78317640Y-71183500D01*
X78340860Y-71137930D01*
X78397919Y-71015436D01*
X78473508Y-70845012D01*
X78562358Y-70638792D01*
X78627496Y-70484172D01*
X79447572Y-70484172D01*
X79450483Y-70486853D01*
X79501528Y-70495155D01*
X79603043Y-70500959D01*
X79737857Y-70503143D01*
X79778872Y-70503012D01*
X79905906Y-70500714D01*
X79994722Y-70496144D01*
X80028143Y-70490075D01*
X80025495Y-70474794D01*
X79999481Y-70404970D01*
X79952620Y-70302322D01*
X79893485Y-70183287D01*
X79830652Y-70064304D01*
X79772698Y-69961811D01*
X79728197Y-69892244D01*
X79705724Y-69872043D01*
X79688008Y-69903283D01*
X79648792Y-69986858D01*
X79598273Y-70101717D01*
X79544671Y-70228369D01*
X79496207Y-70347323D01*
X79461100Y-70439088D01*
X79447572Y-70484172D01*
X78627496Y-70484172D01*
X78659202Y-70408910D01*
X78758769Y-70167500D01*
X79095496Y-69342000D01*
X79544953Y-69342000D01*
X79703677Y-69342355D01*
X79838441Y-69344732D01*
X79920405Y-69350932D01*
X79960398Y-69362751D01*
X79969251Y-69381984D01*
X79957791Y-69410424D01*
X79951831Y-69435859D01*
X79958507Y-69487588D01*
X79983420Y-69568384D01*
X80029425Y-69685410D01*
X80099378Y-69845829D01*
X80196134Y-70056804D01*
X80322548Y-70325497D01*
X80401097Y-70490075D01*
X80414760Y-70518704D01*
X80522171Y-70740437D01*
G37*
X80522171Y-70740437D02*
X80619025Y-70936844D01*
X80700276Y-71097821D01*
X80760880Y-71213265D01*
X80795790Y-71273073D01*
X80867656Y-71374000D01*
X80592351Y-71374000D01*
X80486480Y-71373638D01*
X80390635Y-71369577D01*
X80343388Y-71357058D01*
X80330751Y-71331315D01*
X80338736Y-71287580D01*
X80342202Y-71260740D01*
X80327531Y-71152210D01*
X80280531Y-71015437D01*
X80200635Y-70829715D01*
X79298348Y-70829715D01*
X79224165Y-70997418D01*
X79175366Y-71146314D01*
X79170869Y-71269561D01*
X79191757Y-71374000D01*
X78213237Y-71374000D01*
X78317640Y-71183500D01*
X78340860Y-71137930D01*
X78397919Y-71015436D01*
X78473508Y-70845012D01*
X78562358Y-70638792D01*
X78627496Y-70484172D01*
X79447572Y-70484172D01*
X79450483Y-70486853D01*
X79501528Y-70495155D01*
X79603043Y-70500959D01*
X79737857Y-70503143D01*
X79778872Y-70503012D01*
X79905906Y-70500714D01*
X79994722Y-70496144D01*
X80028143Y-70490075D01*
X80025495Y-70474794D01*
X79999481Y-70404970D01*
X79952620Y-70302322D01*
X79893485Y-70183287D01*
X79830652Y-70064304D01*
X79772698Y-69961811D01*
X79728197Y-69892244D01*
X79705724Y-69872043D01*
X79688008Y-69903283D01*
X79648792Y-69986858D01*
X79598273Y-70101717D01*
X79544671Y-70228369D01*
X79496207Y-70347323D01*
X79461100Y-70439088D01*
X79447572Y-70484172D01*
X78627496Y-70484172D01*
X78659202Y-70408910D01*
X78758769Y-70167500D01*
X79095496Y-69342000D01*
X79544953Y-69342000D01*
X79703677Y-69342355D01*
X79838441Y-69344732D01*
X79920405Y-69350932D01*
X79960398Y-69362751D01*
X79969251Y-69381984D01*
X79957791Y-69410424D01*
X79951831Y-69435859D01*
X79958507Y-69487588D01*
X79983420Y-69568384D01*
X80029425Y-69685410D01*
X80099378Y-69845829D01*
X80196134Y-70056804D01*
X80322548Y-70325497D01*
X80401097Y-70490075D01*
X80414760Y-70518704D01*
X80522171Y-70740437D01*
X79179739Y-66312491D02*
X78692904Y-66417520D01*
X78692904Y-66417520D02*
X78222639Y-66580568D01*
X78222639Y-66580568D02*
X77774502Y-66800127D01*
X77774502Y-66800127D02*
X77354048Y-67074689D01*
X77354048Y-67074689D02*
X76966834Y-67402747D01*
X76966834Y-67402747D02*
X76618417Y-67782792D01*
X76618417Y-67782792D02*
X76314352Y-68213317D01*
X76314352Y-68213317D02*
X76091072Y-68625954D01*
X76091072Y-68625954D02*
X76020750Y-68779800D01*
X76020750Y-68779800D02*
X75960674Y-68920223D01*
X75960674Y-68920223D02*
X75919193Y-69027252D01*
X75919193Y-69027252D02*
X75906796Y-69066752D01*
X75906796Y-69066752D02*
X75893907Y-69138217D01*
X75893907Y-69138217D02*
X75911931Y-69155808D01*
X75911931Y-69155808D02*
X75949641Y-69143263D01*
X75949641Y-69143263D02*
X76142314Y-69092077D01*
X76142314Y-69092077D02*
X76318563Y-69110875D01*
X76318563Y-69110875D02*
X76483546Y-69200351D01*
X76483546Y-69200351D02*
X76505632Y-69218215D01*
X76505632Y-69218215D02*
X76582080Y-69273141D01*
X76582080Y-69273141D02*
X76615378Y-69272278D01*
X76615378Y-69272278D02*
X76617286Y-69260949D01*
X76617286Y-69260949D02*
X76635213Y-69191364D01*
X76635213Y-69191364D02*
X76683613Y-69075630D01*
X76683613Y-69075630D02*
X76754419Y-68929088D01*
X76754419Y-68929088D02*
X76839559Y-68767079D01*
X76839559Y-68767079D02*
X76930966Y-68604945D01*
X76930966Y-68604945D02*
X77020570Y-68458026D01*
X77020570Y-68458026D02*
X77100302Y-68341664D01*
X77100302Y-68341664D02*
X77102012Y-68339395D01*
X77102012Y-68339395D02*
X77422176Y-67972315D01*
X77422176Y-67972315D02*
X77780466Y-67662731D01*
X77780466Y-67662731D02*
X78170369Y-67411102D01*
X78170369Y-67411102D02*
X78585371Y-67217888D01*
X78585371Y-67217888D02*
X79018957Y-67083547D01*
X79018957Y-67083547D02*
X79464613Y-67008538D01*
X79464613Y-67008538D02*
X79915826Y-66993323D01*
X79915826Y-66993323D02*
X80366081Y-67038359D01*
X80366081Y-67038359D02*
X80808863Y-67144106D01*
X80808863Y-67144106D02*
X81237660Y-67311023D01*
X81237660Y-67311023D02*
X81645956Y-67539570D01*
X81645956Y-67539570D02*
X82027238Y-67830207D01*
X82027238Y-67830207D02*
X82187661Y-67980768D01*
X82187661Y-67980768D02*
X82508634Y-68350618D01*
X82508634Y-68350618D02*
X82767438Y-68751883D01*
X82767438Y-68751883D02*
X82963712Y-69177943D01*
X82963712Y-69177943D02*
X83097092Y-69622174D01*
X83097092Y-69622174D02*
X83167214Y-70077956D01*
X83167214Y-70077956D02*
X83173715Y-70538664D01*
X83173715Y-70538664D02*
X83116231Y-70997679D01*
X83116231Y-70997679D02*
X82994399Y-71448377D01*
X82994399Y-71448377D02*
X82807856Y-71884137D01*
X82807856Y-71884137D02*
X82556238Y-72298337D01*
X82556238Y-72298337D02*
X82433552Y-72461175D01*
X82433552Y-72461175D02*
X82103940Y-72817655D01*
X82103940Y-72817655D02*
X81735503Y-73116618D01*
X81735503Y-73116618D02*
X81334977Y-73357035D01*
X81334977Y-73357035D02*
X80909095Y-73537879D01*
X80909095Y-73537879D02*
X80464593Y-73658119D01*
X80464593Y-73658119D02*
X80008205Y-73716729D01*
X80008205Y-73716729D02*
X79546667Y-73712678D01*
X79546667Y-73712678D02*
X79086713Y-73644939D01*
X79086713Y-73644939D02*
X78635079Y-73512483D01*
X78635079Y-73512483D02*
X78198498Y-73314281D01*
X78198498Y-73314281D02*
X77925865Y-73149627D01*
X77925865Y-73149627D02*
X77680102Y-72965357D01*
X77680102Y-72965357D02*
X77437070Y-72747348D01*
X77437070Y-72747348D02*
X77216304Y-72514967D01*
X77216304Y-72514967D02*
X77037341Y-72287582D01*
X77037341Y-72287582D02*
X77000400Y-72232189D01*
X77000400Y-72232189D02*
X76917400Y-72094784D01*
X76917400Y-72094784D02*
X76831531Y-71940255D01*
X76831531Y-71940255D02*
X76750689Y-71784404D01*
X76750689Y-71784404D02*
X76682774Y-71643035D01*
X76682774Y-71643035D02*
X76635682Y-71531949D01*
X76635682Y-71531949D02*
X76617312Y-71466950D01*
X76617312Y-71466950D02*
X76617286Y-71465620D01*
X76617286Y-71465620D02*
X76598648Y-71416031D01*
X76598648Y-71416031D02*
X76559481Y-71422644D01*
X76559481Y-71422644D02*
X76530964Y-71466353D01*
X76530964Y-71466353D02*
X76468536Y-71537243D01*
X76468536Y-71537243D02*
X76357011Y-71587045D01*
X76357011Y-71587045D02*
X76217835Y-71611704D01*
X76217835Y-71611704D02*
X76072456Y-71607166D01*
X76072456Y-71607166D02*
X75955072Y-71575219D01*
X75955072Y-71575219D02*
X75914214Y-71564457D01*
X75914214Y-71564457D02*
X75896912Y-71582758D01*
X75896912Y-71582758D02*
X75904933Y-71638253D01*
X75904933Y-71638253D02*
X75940046Y-71739070D01*
X75940046Y-71739070D02*
X76004017Y-71893338D01*
X76004017Y-71893338D02*
X76044521Y-71986543D01*
X76044521Y-71986543D02*
X76286312Y-72454861D01*
X76286312Y-72454861D02*
X76584575Y-72881805D01*
X76584575Y-72881805D02*
X76945216Y-73275814D01*
X76945216Y-73275814D02*
X76949385Y-73279835D01*
X76949385Y-73279835D02*
X77315709Y-73602588D01*
X77315709Y-73602588D02*
X77683551Y-73863071D01*
X77683551Y-73863071D02*
X78067614Y-74070378D01*
X78067614Y-74070378D02*
X78482598Y-74233603D01*
X78482598Y-74233603D02*
X78500924Y-74239629D01*
X78500924Y-74239629D02*
X79038202Y-74377952D01*
X79038202Y-74377952D02*
X79580617Y-74444055D01*
X79580617Y-74444055D02*
X80126555Y-74437804D01*
X80126555Y-74437804D02*
X80445429Y-74400780D01*
X80445429Y-74400780D02*
X80960321Y-74286048D01*
X80960321Y-74286048D02*
X81447606Y-74108271D01*
X81447606Y-74108271D02*
X81903119Y-73872562D01*
X81903119Y-73872562D02*
X82322694Y-73584038D01*
X82322694Y-73584038D02*
X82702168Y-73247814D01*
X82702168Y-73247814D02*
X83037376Y-72869004D01*
X83037376Y-72869004D02*
X83324153Y-72452725D01*
X83324153Y-72452725D02*
X83558334Y-72004091D01*
X83558334Y-72004091D02*
X83735756Y-71528218D01*
X83735756Y-71528218D02*
X83852254Y-71030221D01*
X83852254Y-71030221D02*
X83903662Y-70515214D01*
X83903662Y-70515214D02*
X83899347Y-70158429D01*
X83899347Y-70158429D02*
X83834376Y-69612017D01*
X83834376Y-69612017D02*
X83702954Y-69090504D01*
X83702954Y-69090504D02*
X83503253Y-68588390D01*
X83503253Y-68588390D02*
X83233445Y-68100180D01*
X83233445Y-68100180D02*
X83195470Y-68041040D01*
X83195470Y-68041040D02*
X83088839Y-67898077D01*
X83088839Y-67898077D02*
X82939796Y-67725874D01*
X82939796Y-67725874D02*
X82763421Y-67539479D01*
X82763421Y-67539479D02*
X82574790Y-67353941D01*
X82574790Y-67353941D02*
X82388982Y-67184310D01*
X82388982Y-67184310D02*
X82221075Y-67045635D01*
X82221075Y-67045635D02*
X82137580Y-66985150D01*
X82137580Y-66985150D02*
X81668004Y-66710402D01*
X81668004Y-66710402D02*
X81181660Y-66502720D01*
X81181660Y-66502720D02*
X80684106Y-66360595D01*
X80684106Y-66360595D02*
X80180896Y-66282521D01*
X80180896Y-66282521D02*
X79677589Y-66266989D01*
X79677589Y-66266989D02*
X79179739Y-66312491D01*
X79179739Y-66312491D02*
X79179739Y-66312491D01*
G36*
X80180896Y-66282521D02*
G01*
X80684106Y-66360595D01*
X81181660Y-66502720D01*
X81668004Y-66710402D01*
X82137580Y-66985150D01*
X82221075Y-67045635D01*
X82388982Y-67184310D01*
X82574790Y-67353941D01*
X82763421Y-67539479D01*
X82939796Y-67725874D01*
X83088839Y-67898077D01*
X83195470Y-68041040D01*
X83233445Y-68100180D01*
X83503253Y-68588390D01*
X83702954Y-69090504D01*
X83834376Y-69612017D01*
X83899347Y-70158429D01*
X83903662Y-70515214D01*
X83852254Y-71030221D01*
X83735756Y-71528218D01*
X83558334Y-72004091D01*
X83324153Y-72452725D01*
X83037376Y-72869004D01*
X82702168Y-73247814D01*
X82322694Y-73584038D01*
X81903119Y-73872562D01*
X81447606Y-74108271D01*
X80960321Y-74286048D01*
X80445429Y-74400780D01*
X80126555Y-74437804D01*
X79580617Y-74444055D01*
X79038202Y-74377952D01*
X78500924Y-74239629D01*
X78482598Y-74233603D01*
X78067614Y-74070378D01*
X77683551Y-73863071D01*
X77315709Y-73602588D01*
X76949385Y-73279835D01*
X76945216Y-73275814D01*
X76584575Y-72881805D01*
X76286312Y-72454861D01*
X76044521Y-71986543D01*
X76004017Y-71893338D01*
X75940046Y-71739070D01*
X75904933Y-71638253D01*
X75896912Y-71582758D01*
X75914214Y-71564457D01*
X75955072Y-71575219D01*
X76072456Y-71607166D01*
X76217835Y-71611704D01*
X76357011Y-71587045D01*
X76468536Y-71537243D01*
X76530964Y-71466353D01*
X76559481Y-71422644D01*
X76598648Y-71416031D01*
X76617286Y-71465620D01*
X76617312Y-71466950D01*
X76635682Y-71531949D01*
X76682774Y-71643035D01*
X76750689Y-71784404D01*
X76831531Y-71940255D01*
X76917400Y-72094784D01*
X77000400Y-72232189D01*
X77037341Y-72287582D01*
X77216304Y-72514967D01*
X77437070Y-72747348D01*
X77680102Y-72965357D01*
X77925865Y-73149627D01*
X78198498Y-73314281D01*
X78635079Y-73512483D01*
X79086713Y-73644939D01*
X79546667Y-73712678D01*
X80008205Y-73716729D01*
X80464593Y-73658119D01*
X80909095Y-73537879D01*
X81334977Y-73357035D01*
X81735503Y-73116618D01*
X82103940Y-72817655D01*
X82433552Y-72461175D01*
X82556238Y-72298337D01*
X82807856Y-71884137D01*
X82994399Y-71448377D01*
X83116231Y-70997679D01*
X83173715Y-70538664D01*
X83167214Y-70077956D01*
X83097092Y-69622174D01*
X82963712Y-69177943D01*
X82767438Y-68751883D01*
X82508634Y-68350618D01*
X82187661Y-67980768D01*
X82027238Y-67830207D01*
X81645956Y-67539570D01*
X81237660Y-67311023D01*
X80808863Y-67144106D01*
X80366081Y-67038359D01*
X79915826Y-66993323D01*
X79464613Y-67008538D01*
X79018957Y-67083547D01*
X78585371Y-67217888D01*
X78170369Y-67411102D01*
X77780466Y-67662731D01*
X77422176Y-67972315D01*
X77102012Y-68339395D01*
X77100302Y-68341664D01*
X77020570Y-68458026D01*
X76930966Y-68604945D01*
X76839559Y-68767079D01*
X76754419Y-68929088D01*
X76683613Y-69075630D01*
X76635213Y-69191364D01*
X76617286Y-69260949D01*
X76615378Y-69272278D01*
X76582080Y-69273141D01*
X76505632Y-69218215D01*
X76483546Y-69200351D01*
X76318563Y-69110875D01*
X76142314Y-69092077D01*
X75949641Y-69143263D01*
X75911931Y-69155808D01*
X75893907Y-69138217D01*
X75906796Y-69066752D01*
X75919193Y-69027252D01*
X75960674Y-68920223D01*
X76020750Y-68779800D01*
X76091072Y-68625954D01*
X76314352Y-68213317D01*
X76618417Y-67782792D01*
X76966834Y-67402747D01*
X77354048Y-67074689D01*
X77774502Y-66800127D01*
X78222639Y-66580568D01*
X78692904Y-66417520D01*
X79179739Y-66312491D01*
X79677589Y-66266989D01*
X80180896Y-66282521D01*
G37*
X80180896Y-66282521D02*
X80684106Y-66360595D01*
X81181660Y-66502720D01*
X81668004Y-66710402D01*
X82137580Y-66985150D01*
X82221075Y-67045635D01*
X82388982Y-67184310D01*
X82574790Y-67353941D01*
X82763421Y-67539479D01*
X82939796Y-67725874D01*
X83088839Y-67898077D01*
X83195470Y-68041040D01*
X83233445Y-68100180D01*
X83503253Y-68588390D01*
X83702954Y-69090504D01*
X83834376Y-69612017D01*
X83899347Y-70158429D01*
X83903662Y-70515214D01*
X83852254Y-71030221D01*
X83735756Y-71528218D01*
X83558334Y-72004091D01*
X83324153Y-72452725D01*
X83037376Y-72869004D01*
X82702168Y-73247814D01*
X82322694Y-73584038D01*
X81903119Y-73872562D01*
X81447606Y-74108271D01*
X80960321Y-74286048D01*
X80445429Y-74400780D01*
X80126555Y-74437804D01*
X79580617Y-74444055D01*
X79038202Y-74377952D01*
X78500924Y-74239629D01*
X78482598Y-74233603D01*
X78067614Y-74070378D01*
X77683551Y-73863071D01*
X77315709Y-73602588D01*
X76949385Y-73279835D01*
X76945216Y-73275814D01*
X76584575Y-72881805D01*
X76286312Y-72454861D01*
X76044521Y-71986543D01*
X76004017Y-71893338D01*
X75940046Y-71739070D01*
X75904933Y-71638253D01*
X75896912Y-71582758D01*
X75914214Y-71564457D01*
X75955072Y-71575219D01*
X76072456Y-71607166D01*
X76217835Y-71611704D01*
X76357011Y-71587045D01*
X76468536Y-71537243D01*
X76530964Y-71466353D01*
X76559481Y-71422644D01*
X76598648Y-71416031D01*
X76617286Y-71465620D01*
X76617312Y-71466950D01*
X76635682Y-71531949D01*
X76682774Y-71643035D01*
X76750689Y-71784404D01*
X76831531Y-71940255D01*
X76917400Y-72094784D01*
X77000400Y-72232189D01*
X77037341Y-72287582D01*
X77216304Y-72514967D01*
X77437070Y-72747348D01*
X77680102Y-72965357D01*
X77925865Y-73149627D01*
X78198498Y-73314281D01*
X78635079Y-73512483D01*
X79086713Y-73644939D01*
X79546667Y-73712678D01*
X80008205Y-73716729D01*
X80464593Y-73658119D01*
X80909095Y-73537879D01*
X81334977Y-73357035D01*
X81735503Y-73116618D01*
X82103940Y-72817655D01*
X82433552Y-72461175D01*
X82556238Y-72298337D01*
X82807856Y-71884137D01*
X82994399Y-71448377D01*
X83116231Y-70997679D01*
X83173715Y-70538664D01*
X83167214Y-70077956D01*
X83097092Y-69622174D01*
X82963712Y-69177943D01*
X82767438Y-68751883D01*
X82508634Y-68350618D01*
X82187661Y-67980768D01*
X82027238Y-67830207D01*
X81645956Y-67539570D01*
X81237660Y-67311023D01*
X80808863Y-67144106D01*
X80366081Y-67038359D01*
X79915826Y-66993323D01*
X79464613Y-67008538D01*
X79018957Y-67083547D01*
X78585371Y-67217888D01*
X78170369Y-67411102D01*
X77780466Y-67662731D01*
X77422176Y-67972315D01*
X77102012Y-68339395D01*
X77100302Y-68341664D01*
X77020570Y-68458026D01*
X76930966Y-68604945D01*
X76839559Y-68767079D01*
X76754419Y-68929088D01*
X76683613Y-69075630D01*
X76635213Y-69191364D01*
X76617286Y-69260949D01*
X76615378Y-69272278D01*
X76582080Y-69273141D01*
X76505632Y-69218215D01*
X76483546Y-69200351D01*
X76318563Y-69110875D01*
X76142314Y-69092077D01*
X75949641Y-69143263D01*
X75911931Y-69155808D01*
X75893907Y-69138217D01*
X75906796Y-69066752D01*
X75919193Y-69027252D01*
X75960674Y-68920223D01*
X76020750Y-68779800D01*
X76091072Y-68625954D01*
X76314352Y-68213317D01*
X76618417Y-67782792D01*
X76966834Y-67402747D01*
X77354048Y-67074689D01*
X77774502Y-66800127D01*
X78222639Y-66580568D01*
X78692904Y-66417520D01*
X79179739Y-66312491D01*
X79677589Y-66266989D01*
X80180896Y-66282521D01*
X76628279Y-69514806D02*
X76630969Y-69693156D01*
X76630969Y-69693156D02*
X76977913Y-69677319D01*
X76977913Y-69677319D02*
X77157034Y-69674000D01*
X77157034Y-69674000D02*
X77307365Y-69680450D01*
X77307365Y-69680450D02*
X77409630Y-69695660D01*
X77409630Y-69695660D02*
X77425502Y-69700742D01*
X77425502Y-69700742D02*
X77526147Y-69740000D01*
X77526147Y-69740000D02*
X77516217Y-70366500D01*
X77516217Y-70366500D02*
X77506286Y-70993000D01*
X77506286Y-70993000D02*
X76631114Y-71013266D01*
X76631114Y-71013266D02*
X76625672Y-71374000D01*
X76625672Y-71374000D02*
X77248790Y-71374000D01*
X77248790Y-71374000D02*
X77479189Y-71373325D01*
X77479189Y-71373325D02*
X77650032Y-71370396D01*
X77650032Y-71370396D02*
X77774330Y-71363857D01*
X77774330Y-71363857D02*
X77865093Y-71352350D01*
X77865093Y-71352350D02*
X77935331Y-71334520D01*
X77935331Y-71334520D02*
X77998054Y-71309009D01*
X77998054Y-71309009D02*
X78031825Y-71292357D01*
X78031825Y-71292357D02*
X78114009Y-71244070D01*
X78114009Y-71244070D02*
X78176048Y-71187427D01*
X78176048Y-71187427D02*
X78220780Y-71112009D01*
X78220780Y-71112009D02*
X78251044Y-71007394D01*
X78251044Y-71007394D02*
X78269678Y-70863161D01*
X78269678Y-70863161D02*
X78279521Y-70668890D01*
X78279521Y-70668890D02*
X78283412Y-70414160D01*
X78283412Y-70414160D02*
X78283668Y-70367806D01*
X78283668Y-70367806D02*
X78281685Y-70092642D01*
X78281685Y-70092642D02*
X78271325Y-69879600D01*
X78271325Y-69879600D02*
X78250327Y-69718488D01*
X78250327Y-69718488D02*
X78216431Y-69599115D01*
X78216431Y-69599115D02*
X78167376Y-69511289D01*
X78167376Y-69511289D02*
X78100901Y-69444818D01*
X78100901Y-69444818D02*
X78074709Y-69425800D01*
X78074709Y-69425800D02*
X78030874Y-69402011D01*
X78030874Y-69402011D02*
X77971893Y-69384115D01*
X77971893Y-69384115D02*
X77886794Y-69371010D01*
X77886794Y-69371010D02*
X77764604Y-69361598D01*
X77764604Y-69361598D02*
X77594352Y-69354777D01*
X77594352Y-69354777D02*
X77365065Y-69349448D01*
X77365065Y-69349448D02*
X77301794Y-69348299D01*
X77301794Y-69348299D02*
X76625588Y-69336455D01*
X76625588Y-69336455D02*
X76628279Y-69514806D01*
X76628279Y-69514806D02*
X76628279Y-69514806D01*
G36*
X77301794Y-69348299D02*
G01*
X77365065Y-69349448D01*
X77594352Y-69354777D01*
X77764604Y-69361598D01*
X77886794Y-69371010D01*
X77971893Y-69384115D01*
X78030874Y-69402011D01*
X78074709Y-69425800D01*
X78100901Y-69444818D01*
X78167376Y-69511289D01*
X78216431Y-69599115D01*
X78250327Y-69718488D01*
X78271325Y-69879600D01*
X78281685Y-70092642D01*
X78283668Y-70367806D01*
X78283412Y-70414160D01*
X78279521Y-70668890D01*
X78269678Y-70863161D01*
X78251044Y-71007394D01*
X78220780Y-71112009D01*
X78176048Y-71187427D01*
X78114009Y-71244070D01*
X78031825Y-71292357D01*
X77998054Y-71309009D01*
X77935331Y-71334520D01*
X77865093Y-71352350D01*
X77774330Y-71363857D01*
X77650032Y-71370396D01*
X77479189Y-71373325D01*
X77248790Y-71374000D01*
X76625672Y-71374000D01*
X76631114Y-71013266D01*
X77506286Y-70993000D01*
X77516217Y-70366500D01*
X77526147Y-69740000D01*
X77425502Y-69700742D01*
X77409630Y-69695660D01*
X77307365Y-69680450D01*
X77157034Y-69674000D01*
X76977913Y-69677319D01*
X76630969Y-69693156D01*
X76628279Y-69514806D01*
X76625588Y-69336455D01*
X77301794Y-69348299D01*
G37*
X77301794Y-69348299D02*
X77365065Y-69349448D01*
X77594352Y-69354777D01*
X77764604Y-69361598D01*
X77886794Y-69371010D01*
X77971893Y-69384115D01*
X78030874Y-69402011D01*
X78074709Y-69425800D01*
X78100901Y-69444818D01*
X78167376Y-69511289D01*
X78216431Y-69599115D01*
X78250327Y-69718488D01*
X78271325Y-69879600D01*
X78281685Y-70092642D01*
X78283668Y-70367806D01*
X78283412Y-70414160D01*
X78279521Y-70668890D01*
X78269678Y-70863161D01*
X78251044Y-71007394D01*
X78220780Y-71112009D01*
X78176048Y-71187427D01*
X78114009Y-71244070D01*
X78031825Y-71292357D01*
X77998054Y-71309009D01*
X77935331Y-71334520D01*
X77865093Y-71352350D01*
X77774330Y-71363857D01*
X77650032Y-71370396D01*
X77479189Y-71373325D01*
X77248790Y-71374000D01*
X76625672Y-71374000D01*
X76631114Y-71013266D01*
X77506286Y-70993000D01*
X77516217Y-70366500D01*
X77526147Y-69740000D01*
X77425502Y-69700742D01*
X77409630Y-69695660D01*
X77307365Y-69680450D01*
X77157034Y-69674000D01*
X76977913Y-69677319D01*
X76630969Y-69693156D01*
X76628279Y-69514806D01*
X76625588Y-69336455D01*
X77301794Y-69348299D01*
X76033160Y-69231624D02*
X75920592Y-69310932D01*
X75920592Y-69310932D02*
X75848814Y-69429420D01*
X75848814Y-69429420D02*
X75831842Y-69576691D01*
X75831842Y-69576691D02*
X75834183Y-69596000D01*
X75834183Y-69596000D02*
X75886324Y-69730261D01*
X75886324Y-69730261D02*
X75986258Y-69827657D01*
X75986258Y-69827657D02*
X76115436Y-69880743D01*
X76115436Y-69880743D02*
X76255312Y-69882074D01*
X76255312Y-69882074D02*
X76387336Y-69824205D01*
X76387336Y-69824205D02*
X76392682Y-69820177D01*
X76392682Y-69820177D02*
X76478507Y-69713961D01*
X76478507Y-69713961D02*
X76513518Y-69581691D01*
X76513518Y-69581691D02*
X76500142Y-69444320D01*
X76500142Y-69444320D02*
X76440805Y-69322805D01*
X76440805Y-69322805D02*
X76337933Y-69238098D01*
X76337933Y-69238098D02*
X76324602Y-69232150D01*
X76324602Y-69232150D02*
X76172503Y-69201897D01*
X76172503Y-69201897D02*
X76033160Y-69231624D01*
X76033160Y-69231624D02*
X76033160Y-69231624D01*
G36*
X76324602Y-69232150D02*
G01*
X76337933Y-69238098D01*
X76440805Y-69322805D01*
X76500142Y-69444320D01*
X76513518Y-69581691D01*
X76478507Y-69713961D01*
X76392682Y-69820177D01*
X76387336Y-69824205D01*
X76255312Y-69882074D01*
X76115436Y-69880743D01*
X75986258Y-69827657D01*
X75886324Y-69730261D01*
X75834183Y-69596000D01*
X75831842Y-69576691D01*
X75848814Y-69429420D01*
X75920592Y-69310932D01*
X76033160Y-69231624D01*
X76172503Y-69201897D01*
X76324602Y-69232150D01*
G37*
X76324602Y-69232150D02*
X76337933Y-69238098D01*
X76440805Y-69322805D01*
X76500142Y-69444320D01*
X76513518Y-69581691D01*
X76478507Y-69713961D01*
X76392682Y-69820177D01*
X76387336Y-69824205D01*
X76255312Y-69882074D01*
X76115436Y-69880743D01*
X75986258Y-69827657D01*
X75886324Y-69730261D01*
X75834183Y-69596000D01*
X75831842Y-69576691D01*
X75848814Y-69429420D01*
X75920592Y-69310932D01*
X76033160Y-69231624D01*
X76172503Y-69201897D01*
X76324602Y-69232150D01*
X82096429Y-69342203D02*
X81843898Y-69343837D01*
X81843898Y-69343837D02*
X81609793Y-69348313D01*
X81609793Y-69348313D02*
X81406146Y-69355172D01*
X81406146Y-69355172D02*
X81244992Y-69363958D01*
X81244992Y-69363958D02*
X81138365Y-69374213D01*
X81138365Y-69374213D02*
X81109294Y-69379738D01*
X81109294Y-69379738D02*
X80975213Y-69437766D01*
X80975213Y-69437766D02*
X80887698Y-69530534D01*
X80887698Y-69530534D02*
X80840267Y-69668983D01*
X80840267Y-69668983D02*
X80826429Y-69857279D01*
X80826429Y-69857279D02*
X80832759Y-70032139D01*
X80832759Y-70032139D02*
X80856418Y-70148457D01*
X80856418Y-70148457D02*
X80904405Y-70219528D01*
X80904405Y-70219528D02*
X80983721Y-70258641D01*
X80983721Y-70258641D02*
X81044629Y-70271572D01*
X81044629Y-70271572D02*
X81140761Y-70295342D01*
X81140761Y-70295342D02*
X81165007Y-70322720D01*
X81165007Y-70322720D02*
X81117798Y-70351236D01*
X81117798Y-70351236D02*
X81026842Y-70373591D01*
X81026842Y-70373591D02*
X80938192Y-70401036D01*
X80938192Y-70401036D02*
X80879521Y-70452303D01*
X80879521Y-70452303D02*
X80845155Y-70540180D01*
X80845155Y-70540180D02*
X80829419Y-70677458D01*
X80829419Y-70677458D02*
X80826429Y-70825306D01*
X80826429Y-70825306D02*
X80829325Y-70978888D01*
X80829325Y-70978888D02*
X80840909Y-71080524D01*
X80840909Y-71080524D02*
X80865523Y-71150710D01*
X80865523Y-71150710D02*
X80907512Y-71209941D01*
X80907512Y-71209941D02*
X80908072Y-71210591D01*
X80908072Y-71210591D02*
X80957210Y-71258018D01*
X80957210Y-71258018D02*
X81019194Y-71295375D01*
X81019194Y-71295375D02*
X81102654Y-71323825D01*
X81102654Y-71323825D02*
X81216222Y-71344529D01*
X81216222Y-71344529D02*
X81368532Y-71358652D01*
X81368532Y-71358652D02*
X81568215Y-71367356D01*
X81568215Y-71367356D02*
X81823902Y-71371803D01*
X81823902Y-71371803D02*
X82114572Y-71373135D01*
X82114572Y-71373135D02*
X82949143Y-71374000D01*
X82949143Y-71374000D02*
X82949143Y-71011143D01*
X82949143Y-71011143D02*
X82169000Y-71011143D01*
X82169000Y-71011143D02*
X81585113Y-71011143D01*
X81585113Y-71011143D02*
X81595842Y-70766215D01*
X81595842Y-70766215D02*
X81606572Y-70521286D01*
X81606572Y-70521286D02*
X82169000Y-70500090D01*
X82169000Y-70500090D02*
X82169000Y-71011143D01*
X82169000Y-71011143D02*
X82949143Y-71011143D01*
X82949143Y-71011143D02*
X82949143Y-70001289D01*
X82949143Y-70001289D02*
X82164920Y-70001289D01*
X82164920Y-70001289D02*
X82160317Y-70094570D01*
X82160317Y-70094570D02*
X82154057Y-70126889D01*
X82154057Y-70126889D02*
X82109475Y-70154307D01*
X82109475Y-70154307D02*
X82015264Y-70171620D01*
X82015264Y-70171620D02*
X81893824Y-70177587D01*
X81893824Y-70177587D02*
X81767555Y-70170967D01*
X81767555Y-70170967D02*
X81670072Y-70153701D01*
X81670072Y-70153701D02*
X81623794Y-70133381D01*
X81623794Y-70133381D02*
X81599212Y-70091559D01*
X81599212Y-70091559D02*
X81589689Y-70009240D01*
X81589689Y-70009240D02*
X81588429Y-69919984D01*
X81588429Y-69919984D02*
X81590174Y-69801166D01*
X81590174Y-69801166D02*
X81601895Y-69735738D01*
X81601895Y-69735738D02*
X81633322Y-69704517D01*
X81633322Y-69704517D02*
X81694183Y-69688323D01*
X81694183Y-69688323D02*
X81707174Y-69685869D01*
X81707174Y-69685869D02*
X81821409Y-69674289D01*
X81821409Y-69674289D02*
X81956413Y-69673405D01*
X81956413Y-69673405D02*
X81988388Y-69675153D01*
X81988388Y-69675153D02*
X82150857Y-69686714D01*
X82150857Y-69686714D02*
X82161990Y-69881961D01*
X82161990Y-69881961D02*
X82164920Y-70001289D01*
X82164920Y-70001289D02*
X82949143Y-70001289D01*
X82949143Y-70001289D02*
X82949143Y-69342000D01*
X82949143Y-69342000D02*
X82096429Y-69342203D01*
X82096429Y-69342203D02*
X82096429Y-69342203D01*
G36*
X82114572Y-71373135D02*
G01*
X81823902Y-71371803D01*
X81568215Y-71367356D01*
X81368532Y-71358652D01*
X81216222Y-71344529D01*
X81102654Y-71323825D01*
X81019194Y-71295375D01*
X80957210Y-71258018D01*
X80908072Y-71210591D01*
X80907512Y-71209941D01*
X80865523Y-71150710D01*
X80840909Y-71080524D01*
X80833001Y-71011143D01*
X81585113Y-71011143D01*
X82169000Y-71011143D01*
X82169000Y-70500090D01*
X81606572Y-70521286D01*
X81595842Y-70766215D01*
X81585113Y-71011143D01*
X80833001Y-71011143D01*
X80829325Y-70978888D01*
X80826429Y-70825306D01*
X80829419Y-70677458D01*
X80845155Y-70540180D01*
X80879521Y-70452303D01*
X80938192Y-70401036D01*
X81026842Y-70373591D01*
X81117798Y-70351236D01*
X81165007Y-70322720D01*
X81140761Y-70295342D01*
X81044629Y-70271572D01*
X80983721Y-70258641D01*
X80904405Y-70219528D01*
X80856418Y-70148457D01*
X80832759Y-70032139D01*
X80828699Y-69919984D01*
X81588429Y-69919984D01*
X81589689Y-70009240D01*
X81599212Y-70091559D01*
X81623794Y-70133381D01*
X81670072Y-70153701D01*
X81767555Y-70170967D01*
X81893824Y-70177587D01*
X82015264Y-70171620D01*
X82109475Y-70154307D01*
X82154057Y-70126889D01*
X82160317Y-70094570D01*
X82164920Y-70001289D01*
X82161990Y-69881961D01*
X82150857Y-69686714D01*
X81988388Y-69675153D01*
X81956413Y-69673405D01*
X81821409Y-69674289D01*
X81707174Y-69685869D01*
X81694183Y-69688323D01*
X81633322Y-69704517D01*
X81601895Y-69735738D01*
X81590174Y-69801166D01*
X81588429Y-69919984D01*
X80828699Y-69919984D01*
X80826429Y-69857279D01*
X80840267Y-69668983D01*
X80887698Y-69530534D01*
X80975213Y-69437766D01*
X81109294Y-69379738D01*
X81138365Y-69374213D01*
X81244992Y-69363958D01*
X81406146Y-69355172D01*
X81609793Y-69348313D01*
X81843898Y-69343837D01*
X82096429Y-69342203D01*
X82949143Y-69342000D01*
X82949143Y-71374000D01*
X82114572Y-71373135D01*
G37*
X82114572Y-71373135D02*
X81823902Y-71371803D01*
X81568215Y-71367356D01*
X81368532Y-71358652D01*
X81216222Y-71344529D01*
X81102654Y-71323825D01*
X81019194Y-71295375D01*
X80957210Y-71258018D01*
X80908072Y-71210591D01*
X80907512Y-71209941D01*
X80865523Y-71150710D01*
X80840909Y-71080524D01*
X80833001Y-71011143D01*
X81585113Y-71011143D01*
X82169000Y-71011143D01*
X82169000Y-70500090D01*
X81606572Y-70521286D01*
X81595842Y-70766215D01*
X81585113Y-71011143D01*
X80833001Y-71011143D01*
X80829325Y-70978888D01*
X80826429Y-70825306D01*
X80829419Y-70677458D01*
X80845155Y-70540180D01*
X80879521Y-70452303D01*
X80938192Y-70401036D01*
X81026842Y-70373591D01*
X81117798Y-70351236D01*
X81165007Y-70322720D01*
X81140761Y-70295342D01*
X81044629Y-70271572D01*
X80983721Y-70258641D01*
X80904405Y-70219528D01*
X80856418Y-70148457D01*
X80832759Y-70032139D01*
X80828699Y-69919984D01*
X81588429Y-69919984D01*
X81589689Y-70009240D01*
X81599212Y-70091559D01*
X81623794Y-70133381D01*
X81670072Y-70153701D01*
X81767555Y-70170967D01*
X81893824Y-70177587D01*
X82015264Y-70171620D01*
X82109475Y-70154307D01*
X82154057Y-70126889D01*
X82160317Y-70094570D01*
X82164920Y-70001289D01*
X82161990Y-69881961D01*
X82150857Y-69686714D01*
X81988388Y-69675153D01*
X81956413Y-69673405D01*
X81821409Y-69674289D01*
X81707174Y-69685869D01*
X81694183Y-69688323D01*
X81633322Y-69704517D01*
X81601895Y-69735738D01*
X81590174Y-69801166D01*
X81588429Y-69919984D01*
X80828699Y-69919984D01*
X80826429Y-69857279D01*
X80840267Y-69668983D01*
X80887698Y-69530534D01*
X80975213Y-69437766D01*
X81109294Y-69379738D01*
X81138365Y-69374213D01*
X81244992Y-69363958D01*
X81406146Y-69355172D01*
X81609793Y-69348313D01*
X81843898Y-69343837D01*
X82096429Y-69342203D01*
X82949143Y-69342000D01*
X82949143Y-71374000D01*
X82114572Y-71373135D01*
X75994807Y-70880105D02*
X75925066Y-70935780D01*
X75925066Y-70935780D02*
X75844815Y-71058824D01*
X75844815Y-71058824D02*
X75825784Y-71191535D01*
X75825784Y-71191535D02*
X75860951Y-71318886D01*
X75860951Y-71318886D02*
X75943295Y-71425848D01*
X75943295Y-71425848D02*
X76065795Y-71497396D01*
X76065795Y-71497396D02*
X76197626Y-71519143D01*
X76197626Y-71519143D02*
X76283445Y-71494998D01*
X76283445Y-71494998D02*
X76378690Y-71435334D01*
X76378690Y-71435334D02*
X76397091Y-71419357D01*
X76397091Y-71419357D02*
X76489900Y-71291997D01*
X76489900Y-71291997D02*
X76519523Y-71151518D01*
X76519523Y-71151518D02*
X76485455Y-71014435D01*
X76485455Y-71014435D02*
X76412416Y-70918696D01*
X76412416Y-70918696D02*
X76281072Y-70841446D01*
X76281072Y-70841446D02*
X76135881Y-70828793D01*
X76135881Y-70828793D02*
X75994807Y-70880105D01*
X75994807Y-70880105D02*
X75994807Y-70880105D01*
G36*
X76281072Y-70841446D02*
G01*
X76412416Y-70918696D01*
X76485455Y-71014435D01*
X76519523Y-71151518D01*
X76489900Y-71291997D01*
X76397091Y-71419357D01*
X76378690Y-71435334D01*
X76283445Y-71494998D01*
X76197626Y-71519143D01*
X76065795Y-71497396D01*
X75943295Y-71425848D01*
X75860951Y-71318886D01*
X75825784Y-71191535D01*
X75844815Y-71058824D01*
X75925066Y-70935780D01*
X75994807Y-70880105D01*
X76135881Y-70828793D01*
X76281072Y-70841446D01*
G37*
X76281072Y-70841446D02*
X76412416Y-70918696D01*
X76485455Y-71014435D01*
X76519523Y-71151518D01*
X76489900Y-71291997D01*
X76397091Y-71419357D01*
X76378690Y-71435334D01*
X76283445Y-71494998D01*
X76197626Y-71519143D01*
X76065795Y-71497396D01*
X75943295Y-71425848D01*
X75860951Y-71318886D01*
X75825784Y-71191535D01*
X75844815Y-71058824D01*
X75925066Y-70935780D01*
X75994807Y-70880105D01*
X76135881Y-70828793D01*
X76281072Y-70841446D01*
M02*
