G04 #@! TF.GenerationSoftware,KiCad,Pcbnew,(5.99.0-12170-ge0011fcd93)*
G04 #@! TF.CreationDate,2021-10-18T14:42:09-07:00*
G04 #@! TF.ProjectId,microbug,6d696372-6f62-4756-972e-6b696361645f,rev?*
G04 #@! TF.SameCoordinates,Original*
G04 #@! TF.FileFunction,Soldermask,Top*
G04 #@! TF.FilePolarity,Negative*
%FSLAX46Y46*%
G04 Gerber Fmt 4.6, Leading zero omitted, Abs format (unit mm)*
G04 Created by KiCad (PCBNEW (5.99.0-12170-ge0011fcd93)) date 2021-10-18 14:42:09*
%MOMM*%
%LPD*%
G01*
G04 APERTURE LIST*
G04 Aperture macros list*
%AMRoundRect*
0 Rectangle with rounded corners*
0 $1 Rounding radius*
0 $2 $3 $4 $5 $6 $7 $8 $9 X,Y pos of 4 corners*
0 Add a 4 corners polygon primitive as box body*
4,1,4,$2,$3,$4,$5,$6,$7,$8,$9,$2,$3,0*
0 Add four circle primitives for the rounded corners*
1,1,$1+$1,$2,$3*
1,1,$1+$1,$4,$5*
1,1,$1+$1,$6,$7*
1,1,$1+$1,$8,$9*
0 Add four rect primitives between the rounded corners*
20,1,$1+$1,$2,$3,$4,$5,0*
20,1,$1+$1,$4,$5,$6,$7,0*
20,1,$1+$1,$6,$7,$8,$9,0*
20,1,$1+$1,$8,$9,$2,$3,0*%
G04 Aperture macros list end*
%ADD10RoundRect,0.237500X-0.237500X0.287500X-0.237500X-0.287500X0.237500X-0.287500X0.237500X0.287500X0*%
%ADD11RoundRect,0.237500X0.371231X-0.035355X-0.035355X0.371231X-0.371231X0.035355X0.035355X-0.371231X0*%
%ADD12RoundRect,0.237500X0.237500X-0.287500X0.237500X0.287500X-0.237500X0.287500X-0.237500X-0.287500X0*%
%ADD13R,1.700000X1.700000*%
%ADD14O,1.700000X1.700000*%
%ADD15RoundRect,0.237500X-0.035355X-0.371231X0.371231X0.035355X0.035355X0.371231X-0.371231X-0.035355X0*%
%ADD16R,2.200000X2.200000*%
%ADD17RoundRect,0.150000X-0.875000X-0.150000X0.875000X-0.150000X0.875000X0.150000X-0.875000X0.150000X0*%
%ADD18RoundRect,0.237500X-0.287500X-0.237500X0.287500X-0.237500X0.287500X0.237500X-0.287500X0.237500X0*%
%ADD19RoundRect,0.237500X0.287500X0.237500X-0.287500X0.237500X-0.287500X-0.237500X0.287500X-0.237500X0*%
%ADD20R,1.800000X1.800000*%
%ADD21C,1.800000*%
%ADD22RoundRect,0.100000X-0.637500X-0.100000X0.637500X-0.100000X0.637500X0.100000X-0.637500X0.100000X0*%
G04 APERTURE END LIST*
D10*
X70649000Y-41754001D03*
X70649000Y-43504001D03*
D11*
X85381000Y-43631000D03*
X84143564Y-42393564D03*
D10*
X77253000Y-41754000D03*
X77253000Y-43504000D03*
D12*
X73951000Y-46904999D03*
X73951000Y-45154999D03*
D13*
X87259000Y-51839000D03*
D14*
X87259000Y-54379000D03*
X87259000Y-56919000D03*
D15*
X63188564Y-43852436D03*
X64426000Y-42615000D03*
D10*
X79502000Y-68227000D03*
X79502000Y-69977000D03*
X77851000Y-68227000D03*
X77851000Y-69977000D03*
D16*
X65278000Y-66091000D03*
X65278000Y-69291000D03*
X83185000Y-69291000D03*
X83185000Y-66091000D03*
D17*
X69428000Y-51625000D03*
X69428000Y-52895000D03*
X69428000Y-54165000D03*
X69428000Y-55435000D03*
X69428000Y-56705000D03*
X69428000Y-57975000D03*
X69428000Y-59245000D03*
X69428000Y-60515000D03*
X69428000Y-61785000D03*
X69428000Y-63055000D03*
X78728000Y-63055000D03*
X78728000Y-61785000D03*
X78728000Y-60515000D03*
X78728000Y-59245000D03*
X78728000Y-57975000D03*
X78728000Y-56705000D03*
X78728000Y-55435000D03*
X78728000Y-54165000D03*
X78728000Y-52895000D03*
X78728000Y-51625000D03*
D18*
X68594000Y-65659000D03*
X70344000Y-65659000D03*
D19*
X70875000Y-49476000D03*
X69125000Y-49476000D03*
X78091000Y-65532000D03*
X76341000Y-65532000D03*
D13*
X65786000Y-48006000D03*
D14*
X65786000Y-50546000D03*
D20*
X61087000Y-72644000D03*
D21*
X63627000Y-72644000D03*
D20*
X87249000Y-72644000D03*
D21*
X84709000Y-72644000D03*
D22*
X69781500Y-67829000D03*
X69781500Y-68479000D03*
X69781500Y-69129000D03*
X69781500Y-69779000D03*
X69781500Y-70429000D03*
X69781500Y-71079000D03*
X69781500Y-71729000D03*
X69781500Y-72379000D03*
X75506500Y-72379000D03*
X75506500Y-71729000D03*
X75506500Y-71079000D03*
X75506500Y-70429000D03*
X75506500Y-69779000D03*
X75506500Y-69129000D03*
X75506500Y-68479000D03*
X75506500Y-67829000D03*
D13*
X84069000Y-48158400D03*
D14*
X86609000Y-48158400D03*
D10*
X81400000Y-54925000D03*
X81400000Y-56675000D03*
D18*
X71134000Y-74117200D03*
X72884000Y-74117200D03*
D19*
X76287600Y-74117200D03*
X74537600Y-74117200D03*
D13*
X61200000Y-56800000D03*
D14*
X61200000Y-54260000D03*
X61200000Y-51720000D03*
X61200000Y-49180000D03*
D20*
X73951000Y-40456000D03*
D21*
X73951000Y-42996000D03*
M02*
