G04 #@! TF.GenerationSoftware,KiCad,Pcbnew,(5.99.0-12170-ge0011fcd93)*
G04 #@! TF.CreationDate,2021-10-18T14:42:09-07:00*
G04 #@! TF.ProjectId,microbug,6d696372-6f62-4756-972e-6b696361645f,rev?*
G04 #@! TF.SameCoordinates,Original*
G04 #@! TF.FileFunction,Copper,L2,Bot*
G04 #@! TF.FilePolarity,Positive*
%FSLAX46Y46*%
G04 Gerber Fmt 4.6, Leading zero omitted, Abs format (unit mm)*
G04 Created by KiCad (PCBNEW (5.99.0-12170-ge0011fcd93)) date 2021-10-18 14:42:09*
%MOMM*%
%LPD*%
G01*
G04 APERTURE LIST*
G04 Aperture macros list*
%AMRoundRect*
0 Rectangle with rounded corners*
0 $1 Rounding radius*
0 $2 $3 $4 $5 $6 $7 $8 $9 X,Y pos of 4 corners*
0 Add a 4 corners polygon primitive as box body*
4,1,4,$2,$3,$4,$5,$6,$7,$8,$9,$2,$3,0*
0 Add four circle primitives for the rounded corners*
1,1,$1+$1,$2,$3*
1,1,$1+$1,$4,$5*
1,1,$1+$1,$6,$7*
1,1,$1+$1,$8,$9*
0 Add four rect primitives between the rounded corners*
20,1,$1+$1,$2,$3,$4,$5,0*
20,1,$1+$1,$4,$5,$6,$7,0*
20,1,$1+$1,$6,$7,$8,$9,0*
20,1,$1+$1,$8,$9,$2,$3,0*%
G04 Aperture macros list end*
G04 #@! TA.AperFunction,ComponentPad*
%ADD10R,1.700000X1.700000*%
G04 #@! TD*
G04 #@! TA.AperFunction,ComponentPad*
%ADD11O,1.700000X1.700000*%
G04 #@! TD*
G04 #@! TA.AperFunction,ComponentPad*
%ADD12R,1.800000X1.800000*%
G04 #@! TD*
G04 #@! TA.AperFunction,ComponentPad*
%ADD13C,1.800000*%
G04 #@! TD*
G04 #@! TA.AperFunction,SMDPad,CuDef*
%ADD14RoundRect,0.197500X0.197500X0.632500X-0.197500X0.632500X-0.197500X-0.632500X0.197500X-0.632500X0*%
G04 #@! TD*
G04 #@! TA.AperFunction,SMDPad,CuDef*
%ADD15R,6.096000X6.096000*%
G04 #@! TD*
G04 #@! TA.AperFunction,ViaPad*
%ADD16C,0.800000*%
G04 #@! TD*
G04 #@! TA.AperFunction,Conductor*
%ADD17C,0.152400*%
G04 #@! TD*
G04 #@! TA.AperFunction,Conductor*
%ADD18C,0.635000*%
G04 #@! TD*
G04 #@! TA.AperFunction,Conductor*
%ADD19C,0.203200*%
G04 #@! TD*
G04 #@! TA.AperFunction,Conductor*
%ADD20C,0.381000*%
G04 #@! TD*
G04 #@! TA.AperFunction,Conductor*
%ADD21C,0.254000*%
G04 #@! TD*
G04 #@! TA.AperFunction,Conductor*
%ADD22C,0.508000*%
G04 #@! TD*
G04 APERTURE END LIST*
D10*
X87259000Y-51839000D03*
D11*
X87259000Y-54379000D03*
X87259000Y-56919000D03*
D10*
X65786000Y-48006000D03*
D11*
X65786000Y-50546000D03*
D12*
X61087000Y-72644000D03*
D13*
X63627000Y-72644000D03*
D12*
X87249000Y-72644000D03*
D13*
X84709000Y-72644000D03*
D10*
X84069000Y-48158400D03*
D11*
X86609000Y-48158400D03*
D10*
X61200000Y-56800000D03*
D11*
X61200000Y-54260000D03*
X61200000Y-51720000D03*
X61200000Y-49180000D03*
D12*
X73951000Y-40456000D03*
D13*
X73951000Y-42996000D03*
D14*
X68500000Y-40600000D03*
X68500000Y-44600000D03*
X66700000Y-44600000D03*
X66700000Y-40600000D03*
D15*
X61860989Y-61864011D03*
X86498989Y-61864011D03*
X74179989Y-61864011D03*
D14*
X81500000Y-40800000D03*
X81500000Y-44800000D03*
X79700000Y-44800000D03*
X79700000Y-40800000D03*
D16*
X73914000Y-71475600D03*
X72034400Y-71323200D03*
X72745600Y-72186800D03*
X73812400Y-69342000D03*
X72898000Y-68529200D03*
X74700000Y-53225000D03*
X72644000Y-60325000D03*
X78740000Y-50165000D03*
X76200000Y-44831000D03*
X79908400Y-73964800D03*
X72263000Y-46609000D03*
X71882000Y-69215000D03*
X66550000Y-62600000D03*
X83947000Y-58039000D03*
X82600000Y-59050000D03*
X70866000Y-47752000D03*
X70358000Y-66802000D03*
X74905000Y-56705000D03*
X66600000Y-42200000D03*
X64200000Y-46000000D03*
X67362271Y-43004929D03*
X82600000Y-40800000D03*
X78269000Y-44669000D03*
X73025000Y-66167000D03*
X80925000Y-58750000D03*
X76708000Y-66896405D03*
X80600000Y-53600000D03*
X81661000Y-51943000D03*
D17*
X73812400Y-70205600D02*
X73812400Y-69342000D01*
X72745600Y-72186800D02*
X72745600Y-71272400D01*
X72745600Y-71272400D02*
X73812400Y-70205600D01*
X72898000Y-70459600D02*
X72034400Y-71323200D01*
X72898000Y-68529200D02*
X72898000Y-70459600D01*
D18*
X87259000Y-48905000D02*
X87259000Y-51839000D01*
X86614000Y-48260000D02*
X87259000Y-48905000D01*
X86609000Y-48260000D02*
X86614000Y-48260000D01*
D17*
X79569000Y-44669000D02*
X78269000Y-44669000D01*
X79700000Y-44800000D02*
X79569000Y-44669000D01*
X82600000Y-40800000D02*
X81500000Y-40800000D01*
D19*
X79775000Y-63989000D02*
X78064000Y-65700000D01*
X78064000Y-65700000D02*
X73492000Y-65700000D01*
X80925000Y-58750000D02*
X79775000Y-59900000D01*
X79775000Y-59900000D02*
X79775000Y-63989000D01*
X73492000Y-65700000D02*
X73025000Y-66167000D01*
D20*
X82600000Y-58025000D02*
X86246000Y-54379000D01*
X71247000Y-48133000D02*
X70866000Y-47752000D01*
X82600000Y-59050000D02*
X82600000Y-58025000D01*
X86246000Y-54379000D02*
X87259000Y-54379000D01*
X87259000Y-54379000D02*
X81013000Y-48133000D01*
X81013000Y-48133000D02*
X71247000Y-48133000D01*
D21*
X68199000Y-72644000D02*
X70358000Y-70485000D01*
X63627000Y-72644000D02*
X68199000Y-72644000D01*
X70358000Y-70485000D02*
X70358000Y-66802000D01*
D22*
X74810000Y-56800000D02*
X74905000Y-56705000D01*
X61200000Y-56800000D02*
X74810000Y-56800000D01*
D19*
X66600000Y-42200000D02*
X66900000Y-42200000D01*
X66900000Y-42200000D02*
X68500000Y-40600000D01*
X66700000Y-43667200D02*
X67362271Y-43004929D01*
X64200000Y-46000000D02*
X65300000Y-46000000D01*
X66700000Y-44600000D02*
X66700000Y-43667200D01*
X65300000Y-46000000D02*
X66700000Y-44600000D01*
D21*
X76708000Y-66896405D02*
X76708000Y-68580000D01*
X76708000Y-68580000D02*
X80772000Y-72644000D01*
X80772000Y-72644000D02*
X84709000Y-72644000D01*
D22*
X61339911Y-54399911D02*
X61200000Y-54260000D01*
X79800089Y-54399911D02*
X61339911Y-54399911D01*
X80600000Y-53600000D02*
X79800089Y-54399911D01*
X81534000Y-52070000D02*
X61550000Y-52070000D01*
X81661000Y-51943000D02*
X81534000Y-52070000D01*
X61550000Y-52070000D02*
X61200000Y-51720000D01*
D18*
X87653000Y-51839000D02*
X89154000Y-53340000D01*
X89154000Y-53340000D02*
X89154000Y-59209000D01*
X87259000Y-51839000D02*
X87653000Y-51839000D01*
X89154000Y-59209000D02*
X86499000Y-61864000D01*
G04 #@! TA.AperFunction,Conductor*
G36*
X75004725Y-37199864D02*
G01*
X75011093Y-37200187D01*
X75555795Y-37241606D01*
X75796844Y-37259936D01*
X75803156Y-37260576D01*
X76066691Y-37294063D01*
X76577363Y-37358955D01*
X76583631Y-37359912D01*
X77101961Y-37452476D01*
X77345346Y-37495940D01*
X77351512Y-37497201D01*
X78099860Y-37669918D01*
X78105933Y-37671481D01*
X78279123Y-37720661D01*
X78839853Y-37879892D01*
X78845819Y-37881747D01*
X79564455Y-38124907D01*
X79570287Y-38127042D01*
X80272652Y-38403975D01*
X80278341Y-38406381D01*
X80963482Y-38716128D01*
X80969006Y-38718789D01*
X81635954Y-39060379D01*
X81641322Y-39063295D01*
X82289118Y-39435770D01*
X82294315Y-39438927D01*
X82921976Y-39841313D01*
X82926993Y-39844703D01*
X83275182Y-40092305D01*
X83473789Y-40233537D01*
X83533537Y-40276025D01*
X83538361Y-40279632D01*
X83805799Y-40489796D01*
X84122810Y-40738917D01*
X84127449Y-40742745D01*
X84175409Y-40784289D01*
X84688848Y-41229041D01*
X84693297Y-41233085D01*
X85230624Y-41745378D01*
X85234873Y-41749626D01*
X85747178Y-42286966D01*
X85751221Y-42291415D01*
X86221613Y-42834453D01*
X86237506Y-42852801D01*
X86241318Y-42857419D01*
X86700652Y-43441930D01*
X86704233Y-43446719D01*
X86828222Y-43621078D01*
X87135548Y-44053255D01*
X87138938Y-44058272D01*
X87541329Y-44685940D01*
X87544486Y-44691137D01*
X87916963Y-45338936D01*
X87919879Y-45344304D01*
X88261478Y-46011270D01*
X88264141Y-46016798D01*
X88573885Y-46701936D01*
X88576278Y-46707595D01*
X88848935Y-47399110D01*
X88853223Y-47409986D01*
X88855356Y-47415812D01*
X89098515Y-48134450D01*
X89100367Y-48140406D01*
X89286117Y-48794525D01*
X89308778Y-48874325D01*
X89310342Y-48880402D01*
X89471603Y-49579115D01*
X89483054Y-49628732D01*
X89484317Y-49634907D01*
X89511426Y-49786710D01*
X89620347Y-50396633D01*
X89621304Y-50402901D01*
X89686172Y-50913387D01*
X89716207Y-51149747D01*
X89719681Y-51177088D01*
X89720322Y-51183407D01*
X89735317Y-51380600D01*
X89780071Y-51969158D01*
X89780394Y-51975527D01*
X89800664Y-52777115D01*
X89800704Y-52780300D01*
X89800704Y-52831895D01*
X89780702Y-52900016D01*
X89727046Y-52946509D01*
X89656772Y-52956613D01*
X89592192Y-52927119D01*
X89585611Y-52920993D01*
X89585097Y-52920479D01*
X89580071Y-52913929D01*
X89555289Y-52894913D01*
X89542898Y-52884046D01*
X88425804Y-51766953D01*
X88391779Y-51704641D01*
X88388899Y-51677858D01*
X88388899Y-50947418D01*
X88385996Y-50923010D01*
X88343668Y-50827717D01*
X88269873Y-50754051D01*
X88174506Y-50711889D01*
X88150583Y-50709100D01*
X87982400Y-50709100D01*
X87914279Y-50689098D01*
X87867786Y-50635442D01*
X87856400Y-50583100D01*
X87856400Y-48952420D01*
X87857478Y-48935972D01*
X87860478Y-48913187D01*
X87861556Y-48905000D01*
X87841023Y-48749047D01*
X87780828Y-48603723D01*
X87731875Y-48539925D01*
X87706276Y-48473707D01*
X87709321Y-48433806D01*
X87710528Y-48428779D01*
X87712388Y-48423300D01*
X87717003Y-48391475D01*
X87732175Y-48286829D01*
X87742186Y-48217788D01*
X87743741Y-48158400D01*
X87724740Y-47951610D01*
X87689029Y-47824989D01*
X87669940Y-47757304D01*
X87669939Y-47757302D01*
X87668372Y-47751745D01*
X87661248Y-47737297D01*
X87579081Y-47570680D01*
X87576526Y-47565499D01*
X87452277Y-47399110D01*
X87314185Y-47271458D01*
X87304032Y-47262073D01*
X87299787Y-47258149D01*
X87294904Y-47255068D01*
X87294900Y-47255065D01*
X87129045Y-47150419D01*
X87124162Y-47147338D01*
X86931284Y-47070388D01*
X86727613Y-47029875D01*
X86721838Y-47029799D01*
X86721834Y-47029799D01*
X86618045Y-47028441D01*
X86519969Y-47027157D01*
X86514272Y-47028136D01*
X86514271Y-47028136D01*
X86321004Y-47061345D01*
X86321003Y-47061345D01*
X86315307Y-47062324D01*
X86120481Y-47134199D01*
X86115520Y-47137151D01*
X86115519Y-47137151D01*
X85946984Y-47237419D01*
X85946981Y-47237421D01*
X85942016Y-47240375D01*
X85937676Y-47244181D01*
X85937672Y-47244184D01*
X85881192Y-47293716D01*
X85785888Y-47377296D01*
X85657326Y-47540376D01*
X85654637Y-47545487D01*
X85654635Y-47545490D01*
X85644108Y-47565499D01*
X85560636Y-47724153D01*
X85499056Y-47922474D01*
X85474648Y-48128696D01*
X85488230Y-48335913D01*
X85539346Y-48537184D01*
X85626285Y-48725770D01*
X85746136Y-48895355D01*
X85894884Y-49040259D01*
X86067548Y-49155630D01*
X86072851Y-49157908D01*
X86072854Y-49157910D01*
X86215160Y-49219049D01*
X86258346Y-49237603D01*
X86308060Y-49248852D01*
X86455250Y-49282158D01*
X86455255Y-49282159D01*
X86460887Y-49283433D01*
X86466658Y-49283660D01*
X86466660Y-49283660D01*
X86540547Y-49286563D01*
X86607830Y-49309224D01*
X86652180Y-49364664D01*
X86661600Y-49412466D01*
X86661600Y-50583101D01*
X86641598Y-50651222D01*
X86587942Y-50697715D01*
X86535600Y-50709101D01*
X86367418Y-50709101D01*
X86363721Y-50709541D01*
X86363716Y-50709541D01*
X86357927Y-50710230D01*
X86343010Y-50712004D01*
X86247717Y-50754332D01*
X86174051Y-50828127D01*
X86131889Y-50923494D01*
X86129100Y-50947417D01*
X86129101Y-51730048D01*
X86129101Y-52279665D01*
X86109099Y-52347786D01*
X86055443Y-52394279D01*
X85985169Y-52404383D01*
X85920589Y-52374890D01*
X85914006Y-52368760D01*
X83005134Y-49459888D01*
X82971108Y-49397576D01*
X82976173Y-49326761D01*
X83018720Y-49269925D01*
X83085240Y-49245114D01*
X83119303Y-49250634D01*
X83119894Y-49247663D01*
X83187915Y-49261193D01*
X83200170Y-49262400D01*
X83669885Y-49262400D01*
X83685124Y-49257925D01*
X83686329Y-49256535D01*
X83688000Y-49248852D01*
X83688000Y-48557515D01*
X83686659Y-48552948D01*
X84450000Y-48552948D01*
X84450000Y-49244284D01*
X84454475Y-49259523D01*
X84455865Y-49260728D01*
X84463548Y-49262399D01*
X84937828Y-49262399D01*
X84950088Y-49261191D01*
X85005931Y-49250085D01*
X85028427Y-49240767D01*
X85091808Y-49198417D01*
X85109017Y-49181208D01*
X85151368Y-49117825D01*
X85160684Y-49095334D01*
X85171793Y-49039485D01*
X85173000Y-49027230D01*
X85173000Y-48557515D01*
X85168525Y-48542276D01*
X85167135Y-48541071D01*
X85159452Y-48539400D01*
X84468115Y-48539400D01*
X84452876Y-48543875D01*
X84451671Y-48545265D01*
X84450000Y-48552948D01*
X83686659Y-48552948D01*
X83683525Y-48542276D01*
X83682135Y-48541071D01*
X83674452Y-48539400D01*
X82983116Y-48539400D01*
X82967877Y-48543875D01*
X82966672Y-48545265D01*
X82965001Y-48552948D01*
X82965001Y-49027228D01*
X82966209Y-49039488D01*
X82979737Y-49107506D01*
X82975534Y-49108342D01*
X82980602Y-49155568D01*
X82948810Y-49219049D01*
X82887745Y-49255264D01*
X82816794Y-49252716D01*
X82767513Y-49222267D01*
X81392863Y-47847617D01*
X81385989Y-47839016D01*
X81385519Y-47839416D01*
X81379700Y-47832579D01*
X81374911Y-47824989D01*
X81337805Y-47792218D01*
X81332118Y-47786872D01*
X81321740Y-47776494D01*
X81315123Y-47771535D01*
X81314307Y-47770923D01*
X81306467Y-47764541D01*
X81280644Y-47741735D01*
X81273916Y-47735793D01*
X81265791Y-47731978D01*
X81260053Y-47728209D01*
X81254440Y-47724837D01*
X81248406Y-47721533D01*
X81241220Y-47716148D01*
X81200571Y-47700909D01*
X81191254Y-47696983D01*
X81160075Y-47682345D01*
X81160072Y-47682344D01*
X81151946Y-47678529D01*
X81143073Y-47677148D01*
X81136473Y-47675130D01*
X81130183Y-47673480D01*
X81123458Y-47672001D01*
X81115050Y-47668849D01*
X81087722Y-47666818D01*
X81071757Y-47665632D01*
X81061708Y-47664478D01*
X81057809Y-47663871D01*
X81049646Y-47662600D01*
X81035635Y-47662600D01*
X81026298Y-47662254D01*
X81014105Y-47661348D01*
X80980677Y-47658864D01*
X80971902Y-47660737D01*
X80962943Y-47661348D01*
X80962934Y-47661222D01*
X80949875Y-47662600D01*
X71646159Y-47662600D01*
X71578038Y-47642598D01*
X71531545Y-47588942D01*
X71528293Y-47581138D01*
X71475640Y-47441794D01*
X71472956Y-47434691D01*
X71379747Y-47299071D01*
X71373737Y-47293716D01*
X71369084Y-47289570D01*
X82965000Y-47289570D01*
X82965000Y-47759285D01*
X82969475Y-47774524D01*
X82970865Y-47775729D01*
X82978548Y-47777400D01*
X83669885Y-47777400D01*
X83685124Y-47772925D01*
X83686329Y-47771535D01*
X83688000Y-47763852D01*
X83688000Y-47072516D01*
X83686659Y-47067948D01*
X84450000Y-47067948D01*
X84450000Y-47759285D01*
X84454475Y-47774524D01*
X84455865Y-47775729D01*
X84463548Y-47777400D01*
X85154884Y-47777400D01*
X85170123Y-47772925D01*
X85171328Y-47771535D01*
X85172999Y-47763852D01*
X85172999Y-47289572D01*
X85171791Y-47277312D01*
X85160685Y-47221469D01*
X85151367Y-47198973D01*
X85109017Y-47135592D01*
X85091808Y-47118383D01*
X85028425Y-47076032D01*
X85005934Y-47066716D01*
X84950085Y-47055607D01*
X84937830Y-47054400D01*
X84468115Y-47054400D01*
X84452876Y-47058875D01*
X84451671Y-47060265D01*
X84450000Y-47067948D01*
X83686659Y-47067948D01*
X83683525Y-47057277D01*
X83682135Y-47056072D01*
X83674452Y-47054401D01*
X83200172Y-47054401D01*
X83187912Y-47055609D01*
X83132069Y-47066715D01*
X83109573Y-47076033D01*
X83046192Y-47118383D01*
X83028983Y-47135592D01*
X82986632Y-47198975D01*
X82977316Y-47221466D01*
X82966207Y-47277315D01*
X82965000Y-47289570D01*
X71369084Y-47289570D01*
X71262550Y-47194653D01*
X71262547Y-47194651D01*
X71256878Y-47189600D01*
X71152245Y-47134199D01*
X71118159Y-47116151D01*
X71118156Y-47116150D01*
X71111444Y-47112596D01*
X71104078Y-47110746D01*
X71104076Y-47110745D01*
X70959211Y-47074358D01*
X70959208Y-47074358D01*
X70951840Y-47072507D01*
X70944241Y-47072467D01*
X70944239Y-47072467D01*
X70876312Y-47072111D01*
X70787280Y-47071645D01*
X70779900Y-47073417D01*
X70779898Y-47073417D01*
X70634644Y-47108289D01*
X70634640Y-47108290D01*
X70627265Y-47110061D01*
X70481032Y-47185537D01*
X70357025Y-47293716D01*
X70262401Y-47428353D01*
X70259642Y-47435428D01*
X70259641Y-47435431D01*
X70216731Y-47545490D01*
X70202623Y-47581674D01*
X70201631Y-47589207D01*
X70201631Y-47589208D01*
X70183332Y-47728209D01*
X70181144Y-47744828D01*
X70199202Y-47908396D01*
X70201812Y-47915528D01*
X70231428Y-47996457D01*
X70255755Y-48062935D01*
X70259991Y-48069238D01*
X70259991Y-48069239D01*
X70343305Y-48193224D01*
X70343308Y-48193227D01*
X70347539Y-48199524D01*
X70469254Y-48310276D01*
X70613874Y-48388798D01*
X70773049Y-48430557D01*
X70828526Y-48431428D01*
X70896322Y-48452497D01*
X70909954Y-48462971D01*
X70922195Y-48473782D01*
X70927882Y-48479128D01*
X70938259Y-48489505D01*
X70945693Y-48495076D01*
X70953528Y-48501455D01*
X70979356Y-48524266D01*
X70979361Y-48524269D01*
X70986084Y-48530207D01*
X70994208Y-48534021D01*
X70999955Y-48537796D01*
X71005559Y-48541163D01*
X71011598Y-48544469D01*
X71018780Y-48549852D01*
X71059438Y-48565094D01*
X71068744Y-48569015D01*
X71108054Y-48587471D01*
X71116927Y-48588852D01*
X71123526Y-48590870D01*
X71129816Y-48592520D01*
X71136541Y-48593999D01*
X71144949Y-48597151D01*
X71171851Y-48599150D01*
X71188243Y-48600368D01*
X71198292Y-48601522D01*
X71202191Y-48602129D01*
X71210354Y-48603400D01*
X71224364Y-48603400D01*
X71233702Y-48603746D01*
X71279323Y-48607136D01*
X71288098Y-48605263D01*
X71297057Y-48604652D01*
X71297066Y-48604778D01*
X71310125Y-48603400D01*
X80765964Y-48603400D01*
X80834085Y-48623402D01*
X80855059Y-48640305D01*
X86004145Y-53789391D01*
X86038171Y-53851703D01*
X86033106Y-53922518D01*
X85991686Y-53977848D01*
X85989956Y-53978635D01*
X85983229Y-53984431D01*
X85983228Y-53984432D01*
X85957063Y-54006977D01*
X85949146Y-54013263D01*
X85943221Y-54017592D01*
X85939290Y-54020464D01*
X85929388Y-54030366D01*
X85922541Y-54036724D01*
X85894679Y-54060731D01*
X85894677Y-54060734D01*
X85887879Y-54066591D01*
X85882997Y-54074123D01*
X85877096Y-54080888D01*
X85877000Y-54080805D01*
X85868739Y-54091015D01*
X82314617Y-57645137D01*
X82306016Y-57652011D01*
X82306416Y-57652481D01*
X82299579Y-57658300D01*
X82291989Y-57663089D01*
X82270059Y-57687920D01*
X82259218Y-57700195D01*
X82253872Y-57705882D01*
X82243494Y-57716260D01*
X82240801Y-57719854D01*
X82237923Y-57723693D01*
X82231541Y-57731533D01*
X82202793Y-57764084D01*
X82198978Y-57772209D01*
X82195209Y-57777947D01*
X82191837Y-57783560D01*
X82188533Y-57789594D01*
X82183148Y-57796780D01*
X82179997Y-57805185D01*
X82167909Y-57837429D01*
X82163983Y-57846746D01*
X82149345Y-57877925D01*
X82145529Y-57886054D01*
X82144148Y-57894927D01*
X82142130Y-57901527D01*
X82140480Y-57907817D01*
X82139001Y-57914542D01*
X82135849Y-57922950D01*
X82135184Y-57931901D01*
X82132632Y-57966243D01*
X82131478Y-57976292D01*
X82129600Y-57988354D01*
X82129600Y-58002365D01*
X82129254Y-58011702D01*
X82125864Y-58057323D01*
X82127737Y-58066098D01*
X82128348Y-58075057D01*
X82128222Y-58075066D01*
X82129600Y-58088125D01*
X82129600Y-58501871D01*
X82109598Y-58569992D01*
X82097238Y-58586180D01*
X82096751Y-58586721D01*
X82091025Y-58591716D01*
X81996401Y-58726353D01*
X81993642Y-58733428D01*
X81993641Y-58733431D01*
X81976204Y-58778155D01*
X81936623Y-58879674D01*
X81935631Y-58887207D01*
X81935631Y-58887208D01*
X81931349Y-58919738D01*
X81915144Y-59042828D01*
X81933202Y-59206396D01*
X81989755Y-59360935D01*
X81993991Y-59367238D01*
X81993991Y-59367239D01*
X82077305Y-59491224D01*
X82077308Y-59491227D01*
X82081539Y-59497524D01*
X82087153Y-59502632D01*
X82195744Y-59601442D01*
X82203254Y-59608276D01*
X82209929Y-59611900D01*
X82318522Y-59670861D01*
X82347874Y-59686798D01*
X82507049Y-59728557D01*
X82592389Y-59729898D01*
X82663993Y-59731023D01*
X82663996Y-59731023D01*
X82671591Y-59731142D01*
X82678996Y-59729446D01*
X82678997Y-59729446D01*
X82783582Y-59705493D01*
X82832000Y-59694404D01*
X82906598Y-59656885D01*
X82972230Y-59623876D01*
X82972233Y-59623874D01*
X82979015Y-59620463D01*
X82979101Y-59620634D01*
X83043172Y-59600758D01*
X83111589Y-59619721D01*
X83158893Y-59672663D01*
X83171089Y-59726743D01*
X83171090Y-63778788D01*
X83171090Y-64953593D01*
X83173993Y-64978001D01*
X83216321Y-65073294D01*
X83224556Y-65081515D01*
X83224557Y-65081516D01*
X83253079Y-65109988D01*
X83290116Y-65146960D01*
X83385483Y-65189122D01*
X83409406Y-65191911D01*
X86353331Y-65191911D01*
X86421452Y-65211913D01*
X86467945Y-65265569D01*
X86478049Y-65335843D01*
X86448555Y-65400423D01*
X86393960Y-65437180D01*
X86238907Y-65489996D01*
X86224710Y-65493586D01*
X86219056Y-65493734D01*
X86213461Y-65495514D01*
X86210629Y-65496731D01*
X86210628Y-65496731D01*
X86182547Y-65508794D01*
X86173445Y-65512294D01*
X86169187Y-65513744D01*
X86169180Y-65513747D01*
X86163693Y-65515616D01*
X86158639Y-65518459D01*
X86156733Y-65519311D01*
X86147905Y-65523675D01*
X85954657Y-65606690D01*
X85940546Y-65611472D01*
X85934498Y-65612120D01*
X85929064Y-65614345D01*
X85899872Y-65629781D01*
X85890722Y-65634156D01*
X85881871Y-65637958D01*
X85877052Y-65641184D01*
X85876097Y-65641703D01*
X85866559Y-65647396D01*
X85687281Y-65742191D01*
X85673283Y-65748266D01*
X85666768Y-65749530D01*
X85661542Y-65752207D01*
X85658960Y-65753867D01*
X85658945Y-65753875D01*
X85634472Y-65769603D01*
X85625253Y-65774990D01*
X85617492Y-65779094D01*
X85612948Y-65782698D01*
X85612942Y-65782702D01*
X85612941Y-65782703D01*
X85602767Y-65789980D01*
X85438335Y-65895655D01*
X85424497Y-65903159D01*
X85417463Y-65905193D01*
X85412499Y-65908329D01*
X85410074Y-65910216D01*
X85410065Y-65910222D01*
X85387940Y-65927436D01*
X85378696Y-65933982D01*
X85377081Y-65935020D01*
X85377073Y-65935027D01*
X85372186Y-65938167D01*
X85367177Y-65942884D01*
X85358183Y-65950588D01*
X85252637Y-66032703D01*
X85209483Y-66066277D01*
X85195837Y-66075414D01*
X85188276Y-66078415D01*
X85183636Y-66082014D01*
X85161941Y-66102529D01*
X85152756Y-66110412D01*
X85147657Y-66114379D01*
X85143803Y-66118725D01*
X85143801Y-66118727D01*
X85142233Y-66120495D01*
X85134534Y-66128444D01*
X85002456Y-66253338D01*
X84989336Y-66264165D01*
X84988932Y-66264455D01*
X84981042Y-66268576D01*
X84976799Y-66272636D01*
X84974800Y-66274963D01*
X84974795Y-66274968D01*
X84958320Y-66294144D01*
X84950634Y-66302205D01*
X84949923Y-66303013D01*
X84945707Y-66307000D01*
X84942291Y-66311693D01*
X84942289Y-66311695D01*
X84939994Y-66314847D01*
X84933699Y-66322800D01*
X84819155Y-66456122D01*
X84807993Y-66467559D01*
X84805189Y-66470089D01*
X84797824Y-66475054D01*
X84794060Y-66479561D01*
X84792328Y-66482104D01*
X84792326Y-66482106D01*
X84779033Y-66501619D01*
X84774331Y-66507754D01*
X84772101Y-66510893D01*
X84768311Y-66515304D01*
X84762581Y-66525182D01*
X84757738Y-66532876D01*
X84661648Y-66673920D01*
X84652554Y-66685706D01*
X84647661Y-66691326D01*
X84640936Y-66697148D01*
X84637741Y-66702074D01*
X84636330Y-66704800D01*
X84636323Y-66704812D01*
X84626283Y-66724210D01*
X84623661Y-66728605D01*
X84623723Y-66728639D01*
X84620906Y-66733723D01*
X84617641Y-66738516D01*
X84615308Y-66743828D01*
X84615307Y-66743829D01*
X84612315Y-66750640D01*
X84608854Y-66757883D01*
X84531602Y-66907133D01*
X84523157Y-66919395D01*
X84523856Y-66919860D01*
X84518928Y-66927260D01*
X84513007Y-66933898D01*
X84510471Y-66939195D01*
X84509418Y-66942090D01*
X84509417Y-66942093D01*
X84502397Y-66961398D01*
X84500736Y-66965719D01*
X84498773Y-66970556D01*
X84496103Y-66975715D01*
X84494422Y-66981278D01*
X84494421Y-66981280D01*
X84491756Y-66990099D01*
X84489558Y-66996708D01*
X84432188Y-67154477D01*
X84425179Y-67168260D01*
X84425713Y-67168519D01*
X84421834Y-67176524D01*
X84416868Y-67183906D01*
X84415075Y-67189498D01*
X84414427Y-67192498D01*
X84414424Y-67192511D01*
X84409765Y-67214100D01*
X84408473Y-67219507D01*
X84408297Y-67220179D01*
X84406311Y-67225640D01*
X84403582Y-67242068D01*
X84402459Y-67247949D01*
X84368187Y-67406741D01*
X84366716Y-67413556D01*
X84361549Y-67428552D01*
X84361959Y-67428683D01*
X84359243Y-67437163D01*
X84355367Y-67445169D01*
X84354380Y-67450958D01*
X84354161Y-67454021D01*
X84354161Y-67454023D01*
X84352549Y-67476594D01*
X84352098Y-67481281D01*
X84350959Y-67486557D01*
X84350794Y-67492352D01*
X84350454Y-67504300D01*
X84350185Y-67509683D01*
X84346612Y-67559727D01*
X84337883Y-67681947D01*
X84334869Y-67697632D01*
X84335252Y-67697697D01*
X84333770Y-67706470D01*
X84331071Y-67714945D01*
X84330916Y-67720815D01*
X84332756Y-67746586D01*
X84332956Y-67750926D01*
X84332582Y-67756169D01*
X84333235Y-67761931D01*
X84333235Y-67761933D01*
X84334612Y-67774080D01*
X84335093Y-67779293D01*
X84347394Y-67951538D01*
X84346635Y-67967387D01*
X84347065Y-67967398D01*
X84346833Y-67976291D01*
X84345354Y-67985060D01*
X84346027Y-67990894D01*
X84346678Y-67993909D01*
X84351454Y-68016039D01*
X84352329Y-68020640D01*
X84352714Y-68026027D01*
X84354181Y-68031644D01*
X84357198Y-68043199D01*
X84358449Y-68048449D01*
X84394168Y-68213941D01*
X84395572Y-68229349D01*
X84396162Y-68229284D01*
X84397138Y-68238116D01*
X84396864Y-68247005D01*
X84398322Y-68252693D01*
X84406941Y-68276393D01*
X84408720Y-68281644D01*
X84408917Y-68282270D01*
X84410143Y-68287953D01*
X84412387Y-68293310D01*
X84416565Y-68303284D01*
X84418763Y-68308907D01*
X84476091Y-68466561D01*
X84479391Y-68481078D01*
X84480203Y-68480880D01*
X84482308Y-68489521D01*
X84483179Y-68498372D01*
X84485357Y-68503826D01*
X84486777Y-68506569D01*
X84496220Y-68524814D01*
X84498273Y-68528966D01*
X84500501Y-68533689D01*
X84502483Y-68539138D01*
X84505432Y-68544138D01*
X84505433Y-68544140D01*
X84510119Y-68552086D01*
X84513490Y-68558179D01*
X84591061Y-68708044D01*
X84597115Y-68721655D01*
X84599736Y-68728632D01*
X84601663Y-68737314D01*
X84604479Y-68742466D01*
X84617641Y-68761786D01*
X84618514Y-68763067D01*
X84621137Y-68767464D01*
X84621196Y-68767426D01*
X84624331Y-68772320D01*
X84626995Y-68777467D01*
X84630558Y-68782041D01*
X84630559Y-68782043D01*
X84635133Y-68787916D01*
X84639858Y-68794398D01*
X84736971Y-68936943D01*
X84745113Y-68950694D01*
X84746819Y-68954043D01*
X84749704Y-68962461D01*
X84753078Y-68967267D01*
X84755089Y-68969607D01*
X84755090Y-68969609D01*
X84770467Y-68987506D01*
X84775181Y-68993657D01*
X84777628Y-68996621D01*
X84780898Y-69001421D01*
X84788942Y-69009517D01*
X84795131Y-69016215D01*
X84910664Y-69150688D01*
X84920853Y-69164308D01*
X84921130Y-69164736D01*
X84924868Y-69172807D01*
X84928721Y-69177239D01*
X84930964Y-69179360D01*
X84949323Y-69196721D01*
X84957017Y-69204790D01*
X84957785Y-69205533D01*
X84961566Y-69209934D01*
X84966090Y-69213569D01*
X84969118Y-69216002D01*
X84976763Y-69222668D01*
X85109741Y-69348413D01*
X85120834Y-69360510D01*
X85124946Y-69367528D01*
X85129206Y-69371568D01*
X85152240Y-69389488D01*
X85152755Y-69389889D01*
X85161948Y-69397779D01*
X85166650Y-69402226D01*
X85171526Y-69405374D01*
X85171527Y-69405375D01*
X85173528Y-69406667D01*
X85182542Y-69413064D01*
X85319044Y-69519264D01*
X85331987Y-69529334D01*
X85343660Y-69539897D01*
X85347913Y-69545855D01*
X85352520Y-69549497D01*
X85355119Y-69551167D01*
X85355120Y-69551168D01*
X85378686Y-69566313D01*
X85387931Y-69572860D01*
X85389459Y-69574049D01*
X85389469Y-69574056D01*
X85394048Y-69577618D01*
X85399206Y-69580284D01*
X85400159Y-69580777D01*
X85410422Y-69586709D01*
X85569091Y-69688680D01*
X85575469Y-69692779D01*
X85587625Y-69701984D01*
X85591928Y-69707043D01*
X85596826Y-69710281D01*
X85599541Y-69711716D01*
X85599545Y-69711719D01*
X85625262Y-69725317D01*
X85634486Y-69730707D01*
X85636992Y-69732318D01*
X85636998Y-69732321D01*
X85641876Y-69735456D01*
X85647254Y-69737648D01*
X85647253Y-69737648D01*
X85647274Y-69737657D01*
X85658592Y-69742942D01*
X85838369Y-69838001D01*
X85850943Y-69845979D01*
X85855248Y-69850284D01*
X85860392Y-69853117D01*
X85863210Y-69854328D01*
X85863217Y-69854331D01*
X85890719Y-69866146D01*
X85899878Y-69870525D01*
X85903272Y-69872320D01*
X85903275Y-69872321D01*
X85908398Y-69875030D01*
X85913933Y-69876756D01*
X85914929Y-69877170D01*
X85925354Y-69881023D01*
X85970173Y-69900276D01*
X86118981Y-69964201D01*
X86131915Y-69971039D01*
X86136218Y-69974722D01*
X86141566Y-69977148D01*
X86163695Y-69984686D01*
X86173435Y-69988004D01*
X86182523Y-69991498D01*
X86191982Y-69995561D01*
X86197645Y-69996837D01*
X86199628Y-69997480D01*
X86209103Y-70000153D01*
X86227936Y-70006568D01*
X86415650Y-70070509D01*
X86428926Y-70076281D01*
X86433226Y-70079436D01*
X86438740Y-70081455D01*
X86471812Y-70090014D01*
X86480846Y-70092718D01*
X86491046Y-70096192D01*
X86496792Y-70097026D01*
X86499638Y-70097711D01*
X86508263Y-70099447D01*
X86528156Y-70104596D01*
X86726800Y-70156007D01*
X86740354Y-70160739D01*
X86744684Y-70163450D01*
X86750332Y-70165059D01*
X86753360Y-70165610D01*
X86753375Y-70165613D01*
X86784257Y-70171228D01*
X86793282Y-70173213D01*
X86798407Y-70174539D01*
X86798414Y-70174540D01*
X86804035Y-70175995D01*
X86809831Y-70176396D01*
X86813322Y-70176964D01*
X86821313Y-70177965D01*
X87050833Y-70219694D01*
X87064633Y-70223411D01*
X87069015Y-70225732D01*
X87074764Y-70226929D01*
X87077814Y-70227258D01*
X87077832Y-70227261D01*
X87109259Y-70230653D01*
X87118277Y-70231957D01*
X87123699Y-70232943D01*
X87123707Y-70232944D01*
X87129412Y-70233981D01*
X87135213Y-70233956D01*
X87139166Y-70234304D01*
X87146703Y-70234693D01*
X87386182Y-70260539D01*
X87400166Y-70263242D01*
X87404643Y-70265216D01*
X87410463Y-70265997D01*
X87413523Y-70266106D01*
X87413532Y-70266107D01*
X87430451Y-70266711D01*
X87445243Y-70267239D01*
X87454264Y-70267886D01*
X87465624Y-70269112D01*
X87471413Y-70268668D01*
X87475582Y-70268732D01*
X87482883Y-70268583D01*
X87627061Y-70273730D01*
X87727389Y-70277311D01*
X87739889Y-70279037D01*
X87739895Y-70278978D01*
X87745739Y-70279551D01*
X87787873Y-70279551D01*
X87792368Y-70279631D01*
X87811107Y-70280300D01*
X87815570Y-70279633D01*
X87818469Y-70279551D01*
X89312272Y-70279551D01*
X89315213Y-70279615D01*
X89317133Y-70279794D01*
X89320217Y-70279779D01*
X89320226Y-70279779D01*
X89337364Y-70279693D01*
X89353372Y-70279613D01*
X89359622Y-70279849D01*
X89359623Y-70279809D01*
X89362700Y-70279905D01*
X89365778Y-70280152D01*
X89406685Y-70279431D01*
X89410242Y-70279445D01*
X89412509Y-70279614D01*
X89427367Y-70279265D01*
X89429675Y-70279232D01*
X89436820Y-70279197D01*
X89437601Y-70279193D01*
X89437610Y-70281039D01*
X89438650Y-70281237D01*
X89438598Y-70279001D01*
X89438599Y-70279001D01*
X89448922Y-70278759D01*
X89454708Y-70278872D01*
X89454709Y-70278806D01*
X89457802Y-70278848D01*
X89460864Y-70279040D01*
X89463929Y-70278932D01*
X89463933Y-70278932D01*
X89497234Y-70277758D01*
X89503050Y-70277802D01*
X89503050Y-70277738D01*
X89506125Y-70277743D01*
X89509198Y-70277899D01*
X89532748Y-70276790D01*
X89532829Y-70278504D01*
X89532997Y-70278534D01*
X89532915Y-70276783D01*
X89549949Y-70275981D01*
X89553556Y-70275889D01*
X89555833Y-70275991D01*
X89558891Y-70275829D01*
X89558899Y-70275829D01*
X89571577Y-70275157D01*
X89573795Y-70275059D01*
X89581186Y-70274798D01*
X89581253Y-70276705D01*
X89582197Y-70276856D01*
X89582078Y-70274600D01*
X89591960Y-70274077D01*
X89598097Y-70274013D01*
X89598096Y-70273968D01*
X89601172Y-70273917D01*
X89604251Y-70274017D01*
X89607320Y-70273816D01*
X89607326Y-70273816D01*
X89640918Y-70271617D01*
X89645802Y-70271457D01*
X89645800Y-70271393D01*
X89648885Y-70271311D01*
X89651959Y-70271379D01*
X89665199Y-70270378D01*
X89734633Y-70285182D01*
X89785042Y-70335177D01*
X89800704Y-70396018D01*
X89800704Y-71989912D01*
X89800544Y-71996266D01*
X89786604Y-72272326D01*
X89785322Y-72284982D01*
X89746020Y-72542501D01*
X89743492Y-72554869D01*
X89679639Y-72803198D01*
X89675933Y-72815127D01*
X89588808Y-73053172D01*
X89584004Y-73064538D01*
X89474836Y-73291159D01*
X89469019Y-73301871D01*
X89359655Y-73481890D01*
X89339089Y-73515742D01*
X89332316Y-73525771D01*
X89287315Y-73585950D01*
X89182905Y-73725575D01*
X89175241Y-73734863D01*
X89007679Y-73919229D01*
X88999181Y-73927727D01*
X88814822Y-74095283D01*
X88805539Y-74102943D01*
X88674565Y-74200884D01*
X88605732Y-74252357D01*
X88595696Y-74259135D01*
X88543777Y-74290677D01*
X88381839Y-74389058D01*
X88381832Y-74389062D01*
X88371107Y-74394886D01*
X88144495Y-74504051D01*
X88133138Y-74508851D01*
X88093689Y-74523289D01*
X87895076Y-74595981D01*
X87883147Y-74599688D01*
X87634829Y-74663537D01*
X87622462Y-74666064D01*
X87364937Y-74705368D01*
X87352281Y-74706650D01*
X87101277Y-74719325D01*
X87095708Y-74719606D01*
X87076221Y-74720590D01*
X87069867Y-74720750D01*
X61340348Y-74720750D01*
X61333994Y-74720590D01*
X61314508Y-74719606D01*
X61308938Y-74719325D01*
X61057934Y-74706650D01*
X61045278Y-74705368D01*
X60787759Y-74666065D01*
X60775392Y-74663538D01*
X60527060Y-74599685D01*
X60515130Y-74595978D01*
X60360374Y-74539337D01*
X60277073Y-74508848D01*
X60265716Y-74504047D01*
X60039110Y-74394886D01*
X60028376Y-74389058D01*
X59972645Y-74355200D01*
X59814517Y-74259134D01*
X59804494Y-74252365D01*
X59635510Y-74126001D01*
X59604685Y-74102950D01*
X59595397Y-74095286D01*
X59411031Y-73927724D01*
X59402533Y-73919226D01*
X59311483Y-73819045D01*
X59234973Y-73734862D01*
X59227325Y-73725595D01*
X59077890Y-73525760D01*
X59071132Y-73515754D01*
X58951975Y-73319612D01*
X58941197Y-73301871D01*
X58935368Y-73291134D01*
X58826219Y-73064556D01*
X58821410Y-73053180D01*
X58816909Y-73040881D01*
X58816055Y-73038548D01*
X59933001Y-73038548D01*
X59933001Y-73562828D01*
X59934209Y-73575088D01*
X59945315Y-73630931D01*
X59954633Y-73653427D01*
X59996983Y-73716808D01*
X60014192Y-73734017D01*
X60077575Y-73776368D01*
X60100066Y-73785684D01*
X60155915Y-73796793D01*
X60168170Y-73798000D01*
X60687885Y-73798000D01*
X60703124Y-73793525D01*
X60704329Y-73792135D01*
X60706000Y-73784452D01*
X60706000Y-73043115D01*
X60701525Y-73027876D01*
X60700135Y-73026671D01*
X60692452Y-73025000D01*
X59951116Y-73025000D01*
X59935877Y-73029475D01*
X59934672Y-73030865D01*
X59933001Y-73038548D01*
X58816055Y-73038548D01*
X58734278Y-72815118D01*
X58730571Y-72803188D01*
X58666723Y-72554868D01*
X58664196Y-72542501D01*
X58624893Y-72284983D01*
X58623611Y-72272327D01*
X58609672Y-71996267D01*
X58609512Y-71989913D01*
X58609512Y-71725170D01*
X59933000Y-71725170D01*
X59933000Y-72244885D01*
X59937475Y-72260124D01*
X59938865Y-72261329D01*
X59946548Y-72263000D01*
X60687885Y-72263000D01*
X60703124Y-72258525D01*
X60704329Y-72257135D01*
X60706000Y-72249452D01*
X60706000Y-71508116D01*
X60704659Y-71503548D01*
X61468000Y-71503548D01*
X61468000Y-73779884D01*
X61472475Y-73795123D01*
X61473865Y-73796328D01*
X61481548Y-73797999D01*
X62005828Y-73797999D01*
X62018088Y-73796791D01*
X62073931Y-73785685D01*
X62096427Y-73776367D01*
X62159808Y-73734017D01*
X62177017Y-73716808D01*
X62219368Y-73653425D01*
X62228684Y-73630934D01*
X62239793Y-73575085D01*
X62241000Y-73562830D01*
X62241000Y-72988308D01*
X62261002Y-72920187D01*
X62314658Y-72873694D01*
X62384932Y-72863590D01*
X62449512Y-72893084D01*
X62489123Y-72957293D01*
X62510012Y-73039546D01*
X62600799Y-73236477D01*
X62604132Y-73241193D01*
X62656411Y-73315166D01*
X62725953Y-73413567D01*
X62881284Y-73564883D01*
X62886088Y-73568093D01*
X62947712Y-73609269D01*
X63061588Y-73685359D01*
X63066896Y-73687640D01*
X63066897Y-73687640D01*
X63255526Y-73768681D01*
X63255529Y-73768682D01*
X63260829Y-73770959D01*
X63266459Y-73772233D01*
X63390244Y-73800243D01*
X63472332Y-73818818D01*
X63478101Y-73819045D01*
X63478104Y-73819045D01*
X63559886Y-73822258D01*
X63689016Y-73827331D01*
X63781297Y-73813951D01*
X63897901Y-73797045D01*
X63897906Y-73797044D01*
X63903622Y-73796215D01*
X63909094Y-73794357D01*
X63909096Y-73794357D01*
X64086850Y-73734017D01*
X64108965Y-73726510D01*
X64126289Y-73716808D01*
X64293119Y-73623379D01*
X64293123Y-73623376D01*
X64298166Y-73620552D01*
X64464890Y-73481890D01*
X64603552Y-73315166D01*
X64606376Y-73310123D01*
X64606379Y-73310119D01*
X64706682Y-73131015D01*
X64706683Y-73131014D01*
X64709510Y-73125965D01*
X64709980Y-73124582D01*
X64755048Y-73071557D01*
X64824177Y-73050900D01*
X68263446Y-73050900D01*
X68284848Y-73043946D01*
X68304074Y-73039330D01*
X68316513Y-73037360D01*
X68326306Y-73035809D01*
X68346359Y-73025592D01*
X68364620Y-73018028D01*
X68376597Y-73014136D01*
X68376599Y-73014135D01*
X68386032Y-73011070D01*
X68404241Y-72997840D01*
X68421096Y-72987510D01*
X68441151Y-72977292D01*
X70102415Y-71316028D01*
X71349544Y-71316028D01*
X71367602Y-71479596D01*
X71370212Y-71486728D01*
X71420593Y-71624400D01*
X71424155Y-71634135D01*
X71428391Y-71640438D01*
X71428391Y-71640439D01*
X71511705Y-71764424D01*
X71511708Y-71764427D01*
X71515939Y-71770724D01*
X71637654Y-71881476D01*
X71782274Y-71959998D01*
X71941449Y-72001757D01*
X71949049Y-72001876D01*
X71956567Y-72002906D01*
X71956140Y-72006022D01*
X72010267Y-72022845D01*
X72055910Y-72077226D01*
X72065408Y-72144202D01*
X72060744Y-72179628D01*
X72078802Y-72343196D01*
X72135355Y-72497735D01*
X72139591Y-72504038D01*
X72139591Y-72504039D01*
X72222905Y-72628024D01*
X72222908Y-72628027D01*
X72227139Y-72634324D01*
X72348854Y-72745076D01*
X72493474Y-72823598D01*
X72652649Y-72865357D01*
X72737989Y-72866698D01*
X72809593Y-72867823D01*
X72809596Y-72867823D01*
X72817191Y-72867942D01*
X72824596Y-72866246D01*
X72824597Y-72866246D01*
X72883278Y-72852806D01*
X72977600Y-72831204D01*
X73124615Y-72757263D01*
X73249748Y-72650388D01*
X73345777Y-72516750D01*
X73395001Y-72394303D01*
X73404322Y-72371117D01*
X73404323Y-72371115D01*
X73407157Y-72364064D01*
X73430344Y-72201143D01*
X73430494Y-72186800D01*
X73425340Y-72144204D01*
X73411637Y-72030973D01*
X73411637Y-72030971D01*
X73410724Y-72023430D01*
X73400460Y-71996266D01*
X73355241Y-71876596D01*
X73355240Y-71876594D01*
X73352556Y-71869491D01*
X73288186Y-71775832D01*
X73263649Y-71740130D01*
X73263648Y-71740128D01*
X73259347Y-71733871D01*
X73249584Y-71725172D01*
X73143882Y-71630997D01*
X73106326Y-71570747D01*
X73101700Y-71536920D01*
X73101700Y-71472092D01*
X73121702Y-71403971D01*
X73138605Y-71382996D01*
X74027837Y-70493765D01*
X74043517Y-70481102D01*
X74046625Y-70478274D01*
X74055374Y-70472625D01*
X74074603Y-70448233D01*
X74078184Y-70444203D01*
X74078086Y-70444120D01*
X74081439Y-70440163D01*
X74085120Y-70436482D01*
X74095549Y-70421889D01*
X74099112Y-70417144D01*
X74122320Y-70387705D01*
X74122321Y-70387703D01*
X74128768Y-70379525D01*
X74131614Y-70371420D01*
X74136610Y-70364429D01*
X74150334Y-70318538D01*
X74152168Y-70312893D01*
X74165421Y-70275153D01*
X74165422Y-70275150D01*
X74168048Y-70267671D01*
X74168500Y-70262452D01*
X74168500Y-70259741D01*
X74168598Y-70257464D01*
X74168733Y-70257015D01*
X74168787Y-70257017D01*
X74168802Y-70256784D01*
X74170577Y-70250848D01*
X74168597Y-70200450D01*
X74168500Y-70195504D01*
X74168500Y-69990121D01*
X74188502Y-69922000D01*
X74212669Y-69894310D01*
X74220958Y-69887231D01*
X74316548Y-69805588D01*
X74412577Y-69671950D01*
X74458621Y-69557414D01*
X74471122Y-69526317D01*
X74471123Y-69526315D01*
X74473957Y-69519264D01*
X74497144Y-69356343D01*
X74497294Y-69342000D01*
X74485794Y-69246965D01*
X74478437Y-69186173D01*
X74478437Y-69186171D01*
X74477524Y-69178630D01*
X74419356Y-69024691D01*
X74367143Y-68948721D01*
X74330449Y-68895330D01*
X74330448Y-68895328D01*
X74326147Y-68889071D01*
X74320476Y-68884018D01*
X74208950Y-68784653D01*
X74208947Y-68784651D01*
X74203278Y-68779600D01*
X74104611Y-68727358D01*
X74064559Y-68706151D01*
X74064556Y-68706150D01*
X74057844Y-68702596D01*
X74050478Y-68700746D01*
X74050476Y-68700745D01*
X73905611Y-68664358D01*
X73905608Y-68664358D01*
X73898240Y-68662507D01*
X73890641Y-68662467D01*
X73890639Y-68662467D01*
X73823578Y-68662116D01*
X73733680Y-68661645D01*
X73726300Y-68663417D01*
X73723280Y-68663766D01*
X73653312Y-68651724D01*
X73600962Y-68603766D01*
X73582810Y-68537278D01*
X73582894Y-68529200D01*
X73582364Y-68524814D01*
X73564037Y-68373373D01*
X73564037Y-68373371D01*
X73563124Y-68365830D01*
X73557821Y-68351795D01*
X73507641Y-68218996D01*
X73507640Y-68218994D01*
X73504956Y-68211891D01*
X73411747Y-68076271D01*
X73405737Y-68070916D01*
X73294550Y-67971853D01*
X73294547Y-67971851D01*
X73288878Y-67966800D01*
X73220901Y-67930808D01*
X73150159Y-67893351D01*
X73150156Y-67893350D01*
X73143444Y-67889796D01*
X73136078Y-67887946D01*
X73136076Y-67887945D01*
X72991211Y-67851558D01*
X72991208Y-67851558D01*
X72983840Y-67849707D01*
X72976241Y-67849667D01*
X72976239Y-67849667D01*
X72908312Y-67849311D01*
X72819280Y-67848845D01*
X72811900Y-67850617D01*
X72811898Y-67850617D01*
X72666644Y-67885489D01*
X72666640Y-67885490D01*
X72659265Y-67887261D01*
X72513032Y-67962737D01*
X72389025Y-68070916D01*
X72294401Y-68205553D01*
X72291642Y-68212628D01*
X72291641Y-68212631D01*
X72245187Y-68331779D01*
X72234623Y-68358874D01*
X72233631Y-68366407D01*
X72233631Y-68366408D01*
X72215572Y-68503588D01*
X72213144Y-68522028D01*
X72231202Y-68685596D01*
X72233812Y-68692728D01*
X72283742Y-68829168D01*
X72287755Y-68840135D01*
X72291991Y-68846438D01*
X72291991Y-68846439D01*
X72375305Y-68970424D01*
X72375308Y-68970427D01*
X72379539Y-68976724D01*
X72441101Y-69032741D01*
X72500700Y-69086972D01*
X72537622Y-69147613D01*
X72541900Y-69180166D01*
X72541900Y-70259908D01*
X72521898Y-70328029D01*
X72504995Y-70349004D01*
X72242723Y-70611275D01*
X72180411Y-70645300D01*
X72135387Y-70644585D01*
X72135144Y-70646510D01*
X72127611Y-70645558D01*
X72120240Y-70643707D01*
X72112641Y-70643667D01*
X72112639Y-70643667D01*
X72044712Y-70643311D01*
X71955680Y-70642845D01*
X71948300Y-70644617D01*
X71948298Y-70644617D01*
X71803044Y-70679489D01*
X71803040Y-70679490D01*
X71795665Y-70681261D01*
X71649432Y-70756737D01*
X71525425Y-70864916D01*
X71430801Y-70999553D01*
X71371023Y-71152874D01*
X71349544Y-71316028D01*
X70102415Y-71316028D01*
X70691292Y-70727151D01*
X70701510Y-70707096D01*
X70711840Y-70690241D01*
X70715835Y-70684742D01*
X70725070Y-70672032D01*
X70728136Y-70662597D01*
X70732028Y-70650620D01*
X70739592Y-70632358D01*
X70745308Y-70621140D01*
X70745308Y-70621139D01*
X70749809Y-70612306D01*
X70753330Y-70590074D01*
X70757946Y-70570848D01*
X70761835Y-70558879D01*
X70764900Y-70549446D01*
X70764900Y-67406732D01*
X70784902Y-67338611D01*
X70809064Y-67310927D01*
X70862148Y-67265588D01*
X70866583Y-67259417D01*
X70866585Y-67259414D01*
X70911414Y-67197027D01*
X70958177Y-67131950D01*
X71003491Y-67019229D01*
X71016722Y-66986317D01*
X71016723Y-66986315D01*
X71019557Y-66979264D01*
X71042744Y-66816343D01*
X71042894Y-66802000D01*
X71040070Y-66778659D01*
X71024037Y-66646173D01*
X71024037Y-66646171D01*
X71023124Y-66638630D01*
X70998263Y-66572837D01*
X70967641Y-66491796D01*
X70967640Y-66491794D01*
X70964956Y-66484691D01*
X70871747Y-66349071D01*
X70865737Y-66343716D01*
X70754550Y-66244653D01*
X70754547Y-66244651D01*
X70748878Y-66239600D01*
X70611762Y-66167000D01*
X70610159Y-66166151D01*
X70610156Y-66166150D01*
X70603444Y-66162596D01*
X70596078Y-66160746D01*
X70596076Y-66160745D01*
X70451211Y-66124358D01*
X70451208Y-66124358D01*
X70443840Y-66122507D01*
X70436241Y-66122467D01*
X70436239Y-66122467D01*
X70368312Y-66122111D01*
X70279280Y-66121645D01*
X70271900Y-66123417D01*
X70271898Y-66123417D01*
X70126644Y-66158289D01*
X70126640Y-66158290D01*
X70119265Y-66160061D01*
X69973032Y-66235537D01*
X69849025Y-66343716D01*
X69754401Y-66478353D01*
X69751642Y-66485428D01*
X69751641Y-66485431D01*
X69714834Y-66579836D01*
X69694623Y-66631674D01*
X69693631Y-66639207D01*
X69693631Y-66639208D01*
X69675273Y-66778659D01*
X69673144Y-66794828D01*
X69691202Y-66958396D01*
X69697459Y-66975493D01*
X69730632Y-67066143D01*
X69747755Y-67112935D01*
X69751991Y-67119238D01*
X69751991Y-67119239D01*
X69764681Y-67138124D01*
X69839539Y-67249524D01*
X69845155Y-67254634D01*
X69909900Y-67313548D01*
X69946822Y-67374188D01*
X69951100Y-67406741D01*
X69951100Y-70264267D01*
X69931098Y-70332388D01*
X69914195Y-70353362D01*
X68067362Y-72200195D01*
X68005050Y-72234221D01*
X67978267Y-72237100D01*
X64820356Y-72237100D01*
X64752235Y-72217098D01*
X64707350Y-72166828D01*
X64639896Y-72030046D01*
X64639894Y-72030042D01*
X64637340Y-72024863D01*
X64568998Y-71933342D01*
X64511046Y-71855734D01*
X64511045Y-71855733D01*
X64507593Y-71851110D01*
X64411741Y-71762506D01*
X64352595Y-71707831D01*
X64352592Y-71707829D01*
X64348355Y-71703912D01*
X64164958Y-71588197D01*
X63963545Y-71507842D01*
X63750862Y-71465536D01*
X63745088Y-71465460D01*
X63745084Y-71465460D01*
X63634741Y-71464016D01*
X63534030Y-71462698D01*
X63528333Y-71463677D01*
X63528332Y-71463677D01*
X63326008Y-71498442D01*
X63326007Y-71498442D01*
X63320311Y-71499421D01*
X63116864Y-71574477D01*
X63111903Y-71577429D01*
X63111902Y-71577429D01*
X62935469Y-71682395D01*
X62935466Y-71682397D01*
X62930501Y-71685351D01*
X62926161Y-71689157D01*
X62926157Y-71689160D01*
X62833152Y-71770724D01*
X62767464Y-71828331D01*
X62633213Y-71998627D01*
X62630524Y-72003738D01*
X62630522Y-72003741D01*
X62616195Y-72030973D01*
X62532244Y-72190537D01*
X62530529Y-72196060D01*
X62530527Y-72196065D01*
X62487331Y-72335177D01*
X62448028Y-72394303D01*
X62382999Y-72422793D01*
X62312890Y-72411603D01*
X62259960Y-72364286D01*
X62240999Y-72297813D01*
X62240999Y-71725172D01*
X62239791Y-71712912D01*
X62228685Y-71657069D01*
X62219367Y-71634573D01*
X62177017Y-71571192D01*
X62159808Y-71553983D01*
X62096425Y-71511632D01*
X62073934Y-71502316D01*
X62018085Y-71491207D01*
X62005830Y-71490000D01*
X61486115Y-71490000D01*
X61470876Y-71494475D01*
X61469671Y-71495865D01*
X61468000Y-71503548D01*
X60704659Y-71503548D01*
X60701525Y-71492877D01*
X60700135Y-71491672D01*
X60692452Y-71490001D01*
X60168172Y-71490001D01*
X60155912Y-71491209D01*
X60100069Y-71502315D01*
X60077573Y-71511633D01*
X60014192Y-71553983D01*
X59996983Y-71571192D01*
X59954632Y-71634575D01*
X59945316Y-71657066D01*
X59934207Y-71712915D01*
X59933000Y-71725170D01*
X58609512Y-71725170D01*
X58609512Y-70395940D01*
X58629514Y-70327819D01*
X58683170Y-70281326D01*
X58742186Y-70270118D01*
X58751559Y-70270614D01*
X58755164Y-70270883D01*
X58757428Y-70271214D01*
X58772641Y-70271930D01*
X58774863Y-70272055D01*
X58782638Y-70272564D01*
X58782643Y-70272564D01*
X58782521Y-70274421D01*
X58783516Y-70274684D01*
X58783621Y-70272448D01*
X58793770Y-70272926D01*
X58799550Y-70273447D01*
X58799555Y-70273382D01*
X58802612Y-70273640D01*
X58805668Y-70274048D01*
X58834353Y-70275059D01*
X58842039Y-70275330D01*
X58847806Y-70275782D01*
X58847811Y-70275716D01*
X58850889Y-70275939D01*
X58853945Y-70276311D01*
X58877142Y-70276856D01*
X58877440Y-70276863D01*
X58877392Y-70278906D01*
X58877652Y-70278968D01*
X58877701Y-70276869D01*
X58879548Y-70276913D01*
X58894766Y-70277271D01*
X58898380Y-70277434D01*
X58900644Y-70277696D01*
X58903710Y-70277750D01*
X58903727Y-70277751D01*
X58916495Y-70277976D01*
X58918711Y-70278034D01*
X58925981Y-70278290D01*
X58925914Y-70280202D01*
X58926839Y-70280417D01*
X58926879Y-70278158D01*
X58936871Y-70278334D01*
X58943100Y-70278708D01*
X58943102Y-70278668D01*
X58946165Y-70278833D01*
X58949242Y-70279150D01*
X58992559Y-70279366D01*
X58994355Y-70279415D01*
X58995747Y-70279551D01*
X59004980Y-70279551D01*
X59007196Y-70279570D01*
X59021070Y-70279814D01*
X59021040Y-70281529D01*
X59022635Y-70281871D01*
X59022635Y-70279551D01*
X59029391Y-70279551D01*
X59030020Y-70279553D01*
X59067055Y-70279738D01*
X59067060Y-70279738D01*
X59069707Y-70279751D01*
X59070642Y-70279582D01*
X59071346Y-70279551D01*
X60557330Y-70279551D01*
X60569882Y-70280830D01*
X60569886Y-70280770D01*
X60572682Y-70280944D01*
X60572689Y-70280944D01*
X60575747Y-70281134D01*
X60617848Y-70279631D01*
X60622343Y-70279551D01*
X60641100Y-70279551D01*
X60645541Y-70278724D01*
X60648420Y-70278540D01*
X60896534Y-70269682D01*
X60910767Y-70270363D01*
X60915478Y-70271677D01*
X60921350Y-70271620D01*
X60924407Y-70271290D01*
X60924425Y-70271289D01*
X60955953Y-70267886D01*
X60964977Y-70267238D01*
X60976391Y-70266831D01*
X60982060Y-70265564D01*
X60986219Y-70265030D01*
X60993394Y-70263845D01*
X61210223Y-70240444D01*
X61232805Y-70238007D01*
X61247084Y-70237660D01*
X61251952Y-70238645D01*
X61257804Y-70238163D01*
X61261681Y-70237458D01*
X61291959Y-70231954D01*
X61300968Y-70230650D01*
X61303364Y-70230392D01*
X61306440Y-70230060D01*
X61306442Y-70230060D01*
X61312211Y-70229437D01*
X61317775Y-70227767D01*
X61321658Y-70226981D01*
X61328991Y-70225220D01*
X61558389Y-70183513D01*
X61572685Y-70182119D01*
X61577749Y-70182762D01*
X61583550Y-70181853D01*
X61586542Y-70181079D01*
X61586545Y-70181078D01*
X61616932Y-70173214D01*
X61625959Y-70171228D01*
X61631168Y-70170281D01*
X61631176Y-70170279D01*
X61636884Y-70169241D01*
X61642313Y-70167173D01*
X61645720Y-70166223D01*
X61653393Y-70163778D01*
X61771675Y-70133165D01*
X61871743Y-70107266D01*
X61885998Y-70104798D01*
X61891325Y-70105072D01*
X61897042Y-70103730D01*
X61899955Y-70102738D01*
X61899961Y-70102736D01*
X61929358Y-70092722D01*
X61938417Y-70090011D01*
X61943216Y-70088769D01*
X61943222Y-70088767D01*
X61948844Y-70087312D01*
X61954111Y-70084849D01*
X61956860Y-70083860D01*
X61965026Y-70080572D01*
X61970460Y-70078721D01*
X62171314Y-70010304D01*
X62185505Y-70006716D01*
X62191160Y-70006568D01*
X62196755Y-70004788D01*
X62207545Y-70000153D01*
X62227680Y-69991504D01*
X62236781Y-69988005D01*
X62241023Y-69986560D01*
X62241030Y-69986557D01*
X62246522Y-69984686D01*
X62251584Y-69981838D01*
X62253486Y-69980988D01*
X62262304Y-69976630D01*
X62455554Y-69893614D01*
X62469668Y-69888831D01*
X62475717Y-69888183D01*
X62481151Y-69885958D01*
X62510350Y-69870519D01*
X62519494Y-69866146D01*
X62528345Y-69862344D01*
X62533171Y-69859113D01*
X62534136Y-69858589D01*
X62543645Y-69852913D01*
X62584314Y-69831409D01*
X62722942Y-69758107D01*
X62736932Y-69752036D01*
X62743448Y-69750772D01*
X62748674Y-69748095D01*
X62751253Y-69746438D01*
X62751261Y-69746433D01*
X62775730Y-69730707D01*
X62784954Y-69725318D01*
X62787589Y-69723925D01*
X62787595Y-69723921D01*
X62792724Y-69721209D01*
X62797278Y-69717597D01*
X62797284Y-69717593D01*
X62807453Y-69710320D01*
X62971883Y-69604646D01*
X62985719Y-69597144D01*
X62992753Y-69595109D01*
X62997717Y-69591973D01*
X63022282Y-69572862D01*
X63031512Y-69566326D01*
X63033141Y-69565279D01*
X63033149Y-69565273D01*
X63038031Y-69562135D01*
X63043053Y-69557406D01*
X63052046Y-69549705D01*
X63121445Y-69495712D01*
X63200735Y-69434023D01*
X63214378Y-69424889D01*
X63221940Y-69421887D01*
X63226580Y-69418288D01*
X63238870Y-69406667D01*
X63248259Y-69397788D01*
X63257460Y-69389890D01*
X63257977Y-69389488D01*
X63257979Y-69389487D01*
X63262559Y-69385923D01*
X63267987Y-69379802D01*
X63275688Y-69371851D01*
X63407757Y-69246965D01*
X63420883Y-69236134D01*
X63421287Y-69235844D01*
X63429173Y-69231725D01*
X63433416Y-69227666D01*
X63435414Y-69225340D01*
X63435422Y-69225332D01*
X63451893Y-69206161D01*
X63459600Y-69198077D01*
X63460300Y-69197281D01*
X63464510Y-69193300D01*
X63470222Y-69185453D01*
X63476507Y-69177511D01*
X63591059Y-69044179D01*
X63602223Y-69032741D01*
X63605021Y-69030217D01*
X63612392Y-69025248D01*
X63616156Y-69020741D01*
X63631184Y-68998682D01*
X63635902Y-68992527D01*
X63638128Y-68989394D01*
X63641904Y-68984999D01*
X63644812Y-68979986D01*
X63644815Y-68979982D01*
X63647632Y-68975126D01*
X63652490Y-68967410D01*
X63748560Y-68826393D01*
X63757656Y-68814604D01*
X63762557Y-68808974D01*
X63769280Y-68803154D01*
X63772475Y-68798227D01*
X63773884Y-68795504D01*
X63773892Y-68795491D01*
X63783935Y-68776087D01*
X63786557Y-68771692D01*
X63786494Y-68771657D01*
X63789304Y-68766586D01*
X63792574Y-68761786D01*
X63797901Y-68749662D01*
X63801357Y-68742428D01*
X63830773Y-68685596D01*
X63878615Y-68593166D01*
X63887061Y-68580904D01*
X63886362Y-68580438D01*
X63891290Y-68573038D01*
X63897209Y-68566403D01*
X63899745Y-68561107D01*
X63907832Y-68538867D01*
X63909492Y-68534551D01*
X63911445Y-68529740D01*
X63914113Y-68524586D01*
X63915790Y-68519038D01*
X63915792Y-68519033D01*
X63918464Y-68510191D01*
X63920661Y-68503588D01*
X63978029Y-68345824D01*
X63985039Y-68332037D01*
X63984506Y-68331779D01*
X63988385Y-68323774D01*
X63993348Y-68316396D01*
X63995141Y-68310805D01*
X64000451Y-68286201D01*
X64001744Y-68280790D01*
X64001920Y-68280119D01*
X64003905Y-68274662D01*
X64004857Y-68268933D01*
X64004859Y-68268924D01*
X64006630Y-68258264D01*
X64007762Y-68252330D01*
X64043502Y-68086741D01*
X64048668Y-68071747D01*
X64048258Y-68071616D01*
X64050972Y-68063140D01*
X64054849Y-68055133D01*
X64055836Y-68049344D01*
X64057667Y-68023708D01*
X64058118Y-68019021D01*
X64059257Y-68013745D01*
X64059762Y-67995997D01*
X64060031Y-67990610D01*
X64072333Y-67818353D01*
X64075347Y-67802670D01*
X64074964Y-67802605D01*
X64076446Y-67793832D01*
X64079145Y-67785357D01*
X64079300Y-67779487D01*
X64077460Y-67753716D01*
X64077260Y-67749376D01*
X64077634Y-67744133D01*
X64075603Y-67726208D01*
X64075123Y-67721008D01*
X64062822Y-67548762D01*
X64063581Y-67532915D01*
X64063151Y-67532904D01*
X64063383Y-67524010D01*
X64064862Y-67515241D01*
X64064189Y-67509408D01*
X64063541Y-67506405D01*
X64063539Y-67506394D01*
X64058761Y-67484256D01*
X64057887Y-67479661D01*
X64057502Y-67474275D01*
X64053017Y-67457099D01*
X64051770Y-67451869D01*
X64016048Y-67286361D01*
X64014644Y-67270954D01*
X64014054Y-67271019D01*
X64013078Y-67262186D01*
X64013352Y-67253298D01*
X64011894Y-67247610D01*
X64003277Y-67223914D01*
X64001500Y-67218668D01*
X64001299Y-67218027D01*
X64000073Y-67212348D01*
X63993645Y-67197004D01*
X63991453Y-67191398D01*
X63983296Y-67168964D01*
X63934124Y-67033739D01*
X63930828Y-67019229D01*
X63930013Y-67019428D01*
X63927908Y-67010788D01*
X63927037Y-67001930D01*
X63924859Y-66996477D01*
X63923450Y-66993756D01*
X63923446Y-66993746D01*
X63913998Y-66975493D01*
X63911945Y-66971341D01*
X63909717Y-66966619D01*
X63907734Y-66961165D01*
X63904785Y-66956166D01*
X63904782Y-66956159D01*
X63900089Y-66948203D01*
X63896717Y-66942108D01*
X63878350Y-66906624D01*
X63819153Y-66792256D01*
X63813105Y-66778659D01*
X63810481Y-66771675D01*
X63808553Y-66762988D01*
X63805736Y-66757836D01*
X63791696Y-66737227D01*
X63789076Y-66732833D01*
X63789016Y-66732871D01*
X63785889Y-66727990D01*
X63783221Y-66722835D01*
X63779654Y-66718255D01*
X63775076Y-66712377D01*
X63770351Y-66705895D01*
X63683966Y-66579096D01*
X63673242Y-66563356D01*
X63665099Y-66549600D01*
X63663395Y-66546254D01*
X63660512Y-66537842D01*
X63657139Y-66533036D01*
X63639747Y-66512792D01*
X63635020Y-66506625D01*
X63632584Y-66503674D01*
X63629318Y-66498881D01*
X63621277Y-66490788D01*
X63615087Y-66484091D01*
X63612275Y-66480817D01*
X63504463Y-66355330D01*
X63499549Y-66349610D01*
X63489355Y-66335980D01*
X63489083Y-66335560D01*
X63485347Y-66327493D01*
X63481495Y-66323061D01*
X63460892Y-66303578D01*
X63453195Y-66295506D01*
X63452431Y-66294766D01*
X63448651Y-66290367D01*
X63444132Y-66286736D01*
X63444124Y-66286728D01*
X63441081Y-66284283D01*
X63433448Y-66277627D01*
X63300484Y-66151897D01*
X63289378Y-66139784D01*
X63285270Y-66132774D01*
X63281010Y-66128733D01*
X63278580Y-66126843D01*
X63278569Y-66126833D01*
X63257463Y-66110413D01*
X63248257Y-66102512D01*
X63247782Y-66102063D01*
X63243565Y-66098075D01*
X63236693Y-66093638D01*
X63227664Y-66087230D01*
X63226527Y-66086345D01*
X63078229Y-65970968D01*
X63066558Y-65960407D01*
X63062303Y-65954447D01*
X63057696Y-65950805D01*
X63048394Y-65944827D01*
X63031513Y-65933978D01*
X63022267Y-65927430D01*
X63016167Y-65922684D01*
X63010057Y-65919526D01*
X62999797Y-65913595D01*
X62834747Y-65807522D01*
X62822589Y-65798315D01*
X62818288Y-65793259D01*
X62813390Y-65790021D01*
X62810669Y-65788582D01*
X62810662Y-65788578D01*
X62784950Y-65774982D01*
X62775739Y-65769600D01*
X62773229Y-65767987D01*
X62773223Y-65767984D01*
X62768340Y-65764846D01*
X62762959Y-65762652D01*
X62762956Y-65762651D01*
X62751626Y-65757362D01*
X62571851Y-65662303D01*
X62559272Y-65654321D01*
X62554968Y-65650018D01*
X62549825Y-65647185D01*
X62547001Y-65645972D01*
X62546987Y-65645965D01*
X62519491Y-65634154D01*
X62510340Y-65629778D01*
X62501817Y-65625272D01*
X62496271Y-65623543D01*
X62495263Y-65623123D01*
X62484867Y-65619280D01*
X62291243Y-65536104D01*
X62278292Y-65529257D01*
X62273998Y-65525581D01*
X62268651Y-65523154D01*
X62236782Y-65512298D01*
X62227694Y-65508805D01*
X62218234Y-65504741D01*
X62212575Y-65503466D01*
X62210593Y-65502823D01*
X62201116Y-65500149D01*
X62016257Y-65437180D01*
X61958225Y-65396282D01*
X61931516Y-65330501D01*
X61944611Y-65260722D01*
X61993352Y-65209100D01*
X62056883Y-65191910D01*
X64950571Y-65191910D01*
X64954268Y-65191470D01*
X64954273Y-65191470D01*
X64960062Y-65190781D01*
X64974979Y-65189007D01*
X65070272Y-65146679D01*
X65143938Y-65072884D01*
X65186100Y-64977517D01*
X65188889Y-64953594D01*
X65188889Y-62258559D01*
X70877990Y-62258559D01*
X70877990Y-64930839D01*
X70879198Y-64943099D01*
X70890304Y-64998942D01*
X70899622Y-65021438D01*
X70941972Y-65084819D01*
X70959181Y-65102028D01*
X71022564Y-65144379D01*
X71045055Y-65153695D01*
X71100904Y-65164804D01*
X71113159Y-65166011D01*
X73182824Y-65166011D01*
X73250945Y-65186013D01*
X73297438Y-65239669D01*
X73307542Y-65309943D01*
X73278048Y-65374523D01*
X73267988Y-65384872D01*
X73267407Y-65385405D01*
X73265308Y-65387169D01*
X73263368Y-65389109D01*
X73261427Y-65390890D01*
X73261366Y-65390922D01*
X73261248Y-65390794D01*
X73260687Y-65391289D01*
X73254943Y-65394388D01*
X73247874Y-65402035D01*
X73247873Y-65402036D01*
X73218146Y-65434195D01*
X73214716Y-65437761D01*
X73201730Y-65450747D01*
X73139418Y-65484773D01*
X73110848Y-65486043D01*
X73110840Y-65487507D01*
X72946280Y-65486645D01*
X72938900Y-65488417D01*
X72938898Y-65488417D01*
X72793644Y-65523289D01*
X72793640Y-65523290D01*
X72786265Y-65525061D01*
X72640032Y-65600537D01*
X72516025Y-65708716D01*
X72421401Y-65843353D01*
X72418642Y-65850428D01*
X72418641Y-65850431D01*
X72371645Y-65970969D01*
X72361623Y-65996674D01*
X72360631Y-66004207D01*
X72360631Y-66004208D01*
X72342928Y-66138682D01*
X72340144Y-66159828D01*
X72358202Y-66323396D01*
X72368420Y-66351317D01*
X72406773Y-66456122D01*
X72414755Y-66477935D01*
X72418991Y-66484238D01*
X72418991Y-66484239D01*
X72502305Y-66608224D01*
X72502308Y-66608227D01*
X72506539Y-66614524D01*
X72541321Y-66646173D01*
X72606955Y-66705895D01*
X72628254Y-66725276D01*
X72772874Y-66803798D01*
X72932049Y-66845557D01*
X73017389Y-66846898D01*
X73088993Y-66848023D01*
X73088996Y-66848023D01*
X73096591Y-66848142D01*
X73103996Y-66846446D01*
X73103997Y-66846446D01*
X73217607Y-66820426D01*
X73257000Y-66811404D01*
X73404015Y-66737463D01*
X73529148Y-66630588D01*
X73625177Y-66496950D01*
X73669213Y-66387409D01*
X73683722Y-66351317D01*
X73683723Y-66351315D01*
X73686557Y-66344264D01*
X73708548Y-66189746D01*
X73737949Y-66125124D01*
X73797620Y-66086655D01*
X73833291Y-66081500D01*
X76285539Y-66081500D01*
X76353660Y-66101502D01*
X76400153Y-66155158D01*
X76410257Y-66225432D01*
X76380763Y-66290012D01*
X76343329Y-66319466D01*
X76323032Y-66329942D01*
X76317313Y-66334931D01*
X76303378Y-66347088D01*
X76199025Y-66438121D01*
X76104401Y-66572758D01*
X76101642Y-66579833D01*
X76101641Y-66579836D01*
X76060364Y-66685706D01*
X76044623Y-66726079D01*
X76043631Y-66733612D01*
X76043631Y-66733613D01*
X76028554Y-66848142D01*
X76023144Y-66889233D01*
X76041202Y-67052801D01*
X76048839Y-67073669D01*
X76092688Y-67193493D01*
X76097755Y-67207340D01*
X76101991Y-67213643D01*
X76101991Y-67213644D01*
X76113899Y-67231365D01*
X76189539Y-67343929D01*
X76195155Y-67349039D01*
X76259900Y-67407953D01*
X76296822Y-67468593D01*
X76301100Y-67501146D01*
X76301100Y-68644446D01*
X76304165Y-68653879D01*
X76308054Y-68665848D01*
X76312670Y-68685074D01*
X76316191Y-68707306D01*
X76320692Y-68716139D01*
X76320692Y-68716140D01*
X76326408Y-68727358D01*
X76333972Y-68745620D01*
X76335288Y-68749669D01*
X76340930Y-68767032D01*
X76353385Y-68784175D01*
X76354160Y-68785241D01*
X76364490Y-68802096D01*
X76374708Y-68822151D01*
X80529849Y-72977292D01*
X80549904Y-72987510D01*
X80566759Y-72997840D01*
X80584968Y-73011070D01*
X80594401Y-73014135D01*
X80594403Y-73014136D01*
X80606380Y-73018028D01*
X80624641Y-73025592D01*
X80644694Y-73035809D01*
X80654487Y-73037360D01*
X80666926Y-73039330D01*
X80686152Y-73043946D01*
X80707554Y-73050900D01*
X83516588Y-73050900D01*
X83584709Y-73070902D01*
X83631014Y-73124148D01*
X83682799Y-73236477D01*
X83686132Y-73241193D01*
X83738411Y-73315166D01*
X83807953Y-73413567D01*
X83963284Y-73564883D01*
X83968088Y-73568093D01*
X84029712Y-73609269D01*
X84143588Y-73685359D01*
X84148896Y-73687640D01*
X84148897Y-73687640D01*
X84337526Y-73768681D01*
X84337529Y-73768682D01*
X84342829Y-73770959D01*
X84348459Y-73772233D01*
X84472244Y-73800243D01*
X84554332Y-73818818D01*
X84560101Y-73819045D01*
X84560104Y-73819045D01*
X84641886Y-73822258D01*
X84771016Y-73827331D01*
X84863297Y-73813951D01*
X84979901Y-73797045D01*
X84979906Y-73797044D01*
X84985622Y-73796215D01*
X84991094Y-73794357D01*
X84991096Y-73794357D01*
X85168850Y-73734017D01*
X85190965Y-73726510D01*
X85208289Y-73716808D01*
X85375119Y-73623379D01*
X85375123Y-73623376D01*
X85380166Y-73620552D01*
X85546890Y-73481890D01*
X85685552Y-73315166D01*
X85688376Y-73310123D01*
X85688379Y-73310119D01*
X85788687Y-73131006D01*
X85788687Y-73131005D01*
X85791510Y-73125965D01*
X85820392Y-73040881D01*
X85849688Y-72954580D01*
X85890525Y-72896504D01*
X85956278Y-72869726D01*
X86026071Y-72882747D01*
X86077744Y-72931434D01*
X86095001Y-72995082D01*
X86095001Y-73562828D01*
X86096209Y-73575088D01*
X86107315Y-73630931D01*
X86116633Y-73653427D01*
X86158983Y-73716808D01*
X86176192Y-73734017D01*
X86239575Y-73776368D01*
X86262066Y-73785684D01*
X86317915Y-73796793D01*
X86330170Y-73798000D01*
X86849885Y-73798000D01*
X86865124Y-73793525D01*
X86866329Y-73792135D01*
X86868000Y-73784452D01*
X86868000Y-73038548D01*
X87630000Y-73038548D01*
X87630000Y-73779884D01*
X87634475Y-73795123D01*
X87635865Y-73796328D01*
X87643548Y-73797999D01*
X88167828Y-73797999D01*
X88180088Y-73796791D01*
X88235931Y-73785685D01*
X88258427Y-73776367D01*
X88321808Y-73734017D01*
X88339017Y-73716808D01*
X88381368Y-73653425D01*
X88390684Y-73630934D01*
X88401793Y-73575085D01*
X88403000Y-73562830D01*
X88403000Y-73043115D01*
X88398525Y-73027876D01*
X88397135Y-73026671D01*
X88389452Y-73025000D01*
X87648115Y-73025000D01*
X87632876Y-73029475D01*
X87631671Y-73030865D01*
X87630000Y-73038548D01*
X86868000Y-73038548D01*
X86868000Y-71508116D01*
X86866659Y-71503548D01*
X87630000Y-71503548D01*
X87630000Y-72244885D01*
X87634475Y-72260124D01*
X87635865Y-72261329D01*
X87643548Y-72263000D01*
X88384884Y-72263000D01*
X88400123Y-72258525D01*
X88401328Y-72257135D01*
X88402999Y-72249452D01*
X88402999Y-71725172D01*
X88401791Y-71712912D01*
X88390685Y-71657069D01*
X88381367Y-71634573D01*
X88339017Y-71571192D01*
X88321808Y-71553983D01*
X88258425Y-71511632D01*
X88235934Y-71502316D01*
X88180085Y-71491207D01*
X88167830Y-71490000D01*
X87648115Y-71490000D01*
X87632876Y-71494475D01*
X87631671Y-71495865D01*
X87630000Y-71503548D01*
X86866659Y-71503548D01*
X86863525Y-71492877D01*
X86862135Y-71491672D01*
X86854452Y-71490001D01*
X86330172Y-71490001D01*
X86317912Y-71491209D01*
X86262069Y-71502315D01*
X86239573Y-71511633D01*
X86176192Y-71553983D01*
X86158983Y-71571192D01*
X86116632Y-71634575D01*
X86107316Y-71657066D01*
X86096207Y-71712915D01*
X86095000Y-71725170D01*
X86095000Y-72300316D01*
X86074998Y-72368437D01*
X86021342Y-72414930D01*
X85951068Y-72425034D01*
X85886488Y-72395540D01*
X85847731Y-72334517D01*
X85840518Y-72308940D01*
X85815251Y-72219350D01*
X85806273Y-72201143D01*
X85721894Y-72030042D01*
X85719340Y-72024863D01*
X85650998Y-71933342D01*
X85593046Y-71855734D01*
X85593045Y-71855733D01*
X85589593Y-71851110D01*
X85493741Y-71762506D01*
X85434595Y-71707831D01*
X85434592Y-71707829D01*
X85430355Y-71703912D01*
X85246958Y-71588197D01*
X85045545Y-71507842D01*
X84832862Y-71465536D01*
X84827088Y-71465460D01*
X84827084Y-71465460D01*
X84716741Y-71464016D01*
X84616030Y-71462698D01*
X84610333Y-71463677D01*
X84610332Y-71463677D01*
X84408008Y-71498442D01*
X84408007Y-71498442D01*
X84402311Y-71499421D01*
X84198864Y-71574477D01*
X84193903Y-71577429D01*
X84193902Y-71577429D01*
X84017469Y-71682395D01*
X84017466Y-71682397D01*
X84012501Y-71685351D01*
X84008161Y-71689157D01*
X84008157Y-71689160D01*
X83915152Y-71770724D01*
X83849464Y-71828331D01*
X83715213Y-71998627D01*
X83712524Y-72003738D01*
X83712522Y-72003741D01*
X83625171Y-72169768D01*
X83575752Y-72220740D01*
X83513663Y-72237100D01*
X80992733Y-72237100D01*
X80924612Y-72217098D01*
X80903638Y-72200195D01*
X77151805Y-68448362D01*
X77117779Y-68386050D01*
X77114900Y-68359267D01*
X77114900Y-67501137D01*
X77134902Y-67433016D01*
X77159064Y-67405332D01*
X77212148Y-67359993D01*
X77216583Y-67353822D01*
X77216585Y-67353819D01*
X77275881Y-67271299D01*
X77308177Y-67226355D01*
X77369557Y-67073669D01*
X77384504Y-66968647D01*
X77392163Y-66914831D01*
X77392163Y-66914830D01*
X77392744Y-66910748D01*
X77392894Y-66896405D01*
X77387024Y-66847892D01*
X77374037Y-66740578D01*
X77374037Y-66740576D01*
X77373124Y-66733035D01*
X77336278Y-66635523D01*
X77317641Y-66586201D01*
X77317640Y-66586199D01*
X77314956Y-66579096D01*
X77237871Y-66466936D01*
X77226049Y-66449735D01*
X77226048Y-66449733D01*
X77221747Y-66443476D01*
X77215737Y-66438121D01*
X77104550Y-66339058D01*
X77104547Y-66339056D01*
X77098878Y-66334005D01*
X77070263Y-66318854D01*
X77019420Y-66269301D01*
X77003439Y-66200127D01*
X77027393Y-66133293D01*
X77083677Y-66090020D01*
X77129223Y-66081500D01*
X78009865Y-66081500D01*
X78034164Y-66084086D01*
X78035602Y-66084154D01*
X78045780Y-66086345D01*
X78079341Y-66082373D01*
X78085320Y-66082021D01*
X78085312Y-66081928D01*
X78090490Y-66081500D01*
X78095692Y-66081500D01*
X78114846Y-66078312D01*
X78120704Y-66077478D01*
X78137318Y-66075512D01*
X78161567Y-66072642D01*
X78161568Y-66072642D01*
X78171907Y-66071418D01*
X78180206Y-66067433D01*
X78189283Y-66065922D01*
X78234651Y-66041442D01*
X78239914Y-66038761D01*
X78279250Y-66019873D01*
X78279254Y-66019870D01*
X78286398Y-66016440D01*
X78290692Y-66012830D01*
X78292624Y-66010898D01*
X78294573Y-66009111D01*
X78294626Y-66009082D01*
X78294745Y-66009212D01*
X78295313Y-66008711D01*
X78301057Y-66005612D01*
X78337867Y-65965791D01*
X78341296Y-65962226D01*
X80006479Y-64297044D01*
X80025495Y-64281685D01*
X80026556Y-64280719D01*
X80035304Y-64275071D01*
X80056229Y-64248528D01*
X80060208Y-64244050D01*
X80060137Y-64243990D01*
X80063490Y-64240033D01*
X80067171Y-64236352D01*
X80078469Y-64220543D01*
X80082032Y-64215798D01*
X80107485Y-64183510D01*
X80113934Y-64175330D01*
X80116984Y-64166645D01*
X80122334Y-64159158D01*
X80137109Y-64109753D01*
X80138930Y-64104150D01*
X80153388Y-64062981D01*
X80156016Y-64055498D01*
X80156500Y-64049909D01*
X80156500Y-64047196D01*
X80156615Y-64044531D01*
X80156634Y-64044468D01*
X80156808Y-64044475D01*
X80156855Y-64043729D01*
X80158725Y-64037476D01*
X80156597Y-63983322D01*
X80156500Y-63978375D01*
X80156500Y-60110212D01*
X80176502Y-60042091D01*
X80193405Y-60021117D01*
X80748951Y-59465571D01*
X80811263Y-59431545D01*
X80840022Y-59428682D01*
X80907689Y-59429745D01*
X80988993Y-59431023D01*
X80988996Y-59431023D01*
X80996591Y-59431142D01*
X81003996Y-59429446D01*
X81003997Y-59429446D01*
X81062678Y-59416006D01*
X81157000Y-59394404D01*
X81304015Y-59320463D01*
X81429148Y-59213588D01*
X81525177Y-59079950D01*
X81586557Y-58927264D01*
X81605070Y-58797183D01*
X81609163Y-58768426D01*
X81609163Y-58768425D01*
X81609744Y-58764343D01*
X81609894Y-58750000D01*
X81608851Y-58741376D01*
X81591037Y-58594173D01*
X81591037Y-58594171D01*
X81590124Y-58586630D01*
X81582512Y-58566486D01*
X81534641Y-58439796D01*
X81534640Y-58439794D01*
X81531956Y-58432691D01*
X81438747Y-58297071D01*
X81432737Y-58291716D01*
X81321550Y-58192653D01*
X81321547Y-58192651D01*
X81315878Y-58187600D01*
X81247901Y-58151608D01*
X81177159Y-58114151D01*
X81177156Y-58114150D01*
X81170444Y-58110596D01*
X81163078Y-58108746D01*
X81163076Y-58108745D01*
X81018211Y-58072358D01*
X81018208Y-58072358D01*
X81010840Y-58070507D01*
X81003241Y-58070467D01*
X81003239Y-58070467D01*
X80935312Y-58070111D01*
X80846280Y-58069645D01*
X80838900Y-58071417D01*
X80838898Y-58071417D01*
X80693644Y-58106289D01*
X80693640Y-58106290D01*
X80686265Y-58108061D01*
X80540032Y-58183537D01*
X80416025Y-58291716D01*
X80321401Y-58426353D01*
X80318642Y-58433428D01*
X80318641Y-58433431D01*
X80301174Y-58478232D01*
X80261623Y-58579674D01*
X80260631Y-58587207D01*
X80260631Y-58587208D01*
X80241954Y-58729080D01*
X80240144Y-58742828D01*
X80248668Y-58820032D01*
X80236263Y-58889935D01*
X80212524Y-58922953D01*
X79543521Y-59591956D01*
X79524505Y-59607315D01*
X79523444Y-59608281D01*
X79514696Y-59613929D01*
X79495399Y-59638407D01*
X79493771Y-59640472D01*
X79489794Y-59644947D01*
X79489865Y-59645008D01*
X79486512Y-59648965D01*
X79482829Y-59652648D01*
X79479803Y-59656883D01*
X79479801Y-59656885D01*
X79471547Y-59668436D01*
X79467984Y-59673182D01*
X79436066Y-59713670D01*
X79433015Y-59722357D01*
X79427666Y-59729843D01*
X79424683Y-59739819D01*
X79424682Y-59739820D01*
X79412902Y-59779211D01*
X79411072Y-59784843D01*
X79393984Y-59833502D01*
X79393500Y-59839091D01*
X79393500Y-59841802D01*
X79393385Y-59844469D01*
X79393366Y-59844532D01*
X79393192Y-59844525D01*
X79393145Y-59845271D01*
X79391275Y-59851524D01*
X79391684Y-59861928D01*
X79393403Y-59905678D01*
X79393500Y-59910625D01*
X79393500Y-63778788D01*
X79373498Y-63846909D01*
X79356595Y-63867883D01*
X77942882Y-65281595D01*
X77880570Y-65315621D01*
X77853787Y-65318500D01*
X77488515Y-65318500D01*
X77420394Y-65298498D01*
X77373901Y-65244842D01*
X77363797Y-65174568D01*
X77393291Y-65109988D01*
X77399420Y-65103405D01*
X77418006Y-65084819D01*
X77460357Y-65021436D01*
X77469673Y-64998945D01*
X77480782Y-64943096D01*
X77481989Y-64930841D01*
X77481989Y-62263126D01*
X77477514Y-62247887D01*
X77476124Y-62246682D01*
X77468441Y-62245011D01*
X70896105Y-62245011D01*
X70880866Y-62249486D01*
X70879661Y-62250876D01*
X70877990Y-62258559D01*
X65188889Y-62258559D01*
X65188888Y-58797181D01*
X70877989Y-58797181D01*
X70877989Y-61464896D01*
X70882464Y-61480135D01*
X70883854Y-61481340D01*
X70891537Y-61483011D01*
X73780874Y-61483011D01*
X73796113Y-61478536D01*
X73797318Y-61477146D01*
X73798989Y-61469463D01*
X73798989Y-58580127D01*
X73797648Y-58575559D01*
X74560989Y-58575559D01*
X74560989Y-61464896D01*
X74565464Y-61480135D01*
X74566854Y-61481340D01*
X74574537Y-61483011D01*
X77463873Y-61483011D01*
X77479112Y-61478536D01*
X77480317Y-61477146D01*
X77481988Y-61469463D01*
X77481988Y-58797183D01*
X77480780Y-58784923D01*
X77469674Y-58729080D01*
X77460356Y-58706584D01*
X77418006Y-58643203D01*
X77400797Y-58625994D01*
X77337414Y-58583643D01*
X77314923Y-58574327D01*
X77259074Y-58563218D01*
X77246819Y-58562011D01*
X74579104Y-58562011D01*
X74563865Y-58566486D01*
X74562660Y-58567876D01*
X74560989Y-58575559D01*
X73797648Y-58575559D01*
X73794514Y-58564888D01*
X73793124Y-58563683D01*
X73785441Y-58562012D01*
X71113161Y-58562012D01*
X71100901Y-58563220D01*
X71045058Y-58574326D01*
X71022562Y-58583644D01*
X70959181Y-58625994D01*
X70941972Y-58643203D01*
X70899621Y-58706586D01*
X70890305Y-58729077D01*
X70879196Y-58784926D01*
X70877989Y-58797181D01*
X65188888Y-58797181D01*
X65188888Y-58774429D01*
X65185985Y-58750021D01*
X65143657Y-58654728D01*
X65069862Y-58581062D01*
X64974495Y-58538900D01*
X64950572Y-58536111D01*
X61887332Y-58536111D01*
X58771407Y-58536112D01*
X58765048Y-58536868D01*
X58750391Y-58538611D01*
X58680385Y-58526794D01*
X58627881Y-58479004D01*
X58609512Y-58413493D01*
X58609512Y-55908417D01*
X60070100Y-55908417D01*
X60070101Y-57691582D01*
X60073004Y-57715990D01*
X60115332Y-57811283D01*
X60189127Y-57884949D01*
X60284494Y-57927111D01*
X60308417Y-57929900D01*
X61192398Y-57929900D01*
X62091582Y-57929899D01*
X62095279Y-57929459D01*
X62095284Y-57929459D01*
X62101073Y-57928770D01*
X62115990Y-57926996D01*
X62211283Y-57884668D01*
X62284949Y-57810873D01*
X62327111Y-57715506D01*
X62329900Y-57691583D01*
X62329900Y-57459900D01*
X62349902Y-57391779D01*
X62403558Y-57345286D01*
X62455900Y-57333900D01*
X74611369Y-57333900D01*
X74652869Y-57341817D01*
X74652874Y-57341798D01*
X74653159Y-57341873D01*
X74653162Y-57341874D01*
X74812049Y-57383557D01*
X74897389Y-57384898D01*
X74968993Y-57386023D01*
X74968996Y-57386023D01*
X74976591Y-57386142D01*
X74983996Y-57384446D01*
X74983997Y-57384446D01*
X75042678Y-57371006D01*
X75137000Y-57349404D01*
X75284015Y-57275463D01*
X75409148Y-57168588D01*
X75505177Y-57034950D01*
X75566557Y-56882264D01*
X75589744Y-56719343D01*
X75589894Y-56705000D01*
X75570124Y-56541630D01*
X75546699Y-56479637D01*
X75514641Y-56394796D01*
X75514640Y-56394794D01*
X75511956Y-56387691D01*
X75455873Y-56306090D01*
X75423049Y-56258330D01*
X75423048Y-56258328D01*
X75418747Y-56252071D01*
X75399642Y-56235049D01*
X75301550Y-56147653D01*
X75301547Y-56147651D01*
X75295878Y-56142600D01*
X75227901Y-56106608D01*
X75157159Y-56069151D01*
X75157156Y-56069150D01*
X75150444Y-56065596D01*
X75143078Y-56063746D01*
X75143076Y-56063745D01*
X74998211Y-56027358D01*
X74998208Y-56027358D01*
X74990840Y-56025507D01*
X74983241Y-56025467D01*
X74983239Y-56025467D01*
X74915312Y-56025111D01*
X74826280Y-56024645D01*
X74818900Y-56026417D01*
X74818898Y-56026417D01*
X74673644Y-56061289D01*
X74673640Y-56061290D01*
X74666265Y-56063061D01*
X74520032Y-56138537D01*
X74514313Y-56143526D01*
X74409399Y-56235049D01*
X74344917Y-56264757D01*
X74326569Y-56266100D01*
X62455899Y-56266100D01*
X62387778Y-56246098D01*
X62341285Y-56192442D01*
X62329899Y-56140100D01*
X62329899Y-55908418D01*
X62326996Y-55884010D01*
X62284668Y-55788717D01*
X62210873Y-55715051D01*
X62115506Y-55672889D01*
X62091583Y-55670100D01*
X61207602Y-55670100D01*
X60308418Y-55670101D01*
X60304721Y-55670541D01*
X60304716Y-55670541D01*
X60298927Y-55671230D01*
X60284010Y-55673004D01*
X60188717Y-55715332D01*
X60115051Y-55789127D01*
X60072889Y-55884494D01*
X60070100Y-55908417D01*
X58609512Y-55908417D01*
X58609512Y-54230296D01*
X60065648Y-54230296D01*
X60079230Y-54437513D01*
X60130346Y-54638784D01*
X60217285Y-54827370D01*
X60337136Y-54996955D01*
X60341270Y-55000982D01*
X60450112Y-55107011D01*
X60485884Y-55141859D01*
X60658548Y-55257230D01*
X60663851Y-55259508D01*
X60663854Y-55259510D01*
X60791080Y-55314170D01*
X60849346Y-55339203D01*
X60923568Y-55355998D01*
X61046250Y-55383758D01*
X61046255Y-55383759D01*
X61051887Y-55385033D01*
X61057658Y-55385260D01*
X61057660Y-55385260D01*
X61119876Y-55387704D01*
X61259388Y-55393186D01*
X61398470Y-55373020D01*
X61459178Y-55364218D01*
X61459182Y-55364217D01*
X61464900Y-55363388D01*
X61470372Y-55361530D01*
X61470374Y-55361530D01*
X61656077Y-55298492D01*
X61656079Y-55298491D01*
X61661541Y-55296637D01*
X61842724Y-55195170D01*
X62002383Y-55062383D01*
X62071532Y-54979240D01*
X62130469Y-54939658D01*
X62168405Y-54933811D01*
X79785455Y-54933811D01*
X79790732Y-54933922D01*
X79850806Y-54936440D01*
X79891729Y-54926841D01*
X79903395Y-54924680D01*
X79936505Y-54920145D01*
X79936507Y-54920144D01*
X79945015Y-54918979D01*
X79952898Y-54915568D01*
X79952900Y-54915567D01*
X79958084Y-54913324D01*
X79979347Y-54906292D01*
X79984850Y-54905001D01*
X79984857Y-54904998D01*
X79993220Y-54903037D01*
X80000746Y-54898900D01*
X80000753Y-54898897D01*
X80030054Y-54882789D01*
X80040711Y-54877568D01*
X80071378Y-54864297D01*
X80071380Y-54864296D01*
X80079264Y-54860884D01*
X80090340Y-54851915D01*
X80108922Y-54839430D01*
X80115621Y-54835747D01*
X80121407Y-54832566D01*
X80129273Y-54825776D01*
X80152931Y-54802118D01*
X80162732Y-54793293D01*
X80186268Y-54774234D01*
X80192945Y-54768827D01*
X80203330Y-54754214D01*
X80216940Y-54738109D01*
X80648962Y-54306086D01*
X80709928Y-54272362D01*
X80832000Y-54244404D01*
X80979015Y-54170463D01*
X81104148Y-54063588D01*
X81200177Y-53929950D01*
X81239846Y-53831271D01*
X81258722Y-53784317D01*
X81258723Y-53784315D01*
X81261557Y-53777264D01*
X81284744Y-53614343D01*
X81284894Y-53600000D01*
X81278904Y-53550496D01*
X81266037Y-53444173D01*
X81266037Y-53444171D01*
X81265124Y-53436630D01*
X81237556Y-53363673D01*
X81209641Y-53289796D01*
X81209640Y-53289794D01*
X81206956Y-53282691D01*
X81130872Y-53171988D01*
X81118049Y-53153330D01*
X81118048Y-53153328D01*
X81113747Y-53147071D01*
X81107737Y-53141716D01*
X80996550Y-53042653D01*
X80996547Y-53042651D01*
X80990878Y-53037600D01*
X80908593Y-52994032D01*
X80852159Y-52964151D01*
X80852156Y-52964150D01*
X80845444Y-52960596D01*
X80838078Y-52958746D01*
X80838076Y-52958745D01*
X80693211Y-52922358D01*
X80693208Y-52922358D01*
X80685840Y-52920507D01*
X80678241Y-52920467D01*
X80678239Y-52920467D01*
X80610312Y-52920111D01*
X80521280Y-52919645D01*
X80513900Y-52921417D01*
X80513898Y-52921417D01*
X80368644Y-52956289D01*
X80368640Y-52956290D01*
X80361265Y-52958061D01*
X80215032Y-53033537D01*
X80091025Y-53141716D01*
X79996401Y-53276353D01*
X79993642Y-53283428D01*
X79993641Y-53283431D01*
X79965088Y-53356665D01*
X79936623Y-53429674D01*
X79935631Y-53437207D01*
X79935631Y-53437208D01*
X79930281Y-53477847D01*
X79901559Y-53542774D01*
X79894455Y-53550496D01*
X79615846Y-53829106D01*
X79553533Y-53863131D01*
X79526750Y-53866011D01*
X62343970Y-53866011D01*
X62275849Y-53846009D01*
X62230964Y-53795739D01*
X62170081Y-53672280D01*
X62167526Y-53667099D01*
X62043277Y-53500710D01*
X61890787Y-53359749D01*
X61885904Y-53356668D01*
X61885900Y-53356665D01*
X61720045Y-53252019D01*
X61715162Y-53248938D01*
X61522284Y-53171988D01*
X61318613Y-53131475D01*
X61312838Y-53131399D01*
X61312834Y-53131399D01*
X61209045Y-53130041D01*
X61110969Y-53128757D01*
X61105272Y-53129736D01*
X61105271Y-53129736D01*
X60912004Y-53162945D01*
X60912003Y-53162945D01*
X60906307Y-53163924D01*
X60711481Y-53235799D01*
X60706520Y-53238751D01*
X60706519Y-53238751D01*
X60537984Y-53339019D01*
X60537981Y-53339021D01*
X60533016Y-53341975D01*
X60528676Y-53345781D01*
X60528672Y-53345784D01*
X60425083Y-53436630D01*
X60376888Y-53478896D01*
X60248326Y-53641976D01*
X60245637Y-53647087D01*
X60245635Y-53647090D01*
X60235108Y-53667099D01*
X60151636Y-53825753D01*
X60090056Y-54024074D01*
X60065648Y-54230296D01*
X58609512Y-54230296D01*
X58609512Y-52780296D01*
X58609552Y-52777111D01*
X58629820Y-51975536D01*
X58630143Y-51969168D01*
X58651348Y-51690296D01*
X60065648Y-51690296D01*
X60079230Y-51897513D01*
X60130346Y-52098784D01*
X60217285Y-52287370D01*
X60337136Y-52456955D01*
X60341270Y-52460982D01*
X60472786Y-52589099D01*
X60485884Y-52601859D01*
X60658548Y-52717230D01*
X60663851Y-52719508D01*
X60663854Y-52719510D01*
X60805348Y-52780300D01*
X60849346Y-52799203D01*
X60923568Y-52815998D01*
X61046250Y-52843758D01*
X61046255Y-52843759D01*
X61051887Y-52845033D01*
X61057658Y-52845260D01*
X61057660Y-52845260D01*
X61119876Y-52847704D01*
X61259388Y-52853186D01*
X61406229Y-52831895D01*
X61459178Y-52824218D01*
X61459182Y-52824217D01*
X61464900Y-52823388D01*
X61470372Y-52821530D01*
X61470374Y-52821530D01*
X61656077Y-52758492D01*
X61656079Y-52758491D01*
X61661541Y-52756637D01*
X61842724Y-52655170D01*
X61869349Y-52633026D01*
X61934513Y-52604845D01*
X61949919Y-52603900D01*
X81484491Y-52603900D01*
X81516464Y-52608024D01*
X81568049Y-52621557D01*
X81653389Y-52622898D01*
X81724993Y-52624023D01*
X81724996Y-52624023D01*
X81732591Y-52624142D01*
X81739996Y-52622446D01*
X81739997Y-52622446D01*
X81816847Y-52604845D01*
X81893000Y-52587404D01*
X82040015Y-52513463D01*
X82165148Y-52406588D01*
X82261177Y-52272950D01*
X82322557Y-52120264D01*
X82344061Y-51969168D01*
X82345163Y-51961426D01*
X82345163Y-51961425D01*
X82345744Y-51957343D01*
X82345894Y-51943000D01*
X82341068Y-51903115D01*
X82327037Y-51787173D01*
X82327037Y-51787171D01*
X82326124Y-51779630D01*
X82307389Y-51730048D01*
X82270641Y-51632796D01*
X82270640Y-51632794D01*
X82267956Y-51625691D01*
X82174747Y-51490071D01*
X82132671Y-51452583D01*
X82057550Y-51385653D01*
X82057547Y-51385651D01*
X82051878Y-51380600D01*
X81983901Y-51344608D01*
X81913159Y-51307151D01*
X81913156Y-51307150D01*
X81906444Y-51303596D01*
X81899078Y-51301746D01*
X81899076Y-51301745D01*
X81754211Y-51265358D01*
X81754208Y-51265358D01*
X81746840Y-51263507D01*
X81739241Y-51263467D01*
X81739239Y-51263467D01*
X81671312Y-51263111D01*
X81582280Y-51262645D01*
X81574900Y-51264417D01*
X81574898Y-51264417D01*
X81429644Y-51299289D01*
X81429640Y-51299290D01*
X81422265Y-51301061D01*
X81276032Y-51376537D01*
X81152025Y-51484716D01*
X81147659Y-51490928D01*
X81144526Y-51494408D01*
X81084081Y-51531649D01*
X81050888Y-51536100D01*
X66700936Y-51536100D01*
X66632815Y-51516098D01*
X66586322Y-51462442D01*
X66576218Y-51392168D01*
X66604062Y-51329531D01*
X66717479Y-51193162D01*
X66721170Y-51188724D01*
X66822637Y-51007541D01*
X66836963Y-50965340D01*
X66887530Y-50816374D01*
X66887530Y-50816372D01*
X66889388Y-50810900D01*
X66919186Y-50605388D01*
X66920741Y-50546000D01*
X66907303Y-50399749D01*
X66902269Y-50344964D01*
X66902268Y-50344961D01*
X66901740Y-50339210D01*
X66887789Y-50289743D01*
X66846940Y-50144904D01*
X66846939Y-50144902D01*
X66845372Y-50139345D01*
X66834487Y-50117271D01*
X66756081Y-49958280D01*
X66753526Y-49953099D01*
X66629277Y-49786710D01*
X66476787Y-49645749D01*
X66471904Y-49642668D01*
X66471900Y-49642665D01*
X66306045Y-49538019D01*
X66301162Y-49534938D01*
X66108284Y-49457988D01*
X65904613Y-49417475D01*
X65898838Y-49417399D01*
X65898834Y-49417399D01*
X65795045Y-49416041D01*
X65696969Y-49414757D01*
X65691272Y-49415736D01*
X65691271Y-49415736D01*
X65498004Y-49448945D01*
X65498003Y-49448945D01*
X65492307Y-49449924D01*
X65297481Y-49521799D01*
X65292520Y-49524751D01*
X65292519Y-49524751D01*
X65123984Y-49625019D01*
X65123981Y-49625021D01*
X65119016Y-49627975D01*
X65114676Y-49631781D01*
X65114672Y-49631784D01*
X64992324Y-49739081D01*
X64962888Y-49764896D01*
X64834326Y-49927976D01*
X64831637Y-49933087D01*
X64831635Y-49933090D01*
X64782682Y-50026134D01*
X64737636Y-50111753D01*
X64676056Y-50310074D01*
X64651648Y-50516296D01*
X64665230Y-50723513D01*
X64716346Y-50924784D01*
X64803285Y-51113370D01*
X64923136Y-51282955D01*
X64927270Y-51286982D01*
X64927275Y-51286988D01*
X64961005Y-51319846D01*
X64995843Y-51381707D01*
X64991706Y-51452583D01*
X64949907Y-51509971D01*
X64883718Y-51535650D01*
X64873084Y-51536100D01*
X62417575Y-51536100D01*
X62349454Y-51516098D01*
X62302961Y-51462442D01*
X62296306Y-51444302D01*
X62260940Y-51318904D01*
X62260939Y-51318902D01*
X62259372Y-51313345D01*
X62256318Y-51307151D01*
X62170081Y-51132280D01*
X62167526Y-51127099D01*
X62043277Y-50960710D01*
X61890787Y-50819749D01*
X61885904Y-50816668D01*
X61885900Y-50816665D01*
X61720045Y-50712019D01*
X61715162Y-50708938D01*
X61522284Y-50631988D01*
X61318613Y-50591475D01*
X61312838Y-50591399D01*
X61312834Y-50591399D01*
X61209045Y-50590041D01*
X61110969Y-50588757D01*
X61105272Y-50589736D01*
X61105271Y-50589736D01*
X60912004Y-50622945D01*
X60912003Y-50622945D01*
X60906307Y-50623924D01*
X60711481Y-50695799D01*
X60706520Y-50698751D01*
X60706519Y-50698751D01*
X60537984Y-50799019D01*
X60537981Y-50799021D01*
X60533016Y-50801975D01*
X60528676Y-50805781D01*
X60528672Y-50805784D01*
X60392980Y-50924784D01*
X60376888Y-50938896D01*
X60373313Y-50943431D01*
X60373312Y-50943432D01*
X60370170Y-50947418D01*
X60248326Y-51101976D01*
X60245637Y-51107087D01*
X60245635Y-51107090D01*
X60205334Y-51183690D01*
X60151636Y-51285753D01*
X60090056Y-51484074D01*
X60065648Y-51690296D01*
X58651348Y-51690296D01*
X58689891Y-51183425D01*
X58690533Y-51177095D01*
X58697304Y-51123815D01*
X58738200Y-50801975D01*
X58788911Y-50402899D01*
X58789868Y-50396631D01*
X58909073Y-49729120D01*
X58925896Y-49634915D01*
X58927159Y-49628740D01*
X58927908Y-49625497D01*
X58940826Y-49569524D01*
X60163819Y-49569524D01*
X60237394Y-49729120D01*
X60243145Y-49739081D01*
X60353579Y-49895343D01*
X60361057Y-49904098D01*
X60498114Y-50037612D01*
X60507058Y-50044855D01*
X60666156Y-50151161D01*
X60676266Y-50156651D01*
X60802356Y-50210823D01*
X60816355Y-50212514D01*
X60819000Y-50208187D01*
X60819000Y-49579115D01*
X60817659Y-49574548D01*
X61581000Y-49574548D01*
X61581000Y-50198509D01*
X61584973Y-50212040D01*
X61591669Y-50213002D01*
X61645497Y-50194730D01*
X61655994Y-50190056D01*
X61822958Y-50096552D01*
X61832430Y-50090042D01*
X61979553Y-49967682D01*
X61987682Y-49959553D01*
X62110042Y-49812430D01*
X62116552Y-49802958D01*
X62210056Y-49635994D01*
X62214730Y-49625497D01*
X62230800Y-49578155D01*
X62231388Y-49564064D01*
X62225357Y-49561000D01*
X61599115Y-49561000D01*
X61583876Y-49565475D01*
X61582671Y-49566865D01*
X61581000Y-49574548D01*
X60817659Y-49574548D01*
X60814525Y-49563876D01*
X60813135Y-49562671D01*
X60805452Y-49561000D01*
X60178004Y-49561000D01*
X60164473Y-49564973D01*
X60163819Y-49569524D01*
X58940826Y-49569524D01*
X59099873Y-48880404D01*
X59101437Y-48874326D01*
X59123736Y-48795799D01*
X60167378Y-48795799D01*
X60174110Y-48799000D01*
X60800885Y-48799000D01*
X60816124Y-48794525D01*
X60817329Y-48793135D01*
X60819000Y-48785452D01*
X60819000Y-48161857D01*
X60816555Y-48153530D01*
X61581000Y-48153530D01*
X61581000Y-48780885D01*
X61585475Y-48796124D01*
X61586865Y-48797329D01*
X61594548Y-48799000D01*
X62221580Y-48799000D01*
X62235111Y-48795027D01*
X62236243Y-48787150D01*
X62232532Y-48777481D01*
X62147903Y-48605871D01*
X62141893Y-48596063D01*
X62027400Y-48442739D01*
X62019710Y-48434199D01*
X61983307Y-48400548D01*
X64682001Y-48400548D01*
X64682001Y-48874828D01*
X64683209Y-48887088D01*
X64694315Y-48942931D01*
X64703633Y-48965427D01*
X64745983Y-49028808D01*
X64763192Y-49046017D01*
X64826575Y-49088368D01*
X64849066Y-49097684D01*
X64904915Y-49108793D01*
X64917170Y-49110000D01*
X65386885Y-49110000D01*
X65402124Y-49105525D01*
X65403329Y-49104135D01*
X65405000Y-49096452D01*
X65405000Y-48405115D01*
X65403659Y-48400548D01*
X66167000Y-48400548D01*
X66167000Y-49091884D01*
X66171475Y-49107123D01*
X66172865Y-49108328D01*
X66180548Y-49109999D01*
X66654828Y-49109999D01*
X66667088Y-49108791D01*
X66722931Y-49097685D01*
X66745427Y-49088367D01*
X66808808Y-49046017D01*
X66826017Y-49028808D01*
X66868368Y-48965425D01*
X66877684Y-48942934D01*
X66888793Y-48887085D01*
X66890000Y-48874830D01*
X66890000Y-48405115D01*
X66885525Y-48389876D01*
X66884135Y-48388671D01*
X66876452Y-48387000D01*
X66185115Y-48387000D01*
X66169876Y-48391475D01*
X66168671Y-48392865D01*
X66167000Y-48400548D01*
X65403659Y-48400548D01*
X65400525Y-48389876D01*
X65399135Y-48388671D01*
X65391452Y-48387000D01*
X64700116Y-48387000D01*
X64684877Y-48391475D01*
X64683672Y-48392865D01*
X64682001Y-48400548D01*
X61983307Y-48400548D01*
X61879192Y-48304304D01*
X61870067Y-48297303D01*
X61708237Y-48195196D01*
X61697986Y-48189973D01*
X61597829Y-48150015D01*
X61583786Y-48148691D01*
X61581000Y-48153530D01*
X60816555Y-48153530D01*
X60815027Y-48148326D01*
X60808944Y-48147452D01*
X60728095Y-48177279D01*
X60717717Y-48182229D01*
X60553273Y-48280063D01*
X60543961Y-48286829D01*
X60400097Y-48412994D01*
X60392180Y-48421337D01*
X60273718Y-48571605D01*
X60267450Y-48581256D01*
X60178358Y-48750592D01*
X60173953Y-48761227D01*
X60167597Y-48781698D01*
X60167378Y-48795799D01*
X59123736Y-48795799D01*
X59309848Y-48140406D01*
X59311703Y-48134440D01*
X59554860Y-47415813D01*
X59556995Y-47409981D01*
X59664561Y-47137170D01*
X64682000Y-47137170D01*
X64682000Y-47606885D01*
X64686475Y-47622124D01*
X64687865Y-47623329D01*
X64695548Y-47625000D01*
X65386885Y-47625000D01*
X65402124Y-47620525D01*
X65403329Y-47619135D01*
X65405000Y-47611452D01*
X65405000Y-46920116D01*
X65403659Y-46915548D01*
X66167000Y-46915548D01*
X66167000Y-47606885D01*
X66171475Y-47622124D01*
X66172865Y-47623329D01*
X66180548Y-47625000D01*
X66871884Y-47625000D01*
X66887123Y-47620525D01*
X66888328Y-47619135D01*
X66889999Y-47611452D01*
X66889999Y-47137172D01*
X66888791Y-47124912D01*
X66877685Y-47069069D01*
X66868367Y-47046573D01*
X66826017Y-46983192D01*
X66808808Y-46965983D01*
X66745425Y-46923632D01*
X66722934Y-46914316D01*
X66667085Y-46903207D01*
X66654830Y-46902000D01*
X66185115Y-46902000D01*
X66169876Y-46906475D01*
X66168671Y-46907865D01*
X66167000Y-46915548D01*
X65403659Y-46915548D01*
X65400525Y-46904877D01*
X65399135Y-46903672D01*
X65391452Y-46902001D01*
X64917172Y-46902001D01*
X64904912Y-46903209D01*
X64849069Y-46914315D01*
X64826573Y-46923633D01*
X64763192Y-46965983D01*
X64745983Y-46983192D01*
X64703632Y-47046575D01*
X64694316Y-47069066D01*
X64683207Y-47124915D01*
X64682000Y-47137170D01*
X59664561Y-47137170D01*
X59697196Y-47054400D01*
X59833935Y-46707602D01*
X59836338Y-46701920D01*
X59897998Y-46565532D01*
X59988975Y-46364293D01*
X60146074Y-46016798D01*
X60148739Y-46011265D01*
X60158182Y-45992828D01*
X63515144Y-45992828D01*
X63533202Y-46156396D01*
X63535812Y-46163528D01*
X63571935Y-46262238D01*
X63589755Y-46310935D01*
X63593991Y-46317238D01*
X63593991Y-46317239D01*
X63677305Y-46441224D01*
X63677308Y-46441227D01*
X63681539Y-46447524D01*
X63803254Y-46558276D01*
X63947874Y-46636798D01*
X64107049Y-46678557D01*
X64192389Y-46679898D01*
X64263993Y-46681023D01*
X64263996Y-46681023D01*
X64271591Y-46681142D01*
X64278996Y-46679446D01*
X64278997Y-46679446D01*
X64337678Y-46666006D01*
X64432000Y-46644404D01*
X64579015Y-46570463D01*
X64676687Y-46487042D01*
X64698376Y-46468518D01*
X64698377Y-46468517D01*
X64704148Y-46463588D01*
X64712021Y-46452632D01*
X64725429Y-46433973D01*
X64781424Y-46390326D01*
X64827751Y-46381500D01*
X65245865Y-46381500D01*
X65270164Y-46384086D01*
X65271602Y-46384154D01*
X65281780Y-46386345D01*
X65315341Y-46382373D01*
X65321320Y-46382021D01*
X65321312Y-46381928D01*
X65326490Y-46381500D01*
X65331692Y-46381500D01*
X65350846Y-46378312D01*
X65356704Y-46377478D01*
X65373318Y-46375512D01*
X65397567Y-46372642D01*
X65397568Y-46372642D01*
X65407907Y-46371418D01*
X65416206Y-46367433D01*
X65425283Y-46365922D01*
X65470651Y-46341442D01*
X65475914Y-46338761D01*
X65515250Y-46319873D01*
X65515254Y-46319870D01*
X65522398Y-46316440D01*
X65526692Y-46312830D01*
X65528624Y-46310898D01*
X65530573Y-46309111D01*
X65530626Y-46309082D01*
X65530745Y-46309212D01*
X65531313Y-46308711D01*
X65537057Y-46305612D01*
X65573854Y-46265805D01*
X65577284Y-46262238D01*
X66150304Y-45689219D01*
X66212616Y-45655194D01*
X66283629Y-45660333D01*
X66398931Y-45703558D01*
X66457311Y-45709900D01*
X66699893Y-45709900D01*
X66942688Y-45709899D01*
X67001069Y-45703558D01*
X67129116Y-45655555D01*
X67238544Y-45573544D01*
X67320555Y-45464116D01*
X67368558Y-45336069D01*
X67374900Y-45277689D01*
X67374900Y-44994548D01*
X67851000Y-44994548D01*
X67851000Y-45283487D01*
X67851279Y-45289398D01*
X67853265Y-45310411D01*
X67856533Y-45325305D01*
X67895851Y-45437268D01*
X67904572Y-45453737D01*
X67974040Y-45547790D01*
X67987210Y-45560960D01*
X68081267Y-45630431D01*
X68097728Y-45639147D01*
X68101907Y-45640615D01*
X68115990Y-45641349D01*
X68119000Y-45635574D01*
X68119000Y-44999115D01*
X68117659Y-44994548D01*
X68881000Y-44994548D01*
X68881000Y-45628502D01*
X68884973Y-45642033D01*
X68891416Y-45642959D01*
X68902272Y-45639147D01*
X68918733Y-45630431D01*
X69012790Y-45560960D01*
X69025960Y-45547790D01*
X69095428Y-45453737D01*
X69104149Y-45437268D01*
X69143467Y-45325305D01*
X69146735Y-45310411D01*
X69148721Y-45289398D01*
X69149000Y-45283487D01*
X69149000Y-44999115D01*
X69144525Y-44983876D01*
X69143135Y-44982671D01*
X69135452Y-44981000D01*
X68899115Y-44981000D01*
X68883876Y-44985475D01*
X68882671Y-44986865D01*
X68881000Y-44994548D01*
X68117659Y-44994548D01*
X68114525Y-44983876D01*
X68113135Y-44982671D01*
X68105452Y-44981000D01*
X67869115Y-44981000D01*
X67853876Y-44985475D01*
X67852671Y-44986865D01*
X67851000Y-44994548D01*
X67374900Y-44994548D01*
X67374900Y-44661828D01*
X77584144Y-44661828D01*
X77602202Y-44825396D01*
X77658755Y-44979935D01*
X77662991Y-44986238D01*
X77662991Y-44986239D01*
X77746305Y-45110224D01*
X77746308Y-45110227D01*
X77750539Y-45116524D01*
X77872254Y-45227276D01*
X78016874Y-45305798D01*
X78176049Y-45347557D01*
X78261389Y-45348898D01*
X78332993Y-45350023D01*
X78332996Y-45350023D01*
X78340591Y-45350142D01*
X78347996Y-45348446D01*
X78347997Y-45348446D01*
X78406678Y-45335006D01*
X78501000Y-45313404D01*
X78648015Y-45239463D01*
X78773148Y-45132588D01*
X78796779Y-45099703D01*
X78852772Y-45056055D01*
X78923476Y-45049609D01*
X78986440Y-45082411D01*
X79021675Y-45144048D01*
X79025101Y-45173229D01*
X79025101Y-45477688D01*
X79031442Y-45536069D01*
X79079445Y-45664116D01*
X79161456Y-45773544D01*
X79270884Y-45855555D01*
X79398931Y-45903558D01*
X79457311Y-45909900D01*
X79699893Y-45909900D01*
X79942688Y-45909899D01*
X80001069Y-45903558D01*
X80129116Y-45855555D01*
X80238544Y-45773544D01*
X80320555Y-45664116D01*
X80368558Y-45536069D01*
X80374900Y-45477689D01*
X80374900Y-45194548D01*
X80851000Y-45194548D01*
X80851000Y-45483487D01*
X80851279Y-45489398D01*
X80853265Y-45510411D01*
X80856533Y-45525305D01*
X80895851Y-45637268D01*
X80904572Y-45653737D01*
X80974040Y-45747790D01*
X80987210Y-45760960D01*
X81081267Y-45830431D01*
X81097728Y-45839147D01*
X81101907Y-45840615D01*
X81115990Y-45841349D01*
X81119000Y-45835574D01*
X81119000Y-45199115D01*
X81117659Y-45194548D01*
X81881000Y-45194548D01*
X81881000Y-45828502D01*
X81884973Y-45842033D01*
X81891416Y-45842959D01*
X81902272Y-45839147D01*
X81918733Y-45830431D01*
X82012790Y-45760960D01*
X82025960Y-45747790D01*
X82095428Y-45653737D01*
X82104149Y-45637268D01*
X82143467Y-45525305D01*
X82146735Y-45510411D01*
X82148721Y-45489398D01*
X82149000Y-45483487D01*
X82149000Y-45199115D01*
X82144525Y-45183876D01*
X82143135Y-45182671D01*
X82135452Y-45181000D01*
X81899115Y-45181000D01*
X81883876Y-45185475D01*
X81882671Y-45186865D01*
X81881000Y-45194548D01*
X81117659Y-45194548D01*
X81114525Y-45183876D01*
X81113135Y-45182671D01*
X81105452Y-45181000D01*
X80869115Y-45181000D01*
X80853876Y-45185475D01*
X80852671Y-45186865D01*
X80851000Y-45194548D01*
X80374900Y-45194548D01*
X80374899Y-44122312D01*
X80374269Y-44116513D01*
X80851000Y-44116513D01*
X80851000Y-44400885D01*
X80855475Y-44416124D01*
X80856865Y-44417329D01*
X80864548Y-44419000D01*
X81100885Y-44419000D01*
X81116124Y-44414525D01*
X81117329Y-44413135D01*
X81119000Y-44405452D01*
X81119000Y-43771498D01*
X81116924Y-43764426D01*
X81881000Y-43764426D01*
X81881000Y-44400885D01*
X81885475Y-44416124D01*
X81886865Y-44417329D01*
X81894548Y-44419000D01*
X82130885Y-44419000D01*
X82146124Y-44414525D01*
X82147329Y-44413135D01*
X82149000Y-44405452D01*
X82149000Y-44116513D01*
X82148721Y-44110602D01*
X82146735Y-44089589D01*
X82143467Y-44074695D01*
X82104149Y-43962732D01*
X82095428Y-43946263D01*
X82025960Y-43852210D01*
X82012790Y-43839040D01*
X81918733Y-43769569D01*
X81902272Y-43760853D01*
X81898093Y-43759385D01*
X81884010Y-43758651D01*
X81881000Y-43764426D01*
X81116924Y-43764426D01*
X81115027Y-43757967D01*
X81108584Y-43757041D01*
X81097728Y-43760853D01*
X81081267Y-43769569D01*
X80987210Y-43839040D01*
X80974040Y-43852210D01*
X80904572Y-43946263D01*
X80895851Y-43962732D01*
X80856533Y-44074695D01*
X80853265Y-44089589D01*
X80851279Y-44110602D01*
X80851000Y-44116513D01*
X80374269Y-44116513D01*
X80368558Y-44063931D01*
X80320555Y-43935884D01*
X80238544Y-43826456D01*
X80157299Y-43765567D01*
X80136296Y-43749826D01*
X80129116Y-43744445D01*
X80001069Y-43696442D01*
X79942689Y-43690100D01*
X79700107Y-43690100D01*
X79457312Y-43690101D01*
X79398931Y-43696442D01*
X79270884Y-43744445D01*
X79263704Y-43749826D01*
X79242701Y-43765567D01*
X79161456Y-43826456D01*
X79079445Y-43935884D01*
X79031442Y-44063931D01*
X79025100Y-44122311D01*
X79025100Y-44162910D01*
X79005098Y-44231031D01*
X78951442Y-44277524D01*
X78881168Y-44287628D01*
X78816588Y-44258134D01*
X78795261Y-44234279D01*
X78787048Y-44222329D01*
X78782747Y-44216071D01*
X78776737Y-44210716D01*
X78665550Y-44111653D01*
X78665547Y-44111651D01*
X78659878Y-44106600D01*
X78529106Y-44037359D01*
X78521159Y-44033151D01*
X78521156Y-44033150D01*
X78514444Y-44029596D01*
X78507078Y-44027746D01*
X78507076Y-44027745D01*
X78362211Y-43991358D01*
X78362208Y-43991358D01*
X78354840Y-43989507D01*
X78347241Y-43989467D01*
X78347239Y-43989467D01*
X78279312Y-43989111D01*
X78190280Y-43988645D01*
X78182900Y-43990417D01*
X78182898Y-43990417D01*
X78037644Y-44025289D01*
X78037640Y-44025290D01*
X78030265Y-44027061D01*
X77884032Y-44102537D01*
X77760025Y-44210716D01*
X77665401Y-44345353D01*
X77662642Y-44352428D01*
X77662641Y-44352431D01*
X77637808Y-44416124D01*
X77605623Y-44498674D01*
X77584144Y-44661828D01*
X67374900Y-44661828D01*
X67374899Y-43922312D01*
X67368558Y-43863931D01*
X67364164Y-43852210D01*
X67362885Y-43848797D01*
X67357702Y-43777990D01*
X67391624Y-43715621D01*
X67452738Y-43681748D01*
X67516407Y-43667166D01*
X67594271Y-43649333D01*
X67734434Y-43578838D01*
X67804275Y-43566100D01*
X67869919Y-43593144D01*
X67910521Y-43651385D01*
X67913190Y-43722332D01*
X67902400Y-43750362D01*
X67895853Y-43762727D01*
X67856533Y-43874695D01*
X67853265Y-43889589D01*
X67851279Y-43910602D01*
X67851000Y-43916513D01*
X67851000Y-44200885D01*
X67855475Y-44216124D01*
X67856865Y-44217329D01*
X67864548Y-44219000D01*
X68100885Y-44219000D01*
X68116124Y-44214525D01*
X68117329Y-44213135D01*
X68119000Y-44205452D01*
X68119000Y-43571498D01*
X68116924Y-43564426D01*
X68881000Y-43564426D01*
X68881000Y-44200885D01*
X68885475Y-44216124D01*
X68886865Y-44217329D01*
X68894548Y-44219000D01*
X69130885Y-44219000D01*
X69146124Y-44214525D01*
X69147329Y-44213135D01*
X69149000Y-44205452D01*
X69149000Y-43916513D01*
X69148721Y-43910602D01*
X69146735Y-43889589D01*
X69143467Y-43874695D01*
X69104149Y-43762732D01*
X69095428Y-43746263D01*
X69025960Y-43652210D01*
X69012790Y-43639040D01*
X68918733Y-43569569D01*
X68902272Y-43560853D01*
X68898093Y-43559385D01*
X68884010Y-43558651D01*
X68881000Y-43564426D01*
X68116924Y-43564426D01*
X68115027Y-43557967D01*
X68108584Y-43557041D01*
X68097730Y-43560852D01*
X68092032Y-43563869D01*
X68022469Y-43578067D01*
X67956273Y-43552402D01*
X67914462Y-43495024D01*
X67910308Y-43424149D01*
X67930750Y-43378991D01*
X67962448Y-43334879D01*
X68023828Y-43182193D01*
X68047015Y-43019272D01*
X68047165Y-43004929D01*
X68046085Y-42996000D01*
X68042331Y-42964981D01*
X72766451Y-42964981D01*
X72780634Y-43181368D01*
X72834012Y-43391546D01*
X72924799Y-43588477D01*
X72928132Y-43593193D01*
X73035026Y-43744445D01*
X73049953Y-43765567D01*
X73054095Y-43769602D01*
X73135391Y-43848797D01*
X73205284Y-43916883D01*
X73210088Y-43920093D01*
X73213409Y-43922312D01*
X73385588Y-44037359D01*
X73390896Y-44039640D01*
X73390897Y-44039640D01*
X73579526Y-44120681D01*
X73579529Y-44120682D01*
X73584829Y-44122959D01*
X73590459Y-44124233D01*
X73700111Y-44149045D01*
X73796332Y-44170818D01*
X73802101Y-44171045D01*
X73802104Y-44171045D01*
X73883886Y-44174258D01*
X74013016Y-44179331D01*
X74105297Y-44165951D01*
X74221901Y-44149045D01*
X74221906Y-44149044D01*
X74227622Y-44148215D01*
X74233094Y-44146357D01*
X74233096Y-44146357D01*
X74372439Y-44099056D01*
X74432965Y-44078510D01*
X74469088Y-44058280D01*
X74617119Y-43975379D01*
X74617123Y-43975376D01*
X74622166Y-43972552D01*
X74788890Y-43833890D01*
X74927552Y-43667166D01*
X74930376Y-43662123D01*
X74930379Y-43662119D01*
X75030687Y-43483006D01*
X75030687Y-43483005D01*
X75033510Y-43477965D01*
X75070620Y-43368642D01*
X75101357Y-43278096D01*
X75101357Y-43278094D01*
X75103215Y-43272622D01*
X75104044Y-43266906D01*
X75104045Y-43266901D01*
X75129144Y-43093789D01*
X75134331Y-43058016D01*
X75135955Y-42996000D01*
X75116113Y-42780059D01*
X75109970Y-42758276D01*
X75058821Y-42576915D01*
X75058819Y-42576910D01*
X75057251Y-42571350D01*
X75050796Y-42558259D01*
X74963894Y-42382042D01*
X74961340Y-42376863D01*
X74831593Y-42203110D01*
X74672355Y-42055912D01*
X74488958Y-41940197D01*
X74287545Y-41859842D01*
X74281877Y-41858715D01*
X74276339Y-41857074D01*
X74277021Y-41854772D01*
X74223294Y-41826655D01*
X74188173Y-41764954D01*
X74191986Y-41694060D01*
X74233521Y-41636481D01*
X74299592Y-41610499D01*
X74310801Y-41609999D01*
X74869828Y-41609999D01*
X74882088Y-41608791D01*
X74937931Y-41597685D01*
X74960427Y-41588367D01*
X75023808Y-41546017D01*
X75041017Y-41528808D01*
X75083368Y-41465425D01*
X75092684Y-41442934D01*
X75103793Y-41387085D01*
X75105000Y-41374830D01*
X75105000Y-41194548D01*
X79051000Y-41194548D01*
X79051000Y-41483487D01*
X79051279Y-41489398D01*
X79053265Y-41510411D01*
X79056533Y-41525305D01*
X79095851Y-41637268D01*
X79104572Y-41653737D01*
X79174040Y-41747790D01*
X79187210Y-41760960D01*
X79281267Y-41830431D01*
X79297728Y-41839147D01*
X79301907Y-41840615D01*
X79315990Y-41841349D01*
X79319000Y-41835574D01*
X79319000Y-41199115D01*
X79317659Y-41194548D01*
X80081000Y-41194548D01*
X80081000Y-41828502D01*
X80084973Y-41842033D01*
X80091416Y-41842959D01*
X80102272Y-41839147D01*
X80118733Y-41830431D01*
X80212790Y-41760960D01*
X80225960Y-41747790D01*
X80295428Y-41653737D01*
X80304149Y-41637268D01*
X80343467Y-41525305D01*
X80346735Y-41510411D01*
X80348721Y-41489398D01*
X80349000Y-41483487D01*
X80349000Y-41199115D01*
X80344525Y-41183876D01*
X80343135Y-41182671D01*
X80335452Y-41181000D01*
X80099115Y-41181000D01*
X80083876Y-41185475D01*
X80082671Y-41186865D01*
X80081000Y-41194548D01*
X79317659Y-41194548D01*
X79314525Y-41183876D01*
X79313135Y-41182671D01*
X79305452Y-41181000D01*
X79069115Y-41181000D01*
X79053876Y-41185475D01*
X79052671Y-41186865D01*
X79051000Y-41194548D01*
X75105000Y-41194548D01*
X75105000Y-40855115D01*
X75100525Y-40839876D01*
X75099135Y-40838671D01*
X75091452Y-40837000D01*
X72815116Y-40837000D01*
X72799877Y-40841475D01*
X72798672Y-40842865D01*
X72797001Y-40850548D01*
X72797001Y-41374828D01*
X72798209Y-41387088D01*
X72809315Y-41442931D01*
X72818633Y-41465427D01*
X72860983Y-41528808D01*
X72878192Y-41546017D01*
X72941575Y-41588368D01*
X72964066Y-41597684D01*
X73019915Y-41608793D01*
X73032170Y-41610000D01*
X73593136Y-41610000D01*
X73661257Y-41630002D01*
X73707750Y-41683658D01*
X73717854Y-41753932D01*
X73688360Y-41818512D01*
X73636748Y-41854211D01*
X73440864Y-41926477D01*
X73435903Y-41929429D01*
X73435902Y-41929429D01*
X73259469Y-42034395D01*
X73259466Y-42034397D01*
X73254501Y-42037351D01*
X73250161Y-42041157D01*
X73250157Y-42041160D01*
X73135886Y-42141374D01*
X73091464Y-42180331D01*
X72957213Y-42350627D01*
X72954524Y-42355738D01*
X72954522Y-42355741D01*
X72910731Y-42438975D01*
X72856244Y-42542537D01*
X72791939Y-42749634D01*
X72766451Y-42964981D01*
X68042331Y-42964981D01*
X68028308Y-42849102D01*
X68028308Y-42849100D01*
X68027395Y-42841559D01*
X68006332Y-42785816D01*
X67971912Y-42694725D01*
X67971911Y-42694723D01*
X67969227Y-42687620D01*
X67889317Y-42571350D01*
X67880320Y-42558259D01*
X67880319Y-42558257D01*
X67876018Y-42552000D01*
X67858453Y-42536350D01*
X67758821Y-42447582D01*
X67758818Y-42447580D01*
X67753149Y-42442529D01*
X67629129Y-42376863D01*
X67614430Y-42369080D01*
X67614427Y-42369079D01*
X67607715Y-42365525D01*
X67600349Y-42363675D01*
X67600347Y-42363674D01*
X67556548Y-42352673D01*
X67495352Y-42316679D01*
X67463331Y-42253313D01*
X67470651Y-42182695D01*
X67498148Y-42141374D01*
X67950303Y-41689219D01*
X68012615Y-41655193D01*
X68083626Y-41660332D01*
X68198931Y-41703558D01*
X68257311Y-41709900D01*
X68499893Y-41709900D01*
X68742688Y-41709899D01*
X68801069Y-41703558D01*
X68815762Y-41698050D01*
X68887127Y-41671296D01*
X68929116Y-41655555D01*
X69038544Y-41573544D01*
X69120555Y-41464116D01*
X69168558Y-41336069D01*
X69174900Y-41277689D01*
X69174899Y-40116513D01*
X79051000Y-40116513D01*
X79051000Y-40400885D01*
X79055475Y-40416124D01*
X79056865Y-40417329D01*
X79064548Y-40419000D01*
X79300885Y-40419000D01*
X79316124Y-40414525D01*
X79317329Y-40413135D01*
X79319000Y-40405452D01*
X79319000Y-39771498D01*
X79316924Y-39764426D01*
X80081000Y-39764426D01*
X80081000Y-40400885D01*
X80085475Y-40416124D01*
X80086865Y-40417329D01*
X80094548Y-40419000D01*
X80330885Y-40419000D01*
X80346124Y-40414525D01*
X80347329Y-40413135D01*
X80349000Y-40405452D01*
X80349000Y-40122311D01*
X80825100Y-40122311D01*
X80825101Y-41477688D01*
X80831442Y-41536069D01*
X80879445Y-41664116D01*
X80961456Y-41773544D01*
X81070884Y-41855555D01*
X81198931Y-41903558D01*
X81257311Y-41909900D01*
X81499893Y-41909900D01*
X81742688Y-41909899D01*
X81801069Y-41903558D01*
X81929116Y-41855555D01*
X82038544Y-41773544D01*
X82120555Y-41664116D01*
X82168558Y-41536069D01*
X82169411Y-41528219D01*
X82171184Y-41520762D01*
X82206402Y-41459116D01*
X82269357Y-41426297D01*
X82340152Y-41432759D01*
X82341197Y-41433173D01*
X82347874Y-41436798D01*
X82507049Y-41478557D01*
X82592389Y-41479898D01*
X82663993Y-41481023D01*
X82663996Y-41481023D01*
X82671591Y-41481142D01*
X82678996Y-41479446D01*
X82678997Y-41479446D01*
X82740216Y-41465425D01*
X82832000Y-41444404D01*
X82979015Y-41370463D01*
X83104148Y-41263588D01*
X83200177Y-41129950D01*
X83255798Y-40991590D01*
X83258722Y-40984317D01*
X83258723Y-40984315D01*
X83261557Y-40977264D01*
X83279728Y-40849585D01*
X83284163Y-40818426D01*
X83284163Y-40818425D01*
X83284744Y-40814343D01*
X83284894Y-40800000D01*
X83279002Y-40751307D01*
X83266037Y-40644173D01*
X83266037Y-40644171D01*
X83265124Y-40636630D01*
X83206956Y-40482691D01*
X83113747Y-40347071D01*
X83108076Y-40342018D01*
X82996550Y-40242653D01*
X82996547Y-40242651D01*
X82990878Y-40237600D01*
X82921536Y-40200885D01*
X82852159Y-40164151D01*
X82852156Y-40164150D01*
X82845444Y-40160596D01*
X82838078Y-40158746D01*
X82838076Y-40158745D01*
X82693211Y-40122358D01*
X82693208Y-40122358D01*
X82685840Y-40120507D01*
X82678241Y-40120467D01*
X82678239Y-40120467D01*
X82610312Y-40120111D01*
X82521280Y-40119645D01*
X82513900Y-40121417D01*
X82513898Y-40121417D01*
X82368644Y-40156289D01*
X82368640Y-40156290D01*
X82361265Y-40158061D01*
X82354523Y-40161541D01*
X82354517Y-40161543D01*
X82351687Y-40163004D01*
X82349402Y-40163445D01*
X82347395Y-40164192D01*
X82347271Y-40163857D01*
X82281980Y-40176473D01*
X82216057Y-40150117D01*
X82174847Y-40092305D01*
X82171931Y-40079305D01*
X82171238Y-40079470D01*
X82169411Y-40071786D01*
X82168558Y-40063931D01*
X82120555Y-39935884D01*
X82038544Y-39826456D01*
X81929116Y-39744445D01*
X81801069Y-39696442D01*
X81742689Y-39690100D01*
X81500107Y-39690100D01*
X81257312Y-39690101D01*
X81198931Y-39696442D01*
X81070884Y-39744445D01*
X80961456Y-39826456D01*
X80879445Y-39935884D01*
X80831442Y-40063931D01*
X80825100Y-40122311D01*
X80349000Y-40122311D01*
X80349000Y-40116513D01*
X80348721Y-40110602D01*
X80346735Y-40089589D01*
X80343467Y-40074695D01*
X80304149Y-39962732D01*
X80295428Y-39946263D01*
X80225960Y-39852210D01*
X80212790Y-39839040D01*
X80118733Y-39769569D01*
X80102272Y-39760853D01*
X80098093Y-39759385D01*
X80084010Y-39758651D01*
X80081000Y-39764426D01*
X79316924Y-39764426D01*
X79315027Y-39757967D01*
X79308584Y-39757041D01*
X79297728Y-39760853D01*
X79281267Y-39769569D01*
X79187210Y-39839040D01*
X79174040Y-39852210D01*
X79104572Y-39946263D01*
X79095851Y-39962732D01*
X79056533Y-40074695D01*
X79053265Y-40089589D01*
X79051279Y-40110602D01*
X79051000Y-40116513D01*
X69174899Y-40116513D01*
X69174899Y-39922312D01*
X69168558Y-39863931D01*
X69120555Y-39735884D01*
X69038544Y-39626456D01*
X68929116Y-39544445D01*
X68909710Y-39537170D01*
X72797000Y-39537170D01*
X72797000Y-40056885D01*
X72801475Y-40072124D01*
X72802865Y-40073329D01*
X72810548Y-40075000D01*
X73551885Y-40075000D01*
X73567124Y-40070525D01*
X73568329Y-40069135D01*
X73570000Y-40061452D01*
X73570000Y-39320116D01*
X73568659Y-39315548D01*
X74332000Y-39315548D01*
X74332000Y-40056885D01*
X74336475Y-40072124D01*
X74337865Y-40073329D01*
X74345548Y-40075000D01*
X75086884Y-40075000D01*
X75102123Y-40070525D01*
X75103328Y-40069135D01*
X75104999Y-40061452D01*
X75104999Y-39537172D01*
X75103791Y-39524912D01*
X75092685Y-39469069D01*
X75083367Y-39446573D01*
X75041017Y-39383192D01*
X75023808Y-39365983D01*
X74960425Y-39323632D01*
X74937934Y-39314316D01*
X74882085Y-39303207D01*
X74869830Y-39302000D01*
X74350115Y-39302000D01*
X74334876Y-39306475D01*
X74333671Y-39307865D01*
X74332000Y-39315548D01*
X73568659Y-39315548D01*
X73565525Y-39304877D01*
X73564135Y-39303672D01*
X73556452Y-39302001D01*
X73032172Y-39302001D01*
X73019912Y-39303209D01*
X72964069Y-39314315D01*
X72941573Y-39323633D01*
X72878192Y-39365983D01*
X72860983Y-39383192D01*
X72818632Y-39446575D01*
X72809316Y-39469066D01*
X72798207Y-39524915D01*
X72797000Y-39537170D01*
X68909710Y-39537170D01*
X68801069Y-39496442D01*
X68742689Y-39490100D01*
X68500107Y-39490100D01*
X68257312Y-39490101D01*
X68198931Y-39496442D01*
X68070884Y-39544445D01*
X67961456Y-39626456D01*
X67879445Y-39735884D01*
X67831442Y-39863931D01*
X67825100Y-39922311D01*
X67825101Y-40326709D01*
X67825101Y-40683186D01*
X67805099Y-40751307D01*
X67788196Y-40772281D01*
X67547364Y-41013113D01*
X67485052Y-41047139D01*
X67414237Y-41042074D01*
X67357401Y-40999527D01*
X67353428Y-40991590D01*
X67343135Y-40982671D01*
X67335452Y-40981000D01*
X66069115Y-40981000D01*
X66053876Y-40985475D01*
X66052671Y-40986865D01*
X66051000Y-40994548D01*
X66051000Y-41283487D01*
X66051279Y-41289398D01*
X66053265Y-41310411D01*
X66056533Y-41325305D01*
X66095851Y-41437268D01*
X66104569Y-41453733D01*
X66159602Y-41528242D01*
X66183984Y-41594921D01*
X66168447Y-41664197D01*
X66141080Y-41698050D01*
X66091025Y-41741716D01*
X65996401Y-41876353D01*
X65993642Y-41883428D01*
X65993641Y-41883431D01*
X65977637Y-41924479D01*
X65936623Y-42029674D01*
X65935631Y-42037207D01*
X65935631Y-42037208D01*
X65921918Y-42141374D01*
X65915144Y-42192828D01*
X65933202Y-42356396D01*
X65935812Y-42363528D01*
X65979938Y-42484108D01*
X65989755Y-42510935D01*
X65993991Y-42517238D01*
X65993991Y-42517239D01*
X66077305Y-42641224D01*
X66077308Y-42641227D01*
X66081539Y-42647524D01*
X66125604Y-42687620D01*
X66193757Y-42749634D01*
X66203254Y-42758276D01*
X66347874Y-42836798D01*
X66507049Y-42878557D01*
X66554221Y-42879298D01*
X66622019Y-42900367D01*
X66667664Y-42954746D01*
X66676453Y-42997862D01*
X66677415Y-42997756D01*
X66677415Y-42997757D01*
X66685939Y-43074961D01*
X66673534Y-43144864D01*
X66649795Y-43177882D01*
X66468521Y-43359156D01*
X66449505Y-43374515D01*
X66448444Y-43375481D01*
X66439696Y-43381129D01*
X66433250Y-43389306D01*
X66418771Y-43407672D01*
X66414794Y-43412147D01*
X66414865Y-43412208D01*
X66411512Y-43416165D01*
X66407829Y-43419848D01*
X66404803Y-43424083D01*
X66404801Y-43424085D01*
X66396547Y-43435636D01*
X66392984Y-43440382D01*
X66361066Y-43480870D01*
X66361054Y-43480861D01*
X66315048Y-43526604D01*
X66299212Y-43533825D01*
X66270884Y-43544445D01*
X66263704Y-43549826D01*
X66237361Y-43569569D01*
X66161456Y-43626456D01*
X66079445Y-43735884D01*
X66031442Y-43863931D01*
X66025100Y-43922311D01*
X66025101Y-44312900D01*
X66025101Y-44683186D01*
X66005099Y-44751307D01*
X65988196Y-44772282D01*
X65178881Y-45581596D01*
X65116569Y-45615621D01*
X65089786Y-45618500D01*
X64829131Y-45618500D01*
X64761010Y-45598498D01*
X64725292Y-45563869D01*
X64718048Y-45553329D01*
X64713747Y-45547071D01*
X64707737Y-45541716D01*
X64596550Y-45442653D01*
X64596547Y-45442651D01*
X64590878Y-45437600D01*
X64522901Y-45401608D01*
X64452159Y-45364151D01*
X64452156Y-45364150D01*
X64445444Y-45360596D01*
X64438078Y-45358746D01*
X64438076Y-45358745D01*
X64293211Y-45322358D01*
X64293208Y-45322358D01*
X64285840Y-45320507D01*
X64278241Y-45320467D01*
X64278239Y-45320467D01*
X64210312Y-45320111D01*
X64121280Y-45319645D01*
X64113900Y-45321417D01*
X64113898Y-45321417D01*
X63968644Y-45356289D01*
X63968640Y-45356290D01*
X63961265Y-45358061D01*
X63815032Y-45433537D01*
X63691025Y-45541716D01*
X63596401Y-45676353D01*
X63593642Y-45683428D01*
X63593641Y-45683431D01*
X63550107Y-45795089D01*
X63536623Y-45829674D01*
X63535631Y-45837207D01*
X63535631Y-45837208D01*
X63535183Y-45840615D01*
X63515144Y-45992828D01*
X60158182Y-45992828D01*
X60490336Y-45344304D01*
X60493252Y-45338936D01*
X60865727Y-44691139D01*
X60868884Y-44685942D01*
X60868886Y-44685940D01*
X61108037Y-44312900D01*
X61271271Y-44058280D01*
X61274661Y-44053263D01*
X61705983Y-43446719D01*
X61709597Y-43441885D01*
X62168890Y-42857429D01*
X62172722Y-42852786D01*
X62658989Y-42291421D01*
X62663032Y-42286972D01*
X63175347Y-41749621D01*
X63179578Y-41745390D01*
X63716921Y-41233082D01*
X63721361Y-41229047D01*
X64282757Y-40742753D01*
X64287401Y-40738921D01*
X64358325Y-40683186D01*
X64871860Y-40279627D01*
X64876687Y-40276018D01*
X64923607Y-40242653D01*
X65165660Y-40070525D01*
X65483209Y-39844711D01*
X65488226Y-39841321D01*
X65950046Y-39545254D01*
X66018189Y-39525328D01*
X66086288Y-39545406D01*
X66132721Y-39599113D01*
X66142746Y-39669399D01*
X66119400Y-39726187D01*
X66104572Y-39746263D01*
X66095851Y-39762732D01*
X66056533Y-39874695D01*
X66053265Y-39889589D01*
X66051279Y-39910602D01*
X66051000Y-39916513D01*
X66051000Y-40200885D01*
X66055475Y-40216124D01*
X66056865Y-40217329D01*
X66064548Y-40219000D01*
X66300885Y-40219000D01*
X66316124Y-40214525D01*
X66317329Y-40213135D01*
X66319000Y-40205452D01*
X66319000Y-39571498D01*
X66316923Y-39564426D01*
X67081000Y-39564426D01*
X67081000Y-40200885D01*
X67085475Y-40216124D01*
X67086865Y-40217329D01*
X67094548Y-40219000D01*
X67330885Y-40219000D01*
X67346124Y-40214525D01*
X67347329Y-40213135D01*
X67349000Y-40205452D01*
X67349000Y-39916513D01*
X67348721Y-39910602D01*
X67346735Y-39889589D01*
X67343467Y-39874695D01*
X67304149Y-39762732D01*
X67295428Y-39746263D01*
X67225960Y-39652210D01*
X67212790Y-39639040D01*
X67118733Y-39569569D01*
X67102272Y-39560853D01*
X67098093Y-39559385D01*
X67084010Y-39558651D01*
X67081000Y-39564426D01*
X66316923Y-39564426D01*
X66314525Y-39556259D01*
X66290456Y-39535403D01*
X66286669Y-39533673D01*
X66248294Y-39473941D01*
X66248304Y-39402945D01*
X66286696Y-39343224D01*
X66306389Y-39329229D01*
X66768893Y-39063295D01*
X66774261Y-39060379D01*
X67247616Y-38817941D01*
X67441221Y-38718783D01*
X67446740Y-38716124D01*
X68131874Y-38406381D01*
X68137556Y-38403978D01*
X68839948Y-38127035D01*
X68845781Y-38124900D01*
X69564413Y-37881742D01*
X69570378Y-37879887D01*
X70132664Y-37720215D01*
X70304286Y-37671480D01*
X70310359Y-37669917D01*
X71058695Y-37497203D01*
X71064861Y-37495942D01*
X71307947Y-37452531D01*
X71826586Y-37359912D01*
X71832854Y-37358955D01*
X72343340Y-37294087D01*
X72607052Y-37260577D01*
X72613360Y-37259937D01*
X72950513Y-37234299D01*
X73399109Y-37200188D01*
X73405478Y-37199865D01*
X74201925Y-37179726D01*
X74208295Y-37179726D01*
X75004725Y-37199864D01*
G37*
G04 #@! TD.AperFunction*
G04 #@! TA.AperFunction,Conductor*
G36*
X88487669Y-54722605D02*
G01*
X88539343Y-54771292D01*
X88556600Y-54834940D01*
X88556600Y-56455039D01*
X88536598Y-56523160D01*
X88482942Y-56569653D01*
X88412668Y-56579757D01*
X88348088Y-56550263D01*
X88317594Y-56510767D01*
X88229081Y-56331280D01*
X88226526Y-56326099D01*
X88102277Y-56159710D01*
X87957098Y-56025507D01*
X87954032Y-56022673D01*
X87949787Y-56018749D01*
X87944904Y-56015668D01*
X87944900Y-56015665D01*
X87779045Y-55911019D01*
X87774162Y-55907938D01*
X87581284Y-55830988D01*
X87377613Y-55790475D01*
X87371838Y-55790399D01*
X87371834Y-55790399D01*
X87268045Y-55789041D01*
X87169969Y-55787757D01*
X87164272Y-55788736D01*
X87164271Y-55788736D01*
X86971004Y-55821945D01*
X86971003Y-55821945D01*
X86965307Y-55822924D01*
X86770481Y-55894799D01*
X86765520Y-55897751D01*
X86765519Y-55897751D01*
X86596984Y-55998019D01*
X86596981Y-55998021D01*
X86592016Y-56000975D01*
X86587676Y-56004781D01*
X86587672Y-56004784D01*
X86518330Y-56065596D01*
X86435888Y-56137896D01*
X86307326Y-56300976D01*
X86304637Y-56306087D01*
X86304635Y-56306090D01*
X86294108Y-56326099D01*
X86210636Y-56484753D01*
X86149056Y-56683074D01*
X86124648Y-56889296D01*
X86138230Y-57096513D01*
X86189346Y-57297784D01*
X86276285Y-57486370D01*
X86396136Y-57655955D01*
X86544884Y-57800859D01*
X86717548Y-57916230D01*
X86722851Y-57918508D01*
X86722854Y-57918510D01*
X86874214Y-57983539D01*
X86908346Y-57998203D01*
X86982568Y-58014998D01*
X87105250Y-58042758D01*
X87105255Y-58042759D01*
X87110887Y-58044033D01*
X87116658Y-58044260D01*
X87116660Y-58044260D01*
X87178876Y-58046704D01*
X87318388Y-58052186D01*
X87439422Y-58034637D01*
X87518178Y-58023218D01*
X87518182Y-58023217D01*
X87523900Y-58022388D01*
X87529372Y-58020530D01*
X87529374Y-58020530D01*
X87715077Y-57957492D01*
X87715079Y-57957491D01*
X87720541Y-57955637D01*
X87901724Y-57854170D01*
X88061383Y-57721383D01*
X88194170Y-57561724D01*
X88295637Y-57380541D01*
X88297539Y-57374940D01*
X88311287Y-57334438D01*
X88352124Y-57276362D01*
X88417877Y-57249584D01*
X88487669Y-57262605D01*
X88539343Y-57311292D01*
X88556600Y-57374940D01*
X88556600Y-58410111D01*
X88536598Y-58478232D01*
X88482942Y-58524725D01*
X88430600Y-58536111D01*
X83557245Y-58536112D01*
X83409407Y-58536112D01*
X83405710Y-58536552D01*
X83405705Y-58536552D01*
X83399916Y-58537241D01*
X83384999Y-58539015D01*
X83289706Y-58581343D01*
X83281484Y-58589580D01*
X83271902Y-58596165D01*
X83270304Y-58593839D01*
X83223287Y-58619564D01*
X83152467Y-58614559D01*
X83095596Y-58572060D01*
X83070729Y-58505561D01*
X83070400Y-58496466D01*
X83070400Y-58272036D01*
X83090402Y-58203915D01*
X83107305Y-58182941D01*
X86198563Y-55091683D01*
X86260875Y-55057657D01*
X86331690Y-55062722D01*
X86389014Y-55106874D01*
X86389049Y-55106844D01*
X86389191Y-55107011D01*
X86390559Y-55108064D01*
X86396136Y-55115955D01*
X86400272Y-55119984D01*
X86537864Y-55254020D01*
X86544884Y-55260859D01*
X86717548Y-55376230D01*
X86722851Y-55378508D01*
X86722854Y-55378510D01*
X86813588Y-55417492D01*
X86908346Y-55458203D01*
X86982568Y-55474998D01*
X87105250Y-55502758D01*
X87105255Y-55502759D01*
X87110887Y-55504033D01*
X87116658Y-55504260D01*
X87116660Y-55504260D01*
X87178876Y-55506704D01*
X87318388Y-55512186D01*
X87439422Y-55494637D01*
X87518178Y-55483218D01*
X87518182Y-55483217D01*
X87523900Y-55482388D01*
X87529372Y-55480530D01*
X87529374Y-55480530D01*
X87715077Y-55417492D01*
X87715079Y-55417491D01*
X87720541Y-55415637D01*
X87901724Y-55314170D01*
X88061383Y-55181383D01*
X88135986Y-55091683D01*
X88190479Y-55026162D01*
X88194170Y-55021724D01*
X88295637Y-54840541D01*
X88297539Y-54834940D01*
X88311287Y-54794438D01*
X88352124Y-54736362D01*
X88417877Y-54709584D01*
X88487669Y-54722605D01*
G37*
G04 #@! TD.AperFunction*
M02*
