<svg id="_0" data-name="0" xmlns="http://www.w3.org/2000/svg" viewBox="0 0 12.33 19.98"><defs><style>.cls-1{fill:none;stroke:#000;stroke-linecap:round;stroke-linejoin:round;stroke-width:0.71px;}</style></defs><title>motor_hole</title><g id="LINE"><polygon class="cls-1" points="0.35 11.41 0.35 11.23 0.35 11.05 0.35 10.88 0.35 10.7 0.35 10.52 0.35 10.34 0.35 10.17 0.35 9.99 0.35 9.81 0.35 9.63 0.35 9.46 0.35 9.28 0.35 9.1 0.35 8.93 0.35 8.75 0.35 8.57 0.38 7.73 0.47 6.92 0.62 6.13 0.81 5.37 1.06 4.66 1.35 3.98 1.68 3.35 2.06 2.76 2.47 2.23 2.92 1.76 3.4 1.35 3.9 1 4.44 0.72 4.99 0.52 5.57 0.4 6.17 0.35 6.76 0.4 7.34 0.52 7.89 0.72 8.43 1 8.94 1.35 9.41 1.76 9.86 2.23 10.27 2.76 10.65 3.35 10.98 3.98 11.28 4.66 11.52 5.37 11.71 6.13 11.86 6.92 11.95 7.73 11.98 8.57 11.98 8.75 11.98 8.93 11.98 9.1 11.98 9.28 11.98 9.46 11.98 9.63 11.98 9.81 11.98 9.99 11.98 10.17 11.98 10.34 11.98 10.52 11.98 10.7 11.98 10.88 11.98 11.05 11.98 11.23 11.98 11.41 11.95 12.25 11.86 13.06 11.71 13.85 11.52 14.61 11.28 15.32 10.98 16 10.65 16.63 10.27 17.22 9.86 17.75 9.41 18.22 8.94 18.63 8.43 18.98 7.89 19.26 7.34 19.46 6.76 19.58 6.17 19.63 5.57 19.58 4.99 19.46 4.44 19.26 3.9 18.98 3.4 18.63 2.92 18.22 2.47 17.75 2.06 17.22 1.68 16.63 1.35 16 1.06 15.32 0.81 14.61 0.62 13.85 0.47 13.06 0.38 12.25 0.35 11.41 0.35 11.41"/></g></svg>