G04 #@! TF.GenerationSoftware,KiCad,Pcbnew,(5.0.0-3-g5ebb6b6)*
G04 #@! TF.CreationDate,2019-01-13T20:11:43-05:00*
G04 #@! TF.ProjectId,phone_charger,70686F6E655F636861726765722E6B69,2*
G04 #@! TF.SameCoordinates,Original*
G04 #@! TF.FileFunction,Soldermask,Bot*
G04 #@! TF.FilePolarity,Negative*
%FSLAX46Y46*%
G04 Gerber Fmt 4.6, Leading zero omitted, Abs format (unit mm)*
G04 Created by KiCad (PCBNEW (5.0.0-3-g5ebb6b6)) date Sunday, January 13, 2019 at 08:11:43 PM*
%MOMM*%
%LPD*%
G01*
G04 APERTURE LIST*
%ADD10C,0.100000*%
G04 APERTURE END LIST*
D10*
G36*
X91422400Y-83345200D02*
X89222400Y-83345200D01*
X89222400Y-81145200D01*
X91422400Y-81145200D01*
X91422400Y-83345200D01*
X91422400Y-83345200D01*
G37*
G36*
X99367600Y-83070400D02*
X93367600Y-83070400D01*
X93367600Y-80370400D01*
X99367600Y-80370400D01*
X99367600Y-83070400D01*
X99367600Y-83070400D01*
G37*
G36*
X91422400Y-80145200D02*
X89222400Y-80145200D01*
X89222400Y-77945200D01*
X91422400Y-77945200D01*
X91422400Y-80145200D01*
X91422400Y-80145200D01*
G37*
G36*
X91575600Y-77046800D02*
X89475600Y-77046800D01*
X89475600Y-74946800D01*
X91575600Y-74946800D01*
X91575600Y-77046800D01*
X91575600Y-77046800D01*
G37*
G36*
X99367600Y-75670400D02*
X93367600Y-75670400D01*
X93367600Y-72970400D01*
X99367600Y-72970400D01*
X99367600Y-75670400D01*
X99367600Y-75670400D01*
G37*
G36*
X90654307Y-72414397D02*
X90731436Y-72421993D01*
X90863387Y-72462020D01*
X90929363Y-72482033D01*
X91111772Y-72579533D01*
X91271654Y-72710746D01*
X91402867Y-72870628D01*
X91500367Y-73053037D01*
X91500367Y-73053038D01*
X91560407Y-73250964D01*
X91580680Y-73456800D01*
X91560407Y-73662636D01*
X91520380Y-73794587D01*
X91500367Y-73860563D01*
X91402867Y-74042972D01*
X91271654Y-74202854D01*
X91111772Y-74334067D01*
X90929363Y-74431567D01*
X90863387Y-74451580D01*
X90731436Y-74491607D01*
X90654307Y-74499204D01*
X90577180Y-74506800D01*
X90474020Y-74506800D01*
X90396893Y-74499204D01*
X90319764Y-74491607D01*
X90187813Y-74451580D01*
X90121837Y-74431567D01*
X89939428Y-74334067D01*
X89779546Y-74202854D01*
X89648333Y-74042972D01*
X89550833Y-73860563D01*
X89530820Y-73794587D01*
X89490793Y-73662636D01*
X89470520Y-73456800D01*
X89490793Y-73250964D01*
X89550833Y-73053038D01*
X89550833Y-73053037D01*
X89648333Y-72870628D01*
X89779546Y-72710746D01*
X89939428Y-72579533D01*
X90121837Y-72482033D01*
X90187813Y-72462020D01*
X90319764Y-72421993D01*
X90396893Y-72414397D01*
X90474020Y-72406800D01*
X90577180Y-72406800D01*
X90654307Y-72414397D01*
X90654307Y-72414397D01*
G37*
G36*
X90345770Y-68966972D02*
X90461689Y-68990029D01*
X90643678Y-69065411D01*
X90807463Y-69174849D01*
X90946751Y-69314137D01*
X91056189Y-69477922D01*
X91131571Y-69659911D01*
X91170000Y-69853109D01*
X91170000Y-70050091D01*
X91131571Y-70243289D01*
X91056189Y-70425278D01*
X90946751Y-70589063D01*
X90807463Y-70728351D01*
X90643678Y-70837789D01*
X90461689Y-70913171D01*
X90345770Y-70936228D01*
X90268493Y-70951600D01*
X90071507Y-70951600D01*
X89994230Y-70936228D01*
X89878311Y-70913171D01*
X89696322Y-70837789D01*
X89532537Y-70728351D01*
X89393249Y-70589063D01*
X89283811Y-70425278D01*
X89208429Y-70243289D01*
X89170000Y-70050091D01*
X89170000Y-69853109D01*
X89208429Y-69659911D01*
X89283811Y-69477922D01*
X89393249Y-69314137D01*
X89532537Y-69174849D01*
X89696322Y-69065411D01*
X89878311Y-68990029D01*
X89994230Y-68966972D01*
X90071507Y-68951600D01*
X90268493Y-68951600D01*
X90345770Y-68966972D01*
X90345770Y-68966972D01*
G37*
G36*
X103298330Y-67838110D02*
X103348179Y-67853231D01*
X103394111Y-67877782D01*
X103434374Y-67910826D01*
X103467418Y-67951089D01*
X103491969Y-67997021D01*
X103507090Y-68046870D01*
X103512800Y-68104844D01*
X103512800Y-69359956D01*
X103507090Y-69417930D01*
X103491969Y-69467779D01*
X103467418Y-69513711D01*
X103434374Y-69553974D01*
X103394111Y-69587018D01*
X103348179Y-69611569D01*
X103298330Y-69626690D01*
X103240356Y-69632400D01*
X102235244Y-69632400D01*
X102177270Y-69626690D01*
X102127421Y-69611569D01*
X102081489Y-69587018D01*
X102041226Y-69553974D01*
X102008182Y-69513711D01*
X101983631Y-69467779D01*
X101968510Y-69417930D01*
X101962800Y-69359956D01*
X101962800Y-68104844D01*
X101968510Y-68046870D01*
X101983631Y-67997021D01*
X102008182Y-67951089D01*
X102041226Y-67910826D01*
X102081489Y-67877782D01*
X102127421Y-67853231D01*
X102177270Y-67838110D01*
X102235244Y-67832400D01*
X103240356Y-67832400D01*
X103298330Y-67838110D01*
X103298330Y-67838110D01*
G37*
G36*
X105348330Y-67838110D02*
X105398179Y-67853231D01*
X105444111Y-67877782D01*
X105484374Y-67910826D01*
X105517418Y-67951089D01*
X105541969Y-67997021D01*
X105557090Y-68046870D01*
X105562800Y-68104844D01*
X105562800Y-69359956D01*
X105557090Y-69417930D01*
X105541969Y-69467779D01*
X105517418Y-69513711D01*
X105484374Y-69553974D01*
X105444111Y-69587018D01*
X105398179Y-69611569D01*
X105348330Y-69626690D01*
X105290356Y-69632400D01*
X104285244Y-69632400D01*
X104227270Y-69626690D01*
X104177421Y-69611569D01*
X104131489Y-69587018D01*
X104091226Y-69553974D01*
X104058182Y-69513711D01*
X104033631Y-69467779D01*
X104018510Y-69417930D01*
X104012800Y-69359956D01*
X104012800Y-68104844D01*
X104018510Y-68046870D01*
X104033631Y-67997021D01*
X104058182Y-67951089D01*
X104091226Y-67910826D01*
X104131489Y-67877782D01*
X104177421Y-67853231D01*
X104227270Y-67838110D01*
X104285244Y-67832400D01*
X105290356Y-67832400D01*
X105348330Y-67838110D01*
X105348330Y-67838110D01*
G37*
G36*
X99912730Y-67736510D02*
X99962579Y-67751631D01*
X100008511Y-67776182D01*
X100048774Y-67809226D01*
X100081818Y-67849489D01*
X100106369Y-67895421D01*
X100121490Y-67945270D01*
X100127200Y-68003244D01*
X100127200Y-69258356D01*
X100121490Y-69316330D01*
X100106369Y-69366179D01*
X100081818Y-69412111D01*
X100048774Y-69452374D01*
X100008511Y-69485418D01*
X99962579Y-69509969D01*
X99912730Y-69525090D01*
X99854756Y-69530800D01*
X98849644Y-69530800D01*
X98791670Y-69525090D01*
X98741821Y-69509969D01*
X98695889Y-69485418D01*
X98655626Y-69452374D01*
X98622582Y-69412111D01*
X98598031Y-69366179D01*
X98582910Y-69316330D01*
X98577200Y-69258356D01*
X98577200Y-68003244D01*
X98582910Y-67945270D01*
X98598031Y-67895421D01*
X98622582Y-67849489D01*
X98655626Y-67809226D01*
X98695889Y-67776182D01*
X98741821Y-67751631D01*
X98791670Y-67736510D01*
X98849644Y-67730800D01*
X99854756Y-67730800D01*
X99912730Y-67736510D01*
X99912730Y-67736510D01*
G37*
G36*
X97862730Y-67736510D02*
X97912579Y-67751631D01*
X97958511Y-67776182D01*
X97998774Y-67809226D01*
X98031818Y-67849489D01*
X98056369Y-67895421D01*
X98071490Y-67945270D01*
X98077200Y-68003244D01*
X98077200Y-69258356D01*
X98071490Y-69316330D01*
X98056369Y-69366179D01*
X98031818Y-69412111D01*
X97998774Y-69452374D01*
X97958511Y-69485418D01*
X97912579Y-69509969D01*
X97862730Y-69525090D01*
X97804756Y-69530800D01*
X96799644Y-69530800D01*
X96741670Y-69525090D01*
X96691821Y-69509969D01*
X96645889Y-69485418D01*
X96605626Y-69452374D01*
X96572582Y-69412111D01*
X96548031Y-69366179D01*
X96532910Y-69316330D01*
X96527200Y-69258356D01*
X96527200Y-68003244D01*
X96532910Y-67945270D01*
X96548031Y-67895421D01*
X96572582Y-67849489D01*
X96605626Y-67809226D01*
X96645889Y-67776182D01*
X96691821Y-67751631D01*
X96741670Y-67736510D01*
X96799644Y-67730800D01*
X97804756Y-67730800D01*
X97862730Y-67736510D01*
X97862730Y-67736510D01*
G37*
G36*
X105348330Y-65450510D02*
X105398179Y-65465631D01*
X105444111Y-65490182D01*
X105484374Y-65523226D01*
X105517418Y-65563489D01*
X105541969Y-65609421D01*
X105557090Y-65659270D01*
X105562800Y-65717244D01*
X105562800Y-66972356D01*
X105557090Y-67030330D01*
X105541969Y-67080179D01*
X105517418Y-67126111D01*
X105484374Y-67166374D01*
X105444111Y-67199418D01*
X105398179Y-67223969D01*
X105348330Y-67239090D01*
X105290356Y-67244800D01*
X104285244Y-67244800D01*
X104227270Y-67239090D01*
X104177421Y-67223969D01*
X104131489Y-67199418D01*
X104091226Y-67166374D01*
X104058182Y-67126111D01*
X104033631Y-67080179D01*
X104018510Y-67030330D01*
X104012800Y-66972356D01*
X104012800Y-65717244D01*
X104018510Y-65659270D01*
X104033631Y-65609421D01*
X104058182Y-65563489D01*
X104091226Y-65523226D01*
X104131489Y-65490182D01*
X104177421Y-65465631D01*
X104227270Y-65450510D01*
X104285244Y-65444800D01*
X105290356Y-65444800D01*
X105348330Y-65450510D01*
X105348330Y-65450510D01*
G37*
G36*
X103298330Y-65450510D02*
X103348179Y-65465631D01*
X103394111Y-65490182D01*
X103434374Y-65523226D01*
X103467418Y-65563489D01*
X103491969Y-65609421D01*
X103507090Y-65659270D01*
X103512800Y-65717244D01*
X103512800Y-66972356D01*
X103507090Y-67030330D01*
X103491969Y-67080179D01*
X103467418Y-67126111D01*
X103434374Y-67166374D01*
X103394111Y-67199418D01*
X103348179Y-67223969D01*
X103298330Y-67239090D01*
X103240356Y-67244800D01*
X102235244Y-67244800D01*
X102177270Y-67239090D01*
X102127421Y-67223969D01*
X102081489Y-67199418D01*
X102041226Y-67166374D01*
X102008182Y-67126111D01*
X101983631Y-67080179D01*
X101968510Y-67030330D01*
X101962800Y-66972356D01*
X101962800Y-65717244D01*
X101968510Y-65659270D01*
X101983631Y-65609421D01*
X102008182Y-65563489D01*
X102041226Y-65523226D01*
X102081489Y-65490182D01*
X102127421Y-65465631D01*
X102177270Y-65450510D01*
X102235244Y-65444800D01*
X103240356Y-65444800D01*
X103298330Y-65450510D01*
X103298330Y-65450510D01*
G37*
G36*
X99592530Y-65726477D02*
X99644010Y-65742093D01*
X99691442Y-65767446D01*
X99733027Y-65801573D01*
X99767154Y-65843158D01*
X99792507Y-65890590D01*
X99808123Y-65942070D01*
X99814000Y-66001740D01*
X99814000Y-66789460D01*
X99808123Y-66849130D01*
X99792507Y-66900610D01*
X99767154Y-66948042D01*
X99733027Y-66989627D01*
X99691442Y-67023754D01*
X99644010Y-67049107D01*
X99592530Y-67064723D01*
X99532860Y-67070600D01*
X98645140Y-67070600D01*
X98585470Y-67064723D01*
X98533990Y-67049107D01*
X98486558Y-67023754D01*
X98444973Y-66989627D01*
X98410846Y-66948042D01*
X98385493Y-66900610D01*
X98369877Y-66849130D01*
X98364000Y-66789460D01*
X98364000Y-66001740D01*
X98369877Y-65942070D01*
X98385493Y-65890590D01*
X98410846Y-65843158D01*
X98444973Y-65801573D01*
X98486558Y-65767446D01*
X98533990Y-65742093D01*
X98585470Y-65726477D01*
X98645140Y-65720600D01*
X99532860Y-65720600D01*
X99592530Y-65726477D01*
X99592530Y-65726477D01*
G37*
G36*
X97842530Y-65726477D02*
X97894010Y-65742093D01*
X97941442Y-65767446D01*
X97983027Y-65801573D01*
X98017154Y-65843158D01*
X98042507Y-65890590D01*
X98058123Y-65942070D01*
X98064000Y-66001740D01*
X98064000Y-66789460D01*
X98058123Y-66849130D01*
X98042507Y-66900610D01*
X98017154Y-66948042D01*
X97983027Y-66989627D01*
X97941442Y-67023754D01*
X97894010Y-67049107D01*
X97842530Y-67064723D01*
X97782860Y-67070600D01*
X96895140Y-67070600D01*
X96835470Y-67064723D01*
X96783990Y-67049107D01*
X96736558Y-67023754D01*
X96694973Y-66989627D01*
X96660846Y-66948042D01*
X96635493Y-66900610D01*
X96619877Y-66849130D01*
X96614000Y-66789460D01*
X96614000Y-66001740D01*
X96619877Y-65942070D01*
X96635493Y-65890590D01*
X96660846Y-65843158D01*
X96694973Y-65801573D01*
X96736558Y-65767446D01*
X96783990Y-65742093D01*
X96835470Y-65726477D01*
X96895140Y-65720600D01*
X97782860Y-65720600D01*
X97842530Y-65726477D01*
X97842530Y-65726477D01*
G37*
G36*
X102351330Y-63389677D02*
X102402810Y-63405293D01*
X102450242Y-63430646D01*
X102491827Y-63464773D01*
X102525954Y-63506358D01*
X102551307Y-63553790D01*
X102566923Y-63605270D01*
X102572800Y-63664940D01*
X102572800Y-64452660D01*
X102566923Y-64512330D01*
X102551307Y-64563810D01*
X102525954Y-64611242D01*
X102491827Y-64652827D01*
X102450242Y-64686954D01*
X102402810Y-64712307D01*
X102351330Y-64727923D01*
X102291660Y-64733800D01*
X101403940Y-64733800D01*
X101344270Y-64727923D01*
X101292790Y-64712307D01*
X101245358Y-64686954D01*
X101203773Y-64652827D01*
X101169646Y-64611242D01*
X101144293Y-64563810D01*
X101128677Y-64512330D01*
X101122800Y-64452660D01*
X101122800Y-63664940D01*
X101128677Y-63605270D01*
X101144293Y-63553790D01*
X101169646Y-63506358D01*
X101203773Y-63464773D01*
X101245358Y-63430646D01*
X101292790Y-63405293D01*
X101344270Y-63389677D01*
X101403940Y-63383800D01*
X102291660Y-63383800D01*
X102351330Y-63389677D01*
X102351330Y-63389677D01*
G37*
G36*
X100601330Y-63389677D02*
X100652810Y-63405293D01*
X100700242Y-63430646D01*
X100741827Y-63464773D01*
X100775954Y-63506358D01*
X100801307Y-63553790D01*
X100816923Y-63605270D01*
X100822800Y-63664940D01*
X100822800Y-64452660D01*
X100816923Y-64512330D01*
X100801307Y-64563810D01*
X100775954Y-64611242D01*
X100741827Y-64652827D01*
X100700242Y-64686954D01*
X100652810Y-64712307D01*
X100601330Y-64727923D01*
X100541660Y-64733800D01*
X99653940Y-64733800D01*
X99594270Y-64727923D01*
X99542790Y-64712307D01*
X99495358Y-64686954D01*
X99453773Y-64652827D01*
X99419646Y-64611242D01*
X99394293Y-64563810D01*
X99378677Y-64512330D01*
X99372800Y-64452660D01*
X99372800Y-63664940D01*
X99378677Y-63605270D01*
X99394293Y-63553790D01*
X99419646Y-63506358D01*
X99453773Y-63464773D01*
X99495358Y-63430646D01*
X99542790Y-63405293D01*
X99594270Y-63389677D01*
X99653940Y-63383800D01*
X100541660Y-63383800D01*
X100601330Y-63389677D01*
X100601330Y-63389677D01*
G37*
G36*
X90366030Y-58806069D02*
X90366033Y-58806070D01*
X90366034Y-58806070D01*
X90554535Y-58863251D01*
X90554537Y-58863252D01*
X90728260Y-58956109D01*
X90880528Y-59081072D01*
X91005491Y-59233340D01*
X91098348Y-59407063D01*
X91098349Y-59407065D01*
X91141088Y-59547958D01*
X91155531Y-59595570D01*
X91174838Y-59791600D01*
X91155531Y-59987630D01*
X91098348Y-60176137D01*
X91005491Y-60349860D01*
X90880528Y-60502128D01*
X90728260Y-60627091D01*
X90728258Y-60627092D01*
X90554535Y-60719949D01*
X90366034Y-60777130D01*
X90366033Y-60777130D01*
X90366030Y-60777131D01*
X90219124Y-60791600D01*
X90120876Y-60791600D01*
X89973970Y-60777131D01*
X89973967Y-60777130D01*
X89973966Y-60777130D01*
X89785465Y-60719949D01*
X89611742Y-60627092D01*
X89611740Y-60627091D01*
X89459472Y-60502128D01*
X89334509Y-60349860D01*
X89241652Y-60176137D01*
X89184469Y-59987630D01*
X89165162Y-59791600D01*
X89184469Y-59595570D01*
X89198912Y-59547958D01*
X89241651Y-59407065D01*
X89241652Y-59407063D01*
X89334509Y-59233340D01*
X89459472Y-59081072D01*
X89611740Y-58956109D01*
X89785463Y-58863252D01*
X89785465Y-58863251D01*
X89973966Y-58806070D01*
X89973967Y-58806070D01*
X89973970Y-58806069D01*
X90120876Y-58791600D01*
X90219124Y-58791600D01*
X90366030Y-58806069D01*
X90366030Y-58806069D01*
G37*
G36*
X97927443Y-57738194D02*
X98136728Y-57824883D01*
X98325085Y-57950739D01*
X98485261Y-58110915D01*
X98611117Y-58299272D01*
X98697806Y-58508557D01*
X98736188Y-58701515D01*
X98743301Y-58724964D01*
X98754852Y-58746575D01*
X98770398Y-58765517D01*
X98789340Y-58781062D01*
X98810951Y-58792613D01*
X98834400Y-58799726D01*
X98858786Y-58802128D01*
X98883173Y-58799726D01*
X98906622Y-58792613D01*
X98928233Y-58781062D01*
X98947175Y-58765516D01*
X98962720Y-58746574D01*
X98974271Y-58724963D01*
X98981384Y-58701514D01*
X99015041Y-58532308D01*
X99099468Y-58328482D01*
X99222041Y-58145039D01*
X99378039Y-57989041D01*
X99561482Y-57866468D01*
X99680881Y-57817012D01*
X99765308Y-57782041D01*
X99837435Y-57767694D01*
X99981688Y-57739000D01*
X100202312Y-57739000D01*
X100346565Y-57767694D01*
X100418692Y-57782041D01*
X100503119Y-57817012D01*
X100622518Y-57866468D01*
X100805961Y-57989041D01*
X100961959Y-58145039D01*
X100979714Y-58171611D01*
X100995260Y-58190553D01*
X101014202Y-58206099D01*
X101035813Y-58217650D01*
X101059262Y-58224763D01*
X101083648Y-58227165D01*
X101108034Y-58224763D01*
X101131483Y-58217650D01*
X101153094Y-58206099D01*
X101172036Y-58190553D01*
X101187582Y-58171611D01*
X101222041Y-58120039D01*
X101378039Y-57964041D01*
X101561482Y-57841468D01*
X101704953Y-57782041D01*
X101765308Y-57757041D01*
X101860058Y-57738194D01*
X101981688Y-57714000D01*
X102202312Y-57714000D01*
X102323942Y-57738194D01*
X102418692Y-57757041D01*
X102479047Y-57782041D01*
X102622518Y-57841468D01*
X102805961Y-57964041D01*
X102961959Y-58120039D01*
X103084532Y-58303482D01*
X103168959Y-58507308D01*
X103205103Y-58689015D01*
X103212216Y-58712464D01*
X103223767Y-58734075D01*
X103239313Y-58753017D01*
X103258255Y-58768562D01*
X103279866Y-58780113D01*
X103303315Y-58787226D01*
X103327701Y-58789628D01*
X103352088Y-58787226D01*
X103375537Y-58780113D01*
X103397148Y-58768562D01*
X103416090Y-58753016D01*
X103431635Y-58734074D01*
X103443186Y-58712463D01*
X103450299Y-58689014D01*
X103486194Y-58508558D01*
X103486712Y-58507308D01*
X103560784Y-58328482D01*
X103572883Y-58299272D01*
X103698739Y-58110915D01*
X103858915Y-57950739D01*
X104047272Y-57824883D01*
X104256557Y-57738194D01*
X104478734Y-57694000D01*
X104705266Y-57694000D01*
X104927443Y-57738194D01*
X105136728Y-57824883D01*
X105325085Y-57950739D01*
X105485261Y-58110915D01*
X105611117Y-58299272D01*
X105697806Y-58508557D01*
X105742000Y-58730734D01*
X105742000Y-58957266D01*
X105697806Y-59179443D01*
X105611117Y-59388728D01*
X105485261Y-59577085D01*
X105325085Y-59737261D01*
X105136728Y-59863117D01*
X104927443Y-59949806D01*
X104705266Y-59994000D01*
X104478734Y-59994000D01*
X104256557Y-59949806D01*
X104047272Y-59863117D01*
X103858915Y-59737261D01*
X103698739Y-59577085D01*
X103572883Y-59388728D01*
X103508519Y-59233340D01*
X103486194Y-59179443D01*
X103448309Y-58988983D01*
X103441197Y-58965537D01*
X103429646Y-58943926D01*
X103414100Y-58924984D01*
X103395158Y-58909438D01*
X103373547Y-58897887D01*
X103350098Y-58890774D01*
X103325712Y-58888372D01*
X103301326Y-58890774D01*
X103277877Y-58897887D01*
X103256266Y-58909438D01*
X103237324Y-58924984D01*
X103221778Y-58943926D01*
X103210227Y-58965537D01*
X103203114Y-58988985D01*
X103168959Y-59160692D01*
X103084532Y-59364518D01*
X102961959Y-59547961D01*
X102805961Y-59703959D01*
X102622518Y-59826532D01*
X102534195Y-59863116D01*
X102418692Y-59910959D01*
X102346565Y-59925306D01*
X102202312Y-59954000D01*
X101981688Y-59954000D01*
X101837435Y-59925306D01*
X101765308Y-59910959D01*
X101649805Y-59863116D01*
X101561482Y-59826532D01*
X101378039Y-59703959D01*
X101222041Y-59547961D01*
X101204286Y-59521389D01*
X101188740Y-59502447D01*
X101169798Y-59486901D01*
X101148187Y-59475350D01*
X101124738Y-59468237D01*
X101100352Y-59465835D01*
X101075966Y-59468237D01*
X101052517Y-59475350D01*
X101030906Y-59486901D01*
X101011964Y-59502447D01*
X100996418Y-59521389D01*
X100961959Y-59572961D01*
X100805961Y-59728959D01*
X100622518Y-59851532D01*
X100503119Y-59900988D01*
X100418692Y-59935959D01*
X100349078Y-59949806D01*
X100202312Y-59979000D01*
X99981688Y-59979000D01*
X99834922Y-59949806D01*
X99765308Y-59935959D01*
X99680881Y-59900988D01*
X99561482Y-59851532D01*
X99378039Y-59728959D01*
X99222041Y-59572961D01*
X99099468Y-59389518D01*
X99015041Y-59185692D01*
X98978400Y-59001486D01*
X98971287Y-58978036D01*
X98959736Y-58956426D01*
X98944190Y-58937484D01*
X98925248Y-58921938D01*
X98903637Y-58910387D01*
X98880188Y-58903274D01*
X98855802Y-58900872D01*
X98831416Y-58903274D01*
X98807966Y-58910387D01*
X98786356Y-58921938D01*
X98767414Y-58937484D01*
X98751868Y-58956426D01*
X98740317Y-58978037D01*
X98733204Y-59001486D01*
X98697806Y-59179443D01*
X98675481Y-59233340D01*
X98611117Y-59388728D01*
X98485261Y-59577085D01*
X98325085Y-59737261D01*
X98136728Y-59863117D01*
X97927443Y-59949806D01*
X97705266Y-59994000D01*
X97478734Y-59994000D01*
X97256557Y-59949806D01*
X97047272Y-59863117D01*
X96858915Y-59737261D01*
X96698739Y-59577085D01*
X96572883Y-59388728D01*
X96486194Y-59179443D01*
X96442000Y-58957266D01*
X96442000Y-58730734D01*
X96486194Y-58508557D01*
X96572883Y-58299272D01*
X96698739Y-58110915D01*
X96858915Y-57950739D01*
X97047272Y-57824883D01*
X97256557Y-57738194D01*
X97478734Y-57694000D01*
X97705266Y-57694000D01*
X97927443Y-57738194D01*
X97927443Y-57738194D01*
G37*
G36*
X108201622Y-54355094D02*
X108201624Y-54355095D01*
X108201625Y-54355095D01*
X108325993Y-54406610D01*
X108538304Y-54494552D01*
X108841309Y-54697013D01*
X109098987Y-54954691D01*
X109301448Y-55257696D01*
X109440906Y-55594378D01*
X109512000Y-55951789D01*
X109512000Y-56316211D01*
X109440906Y-56673622D01*
X109301448Y-57010304D01*
X109098987Y-57313309D01*
X108841309Y-57570987D01*
X108538304Y-57773448D01*
X108414126Y-57824884D01*
X108201625Y-57912905D01*
X108201624Y-57912905D01*
X108201622Y-57912906D01*
X107844211Y-57984000D01*
X107479789Y-57984000D01*
X107122378Y-57912906D01*
X107122376Y-57912905D01*
X107122375Y-57912905D01*
X106909874Y-57824884D01*
X106785696Y-57773448D01*
X106482691Y-57570987D01*
X106225013Y-57313309D01*
X106022552Y-57010304D01*
X105883094Y-56673622D01*
X105812000Y-56316211D01*
X105812000Y-55951789D01*
X105883094Y-55594378D01*
X106022552Y-55257696D01*
X106225013Y-54954691D01*
X106482691Y-54697013D01*
X106785696Y-54494552D01*
X106998007Y-54406610D01*
X107122375Y-54355095D01*
X107122376Y-54355095D01*
X107122378Y-54355094D01*
X107479789Y-54284000D01*
X107844211Y-54284000D01*
X108201622Y-54355094D01*
X108201622Y-54355094D01*
G37*
G36*
X95061622Y-54355094D02*
X95061624Y-54355095D01*
X95061625Y-54355095D01*
X95185993Y-54406610D01*
X95398304Y-54494552D01*
X95701309Y-54697013D01*
X95958987Y-54954691D01*
X96161448Y-55257696D01*
X96300906Y-55594378D01*
X96372000Y-55951789D01*
X96372000Y-56316211D01*
X96300906Y-56673622D01*
X96161448Y-57010304D01*
X95958987Y-57313309D01*
X95701309Y-57570987D01*
X95398304Y-57773448D01*
X95274126Y-57824884D01*
X95061625Y-57912905D01*
X95061624Y-57912905D01*
X95061622Y-57912906D01*
X94704211Y-57984000D01*
X94339789Y-57984000D01*
X93982378Y-57912906D01*
X93982376Y-57912905D01*
X93982375Y-57912905D01*
X93769874Y-57824884D01*
X93645696Y-57773448D01*
X93342691Y-57570987D01*
X93085013Y-57313309D01*
X92882552Y-57010304D01*
X92743094Y-56673622D01*
X92685998Y-56386583D01*
X92678885Y-56363134D01*
X92667334Y-56341523D01*
X92651788Y-56322581D01*
X92632846Y-56307035D01*
X92611235Y-56295484D01*
X92587786Y-56288371D01*
X92563400Y-56285969D01*
X92539014Y-56288371D01*
X92515565Y-56295484D01*
X92493954Y-56307035D01*
X92475012Y-56322581D01*
X92459466Y-56341523D01*
X92447915Y-56363134D01*
X92440802Y-56386583D01*
X92438400Y-56410969D01*
X92438400Y-57234000D01*
X90238400Y-57234000D01*
X90238400Y-55034000D01*
X92438400Y-55034000D01*
X92438400Y-55857031D01*
X92440802Y-55881417D01*
X92447915Y-55904866D01*
X92459466Y-55926477D01*
X92475012Y-55945419D01*
X92493954Y-55960965D01*
X92515565Y-55972516D01*
X92539014Y-55979629D01*
X92563400Y-55982031D01*
X92587786Y-55979629D01*
X92611235Y-55972516D01*
X92632846Y-55960965D01*
X92651788Y-55945419D01*
X92667334Y-55926477D01*
X92678885Y-55904866D01*
X92685998Y-55881417D01*
X92743094Y-55594378D01*
X92882552Y-55257696D01*
X93085013Y-54954691D01*
X93342691Y-54697013D01*
X93645696Y-54494552D01*
X93858007Y-54406610D01*
X93982375Y-54355095D01*
X93982376Y-54355095D01*
X93982378Y-54355094D01*
X94339789Y-54284000D01*
X94704211Y-54284000D01*
X95061622Y-54355094D01*
X95061622Y-54355094D01*
G37*
G36*
X89119257Y-55076272D02*
X89319442Y-55159191D01*
X89319445Y-55159193D01*
X89466865Y-55257696D01*
X89499613Y-55279578D01*
X89652822Y-55432787D01*
X89773209Y-55612958D01*
X89856128Y-55813143D01*
X89898400Y-56025658D01*
X89898400Y-56242342D01*
X89856128Y-56454857D01*
X89773209Y-56655042D01*
X89652822Y-56835213D01*
X89499613Y-56988422D01*
X89499610Y-56988424D01*
X89499609Y-56988425D01*
X89319445Y-57108807D01*
X89319442Y-57108809D01*
X89119257Y-57191728D01*
X88906742Y-57234000D01*
X88690058Y-57234000D01*
X88477543Y-57191728D01*
X88277358Y-57108809D01*
X88277355Y-57108807D01*
X88097191Y-56988425D01*
X88097190Y-56988424D01*
X88097187Y-56988422D01*
X87943978Y-56835213D01*
X87823591Y-56655042D01*
X87740672Y-56454857D01*
X87698400Y-56242342D01*
X87698400Y-56025658D01*
X87740672Y-55813143D01*
X87823591Y-55612958D01*
X87943978Y-55432787D01*
X88097187Y-55279578D01*
X88129936Y-55257696D01*
X88277355Y-55159193D01*
X88277358Y-55159191D01*
X88477543Y-55076272D01*
X88690058Y-55034000D01*
X88906742Y-55034000D01*
X89119257Y-55076272D01*
X89119257Y-55076272D01*
G37*
M02*
