G04 #@! TF.GenerationSoftware,KiCad,Pcbnew,(5.0.0-3-g5ebb6b6)*
G04 #@! TF.CreationDate,2018-09-18T17:23:57-07:00*
G04 #@! TF.ProjectId,phone_charger,70686F6E655F636861726765722E6B69,rev?*
G04 #@! TF.SameCoordinates,Original*
G04 #@! TF.FileFunction,Copper,L2,Bot,Signal*
G04 #@! TF.FilePolarity,Positive*
%FSLAX46Y46*%
G04 Gerber Fmt 4.6, Leading zero omitted, Abs format (unit mm)*
G04 Created by KiCad (PCBNEW (5.0.0-3-g5ebb6b6)) date Tuesday, September 18, 2018 at 05:23:57 PM*
%MOMM*%
%LPD*%
G01*
G04 APERTURE LIST*
G04 #@! TA.AperFunction,ComponentPad*
%ADD10O,1.700000X1.700000*%
G04 #@! TD*
G04 #@! TA.AperFunction,ComponentPad*
%ADD11R,1.700000X1.700000*%
G04 #@! TD*
G04 #@! TA.AperFunction,ComponentPad*
%ADD12C,1.600000*%
G04 #@! TD*
G04 #@! TA.AperFunction,ComponentPad*
%ADD13O,1.600000X1.600000*%
G04 #@! TD*
G04 #@! TA.AperFunction,SMDPad,CuDef*
%ADD14R,1.200000X0.900000*%
G04 #@! TD*
G04 #@! TA.AperFunction,ComponentPad*
%ADD15C,1.900000*%
G04 #@! TD*
G04 #@! TA.AperFunction,ComponentPad*
%ADD16C,1.840000*%
G04 #@! TD*
G04 #@! TA.AperFunction,ComponentPad*
%ADD17C,3.300000*%
G04 #@! TD*
G04 #@! TA.AperFunction,SMDPad,CuDef*
%ADD18R,5.600000X2.300000*%
G04 #@! TD*
G04 #@! TA.AperFunction,ComponentPad*
%ADD19R,1.800000X1.800000*%
G04 #@! TD*
G04 #@! TA.AperFunction,ComponentPad*
%ADD20C,1.800000*%
G04 #@! TD*
G04 #@! TA.AperFunction,SMDPad,CuDef*
%ADD21R,1.500000X1.300000*%
G04 #@! TD*
G04 #@! TA.AperFunction,ViaPad*
%ADD22C,1.270000*%
G04 #@! TD*
G04 #@! TA.AperFunction,ViaPad*
%ADD23C,0.812800*%
G04 #@! TD*
G04 #@! TA.AperFunction,Conductor*
%ADD24C,0.381000*%
G04 #@! TD*
G04 #@! TA.AperFunction,Conductor*
%ADD25C,0.254000*%
G04 #@! TD*
G04 APERTURE END LIST*
D10*
G04 #@! TO.P,J1,2*
G04 #@! TO.N,EPAD*
X90525600Y-73456800D03*
D11*
G04 #@! TO.P,J1,1*
G04 #@! TO.N,Net-(F1-Pad2)*
X90525600Y-75996800D03*
G04 #@! TD*
D12*
G04 #@! TO.P,R1,1*
G04 #@! TO.N,VBUS*
X90170000Y-69951600D03*
D13*
G04 #@! TO.P,R1,2*
G04 #@! TO.N,Net-(D1-Pad2)*
X90170000Y-59791600D03*
G04 #@! TD*
D14*
G04 #@! TO.P,D2,1*
G04 #@! TO.N,/reg_in*
X90474800Y-79097600D03*
G04 #@! TO.P,D2,2*
G04 #@! TO.N,Net-(D2-Pad2)*
X90474800Y-82397600D03*
G04 #@! TD*
D15*
G04 #@! TO.P,J2,4*
G04 #@! TO.N,EPAD*
X104507200Y-60876000D03*
D16*
G04 #@! TO.P,J2,3*
G04 #@! TO.N,/D+*
X102007200Y-60866000D03*
G04 #@! TO.P,J2,2*
G04 #@! TO.N,/D-*
X100007200Y-60891000D03*
D15*
G04 #@! TO.P,J2,1*
G04 #@! TO.N,VBUS*
X97507200Y-60876000D03*
D17*
G04 #@! TO.P,J2,SH*
G04 #@! TO.N,EPAD*
X107577200Y-58166000D03*
X94437200Y-58166000D03*
G04 #@! TD*
D18*
G04 #@! TO.P,F1,1*
G04 #@! TO.N,Net-(D2-Pad2)*
X96367600Y-81720400D03*
G04 #@! TO.P,F1,2*
G04 #@! TO.N,Net-(F1-Pad2)*
X96367600Y-74320400D03*
G04 #@! TD*
D19*
G04 #@! TO.P,D1,1*
G04 #@! TO.N,EPAD*
X91338400Y-56134000D03*
D20*
G04 #@! TO.P,D1,2*
G04 #@! TO.N,Net-(D1-Pad2)*
X88798400Y-56134000D03*
G04 #@! TD*
D14*
G04 #@! TO.P,R7,1*
G04 #@! TO.N,/D-*
X99872800Y-64058800D03*
G04 #@! TO.P,R7,2*
G04 #@! TO.N,/D+*
X102072800Y-64058800D03*
G04 #@! TD*
G04 #@! TO.P,R5,1*
G04 #@! TO.N,VBUS*
X97114000Y-66395600D03*
G04 #@! TO.P,R5,2*
G04 #@! TO.N,/D+*
X99314000Y-66395600D03*
G04 #@! TD*
D21*
G04 #@! TO.P,R6,1*
G04 #@! TO.N,/D+*
X102412800Y-66344800D03*
G04 #@! TO.P,R6,2*
G04 #@! TO.N,EPAD*
X105112800Y-66344800D03*
G04 #@! TD*
G04 #@! TO.P,R4,1*
G04 #@! TO.N,/D-*
X102412800Y-68732400D03*
G04 #@! TO.P,R4,2*
G04 #@! TO.N,EPAD*
X105112800Y-68732400D03*
G04 #@! TD*
G04 #@! TO.P,R3,1*
G04 #@! TO.N,VBUS*
X96977200Y-68630800D03*
G04 #@! TO.P,R3,2*
G04 #@! TO.N,/D-*
X99677200Y-68630800D03*
G04 #@! TD*
D22*
G04 #@! TO.N,VBUS*
X93218000Y-68884800D03*
D23*
X106222802Y-83464400D03*
G04 #@! TO.N,/reg_in*
X91440000Y-80670400D03*
G04 #@! TO.N,Net-(C2-Pad1)*
X108813600Y-77876400D03*
X99498648Y-78123551D03*
G04 #@! TD*
D24*
G04 #@! TO.N,VBUS*
X96977200Y-66532400D02*
X97114000Y-66395600D01*
X96977200Y-68630800D02*
X96977200Y-66532400D01*
X97114000Y-61269200D02*
X97507200Y-60876000D01*
X97114000Y-66395600D02*
X97114000Y-61269200D01*
X105648066Y-83464400D02*
X106222802Y-83464400D01*
X89560400Y-83464400D02*
X105648066Y-83464400D01*
X88595200Y-82499200D02*
X89560400Y-83464400D01*
X93218000Y-68884800D02*
X91846400Y-67513200D01*
X88595200Y-68580000D02*
X88595200Y-82499200D01*
X89662000Y-67513200D02*
X88595200Y-68580000D01*
X91846400Y-67513200D02*
X89662000Y-67513200D01*
D25*
G04 #@! TO.N,/D-*
X100007200Y-63924400D02*
X99872800Y-64058800D01*
X100007200Y-60891000D02*
X100007200Y-63924400D01*
X98332999Y-67386599D02*
X99577200Y-68630800D01*
X99577200Y-68630800D02*
X99677200Y-68630800D01*
X98332999Y-65448601D02*
X98332999Y-67386599D01*
X99722800Y-64058800D02*
X98332999Y-65448601D01*
X99872800Y-64058800D02*
X99722800Y-64058800D01*
X102311200Y-68630800D02*
X102412800Y-68732400D01*
X99677200Y-68630800D02*
X102311200Y-68630800D01*
G04 #@! TO.N,/D+*
X102007200Y-63993200D02*
X102072800Y-64058800D01*
X102007200Y-60866000D02*
X102007200Y-63993200D01*
X102072800Y-66004800D02*
X102412800Y-66344800D01*
X102072800Y-64058800D02*
X102072800Y-66004800D01*
X99364800Y-66344800D02*
X99314000Y-66395600D01*
X102412800Y-66344800D02*
X99364800Y-66344800D01*
D24*
G04 #@! TO.N,/reg_in*
X90474800Y-79705200D02*
X91440000Y-80670400D01*
X90474800Y-79097600D02*
X90474800Y-79705200D01*
G04 #@! TO.N,Net-(F1-Pad2)*
X94945200Y-75996800D02*
X96367600Y-74574400D01*
X96367600Y-74574400D02*
X96367600Y-74320400D01*
X90525600Y-75996800D02*
X94945200Y-75996800D01*
G04 #@! TO.N,Net-(C2-Pad1)*
X99745799Y-77876400D02*
X99498648Y-78123551D01*
X108813600Y-77876400D02*
X99745799Y-77876400D01*
G04 #@! TO.N,Net-(D2-Pad2)*
X91152000Y-81720400D02*
X90474800Y-82397600D01*
X96367600Y-81720400D02*
X91152000Y-81720400D01*
G04 #@! TD*
D25*
G04 #@! TO.N,EPAD*
G36*
X109373601Y-76981157D02*
X109020747Y-76835000D01*
X108606453Y-76835000D01*
X108223694Y-76993544D01*
X108166338Y-77050900D01*
X99827096Y-77050900D01*
X99745798Y-77034729D01*
X99664501Y-77050900D01*
X99664496Y-77050900D01*
X99507386Y-77082151D01*
X99291501Y-77082151D01*
X98908742Y-77240695D01*
X98615792Y-77533645D01*
X98457248Y-77916404D01*
X98457248Y-78330698D01*
X98615792Y-78713457D01*
X98908742Y-79006407D01*
X99291501Y-79164951D01*
X99705795Y-79164951D01*
X100088554Y-79006407D01*
X100381504Y-78713457D01*
X100386291Y-78701900D01*
X108166338Y-78701900D01*
X108223694Y-78759256D01*
X108606453Y-78917800D01*
X109020747Y-78917800D01*
X109373601Y-78771643D01*
X109373601Y-83719600D01*
X107244298Y-83719600D01*
X107264202Y-83671547D01*
X107264202Y-83257253D01*
X107105658Y-82874494D01*
X106812708Y-82581544D01*
X106429949Y-82423000D01*
X106015655Y-82423000D01*
X105632896Y-82581544D01*
X105575540Y-82638900D01*
X99815040Y-82638900D01*
X99815040Y-80570400D01*
X99765757Y-80322635D01*
X99625409Y-80112591D01*
X99415365Y-79972243D01*
X99167600Y-79922960D01*
X93567600Y-79922960D01*
X93319835Y-79972243D01*
X93109791Y-80112591D01*
X92969443Y-80322635D01*
X92920160Y-80570400D01*
X92920160Y-80894900D01*
X92474212Y-80894900D01*
X92481400Y-80877547D01*
X92481400Y-80463253D01*
X92322856Y-80080494D01*
X92029906Y-79787544D01*
X91701565Y-79651541D01*
X91722240Y-79547600D01*
X91722240Y-78647600D01*
X91672957Y-78399835D01*
X91532609Y-78189791D01*
X91322565Y-78049443D01*
X91074800Y-78000160D01*
X89874800Y-78000160D01*
X89627035Y-78049443D01*
X89420700Y-78187313D01*
X89420700Y-77440190D01*
X89427835Y-77444957D01*
X89675600Y-77494240D01*
X91375600Y-77494240D01*
X91623365Y-77444957D01*
X91833409Y-77304609D01*
X91973757Y-77094565D01*
X92023040Y-76846800D01*
X92023040Y-76822300D01*
X94863899Y-76822300D01*
X94945200Y-76838472D01*
X95026501Y-76822300D01*
X95026503Y-76822300D01*
X95267294Y-76774404D01*
X95540352Y-76591952D01*
X95586409Y-76523023D01*
X95991593Y-76117840D01*
X99167600Y-76117840D01*
X99415365Y-76068557D01*
X99625409Y-75928209D01*
X99765757Y-75718165D01*
X99815040Y-75470400D01*
X99815040Y-73170400D01*
X99765757Y-72922635D01*
X99625409Y-72712591D01*
X99415365Y-72572243D01*
X99167600Y-72522960D01*
X93567600Y-72522960D01*
X93319835Y-72572243D01*
X93109791Y-72712591D01*
X92969443Y-72922635D01*
X92920160Y-73170400D01*
X92920160Y-75171300D01*
X92023040Y-75171300D01*
X92023040Y-75146800D01*
X91973757Y-74899035D01*
X91833409Y-74688991D01*
X91623365Y-74548643D01*
X91375600Y-74499360D01*
X89675600Y-74499360D01*
X89427835Y-74548643D01*
X89420700Y-74553410D01*
X89420700Y-71194462D01*
X89884561Y-71386600D01*
X90455439Y-71386600D01*
X90982862Y-71168134D01*
X91386534Y-70764462D01*
X91605000Y-70237039D01*
X91605000Y-69666161D01*
X91386534Y-69138738D01*
X90982862Y-68735066D01*
X90455439Y-68516600D01*
X89884561Y-68516600D01*
X89784647Y-68557986D01*
X90003933Y-68338700D01*
X91504468Y-68338700D01*
X91948000Y-68782232D01*
X91948000Y-69137419D01*
X92141346Y-69604197D01*
X92498603Y-69961454D01*
X92965381Y-70154800D01*
X93470619Y-70154800D01*
X93937397Y-69961454D01*
X94294654Y-69604197D01*
X94488000Y-69137419D01*
X94488000Y-68632181D01*
X94294654Y-68165403D01*
X94110051Y-67980800D01*
X95579760Y-67980800D01*
X95579760Y-69280800D01*
X95629043Y-69528565D01*
X95769391Y-69738609D01*
X95979435Y-69878957D01*
X96227200Y-69928240D01*
X97727200Y-69928240D01*
X97974965Y-69878957D01*
X98185009Y-69738609D01*
X98325357Y-69528565D01*
X98327200Y-69519300D01*
X98329043Y-69528565D01*
X98469391Y-69738609D01*
X98679435Y-69878957D01*
X98927200Y-69928240D01*
X100427200Y-69928240D01*
X100674965Y-69878957D01*
X100885009Y-69738609D01*
X101025357Y-69528565D01*
X101034895Y-69480612D01*
X101064643Y-69630165D01*
X101204991Y-69840209D01*
X101415035Y-69980557D01*
X101662800Y-70029840D01*
X103162800Y-70029840D01*
X103410565Y-69980557D01*
X103620609Y-69840209D01*
X103760957Y-69630165D01*
X103810240Y-69382400D01*
X103810240Y-68082400D01*
X103760957Y-67834635D01*
X103620609Y-67624591D01*
X103491915Y-67538600D01*
X103620609Y-67452609D01*
X103760957Y-67242565D01*
X103810240Y-66994800D01*
X103810240Y-65694800D01*
X103760957Y-65447035D01*
X103620609Y-65236991D01*
X103410565Y-65096643D01*
X103162800Y-65047360D01*
X103009758Y-65047360D01*
X103130609Y-64966609D01*
X103270957Y-64756565D01*
X103320240Y-64508800D01*
X103320240Y-63608800D01*
X103270957Y-63361035D01*
X103130609Y-63150991D01*
X102920565Y-63010643D01*
X102769200Y-62980535D01*
X102769200Y-62233489D01*
X102888037Y-62184265D01*
X103325465Y-61746837D01*
X103562200Y-61175309D01*
X103562200Y-60556691D01*
X103325465Y-59985163D01*
X102888037Y-59547735D01*
X102316509Y-59311000D01*
X101697891Y-59311000D01*
X101126363Y-59547735D01*
X100994700Y-59679398D01*
X100888037Y-59572735D01*
X100316509Y-59336000D01*
X99697891Y-59336000D01*
X99126363Y-59572735D01*
X98785913Y-59913185D01*
X98405030Y-59532302D01*
X97822476Y-59291000D01*
X97191924Y-59291000D01*
X96609370Y-59532302D01*
X96163502Y-59978170D01*
X95922200Y-60560724D01*
X95922200Y-61191276D01*
X96163502Y-61773830D01*
X96288501Y-61898829D01*
X96288500Y-65343014D01*
X96266235Y-65347443D01*
X96056191Y-65487791D01*
X95915843Y-65697835D01*
X95866560Y-65945600D01*
X95866560Y-66845600D01*
X95915843Y-67093365D01*
X96056191Y-67303409D01*
X96129962Y-67352702D01*
X95979435Y-67382643D01*
X95769391Y-67522991D01*
X95629043Y-67733035D01*
X95579760Y-67980800D01*
X94110051Y-67980800D01*
X93937397Y-67808146D01*
X93470619Y-67614800D01*
X93115432Y-67614800D01*
X92487609Y-66986977D01*
X92441552Y-66918048D01*
X92168494Y-66735596D01*
X91927703Y-66687700D01*
X91927701Y-66687700D01*
X91846400Y-66671528D01*
X91765099Y-66687700D01*
X89743301Y-66687700D01*
X89661999Y-66671528D01*
X89580698Y-66687700D01*
X89580697Y-66687700D01*
X89339906Y-66735596D01*
X89066848Y-66918048D01*
X89020793Y-66986974D01*
X88238400Y-67769368D01*
X88238400Y-59791600D01*
X88706887Y-59791600D01*
X88818260Y-60351509D01*
X89135423Y-60826177D01*
X89610091Y-61143340D01*
X90028667Y-61226600D01*
X90311333Y-61226600D01*
X90729909Y-61143340D01*
X91204577Y-60826177D01*
X91521740Y-60351509D01*
X91633113Y-59791600D01*
X91521740Y-59231691D01*
X91204577Y-58757023D01*
X90729909Y-58439860D01*
X90311333Y-58356600D01*
X90028667Y-58356600D01*
X89610091Y-58439860D01*
X89135423Y-58757023D01*
X88818260Y-59231691D01*
X88706887Y-59791600D01*
X88238400Y-59791600D01*
X88238400Y-57563512D01*
X88493070Y-57669000D01*
X89103730Y-57669000D01*
X89667907Y-57435310D01*
X90099710Y-57003507D01*
X90333400Y-56439330D01*
X90333400Y-55828670D01*
X90099710Y-55264493D01*
X89667907Y-54832690D01*
X89103730Y-54599000D01*
X88493070Y-54599000D01*
X88238400Y-54704488D01*
X88238400Y-54354800D01*
X109373600Y-54354800D01*
X109373601Y-76981157D01*
X109373601Y-76981157D01*
G37*
X109373601Y-76981157D02*
X109020747Y-76835000D01*
X108606453Y-76835000D01*
X108223694Y-76993544D01*
X108166338Y-77050900D01*
X99827096Y-77050900D01*
X99745798Y-77034729D01*
X99664501Y-77050900D01*
X99664496Y-77050900D01*
X99507386Y-77082151D01*
X99291501Y-77082151D01*
X98908742Y-77240695D01*
X98615792Y-77533645D01*
X98457248Y-77916404D01*
X98457248Y-78330698D01*
X98615792Y-78713457D01*
X98908742Y-79006407D01*
X99291501Y-79164951D01*
X99705795Y-79164951D01*
X100088554Y-79006407D01*
X100381504Y-78713457D01*
X100386291Y-78701900D01*
X108166338Y-78701900D01*
X108223694Y-78759256D01*
X108606453Y-78917800D01*
X109020747Y-78917800D01*
X109373601Y-78771643D01*
X109373601Y-83719600D01*
X107244298Y-83719600D01*
X107264202Y-83671547D01*
X107264202Y-83257253D01*
X107105658Y-82874494D01*
X106812708Y-82581544D01*
X106429949Y-82423000D01*
X106015655Y-82423000D01*
X105632896Y-82581544D01*
X105575540Y-82638900D01*
X99815040Y-82638900D01*
X99815040Y-80570400D01*
X99765757Y-80322635D01*
X99625409Y-80112591D01*
X99415365Y-79972243D01*
X99167600Y-79922960D01*
X93567600Y-79922960D01*
X93319835Y-79972243D01*
X93109791Y-80112591D01*
X92969443Y-80322635D01*
X92920160Y-80570400D01*
X92920160Y-80894900D01*
X92474212Y-80894900D01*
X92481400Y-80877547D01*
X92481400Y-80463253D01*
X92322856Y-80080494D01*
X92029906Y-79787544D01*
X91701565Y-79651541D01*
X91722240Y-79547600D01*
X91722240Y-78647600D01*
X91672957Y-78399835D01*
X91532609Y-78189791D01*
X91322565Y-78049443D01*
X91074800Y-78000160D01*
X89874800Y-78000160D01*
X89627035Y-78049443D01*
X89420700Y-78187313D01*
X89420700Y-77440190D01*
X89427835Y-77444957D01*
X89675600Y-77494240D01*
X91375600Y-77494240D01*
X91623365Y-77444957D01*
X91833409Y-77304609D01*
X91973757Y-77094565D01*
X92023040Y-76846800D01*
X92023040Y-76822300D01*
X94863899Y-76822300D01*
X94945200Y-76838472D01*
X95026501Y-76822300D01*
X95026503Y-76822300D01*
X95267294Y-76774404D01*
X95540352Y-76591952D01*
X95586409Y-76523023D01*
X95991593Y-76117840D01*
X99167600Y-76117840D01*
X99415365Y-76068557D01*
X99625409Y-75928209D01*
X99765757Y-75718165D01*
X99815040Y-75470400D01*
X99815040Y-73170400D01*
X99765757Y-72922635D01*
X99625409Y-72712591D01*
X99415365Y-72572243D01*
X99167600Y-72522960D01*
X93567600Y-72522960D01*
X93319835Y-72572243D01*
X93109791Y-72712591D01*
X92969443Y-72922635D01*
X92920160Y-73170400D01*
X92920160Y-75171300D01*
X92023040Y-75171300D01*
X92023040Y-75146800D01*
X91973757Y-74899035D01*
X91833409Y-74688991D01*
X91623365Y-74548643D01*
X91375600Y-74499360D01*
X89675600Y-74499360D01*
X89427835Y-74548643D01*
X89420700Y-74553410D01*
X89420700Y-71194462D01*
X89884561Y-71386600D01*
X90455439Y-71386600D01*
X90982862Y-71168134D01*
X91386534Y-70764462D01*
X91605000Y-70237039D01*
X91605000Y-69666161D01*
X91386534Y-69138738D01*
X90982862Y-68735066D01*
X90455439Y-68516600D01*
X89884561Y-68516600D01*
X89784647Y-68557986D01*
X90003933Y-68338700D01*
X91504468Y-68338700D01*
X91948000Y-68782232D01*
X91948000Y-69137419D01*
X92141346Y-69604197D01*
X92498603Y-69961454D01*
X92965381Y-70154800D01*
X93470619Y-70154800D01*
X93937397Y-69961454D01*
X94294654Y-69604197D01*
X94488000Y-69137419D01*
X94488000Y-68632181D01*
X94294654Y-68165403D01*
X94110051Y-67980800D01*
X95579760Y-67980800D01*
X95579760Y-69280800D01*
X95629043Y-69528565D01*
X95769391Y-69738609D01*
X95979435Y-69878957D01*
X96227200Y-69928240D01*
X97727200Y-69928240D01*
X97974965Y-69878957D01*
X98185009Y-69738609D01*
X98325357Y-69528565D01*
X98327200Y-69519300D01*
X98329043Y-69528565D01*
X98469391Y-69738609D01*
X98679435Y-69878957D01*
X98927200Y-69928240D01*
X100427200Y-69928240D01*
X100674965Y-69878957D01*
X100885009Y-69738609D01*
X101025357Y-69528565D01*
X101034895Y-69480612D01*
X101064643Y-69630165D01*
X101204991Y-69840209D01*
X101415035Y-69980557D01*
X101662800Y-70029840D01*
X103162800Y-70029840D01*
X103410565Y-69980557D01*
X103620609Y-69840209D01*
X103760957Y-69630165D01*
X103810240Y-69382400D01*
X103810240Y-68082400D01*
X103760957Y-67834635D01*
X103620609Y-67624591D01*
X103491915Y-67538600D01*
X103620609Y-67452609D01*
X103760957Y-67242565D01*
X103810240Y-66994800D01*
X103810240Y-65694800D01*
X103760957Y-65447035D01*
X103620609Y-65236991D01*
X103410565Y-65096643D01*
X103162800Y-65047360D01*
X103009758Y-65047360D01*
X103130609Y-64966609D01*
X103270957Y-64756565D01*
X103320240Y-64508800D01*
X103320240Y-63608800D01*
X103270957Y-63361035D01*
X103130609Y-63150991D01*
X102920565Y-63010643D01*
X102769200Y-62980535D01*
X102769200Y-62233489D01*
X102888037Y-62184265D01*
X103325465Y-61746837D01*
X103562200Y-61175309D01*
X103562200Y-60556691D01*
X103325465Y-59985163D01*
X102888037Y-59547735D01*
X102316509Y-59311000D01*
X101697891Y-59311000D01*
X101126363Y-59547735D01*
X100994700Y-59679398D01*
X100888037Y-59572735D01*
X100316509Y-59336000D01*
X99697891Y-59336000D01*
X99126363Y-59572735D01*
X98785913Y-59913185D01*
X98405030Y-59532302D01*
X97822476Y-59291000D01*
X97191924Y-59291000D01*
X96609370Y-59532302D01*
X96163502Y-59978170D01*
X95922200Y-60560724D01*
X95922200Y-61191276D01*
X96163502Y-61773830D01*
X96288501Y-61898829D01*
X96288500Y-65343014D01*
X96266235Y-65347443D01*
X96056191Y-65487791D01*
X95915843Y-65697835D01*
X95866560Y-65945600D01*
X95866560Y-66845600D01*
X95915843Y-67093365D01*
X96056191Y-67303409D01*
X96129962Y-67352702D01*
X95979435Y-67382643D01*
X95769391Y-67522991D01*
X95629043Y-67733035D01*
X95579760Y-67980800D01*
X94110051Y-67980800D01*
X93937397Y-67808146D01*
X93470619Y-67614800D01*
X93115432Y-67614800D01*
X92487609Y-66986977D01*
X92441552Y-66918048D01*
X92168494Y-66735596D01*
X91927703Y-66687700D01*
X91927701Y-66687700D01*
X91846400Y-66671528D01*
X91765099Y-66687700D01*
X89743301Y-66687700D01*
X89661999Y-66671528D01*
X89580698Y-66687700D01*
X89580697Y-66687700D01*
X89339906Y-66735596D01*
X89066848Y-66918048D01*
X89020793Y-66986974D01*
X88238400Y-67769368D01*
X88238400Y-59791600D01*
X88706887Y-59791600D01*
X88818260Y-60351509D01*
X89135423Y-60826177D01*
X89610091Y-61143340D01*
X90028667Y-61226600D01*
X90311333Y-61226600D01*
X90729909Y-61143340D01*
X91204577Y-60826177D01*
X91521740Y-60351509D01*
X91633113Y-59791600D01*
X91521740Y-59231691D01*
X91204577Y-58757023D01*
X90729909Y-58439860D01*
X90311333Y-58356600D01*
X90028667Y-58356600D01*
X89610091Y-58439860D01*
X89135423Y-58757023D01*
X88818260Y-59231691D01*
X88706887Y-59791600D01*
X88238400Y-59791600D01*
X88238400Y-57563512D01*
X88493070Y-57669000D01*
X89103730Y-57669000D01*
X89667907Y-57435310D01*
X90099710Y-57003507D01*
X90333400Y-56439330D01*
X90333400Y-55828670D01*
X90099710Y-55264493D01*
X89667907Y-54832690D01*
X89103730Y-54599000D01*
X88493070Y-54599000D01*
X88238400Y-54704488D01*
X88238400Y-54354800D01*
X109373600Y-54354800D01*
X109373601Y-76981157D01*
G04 #@! TD*
M02*
