G04 #@! TF.GenerationSoftware,KiCad,Pcbnew,(5.0.0-3-g5ebb6b6)*
G04 #@! TF.CreationDate,2018-09-20T13:09:26-07:00*
G04 #@! TF.ProjectId,phone_charger,70686F6E655F636861726765722E6B69,rev?*
G04 #@! TF.SameCoordinates,Original*
G04 #@! TF.FileFunction,Copper,L1,Top,Signal*
G04 #@! TF.FilePolarity,Positive*
%FSLAX46Y46*%
G04 Gerber Fmt 4.6, Leading zero omitted, Abs format (unit mm)*
G04 Created by KiCad (PCBNEW (5.0.0-3-g5ebb6b6)) date Thursday, September 20, 2018 at 01:09:26 PM*
%MOMM*%
%LPD*%
G01*
G04 APERTURE LIST*
G04 #@! TA.AperFunction,SMDPad,CuDef*
%ADD10R,1.200000X0.900000*%
G04 #@! TD*
G04 #@! TA.AperFunction,SMDPad,CuDef*
%ADD11R,1.300000X1.500000*%
G04 #@! TD*
G04 #@! TA.AperFunction,ComponentPad*
%ADD12O,1.700000X1.700000*%
G04 #@! TD*
G04 #@! TA.AperFunction,ComponentPad*
%ADD13R,1.700000X1.700000*%
G04 #@! TD*
G04 #@! TA.AperFunction,ComponentPad*
%ADD14C,1.600000*%
G04 #@! TD*
G04 #@! TA.AperFunction,ComponentPad*
%ADD15O,1.600000X1.600000*%
G04 #@! TD*
G04 #@! TA.AperFunction,ComponentPad*
%ADD16C,1.900000*%
G04 #@! TD*
G04 #@! TA.AperFunction,ComponentPad*
%ADD17C,1.840000*%
G04 #@! TD*
G04 #@! TA.AperFunction,ComponentPad*
%ADD18C,3.300000*%
G04 #@! TD*
G04 #@! TA.AperFunction,SMDPad,CuDef*
%ADD19R,1.550000X0.600000*%
G04 #@! TD*
G04 #@! TA.AperFunction,SMDPad,CuDef*
%ADD20R,1.175000X1.175000*%
G04 #@! TD*
G04 #@! TA.AperFunction,SMDPad,CuDef*
%ADD21R,1.200000X0.750000*%
G04 #@! TD*
G04 #@! TA.AperFunction,SMDPad,CuDef*
%ADD22R,1.250000X1.500000*%
G04 #@! TD*
G04 #@! TA.AperFunction,SMDPad,CuDef*
%ADD23R,1.600000X2.000000*%
G04 #@! TD*
G04 #@! TA.AperFunction,SMDPad,CuDef*
%ADD24R,3.500000X2.300000*%
G04 #@! TD*
G04 #@! TA.AperFunction,ComponentPad*
%ADD25R,1.800000X1.800000*%
G04 #@! TD*
G04 #@! TA.AperFunction,ComponentPad*
%ADD26C,1.800000*%
G04 #@! TD*
G04 #@! TA.AperFunction,SMDPad,CuDef*
%ADD27R,1.700000X3.600000*%
G04 #@! TD*
G04 #@! TA.AperFunction,ViaPad*
%ADD28C,1.270000*%
G04 #@! TD*
G04 #@! TA.AperFunction,ViaPad*
%ADD29C,2.032000*%
G04 #@! TD*
G04 #@! TA.AperFunction,Conductor*
%ADD30C,0.381000*%
G04 #@! TD*
G04 #@! TA.AperFunction,Conductor*
%ADD31C,1.270000*%
G04 #@! TD*
G04 #@! TA.AperFunction,Conductor*
%ADD32C,0.635000*%
G04 #@! TD*
G04 #@! TA.AperFunction,Conductor*
%ADD33C,0.254000*%
G04 #@! TD*
G04 APERTURE END LIST*
D10*
G04 #@! TO.P,R8,2*
G04 #@! TO.N,Net-(R8-Pad2)*
X108864400Y-83566000D03*
G04 #@! TO.P,R8,1*
G04 #@! TO.N,VBUS*
X106664400Y-83566000D03*
G04 #@! TD*
D11*
G04 #@! TO.P,R9,2*
G04 #@! TO.N,EPAD*
X108864400Y-79095600D03*
G04 #@! TO.P,R9,1*
G04 #@! TO.N,Net-(R8-Pad2)*
X108864400Y-81795600D03*
G04 #@! TD*
D12*
G04 #@! TO.P,J1,2*
G04 #@! TO.N,EPAD*
X90525600Y-73456800D03*
D13*
G04 #@! TO.P,J1,1*
G04 #@! TO.N,Net-(F1-Pad2)*
X90525600Y-75996800D03*
G04 #@! TD*
D14*
G04 #@! TO.P,R1,1*
G04 #@! TO.N,VBUS*
X90170000Y-69951600D03*
D15*
G04 #@! TO.P,R1,2*
G04 #@! TO.N,Net-(D1-Pad2)*
X90170000Y-59791600D03*
G04 #@! TD*
D16*
G04 #@! TO.P,J2,4*
G04 #@! TO.N,EPAD*
X104592000Y-58844000D03*
D17*
G04 #@! TO.P,J2,3*
G04 #@! TO.N,/D+*
X102092000Y-58834000D03*
G04 #@! TO.P,J2,2*
G04 #@! TO.N,/D-*
X100092000Y-58859000D03*
D16*
G04 #@! TO.P,J2,1*
G04 #@! TO.N,VBUS*
X97592000Y-58844000D03*
D18*
G04 #@! TO.P,J2,SH*
G04 #@! TO.N,EPAD*
X107662000Y-56134000D03*
X94522000Y-56134000D03*
G04 #@! TD*
D19*
G04 #@! TO.P,U1,1*
G04 #@! TO.N,Net-(C2-Pad1)*
X101163001Y-78187001D03*
G04 #@! TO.P,U1,2*
G04 #@! TO.N,/reg_in*
X101163001Y-79457001D03*
G04 #@! TO.P,U1,3*
X101163001Y-80727001D03*
G04 #@! TO.P,U1,4*
G04 #@! TO.N,Net-(R2-Pad2)*
X101163001Y-81997001D03*
G04 #@! TO.P,U1,5*
G04 #@! TO.N,Net-(R8-Pad2)*
X106563001Y-81997001D03*
G04 #@! TO.P,U1,6*
G04 #@! TO.N,Net-(U1-Pad6)*
X106563001Y-80727001D03*
G04 #@! TO.P,U1,7*
G04 #@! TO.N,EPAD*
X106563001Y-79457001D03*
G04 #@! TO.P,U1,8*
G04 #@! TO.N,/SWN*
X106563001Y-78187001D03*
D20*
G04 #@! TO.P,U1,9*
G04 #@! TO.N,EPAD*
X104450501Y-80679501D03*
X104450501Y-79504501D03*
X103275501Y-80679501D03*
X103275501Y-79504501D03*
G04 #@! TD*
D21*
G04 #@! TO.P,C2,1*
G04 #@! TO.N,Net-(C2-Pad1)*
X108580000Y-75895200D03*
G04 #@! TO.P,C2,2*
G04 #@! TO.N,/SWN*
X106680000Y-75895200D03*
G04 #@! TD*
D22*
G04 #@! TO.P,C4,1*
G04 #@! TO.N,VBUS*
X97282000Y-69037200D03*
G04 #@! TO.P,C4,2*
G04 #@! TO.N,EPAD*
X97282000Y-71537200D03*
G04 #@! TD*
G04 #@! TO.P,C3,1*
G04 #@! TO.N,VBUS*
X95199200Y-69037200D03*
G04 #@! TO.P,C3,2*
G04 #@! TO.N,EPAD*
X95199200Y-71537200D03*
G04 #@! TD*
D23*
G04 #@! TO.P,C1,1*
G04 #@! TO.N,/reg_in*
X93980000Y-80352400D03*
G04 #@! TO.P,C1,2*
G04 #@! TO.N,EPAD*
X93980000Y-76352400D03*
G04 #@! TD*
D24*
G04 #@! TO.P,D3,1*
G04 #@! TO.N,/SWN*
X107602000Y-72898000D03*
G04 #@! TO.P,D3,2*
G04 #@! TO.N,EPAD*
X102202000Y-72898000D03*
G04 #@! TD*
D25*
G04 #@! TO.P,D1,1*
G04 #@! TO.N,EPAD*
X91338400Y-56134000D03*
D26*
G04 #@! TO.P,D1,2*
G04 #@! TO.N,Net-(D1-Pad2)*
X88798400Y-56134000D03*
G04 #@! TD*
D10*
G04 #@! TO.P,R2,1*
G04 #@! TO.N,/reg_in*
X96352000Y-82550000D03*
G04 #@! TO.P,R2,2*
G04 #@! TO.N,Net-(R2-Pad2)*
X98552000Y-82550000D03*
G04 #@! TD*
D27*
G04 #@! TO.P,L1,2*
G04 #@! TO.N,VBUS*
X99284400Y-64947800D03*
G04 #@! TO.P,L1,1*
G04 #@! TO.N,/SWN*
X108284400Y-64947800D03*
G04 #@! TD*
D28*
G04 #@! TO.N,VBUS*
X93218000Y-68884800D03*
X105155996Y-83566000D03*
G04 #@! TO.N,EPAD*
X93345000Y-71882000D03*
X99187000Y-71882000D03*
X96647000Y-76835000D03*
X101219000Y-75565000D03*
X103759000Y-75565000D03*
X103759000Y-77978000D03*
D29*
G04 #@! TO.N,/reg_in*
X91694000Y-80264000D03*
D28*
G04 #@! TO.N,Net-(C2-Pad1)*
X99314000Y-77597000D03*
X108864400Y-77266800D03*
G04 #@! TD*
D30*
G04 #@! TO.N,VBUS*
X92506800Y-69596000D02*
X93218000Y-68884800D01*
X92151200Y-69951600D02*
X92506800Y-69596000D01*
X90170000Y-69951600D02*
X92151200Y-69951600D01*
D31*
X97592000Y-58844000D02*
X95207000Y-58844000D01*
X93218000Y-60833000D02*
X93218000Y-68884800D01*
X95207000Y-58844000D02*
X93218000Y-60833000D01*
D32*
X106054021Y-83566000D02*
X105155996Y-83566000D01*
X106664400Y-83515200D02*
X106613600Y-83566000D01*
X106613600Y-83566000D02*
X106054021Y-83566000D01*
D33*
G04 #@! TO.N,Net-(D1-Pad2)*
X88900000Y-58521600D02*
X90170000Y-59791600D01*
X88900000Y-56134000D02*
X88900000Y-58521600D01*
D30*
G04 #@! TO.N,EPAD*
X103275501Y-79504501D02*
X104450501Y-79504501D01*
X104450501Y-79504501D02*
X104450501Y-80679501D01*
X104450501Y-80679501D02*
X103275501Y-80679501D01*
X106515501Y-79504501D02*
X106563001Y-79457001D01*
X102802000Y-72898000D02*
X102202000Y-72898000D01*
D32*
X104498001Y-79457001D02*
X104450501Y-79504501D01*
X106563001Y-79457001D02*
X104498001Y-79457001D01*
X106568802Y-79451200D02*
X106563001Y-79457001D01*
X108508800Y-79451200D02*
X106568802Y-79451200D01*
X108864400Y-79095600D02*
X108508800Y-79451200D01*
D33*
G04 #@! TO.N,Net-(R2-Pad2)*
X100610002Y-82550000D02*
X101163001Y-81997001D01*
X98552000Y-82550000D02*
X100610002Y-82550000D01*
G04 #@! TO.N,Net-(C2-Pad1)*
X101055600Y-78079600D02*
X101163001Y-78187001D01*
D32*
X101163001Y-78187001D02*
X99753001Y-78187001D01*
X99314000Y-77748000D02*
X99314000Y-77597000D01*
X99753001Y-78187001D02*
X99314000Y-77748000D01*
X108580000Y-76982400D02*
X108864400Y-77266800D01*
X108580000Y-75895200D02*
X108580000Y-76982400D01*
D33*
G04 #@! TO.N,Net-(R8-Pad2)*
X108662999Y-81997001D02*
X108864400Y-81795600D01*
X106563001Y-81997001D02*
X108662999Y-81997001D01*
X108864400Y-83515200D02*
X108864400Y-81795600D01*
G04 #@! TD*
G04 #@! TO.N,/SWN*
G36*
X109373601Y-74911269D02*
X109180000Y-74872760D01*
X107980000Y-74872760D01*
X107732235Y-74922043D01*
X107682313Y-74955400D01*
X107645200Y-74955400D01*
X107596599Y-74965067D01*
X107555397Y-74992597D01*
X107527867Y-75033799D01*
X107522175Y-75062415D01*
X107381843Y-75272435D01*
X107332560Y-75520200D01*
X107332560Y-76270200D01*
X107381843Y-76517965D01*
X107518200Y-76722036D01*
X107518200Y-78460600D01*
X105791000Y-78460600D01*
X105791000Y-62661800D01*
X109373600Y-62661800D01*
X109373601Y-74911269D01*
X109373601Y-74911269D01*
G37*
X109373601Y-74911269D02*
X109180000Y-74872760D01*
X107980000Y-74872760D01*
X107732235Y-74922043D01*
X107682313Y-74955400D01*
X107645200Y-74955400D01*
X107596599Y-74965067D01*
X107555397Y-74992597D01*
X107527867Y-75033799D01*
X107522175Y-75062415D01*
X107381843Y-75272435D01*
X107332560Y-75520200D01*
X107332560Y-76270200D01*
X107381843Y-76517965D01*
X107518200Y-76722036D01*
X107518200Y-78460600D01*
X105791000Y-78460600D01*
X105791000Y-62661800D01*
X109373600Y-62661800D01*
X109373601Y-74911269D01*
G04 #@! TO.N,/reg_in*
G36*
X99381354Y-79084236D02*
X99659191Y-79139501D01*
X99753000Y-79158161D01*
X99846809Y-79139501D01*
X101256811Y-79139501D01*
X101282249Y-79134441D01*
X101930200Y-79134441D01*
X101930200Y-81049561D01*
X100388001Y-81049561D01*
X100140236Y-81098844D01*
X99983159Y-81203800D01*
X97383600Y-81203800D01*
X97334999Y-81213467D01*
X97293797Y-81240997D01*
X97266267Y-81282199D01*
X97256600Y-81330800D01*
X97256600Y-83719600D01*
X88238400Y-83719600D01*
X88238400Y-78968600D01*
X99208292Y-78968600D01*
X99381354Y-79084236D01*
X99381354Y-79084236D01*
G37*
X99381354Y-79084236D02*
X99659191Y-79139501D01*
X99753000Y-79158161D01*
X99846809Y-79139501D01*
X101256811Y-79139501D01*
X101282249Y-79134441D01*
X101930200Y-79134441D01*
X101930200Y-81049561D01*
X100388001Y-81049561D01*
X100140236Y-81098844D01*
X99983159Y-81203800D01*
X97383600Y-81203800D01*
X97334999Y-81213467D01*
X97293797Y-81240997D01*
X97266267Y-81282199D01*
X97256600Y-81330800D01*
X97256600Y-83719600D01*
X88238400Y-83719600D01*
X88238400Y-78968600D01*
X99208292Y-78968600D01*
X99381354Y-79084236D01*
G04 #@! TO.N,EPAD*
G36*
X104978200Y-76829346D02*
X100351846Y-76838795D01*
X100033397Y-76520346D01*
X99566619Y-76327000D01*
X99061381Y-76327000D01*
X98594603Y-76520346D01*
X98237346Y-76877603D01*
X98044000Y-77344381D01*
X98044000Y-77849619D01*
X98086656Y-77952600D01*
X92379800Y-77952600D01*
X92379800Y-74726800D01*
X92370133Y-74678199D01*
X92342603Y-74636997D01*
X92301401Y-74609467D01*
X92252800Y-74599800D01*
X91699926Y-74599800D01*
X91623365Y-74548643D01*
X91375600Y-74499360D01*
X89675600Y-74499360D01*
X89427835Y-74548643D01*
X89351274Y-74599800D01*
X88238400Y-74599800D01*
X88238400Y-71755000D01*
X92608400Y-71755000D01*
X92657001Y-71745333D01*
X92698203Y-71717803D01*
X92725733Y-71676601D01*
X92735400Y-71628000D01*
X92735400Y-70739000D01*
X104978200Y-70739000D01*
X104978200Y-76829346D01*
X104978200Y-76829346D01*
G37*
X104978200Y-76829346D02*
X100351846Y-76838795D01*
X100033397Y-76520346D01*
X99566619Y-76327000D01*
X99061381Y-76327000D01*
X98594603Y-76520346D01*
X98237346Y-76877603D01*
X98044000Y-77344381D01*
X98044000Y-77849619D01*
X98086656Y-77952600D01*
X92379800Y-77952600D01*
X92379800Y-74726800D01*
X92370133Y-74678199D01*
X92342603Y-74636997D01*
X92301401Y-74609467D01*
X92252800Y-74599800D01*
X91699926Y-74599800D01*
X91623365Y-74548643D01*
X91375600Y-74499360D01*
X89675600Y-74499360D01*
X89427835Y-74548643D01*
X89351274Y-74599800D01*
X88238400Y-74599800D01*
X88238400Y-71755000D01*
X92608400Y-71755000D01*
X92657001Y-71745333D01*
X92698203Y-71717803D01*
X92725733Y-71676601D01*
X92735400Y-71628000D01*
X92735400Y-70739000D01*
X104978200Y-70739000D01*
X104978200Y-76829346D01*
G36*
X104978200Y-82296000D02*
X104903377Y-82296000D01*
X104436599Y-82489346D01*
X104079342Y-82846603D01*
X103885996Y-83313381D01*
X103885996Y-83719600D01*
X102743000Y-83719600D01*
X102743000Y-75565000D01*
X104978200Y-75565000D01*
X104978200Y-82296000D01*
X104978200Y-82296000D01*
G37*
X104978200Y-82296000D02*
X104903377Y-82296000D01*
X104436599Y-82489346D01*
X104079342Y-82846603D01*
X103885996Y-83313381D01*
X103885996Y-83719600D01*
X102743000Y-83719600D01*
X102743000Y-75565000D01*
X104978200Y-75565000D01*
X104978200Y-82296000D01*
G04 #@! TO.N,VBUS*
G36*
X102235000Y-69578770D02*
X96300090Y-69570843D01*
X96299860Y-69570843D01*
X92075000Y-69572844D01*
X92075000Y-62661800D01*
X102235000Y-62661800D01*
X102235000Y-69578770D01*
X102235000Y-69578770D01*
G37*
X102235000Y-69578770D02*
X96300090Y-69570843D01*
X96299860Y-69570843D01*
X92075000Y-69572844D01*
X92075000Y-62661800D01*
X102235000Y-62661800D01*
X102235000Y-69578770D01*
G04 #@! TD*
M02*
