G04 #@! TF.GenerationSoftware,KiCad,Pcbnew,(5.0.0-3-g5ebb6b6)*
G04 #@! TF.CreationDate,2018-09-20T14:31:04-07:00*
G04 #@! TF.ProjectId,phone_charger,70686F6E655F636861726765722E6B69,rev?*
G04 #@! TF.SameCoordinates,Original*
G04 #@! TF.FileFunction,Legend,Top*
G04 #@! TF.FilePolarity,Positive*
%FSLAX46Y46*%
G04 Gerber Fmt 4.6, Leading zero omitted, Abs format (unit mm)*
G04 Created by KiCad (PCBNEW (5.0.0-3-g5ebb6b6)) date Thursday, September 20, 2018 at 02:31:04 PM*
%MOMM*%
%LPD*%
G01*
G04 APERTURE LIST*
%ADD10C,0.580000*%
%ADD11C,0.010000*%
%ADD12C,0.120000*%
%ADD13C,0.150000*%
G04 APERTURE END LIST*
D10*
X109626400Y-70053200D02*
G75*
G03X109626400Y-70053200I-152400J0D01*
G01*
X100584000Y-76758800D02*
G75*
G03X100584000Y-76758800I-152400J0D01*
G01*
D11*
G04 #@! TO.C,LOGO2*
G36*
X93140779Y-58909768D02*
X93205257Y-58923938D01*
X93267889Y-58946832D01*
X93327764Y-58978468D01*
X93383971Y-59018863D01*
X93407290Y-59039403D01*
X93420104Y-59052830D01*
X93437390Y-59073041D01*
X93457871Y-59098442D01*
X93480269Y-59127438D01*
X93503310Y-59158437D01*
X93509835Y-59167443D01*
X93709539Y-59439414D01*
X93910613Y-59702539D01*
X94114162Y-59958127D01*
X94321294Y-60207488D01*
X94533113Y-60451932D01*
X94750725Y-60692768D01*
X94975237Y-60931307D01*
X95153480Y-61114211D01*
X95437093Y-61393998D01*
X95726659Y-61665755D01*
X96022541Y-61929794D01*
X96325102Y-62186425D01*
X96634707Y-62435961D01*
X96951718Y-62678714D01*
X97132140Y-62811464D01*
X97180550Y-62846799D01*
X97221424Y-62877186D01*
X97255641Y-62903372D01*
X97284076Y-62926107D01*
X97307608Y-62946137D01*
X97327114Y-62964211D01*
X97343472Y-62981077D01*
X97357558Y-62997483D01*
X97370251Y-63014177D01*
X97370741Y-63014860D01*
X97407314Y-63074019D01*
X97434394Y-63136300D01*
X97452123Y-63202155D01*
X97460640Y-63272037D01*
X97461479Y-63309500D01*
X97456924Y-63377400D01*
X97444161Y-63440480D01*
X97422629Y-63500608D01*
X97391769Y-63559651D01*
X97381655Y-63575817D01*
X97366829Y-63597300D01*
X97350489Y-63617818D01*
X97331663Y-63638227D01*
X97309377Y-63659386D01*
X97282657Y-63682151D01*
X97250529Y-63707380D01*
X97212020Y-63735931D01*
X97166155Y-63768662D01*
X97149030Y-63780672D01*
X96837687Y-64004468D01*
X96532334Y-64236417D01*
X96233158Y-64476332D01*
X95940346Y-64724027D01*
X95654084Y-64979314D01*
X95374560Y-65242007D01*
X95101961Y-65511920D01*
X94836473Y-65788865D01*
X94578282Y-66072657D01*
X94327577Y-66363108D01*
X94084543Y-66660031D01*
X93849368Y-66963241D01*
X93622239Y-67272549D01*
X93545445Y-67381120D01*
X93509120Y-67432215D01*
X93476999Y-67475504D01*
X93448127Y-67511932D01*
X93421549Y-67542445D01*
X93396311Y-67567987D01*
X93371458Y-67589506D01*
X93346034Y-67607947D01*
X93319085Y-67624256D01*
X93289655Y-67639378D01*
X93280183Y-67643832D01*
X93230047Y-67663028D01*
X93174670Y-67677353D01*
X93117125Y-67686351D01*
X93060488Y-67689568D01*
X93007833Y-67686548D01*
X92999560Y-67685391D01*
X92962082Y-67677429D01*
X92920521Y-67664948D01*
X92878658Y-67649326D01*
X92840273Y-67631941D01*
X92815710Y-67618371D01*
X92784549Y-67597501D01*
X92755243Y-67574042D01*
X92726609Y-67546746D01*
X92697467Y-67514367D01*
X92666634Y-67475658D01*
X92632928Y-67429372D01*
X92622974Y-67415115D01*
X92421037Y-67130435D01*
X92215653Y-66854458D01*
X92005897Y-66586046D01*
X91790846Y-66324060D01*
X91569577Y-66067360D01*
X91341167Y-65814810D01*
X91221345Y-65686940D01*
X91182399Y-65646251D01*
X91137611Y-65600129D01*
X91088101Y-65549684D01*
X91034991Y-65496027D01*
X90979402Y-65440272D01*
X90922454Y-65383528D01*
X90865268Y-65326908D01*
X90808966Y-65271523D01*
X90754667Y-65218485D01*
X90703493Y-65168906D01*
X90656565Y-65123897D01*
X90615004Y-65084569D01*
X90597091Y-65067852D01*
X90372095Y-64863380D01*
X90142364Y-64663068D01*
X89909073Y-64467858D01*
X89673398Y-64278691D01*
X89436513Y-64096510D01*
X89199594Y-63922257D01*
X88963817Y-63756872D01*
X88948260Y-63746248D01*
X88889756Y-63704085D01*
X88840224Y-63663133D01*
X88798754Y-63622241D01*
X88764436Y-63580257D01*
X88736359Y-63536032D01*
X88713614Y-63488413D01*
X88695290Y-63436252D01*
X88690860Y-63420794D01*
X88684586Y-63389270D01*
X88680618Y-63350923D01*
X88678956Y-63308826D01*
X88679137Y-63296800D01*
X89517765Y-63296800D01*
X89521062Y-63355573D01*
X89531455Y-63408762D01*
X89549700Y-63458720D01*
X89576555Y-63507799D01*
X89593643Y-63533020D01*
X89598811Y-63538810D01*
X89610885Y-63551478D01*
X89629585Y-63570744D01*
X89654632Y-63596330D01*
X89685747Y-63627956D01*
X89722650Y-63665342D01*
X89765062Y-63708209D01*
X89812703Y-63756279D01*
X89865294Y-63809271D01*
X89922555Y-63866906D01*
X89984207Y-63928905D01*
X90049970Y-63994988D01*
X90119565Y-64064877D01*
X90192712Y-64138291D01*
X90269133Y-64214953D01*
X90348547Y-64294581D01*
X90430675Y-64376897D01*
X90515237Y-64461622D01*
X90601955Y-64548476D01*
X90690548Y-64637180D01*
X90780738Y-64727455D01*
X90872244Y-64819021D01*
X90964787Y-64911598D01*
X91058088Y-65004909D01*
X91151868Y-65098672D01*
X91245846Y-65192610D01*
X91339744Y-65286442D01*
X91433281Y-65379889D01*
X91526179Y-65472672D01*
X91618158Y-65564512D01*
X91708939Y-65655129D01*
X91798241Y-65744244D01*
X91885786Y-65831578D01*
X91971294Y-65916851D01*
X92054486Y-65999784D01*
X92135082Y-66080097D01*
X92212802Y-66157512D01*
X92287368Y-66231749D01*
X92358500Y-66302528D01*
X92425918Y-66369571D01*
X92489343Y-66432597D01*
X92548495Y-66491328D01*
X92603095Y-66545485D01*
X92652863Y-66594787D01*
X92697521Y-66638956D01*
X92736788Y-66677713D01*
X92770384Y-66710777D01*
X92798032Y-66737870D01*
X92819451Y-66758712D01*
X92834361Y-66773025D01*
X92842483Y-66780527D01*
X92843732Y-66781535D01*
X92866987Y-66795493D01*
X92895045Y-66809965D01*
X92924204Y-66823220D01*
X92950764Y-66833530D01*
X92963431Y-66837456D01*
X93018189Y-66847486D01*
X93076543Y-66849836D01*
X93135443Y-66844513D01*
X93172280Y-66837016D01*
X93223149Y-66819790D01*
X93273526Y-66794425D01*
X93314520Y-66766901D01*
X93320298Y-66761643D01*
X93333021Y-66749427D01*
X93352453Y-66730487D01*
X93378361Y-66705056D01*
X93410510Y-66673368D01*
X93448665Y-66635656D01*
X93492594Y-66592153D01*
X93542060Y-66543091D01*
X93596831Y-66488706D01*
X93656673Y-66429228D01*
X93721350Y-66364893D01*
X93790629Y-66295933D01*
X93864275Y-66222581D01*
X93942054Y-66145071D01*
X94023733Y-66063635D01*
X94109077Y-65978508D01*
X94197851Y-65889922D01*
X94289821Y-65798110D01*
X94384754Y-65703307D01*
X94482415Y-65605744D01*
X94582569Y-65505655D01*
X94684984Y-65403274D01*
X94789423Y-65298833D01*
X94895654Y-65192567D01*
X94943222Y-65144972D01*
X95072223Y-65015894D01*
X95194248Y-64893808D01*
X95309493Y-64778510D01*
X95418154Y-64669795D01*
X95520428Y-64567460D01*
X95616513Y-64471301D01*
X95706604Y-64381115D01*
X95790898Y-64296697D01*
X95869592Y-64217844D01*
X95942883Y-64144353D01*
X96010966Y-64076018D01*
X96074040Y-64012637D01*
X96132300Y-63954006D01*
X96185943Y-63899920D01*
X96235166Y-63850177D01*
X96280165Y-63804572D01*
X96321137Y-63762902D01*
X96358280Y-63724963D01*
X96391788Y-63690551D01*
X96421859Y-63659462D01*
X96448690Y-63631492D01*
X96472478Y-63606438D01*
X96493418Y-63584097D01*
X96511708Y-63564263D01*
X96527544Y-63546734D01*
X96541123Y-63531306D01*
X96552642Y-63517774D01*
X96562297Y-63505935D01*
X96570285Y-63495586D01*
X96576802Y-63486522D01*
X96582045Y-63478540D01*
X96586212Y-63471436D01*
X96589497Y-63465007D01*
X96592099Y-63459047D01*
X96594214Y-63453354D01*
X96596038Y-63447725D01*
X96597768Y-63441954D01*
X96599600Y-63435838D01*
X96601733Y-63429175D01*
X96603253Y-63424785D01*
X96609133Y-63407917D01*
X96613339Y-63393862D01*
X96616152Y-63380354D01*
X96617850Y-63365125D01*
X96618713Y-63345911D01*
X96619023Y-63320446D01*
X96619060Y-63296800D01*
X96618977Y-63265388D01*
X96618543Y-63241869D01*
X96617477Y-63223979D01*
X96615500Y-63209450D01*
X96612332Y-63196017D01*
X96607693Y-63181414D01*
X96603253Y-63168814D01*
X96600844Y-63161719D01*
X96598853Y-63155296D01*
X96597084Y-63149341D01*
X96595341Y-63143650D01*
X96593426Y-63138019D01*
X96591143Y-63132246D01*
X96588295Y-63126125D01*
X96584685Y-63119454D01*
X96580118Y-63112028D01*
X96574396Y-63103644D01*
X96567322Y-63094098D01*
X96558701Y-63083186D01*
X96548335Y-63070705D01*
X96536027Y-63056450D01*
X96521582Y-63040217D01*
X96504802Y-63021804D01*
X96485491Y-63001006D01*
X96463452Y-62977620D01*
X96438488Y-62951441D01*
X96410403Y-62922266D01*
X96379001Y-62889892D01*
X96344083Y-62854113D01*
X96305455Y-62814728D01*
X96262919Y-62771531D01*
X96216278Y-62724319D01*
X96165336Y-62672889D01*
X96109897Y-62617036D01*
X96049763Y-62556556D01*
X95984738Y-62491247D01*
X95914625Y-62420904D01*
X95839228Y-62345323D01*
X95758350Y-62264301D01*
X95671794Y-62177634D01*
X95579364Y-62085117D01*
X95480863Y-61986548D01*
X95376094Y-61881723D01*
X95264861Y-61770437D01*
X95146967Y-61652487D01*
X95022216Y-61527670D01*
X94943222Y-61448627D01*
X94836272Y-61341626D01*
X94731010Y-61236348D01*
X94627670Y-61133026D01*
X94526486Y-61031893D01*
X94427691Y-60933182D01*
X94331521Y-60837128D01*
X94238210Y-60743962D01*
X94147991Y-60653918D01*
X94061099Y-60567230D01*
X93977768Y-60484130D01*
X93898232Y-60404853D01*
X93822726Y-60329630D01*
X93751484Y-60258696D01*
X93684739Y-60192283D01*
X93622727Y-60130625D01*
X93565681Y-60073955D01*
X93513836Y-60022507D01*
X93467425Y-59976513D01*
X93426684Y-59936206D01*
X93391845Y-59901821D01*
X93363144Y-59873590D01*
X93340815Y-59851746D01*
X93325091Y-59836523D01*
X93316208Y-59828154D01*
X93314520Y-59826698D01*
X93262636Y-59792425D01*
X93208756Y-59767678D01*
X93151649Y-59752042D01*
X93090087Y-59745105D01*
X93070680Y-59744658D01*
X93007901Y-59748563D01*
X92949677Y-59761103D01*
X92894575Y-59782705D01*
X92843732Y-59812064D01*
X92838263Y-59816905D01*
X92825900Y-59828662D01*
X92806923Y-59847055D01*
X92781610Y-59871805D01*
X92750242Y-59902632D01*
X92713097Y-59939258D01*
X92670456Y-59981402D01*
X92622597Y-60028786D01*
X92569801Y-60081130D01*
X92512346Y-60138156D01*
X92450513Y-60199582D01*
X92384580Y-60265131D01*
X92314827Y-60334523D01*
X92241533Y-60407478D01*
X92164979Y-60483718D01*
X92085443Y-60562962D01*
X92003205Y-60644933D01*
X91918545Y-60729349D01*
X91831741Y-60815932D01*
X91743074Y-60904403D01*
X91652822Y-60994482D01*
X91561266Y-61085890D01*
X91468684Y-61178348D01*
X91375357Y-61271575D01*
X91281563Y-61365294D01*
X91187583Y-61459224D01*
X91093695Y-61553087D01*
X91000179Y-61646603D01*
X90907315Y-61739492D01*
X90815381Y-61831475D01*
X90724659Y-61922273D01*
X90635426Y-62011607D01*
X90547962Y-62099197D01*
X90462547Y-62184765D01*
X90379461Y-62268029D01*
X90298982Y-62348712D01*
X90221391Y-62426534D01*
X90146967Y-62501216D01*
X90075988Y-62572478D01*
X90008735Y-62640041D01*
X89945488Y-62703625D01*
X89886525Y-62762952D01*
X89832126Y-62817742D01*
X89782570Y-62867715D01*
X89738138Y-62912593D01*
X89699108Y-62952095D01*
X89665760Y-62985944D01*
X89638373Y-63013858D01*
X89617228Y-63035560D01*
X89602602Y-63050769D01*
X89594776Y-63059207D01*
X89593643Y-63060580D01*
X89562150Y-63110110D01*
X89539648Y-63159329D01*
X89525380Y-63210591D01*
X89518592Y-63266248D01*
X89517765Y-63296800D01*
X88679137Y-63296800D01*
X88679600Y-63266051D01*
X88682551Y-63225671D01*
X88687807Y-63190757D01*
X88690860Y-63177885D01*
X88714698Y-63108611D01*
X88746507Y-63045435D01*
X88786154Y-62988589D01*
X88819016Y-62952172D01*
X88833618Y-62938770D01*
X88854677Y-62921025D01*
X88880330Y-62900427D01*
X88908713Y-62878466D01*
X88937964Y-62856633D01*
X88943763Y-62852406D01*
X89268844Y-62610380D01*
X89587688Y-62360678D01*
X89900083Y-62103509D01*
X90205819Y-61839086D01*
X90504685Y-61567618D01*
X90796470Y-61289317D01*
X91080963Y-61004393D01*
X91357953Y-60713057D01*
X91627229Y-60415520D01*
X91888580Y-60111991D01*
X92141795Y-59802682D01*
X92386664Y-59487804D01*
X92597934Y-59202320D01*
X92621489Y-59170172D01*
X92645048Y-59138833D01*
X92667412Y-59109837D01*
X92687384Y-59084717D01*
X92703764Y-59065009D01*
X92714316Y-59053299D01*
X92766194Y-59006917D01*
X92822605Y-58969130D01*
X92882640Y-58939957D01*
X92945386Y-58919416D01*
X93009932Y-58907525D01*
X93075367Y-58904303D01*
X93140779Y-58909768D01*
X93140779Y-58909768D01*
G37*
X93140779Y-58909768D02*
X93205257Y-58923938D01*
X93267889Y-58946832D01*
X93327764Y-58978468D01*
X93383971Y-59018863D01*
X93407290Y-59039403D01*
X93420104Y-59052830D01*
X93437390Y-59073041D01*
X93457871Y-59098442D01*
X93480269Y-59127438D01*
X93503310Y-59158437D01*
X93509835Y-59167443D01*
X93709539Y-59439414D01*
X93910613Y-59702539D01*
X94114162Y-59958127D01*
X94321294Y-60207488D01*
X94533113Y-60451932D01*
X94750725Y-60692768D01*
X94975237Y-60931307D01*
X95153480Y-61114211D01*
X95437093Y-61393998D01*
X95726659Y-61665755D01*
X96022541Y-61929794D01*
X96325102Y-62186425D01*
X96634707Y-62435961D01*
X96951718Y-62678714D01*
X97132140Y-62811464D01*
X97180550Y-62846799D01*
X97221424Y-62877186D01*
X97255641Y-62903372D01*
X97284076Y-62926107D01*
X97307608Y-62946137D01*
X97327114Y-62964211D01*
X97343472Y-62981077D01*
X97357558Y-62997483D01*
X97370251Y-63014177D01*
X97370741Y-63014860D01*
X97407314Y-63074019D01*
X97434394Y-63136300D01*
X97452123Y-63202155D01*
X97460640Y-63272037D01*
X97461479Y-63309500D01*
X97456924Y-63377400D01*
X97444161Y-63440480D01*
X97422629Y-63500608D01*
X97391769Y-63559651D01*
X97381655Y-63575817D01*
X97366829Y-63597300D01*
X97350489Y-63617818D01*
X97331663Y-63638227D01*
X97309377Y-63659386D01*
X97282657Y-63682151D01*
X97250529Y-63707380D01*
X97212020Y-63735931D01*
X97166155Y-63768662D01*
X97149030Y-63780672D01*
X96837687Y-64004468D01*
X96532334Y-64236417D01*
X96233158Y-64476332D01*
X95940346Y-64724027D01*
X95654084Y-64979314D01*
X95374560Y-65242007D01*
X95101961Y-65511920D01*
X94836473Y-65788865D01*
X94578282Y-66072657D01*
X94327577Y-66363108D01*
X94084543Y-66660031D01*
X93849368Y-66963241D01*
X93622239Y-67272549D01*
X93545445Y-67381120D01*
X93509120Y-67432215D01*
X93476999Y-67475504D01*
X93448127Y-67511932D01*
X93421549Y-67542445D01*
X93396311Y-67567987D01*
X93371458Y-67589506D01*
X93346034Y-67607947D01*
X93319085Y-67624256D01*
X93289655Y-67639378D01*
X93280183Y-67643832D01*
X93230047Y-67663028D01*
X93174670Y-67677353D01*
X93117125Y-67686351D01*
X93060488Y-67689568D01*
X93007833Y-67686548D01*
X92999560Y-67685391D01*
X92962082Y-67677429D01*
X92920521Y-67664948D01*
X92878658Y-67649326D01*
X92840273Y-67631941D01*
X92815710Y-67618371D01*
X92784549Y-67597501D01*
X92755243Y-67574042D01*
X92726609Y-67546746D01*
X92697467Y-67514367D01*
X92666634Y-67475658D01*
X92632928Y-67429372D01*
X92622974Y-67415115D01*
X92421037Y-67130435D01*
X92215653Y-66854458D01*
X92005897Y-66586046D01*
X91790846Y-66324060D01*
X91569577Y-66067360D01*
X91341167Y-65814810D01*
X91221345Y-65686940D01*
X91182399Y-65646251D01*
X91137611Y-65600129D01*
X91088101Y-65549684D01*
X91034991Y-65496027D01*
X90979402Y-65440272D01*
X90922454Y-65383528D01*
X90865268Y-65326908D01*
X90808966Y-65271523D01*
X90754667Y-65218485D01*
X90703493Y-65168906D01*
X90656565Y-65123897D01*
X90615004Y-65084569D01*
X90597091Y-65067852D01*
X90372095Y-64863380D01*
X90142364Y-64663068D01*
X89909073Y-64467858D01*
X89673398Y-64278691D01*
X89436513Y-64096510D01*
X89199594Y-63922257D01*
X88963817Y-63756872D01*
X88948260Y-63746248D01*
X88889756Y-63704085D01*
X88840224Y-63663133D01*
X88798754Y-63622241D01*
X88764436Y-63580257D01*
X88736359Y-63536032D01*
X88713614Y-63488413D01*
X88695290Y-63436252D01*
X88690860Y-63420794D01*
X88684586Y-63389270D01*
X88680618Y-63350923D01*
X88678956Y-63308826D01*
X88679137Y-63296800D01*
X89517765Y-63296800D01*
X89521062Y-63355573D01*
X89531455Y-63408762D01*
X89549700Y-63458720D01*
X89576555Y-63507799D01*
X89593643Y-63533020D01*
X89598811Y-63538810D01*
X89610885Y-63551478D01*
X89629585Y-63570744D01*
X89654632Y-63596330D01*
X89685747Y-63627956D01*
X89722650Y-63665342D01*
X89765062Y-63708209D01*
X89812703Y-63756279D01*
X89865294Y-63809271D01*
X89922555Y-63866906D01*
X89984207Y-63928905D01*
X90049970Y-63994988D01*
X90119565Y-64064877D01*
X90192712Y-64138291D01*
X90269133Y-64214953D01*
X90348547Y-64294581D01*
X90430675Y-64376897D01*
X90515237Y-64461622D01*
X90601955Y-64548476D01*
X90690548Y-64637180D01*
X90780738Y-64727455D01*
X90872244Y-64819021D01*
X90964787Y-64911598D01*
X91058088Y-65004909D01*
X91151868Y-65098672D01*
X91245846Y-65192610D01*
X91339744Y-65286442D01*
X91433281Y-65379889D01*
X91526179Y-65472672D01*
X91618158Y-65564512D01*
X91708939Y-65655129D01*
X91798241Y-65744244D01*
X91885786Y-65831578D01*
X91971294Y-65916851D01*
X92054486Y-65999784D01*
X92135082Y-66080097D01*
X92212802Y-66157512D01*
X92287368Y-66231749D01*
X92358500Y-66302528D01*
X92425918Y-66369571D01*
X92489343Y-66432597D01*
X92548495Y-66491328D01*
X92603095Y-66545485D01*
X92652863Y-66594787D01*
X92697521Y-66638956D01*
X92736788Y-66677713D01*
X92770384Y-66710777D01*
X92798032Y-66737870D01*
X92819451Y-66758712D01*
X92834361Y-66773025D01*
X92842483Y-66780527D01*
X92843732Y-66781535D01*
X92866987Y-66795493D01*
X92895045Y-66809965D01*
X92924204Y-66823220D01*
X92950764Y-66833530D01*
X92963431Y-66837456D01*
X93018189Y-66847486D01*
X93076543Y-66849836D01*
X93135443Y-66844513D01*
X93172280Y-66837016D01*
X93223149Y-66819790D01*
X93273526Y-66794425D01*
X93314520Y-66766901D01*
X93320298Y-66761643D01*
X93333021Y-66749427D01*
X93352453Y-66730487D01*
X93378361Y-66705056D01*
X93410510Y-66673368D01*
X93448665Y-66635656D01*
X93492594Y-66592153D01*
X93542060Y-66543091D01*
X93596831Y-66488706D01*
X93656673Y-66429228D01*
X93721350Y-66364893D01*
X93790629Y-66295933D01*
X93864275Y-66222581D01*
X93942054Y-66145071D01*
X94023733Y-66063635D01*
X94109077Y-65978508D01*
X94197851Y-65889922D01*
X94289821Y-65798110D01*
X94384754Y-65703307D01*
X94482415Y-65605744D01*
X94582569Y-65505655D01*
X94684984Y-65403274D01*
X94789423Y-65298833D01*
X94895654Y-65192567D01*
X94943222Y-65144972D01*
X95072223Y-65015894D01*
X95194248Y-64893808D01*
X95309493Y-64778510D01*
X95418154Y-64669795D01*
X95520428Y-64567460D01*
X95616513Y-64471301D01*
X95706604Y-64381115D01*
X95790898Y-64296697D01*
X95869592Y-64217844D01*
X95942883Y-64144353D01*
X96010966Y-64076018D01*
X96074040Y-64012637D01*
X96132300Y-63954006D01*
X96185943Y-63899920D01*
X96235166Y-63850177D01*
X96280165Y-63804572D01*
X96321137Y-63762902D01*
X96358280Y-63724963D01*
X96391788Y-63690551D01*
X96421859Y-63659462D01*
X96448690Y-63631492D01*
X96472478Y-63606438D01*
X96493418Y-63584097D01*
X96511708Y-63564263D01*
X96527544Y-63546734D01*
X96541123Y-63531306D01*
X96552642Y-63517774D01*
X96562297Y-63505935D01*
X96570285Y-63495586D01*
X96576802Y-63486522D01*
X96582045Y-63478540D01*
X96586212Y-63471436D01*
X96589497Y-63465007D01*
X96592099Y-63459047D01*
X96594214Y-63453354D01*
X96596038Y-63447725D01*
X96597768Y-63441954D01*
X96599600Y-63435838D01*
X96601733Y-63429175D01*
X96603253Y-63424785D01*
X96609133Y-63407917D01*
X96613339Y-63393862D01*
X96616152Y-63380354D01*
X96617850Y-63365125D01*
X96618713Y-63345911D01*
X96619023Y-63320446D01*
X96619060Y-63296800D01*
X96618977Y-63265388D01*
X96618543Y-63241869D01*
X96617477Y-63223979D01*
X96615500Y-63209450D01*
X96612332Y-63196017D01*
X96607693Y-63181414D01*
X96603253Y-63168814D01*
X96600844Y-63161719D01*
X96598853Y-63155296D01*
X96597084Y-63149341D01*
X96595341Y-63143650D01*
X96593426Y-63138019D01*
X96591143Y-63132246D01*
X96588295Y-63126125D01*
X96584685Y-63119454D01*
X96580118Y-63112028D01*
X96574396Y-63103644D01*
X96567322Y-63094098D01*
X96558701Y-63083186D01*
X96548335Y-63070705D01*
X96536027Y-63056450D01*
X96521582Y-63040217D01*
X96504802Y-63021804D01*
X96485491Y-63001006D01*
X96463452Y-62977620D01*
X96438488Y-62951441D01*
X96410403Y-62922266D01*
X96379001Y-62889892D01*
X96344083Y-62854113D01*
X96305455Y-62814728D01*
X96262919Y-62771531D01*
X96216278Y-62724319D01*
X96165336Y-62672889D01*
X96109897Y-62617036D01*
X96049763Y-62556556D01*
X95984738Y-62491247D01*
X95914625Y-62420904D01*
X95839228Y-62345323D01*
X95758350Y-62264301D01*
X95671794Y-62177634D01*
X95579364Y-62085117D01*
X95480863Y-61986548D01*
X95376094Y-61881723D01*
X95264861Y-61770437D01*
X95146967Y-61652487D01*
X95022216Y-61527670D01*
X94943222Y-61448627D01*
X94836272Y-61341626D01*
X94731010Y-61236348D01*
X94627670Y-61133026D01*
X94526486Y-61031893D01*
X94427691Y-60933182D01*
X94331521Y-60837128D01*
X94238210Y-60743962D01*
X94147991Y-60653918D01*
X94061099Y-60567230D01*
X93977768Y-60484130D01*
X93898232Y-60404853D01*
X93822726Y-60329630D01*
X93751484Y-60258696D01*
X93684739Y-60192283D01*
X93622727Y-60130625D01*
X93565681Y-60073955D01*
X93513836Y-60022507D01*
X93467425Y-59976513D01*
X93426684Y-59936206D01*
X93391845Y-59901821D01*
X93363144Y-59873590D01*
X93340815Y-59851746D01*
X93325091Y-59836523D01*
X93316208Y-59828154D01*
X93314520Y-59826698D01*
X93262636Y-59792425D01*
X93208756Y-59767678D01*
X93151649Y-59752042D01*
X93090087Y-59745105D01*
X93070680Y-59744658D01*
X93007901Y-59748563D01*
X92949677Y-59761103D01*
X92894575Y-59782705D01*
X92843732Y-59812064D01*
X92838263Y-59816905D01*
X92825900Y-59828662D01*
X92806923Y-59847055D01*
X92781610Y-59871805D01*
X92750242Y-59902632D01*
X92713097Y-59939258D01*
X92670456Y-59981402D01*
X92622597Y-60028786D01*
X92569801Y-60081130D01*
X92512346Y-60138156D01*
X92450513Y-60199582D01*
X92384580Y-60265131D01*
X92314827Y-60334523D01*
X92241533Y-60407478D01*
X92164979Y-60483718D01*
X92085443Y-60562962D01*
X92003205Y-60644933D01*
X91918545Y-60729349D01*
X91831741Y-60815932D01*
X91743074Y-60904403D01*
X91652822Y-60994482D01*
X91561266Y-61085890D01*
X91468684Y-61178348D01*
X91375357Y-61271575D01*
X91281563Y-61365294D01*
X91187583Y-61459224D01*
X91093695Y-61553087D01*
X91000179Y-61646603D01*
X90907315Y-61739492D01*
X90815381Y-61831475D01*
X90724659Y-61922273D01*
X90635426Y-62011607D01*
X90547962Y-62099197D01*
X90462547Y-62184765D01*
X90379461Y-62268029D01*
X90298982Y-62348712D01*
X90221391Y-62426534D01*
X90146967Y-62501216D01*
X90075988Y-62572478D01*
X90008735Y-62640041D01*
X89945488Y-62703625D01*
X89886525Y-62762952D01*
X89832126Y-62817742D01*
X89782570Y-62867715D01*
X89738138Y-62912593D01*
X89699108Y-62952095D01*
X89665760Y-62985944D01*
X89638373Y-63013858D01*
X89617228Y-63035560D01*
X89602602Y-63050769D01*
X89594776Y-63059207D01*
X89593643Y-63060580D01*
X89562150Y-63110110D01*
X89539648Y-63159329D01*
X89525380Y-63210591D01*
X89518592Y-63266248D01*
X89517765Y-63296800D01*
X88679137Y-63296800D01*
X88679600Y-63266051D01*
X88682551Y-63225671D01*
X88687807Y-63190757D01*
X88690860Y-63177885D01*
X88714698Y-63108611D01*
X88746507Y-63045435D01*
X88786154Y-62988589D01*
X88819016Y-62952172D01*
X88833618Y-62938770D01*
X88854677Y-62921025D01*
X88880330Y-62900427D01*
X88908713Y-62878466D01*
X88937964Y-62856633D01*
X88943763Y-62852406D01*
X89268844Y-62610380D01*
X89587688Y-62360678D01*
X89900083Y-62103509D01*
X90205819Y-61839086D01*
X90504685Y-61567618D01*
X90796470Y-61289317D01*
X91080963Y-61004393D01*
X91357953Y-60713057D01*
X91627229Y-60415520D01*
X91888580Y-60111991D01*
X92141795Y-59802682D01*
X92386664Y-59487804D01*
X92597934Y-59202320D01*
X92621489Y-59170172D01*
X92645048Y-59138833D01*
X92667412Y-59109837D01*
X92687384Y-59084717D01*
X92703764Y-59065009D01*
X92714316Y-59053299D01*
X92766194Y-59006917D01*
X92822605Y-58969130D01*
X92882640Y-58939957D01*
X92945386Y-58919416D01*
X93009932Y-58907525D01*
X93075367Y-58904303D01*
X93140779Y-58909768D01*
G36*
X93110592Y-59918909D02*
X93156940Y-59932568D01*
X93173724Y-59940066D01*
X93176708Y-59941746D01*
X93180560Y-59944365D01*
X93185478Y-59948118D01*
X93191660Y-59953201D01*
X93199304Y-59959810D01*
X93208609Y-59968143D01*
X93219773Y-59978393D01*
X93232993Y-59990758D01*
X93248467Y-60005433D01*
X93266395Y-60022615D01*
X93286974Y-60042499D01*
X93310402Y-60065282D01*
X93336877Y-60091159D01*
X93366598Y-60120327D01*
X93399762Y-60152981D01*
X93436568Y-60189318D01*
X93477213Y-60229533D01*
X93521897Y-60273822D01*
X93570817Y-60322383D01*
X93624171Y-60375409D01*
X93682157Y-60433098D01*
X93744973Y-60495646D01*
X93812819Y-60563248D01*
X93885891Y-60636100D01*
X93964388Y-60714400D01*
X94048507Y-60798341D01*
X94138448Y-60888121D01*
X94234408Y-60983936D01*
X94336586Y-61085981D01*
X94445179Y-61194453D01*
X94560385Y-61309548D01*
X94682404Y-61431460D01*
X94794615Y-61543584D01*
X94901336Y-61650241D01*
X95006321Y-61755195D01*
X95109336Y-61858211D01*
X95210148Y-61959057D01*
X95308523Y-62057497D01*
X95404230Y-62153298D01*
X95497034Y-62246226D01*
X95586702Y-62336046D01*
X95673002Y-62422525D01*
X95755700Y-62505428D01*
X95834563Y-62584522D01*
X95909357Y-62659572D01*
X95979851Y-62730344D01*
X96045809Y-62796605D01*
X96107000Y-62858120D01*
X96163190Y-62914656D01*
X96214146Y-62965977D01*
X96259635Y-63011851D01*
X96299424Y-63052043D01*
X96333279Y-63086318D01*
X96360967Y-63114444D01*
X96382255Y-63136186D01*
X96396911Y-63151310D01*
X96404700Y-63159582D01*
X96405829Y-63160903D01*
X96429823Y-63201008D01*
X96444809Y-63244324D01*
X96450788Y-63289367D01*
X96447758Y-63334650D01*
X96435721Y-63378689D01*
X96414676Y-63420000D01*
X96405818Y-63432696D01*
X96400690Y-63438343D01*
X96388620Y-63450920D01*
X96369857Y-63470176D01*
X96344649Y-63495862D01*
X96313245Y-63527729D01*
X96275892Y-63565528D01*
X96232839Y-63609008D01*
X96184334Y-63657921D01*
X96130626Y-63712017D01*
X96071963Y-63771047D01*
X96008593Y-63834760D01*
X95940764Y-63902908D01*
X95868726Y-63975242D01*
X95792725Y-64051511D01*
X95713010Y-64131466D01*
X95629830Y-64214858D01*
X95543432Y-64301437D01*
X95454066Y-64390954D01*
X95361980Y-64483160D01*
X95267420Y-64577804D01*
X95170637Y-64674638D01*
X95071879Y-64773412D01*
X94976215Y-64869056D01*
X93568520Y-66276213D01*
X93568520Y-66152187D01*
X93529150Y-66150703D01*
X93489780Y-66149220D01*
X93488502Y-64392810D01*
X93488423Y-64283714D01*
X93816364Y-64283714D01*
X93819047Y-64302067D01*
X93820341Y-64312429D01*
X93822460Y-64331149D01*
X93825214Y-64356474D01*
X93828414Y-64386654D01*
X93831870Y-64419934D01*
X93833309Y-64433990D01*
X93844888Y-64547560D01*
X93875614Y-64544151D01*
X93889415Y-64542339D01*
X93911378Y-64539115D01*
X93939648Y-64534768D01*
X93972368Y-64529584D01*
X94007685Y-64523853D01*
X94028260Y-64520452D01*
X94177812Y-64493592D01*
X94322054Y-64463730D01*
X94460587Y-64431017D01*
X94593014Y-64395605D01*
X94718938Y-64357646D01*
X94837959Y-64317292D01*
X94949682Y-64274694D01*
X95053708Y-64230005D01*
X95149639Y-64183376D01*
X95237078Y-64134959D01*
X95315627Y-64084906D01*
X95384889Y-64033369D01*
X95444466Y-63980499D01*
X95445671Y-63979316D01*
X95495239Y-63925948D01*
X95534944Y-63872922D01*
X95565045Y-63819707D01*
X95585801Y-63765775D01*
X95597472Y-63710594D01*
X95600444Y-63663017D01*
X95598050Y-63616379D01*
X95590376Y-63574771D01*
X95576447Y-63534021D01*
X95564072Y-63507008D01*
X95531611Y-63452421D01*
X95489287Y-63399623D01*
X95437252Y-63348697D01*
X95375658Y-63299726D01*
X95304658Y-63252794D01*
X95224405Y-63207985D01*
X95135051Y-63165381D01*
X95036749Y-63125066D01*
X94929650Y-63087124D01*
X94813908Y-63051637D01*
X94689674Y-63018689D01*
X94655643Y-63010463D01*
X94562366Y-62988354D01*
X94538430Y-62913678D01*
X94530052Y-62887815D01*
X94522673Y-62865556D01*
X94516874Y-62848615D01*
X94513239Y-62838708D01*
X94512374Y-62836880D01*
X94507120Y-62836935D01*
X94492758Y-62837768D01*
X94470304Y-62839297D01*
X94440773Y-62841439D01*
X94405181Y-62844112D01*
X94364544Y-62847233D01*
X94319877Y-62850721D01*
X94272195Y-62854492D01*
X94222515Y-62858464D01*
X94171853Y-62862556D01*
X94121223Y-62866684D01*
X94071641Y-62870766D01*
X94024123Y-62874720D01*
X93979685Y-62878464D01*
X93939342Y-62881914D01*
X93904109Y-62884990D01*
X93875003Y-62887607D01*
X93853039Y-62889684D01*
X93839233Y-62891139D01*
X93834605Y-62891861D01*
X93838987Y-62893679D01*
X93852160Y-62898330D01*
X93873244Y-62905528D01*
X93901361Y-62914985D01*
X93935633Y-62926415D01*
X93975180Y-62939531D01*
X94019124Y-62954045D01*
X94066586Y-62969672D01*
X94116687Y-62986123D01*
X94168549Y-63003111D01*
X94221294Y-63020351D01*
X94274042Y-63037555D01*
X94325914Y-63054436D01*
X94376033Y-63070707D01*
X94423518Y-63086081D01*
X94467493Y-63100272D01*
X94507078Y-63112992D01*
X94541393Y-63123954D01*
X94569562Y-63132871D01*
X94590704Y-63139458D01*
X94603942Y-63143425D01*
X94608327Y-63144525D01*
X94610012Y-63139870D01*
X94607403Y-63126153D01*
X94600525Y-63103509D01*
X94599464Y-63100346D01*
X94593168Y-63080802D01*
X94588717Y-63065173D01*
X94586726Y-63055722D01*
X94586850Y-63054016D01*
X94593182Y-63054002D01*
X94607809Y-63057280D01*
X94629562Y-63063442D01*
X94657275Y-63072077D01*
X94689779Y-63082777D01*
X94725907Y-63095134D01*
X94764492Y-63108737D01*
X94804365Y-63123178D01*
X94844360Y-63138049D01*
X94883308Y-63152940D01*
X94920042Y-63167442D01*
X94953395Y-63181146D01*
X94969646Y-63188096D01*
X95054247Y-63227277D01*
X95131844Y-63268069D01*
X95202148Y-63310183D01*
X95264868Y-63353329D01*
X95319715Y-63397218D01*
X95366400Y-63441560D01*
X95404632Y-63486065D01*
X95434122Y-63530445D01*
X95454581Y-63574409D01*
X95465718Y-63617668D01*
X95467245Y-63659932D01*
X95463959Y-63682299D01*
X95449186Y-63727448D01*
X95424591Y-63771826D01*
X95390494Y-63815304D01*
X95347212Y-63857752D01*
X95295064Y-63899040D01*
X95234368Y-63939041D01*
X95165442Y-63977624D01*
X95088606Y-64014660D01*
X95004177Y-64050020D01*
X94912473Y-64083576D01*
X94813814Y-64115196D01*
X94708517Y-64144753D01*
X94596900Y-64172117D01*
X94479283Y-64197159D01*
X94355984Y-64219750D01*
X94227320Y-64239760D01*
X94093611Y-64257060D01*
X94030800Y-64264041D01*
X93993675Y-64267893D01*
X93956836Y-64271598D01*
X93922515Y-64274939D01*
X93892949Y-64277701D01*
X93870370Y-64279668D01*
X93863892Y-64280176D01*
X93816364Y-64283714D01*
X93488423Y-64283714D01*
X93487225Y-62636399D01*
X93525332Y-62636400D01*
X93563440Y-62636400D01*
X93563440Y-62580965D01*
X93526610Y-62579472D01*
X93489780Y-62577980D01*
X93489780Y-61805820D01*
X93563440Y-61802834D01*
X93563440Y-61747400D01*
X93526500Y-61747400D01*
X93489561Y-61747399D01*
X93459693Y-61596270D01*
X93450005Y-61548109D01*
X93441822Y-61509379D01*
X93434999Y-61479484D01*
X93429393Y-61457827D01*
X93424858Y-61443815D01*
X93421250Y-61436851D01*
X93420948Y-61436532D01*
X93415144Y-61426650D01*
X93410216Y-61411026D01*
X93408422Y-61401394D01*
X93405512Y-61386487D01*
X93402322Y-61381680D01*
X93398920Y-61386918D01*
X93395373Y-61402146D01*
X93393580Y-61413390D01*
X93390022Y-61428943D01*
X93385280Y-61436885D01*
X93383449Y-61437520D01*
X93379190Y-61442495D01*
X93374124Y-61457460D01*
X93368232Y-61482468D01*
X93365269Y-61497210D01*
X93360503Y-61521044D01*
X93356120Y-61541458D01*
X93352614Y-61556238D01*
X93350520Y-61563101D01*
X93348728Y-61559292D01*
X93344501Y-61546385D01*
X93338043Y-61525096D01*
X93329556Y-61496139D01*
X93319243Y-61460229D01*
X93307308Y-61418082D01*
X93293954Y-61370410D01*
X93279383Y-61317930D01*
X93263798Y-61261355D01*
X93247403Y-61201401D01*
X93239390Y-61171941D01*
X93131478Y-60774580D01*
X93131559Y-60707270D01*
X93131501Y-60679986D01*
X93131095Y-60661263D01*
X93130110Y-60649498D01*
X93128315Y-60643093D01*
X93125478Y-60640448D01*
X93121822Y-60639960D01*
X93112507Y-60635968D01*
X93109480Y-60631070D01*
X93108196Y-60623791D01*
X93105876Y-60607860D01*
X93102712Y-60584709D01*
X93098897Y-60555770D01*
X93094623Y-60522477D01*
X93090413Y-60488928D01*
X93085956Y-60453559D01*
X93081831Y-60421841D01*
X93078218Y-60395065D01*
X93075295Y-60374525D01*
X93073239Y-60361512D01*
X93072239Y-60357307D01*
X93071283Y-60362426D01*
X93069244Y-60376047D01*
X93066330Y-60396594D01*
X93062752Y-60422489D01*
X93058718Y-60452159D01*
X93054440Y-60484026D01*
X93050126Y-60516515D01*
X93045986Y-60548050D01*
X93042230Y-60577055D01*
X93039068Y-60601953D01*
X93036710Y-60621170D01*
X93035365Y-60633129D01*
X93035131Y-60636150D01*
X93030856Y-60639248D01*
X93024960Y-60639960D01*
X93020710Y-60640538D01*
X93017858Y-60643386D01*
X93016137Y-60650169D01*
X93015282Y-60662557D01*
X93015030Y-60682214D01*
X93015074Y-60702190D01*
X93015348Y-60764420D01*
X92907124Y-61164432D01*
X92890398Y-61226129D01*
X92874395Y-61284919D01*
X92859317Y-61340075D01*
X92845366Y-61390869D01*
X92832743Y-61436575D01*
X92821651Y-61476464D01*
X92812291Y-61509809D01*
X92804865Y-61535882D01*
X92799575Y-61553958D01*
X92796624Y-61563307D01*
X92796091Y-61564482D01*
X92794108Y-61559821D01*
X92790764Y-61547090D01*
X92786521Y-61528217D01*
X92781839Y-61505126D01*
X92781683Y-61504313D01*
X92775381Y-61474405D01*
X92769659Y-61453535D01*
X92764178Y-61440621D01*
X92760361Y-61435783D01*
X92752773Y-61424473D01*
X92750133Y-61413439D01*
X92748269Y-61397507D01*
X92745824Y-61386720D01*
X92743510Y-61381268D01*
X92741259Y-61382703D01*
X92738459Y-61392154D01*
X92735510Y-61405770D01*
X92731118Y-61422760D01*
X92726382Y-61434100D01*
X92722783Y-61437520D01*
X92719751Y-61442510D01*
X92715157Y-61457381D01*
X92709037Y-61481976D01*
X92701429Y-61516142D01*
X92692370Y-61559725D01*
X92687591Y-61583570D01*
X92680116Y-61621108D01*
X92673179Y-61655681D01*
X92667052Y-61685955D01*
X92662007Y-61710593D01*
X92658317Y-61728263D01*
X92656252Y-61737629D01*
X92656024Y-61738510D01*
X92653074Y-61743178D01*
X92646156Y-61745895D01*
X92633100Y-61747141D01*
X92615677Y-61747400D01*
X92577920Y-61747400D01*
X92577920Y-61803280D01*
X92649040Y-61803280D01*
X92649040Y-62580520D01*
X92577920Y-62580520D01*
X92577920Y-62636400D01*
X92649040Y-62636400D01*
X92649040Y-66151760D01*
X92573152Y-66151760D01*
X92570300Y-66273770D01*
X91147440Y-64850055D01*
X91027014Y-64729554D01*
X90913563Y-64616024D01*
X90806875Y-64509253D01*
X90706743Y-64409028D01*
X90612954Y-64315137D01*
X90525300Y-64227365D01*
X90443571Y-64145502D01*
X90367557Y-64069334D01*
X90297047Y-63998648D01*
X90231832Y-63933232D01*
X90171702Y-63872872D01*
X90116448Y-63817357D01*
X90065858Y-63766474D01*
X90019723Y-63720009D01*
X89977834Y-63677750D01*
X89946699Y-63646276D01*
X90539045Y-63646276D01*
X90539415Y-63681636D01*
X90542061Y-63715591D01*
X90546920Y-63744385D01*
X90547997Y-63748626D01*
X90569358Y-63808299D01*
X90600736Y-63866585D01*
X90642137Y-63923491D01*
X90693570Y-63979024D01*
X90755042Y-64033192D01*
X90826561Y-64086002D01*
X90908134Y-64137461D01*
X90999770Y-64187576D01*
X91025980Y-64200750D01*
X91137400Y-64252109D01*
X91258081Y-64300748D01*
X91387448Y-64346499D01*
X91524930Y-64389196D01*
X91669952Y-64428672D01*
X91821940Y-64464760D01*
X91980323Y-64497292D01*
X92141040Y-64525539D01*
X92171586Y-64530485D01*
X92199388Y-64534999D01*
X92222605Y-64538781D01*
X92239391Y-64541531D01*
X92247720Y-64542916D01*
X92260458Y-64544548D01*
X92274769Y-64545635D01*
X92287019Y-64545998D01*
X92293570Y-64545456D01*
X92293882Y-64545210D01*
X92295103Y-64538240D01*
X92297026Y-64523113D01*
X92299490Y-64501480D01*
X92302333Y-64474995D01*
X92305392Y-64445309D01*
X92308506Y-64414076D01*
X92311512Y-64382947D01*
X92314248Y-64353577D01*
X92316554Y-64327616D01*
X92318265Y-64306719D01*
X92319220Y-64292536D01*
X92319258Y-64286722D01*
X92319234Y-64286682D01*
X92313490Y-64285261D01*
X92299212Y-64283222D01*
X92277994Y-64280749D01*
X92251430Y-64278026D01*
X92221114Y-64275236D01*
X92217240Y-64274900D01*
X92074950Y-64260870D01*
X91936956Y-64243699D01*
X91803695Y-64223522D01*
X91675603Y-64200470D01*
X91553119Y-64174678D01*
X91436679Y-64146279D01*
X91326722Y-64115407D01*
X91223684Y-64082194D01*
X91128003Y-64046774D01*
X91040117Y-64009280D01*
X90960463Y-63969847D01*
X90889477Y-63928606D01*
X90827598Y-63885692D01*
X90775264Y-63841238D01*
X90766309Y-63832503D01*
X90744016Y-63809455D01*
X90727390Y-63790055D01*
X90714285Y-63771460D01*
X90702554Y-63750824D01*
X90698158Y-63742153D01*
X90687252Y-63719051D01*
X90680388Y-63700822D01*
X90676454Y-63683579D01*
X90674341Y-63663438D01*
X90673968Y-63657499D01*
X90673354Y-63631888D01*
X90675389Y-63610819D01*
X90680727Y-63588872D01*
X90683272Y-63580682D01*
X90703499Y-63533506D01*
X90733561Y-63486636D01*
X90773130Y-63440216D01*
X90821881Y-63394393D01*
X90879489Y-63349310D01*
X90945629Y-63305114D01*
X91019975Y-63261950D01*
X91102202Y-63219962D01*
X91191983Y-63179296D01*
X91288995Y-63140097D01*
X91392911Y-63102510D01*
X91503405Y-63066681D01*
X91620153Y-63032754D01*
X91742829Y-63000875D01*
X91871108Y-62971188D01*
X92004663Y-62943840D01*
X92143170Y-62918975D01*
X92180434Y-62912857D01*
X92213545Y-62907446D01*
X92242930Y-62902489D01*
X92267230Y-62898229D01*
X92285088Y-62894908D01*
X92295146Y-62892768D01*
X92296859Y-62892126D01*
X92291266Y-62891904D01*
X92276921Y-62892690D01*
X92255170Y-62894353D01*
X92227357Y-62896761D01*
X92194828Y-62899783D01*
X92158925Y-62903286D01*
X92120995Y-62907141D01*
X92082382Y-62911214D01*
X92044431Y-62915376D01*
X92008486Y-62919493D01*
X91975892Y-62923436D01*
X91973400Y-62923748D01*
X91832167Y-62943536D01*
X91694486Y-62966831D01*
X91561394Y-62993388D01*
X91433924Y-63022964D01*
X91313112Y-63055316D01*
X91199995Y-63090201D01*
X91095606Y-63127374D01*
X91076780Y-63134700D01*
X91040058Y-63150042D01*
X90998945Y-63168632D01*
X90955715Y-63189326D01*
X90912643Y-63210977D01*
X90872002Y-63232441D01*
X90836067Y-63252571D01*
X90807113Y-63270222D01*
X90805000Y-63271602D01*
X90736836Y-63320541D01*
X90678503Y-63371242D01*
X90630044Y-63423650D01*
X90591503Y-63477712D01*
X90562926Y-63533375D01*
X90545372Y-63586360D01*
X90541010Y-63613266D01*
X90539045Y-63646276D01*
X89946699Y-63646276D01*
X89939980Y-63639484D01*
X89905951Y-63604999D01*
X89875538Y-63574081D01*
X89848530Y-63546519D01*
X89824717Y-63522099D01*
X89803891Y-63500609D01*
X89785840Y-63481835D01*
X89770355Y-63465566D01*
X89757225Y-63451588D01*
X89746242Y-63439689D01*
X89737194Y-63429656D01*
X89729873Y-63421277D01*
X89724068Y-63414337D01*
X89719569Y-63408626D01*
X89716166Y-63403930D01*
X89713649Y-63400036D01*
X89711809Y-63396731D01*
X89710509Y-63393974D01*
X89694616Y-63347223D01*
X89688560Y-63301961D01*
X89692354Y-63257094D01*
X89706008Y-63211527D01*
X89712567Y-63196392D01*
X89714034Y-63193461D01*
X89715959Y-63190153D01*
X89718540Y-63186267D01*
X89721974Y-63181603D01*
X89726459Y-63175961D01*
X89732193Y-63169141D01*
X89739374Y-63160943D01*
X89748200Y-63151166D01*
X89758869Y-63139611D01*
X89771578Y-63126077D01*
X89786525Y-63110365D01*
X89803908Y-63092274D01*
X89823926Y-63071605D01*
X89846775Y-63048157D01*
X89872654Y-63021730D01*
X89901760Y-62992123D01*
X89934292Y-62959138D01*
X89970447Y-62922574D01*
X90010423Y-62882231D01*
X90054418Y-62837908D01*
X90102629Y-62789406D01*
X90155256Y-62736524D01*
X90212494Y-62679063D01*
X90274543Y-62616822D01*
X90341600Y-62549602D01*
X90413863Y-62477202D01*
X90491530Y-62399422D01*
X90574799Y-62316061D01*
X90663867Y-62226921D01*
X90758932Y-62131801D01*
X90860193Y-62030501D01*
X90967846Y-61922820D01*
X91082091Y-61808559D01*
X91203124Y-61687517D01*
X91331144Y-61559495D01*
X91332259Y-61558379D01*
X91460368Y-61430273D01*
X91581495Y-61309155D01*
X91695839Y-61194828D01*
X91803601Y-61087094D01*
X91904980Y-60985756D01*
X92000177Y-60890615D01*
X92089392Y-60801473D01*
X92172824Y-60718134D01*
X92250674Y-60640400D01*
X92323141Y-60568072D01*
X92390425Y-60500953D01*
X92452726Y-60438845D01*
X92510245Y-60381551D01*
X92563181Y-60328872D01*
X92611733Y-60280611D01*
X92656103Y-60236571D01*
X92696490Y-60196553D01*
X92733094Y-60160360D01*
X92766115Y-60127794D01*
X92795752Y-60098658D01*
X92822207Y-60072753D01*
X92845678Y-60049882D01*
X92866365Y-60029847D01*
X92884470Y-60012451D01*
X92900190Y-59997495D01*
X92913728Y-59984783D01*
X92925282Y-59974115D01*
X92935052Y-59965295D01*
X92943239Y-59958125D01*
X92950041Y-59952407D01*
X92955661Y-59947943D01*
X92960296Y-59944536D01*
X92964147Y-59941988D01*
X92967415Y-59940101D01*
X92969954Y-59938836D01*
X93017002Y-59922042D01*
X93063913Y-59915400D01*
X93110592Y-59918909D01*
X93110592Y-59918909D01*
G37*
X93110592Y-59918909D02*
X93156940Y-59932568D01*
X93173724Y-59940066D01*
X93176708Y-59941746D01*
X93180560Y-59944365D01*
X93185478Y-59948118D01*
X93191660Y-59953201D01*
X93199304Y-59959810D01*
X93208609Y-59968143D01*
X93219773Y-59978393D01*
X93232993Y-59990758D01*
X93248467Y-60005433D01*
X93266395Y-60022615D01*
X93286974Y-60042499D01*
X93310402Y-60065282D01*
X93336877Y-60091159D01*
X93366598Y-60120327D01*
X93399762Y-60152981D01*
X93436568Y-60189318D01*
X93477213Y-60229533D01*
X93521897Y-60273822D01*
X93570817Y-60322383D01*
X93624171Y-60375409D01*
X93682157Y-60433098D01*
X93744973Y-60495646D01*
X93812819Y-60563248D01*
X93885891Y-60636100D01*
X93964388Y-60714400D01*
X94048507Y-60798341D01*
X94138448Y-60888121D01*
X94234408Y-60983936D01*
X94336586Y-61085981D01*
X94445179Y-61194453D01*
X94560385Y-61309548D01*
X94682404Y-61431460D01*
X94794615Y-61543584D01*
X94901336Y-61650241D01*
X95006321Y-61755195D01*
X95109336Y-61858211D01*
X95210148Y-61959057D01*
X95308523Y-62057497D01*
X95404230Y-62153298D01*
X95497034Y-62246226D01*
X95586702Y-62336046D01*
X95673002Y-62422525D01*
X95755700Y-62505428D01*
X95834563Y-62584522D01*
X95909357Y-62659572D01*
X95979851Y-62730344D01*
X96045809Y-62796605D01*
X96107000Y-62858120D01*
X96163190Y-62914656D01*
X96214146Y-62965977D01*
X96259635Y-63011851D01*
X96299424Y-63052043D01*
X96333279Y-63086318D01*
X96360967Y-63114444D01*
X96382255Y-63136186D01*
X96396911Y-63151310D01*
X96404700Y-63159582D01*
X96405829Y-63160903D01*
X96429823Y-63201008D01*
X96444809Y-63244324D01*
X96450788Y-63289367D01*
X96447758Y-63334650D01*
X96435721Y-63378689D01*
X96414676Y-63420000D01*
X96405818Y-63432696D01*
X96400690Y-63438343D01*
X96388620Y-63450920D01*
X96369857Y-63470176D01*
X96344649Y-63495862D01*
X96313245Y-63527729D01*
X96275892Y-63565528D01*
X96232839Y-63609008D01*
X96184334Y-63657921D01*
X96130626Y-63712017D01*
X96071963Y-63771047D01*
X96008593Y-63834760D01*
X95940764Y-63902908D01*
X95868726Y-63975242D01*
X95792725Y-64051511D01*
X95713010Y-64131466D01*
X95629830Y-64214858D01*
X95543432Y-64301437D01*
X95454066Y-64390954D01*
X95361980Y-64483160D01*
X95267420Y-64577804D01*
X95170637Y-64674638D01*
X95071879Y-64773412D01*
X94976215Y-64869056D01*
X93568520Y-66276213D01*
X93568520Y-66152187D01*
X93529150Y-66150703D01*
X93489780Y-66149220D01*
X93488502Y-64392810D01*
X93488423Y-64283714D01*
X93816364Y-64283714D01*
X93819047Y-64302067D01*
X93820341Y-64312429D01*
X93822460Y-64331149D01*
X93825214Y-64356474D01*
X93828414Y-64386654D01*
X93831870Y-64419934D01*
X93833309Y-64433990D01*
X93844888Y-64547560D01*
X93875614Y-64544151D01*
X93889415Y-64542339D01*
X93911378Y-64539115D01*
X93939648Y-64534768D01*
X93972368Y-64529584D01*
X94007685Y-64523853D01*
X94028260Y-64520452D01*
X94177812Y-64493592D01*
X94322054Y-64463730D01*
X94460587Y-64431017D01*
X94593014Y-64395605D01*
X94718938Y-64357646D01*
X94837959Y-64317292D01*
X94949682Y-64274694D01*
X95053708Y-64230005D01*
X95149639Y-64183376D01*
X95237078Y-64134959D01*
X95315627Y-64084906D01*
X95384889Y-64033369D01*
X95444466Y-63980499D01*
X95445671Y-63979316D01*
X95495239Y-63925948D01*
X95534944Y-63872922D01*
X95565045Y-63819707D01*
X95585801Y-63765775D01*
X95597472Y-63710594D01*
X95600444Y-63663017D01*
X95598050Y-63616379D01*
X95590376Y-63574771D01*
X95576447Y-63534021D01*
X95564072Y-63507008D01*
X95531611Y-63452421D01*
X95489287Y-63399623D01*
X95437252Y-63348697D01*
X95375658Y-63299726D01*
X95304658Y-63252794D01*
X95224405Y-63207985D01*
X95135051Y-63165381D01*
X95036749Y-63125066D01*
X94929650Y-63087124D01*
X94813908Y-63051637D01*
X94689674Y-63018689D01*
X94655643Y-63010463D01*
X94562366Y-62988354D01*
X94538430Y-62913678D01*
X94530052Y-62887815D01*
X94522673Y-62865556D01*
X94516874Y-62848615D01*
X94513239Y-62838708D01*
X94512374Y-62836880D01*
X94507120Y-62836935D01*
X94492758Y-62837768D01*
X94470304Y-62839297D01*
X94440773Y-62841439D01*
X94405181Y-62844112D01*
X94364544Y-62847233D01*
X94319877Y-62850721D01*
X94272195Y-62854492D01*
X94222515Y-62858464D01*
X94171853Y-62862556D01*
X94121223Y-62866684D01*
X94071641Y-62870766D01*
X94024123Y-62874720D01*
X93979685Y-62878464D01*
X93939342Y-62881914D01*
X93904109Y-62884990D01*
X93875003Y-62887607D01*
X93853039Y-62889684D01*
X93839233Y-62891139D01*
X93834605Y-62891861D01*
X93838987Y-62893679D01*
X93852160Y-62898330D01*
X93873244Y-62905528D01*
X93901361Y-62914985D01*
X93935633Y-62926415D01*
X93975180Y-62939531D01*
X94019124Y-62954045D01*
X94066586Y-62969672D01*
X94116687Y-62986123D01*
X94168549Y-63003111D01*
X94221294Y-63020351D01*
X94274042Y-63037555D01*
X94325914Y-63054436D01*
X94376033Y-63070707D01*
X94423518Y-63086081D01*
X94467493Y-63100272D01*
X94507078Y-63112992D01*
X94541393Y-63123954D01*
X94569562Y-63132871D01*
X94590704Y-63139458D01*
X94603942Y-63143425D01*
X94608327Y-63144525D01*
X94610012Y-63139870D01*
X94607403Y-63126153D01*
X94600525Y-63103509D01*
X94599464Y-63100346D01*
X94593168Y-63080802D01*
X94588717Y-63065173D01*
X94586726Y-63055722D01*
X94586850Y-63054016D01*
X94593182Y-63054002D01*
X94607809Y-63057280D01*
X94629562Y-63063442D01*
X94657275Y-63072077D01*
X94689779Y-63082777D01*
X94725907Y-63095134D01*
X94764492Y-63108737D01*
X94804365Y-63123178D01*
X94844360Y-63138049D01*
X94883308Y-63152940D01*
X94920042Y-63167442D01*
X94953395Y-63181146D01*
X94969646Y-63188096D01*
X95054247Y-63227277D01*
X95131844Y-63268069D01*
X95202148Y-63310183D01*
X95264868Y-63353329D01*
X95319715Y-63397218D01*
X95366400Y-63441560D01*
X95404632Y-63486065D01*
X95434122Y-63530445D01*
X95454581Y-63574409D01*
X95465718Y-63617668D01*
X95467245Y-63659932D01*
X95463959Y-63682299D01*
X95449186Y-63727448D01*
X95424591Y-63771826D01*
X95390494Y-63815304D01*
X95347212Y-63857752D01*
X95295064Y-63899040D01*
X95234368Y-63939041D01*
X95165442Y-63977624D01*
X95088606Y-64014660D01*
X95004177Y-64050020D01*
X94912473Y-64083576D01*
X94813814Y-64115196D01*
X94708517Y-64144753D01*
X94596900Y-64172117D01*
X94479283Y-64197159D01*
X94355984Y-64219750D01*
X94227320Y-64239760D01*
X94093611Y-64257060D01*
X94030800Y-64264041D01*
X93993675Y-64267893D01*
X93956836Y-64271598D01*
X93922515Y-64274939D01*
X93892949Y-64277701D01*
X93870370Y-64279668D01*
X93863892Y-64280176D01*
X93816364Y-64283714D01*
X93488423Y-64283714D01*
X93487225Y-62636399D01*
X93525332Y-62636400D01*
X93563440Y-62636400D01*
X93563440Y-62580965D01*
X93526610Y-62579472D01*
X93489780Y-62577980D01*
X93489780Y-61805820D01*
X93563440Y-61802834D01*
X93563440Y-61747400D01*
X93526500Y-61747400D01*
X93489561Y-61747399D01*
X93459693Y-61596270D01*
X93450005Y-61548109D01*
X93441822Y-61509379D01*
X93434999Y-61479484D01*
X93429393Y-61457827D01*
X93424858Y-61443815D01*
X93421250Y-61436851D01*
X93420948Y-61436532D01*
X93415144Y-61426650D01*
X93410216Y-61411026D01*
X93408422Y-61401394D01*
X93405512Y-61386487D01*
X93402322Y-61381680D01*
X93398920Y-61386918D01*
X93395373Y-61402146D01*
X93393580Y-61413390D01*
X93390022Y-61428943D01*
X93385280Y-61436885D01*
X93383449Y-61437520D01*
X93379190Y-61442495D01*
X93374124Y-61457460D01*
X93368232Y-61482468D01*
X93365269Y-61497210D01*
X93360503Y-61521044D01*
X93356120Y-61541458D01*
X93352614Y-61556238D01*
X93350520Y-61563101D01*
X93348728Y-61559292D01*
X93344501Y-61546385D01*
X93338043Y-61525096D01*
X93329556Y-61496139D01*
X93319243Y-61460229D01*
X93307308Y-61418082D01*
X93293954Y-61370410D01*
X93279383Y-61317930D01*
X93263798Y-61261355D01*
X93247403Y-61201401D01*
X93239390Y-61171941D01*
X93131478Y-60774580D01*
X93131559Y-60707270D01*
X93131501Y-60679986D01*
X93131095Y-60661263D01*
X93130110Y-60649498D01*
X93128315Y-60643093D01*
X93125478Y-60640448D01*
X93121822Y-60639960D01*
X93112507Y-60635968D01*
X93109480Y-60631070D01*
X93108196Y-60623791D01*
X93105876Y-60607860D01*
X93102712Y-60584709D01*
X93098897Y-60555770D01*
X93094623Y-60522477D01*
X93090413Y-60488928D01*
X93085956Y-60453559D01*
X93081831Y-60421841D01*
X93078218Y-60395065D01*
X93075295Y-60374525D01*
X93073239Y-60361512D01*
X93072239Y-60357307D01*
X93071283Y-60362426D01*
X93069244Y-60376047D01*
X93066330Y-60396594D01*
X93062752Y-60422489D01*
X93058718Y-60452159D01*
X93054440Y-60484026D01*
X93050126Y-60516515D01*
X93045986Y-60548050D01*
X93042230Y-60577055D01*
X93039068Y-60601953D01*
X93036710Y-60621170D01*
X93035365Y-60633129D01*
X93035131Y-60636150D01*
X93030856Y-60639248D01*
X93024960Y-60639960D01*
X93020710Y-60640538D01*
X93017858Y-60643386D01*
X93016137Y-60650169D01*
X93015282Y-60662557D01*
X93015030Y-60682214D01*
X93015074Y-60702190D01*
X93015348Y-60764420D01*
X92907124Y-61164432D01*
X92890398Y-61226129D01*
X92874395Y-61284919D01*
X92859317Y-61340075D01*
X92845366Y-61390869D01*
X92832743Y-61436575D01*
X92821651Y-61476464D01*
X92812291Y-61509809D01*
X92804865Y-61535882D01*
X92799575Y-61553958D01*
X92796624Y-61563307D01*
X92796091Y-61564482D01*
X92794108Y-61559821D01*
X92790764Y-61547090D01*
X92786521Y-61528217D01*
X92781839Y-61505126D01*
X92781683Y-61504313D01*
X92775381Y-61474405D01*
X92769659Y-61453535D01*
X92764178Y-61440621D01*
X92760361Y-61435783D01*
X92752773Y-61424473D01*
X92750133Y-61413439D01*
X92748269Y-61397507D01*
X92745824Y-61386720D01*
X92743510Y-61381268D01*
X92741259Y-61382703D01*
X92738459Y-61392154D01*
X92735510Y-61405770D01*
X92731118Y-61422760D01*
X92726382Y-61434100D01*
X92722783Y-61437520D01*
X92719751Y-61442510D01*
X92715157Y-61457381D01*
X92709037Y-61481976D01*
X92701429Y-61516142D01*
X92692370Y-61559725D01*
X92687591Y-61583570D01*
X92680116Y-61621108D01*
X92673179Y-61655681D01*
X92667052Y-61685955D01*
X92662007Y-61710593D01*
X92658317Y-61728263D01*
X92656252Y-61737629D01*
X92656024Y-61738510D01*
X92653074Y-61743178D01*
X92646156Y-61745895D01*
X92633100Y-61747141D01*
X92615677Y-61747400D01*
X92577920Y-61747400D01*
X92577920Y-61803280D01*
X92649040Y-61803280D01*
X92649040Y-62580520D01*
X92577920Y-62580520D01*
X92577920Y-62636400D01*
X92649040Y-62636400D01*
X92649040Y-66151760D01*
X92573152Y-66151760D01*
X92570300Y-66273770D01*
X91147440Y-64850055D01*
X91027014Y-64729554D01*
X90913563Y-64616024D01*
X90806875Y-64509253D01*
X90706743Y-64409028D01*
X90612954Y-64315137D01*
X90525300Y-64227365D01*
X90443571Y-64145502D01*
X90367557Y-64069334D01*
X90297047Y-63998648D01*
X90231832Y-63933232D01*
X90171702Y-63872872D01*
X90116448Y-63817357D01*
X90065858Y-63766474D01*
X90019723Y-63720009D01*
X89977834Y-63677750D01*
X89946699Y-63646276D01*
X90539045Y-63646276D01*
X90539415Y-63681636D01*
X90542061Y-63715591D01*
X90546920Y-63744385D01*
X90547997Y-63748626D01*
X90569358Y-63808299D01*
X90600736Y-63866585D01*
X90642137Y-63923491D01*
X90693570Y-63979024D01*
X90755042Y-64033192D01*
X90826561Y-64086002D01*
X90908134Y-64137461D01*
X90999770Y-64187576D01*
X91025980Y-64200750D01*
X91137400Y-64252109D01*
X91258081Y-64300748D01*
X91387448Y-64346499D01*
X91524930Y-64389196D01*
X91669952Y-64428672D01*
X91821940Y-64464760D01*
X91980323Y-64497292D01*
X92141040Y-64525539D01*
X92171586Y-64530485D01*
X92199388Y-64534999D01*
X92222605Y-64538781D01*
X92239391Y-64541531D01*
X92247720Y-64542916D01*
X92260458Y-64544548D01*
X92274769Y-64545635D01*
X92287019Y-64545998D01*
X92293570Y-64545456D01*
X92293882Y-64545210D01*
X92295103Y-64538240D01*
X92297026Y-64523113D01*
X92299490Y-64501480D01*
X92302333Y-64474995D01*
X92305392Y-64445309D01*
X92308506Y-64414076D01*
X92311512Y-64382947D01*
X92314248Y-64353577D01*
X92316554Y-64327616D01*
X92318265Y-64306719D01*
X92319220Y-64292536D01*
X92319258Y-64286722D01*
X92319234Y-64286682D01*
X92313490Y-64285261D01*
X92299212Y-64283222D01*
X92277994Y-64280749D01*
X92251430Y-64278026D01*
X92221114Y-64275236D01*
X92217240Y-64274900D01*
X92074950Y-64260870D01*
X91936956Y-64243699D01*
X91803695Y-64223522D01*
X91675603Y-64200470D01*
X91553119Y-64174678D01*
X91436679Y-64146279D01*
X91326722Y-64115407D01*
X91223684Y-64082194D01*
X91128003Y-64046774D01*
X91040117Y-64009280D01*
X90960463Y-63969847D01*
X90889477Y-63928606D01*
X90827598Y-63885692D01*
X90775264Y-63841238D01*
X90766309Y-63832503D01*
X90744016Y-63809455D01*
X90727390Y-63790055D01*
X90714285Y-63771460D01*
X90702554Y-63750824D01*
X90698158Y-63742153D01*
X90687252Y-63719051D01*
X90680388Y-63700822D01*
X90676454Y-63683579D01*
X90674341Y-63663438D01*
X90673968Y-63657499D01*
X90673354Y-63631888D01*
X90675389Y-63610819D01*
X90680727Y-63588872D01*
X90683272Y-63580682D01*
X90703499Y-63533506D01*
X90733561Y-63486636D01*
X90773130Y-63440216D01*
X90821881Y-63394393D01*
X90879489Y-63349310D01*
X90945629Y-63305114D01*
X91019975Y-63261950D01*
X91102202Y-63219962D01*
X91191983Y-63179296D01*
X91288995Y-63140097D01*
X91392911Y-63102510D01*
X91503405Y-63066681D01*
X91620153Y-63032754D01*
X91742829Y-63000875D01*
X91871108Y-62971188D01*
X92004663Y-62943840D01*
X92143170Y-62918975D01*
X92180434Y-62912857D01*
X92213545Y-62907446D01*
X92242930Y-62902489D01*
X92267230Y-62898229D01*
X92285088Y-62894908D01*
X92295146Y-62892768D01*
X92296859Y-62892126D01*
X92291266Y-62891904D01*
X92276921Y-62892690D01*
X92255170Y-62894353D01*
X92227357Y-62896761D01*
X92194828Y-62899783D01*
X92158925Y-62903286D01*
X92120995Y-62907141D01*
X92082382Y-62911214D01*
X92044431Y-62915376D01*
X92008486Y-62919493D01*
X91975892Y-62923436D01*
X91973400Y-62923748D01*
X91832167Y-62943536D01*
X91694486Y-62966831D01*
X91561394Y-62993388D01*
X91433924Y-63022964D01*
X91313112Y-63055316D01*
X91199995Y-63090201D01*
X91095606Y-63127374D01*
X91076780Y-63134700D01*
X91040058Y-63150042D01*
X90998945Y-63168632D01*
X90955715Y-63189326D01*
X90912643Y-63210977D01*
X90872002Y-63232441D01*
X90836067Y-63252571D01*
X90807113Y-63270222D01*
X90805000Y-63271602D01*
X90736836Y-63320541D01*
X90678503Y-63371242D01*
X90630044Y-63423650D01*
X90591503Y-63477712D01*
X90562926Y-63533375D01*
X90545372Y-63586360D01*
X90541010Y-63613266D01*
X90539045Y-63646276D01*
X89946699Y-63646276D01*
X89939980Y-63639484D01*
X89905951Y-63604999D01*
X89875538Y-63574081D01*
X89848530Y-63546519D01*
X89824717Y-63522099D01*
X89803891Y-63500609D01*
X89785840Y-63481835D01*
X89770355Y-63465566D01*
X89757225Y-63451588D01*
X89746242Y-63439689D01*
X89737194Y-63429656D01*
X89729873Y-63421277D01*
X89724068Y-63414337D01*
X89719569Y-63408626D01*
X89716166Y-63403930D01*
X89713649Y-63400036D01*
X89711809Y-63396731D01*
X89710509Y-63393974D01*
X89694616Y-63347223D01*
X89688560Y-63301961D01*
X89692354Y-63257094D01*
X89706008Y-63211527D01*
X89712567Y-63196392D01*
X89714034Y-63193461D01*
X89715959Y-63190153D01*
X89718540Y-63186267D01*
X89721974Y-63181603D01*
X89726459Y-63175961D01*
X89732193Y-63169141D01*
X89739374Y-63160943D01*
X89748200Y-63151166D01*
X89758869Y-63139611D01*
X89771578Y-63126077D01*
X89786525Y-63110365D01*
X89803908Y-63092274D01*
X89823926Y-63071605D01*
X89846775Y-63048157D01*
X89872654Y-63021730D01*
X89901760Y-62992123D01*
X89934292Y-62959138D01*
X89970447Y-62922574D01*
X90010423Y-62882231D01*
X90054418Y-62837908D01*
X90102629Y-62789406D01*
X90155256Y-62736524D01*
X90212494Y-62679063D01*
X90274543Y-62616822D01*
X90341600Y-62549602D01*
X90413863Y-62477202D01*
X90491530Y-62399422D01*
X90574799Y-62316061D01*
X90663867Y-62226921D01*
X90758932Y-62131801D01*
X90860193Y-62030501D01*
X90967846Y-61922820D01*
X91082091Y-61808559D01*
X91203124Y-61687517D01*
X91331144Y-61559495D01*
X91332259Y-61558379D01*
X91460368Y-61430273D01*
X91581495Y-61309155D01*
X91695839Y-61194828D01*
X91803601Y-61087094D01*
X91904980Y-60985756D01*
X92000177Y-60890615D01*
X92089392Y-60801473D01*
X92172824Y-60718134D01*
X92250674Y-60640400D01*
X92323141Y-60568072D01*
X92390425Y-60500953D01*
X92452726Y-60438845D01*
X92510245Y-60381551D01*
X92563181Y-60328872D01*
X92611733Y-60280611D01*
X92656103Y-60236571D01*
X92696490Y-60196553D01*
X92733094Y-60160360D01*
X92766115Y-60127794D01*
X92795752Y-60098658D01*
X92822207Y-60072753D01*
X92845678Y-60049882D01*
X92866365Y-60029847D01*
X92884470Y-60012451D01*
X92900190Y-59997495D01*
X92913728Y-59984783D01*
X92925282Y-59974115D01*
X92935052Y-59965295D01*
X92943239Y-59958125D01*
X92950041Y-59952407D01*
X92955661Y-59947943D01*
X92960296Y-59944536D01*
X92964147Y-59941988D01*
X92967415Y-59940101D01*
X92969954Y-59938836D01*
X93017002Y-59922042D01*
X93063913Y-59915400D01*
X93110592Y-59918909D01*
G36*
X93142677Y-63002711D02*
X93194841Y-63020498D01*
X93241801Y-63046689D01*
X93282944Y-63080814D01*
X93317660Y-63122400D01*
X93345336Y-63170978D01*
X93358537Y-63203945D01*
X93369712Y-63250575D01*
X93373070Y-63300331D01*
X93368612Y-63349852D01*
X93358537Y-63389654D01*
X93335500Y-63442283D01*
X93305143Y-63488146D01*
X93268079Y-63526780D01*
X93224921Y-63557722D01*
X93176283Y-63580509D01*
X93122778Y-63594677D01*
X93080840Y-63599319D01*
X93042939Y-63599112D01*
X93008879Y-63594914D01*
X93004640Y-63594014D01*
X92953692Y-63577569D01*
X92906951Y-63552077D01*
X92863895Y-63517246D01*
X92857149Y-63510621D01*
X92825157Y-63474388D01*
X92801331Y-63437562D01*
X92783960Y-63397177D01*
X92775915Y-63369972D01*
X92767447Y-63316729D01*
X92768053Y-63290875D01*
X92794677Y-63290875D01*
X92797924Y-63340055D01*
X92809716Y-63387684D01*
X92830053Y-63432000D01*
X92836204Y-63441946D01*
X92868870Y-63483822D01*
X92907104Y-63518652D01*
X92949632Y-63545498D01*
X92995177Y-63563420D01*
X93004546Y-63565853D01*
X93026590Y-63569131D01*
X93054551Y-63570539D01*
X93084712Y-63570155D01*
X93113360Y-63568060D01*
X93136776Y-63564331D01*
X93142147Y-63562928D01*
X93188360Y-63544502D01*
X93231274Y-63518256D01*
X93269054Y-63485662D01*
X93299862Y-63448191D01*
X93313227Y-63425926D01*
X93333166Y-63377803D01*
X93343568Y-63328832D01*
X93344884Y-63280035D01*
X93337562Y-63232437D01*
X93322051Y-63187062D01*
X93298802Y-63144932D01*
X93268264Y-63107072D01*
X93230885Y-63074506D01*
X93187116Y-63048257D01*
X93139384Y-63029917D01*
X93108715Y-63024220D01*
X93072636Y-63022517D01*
X93034944Y-63024604D01*
X92999434Y-63030277D01*
X92970747Y-63038978D01*
X92923470Y-63063448D01*
X92882634Y-63095390D01*
X92847397Y-63135507D01*
X92836204Y-63151653D01*
X92813817Y-63194913D01*
X92799975Y-63241908D01*
X92794677Y-63290875D01*
X92768053Y-63290875D01*
X92768714Y-63262712D01*
X92779538Y-63209379D01*
X92799741Y-63158184D01*
X92802414Y-63152965D01*
X92822457Y-63121973D01*
X92849401Y-63090601D01*
X92880464Y-63061546D01*
X92912865Y-63037509D01*
X92933520Y-63025758D01*
X92984276Y-63005792D01*
X93035624Y-62995035D01*
X93085920Y-62993800D01*
X93142677Y-63002711D01*
X93142677Y-63002711D01*
G37*
X93142677Y-63002711D02*
X93194841Y-63020498D01*
X93241801Y-63046689D01*
X93282944Y-63080814D01*
X93317660Y-63122400D01*
X93345336Y-63170978D01*
X93358537Y-63203945D01*
X93369712Y-63250575D01*
X93373070Y-63300331D01*
X93368612Y-63349852D01*
X93358537Y-63389654D01*
X93335500Y-63442283D01*
X93305143Y-63488146D01*
X93268079Y-63526780D01*
X93224921Y-63557722D01*
X93176283Y-63580509D01*
X93122778Y-63594677D01*
X93080840Y-63599319D01*
X93042939Y-63599112D01*
X93008879Y-63594914D01*
X93004640Y-63594014D01*
X92953692Y-63577569D01*
X92906951Y-63552077D01*
X92863895Y-63517246D01*
X92857149Y-63510621D01*
X92825157Y-63474388D01*
X92801331Y-63437562D01*
X92783960Y-63397177D01*
X92775915Y-63369972D01*
X92767447Y-63316729D01*
X92768053Y-63290875D01*
X92794677Y-63290875D01*
X92797924Y-63340055D01*
X92809716Y-63387684D01*
X92830053Y-63432000D01*
X92836204Y-63441946D01*
X92868870Y-63483822D01*
X92907104Y-63518652D01*
X92949632Y-63545498D01*
X92995177Y-63563420D01*
X93004546Y-63565853D01*
X93026590Y-63569131D01*
X93054551Y-63570539D01*
X93084712Y-63570155D01*
X93113360Y-63568060D01*
X93136776Y-63564331D01*
X93142147Y-63562928D01*
X93188360Y-63544502D01*
X93231274Y-63518256D01*
X93269054Y-63485662D01*
X93299862Y-63448191D01*
X93313227Y-63425926D01*
X93333166Y-63377803D01*
X93343568Y-63328832D01*
X93344884Y-63280035D01*
X93337562Y-63232437D01*
X93322051Y-63187062D01*
X93298802Y-63144932D01*
X93268264Y-63107072D01*
X93230885Y-63074506D01*
X93187116Y-63048257D01*
X93139384Y-63029917D01*
X93108715Y-63024220D01*
X93072636Y-63022517D01*
X93034944Y-63024604D01*
X92999434Y-63030277D01*
X92970747Y-63038978D01*
X92923470Y-63063448D01*
X92882634Y-63095390D01*
X92847397Y-63135507D01*
X92836204Y-63151653D01*
X92813817Y-63194913D01*
X92799975Y-63241908D01*
X92794677Y-63290875D01*
X92768053Y-63290875D01*
X92768714Y-63262712D01*
X92779538Y-63209379D01*
X92799741Y-63158184D01*
X92802414Y-63152965D01*
X92822457Y-63121973D01*
X92849401Y-63090601D01*
X92880464Y-63061546D01*
X92912865Y-63037509D01*
X92933520Y-63025758D01*
X92984276Y-63005792D01*
X93035624Y-62995035D01*
X93085920Y-62993800D01*
X93142677Y-63002711D01*
G36*
X92853415Y-61925377D02*
X92877003Y-61938534D01*
X92881314Y-61942117D01*
X92888459Y-61948460D01*
X92894448Y-61954476D01*
X92899383Y-61961078D01*
X92903367Y-61969176D01*
X92906500Y-61979683D01*
X92908885Y-61993510D01*
X92910625Y-62011571D01*
X92911820Y-62034776D01*
X92912573Y-62064037D01*
X92912986Y-62100267D01*
X92913161Y-62144378D01*
X92913199Y-62197281D01*
X92913200Y-62227296D01*
X92913200Y-62463680D01*
X92755720Y-62463680D01*
X92755720Y-62229836D01*
X92755737Y-62172394D01*
X92755852Y-62124186D01*
X92756159Y-62084284D01*
X92756751Y-62051763D01*
X92757725Y-62025695D01*
X92759173Y-62005155D01*
X92761190Y-61989216D01*
X92763870Y-61976950D01*
X92767307Y-61967433D01*
X92771597Y-61959737D01*
X92776832Y-61952935D01*
X92783108Y-61946101D01*
X92784767Y-61944367D01*
X92806124Y-61928321D01*
X92829398Y-61921982D01*
X92853415Y-61925377D01*
X92853415Y-61925377D01*
G37*
X92853415Y-61925377D02*
X92877003Y-61938534D01*
X92881314Y-61942117D01*
X92888459Y-61948460D01*
X92894448Y-61954476D01*
X92899383Y-61961078D01*
X92903367Y-61969176D01*
X92906500Y-61979683D01*
X92908885Y-61993510D01*
X92910625Y-62011571D01*
X92911820Y-62034776D01*
X92912573Y-62064037D01*
X92912986Y-62100267D01*
X92913161Y-62144378D01*
X92913199Y-62197281D01*
X92913200Y-62227296D01*
X92913200Y-62463680D01*
X92755720Y-62463680D01*
X92755720Y-62229836D01*
X92755737Y-62172394D01*
X92755852Y-62124186D01*
X92756159Y-62084284D01*
X92756751Y-62051763D01*
X92757725Y-62025695D01*
X92759173Y-62005155D01*
X92761190Y-61989216D01*
X92763870Y-61976950D01*
X92767307Y-61967433D01*
X92771597Y-61959737D01*
X92776832Y-61952935D01*
X92783108Y-61946101D01*
X92784767Y-61944367D01*
X92806124Y-61928321D01*
X92829398Y-61921982D01*
X92853415Y-61925377D01*
G36*
X93080847Y-61923580D02*
X93104119Y-61932664D01*
X93124499Y-61949019D01*
X93136720Y-61965840D01*
X93149420Y-61988700D01*
X93152428Y-62463680D01*
X92989400Y-62463680D01*
X92989428Y-62233810D01*
X92989571Y-62168344D01*
X92989981Y-62112561D01*
X92990657Y-62066547D01*
X92991596Y-62030388D01*
X92992796Y-62004171D01*
X92994256Y-61987981D01*
X92995066Y-61983734D01*
X93005021Y-61962581D01*
X93021177Y-61943472D01*
X93040657Y-61929215D01*
X93057171Y-61923102D01*
X93080847Y-61923580D01*
X93080847Y-61923580D01*
G37*
X93080847Y-61923580D02*
X93104119Y-61932664D01*
X93124499Y-61949019D01*
X93136720Y-61965840D01*
X93149420Y-61988700D01*
X93152428Y-62463680D01*
X92989400Y-62463680D01*
X92989428Y-62233810D01*
X92989571Y-62168344D01*
X92989981Y-62112561D01*
X92990657Y-62066547D01*
X92991596Y-62030388D01*
X92992796Y-62004171D01*
X92994256Y-61987981D01*
X92995066Y-61983734D01*
X93005021Y-61962581D01*
X93021177Y-61943472D01*
X93040657Y-61929215D01*
X93057171Y-61923102D01*
X93080847Y-61923580D01*
G36*
X93324899Y-61925639D02*
X93347936Y-61937327D01*
X93352788Y-61941269D01*
X93360088Y-61947961D01*
X93366218Y-61954735D01*
X93371281Y-61962500D01*
X93375378Y-61972162D01*
X93378612Y-61984629D01*
X93381085Y-62000806D01*
X93382898Y-62021603D01*
X93384153Y-62047925D01*
X93384953Y-62080681D01*
X93385399Y-62120776D01*
X93385594Y-62169119D01*
X93385639Y-62226616D01*
X93385640Y-62233444D01*
X93385640Y-62463680D01*
X93222611Y-62463680D01*
X93224115Y-62226190D01*
X93225620Y-61988700D01*
X93238320Y-61965840D01*
X93255528Y-61943520D01*
X93276894Y-61929122D01*
X93300618Y-61923033D01*
X93324899Y-61925639D01*
X93324899Y-61925639D01*
G37*
X93324899Y-61925639D02*
X93347936Y-61937327D01*
X93352788Y-61941269D01*
X93360088Y-61947961D01*
X93366218Y-61954735D01*
X93371281Y-61962500D01*
X93375378Y-61972162D01*
X93378612Y-61984629D01*
X93381085Y-62000806D01*
X93382898Y-62021603D01*
X93384153Y-62047925D01*
X93384953Y-62080681D01*
X93385399Y-62120776D01*
X93385594Y-62169119D01*
X93385639Y-62226616D01*
X93385640Y-62233444D01*
X93385640Y-62463680D01*
X93222611Y-62463680D01*
X93224115Y-62226190D01*
X93225620Y-61988700D01*
X93238320Y-61965840D01*
X93255528Y-61943520D01*
X93276894Y-61929122D01*
X93300618Y-61923033D01*
X93324899Y-61925639D01*
G36*
X93059250Y-63079292D02*
X93073220Y-63080900D01*
X93074592Y-63186144D01*
X93075965Y-63291388D01*
X93116849Y-63276314D01*
X93135871Y-63269468D01*
X93151245Y-63264246D01*
X93160498Y-63261477D01*
X93161874Y-63261240D01*
X93165760Y-63265365D01*
X93169492Y-63274232D01*
X93171157Y-63282576D01*
X93170522Y-63285010D01*
X93165509Y-63287144D01*
X93152762Y-63292016D01*
X93134112Y-63298940D01*
X93111392Y-63307230D01*
X93107224Y-63308737D01*
X93045280Y-63331110D01*
X93045280Y-63077685D01*
X93059250Y-63079292D01*
X93059250Y-63079292D01*
G37*
X93059250Y-63079292D02*
X93073220Y-63080900D01*
X93074592Y-63186144D01*
X93075965Y-63291388D01*
X93116849Y-63276314D01*
X93135871Y-63269468D01*
X93151245Y-63264246D01*
X93160498Y-63261477D01*
X93161874Y-63261240D01*
X93165760Y-63265365D01*
X93169492Y-63274232D01*
X93171157Y-63282576D01*
X93170522Y-63285010D01*
X93165509Y-63287144D01*
X93152762Y-63292016D01*
X93134112Y-63298940D01*
X93111392Y-63307230D01*
X93107224Y-63308737D01*
X93045280Y-63331110D01*
X93045280Y-63077685D01*
X93059250Y-63079292D01*
D12*
G04 #@! TO.C,R8*
X107264400Y-82886000D02*
X108264400Y-82886000D01*
X108264400Y-84246000D02*
X107264400Y-84246000D01*
G04 #@! TO.C,R9*
X107984400Y-81045600D02*
X107984400Y-79845600D01*
X109744400Y-79845600D02*
X109744400Y-81045600D01*
D13*
G04 #@! TO.C,U1*
X101788001Y-77517001D02*
X101788001Y-77567001D01*
X105938001Y-77517001D02*
X105938001Y-77662001D01*
X105938001Y-82667001D02*
X105938001Y-82522001D01*
X101788001Y-82667001D02*
X101788001Y-82522001D01*
X101788001Y-77517001D02*
X105938001Y-77517001D01*
X101788001Y-82667001D02*
X105938001Y-82667001D01*
X101788001Y-77567001D02*
X100388001Y-77567001D01*
D12*
G04 #@! TO.C,C2*
X107980000Y-76495200D02*
X107280000Y-76495200D01*
X107280000Y-75295200D02*
X107980000Y-75295200D01*
G04 #@! TO.C,C4*
X98132000Y-70787200D02*
X98132000Y-69787200D01*
X96432000Y-69787200D02*
X96432000Y-70787200D01*
G04 #@! TO.C,C3*
X96049200Y-70787200D02*
X96049200Y-69787200D01*
X94349200Y-69787200D02*
X94349200Y-70787200D01*
G04 #@! TO.C,C1*
X92960000Y-77352400D02*
X92960000Y-79352400D01*
X95000000Y-79352400D02*
X95000000Y-77352400D01*
G04 #@! TO.C,D3*
X109502000Y-75048000D02*
X109502000Y-70748000D01*
X109502000Y-70748000D02*
X102202000Y-70748000D01*
X109502000Y-75048000D02*
X102202000Y-75048000D01*
G04 #@! TO.C,R2*
X97952000Y-83230000D02*
X96952000Y-83230000D01*
X96952000Y-81870000D02*
X97952000Y-81870000D01*
G04 #@! TO.C,R8*
D13*
X104734533Y-82358666D02*
X104501200Y-82025333D01*
X104334533Y-82358666D02*
X104334533Y-81658666D01*
X104601200Y-81658666D01*
X104667866Y-81692000D01*
X104701200Y-81725333D01*
X104734533Y-81792000D01*
X104734533Y-81892000D01*
X104701200Y-81958666D01*
X104667866Y-81992000D01*
X104601200Y-82025333D01*
X104334533Y-82025333D01*
X105134533Y-81958666D02*
X105067866Y-81925333D01*
X105034533Y-81892000D01*
X105001200Y-81825333D01*
X105001200Y-81792000D01*
X105034533Y-81725333D01*
X105067866Y-81692000D01*
X105134533Y-81658666D01*
X105267866Y-81658666D01*
X105334533Y-81692000D01*
X105367866Y-81725333D01*
X105401200Y-81792000D01*
X105401200Y-81825333D01*
X105367866Y-81892000D01*
X105334533Y-81925333D01*
X105267866Y-81958666D01*
X105134533Y-81958666D01*
X105067866Y-81992000D01*
X105034533Y-82025333D01*
X105001200Y-82092000D01*
X105001200Y-82225333D01*
X105034533Y-82292000D01*
X105067866Y-82325333D01*
X105134533Y-82358666D01*
X105267866Y-82358666D01*
X105334533Y-82325333D01*
X105367866Y-82292000D01*
X105401200Y-82225333D01*
X105401200Y-82092000D01*
X105367866Y-82025333D01*
X105334533Y-81992000D01*
X105267866Y-81958666D01*
G04 #@! TO.C,R9*
X108688600Y-80806485D02*
X108438600Y-80449342D01*
X108260028Y-80806485D02*
X108260028Y-80056485D01*
X108545742Y-80056485D01*
X108617171Y-80092200D01*
X108652885Y-80127914D01*
X108688600Y-80199342D01*
X108688600Y-80306485D01*
X108652885Y-80377914D01*
X108617171Y-80413628D01*
X108545742Y-80449342D01*
X108260028Y-80449342D01*
X109045742Y-80806485D02*
X109188600Y-80806485D01*
X109260028Y-80770771D01*
X109295742Y-80735057D01*
X109367171Y-80627914D01*
X109402885Y-80485057D01*
X109402885Y-80199342D01*
X109367171Y-80127914D01*
X109331457Y-80092200D01*
X109260028Y-80056485D01*
X109117171Y-80056485D01*
X109045742Y-80092200D01*
X109010028Y-80127914D01*
X108974314Y-80199342D01*
X108974314Y-80377914D01*
X109010028Y-80449342D01*
X109045742Y-80485057D01*
X109117171Y-80520771D01*
X109260028Y-80520771D01*
X109331457Y-80485057D01*
X109367171Y-80449342D01*
X109402885Y-80377914D01*
G04 #@! TO.C,U1*
X101955695Y-76160380D02*
X101955695Y-76969904D01*
X102003314Y-77065142D01*
X102050933Y-77112761D01*
X102146171Y-77160380D01*
X102336647Y-77160380D01*
X102431885Y-77112761D01*
X102479504Y-77065142D01*
X102527123Y-76969904D01*
X102527123Y-76160380D01*
X103527123Y-77160380D02*
X102955695Y-77160380D01*
X103241409Y-77160380D02*
X103241409Y-76160380D01*
X103146171Y-76303238D01*
X103050933Y-76398476D01*
X102955695Y-76446095D01*
G04 #@! TO.C,C2*
X104735333Y-77014342D02*
X104687714Y-77061961D01*
X104544857Y-77109580D01*
X104449619Y-77109580D01*
X104306761Y-77061961D01*
X104211523Y-76966723D01*
X104163904Y-76871485D01*
X104116285Y-76681009D01*
X104116285Y-76538152D01*
X104163904Y-76347676D01*
X104211523Y-76252438D01*
X104306761Y-76157200D01*
X104449619Y-76109580D01*
X104544857Y-76109580D01*
X104687714Y-76157200D01*
X104735333Y-76204819D01*
X105116285Y-76204819D02*
X105163904Y-76157200D01*
X105259142Y-76109580D01*
X105497238Y-76109580D01*
X105592476Y-76157200D01*
X105640095Y-76204819D01*
X105687714Y-76300057D01*
X105687714Y-76395295D01*
X105640095Y-76538152D01*
X105068666Y-77109580D01*
X105687714Y-77109580D01*
G04 #@! TO.C,C4*
X97537542Y-73928266D02*
X97585161Y-73975885D01*
X97632780Y-74118742D01*
X97632780Y-74213980D01*
X97585161Y-74356838D01*
X97489923Y-74452076D01*
X97394685Y-74499695D01*
X97204209Y-74547314D01*
X97061352Y-74547314D01*
X96870876Y-74499695D01*
X96775638Y-74452076D01*
X96680400Y-74356838D01*
X96632780Y-74213980D01*
X96632780Y-74118742D01*
X96680400Y-73975885D01*
X96728019Y-73928266D01*
X96966114Y-73071123D02*
X97632780Y-73071123D01*
X96585161Y-73309219D02*
X97299447Y-73547314D01*
X97299447Y-72928266D01*
G04 #@! TO.C,C3*
X95911942Y-73877466D02*
X95959561Y-73925085D01*
X96007180Y-74067942D01*
X96007180Y-74163180D01*
X95959561Y-74306038D01*
X95864323Y-74401276D01*
X95769085Y-74448895D01*
X95578609Y-74496514D01*
X95435752Y-74496514D01*
X95245276Y-74448895D01*
X95150038Y-74401276D01*
X95054800Y-74306038D01*
X95007180Y-74163180D01*
X95007180Y-74067942D01*
X95054800Y-73925085D01*
X95102419Y-73877466D01*
X95007180Y-73544133D02*
X95007180Y-72925085D01*
X95388133Y-73258419D01*
X95388133Y-73115561D01*
X95435752Y-73020323D01*
X95483371Y-72972704D01*
X95578609Y-72925085D01*
X95816704Y-72925085D01*
X95911942Y-72972704D01*
X95959561Y-73020323D01*
X96007180Y-73115561D01*
X96007180Y-73401276D01*
X95959561Y-73496514D01*
X95911942Y-73544133D01*
G04 #@! TO.C,C1*
X92587142Y-78519066D02*
X92634761Y-78566685D01*
X92682380Y-78709542D01*
X92682380Y-78804780D01*
X92634761Y-78947638D01*
X92539523Y-79042876D01*
X92444285Y-79090495D01*
X92253809Y-79138114D01*
X92110952Y-79138114D01*
X91920476Y-79090495D01*
X91825238Y-79042876D01*
X91730000Y-78947638D01*
X91682380Y-78804780D01*
X91682380Y-78709542D01*
X91730000Y-78566685D01*
X91777619Y-78519066D01*
X92682380Y-77566685D02*
X92682380Y-78138114D01*
X92682380Y-77852400D02*
X91682380Y-77852400D01*
X91825238Y-77947638D01*
X91920476Y-78042876D01*
X91968095Y-78138114D01*
G04 #@! TO.C,D3*
X98525104Y-73451980D02*
X98525104Y-72451980D01*
X98763200Y-72451980D01*
X98906057Y-72499600D01*
X99001295Y-72594838D01*
X99048914Y-72690076D01*
X99096533Y-72880552D01*
X99096533Y-73023409D01*
X99048914Y-73213885D01*
X99001295Y-73309123D01*
X98906057Y-73404361D01*
X98763200Y-73451980D01*
X98525104Y-73451980D01*
X99429866Y-72451980D02*
X100048914Y-72451980D01*
X99715580Y-72832933D01*
X99858438Y-72832933D01*
X99953676Y-72880552D01*
X100001295Y-72928171D01*
X100048914Y-73023409D01*
X100048914Y-73261504D01*
X100001295Y-73356742D01*
X99953676Y-73404361D01*
X99858438Y-73451980D01*
X99572723Y-73451980D01*
X99477485Y-73404361D01*
X99429866Y-73356742D01*
G04 #@! TO.C,R2*
X97285333Y-81552380D02*
X96952000Y-81076190D01*
X96713904Y-81552380D02*
X96713904Y-80552380D01*
X97094857Y-80552380D01*
X97190095Y-80600000D01*
X97237714Y-80647619D01*
X97285333Y-80742857D01*
X97285333Y-80885714D01*
X97237714Y-80980952D01*
X97190095Y-81028571D01*
X97094857Y-81076190D01*
X96713904Y-81076190D01*
X97666285Y-80647619D02*
X97713904Y-80600000D01*
X97809142Y-80552380D01*
X98047238Y-80552380D01*
X98142476Y-80600000D01*
X98190095Y-80647619D01*
X98237714Y-80742857D01*
X98237714Y-80838095D01*
X98190095Y-80980952D01*
X97618666Y-81552380D01*
X98237714Y-81552380D01*
G04 #@! TO.C,L1*
X97318533Y-65577980D02*
X96842342Y-65577980D01*
X96842342Y-64577980D01*
X98175676Y-65577980D02*
X97604247Y-65577980D01*
X97889961Y-65577980D02*
X97889961Y-64577980D01*
X97794723Y-64720838D01*
X97699485Y-64816076D01*
X97604247Y-64863695D01*
G04 #@! TD*
M02*
