G04 #@! TF.GenerationSoftware,KiCad,Pcbnew,(5.0.0-3-g5ebb6b6)*
G04 #@! TF.CreationDate,2018-09-20T16:03:21-07:00*
G04 #@! TF.ProjectId,phone_charger,70686F6E655F636861726765722E6B69,rev?*
G04 #@! TF.SameCoordinates,Original*
G04 #@! TF.FileFunction,Soldermask,Top*
G04 #@! TF.FilePolarity,Negative*
%FSLAX46Y46*%
G04 Gerber Fmt 4.6, Leading zero omitted, Abs format (unit mm)*
G04 Created by KiCad (PCBNEW (5.0.0-3-g5ebb6b6)) date Thursday, September 20, 2018 at 04:03:21 PM*
%MOMM*%
%LPD*%
G01*
G04 APERTURE LIST*
%ADD10C,0.150000*%
%ADD11R,2.200000X2.200000*%
%ADD12C,2.200000*%
%ADD13R,1.600000X1.300000*%
%ADD14R,1.700000X1.900000*%
%ADD15O,2.100000X2.100000*%
%ADD16R,2.100000X2.100000*%
%ADD17C,2.000000*%
%ADD18O,2.000000X2.000000*%
%ADD19C,2.300000*%
%ADD20C,2.240000*%
%ADD21C,3.700000*%
%ADD22R,1.950000X1.000000*%
%ADD23R,1.575000X1.575000*%
%ADD24R,1.600000X1.150000*%
%ADD25R,1.650000X1.900000*%
%ADD26R,2.000000X2.400000*%
%ADD27R,3.900000X2.700000*%
%ADD28R,2.100000X4.000000*%
G04 APERTURE END LIST*
D10*
G36*
X102616000Y-82931000D02*
X104350103Y-82931000D01*
X104350103Y-84328000D01*
X102616000Y-84328000D01*
X102616000Y-82931000D01*
G37*
X102616000Y-82931000D02*
X104350103Y-82931000D01*
X104350103Y-84328000D01*
X102616000Y-84328000D01*
X102616000Y-82931000D01*
D11*
G04 #@! TO.C,D1*
X91338400Y-56134000D03*
D12*
X88798400Y-56134000D03*
G04 #@! TD*
D13*
G04 #@! TO.C,R8*
X108864400Y-83566000D03*
X106664400Y-83566000D03*
G04 #@! TD*
D14*
G04 #@! TO.C,R9*
X108864400Y-79095600D03*
X108864400Y-81795600D03*
G04 #@! TD*
D15*
G04 #@! TO.C,J1*
X90525600Y-73456800D03*
D16*
X90525600Y-75996800D03*
G04 #@! TD*
D17*
G04 #@! TO.C,R1*
X90170000Y-69951600D03*
D18*
X90170000Y-59791600D03*
G04 #@! TD*
D19*
G04 #@! TO.C,J2*
X104592000Y-58844000D03*
D20*
X102092000Y-58834000D03*
X100092000Y-58859000D03*
D19*
X97592000Y-58844000D03*
D21*
X107662000Y-56134000D03*
X94522000Y-56134000D03*
G04 #@! TD*
D22*
G04 #@! TO.C,U1*
X101163001Y-78187001D03*
X101163001Y-79457001D03*
X101163001Y-80727001D03*
X101163001Y-81997001D03*
X106563001Y-81997001D03*
X106563001Y-80727001D03*
X106563001Y-79457001D03*
X106563001Y-78187001D03*
D23*
X104450501Y-80679501D03*
X104450501Y-79504501D03*
X103275501Y-80679501D03*
X103275501Y-79504501D03*
G04 #@! TD*
D24*
G04 #@! TO.C,C2*
X108580000Y-75895200D03*
X106680000Y-75895200D03*
G04 #@! TD*
D25*
G04 #@! TO.C,C4*
X97282000Y-69037200D03*
X97282000Y-71537200D03*
G04 #@! TD*
G04 #@! TO.C,C3*
X95199200Y-69037200D03*
X95199200Y-71537200D03*
G04 #@! TD*
D26*
G04 #@! TO.C,C1*
X93980000Y-80352400D03*
X93980000Y-76352400D03*
G04 #@! TD*
D27*
G04 #@! TO.C,D3*
X107602000Y-72898000D03*
X102202000Y-72898000D03*
G04 #@! TD*
D13*
G04 #@! TO.C,R2*
X96352000Y-82550000D03*
X98552000Y-82550000D03*
G04 #@! TD*
D28*
G04 #@! TO.C,L1*
X99284400Y-64947800D03*
X108284400Y-64947800D03*
G04 #@! TD*
M02*
