G04 #@! TF.GenerationSoftware,KiCad,Pcbnew,(5.0.0-3-g5ebb6b6)*
G04 #@! TF.CreationDate,2018-09-20T13:09:26-07:00*
G04 #@! TF.ProjectId,phone_charger,70686F6E655F636861726765722E6B69,rev?*
G04 #@! TF.SameCoordinates,Original*
G04 #@! TF.FileFunction,Legend,Bot*
G04 #@! TF.FilePolarity,Positive*
%FSLAX46Y46*%
G04 Gerber Fmt 4.6, Leading zero omitted, Abs format (unit mm)*
G04 Created by KiCad (PCBNEW (5.0.0-3-g5ebb6b6)) date Thursday, September 20, 2018 at 01:09:26 PM*
%MOMM*%
%LPD*%
G01*
G04 APERTURE LIST*
%ADD10C,0.580000*%
%ADD11C,0.120000*%
%ADD12C,0.100000*%
%ADD13C,0.010000*%
%ADD14C,0.150000*%
G04 APERTURE END LIST*
D10*
X88696800Y-76962000D02*
G75*
G03X88696800Y-76962000I-152400J0D01*
G01*
D11*
G04 #@! TO.C,J1*
X89195600Y-77326800D02*
X90525600Y-77326800D01*
X89195600Y-75996800D02*
X89195600Y-77326800D01*
X89195600Y-74726800D02*
X91855600Y-74726800D01*
X91855600Y-74726800D02*
X91855600Y-72126800D01*
X89195600Y-74726800D02*
X89195600Y-72126800D01*
X89195600Y-72126800D02*
X91855600Y-72126800D01*
G04 #@! TO.C,R1*
X91540000Y-68141600D02*
X88800000Y-68141600D01*
X88800000Y-68141600D02*
X88800000Y-61601600D01*
X88800000Y-61601600D02*
X91540000Y-61601600D01*
X91540000Y-61601600D02*
X91540000Y-68141600D01*
X90170000Y-68911600D02*
X90170000Y-68141600D01*
X90170000Y-60831600D02*
X90170000Y-61601600D01*
G04 #@! TO.C,D2*
X89474800Y-78497600D02*
X91474800Y-78497600D01*
X91474800Y-78497600D02*
X91474800Y-82397600D01*
X89474800Y-78497600D02*
X89474800Y-82397600D01*
D12*
X90474800Y-81124600D02*
X90474800Y-81624600D01*
X90874800Y-81124600D02*
X90474800Y-80524600D01*
X90074800Y-81124600D02*
X90874800Y-81124600D01*
X90474800Y-80524600D02*
X90074800Y-81124600D01*
X90474800Y-80524600D02*
X91024800Y-80524600D01*
X90474800Y-80524600D02*
X89924800Y-80524600D01*
X90474800Y-80124600D02*
X90474800Y-80524600D01*
G04 #@! TO.C,J2*
X107767000Y-59059000D02*
X107767000Y-58334000D01*
X106817000Y-59059000D02*
X107767000Y-59059000D01*
X94417000Y-59059000D02*
X94417000Y-58259000D01*
X95442000Y-59059000D02*
X94417000Y-59059000D01*
X107767000Y-45709000D02*
X107067000Y-45709000D01*
X107767000Y-46359000D02*
X107767000Y-45709000D01*
X94402000Y-45720000D02*
X94402000Y-46395000D01*
X95377000Y-45720000D02*
X94402000Y-45720000D01*
D11*
G04 #@! TO.C,F1*
X99417600Y-81580400D02*
X99417600Y-74460400D01*
X93317600Y-81580400D02*
X93317600Y-74460400D01*
G04 #@! TO.C,D1*
X88396065Y-55055392D02*
G75*
G02X91628400Y-54898484I1672335J-1078608D01*
G01*
X88396065Y-57212608D02*
G75*
G03X91628400Y-57369516I1672335J1078608D01*
G01*
X89027270Y-55054163D02*
G75*
G02X91109361Y-55054000I1041130J-1079837D01*
G01*
X89027270Y-57213837D02*
G75*
G03X91109361Y-57214000I1041130J1079837D01*
G01*
X91628400Y-54898000D02*
X91628400Y-55054000D01*
X91628400Y-57214000D02*
X91628400Y-57370000D01*
G04 #@! TO.C,R7*
X101472800Y-63378800D02*
X100472800Y-63378800D01*
X100472800Y-64738800D02*
X101472800Y-64738800D01*
G04 #@! TO.C,R5*
X98714000Y-65715600D02*
X97714000Y-65715600D01*
X97714000Y-67075600D02*
X98714000Y-67075600D01*
G04 #@! TO.C,R6*
X104362800Y-65464800D02*
X103162800Y-65464800D01*
X103162800Y-67224800D02*
X104362800Y-67224800D01*
G04 #@! TO.C,R4*
X104362800Y-67852400D02*
X103162800Y-67852400D01*
X103162800Y-69612400D02*
X104362800Y-69612400D01*
G04 #@! TO.C,R3*
X98927200Y-67750800D02*
X97727200Y-67750800D01*
X97727200Y-69510800D02*
X98927200Y-69510800D01*
D13*
G04 #@! TO.C,G\002A\002A\002A*
G36*
X108040640Y-80933176D02*
X108153208Y-80853868D01*
X108224986Y-80735380D01*
X108241958Y-80588109D01*
X108239617Y-80568800D01*
X108187476Y-80434539D01*
X108087542Y-80337143D01*
X107958364Y-80284057D01*
X107818488Y-80282726D01*
X107686464Y-80340595D01*
X107681118Y-80344623D01*
X107595293Y-80450839D01*
X107560282Y-80583109D01*
X107573658Y-80720480D01*
X107632995Y-80841995D01*
X107735867Y-80926702D01*
X107749198Y-80932650D01*
X107901297Y-80962903D01*
X108040640Y-80933176D01*
X108040640Y-80933176D01*
G37*
X108040640Y-80933176D02*
X108153208Y-80853868D01*
X108224986Y-80735380D01*
X108241958Y-80588109D01*
X108239617Y-80568800D01*
X108187476Y-80434539D01*
X108087542Y-80337143D01*
X107958364Y-80284057D01*
X107818488Y-80282726D01*
X107686464Y-80340595D01*
X107681118Y-80344623D01*
X107595293Y-80450839D01*
X107560282Y-80583109D01*
X107573658Y-80720480D01*
X107632995Y-80841995D01*
X107735867Y-80926702D01*
X107749198Y-80932650D01*
X107901297Y-80962903D01*
X108040640Y-80933176D01*
G36*
X107445521Y-80649994D02*
X107442831Y-80471644D01*
X107095887Y-80487481D01*
X106916766Y-80490800D01*
X106766435Y-80484350D01*
X106664170Y-80469140D01*
X106648298Y-80464058D01*
X106547653Y-80424800D01*
X106557583Y-79798300D01*
X106567514Y-79171800D01*
X107442686Y-79151534D01*
X107448128Y-78790800D01*
X106825010Y-78790800D01*
X106594611Y-78791475D01*
X106423768Y-78794404D01*
X106299470Y-78800943D01*
X106208707Y-78812450D01*
X106138469Y-78830280D01*
X106075746Y-78855791D01*
X106041975Y-78872443D01*
X105959791Y-78920730D01*
X105897752Y-78977373D01*
X105853020Y-79052791D01*
X105822756Y-79157406D01*
X105804122Y-79301639D01*
X105794279Y-79495910D01*
X105790388Y-79750640D01*
X105790132Y-79796994D01*
X105792115Y-80072158D01*
X105802475Y-80285200D01*
X105823473Y-80446312D01*
X105857369Y-80565685D01*
X105906424Y-80653511D01*
X105972899Y-80719982D01*
X105999091Y-80739000D01*
X106042926Y-80762789D01*
X106101907Y-80780685D01*
X106187006Y-80793790D01*
X106309196Y-80803202D01*
X106479448Y-80810023D01*
X106708735Y-80815352D01*
X106772006Y-80816501D01*
X107448212Y-80828345D01*
X107445521Y-80649994D01*
X107445521Y-80649994D01*
G37*
X107445521Y-80649994D02*
X107442831Y-80471644D01*
X107095887Y-80487481D01*
X106916766Y-80490800D01*
X106766435Y-80484350D01*
X106664170Y-80469140D01*
X106648298Y-80464058D01*
X106547653Y-80424800D01*
X106557583Y-79798300D01*
X106567514Y-79171800D01*
X107442686Y-79151534D01*
X107448128Y-78790800D01*
X106825010Y-78790800D01*
X106594611Y-78791475D01*
X106423768Y-78794404D01*
X106299470Y-78800943D01*
X106208707Y-78812450D01*
X106138469Y-78830280D01*
X106075746Y-78855791D01*
X106041975Y-78872443D01*
X105959791Y-78920730D01*
X105897752Y-78977373D01*
X105853020Y-79052791D01*
X105822756Y-79157406D01*
X105804122Y-79301639D01*
X105794279Y-79495910D01*
X105790388Y-79750640D01*
X105790132Y-79796994D01*
X105792115Y-80072158D01*
X105802475Y-80285200D01*
X105823473Y-80446312D01*
X105857369Y-80565685D01*
X105906424Y-80653511D01*
X105972899Y-80719982D01*
X105999091Y-80739000D01*
X106042926Y-80762789D01*
X106101907Y-80780685D01*
X106187006Y-80793790D01*
X106309196Y-80803202D01*
X106479448Y-80810023D01*
X106708735Y-80815352D01*
X106772006Y-80816501D01*
X107448212Y-80828345D01*
X107445521Y-80649994D01*
G36*
X105315031Y-79997300D02*
X105414598Y-79755890D01*
X105511442Y-79526008D01*
X105600292Y-79319788D01*
X105675881Y-79149364D01*
X105732940Y-79026870D01*
X105756160Y-78981300D01*
X105860563Y-78790800D01*
X104882043Y-78790800D01*
X104902931Y-78895239D01*
X104898434Y-79018486D01*
X104849635Y-79167382D01*
X104775452Y-79335085D01*
X103873165Y-79335085D01*
X103793269Y-79149363D01*
X103746269Y-79012590D01*
X103731598Y-78904060D01*
X103735064Y-78877220D01*
X103743049Y-78833485D01*
X103730412Y-78807742D01*
X103683165Y-78795223D01*
X103587320Y-78791162D01*
X103481449Y-78790800D01*
X103206144Y-78790800D01*
X103278010Y-78891727D01*
X103312920Y-78951535D01*
X103373524Y-79066979D01*
X103454775Y-79227956D01*
X103551629Y-79424363D01*
X103659040Y-79646096D01*
X103672703Y-79674725D01*
X104045657Y-79674725D01*
X104079078Y-79668656D01*
X104167894Y-79664086D01*
X104294928Y-79661788D01*
X104335943Y-79661657D01*
X104470757Y-79663841D01*
X104572272Y-79669645D01*
X104623317Y-79677947D01*
X104626228Y-79680628D01*
X104612700Y-79725712D01*
X104577593Y-79817477D01*
X104529129Y-79936431D01*
X104475527Y-80063083D01*
X104425008Y-80177942D01*
X104385792Y-80261517D01*
X104368076Y-80292757D01*
X104345603Y-80272556D01*
X104301102Y-80202989D01*
X104243148Y-80100496D01*
X104180315Y-79981513D01*
X104121180Y-79862478D01*
X104074319Y-79759830D01*
X104048305Y-79690006D01*
X104045657Y-79674725D01*
X103672703Y-79674725D01*
X103751252Y-79839303D01*
X103877666Y-80107996D01*
X103974422Y-80318971D01*
X104044375Y-80479390D01*
X104090380Y-80596416D01*
X104115293Y-80677212D01*
X104121969Y-80728941D01*
X104116009Y-80754376D01*
X104104549Y-80782816D01*
X104113402Y-80802049D01*
X104153395Y-80813868D01*
X104235359Y-80820068D01*
X104370123Y-80822445D01*
X104528847Y-80822800D01*
X104978304Y-80822800D01*
X105315031Y-79997300D01*
X105315031Y-79997300D01*
G37*
X105315031Y-79997300D02*
X105414598Y-79755890D01*
X105511442Y-79526008D01*
X105600292Y-79319788D01*
X105675881Y-79149364D01*
X105732940Y-79026870D01*
X105756160Y-78981300D01*
X105860563Y-78790800D01*
X104882043Y-78790800D01*
X104902931Y-78895239D01*
X104898434Y-79018486D01*
X104849635Y-79167382D01*
X104775452Y-79335085D01*
X103873165Y-79335085D01*
X103793269Y-79149363D01*
X103746269Y-79012590D01*
X103731598Y-78904060D01*
X103735064Y-78877220D01*
X103743049Y-78833485D01*
X103730412Y-78807742D01*
X103683165Y-78795223D01*
X103587320Y-78791162D01*
X103481449Y-78790800D01*
X103206144Y-78790800D01*
X103278010Y-78891727D01*
X103312920Y-78951535D01*
X103373524Y-79066979D01*
X103454775Y-79227956D01*
X103551629Y-79424363D01*
X103659040Y-79646096D01*
X103672703Y-79674725D01*
X104045657Y-79674725D01*
X104079078Y-79668656D01*
X104167894Y-79664086D01*
X104294928Y-79661788D01*
X104335943Y-79661657D01*
X104470757Y-79663841D01*
X104572272Y-79669645D01*
X104623317Y-79677947D01*
X104626228Y-79680628D01*
X104612700Y-79725712D01*
X104577593Y-79817477D01*
X104529129Y-79936431D01*
X104475527Y-80063083D01*
X104425008Y-80177942D01*
X104385792Y-80261517D01*
X104368076Y-80292757D01*
X104345603Y-80272556D01*
X104301102Y-80202989D01*
X104243148Y-80100496D01*
X104180315Y-79981513D01*
X104121180Y-79862478D01*
X104074319Y-79759830D01*
X104048305Y-79690006D01*
X104045657Y-79674725D01*
X103672703Y-79674725D01*
X103751252Y-79839303D01*
X103877666Y-80107996D01*
X103974422Y-80318971D01*
X104044375Y-80479390D01*
X104090380Y-80596416D01*
X104115293Y-80677212D01*
X104121969Y-80728941D01*
X104116009Y-80754376D01*
X104104549Y-80782816D01*
X104113402Y-80802049D01*
X104153395Y-80813868D01*
X104235359Y-80820068D01*
X104370123Y-80822445D01*
X104528847Y-80822800D01*
X104978304Y-80822800D01*
X105315031Y-79997300D01*
G36*
X101977371Y-80822597D02*
X102229902Y-80820963D01*
X102464007Y-80816487D01*
X102667654Y-80809628D01*
X102828808Y-80800842D01*
X102935435Y-80790587D01*
X102964506Y-80785062D01*
X103098587Y-80727034D01*
X103186102Y-80634266D01*
X103233533Y-80495817D01*
X103247371Y-80307521D01*
X103241041Y-80132661D01*
X103217382Y-80016343D01*
X103169395Y-79945272D01*
X103090079Y-79906159D01*
X103029171Y-79893228D01*
X102933039Y-79869458D01*
X102908793Y-79842080D01*
X102956002Y-79813564D01*
X103046958Y-79791209D01*
X103135608Y-79763764D01*
X103194279Y-79712497D01*
X103228645Y-79624620D01*
X103244381Y-79487342D01*
X103247371Y-79339494D01*
X103244475Y-79185912D01*
X103232891Y-79084276D01*
X103208277Y-79014090D01*
X103166288Y-78954859D01*
X103165728Y-78954209D01*
X103116590Y-78906782D01*
X103054606Y-78869425D01*
X102971146Y-78840975D01*
X102857578Y-78820271D01*
X102705268Y-78806148D01*
X102505585Y-78797444D01*
X102249898Y-78792997D01*
X101959228Y-78791665D01*
X101124657Y-78790800D01*
X101124657Y-79153657D01*
X101904800Y-79153657D01*
X102488687Y-79153657D01*
X102477958Y-79398585D01*
X102467228Y-79643514D01*
X101904800Y-79664710D01*
X101904800Y-79153657D01*
X101124657Y-79153657D01*
X101124657Y-80163511D01*
X101908880Y-80163511D01*
X101913483Y-80070230D01*
X101919743Y-80037911D01*
X101964325Y-80010493D01*
X102058536Y-79993180D01*
X102179976Y-79987213D01*
X102306245Y-79993833D01*
X102403728Y-80011099D01*
X102450006Y-80031419D01*
X102474588Y-80073241D01*
X102484111Y-80155560D01*
X102485371Y-80244816D01*
X102483626Y-80363634D01*
X102471905Y-80429062D01*
X102440478Y-80460283D01*
X102379617Y-80476477D01*
X102366626Y-80478931D01*
X102252391Y-80490511D01*
X102117387Y-80491395D01*
X102085412Y-80489647D01*
X101922943Y-80478086D01*
X101911810Y-80282839D01*
X101908880Y-80163511D01*
X101124657Y-80163511D01*
X101124657Y-80822800D01*
X101977371Y-80822597D01*
X101977371Y-80822597D01*
G37*
X101977371Y-80822597D02*
X102229902Y-80820963D01*
X102464007Y-80816487D01*
X102667654Y-80809628D01*
X102828808Y-80800842D01*
X102935435Y-80790587D01*
X102964506Y-80785062D01*
X103098587Y-80727034D01*
X103186102Y-80634266D01*
X103233533Y-80495817D01*
X103247371Y-80307521D01*
X103241041Y-80132661D01*
X103217382Y-80016343D01*
X103169395Y-79945272D01*
X103090079Y-79906159D01*
X103029171Y-79893228D01*
X102933039Y-79869458D01*
X102908793Y-79842080D01*
X102956002Y-79813564D01*
X103046958Y-79791209D01*
X103135608Y-79763764D01*
X103194279Y-79712497D01*
X103228645Y-79624620D01*
X103244381Y-79487342D01*
X103247371Y-79339494D01*
X103244475Y-79185912D01*
X103232891Y-79084276D01*
X103208277Y-79014090D01*
X103166288Y-78954859D01*
X103165728Y-78954209D01*
X103116590Y-78906782D01*
X103054606Y-78869425D01*
X102971146Y-78840975D01*
X102857578Y-78820271D01*
X102705268Y-78806148D01*
X102505585Y-78797444D01*
X102249898Y-78792997D01*
X101959228Y-78791665D01*
X101124657Y-78790800D01*
X101124657Y-79153657D01*
X101904800Y-79153657D01*
X102488687Y-79153657D01*
X102477958Y-79398585D01*
X102467228Y-79643514D01*
X101904800Y-79664710D01*
X101904800Y-79153657D01*
X101124657Y-79153657D01*
X101124657Y-80163511D01*
X101908880Y-80163511D01*
X101913483Y-80070230D01*
X101919743Y-80037911D01*
X101964325Y-80010493D01*
X102058536Y-79993180D01*
X102179976Y-79987213D01*
X102306245Y-79993833D01*
X102403728Y-80011099D01*
X102450006Y-80031419D01*
X102474588Y-80073241D01*
X102484111Y-80155560D01*
X102485371Y-80244816D01*
X102483626Y-80363634D01*
X102471905Y-80429062D01*
X102440478Y-80460283D01*
X102379617Y-80476477D01*
X102366626Y-80478931D01*
X102252391Y-80490511D01*
X102117387Y-80491395D01*
X102085412Y-80489647D01*
X101922943Y-80478086D01*
X101911810Y-80282839D01*
X101908880Y-80163511D01*
X101124657Y-80163511D01*
X101124657Y-80822800D01*
X101977371Y-80822597D01*
G36*
X108078993Y-79284695D02*
X108148734Y-79229020D01*
X108228985Y-79105976D01*
X108248016Y-78973265D01*
X108212849Y-78845914D01*
X108130505Y-78738952D01*
X108008005Y-78667404D01*
X107876174Y-78645657D01*
X107790355Y-78669802D01*
X107695110Y-78729466D01*
X107676709Y-78745443D01*
X107583900Y-78872803D01*
X107554277Y-79013282D01*
X107588345Y-79150365D01*
X107661384Y-79246104D01*
X107792728Y-79323354D01*
X107937919Y-79336007D01*
X108078993Y-79284695D01*
X108078993Y-79284695D01*
G37*
X108078993Y-79284695D02*
X108148734Y-79229020D01*
X108228985Y-79105976D01*
X108248016Y-78973265D01*
X108212849Y-78845914D01*
X108130505Y-78738952D01*
X108008005Y-78667404D01*
X107876174Y-78645657D01*
X107790355Y-78669802D01*
X107695110Y-78729466D01*
X107676709Y-78745443D01*
X107583900Y-78872803D01*
X107554277Y-79013282D01*
X107588345Y-79150365D01*
X107661384Y-79246104D01*
X107792728Y-79323354D01*
X107937919Y-79336007D01*
X108078993Y-79284695D01*
G36*
X104894061Y-83852309D02*
X105380896Y-83747280D01*
X105851161Y-83584232D01*
X106299298Y-83364673D01*
X106719752Y-83090111D01*
X107106966Y-82762053D01*
X107455383Y-82382008D01*
X107759448Y-81951483D01*
X107982728Y-81538846D01*
X108053050Y-81385000D01*
X108113126Y-81244577D01*
X108154607Y-81137548D01*
X108167004Y-81098048D01*
X108179893Y-81026583D01*
X108161869Y-81008992D01*
X108124159Y-81021537D01*
X107931486Y-81072723D01*
X107755237Y-81053925D01*
X107590254Y-80964449D01*
X107568168Y-80946585D01*
X107491720Y-80891659D01*
X107458422Y-80892522D01*
X107456514Y-80903851D01*
X107438587Y-80973436D01*
X107390187Y-81089170D01*
X107319381Y-81235712D01*
X107234241Y-81397721D01*
X107142834Y-81559855D01*
X107053230Y-81706774D01*
X106973498Y-81823136D01*
X106971788Y-81825405D01*
X106651624Y-82192485D01*
X106293334Y-82502069D01*
X105903431Y-82753698D01*
X105488429Y-82946912D01*
X105054843Y-83081253D01*
X104609187Y-83156262D01*
X104157974Y-83171477D01*
X103707719Y-83126441D01*
X103264937Y-83020694D01*
X102836140Y-82853777D01*
X102427844Y-82625230D01*
X102046562Y-82334593D01*
X101886139Y-82184032D01*
X101565166Y-81814182D01*
X101306362Y-81412917D01*
X101110088Y-80986857D01*
X100976708Y-80542626D01*
X100906586Y-80086844D01*
X100900085Y-79626136D01*
X100957569Y-79167121D01*
X101079401Y-78716423D01*
X101265944Y-78280663D01*
X101517562Y-77866463D01*
X101640248Y-77703625D01*
X101969860Y-77347145D01*
X102338297Y-77048182D01*
X102738823Y-76807765D01*
X103164705Y-76626921D01*
X103609207Y-76506681D01*
X104065595Y-76448071D01*
X104527133Y-76452122D01*
X104987087Y-76519861D01*
X105438721Y-76652317D01*
X105875302Y-76850519D01*
X106147935Y-77015173D01*
X106393698Y-77199443D01*
X106636730Y-77417452D01*
X106857496Y-77649833D01*
X107036459Y-77877218D01*
X107073400Y-77932611D01*
X107156400Y-78070016D01*
X107242269Y-78224545D01*
X107323111Y-78380396D01*
X107391026Y-78521765D01*
X107438118Y-78632851D01*
X107456488Y-78697850D01*
X107456514Y-78699180D01*
X107475152Y-78748769D01*
X107514319Y-78742156D01*
X107542836Y-78698447D01*
X107605264Y-78627557D01*
X107716789Y-78577755D01*
X107855965Y-78553096D01*
X108001344Y-78557634D01*
X108118728Y-78589581D01*
X108159586Y-78600343D01*
X108176888Y-78582042D01*
X108168867Y-78526547D01*
X108133754Y-78425730D01*
X108069783Y-78271462D01*
X108029279Y-78178257D01*
X107787488Y-77709939D01*
X107489225Y-77282995D01*
X107128584Y-76888986D01*
X107124415Y-76884965D01*
X106758091Y-76562212D01*
X106390249Y-76301729D01*
X106006186Y-76094422D01*
X105591202Y-75931197D01*
X105572876Y-75925171D01*
X105035598Y-75786848D01*
X104493183Y-75720745D01*
X103947245Y-75726996D01*
X103628371Y-75764020D01*
X103113479Y-75878752D01*
X102626194Y-76056529D01*
X102170681Y-76292238D01*
X101751106Y-76580762D01*
X101371632Y-76916986D01*
X101036424Y-77295796D01*
X100749647Y-77712075D01*
X100515466Y-78160709D01*
X100338044Y-78636582D01*
X100221546Y-79134579D01*
X100170138Y-79649586D01*
X100174453Y-80006371D01*
X100239424Y-80552783D01*
X100370846Y-81074296D01*
X100570547Y-81576410D01*
X100840355Y-82064620D01*
X100878330Y-82123760D01*
X100984961Y-82266723D01*
X101134004Y-82438926D01*
X101310379Y-82625321D01*
X101499010Y-82810859D01*
X101684818Y-82980490D01*
X101852725Y-83119165D01*
X101936220Y-83179650D01*
X102405796Y-83454398D01*
X102892140Y-83662080D01*
X103389694Y-83804205D01*
X103892904Y-83882279D01*
X104396211Y-83897811D01*
X104894061Y-83852309D01*
X104894061Y-83852309D01*
G37*
X104894061Y-83852309D02*
X105380896Y-83747280D01*
X105851161Y-83584232D01*
X106299298Y-83364673D01*
X106719752Y-83090111D01*
X107106966Y-82762053D01*
X107455383Y-82382008D01*
X107759448Y-81951483D01*
X107982728Y-81538846D01*
X108053050Y-81385000D01*
X108113126Y-81244577D01*
X108154607Y-81137548D01*
X108167004Y-81098048D01*
X108179893Y-81026583D01*
X108161869Y-81008992D01*
X108124159Y-81021537D01*
X107931486Y-81072723D01*
X107755237Y-81053925D01*
X107590254Y-80964449D01*
X107568168Y-80946585D01*
X107491720Y-80891659D01*
X107458422Y-80892522D01*
X107456514Y-80903851D01*
X107438587Y-80973436D01*
X107390187Y-81089170D01*
X107319381Y-81235712D01*
X107234241Y-81397721D01*
X107142834Y-81559855D01*
X107053230Y-81706774D01*
X106973498Y-81823136D01*
X106971788Y-81825405D01*
X106651624Y-82192485D01*
X106293334Y-82502069D01*
X105903431Y-82753698D01*
X105488429Y-82946912D01*
X105054843Y-83081253D01*
X104609187Y-83156262D01*
X104157974Y-83171477D01*
X103707719Y-83126441D01*
X103264937Y-83020694D01*
X102836140Y-82853777D01*
X102427844Y-82625230D01*
X102046562Y-82334593D01*
X101886139Y-82184032D01*
X101565166Y-81814182D01*
X101306362Y-81412917D01*
X101110088Y-80986857D01*
X100976708Y-80542626D01*
X100906586Y-80086844D01*
X100900085Y-79626136D01*
X100957569Y-79167121D01*
X101079401Y-78716423D01*
X101265944Y-78280663D01*
X101517562Y-77866463D01*
X101640248Y-77703625D01*
X101969860Y-77347145D01*
X102338297Y-77048182D01*
X102738823Y-76807765D01*
X103164705Y-76626921D01*
X103609207Y-76506681D01*
X104065595Y-76448071D01*
X104527133Y-76452122D01*
X104987087Y-76519861D01*
X105438721Y-76652317D01*
X105875302Y-76850519D01*
X106147935Y-77015173D01*
X106393698Y-77199443D01*
X106636730Y-77417452D01*
X106857496Y-77649833D01*
X107036459Y-77877218D01*
X107073400Y-77932611D01*
X107156400Y-78070016D01*
X107242269Y-78224545D01*
X107323111Y-78380396D01*
X107391026Y-78521765D01*
X107438118Y-78632851D01*
X107456488Y-78697850D01*
X107456514Y-78699180D01*
X107475152Y-78748769D01*
X107514319Y-78742156D01*
X107542836Y-78698447D01*
X107605264Y-78627557D01*
X107716789Y-78577755D01*
X107855965Y-78553096D01*
X108001344Y-78557634D01*
X108118728Y-78589581D01*
X108159586Y-78600343D01*
X108176888Y-78582042D01*
X108168867Y-78526547D01*
X108133754Y-78425730D01*
X108069783Y-78271462D01*
X108029279Y-78178257D01*
X107787488Y-77709939D01*
X107489225Y-77282995D01*
X107128584Y-76888986D01*
X107124415Y-76884965D01*
X106758091Y-76562212D01*
X106390249Y-76301729D01*
X106006186Y-76094422D01*
X105591202Y-75931197D01*
X105572876Y-75925171D01*
X105035598Y-75786848D01*
X104493183Y-75720745D01*
X103947245Y-75726996D01*
X103628371Y-75764020D01*
X103113479Y-75878752D01*
X102626194Y-76056529D01*
X102170681Y-76292238D01*
X101751106Y-76580762D01*
X101371632Y-76916986D01*
X101036424Y-77295796D01*
X100749647Y-77712075D01*
X100515466Y-78160709D01*
X100338044Y-78636582D01*
X100221546Y-79134579D01*
X100170138Y-79649586D01*
X100174453Y-80006371D01*
X100239424Y-80552783D01*
X100370846Y-81074296D01*
X100570547Y-81576410D01*
X100840355Y-82064620D01*
X100878330Y-82123760D01*
X100984961Y-82266723D01*
X101134004Y-82438926D01*
X101310379Y-82625321D01*
X101499010Y-82810859D01*
X101684818Y-82980490D01*
X101852725Y-83119165D01*
X101936220Y-83179650D01*
X102405796Y-83454398D01*
X102892140Y-83662080D01*
X103389694Y-83804205D01*
X103892904Y-83882279D01*
X104396211Y-83897811D01*
X104894061Y-83852309D01*
G04 #@! TO.C,J1*
D14*
X87895180Y-74749066D02*
X88609466Y-74749066D01*
X88752323Y-74701447D01*
X88847561Y-74606209D01*
X88895180Y-74463352D01*
X88895180Y-74368114D01*
X88895180Y-75749066D02*
X88895180Y-75177638D01*
X88895180Y-75463352D02*
X87895180Y-75463352D01*
X88038038Y-75368114D01*
X88133276Y-75272876D01*
X88180895Y-75177638D01*
G04 #@! TO.C,R1*
X92992380Y-64704933D02*
X92516190Y-64371600D01*
X92992380Y-64133504D02*
X91992380Y-64133504D01*
X91992380Y-64514457D01*
X92040000Y-64609695D01*
X92087619Y-64657314D01*
X92182857Y-64704933D01*
X92325714Y-64704933D01*
X92420952Y-64657314D01*
X92468571Y-64609695D01*
X92516190Y-64514457D01*
X92516190Y-64133504D01*
X92992380Y-65657314D02*
X92992380Y-65085885D01*
X92992380Y-65371600D02*
X91992380Y-65371600D01*
X92135238Y-65276361D01*
X92230476Y-65181123D01*
X92278095Y-65085885D01*
G04 #@! TO.C,D2*
X89047580Y-79119504D02*
X88047580Y-79119504D01*
X88047580Y-79357600D01*
X88095200Y-79500457D01*
X88190438Y-79595695D01*
X88285676Y-79643314D01*
X88476152Y-79690933D01*
X88619009Y-79690933D01*
X88809485Y-79643314D01*
X88904723Y-79595695D01*
X88999961Y-79500457D01*
X89047580Y-79357600D01*
X89047580Y-79119504D01*
X88142819Y-80071885D02*
X88095200Y-80119504D01*
X88047580Y-80214742D01*
X88047580Y-80452838D01*
X88095200Y-80548076D01*
X88142819Y-80595695D01*
X88238057Y-80643314D01*
X88333295Y-80643314D01*
X88476152Y-80595695D01*
X89047580Y-80024266D01*
X89047580Y-80643314D01*
G04 #@! TO.C,J2*
X98326533Y-54163980D02*
X98326533Y-54878266D01*
X98374152Y-55021123D01*
X98469390Y-55116361D01*
X98612247Y-55163980D01*
X98707485Y-55163980D01*
X97897961Y-54259219D02*
X97850342Y-54211600D01*
X97755104Y-54163980D01*
X97517009Y-54163980D01*
X97421771Y-54211600D01*
X97374152Y-54259219D01*
X97326533Y-54354457D01*
X97326533Y-54449695D01*
X97374152Y-54592552D01*
X97945580Y-55163980D01*
X97326533Y-55163980D01*
G04 #@! TO.C,F1*
X100360171Y-75104666D02*
X100360171Y-74771333D01*
X100883980Y-74771333D02*
X99883980Y-74771333D01*
X99883980Y-75247523D01*
X100883980Y-76152285D02*
X100883980Y-75580857D01*
X100883980Y-75866571D02*
X99883980Y-75866571D01*
X100026838Y-75771333D01*
X100122076Y-75676095D01*
X100169695Y-75580857D01*
G04 #@! TO.C,D1*
X88945980Y-58342304D02*
X87945980Y-58342304D01*
X87945980Y-58580400D01*
X87993600Y-58723257D01*
X88088838Y-58818495D01*
X88184076Y-58866114D01*
X88374552Y-58913733D01*
X88517409Y-58913733D01*
X88707885Y-58866114D01*
X88803123Y-58818495D01*
X88898361Y-58723257D01*
X88945980Y-58580400D01*
X88945980Y-58342304D01*
X88945980Y-59866114D02*
X88945980Y-59294685D01*
X88945980Y-59580400D02*
X87945980Y-59580400D01*
X88088838Y-59485161D01*
X88184076Y-59389923D01*
X88231695Y-59294685D01*
G04 #@! TO.C,R7*
X98109066Y-64612780D02*
X98442400Y-64136590D01*
X98680495Y-64612780D02*
X98680495Y-63612780D01*
X98299542Y-63612780D01*
X98204304Y-63660400D01*
X98156685Y-63708019D01*
X98109066Y-63803257D01*
X98109066Y-63946114D01*
X98156685Y-64041352D01*
X98204304Y-64088971D01*
X98299542Y-64136590D01*
X98680495Y-64136590D01*
X97775733Y-63612780D02*
X97109066Y-63612780D01*
X97537638Y-64612780D01*
G04 #@! TO.C,R5*
X95264266Y-66797180D02*
X95597600Y-66320990D01*
X95835695Y-66797180D02*
X95835695Y-65797180D01*
X95454742Y-65797180D01*
X95359504Y-65844800D01*
X95311885Y-65892419D01*
X95264266Y-65987657D01*
X95264266Y-66130514D01*
X95311885Y-66225752D01*
X95359504Y-66273371D01*
X95454742Y-66320990D01*
X95835695Y-66320990D01*
X94359504Y-65797180D02*
X94835695Y-65797180D01*
X94883314Y-66273371D01*
X94835695Y-66225752D01*
X94740457Y-66178133D01*
X94502361Y-66178133D01*
X94407123Y-66225752D01*
X94359504Y-66273371D01*
X94311885Y-66368609D01*
X94311885Y-66606704D01*
X94359504Y-66701942D01*
X94407123Y-66749561D01*
X94502361Y-66797180D01*
X94740457Y-66797180D01*
X94835695Y-66749561D01*
X94883314Y-66701942D01*
G04 #@! TO.C,R6*
X107405466Y-67000380D02*
X107738800Y-66524190D01*
X107976895Y-67000380D02*
X107976895Y-66000380D01*
X107595942Y-66000380D01*
X107500704Y-66048000D01*
X107453085Y-66095619D01*
X107405466Y-66190857D01*
X107405466Y-66333714D01*
X107453085Y-66428952D01*
X107500704Y-66476571D01*
X107595942Y-66524190D01*
X107976895Y-66524190D01*
X106548323Y-66000380D02*
X106738800Y-66000380D01*
X106834038Y-66048000D01*
X106881657Y-66095619D01*
X106976895Y-66238476D01*
X107024514Y-66428952D01*
X107024514Y-66809904D01*
X106976895Y-66905142D01*
X106929276Y-66952761D01*
X106834038Y-67000380D01*
X106643561Y-67000380D01*
X106548323Y-66952761D01*
X106500704Y-66905142D01*
X106453085Y-66809904D01*
X106453085Y-66571809D01*
X106500704Y-66476571D01*
X106548323Y-66428952D01*
X106643561Y-66381333D01*
X106834038Y-66381333D01*
X106929276Y-66428952D01*
X106976895Y-66476571D01*
X107024514Y-66571809D01*
G04 #@! TO.C,R4*
X107303866Y-69286380D02*
X107637200Y-68810190D01*
X107875295Y-69286380D02*
X107875295Y-68286380D01*
X107494342Y-68286380D01*
X107399104Y-68334000D01*
X107351485Y-68381619D01*
X107303866Y-68476857D01*
X107303866Y-68619714D01*
X107351485Y-68714952D01*
X107399104Y-68762571D01*
X107494342Y-68810190D01*
X107875295Y-68810190D01*
X106446723Y-68619714D02*
X106446723Y-69286380D01*
X106684819Y-68238761D02*
X106922914Y-68953047D01*
X106303866Y-68953047D01*
G04 #@! TO.C,R3*
X95213466Y-69032380D02*
X95546800Y-68556190D01*
X95784895Y-69032380D02*
X95784895Y-68032380D01*
X95403942Y-68032380D01*
X95308704Y-68080000D01*
X95261085Y-68127619D01*
X95213466Y-68222857D01*
X95213466Y-68365714D01*
X95261085Y-68460952D01*
X95308704Y-68508571D01*
X95403942Y-68556190D01*
X95784895Y-68556190D01*
X94880133Y-68032380D02*
X94261085Y-68032380D01*
X94594419Y-68413333D01*
X94451561Y-68413333D01*
X94356323Y-68460952D01*
X94308704Y-68508571D01*
X94261085Y-68603809D01*
X94261085Y-68841904D01*
X94308704Y-68937142D01*
X94356323Y-68984761D01*
X94451561Y-69032380D01*
X94737276Y-69032380D01*
X94832514Y-68984761D01*
X94880133Y-68937142D01*
G04 #@! TD*
M02*
