G04 #@! TF.GenerationSoftware,KiCad,Pcbnew,(5.0.0-3-g5ebb6b6)*
G04 #@! TF.CreationDate,2018-09-18T17:23:57-07:00*
G04 #@! TF.ProjectId,phone_charger,70686F6E655F636861726765722E6B69,rev?*
G04 #@! TF.SameCoordinates,Original*
G04 #@! TF.FileFunction,Soldermask,Top*
G04 #@! TF.FilePolarity,Negative*
%FSLAX46Y46*%
G04 Gerber Fmt 4.6, Leading zero omitted, Abs format (unit mm)*
G04 Created by KiCad (PCBNEW (5.0.0-3-g5ebb6b6)) date Tuesday, September 18, 2018 at 05:23:57 PM*
%MOMM*%
%LPD*%
G01*
G04 APERTURE LIST*
%ADD10O,2.100000X2.100000*%
%ADD11R,2.100000X2.100000*%
%ADD12C,2.000000*%
%ADD13O,2.000000X2.000000*%
%ADD14C,2.300000*%
%ADD15C,2.240000*%
%ADD16C,3.700000*%
%ADD17R,1.950000X1.000000*%
%ADD18R,1.575000X1.575000*%
%ADD19R,1.600000X1.150000*%
%ADD20R,1.650000X1.900000*%
%ADD21R,2.000000X2.400000*%
%ADD22R,3.900000X2.700000*%
%ADD23R,2.200000X2.200000*%
%ADD24C,2.200000*%
%ADD25R,1.600000X1.300000*%
%ADD26R,2.100000X4.000000*%
G04 APERTURE END LIST*
D10*
G04 #@! TO.C,J1*
X90525600Y-73456800D03*
D11*
X90525600Y-75996800D03*
G04 #@! TD*
D12*
G04 #@! TO.C,R1*
X90170000Y-69951600D03*
D13*
X90170000Y-59791600D03*
G04 #@! TD*
D14*
G04 #@! TO.C,J2*
X104507200Y-60876000D03*
D15*
X102007200Y-60866000D03*
X100007200Y-60891000D03*
D14*
X97507200Y-60876000D03*
D16*
X107577200Y-58166000D03*
X94437200Y-58166000D03*
G04 #@! TD*
D17*
G04 #@! TO.C,U1*
X101163001Y-78187001D03*
X101163001Y-79457001D03*
X101163001Y-80727001D03*
X101163001Y-81997001D03*
X106563001Y-81997001D03*
X106563001Y-80727001D03*
X106563001Y-79457001D03*
X106563001Y-78187001D03*
D18*
X104450501Y-80679501D03*
X104450501Y-79504501D03*
X103275501Y-80679501D03*
X103275501Y-79504501D03*
G04 #@! TD*
D19*
G04 #@! TO.C,C2*
X108580000Y-76403200D03*
X106680000Y-76403200D03*
G04 #@! TD*
D20*
G04 #@! TO.C,C4*
X97282000Y-69037200D03*
X97282000Y-71537200D03*
G04 #@! TD*
G04 #@! TO.C,C3*
X95199200Y-69037200D03*
X95199200Y-71537200D03*
G04 #@! TD*
D21*
G04 #@! TO.C,C1*
X93980000Y-80352400D03*
X93980000Y-76352400D03*
G04 #@! TD*
D22*
G04 #@! TO.C,D3*
X107602000Y-72898000D03*
X102202000Y-72898000D03*
G04 #@! TD*
D23*
G04 #@! TO.C,D1*
X91338400Y-56134000D03*
D24*
X88798400Y-56134000D03*
G04 #@! TD*
D25*
G04 #@! TO.C,R2*
X96352000Y-82550000D03*
X98552000Y-82550000D03*
G04 #@! TD*
D26*
G04 #@! TO.C,L1*
X99284400Y-64947800D03*
X108284400Y-64947800D03*
G04 #@! TD*
M02*
