M48
;DRILL file {KiCad (5.0.0-3-g5ebb6b6)} date Thursday, September 20, 2018 at 01:09:30 PM
;FORMAT={-:-/ absolute / inch / decimal}
FMAT,2
INCH,TZ
T1C0.0200
T2C0.0250
T3C0.0315
T4C0.0354
T5C0.0362
T6C0.0394
T7C0.0400
T8C0.0906
%
G90
G05
M72
T1
X3.67Y-2.712
T2
X3.675Y-2.83
X3.805Y-3.025
X3.905Y-2.83
X3.91Y-3.055
X3.985Y-2.975
X4.085Y-2.975
X4.085Y-3.07
X4.14Y-3.29
X4.286Y-3.042
T3
X3.55Y-2.354
X3.55Y-2.754
T4
X3.496Y-2.21
X3.596Y-2.21
T5
X3.8422Y-2.3167
X3.9406Y-2.3173
X4.0194Y-2.3163
X4.1178Y-2.3167
T6
X3.564Y-2.892
X3.564Y-2.992
T7
X3.61Y-3.16
T8
X3.7213Y-2.21
X4.2387Y-2.21
T0
M30
