G04 #@! TF.GenerationSoftware,KiCad,Pcbnew,(5.0.0-3-g5ebb6b6)*
G04 #@! TF.CreationDate,2019-01-13T20:11:43-05:00*
G04 #@! TF.ProjectId,phone_charger,70686F6E655F636861726765722E6B69,2*
G04 #@! TF.SameCoordinates,Original*
G04 #@! TF.FileFunction,Legend,Bot*
G04 #@! TF.FilePolarity,Positive*
%FSLAX46Y46*%
G04 Gerber Fmt 4.6, Leading zero omitted, Abs format (unit mm)*
G04 Created by KiCad (PCBNEW (5.0.0-3-g5ebb6b6)) date Sunday, January 13, 2019 at 08:11:43 PM*
%MOMM*%
%LPD*%
G01*
G04 APERTURE LIST*
%ADD10C,0.200000*%
%ADD11C,0.254000*%
%ADD12C,0.580000*%
%ADD13C,0.100000*%
%ADD14C,0.120000*%
%ADD15C,0.010000*%
%ADD16C,0.150000*%
G04 APERTURE END LIST*
D10*
X105409476Y-54296571D02*
X104838047Y-54296571D01*
X105123761Y-55796571D02*
X105123761Y-54296571D01*
X104361857Y-55796571D02*
X104457095Y-55725142D01*
X104504714Y-55653714D01*
X104552333Y-55510857D01*
X104552333Y-55082285D01*
X104504714Y-54939428D01*
X104457095Y-54868000D01*
X104361857Y-54796571D01*
X104219000Y-54796571D01*
X104123761Y-54868000D01*
X104076142Y-54939428D01*
X104028523Y-55082285D01*
X104028523Y-55510857D01*
X104076142Y-55653714D01*
X104123761Y-55725142D01*
X104219000Y-55796571D01*
X104361857Y-55796571D01*
X103599952Y-54796571D02*
X103599952Y-56296571D01*
X103599952Y-54868000D02*
X103504714Y-54796571D01*
X103314238Y-54796571D01*
X103219000Y-54868000D01*
X103171380Y-54939428D01*
X103123761Y-55082285D01*
X103123761Y-55510857D01*
X103171380Y-55653714D01*
X103219000Y-55725142D01*
X103314238Y-55796571D01*
X103504714Y-55796571D01*
X103599952Y-55725142D01*
X101790428Y-55796571D02*
X101885666Y-55725142D01*
X101933285Y-55653714D01*
X101980904Y-55510857D01*
X101980904Y-55082285D01*
X101933285Y-54939428D01*
X101885666Y-54868000D01*
X101790428Y-54796571D01*
X101647571Y-54796571D01*
X101552333Y-54868000D01*
X101504714Y-54939428D01*
X101457095Y-55082285D01*
X101457095Y-55510857D01*
X101504714Y-55653714D01*
X101552333Y-55725142D01*
X101647571Y-55796571D01*
X101790428Y-55796571D01*
X101171380Y-54796571D02*
X100790428Y-54796571D01*
X101028523Y-55796571D02*
X101028523Y-54510857D01*
X100980904Y-54368000D01*
X100885666Y-54296571D01*
X100790428Y-54296571D01*
X99695190Y-54296571D02*
X99695190Y-55510857D01*
X99647571Y-55653714D01*
X99599952Y-55725142D01*
X99504714Y-55796571D01*
X99314238Y-55796571D01*
X99219000Y-55725142D01*
X99171380Y-55653714D01*
X99123761Y-55510857D01*
X99123761Y-54296571D01*
X98695190Y-55725142D02*
X98552333Y-55796571D01*
X98314238Y-55796571D01*
X98219000Y-55725142D01*
X98171380Y-55653714D01*
X98123761Y-55510857D01*
X98123761Y-55368000D01*
X98171380Y-55225142D01*
X98219000Y-55153714D01*
X98314238Y-55082285D01*
X98504714Y-55010857D01*
X98599952Y-54939428D01*
X98647571Y-54868000D01*
X98695190Y-54725142D01*
X98695190Y-54582285D01*
X98647571Y-54439428D01*
X98599952Y-54368000D01*
X98504714Y-54296571D01*
X98266619Y-54296571D01*
X98123761Y-54368000D01*
X97361857Y-55010857D02*
X97219000Y-55082285D01*
X97171380Y-55153714D01*
X97123761Y-55296571D01*
X97123761Y-55510857D01*
X97171380Y-55653714D01*
X97219000Y-55725142D01*
X97314238Y-55796571D01*
X97695190Y-55796571D01*
X97695190Y-54296571D01*
X97361857Y-54296571D01*
X97266619Y-54368000D01*
X97219000Y-54439428D01*
X97171380Y-54582285D01*
X97171380Y-54725142D01*
X97219000Y-54868000D01*
X97266619Y-54939428D01*
X97361857Y-55010857D01*
X97695190Y-55010857D01*
X88646000Y-58039000D02*
X88646000Y-59055000D01*
X88138000Y-58547000D02*
X89154000Y-58547000D01*
X90932000Y-58293000D02*
X91821000Y-58293000D01*
D11*
X108917619Y-70575714D02*
X108433809Y-70237047D01*
X108917619Y-69995142D02*
X107901619Y-69995142D01*
X107901619Y-70382190D01*
X107950000Y-70478952D01*
X107998380Y-70527333D01*
X108095142Y-70575714D01*
X108240285Y-70575714D01*
X108337047Y-70527333D01*
X108385428Y-70478952D01*
X108433809Y-70382190D01*
X108433809Y-69995142D01*
X108869238Y-71398190D02*
X108917619Y-71301428D01*
X108917619Y-71107904D01*
X108869238Y-71011142D01*
X108772476Y-70962761D01*
X108385428Y-70962761D01*
X108288666Y-71011142D01*
X108240285Y-71107904D01*
X108240285Y-71301428D01*
X108288666Y-71398190D01*
X108385428Y-71446571D01*
X108482190Y-71446571D01*
X108578952Y-70962761D01*
X108240285Y-71785238D02*
X108917619Y-72027142D01*
X108240285Y-72269047D01*
X107998380Y-73381809D02*
X107950000Y-73430190D01*
X107901619Y-73526952D01*
X107901619Y-73768857D01*
X107950000Y-73865619D01*
X107998380Y-73914000D01*
X108095142Y-73962380D01*
X108191904Y-73962380D01*
X108337047Y-73914000D01*
X108917619Y-73333428D01*
X108917619Y-73962380D01*
X108627333Y-74349428D02*
X108627333Y-74833238D01*
X108917619Y-74252666D02*
X107901619Y-74591333D01*
X108917619Y-74930000D01*
D12*
X88696800Y-76962000D02*
G75*
G03X88696800Y-76962000I-152400J0D01*
G01*
D11*
G04 #@! TO.C,J2*
X105839911Y-59202243D02*
X107939911Y-59202243D01*
X107939911Y-59202243D02*
X107939911Y-58002243D01*
X96392000Y-59234000D02*
X94292000Y-59234000D01*
D13*
X95377000Y-45720000D02*
X94402000Y-45720000D01*
X94402000Y-45720000D02*
X94402000Y-46395000D01*
X107767000Y-46359000D02*
X107767000Y-45709000D01*
X107767000Y-45709000D02*
X107067000Y-45709000D01*
D11*
X94292000Y-59234000D02*
X94292000Y-58034000D01*
D14*
G04 #@! TO.C,D2*
X89322400Y-78395200D02*
X89322400Y-82295200D01*
X91322400Y-78395200D02*
X91322400Y-82295200D01*
D13*
X90322400Y-80295200D02*
X89772400Y-80295200D01*
X90322400Y-80295200D02*
X90872400Y-80295200D01*
X90322400Y-80295200D02*
X89922400Y-80895200D01*
X89922400Y-80895200D02*
X90722400Y-80895200D01*
X90722400Y-80895200D02*
X90322400Y-80295200D01*
D14*
X89322400Y-78395200D02*
X91322400Y-78395200D01*
G04 #@! TO.C,R7*
X100801533Y-63548800D02*
X101144067Y-63548800D01*
X100801533Y-64568800D02*
X101144067Y-64568800D01*
G04 #@! TO.C,R5*
X98042733Y-65885600D02*
X98385267Y-65885600D01*
X98042733Y-66905600D02*
X98385267Y-66905600D01*
G04 #@! TO.C,R6*
X103501548Y-65634800D02*
X104024052Y-65634800D01*
X103501548Y-67054800D02*
X104024052Y-67054800D01*
G04 #@! TO.C,R4*
X103501548Y-68022400D02*
X104024052Y-68022400D01*
X103501548Y-69442400D02*
X104024052Y-69442400D01*
G04 #@! TO.C,R3*
X98065948Y-67920800D02*
X98588452Y-67920800D01*
X98065948Y-69340800D02*
X98588452Y-69340800D01*
D15*
G04 #@! TO.C,LOGO1*
G36*
X108701040Y-80628376D02*
X108813608Y-80549068D01*
X108885386Y-80430580D01*
X108902358Y-80283309D01*
X108900017Y-80264000D01*
X108847876Y-80129739D01*
X108747942Y-80032343D01*
X108618764Y-79979257D01*
X108478888Y-79977926D01*
X108346864Y-80035795D01*
X108341518Y-80039823D01*
X108255693Y-80146039D01*
X108220682Y-80278309D01*
X108234058Y-80415680D01*
X108293395Y-80537195D01*
X108396267Y-80621902D01*
X108409598Y-80627850D01*
X108561697Y-80658103D01*
X108701040Y-80628376D01*
X108701040Y-80628376D01*
G37*
X108701040Y-80628376D02*
X108813608Y-80549068D01*
X108885386Y-80430580D01*
X108902358Y-80283309D01*
X108900017Y-80264000D01*
X108847876Y-80129739D01*
X108747942Y-80032343D01*
X108618764Y-79979257D01*
X108478888Y-79977926D01*
X108346864Y-80035795D01*
X108341518Y-80039823D01*
X108255693Y-80146039D01*
X108220682Y-80278309D01*
X108234058Y-80415680D01*
X108293395Y-80537195D01*
X108396267Y-80621902D01*
X108409598Y-80627850D01*
X108561697Y-80658103D01*
X108701040Y-80628376D01*
G36*
X108105921Y-80345194D02*
X108103231Y-80166844D01*
X107756287Y-80182681D01*
X107577166Y-80186000D01*
X107426835Y-80179550D01*
X107324570Y-80164340D01*
X107308698Y-80159258D01*
X107208053Y-80120000D01*
X107217983Y-79493500D01*
X107227914Y-78867000D01*
X108103086Y-78846734D01*
X108108528Y-78486000D01*
X107485410Y-78486000D01*
X107255011Y-78486675D01*
X107084168Y-78489604D01*
X106959870Y-78496143D01*
X106869107Y-78507650D01*
X106798869Y-78525480D01*
X106736146Y-78550991D01*
X106702375Y-78567643D01*
X106620191Y-78615930D01*
X106558152Y-78672573D01*
X106513420Y-78747991D01*
X106483156Y-78852606D01*
X106464522Y-78996839D01*
X106454679Y-79191110D01*
X106450788Y-79445840D01*
X106450532Y-79492194D01*
X106452515Y-79767358D01*
X106462875Y-79980400D01*
X106483873Y-80141512D01*
X106517769Y-80260885D01*
X106566824Y-80348711D01*
X106633299Y-80415182D01*
X106659491Y-80434200D01*
X106703326Y-80457989D01*
X106762307Y-80475885D01*
X106847406Y-80488990D01*
X106969596Y-80498402D01*
X107139848Y-80505223D01*
X107369135Y-80510552D01*
X107432406Y-80511701D01*
X108108612Y-80523545D01*
X108105921Y-80345194D01*
X108105921Y-80345194D01*
G37*
X108105921Y-80345194D02*
X108103231Y-80166844D01*
X107756287Y-80182681D01*
X107577166Y-80186000D01*
X107426835Y-80179550D01*
X107324570Y-80164340D01*
X107308698Y-80159258D01*
X107208053Y-80120000D01*
X107217983Y-79493500D01*
X107227914Y-78867000D01*
X108103086Y-78846734D01*
X108108528Y-78486000D01*
X107485410Y-78486000D01*
X107255011Y-78486675D01*
X107084168Y-78489604D01*
X106959870Y-78496143D01*
X106869107Y-78507650D01*
X106798869Y-78525480D01*
X106736146Y-78550991D01*
X106702375Y-78567643D01*
X106620191Y-78615930D01*
X106558152Y-78672573D01*
X106513420Y-78747991D01*
X106483156Y-78852606D01*
X106464522Y-78996839D01*
X106454679Y-79191110D01*
X106450788Y-79445840D01*
X106450532Y-79492194D01*
X106452515Y-79767358D01*
X106462875Y-79980400D01*
X106483873Y-80141512D01*
X106517769Y-80260885D01*
X106566824Y-80348711D01*
X106633299Y-80415182D01*
X106659491Y-80434200D01*
X106703326Y-80457989D01*
X106762307Y-80475885D01*
X106847406Y-80488990D01*
X106969596Y-80498402D01*
X107139848Y-80505223D01*
X107369135Y-80510552D01*
X107432406Y-80511701D01*
X108108612Y-80523545D01*
X108105921Y-80345194D01*
G36*
X105975431Y-79692500D02*
X106074998Y-79451090D01*
X106171842Y-79221208D01*
X106260692Y-79014988D01*
X106336281Y-78844564D01*
X106393340Y-78722070D01*
X106416560Y-78676500D01*
X106520963Y-78486000D01*
X105542443Y-78486000D01*
X105563331Y-78590439D01*
X105558834Y-78713686D01*
X105510035Y-78862582D01*
X105435852Y-79030285D01*
X104533565Y-79030285D01*
X104453669Y-78844563D01*
X104406669Y-78707790D01*
X104391998Y-78599260D01*
X104395464Y-78572420D01*
X104403449Y-78528685D01*
X104390812Y-78502942D01*
X104343565Y-78490423D01*
X104247720Y-78486362D01*
X104141849Y-78486000D01*
X103866544Y-78486000D01*
X103938410Y-78586927D01*
X103973320Y-78646735D01*
X104033924Y-78762179D01*
X104115175Y-78923156D01*
X104212029Y-79119563D01*
X104319440Y-79341296D01*
X104333103Y-79369925D01*
X104706057Y-79369925D01*
X104739478Y-79363856D01*
X104828294Y-79359286D01*
X104955328Y-79356988D01*
X104996343Y-79356857D01*
X105131157Y-79359041D01*
X105232672Y-79364845D01*
X105283717Y-79373147D01*
X105286628Y-79375828D01*
X105273100Y-79420912D01*
X105237993Y-79512677D01*
X105189529Y-79631631D01*
X105135927Y-79758283D01*
X105085408Y-79873142D01*
X105046192Y-79956717D01*
X105028476Y-79987957D01*
X105006003Y-79967756D01*
X104961502Y-79898189D01*
X104903548Y-79795696D01*
X104840715Y-79676713D01*
X104781580Y-79557678D01*
X104734719Y-79455030D01*
X104708705Y-79385206D01*
X104706057Y-79369925D01*
X104333103Y-79369925D01*
X104411652Y-79534503D01*
X104538066Y-79803196D01*
X104634822Y-80014171D01*
X104704775Y-80174590D01*
X104750780Y-80291616D01*
X104775693Y-80372412D01*
X104782369Y-80424141D01*
X104776409Y-80449576D01*
X104764949Y-80478016D01*
X104773802Y-80497249D01*
X104813795Y-80509068D01*
X104895759Y-80515268D01*
X105030523Y-80517645D01*
X105189247Y-80518000D01*
X105638704Y-80518000D01*
X105975431Y-79692500D01*
X105975431Y-79692500D01*
G37*
X105975431Y-79692500D02*
X106074998Y-79451090D01*
X106171842Y-79221208D01*
X106260692Y-79014988D01*
X106336281Y-78844564D01*
X106393340Y-78722070D01*
X106416560Y-78676500D01*
X106520963Y-78486000D01*
X105542443Y-78486000D01*
X105563331Y-78590439D01*
X105558834Y-78713686D01*
X105510035Y-78862582D01*
X105435852Y-79030285D01*
X104533565Y-79030285D01*
X104453669Y-78844563D01*
X104406669Y-78707790D01*
X104391998Y-78599260D01*
X104395464Y-78572420D01*
X104403449Y-78528685D01*
X104390812Y-78502942D01*
X104343565Y-78490423D01*
X104247720Y-78486362D01*
X104141849Y-78486000D01*
X103866544Y-78486000D01*
X103938410Y-78586927D01*
X103973320Y-78646735D01*
X104033924Y-78762179D01*
X104115175Y-78923156D01*
X104212029Y-79119563D01*
X104319440Y-79341296D01*
X104333103Y-79369925D01*
X104706057Y-79369925D01*
X104739478Y-79363856D01*
X104828294Y-79359286D01*
X104955328Y-79356988D01*
X104996343Y-79356857D01*
X105131157Y-79359041D01*
X105232672Y-79364845D01*
X105283717Y-79373147D01*
X105286628Y-79375828D01*
X105273100Y-79420912D01*
X105237993Y-79512677D01*
X105189529Y-79631631D01*
X105135927Y-79758283D01*
X105085408Y-79873142D01*
X105046192Y-79956717D01*
X105028476Y-79987957D01*
X105006003Y-79967756D01*
X104961502Y-79898189D01*
X104903548Y-79795696D01*
X104840715Y-79676713D01*
X104781580Y-79557678D01*
X104734719Y-79455030D01*
X104708705Y-79385206D01*
X104706057Y-79369925D01*
X104333103Y-79369925D01*
X104411652Y-79534503D01*
X104538066Y-79803196D01*
X104634822Y-80014171D01*
X104704775Y-80174590D01*
X104750780Y-80291616D01*
X104775693Y-80372412D01*
X104782369Y-80424141D01*
X104776409Y-80449576D01*
X104764949Y-80478016D01*
X104773802Y-80497249D01*
X104813795Y-80509068D01*
X104895759Y-80515268D01*
X105030523Y-80517645D01*
X105189247Y-80518000D01*
X105638704Y-80518000D01*
X105975431Y-79692500D01*
G36*
X102637771Y-80517797D02*
X102890302Y-80516163D01*
X103124407Y-80511687D01*
X103328054Y-80504828D01*
X103489208Y-80496042D01*
X103595835Y-80485787D01*
X103624906Y-80480262D01*
X103758987Y-80422234D01*
X103846502Y-80329466D01*
X103893933Y-80191017D01*
X103907771Y-80002721D01*
X103901441Y-79827861D01*
X103877782Y-79711543D01*
X103829795Y-79640472D01*
X103750479Y-79601359D01*
X103689571Y-79588428D01*
X103593439Y-79564658D01*
X103569193Y-79537280D01*
X103616402Y-79508764D01*
X103707358Y-79486409D01*
X103796008Y-79458964D01*
X103854679Y-79407697D01*
X103889045Y-79319820D01*
X103904781Y-79182542D01*
X103907771Y-79034694D01*
X103904875Y-78881112D01*
X103893291Y-78779476D01*
X103868677Y-78709290D01*
X103826688Y-78650059D01*
X103826128Y-78649409D01*
X103776990Y-78601982D01*
X103715006Y-78564625D01*
X103631546Y-78536175D01*
X103517978Y-78515471D01*
X103365668Y-78501348D01*
X103165985Y-78492644D01*
X102910298Y-78488197D01*
X102619628Y-78486865D01*
X101785057Y-78486000D01*
X101785057Y-78848857D01*
X102565200Y-78848857D01*
X103149087Y-78848857D01*
X103138358Y-79093785D01*
X103127628Y-79338714D01*
X102565200Y-79359910D01*
X102565200Y-78848857D01*
X101785057Y-78848857D01*
X101785057Y-79858711D01*
X102569280Y-79858711D01*
X102573883Y-79765430D01*
X102580143Y-79733111D01*
X102624725Y-79705693D01*
X102718936Y-79688380D01*
X102840376Y-79682413D01*
X102966645Y-79689033D01*
X103064128Y-79706299D01*
X103110406Y-79726619D01*
X103134988Y-79768441D01*
X103144511Y-79850760D01*
X103145771Y-79940016D01*
X103144026Y-80058834D01*
X103132305Y-80124262D01*
X103100878Y-80155483D01*
X103040017Y-80171677D01*
X103027026Y-80174131D01*
X102912791Y-80185711D01*
X102777787Y-80186595D01*
X102745812Y-80184847D01*
X102583343Y-80173286D01*
X102572210Y-79978039D01*
X102569280Y-79858711D01*
X101785057Y-79858711D01*
X101785057Y-80518000D01*
X102637771Y-80517797D01*
X102637771Y-80517797D01*
G37*
X102637771Y-80517797D02*
X102890302Y-80516163D01*
X103124407Y-80511687D01*
X103328054Y-80504828D01*
X103489208Y-80496042D01*
X103595835Y-80485787D01*
X103624906Y-80480262D01*
X103758987Y-80422234D01*
X103846502Y-80329466D01*
X103893933Y-80191017D01*
X103907771Y-80002721D01*
X103901441Y-79827861D01*
X103877782Y-79711543D01*
X103829795Y-79640472D01*
X103750479Y-79601359D01*
X103689571Y-79588428D01*
X103593439Y-79564658D01*
X103569193Y-79537280D01*
X103616402Y-79508764D01*
X103707358Y-79486409D01*
X103796008Y-79458964D01*
X103854679Y-79407697D01*
X103889045Y-79319820D01*
X103904781Y-79182542D01*
X103907771Y-79034694D01*
X103904875Y-78881112D01*
X103893291Y-78779476D01*
X103868677Y-78709290D01*
X103826688Y-78650059D01*
X103826128Y-78649409D01*
X103776990Y-78601982D01*
X103715006Y-78564625D01*
X103631546Y-78536175D01*
X103517978Y-78515471D01*
X103365668Y-78501348D01*
X103165985Y-78492644D01*
X102910298Y-78488197D01*
X102619628Y-78486865D01*
X101785057Y-78486000D01*
X101785057Y-78848857D01*
X102565200Y-78848857D01*
X103149087Y-78848857D01*
X103138358Y-79093785D01*
X103127628Y-79338714D01*
X102565200Y-79359910D01*
X102565200Y-78848857D01*
X101785057Y-78848857D01*
X101785057Y-79858711D01*
X102569280Y-79858711D01*
X102573883Y-79765430D01*
X102580143Y-79733111D01*
X102624725Y-79705693D01*
X102718936Y-79688380D01*
X102840376Y-79682413D01*
X102966645Y-79689033D01*
X103064128Y-79706299D01*
X103110406Y-79726619D01*
X103134988Y-79768441D01*
X103144511Y-79850760D01*
X103145771Y-79940016D01*
X103144026Y-80058834D01*
X103132305Y-80124262D01*
X103100878Y-80155483D01*
X103040017Y-80171677D01*
X103027026Y-80174131D01*
X102912791Y-80185711D01*
X102777787Y-80186595D01*
X102745812Y-80184847D01*
X102583343Y-80173286D01*
X102572210Y-79978039D01*
X102569280Y-79858711D01*
X101785057Y-79858711D01*
X101785057Y-80518000D01*
X102637771Y-80517797D01*
G36*
X108739393Y-78979895D02*
X108809134Y-78924220D01*
X108889385Y-78801176D01*
X108908416Y-78668465D01*
X108873249Y-78541114D01*
X108790905Y-78434152D01*
X108668405Y-78362604D01*
X108536574Y-78340857D01*
X108450755Y-78365002D01*
X108355510Y-78424666D01*
X108337109Y-78440643D01*
X108244300Y-78568003D01*
X108214677Y-78708482D01*
X108248745Y-78845565D01*
X108321784Y-78941304D01*
X108453128Y-79018554D01*
X108598319Y-79031207D01*
X108739393Y-78979895D01*
X108739393Y-78979895D01*
G37*
X108739393Y-78979895D02*
X108809134Y-78924220D01*
X108889385Y-78801176D01*
X108908416Y-78668465D01*
X108873249Y-78541114D01*
X108790905Y-78434152D01*
X108668405Y-78362604D01*
X108536574Y-78340857D01*
X108450755Y-78365002D01*
X108355510Y-78424666D01*
X108337109Y-78440643D01*
X108244300Y-78568003D01*
X108214677Y-78708482D01*
X108248745Y-78845565D01*
X108321784Y-78941304D01*
X108453128Y-79018554D01*
X108598319Y-79031207D01*
X108739393Y-78979895D01*
G36*
X105554461Y-83547509D02*
X106041296Y-83442480D01*
X106511561Y-83279432D01*
X106959698Y-83059873D01*
X107380152Y-82785311D01*
X107767366Y-82457253D01*
X108115783Y-82077208D01*
X108419848Y-81646683D01*
X108643128Y-81234046D01*
X108713450Y-81080200D01*
X108773526Y-80939777D01*
X108815007Y-80832748D01*
X108827404Y-80793248D01*
X108840293Y-80721783D01*
X108822269Y-80704192D01*
X108784559Y-80716737D01*
X108591886Y-80767923D01*
X108415637Y-80749125D01*
X108250654Y-80659649D01*
X108228568Y-80641785D01*
X108152120Y-80586859D01*
X108118822Y-80587722D01*
X108116914Y-80599051D01*
X108098987Y-80668636D01*
X108050587Y-80784370D01*
X107979781Y-80930912D01*
X107894641Y-81092921D01*
X107803234Y-81255055D01*
X107713630Y-81401974D01*
X107633898Y-81518336D01*
X107632188Y-81520605D01*
X107312024Y-81887685D01*
X106953734Y-82197269D01*
X106563831Y-82448898D01*
X106148829Y-82642112D01*
X105715243Y-82776453D01*
X105269587Y-82851462D01*
X104818374Y-82866677D01*
X104368119Y-82821641D01*
X103925337Y-82715894D01*
X103496540Y-82548977D01*
X103088244Y-82320430D01*
X102706962Y-82029793D01*
X102546539Y-81879232D01*
X102225566Y-81509382D01*
X101966762Y-81108117D01*
X101770488Y-80682057D01*
X101637108Y-80237826D01*
X101566986Y-79782044D01*
X101560485Y-79321336D01*
X101617969Y-78862321D01*
X101739801Y-78411623D01*
X101926344Y-77975863D01*
X102177962Y-77561663D01*
X102300648Y-77398825D01*
X102630260Y-77042345D01*
X102998697Y-76743382D01*
X103399223Y-76502965D01*
X103825105Y-76322121D01*
X104269607Y-76201881D01*
X104725995Y-76143271D01*
X105187533Y-76147322D01*
X105647487Y-76215061D01*
X106099121Y-76347517D01*
X106535702Y-76545719D01*
X106808335Y-76710373D01*
X107054098Y-76894643D01*
X107297130Y-77112652D01*
X107517896Y-77345033D01*
X107696859Y-77572418D01*
X107733800Y-77627811D01*
X107816800Y-77765216D01*
X107902669Y-77919745D01*
X107983511Y-78075596D01*
X108051426Y-78216965D01*
X108098518Y-78328051D01*
X108116888Y-78393050D01*
X108116914Y-78394380D01*
X108135552Y-78443969D01*
X108174719Y-78437356D01*
X108203236Y-78393647D01*
X108265664Y-78322757D01*
X108377189Y-78272955D01*
X108516365Y-78248296D01*
X108661744Y-78252834D01*
X108779128Y-78284781D01*
X108819986Y-78295543D01*
X108837288Y-78277242D01*
X108829267Y-78221747D01*
X108794154Y-78120930D01*
X108730183Y-77966662D01*
X108689679Y-77873457D01*
X108447888Y-77405139D01*
X108149625Y-76978195D01*
X107788984Y-76584186D01*
X107784815Y-76580165D01*
X107418491Y-76257412D01*
X107050649Y-75996929D01*
X106666586Y-75789622D01*
X106251602Y-75626397D01*
X106233276Y-75620371D01*
X105695998Y-75482048D01*
X105153583Y-75415945D01*
X104607645Y-75422196D01*
X104288771Y-75459220D01*
X103773879Y-75573952D01*
X103286594Y-75751729D01*
X102831081Y-75987438D01*
X102411506Y-76275962D01*
X102032032Y-76612186D01*
X101696824Y-76990996D01*
X101410047Y-77407275D01*
X101175866Y-77855909D01*
X100998444Y-78331782D01*
X100881946Y-78829779D01*
X100830538Y-79344786D01*
X100834853Y-79701571D01*
X100899824Y-80247983D01*
X101031246Y-80769496D01*
X101230947Y-81271610D01*
X101500755Y-81759820D01*
X101538730Y-81818960D01*
X101645361Y-81961923D01*
X101794404Y-82134126D01*
X101970779Y-82320521D01*
X102159410Y-82506059D01*
X102345218Y-82675690D01*
X102513125Y-82814365D01*
X102596620Y-82874850D01*
X103066196Y-83149598D01*
X103552540Y-83357280D01*
X104050094Y-83499405D01*
X104553304Y-83577479D01*
X105056611Y-83593011D01*
X105554461Y-83547509D01*
X105554461Y-83547509D01*
G37*
X105554461Y-83547509D02*
X106041296Y-83442480D01*
X106511561Y-83279432D01*
X106959698Y-83059873D01*
X107380152Y-82785311D01*
X107767366Y-82457253D01*
X108115783Y-82077208D01*
X108419848Y-81646683D01*
X108643128Y-81234046D01*
X108713450Y-81080200D01*
X108773526Y-80939777D01*
X108815007Y-80832748D01*
X108827404Y-80793248D01*
X108840293Y-80721783D01*
X108822269Y-80704192D01*
X108784559Y-80716737D01*
X108591886Y-80767923D01*
X108415637Y-80749125D01*
X108250654Y-80659649D01*
X108228568Y-80641785D01*
X108152120Y-80586859D01*
X108118822Y-80587722D01*
X108116914Y-80599051D01*
X108098987Y-80668636D01*
X108050587Y-80784370D01*
X107979781Y-80930912D01*
X107894641Y-81092921D01*
X107803234Y-81255055D01*
X107713630Y-81401974D01*
X107633898Y-81518336D01*
X107632188Y-81520605D01*
X107312024Y-81887685D01*
X106953734Y-82197269D01*
X106563831Y-82448898D01*
X106148829Y-82642112D01*
X105715243Y-82776453D01*
X105269587Y-82851462D01*
X104818374Y-82866677D01*
X104368119Y-82821641D01*
X103925337Y-82715894D01*
X103496540Y-82548977D01*
X103088244Y-82320430D01*
X102706962Y-82029793D01*
X102546539Y-81879232D01*
X102225566Y-81509382D01*
X101966762Y-81108117D01*
X101770488Y-80682057D01*
X101637108Y-80237826D01*
X101566986Y-79782044D01*
X101560485Y-79321336D01*
X101617969Y-78862321D01*
X101739801Y-78411623D01*
X101926344Y-77975863D01*
X102177962Y-77561663D01*
X102300648Y-77398825D01*
X102630260Y-77042345D01*
X102998697Y-76743382D01*
X103399223Y-76502965D01*
X103825105Y-76322121D01*
X104269607Y-76201881D01*
X104725995Y-76143271D01*
X105187533Y-76147322D01*
X105647487Y-76215061D01*
X106099121Y-76347517D01*
X106535702Y-76545719D01*
X106808335Y-76710373D01*
X107054098Y-76894643D01*
X107297130Y-77112652D01*
X107517896Y-77345033D01*
X107696859Y-77572418D01*
X107733800Y-77627811D01*
X107816800Y-77765216D01*
X107902669Y-77919745D01*
X107983511Y-78075596D01*
X108051426Y-78216965D01*
X108098518Y-78328051D01*
X108116888Y-78393050D01*
X108116914Y-78394380D01*
X108135552Y-78443969D01*
X108174719Y-78437356D01*
X108203236Y-78393647D01*
X108265664Y-78322757D01*
X108377189Y-78272955D01*
X108516365Y-78248296D01*
X108661744Y-78252834D01*
X108779128Y-78284781D01*
X108819986Y-78295543D01*
X108837288Y-78277242D01*
X108829267Y-78221747D01*
X108794154Y-78120930D01*
X108730183Y-77966662D01*
X108689679Y-77873457D01*
X108447888Y-77405139D01*
X108149625Y-76978195D01*
X107788984Y-76584186D01*
X107784815Y-76580165D01*
X107418491Y-76257412D01*
X107050649Y-75996929D01*
X106666586Y-75789622D01*
X106251602Y-75626397D01*
X106233276Y-75620371D01*
X105695998Y-75482048D01*
X105153583Y-75415945D01*
X104607645Y-75422196D01*
X104288771Y-75459220D01*
X103773879Y-75573952D01*
X103286594Y-75751729D01*
X102831081Y-75987438D01*
X102411506Y-76275962D01*
X102032032Y-76612186D01*
X101696824Y-76990996D01*
X101410047Y-77407275D01*
X101175866Y-77855909D01*
X100998444Y-78331782D01*
X100881946Y-78829779D01*
X100830538Y-79344786D01*
X100834853Y-79701571D01*
X100899824Y-80247983D01*
X101031246Y-80769496D01*
X101230947Y-81271610D01*
X101500755Y-81759820D01*
X101538730Y-81818960D01*
X101645361Y-81961923D01*
X101794404Y-82134126D01*
X101970779Y-82320521D01*
X102159410Y-82506059D01*
X102345218Y-82675690D01*
X102513125Y-82814365D01*
X102596620Y-82874850D01*
X103066196Y-83149598D01*
X103552540Y-83357280D01*
X104050094Y-83499405D01*
X104553304Y-83577479D01*
X105056611Y-83593011D01*
X105554461Y-83547509D01*
D14*
G04 #@! TO.C,R1*
X90170000Y-60831600D02*
X90170000Y-61601600D01*
X90170000Y-68911600D02*
X90170000Y-68141600D01*
X91540000Y-61601600D02*
X91540000Y-68141600D01*
X88800000Y-61601600D02*
X91540000Y-61601600D01*
X88800000Y-68141600D02*
X88800000Y-61601600D01*
X91540000Y-68141600D02*
X88800000Y-68141600D01*
G04 #@! TO.C,D1*
X88396065Y-55055392D02*
G75*
G02X91628400Y-54898484I1672335J-1078608D01*
G01*
X88396065Y-57212608D02*
G75*
G03X91628400Y-57369516I1672335J1078608D01*
G01*
X89027270Y-55054163D02*
G75*
G02X91109361Y-55054000I1041130J-1079837D01*
G01*
X89027270Y-57213837D02*
G75*
G03X91109361Y-57214000I1041130J1079837D01*
G01*
X91628400Y-54898000D02*
X91628400Y-55054000D01*
X91628400Y-57214000D02*
X91628400Y-57370000D01*
G04 #@! TO.C,J1*
X89195600Y-77326800D02*
X90525600Y-77326800D01*
X89195600Y-75996800D02*
X89195600Y-77326800D01*
X89195600Y-74726800D02*
X91855600Y-74726800D01*
X91855600Y-74726800D02*
X91855600Y-72126800D01*
X89195600Y-74726800D02*
X89195600Y-72126800D01*
X89195600Y-72126800D02*
X91855600Y-72126800D01*
G04 #@! TO.C,F1*
X99417600Y-81580400D02*
X99417600Y-74460400D01*
X93317600Y-81580400D02*
X93317600Y-74460400D01*
G04 #@! TO.C,J2*
D16*
X101552333Y-56348380D02*
X101552333Y-57062666D01*
X101599952Y-57205523D01*
X101695190Y-57300761D01*
X101838047Y-57348380D01*
X101933285Y-57348380D01*
X101123761Y-56443619D02*
X101076142Y-56396000D01*
X100980904Y-56348380D01*
X100742809Y-56348380D01*
X100647571Y-56396000D01*
X100599952Y-56443619D01*
X100552333Y-56538857D01*
X100552333Y-56634095D01*
X100599952Y-56776952D01*
X101171380Y-57348380D01*
X100552333Y-57348380D01*
G04 #@! TO.C,D2*
X88774780Y-79907104D02*
X87774780Y-79907104D01*
X87774780Y-80145200D01*
X87822400Y-80288057D01*
X87917638Y-80383295D01*
X88012876Y-80430914D01*
X88203352Y-80478533D01*
X88346209Y-80478533D01*
X88536685Y-80430914D01*
X88631923Y-80383295D01*
X88727161Y-80288057D01*
X88774780Y-80145200D01*
X88774780Y-79907104D01*
X87870019Y-80859485D02*
X87822400Y-80907104D01*
X87774780Y-81002342D01*
X87774780Y-81240438D01*
X87822400Y-81335676D01*
X87870019Y-81383295D01*
X87965257Y-81430914D01*
X88060495Y-81430914D01*
X88203352Y-81383295D01*
X88774780Y-80811866D01*
X88774780Y-81430914D01*
G04 #@! TO.C,R7*
X101004666Y-63190380D02*
X101338000Y-62714190D01*
X101576095Y-63190380D02*
X101576095Y-62190380D01*
X101195142Y-62190380D01*
X101099904Y-62238000D01*
X101052285Y-62285619D01*
X101004666Y-62380857D01*
X101004666Y-62523714D01*
X101052285Y-62618952D01*
X101099904Y-62666571D01*
X101195142Y-62714190D01*
X101576095Y-62714190D01*
X100671333Y-62190380D02*
X100004666Y-62190380D01*
X100433238Y-63190380D01*
G04 #@! TO.C,R5*
X95670666Y-67000380D02*
X96004000Y-66524190D01*
X96242095Y-67000380D02*
X96242095Y-66000380D01*
X95861142Y-66000380D01*
X95765904Y-66048000D01*
X95718285Y-66095619D01*
X95670666Y-66190857D01*
X95670666Y-66333714D01*
X95718285Y-66428952D01*
X95765904Y-66476571D01*
X95861142Y-66524190D01*
X96242095Y-66524190D01*
X94765904Y-66000380D02*
X95242095Y-66000380D01*
X95289714Y-66476571D01*
X95242095Y-66428952D01*
X95146857Y-66381333D01*
X94908761Y-66381333D01*
X94813523Y-66428952D01*
X94765904Y-66476571D01*
X94718285Y-66571809D01*
X94718285Y-66809904D01*
X94765904Y-66905142D01*
X94813523Y-66952761D01*
X94908761Y-67000380D01*
X95146857Y-67000380D01*
X95242095Y-66952761D01*
X95289714Y-66905142D01*
G04 #@! TO.C,R6*
X106846666Y-66746380D02*
X107180000Y-66270190D01*
X107418095Y-66746380D02*
X107418095Y-65746380D01*
X107037142Y-65746380D01*
X106941904Y-65794000D01*
X106894285Y-65841619D01*
X106846666Y-65936857D01*
X106846666Y-66079714D01*
X106894285Y-66174952D01*
X106941904Y-66222571D01*
X107037142Y-66270190D01*
X107418095Y-66270190D01*
X105989523Y-65746380D02*
X106180000Y-65746380D01*
X106275238Y-65794000D01*
X106322857Y-65841619D01*
X106418095Y-65984476D01*
X106465714Y-66174952D01*
X106465714Y-66555904D01*
X106418095Y-66651142D01*
X106370476Y-66698761D01*
X106275238Y-66746380D01*
X106084761Y-66746380D01*
X105989523Y-66698761D01*
X105941904Y-66651142D01*
X105894285Y-66555904D01*
X105894285Y-66317809D01*
X105941904Y-66222571D01*
X105989523Y-66174952D01*
X106084761Y-66127333D01*
X106275238Y-66127333D01*
X106370476Y-66174952D01*
X106418095Y-66222571D01*
X106465714Y-66317809D01*
G04 #@! TO.C,R4*
X106846666Y-69032380D02*
X107180000Y-68556190D01*
X107418095Y-69032380D02*
X107418095Y-68032380D01*
X107037142Y-68032380D01*
X106941904Y-68080000D01*
X106894285Y-68127619D01*
X106846666Y-68222857D01*
X106846666Y-68365714D01*
X106894285Y-68460952D01*
X106941904Y-68508571D01*
X107037142Y-68556190D01*
X107418095Y-68556190D01*
X105989523Y-68365714D02*
X105989523Y-69032380D01*
X106227619Y-67984761D02*
X106465714Y-68699047D01*
X105846666Y-68699047D01*
G04 #@! TO.C,R3*
X95670666Y-69286380D02*
X96004000Y-68810190D01*
X96242095Y-69286380D02*
X96242095Y-68286380D01*
X95861142Y-68286380D01*
X95765904Y-68334000D01*
X95718285Y-68381619D01*
X95670666Y-68476857D01*
X95670666Y-68619714D01*
X95718285Y-68714952D01*
X95765904Y-68762571D01*
X95861142Y-68810190D01*
X96242095Y-68810190D01*
X95337333Y-68286380D02*
X94718285Y-68286380D01*
X95051619Y-68667333D01*
X94908761Y-68667333D01*
X94813523Y-68714952D01*
X94765904Y-68762571D01*
X94718285Y-68857809D01*
X94718285Y-69095904D01*
X94765904Y-69191142D01*
X94813523Y-69238761D01*
X94908761Y-69286380D01*
X95194476Y-69286380D01*
X95289714Y-69238761D01*
X95337333Y-69191142D01*
G04 #@! TO.C,R1*
X92992380Y-64704933D02*
X92516190Y-64371600D01*
X92992380Y-64133504D02*
X91992380Y-64133504D01*
X91992380Y-64514457D01*
X92040000Y-64609695D01*
X92087619Y-64657314D01*
X92182857Y-64704933D01*
X92325714Y-64704933D01*
X92420952Y-64657314D01*
X92468571Y-64609695D01*
X92516190Y-64514457D01*
X92516190Y-64133504D01*
X92992380Y-65657314D02*
X92992380Y-65085885D01*
X92992380Y-65371600D02*
X91992380Y-65371600D01*
X92135238Y-65276361D01*
X92230476Y-65181123D01*
X92278095Y-65085885D01*
G04 #@! TO.C,D1*
X93575095Y-59126380D02*
X93575095Y-58126380D01*
X93337000Y-58126380D01*
X93194142Y-58174000D01*
X93098904Y-58269238D01*
X93051285Y-58364476D01*
X93003666Y-58554952D01*
X93003666Y-58697809D01*
X93051285Y-58888285D01*
X93098904Y-58983523D01*
X93194142Y-59078761D01*
X93337000Y-59126380D01*
X93575095Y-59126380D01*
X92051285Y-59126380D02*
X92622714Y-59126380D01*
X92337000Y-59126380D02*
X92337000Y-58126380D01*
X92432238Y-58269238D01*
X92527476Y-58364476D01*
X92622714Y-58412095D01*
G04 #@! TO.C,J1*
X87895180Y-74749066D02*
X88609466Y-74749066D01*
X88752323Y-74701447D01*
X88847561Y-74606209D01*
X88895180Y-74463352D01*
X88895180Y-74368114D01*
X88895180Y-75749066D02*
X88895180Y-75177638D01*
X88895180Y-75463352D02*
X87895180Y-75463352D01*
X88038038Y-75368114D01*
X88133276Y-75272876D01*
X88180895Y-75177638D01*
G04 #@! TO.C,F1*
X100258571Y-77390666D02*
X100258571Y-77057333D01*
X100782380Y-77057333D02*
X99782380Y-77057333D01*
X99782380Y-77533523D01*
X100782380Y-78438285D02*
X100782380Y-77866857D01*
X100782380Y-78152571D02*
X99782380Y-78152571D01*
X99925238Y-78057333D01*
X100020476Y-77962095D01*
X100068095Y-77866857D01*
G04 #@! TD*
M02*
