G04 #@! TF.GenerationSoftware,KiCad,Pcbnew,(5.0.0-3-g5ebb6b6)*
G04 #@! TF.CreationDate,2018-09-20T14:31:04-07:00*
G04 #@! TF.ProjectId,phone_charger,70686F6E655F636861726765722E6B69,rev?*
G04 #@! TF.SameCoordinates,Original*
G04 #@! TF.FileFunction,Copper,L2,Bot,Signal*
G04 #@! TF.FilePolarity,Positive*
%FSLAX46Y46*%
G04 Gerber Fmt 4.6, Leading zero omitted, Abs format (unit mm)*
G04 Created by KiCad (PCBNEW (5.0.0-3-g5ebb6b6)) date Thursday, September 20, 2018 at 02:31:04 PM*
%MOMM*%
%LPD*%
G01*
G04 APERTURE LIST*
G04 #@! TA.AperFunction,ComponentPad*
%ADD10R,1.800000X1.800000*%
G04 #@! TD*
G04 #@! TA.AperFunction,ComponentPad*
%ADD11C,1.800000*%
G04 #@! TD*
G04 #@! TA.AperFunction,ComponentPad*
%ADD12O,1.700000X1.700000*%
G04 #@! TD*
G04 #@! TA.AperFunction,ComponentPad*
%ADD13R,1.700000X1.700000*%
G04 #@! TD*
G04 #@! TA.AperFunction,ComponentPad*
%ADD14C,1.600000*%
G04 #@! TD*
G04 #@! TA.AperFunction,ComponentPad*
%ADD15O,1.600000X1.600000*%
G04 #@! TD*
G04 #@! TA.AperFunction,SMDPad,CuDef*
%ADD16R,1.200000X0.900000*%
G04 #@! TD*
G04 #@! TA.AperFunction,ComponentPad*
%ADD17C,1.900000*%
G04 #@! TD*
G04 #@! TA.AperFunction,ComponentPad*
%ADD18C,1.840000*%
G04 #@! TD*
G04 #@! TA.AperFunction,ComponentPad*
%ADD19C,3.300000*%
G04 #@! TD*
G04 #@! TA.AperFunction,SMDPad,CuDef*
%ADD20R,5.600000X2.300000*%
G04 #@! TD*
G04 #@! TA.AperFunction,SMDPad,CuDef*
%ADD21R,1.500000X1.300000*%
G04 #@! TD*
G04 #@! TA.AperFunction,ViaPad*
%ADD22C,1.270000*%
G04 #@! TD*
G04 #@! TA.AperFunction,ViaPad*
%ADD23C,2.032000*%
G04 #@! TD*
G04 #@! TA.AperFunction,Conductor*
%ADD24C,0.381000*%
G04 #@! TD*
G04 #@! TA.AperFunction,Conductor*
%ADD25C,0.635000*%
G04 #@! TD*
G04 #@! TA.AperFunction,Conductor*
%ADD26C,0.254000*%
G04 #@! TD*
G04 #@! TA.AperFunction,Conductor*
%ADD27C,1.270000*%
G04 #@! TD*
G04 APERTURE END LIST*
D10*
G04 #@! TO.P,D1,1*
G04 #@! TO.N,EPAD*
X91338400Y-56134000D03*
D11*
G04 #@! TO.P,D1,2*
G04 #@! TO.N,Net-(D1-Pad2)*
X88798400Y-56134000D03*
G04 #@! TD*
D12*
G04 #@! TO.P,J1,2*
G04 #@! TO.N,EPAD*
X90525600Y-73456800D03*
D13*
G04 #@! TO.P,J1,1*
G04 #@! TO.N,Net-(F1-Pad2)*
X90525600Y-75996800D03*
G04 #@! TD*
D14*
G04 #@! TO.P,R1,1*
G04 #@! TO.N,VBUS*
X90170000Y-69951600D03*
D15*
G04 #@! TO.P,R1,2*
G04 #@! TO.N,Net-(D1-Pad2)*
X90170000Y-59791600D03*
G04 #@! TD*
D16*
G04 #@! TO.P,D2,1*
G04 #@! TO.N,/reg_in*
X90474800Y-79097600D03*
G04 #@! TO.P,D2,2*
G04 #@! TO.N,Net-(D2-Pad2)*
X90474800Y-82397600D03*
G04 #@! TD*
D17*
G04 #@! TO.P,J2,4*
G04 #@! TO.N,EPAD*
X104592000Y-58844000D03*
D18*
G04 #@! TO.P,J2,3*
G04 #@! TO.N,/D+*
X102092000Y-58834000D03*
G04 #@! TO.P,J2,2*
G04 #@! TO.N,/D-*
X100092000Y-58859000D03*
D17*
G04 #@! TO.P,J2,1*
G04 #@! TO.N,VBUS*
X97592000Y-58844000D03*
D19*
G04 #@! TO.P,J2,SH*
G04 #@! TO.N,EPAD*
X107662000Y-56134000D03*
X94522000Y-56134000D03*
G04 #@! TD*
D20*
G04 #@! TO.P,F1,1*
G04 #@! TO.N,Net-(D2-Pad2)*
X96367600Y-81720400D03*
G04 #@! TO.P,F1,2*
G04 #@! TO.N,Net-(F1-Pad2)*
X96367600Y-74320400D03*
G04 #@! TD*
D16*
G04 #@! TO.P,R7,1*
G04 #@! TO.N,/D-*
X99872800Y-64058800D03*
G04 #@! TO.P,R7,2*
G04 #@! TO.N,/D+*
X102072800Y-64058800D03*
G04 #@! TD*
G04 #@! TO.P,R5,1*
G04 #@! TO.N,VBUS*
X97114000Y-66395600D03*
G04 #@! TO.P,R5,2*
G04 #@! TO.N,/D+*
X99314000Y-66395600D03*
G04 #@! TD*
D21*
G04 #@! TO.P,R6,1*
G04 #@! TO.N,/D+*
X102412800Y-66344800D03*
G04 #@! TO.P,R6,2*
G04 #@! TO.N,EPAD*
X105112800Y-66344800D03*
G04 #@! TD*
G04 #@! TO.P,R4,1*
G04 #@! TO.N,/D-*
X102412800Y-68732400D03*
G04 #@! TO.P,R4,2*
G04 #@! TO.N,EPAD*
X105112800Y-68732400D03*
G04 #@! TD*
G04 #@! TO.P,R3,1*
G04 #@! TO.N,VBUS*
X96977200Y-68630800D03*
G04 #@! TO.P,R3,2*
G04 #@! TO.N,/D-*
X99677200Y-68630800D03*
G04 #@! TD*
D22*
G04 #@! TO.N,VBUS*
X93218000Y-68884800D03*
X105155996Y-83566000D03*
G04 #@! TO.N,EPAD*
X93345000Y-71882000D03*
X99187000Y-71882000D03*
X96647000Y-76835000D03*
X101219000Y-75565000D03*
X103759000Y-75565000D03*
X103759000Y-77978000D03*
D23*
G04 #@! TO.N,/reg_in*
X91694000Y-80264000D03*
D22*
G04 #@! TO.N,Net-(C2-Pad1)*
X99314000Y-77597000D03*
X108864400Y-77266800D03*
G04 #@! TD*
D24*
G04 #@! TO.N,VBUS*
X96977200Y-66532400D02*
X97114000Y-66395600D01*
X96977200Y-68630800D02*
X96977200Y-66532400D01*
D25*
X97592000Y-65917600D02*
X97114000Y-66395600D01*
X97592000Y-58844000D02*
X97592000Y-65917600D01*
X89747378Y-83566000D02*
X104257971Y-83566000D01*
X88442800Y-73660000D02*
X88442800Y-82261422D01*
X88442800Y-82261422D02*
X89747378Y-83566000D01*
X93218000Y-68884800D02*
X88442800Y-73660000D01*
X104257971Y-83566000D02*
X105155996Y-83566000D01*
D26*
G04 #@! TO.N,/D-*
X100007200Y-63924400D02*
X99872800Y-64058800D01*
X98332999Y-67386599D02*
X99577200Y-68630800D01*
X99577200Y-68630800D02*
X99677200Y-68630800D01*
X98332999Y-65448601D02*
X98332999Y-67386599D01*
X99722800Y-64058800D02*
X98332999Y-65448601D01*
X99872800Y-64058800D02*
X99722800Y-64058800D01*
X102311200Y-68630800D02*
X102412800Y-68732400D01*
X99677200Y-68630800D02*
X102311200Y-68630800D01*
X99872800Y-59078200D02*
X100092000Y-58859000D01*
X99872800Y-64058800D02*
X99872800Y-59078200D01*
G04 #@! TO.N,/D+*
X102007200Y-63993200D02*
X102072800Y-64058800D01*
X102072800Y-66004800D02*
X102412800Y-66344800D01*
X102072800Y-64058800D02*
X102072800Y-66004800D01*
X99364800Y-66344800D02*
X99314000Y-66395600D01*
X102412800Y-66344800D02*
X99364800Y-66344800D01*
X102092000Y-64039600D02*
X102072800Y-64058800D01*
X102092000Y-58834000D02*
X102092000Y-64039600D01*
D27*
G04 #@! TO.N,/reg_in*
X90527600Y-79097600D02*
X91694000Y-80264000D01*
X90474800Y-79097600D02*
X90527600Y-79097600D01*
G04 #@! TO.N,Net-(F1-Pad2)*
X94691200Y-75996800D02*
X96367600Y-74320400D01*
X90525600Y-75996800D02*
X94691200Y-75996800D01*
D25*
G04 #@! TO.N,Net-(C2-Pad1)*
X107382176Y-76682601D02*
X107966375Y-77266800D01*
X99314000Y-77597000D02*
X100228399Y-76682601D01*
X107966375Y-77266800D02*
X108864400Y-77266800D01*
X100228399Y-76682601D02*
X107382176Y-76682601D01*
D27*
G04 #@! TO.N,Net-(D2-Pad2)*
X95690400Y-82397600D02*
X90474800Y-82397600D01*
X96367600Y-81720400D02*
X95690400Y-82397600D01*
G04 #@! TD*
D26*
G04 #@! TO.N,EPAD*
G36*
X109373601Y-76103080D02*
X109117019Y-75996800D01*
X108611781Y-75996800D01*
X108209884Y-76163272D01*
X108122033Y-76075421D01*
X108068890Y-75995887D01*
X107753823Y-75785366D01*
X107475986Y-75730101D01*
X107382176Y-75711441D01*
X107288366Y-75730101D01*
X100322203Y-75730101D01*
X100228398Y-75711442D01*
X100134593Y-75730101D01*
X100134589Y-75730101D01*
X99856752Y-75785366D01*
X99541685Y-75995887D01*
X99488544Y-76075418D01*
X99236962Y-76327000D01*
X99061381Y-76327000D01*
X98594603Y-76520346D01*
X98237346Y-76877603D01*
X98044000Y-77344381D01*
X98044000Y-77849619D01*
X98237346Y-78316397D01*
X98594603Y-78673654D01*
X99061381Y-78867000D01*
X99566619Y-78867000D01*
X100033397Y-78673654D01*
X100390654Y-78316397D01*
X100584000Y-77849619D01*
X100584000Y-77674038D01*
X100622937Y-77635101D01*
X106987639Y-77635101D01*
X107226518Y-77873980D01*
X107279661Y-77953514D01*
X107594728Y-78164035D01*
X107872565Y-78219300D01*
X107966374Y-78237960D01*
X108027375Y-78225826D01*
X108145003Y-78343454D01*
X108611781Y-78536800D01*
X109117019Y-78536800D01*
X109373601Y-78430520D01*
X109373601Y-83719600D01*
X106425996Y-83719600D01*
X106425996Y-83313381D01*
X106232650Y-82846603D01*
X105875393Y-82489346D01*
X105408615Y-82296000D01*
X104903377Y-82296000D01*
X104436599Y-82489346D01*
X104312445Y-82613500D01*
X99815040Y-82613500D01*
X99815040Y-80570400D01*
X99765757Y-80322635D01*
X99625409Y-80112591D01*
X99415365Y-79972243D01*
X99167600Y-79922960D01*
X93567600Y-79922960D01*
X93345000Y-79967237D01*
X93345000Y-79935596D01*
X93093650Y-79328784D01*
X92629216Y-78864350D01*
X92022404Y-78613000D01*
X91839050Y-78613000D01*
X91684645Y-78458595D01*
X91672957Y-78399835D01*
X91532609Y-78189791D01*
X91322565Y-78049443D01*
X91211923Y-78027435D01*
X91023129Y-77901287D01*
X90652680Y-77827600D01*
X90652675Y-77827600D01*
X90527600Y-77802721D01*
X90402525Y-77827600D01*
X90349720Y-77827600D01*
X89979271Y-77901287D01*
X89812858Y-78012481D01*
X89627035Y-78049443D01*
X89416991Y-78189791D01*
X89395300Y-78222254D01*
X89395300Y-77423218D01*
X89427835Y-77444957D01*
X89675600Y-77494240D01*
X91375600Y-77494240D01*
X91623365Y-77444957D01*
X91833409Y-77304609D01*
X91858672Y-77266800D01*
X94566125Y-77266800D01*
X94691200Y-77291679D01*
X94816275Y-77266800D01*
X94816280Y-77266800D01*
X95186729Y-77193113D01*
X95606818Y-76912418D01*
X95677671Y-76806379D01*
X96366210Y-76117840D01*
X99167600Y-76117840D01*
X99415365Y-76068557D01*
X99625409Y-75928209D01*
X99765757Y-75718165D01*
X99815040Y-75470400D01*
X99815040Y-73170400D01*
X99765757Y-72922635D01*
X99625409Y-72712591D01*
X99415365Y-72572243D01*
X99167600Y-72522960D01*
X93567600Y-72522960D01*
X93319835Y-72572243D01*
X93109791Y-72712591D01*
X92969443Y-72922635D01*
X92920160Y-73170400D01*
X92920160Y-74726800D01*
X91858672Y-74726800D01*
X91833409Y-74688991D01*
X91623365Y-74548643D01*
X91375600Y-74499360D01*
X89675600Y-74499360D01*
X89427835Y-74548643D01*
X89395300Y-74570382D01*
X89395300Y-74054537D01*
X93295039Y-70154800D01*
X93470619Y-70154800D01*
X93937397Y-69961454D01*
X94294654Y-69604197D01*
X94488000Y-69137419D01*
X94488000Y-68632181D01*
X94294654Y-68165403D01*
X94110051Y-67980800D01*
X95579760Y-67980800D01*
X95579760Y-69280800D01*
X95629043Y-69528565D01*
X95769391Y-69738609D01*
X95979435Y-69878957D01*
X96227200Y-69928240D01*
X97727200Y-69928240D01*
X97974965Y-69878957D01*
X98185009Y-69738609D01*
X98325357Y-69528565D01*
X98327200Y-69519300D01*
X98329043Y-69528565D01*
X98469391Y-69738609D01*
X98679435Y-69878957D01*
X98927200Y-69928240D01*
X100427200Y-69928240D01*
X100674965Y-69878957D01*
X100885009Y-69738609D01*
X101025357Y-69528565D01*
X101034895Y-69480612D01*
X101064643Y-69630165D01*
X101204991Y-69840209D01*
X101415035Y-69980557D01*
X101662800Y-70029840D01*
X103162800Y-70029840D01*
X103410565Y-69980557D01*
X103620609Y-69840209D01*
X103760957Y-69630165D01*
X103810240Y-69382400D01*
X103810240Y-68082400D01*
X103760957Y-67834635D01*
X103620609Y-67624591D01*
X103491915Y-67538600D01*
X103620609Y-67452609D01*
X103760957Y-67242565D01*
X103810240Y-66994800D01*
X103810240Y-65694800D01*
X103760957Y-65447035D01*
X103620609Y-65236991D01*
X103410565Y-65096643D01*
X103162800Y-65047360D01*
X103009758Y-65047360D01*
X103130609Y-64966609D01*
X103270957Y-64756565D01*
X103320240Y-64508800D01*
X103320240Y-63608800D01*
X103270957Y-63361035D01*
X103130609Y-63150991D01*
X102920565Y-63010643D01*
X102854000Y-62997403D01*
X102854000Y-60201489D01*
X102972837Y-60152265D01*
X103410265Y-59714837D01*
X103647000Y-59143309D01*
X103647000Y-58524691D01*
X103410265Y-57953163D01*
X102972837Y-57515735D01*
X102401309Y-57279000D01*
X101782691Y-57279000D01*
X101211163Y-57515735D01*
X101079500Y-57647398D01*
X100972837Y-57540735D01*
X100401309Y-57304000D01*
X99782691Y-57304000D01*
X99211163Y-57540735D01*
X98870713Y-57881185D01*
X98489830Y-57500302D01*
X97907276Y-57259000D01*
X97276724Y-57259000D01*
X96694170Y-57500302D01*
X96248302Y-57946170D01*
X96007000Y-58528724D01*
X96007000Y-59159276D01*
X96248302Y-59741830D01*
X96639500Y-60133028D01*
X96639501Y-65298160D01*
X96514000Y-65298160D01*
X96266235Y-65347443D01*
X96056191Y-65487791D01*
X95915843Y-65697835D01*
X95866560Y-65945600D01*
X95866560Y-66845600D01*
X95915843Y-67093365D01*
X96056191Y-67303409D01*
X96129962Y-67352702D01*
X95979435Y-67382643D01*
X95769391Y-67522991D01*
X95629043Y-67733035D01*
X95579760Y-67980800D01*
X94110051Y-67980800D01*
X93937397Y-67808146D01*
X93470619Y-67614800D01*
X92965381Y-67614800D01*
X92498603Y-67808146D01*
X92141346Y-68165403D01*
X91948000Y-68632181D01*
X91948000Y-68807761D01*
X91454043Y-69301719D01*
X91386534Y-69138738D01*
X90982862Y-68735066D01*
X90455439Y-68516600D01*
X89884561Y-68516600D01*
X89357138Y-68735066D01*
X88953466Y-69138738D01*
X88735000Y-69666161D01*
X88735000Y-70237039D01*
X88953466Y-70764462D01*
X89357138Y-71168134D01*
X89520119Y-71235643D01*
X88238400Y-72517363D01*
X88238400Y-59791600D01*
X88706887Y-59791600D01*
X88818260Y-60351509D01*
X89135423Y-60826177D01*
X89610091Y-61143340D01*
X90028667Y-61226600D01*
X90311333Y-61226600D01*
X90729909Y-61143340D01*
X91204577Y-60826177D01*
X91521740Y-60351509D01*
X91633113Y-59791600D01*
X91521740Y-59231691D01*
X91204577Y-58757023D01*
X90729909Y-58439860D01*
X90311333Y-58356600D01*
X90028667Y-58356600D01*
X89610091Y-58439860D01*
X89135423Y-58757023D01*
X88818260Y-59231691D01*
X88706887Y-59791600D01*
X88238400Y-59791600D01*
X88238400Y-57563512D01*
X88493070Y-57669000D01*
X89103730Y-57669000D01*
X89667907Y-57435310D01*
X90099710Y-57003507D01*
X90333400Y-56439330D01*
X90333400Y-55828670D01*
X90099710Y-55264493D01*
X89667907Y-54832690D01*
X89103730Y-54599000D01*
X88493070Y-54599000D01*
X88238400Y-54704488D01*
X88238400Y-54354800D01*
X109373600Y-54354800D01*
X109373601Y-76103080D01*
X109373601Y-76103080D01*
G37*
X109373601Y-76103080D02*
X109117019Y-75996800D01*
X108611781Y-75996800D01*
X108209884Y-76163272D01*
X108122033Y-76075421D01*
X108068890Y-75995887D01*
X107753823Y-75785366D01*
X107475986Y-75730101D01*
X107382176Y-75711441D01*
X107288366Y-75730101D01*
X100322203Y-75730101D01*
X100228398Y-75711442D01*
X100134593Y-75730101D01*
X100134589Y-75730101D01*
X99856752Y-75785366D01*
X99541685Y-75995887D01*
X99488544Y-76075418D01*
X99236962Y-76327000D01*
X99061381Y-76327000D01*
X98594603Y-76520346D01*
X98237346Y-76877603D01*
X98044000Y-77344381D01*
X98044000Y-77849619D01*
X98237346Y-78316397D01*
X98594603Y-78673654D01*
X99061381Y-78867000D01*
X99566619Y-78867000D01*
X100033397Y-78673654D01*
X100390654Y-78316397D01*
X100584000Y-77849619D01*
X100584000Y-77674038D01*
X100622937Y-77635101D01*
X106987639Y-77635101D01*
X107226518Y-77873980D01*
X107279661Y-77953514D01*
X107594728Y-78164035D01*
X107872565Y-78219300D01*
X107966374Y-78237960D01*
X108027375Y-78225826D01*
X108145003Y-78343454D01*
X108611781Y-78536800D01*
X109117019Y-78536800D01*
X109373601Y-78430520D01*
X109373601Y-83719600D01*
X106425996Y-83719600D01*
X106425996Y-83313381D01*
X106232650Y-82846603D01*
X105875393Y-82489346D01*
X105408615Y-82296000D01*
X104903377Y-82296000D01*
X104436599Y-82489346D01*
X104312445Y-82613500D01*
X99815040Y-82613500D01*
X99815040Y-80570400D01*
X99765757Y-80322635D01*
X99625409Y-80112591D01*
X99415365Y-79972243D01*
X99167600Y-79922960D01*
X93567600Y-79922960D01*
X93345000Y-79967237D01*
X93345000Y-79935596D01*
X93093650Y-79328784D01*
X92629216Y-78864350D01*
X92022404Y-78613000D01*
X91839050Y-78613000D01*
X91684645Y-78458595D01*
X91672957Y-78399835D01*
X91532609Y-78189791D01*
X91322565Y-78049443D01*
X91211923Y-78027435D01*
X91023129Y-77901287D01*
X90652680Y-77827600D01*
X90652675Y-77827600D01*
X90527600Y-77802721D01*
X90402525Y-77827600D01*
X90349720Y-77827600D01*
X89979271Y-77901287D01*
X89812858Y-78012481D01*
X89627035Y-78049443D01*
X89416991Y-78189791D01*
X89395300Y-78222254D01*
X89395300Y-77423218D01*
X89427835Y-77444957D01*
X89675600Y-77494240D01*
X91375600Y-77494240D01*
X91623365Y-77444957D01*
X91833409Y-77304609D01*
X91858672Y-77266800D01*
X94566125Y-77266800D01*
X94691200Y-77291679D01*
X94816275Y-77266800D01*
X94816280Y-77266800D01*
X95186729Y-77193113D01*
X95606818Y-76912418D01*
X95677671Y-76806379D01*
X96366210Y-76117840D01*
X99167600Y-76117840D01*
X99415365Y-76068557D01*
X99625409Y-75928209D01*
X99765757Y-75718165D01*
X99815040Y-75470400D01*
X99815040Y-73170400D01*
X99765757Y-72922635D01*
X99625409Y-72712591D01*
X99415365Y-72572243D01*
X99167600Y-72522960D01*
X93567600Y-72522960D01*
X93319835Y-72572243D01*
X93109791Y-72712591D01*
X92969443Y-72922635D01*
X92920160Y-73170400D01*
X92920160Y-74726800D01*
X91858672Y-74726800D01*
X91833409Y-74688991D01*
X91623365Y-74548643D01*
X91375600Y-74499360D01*
X89675600Y-74499360D01*
X89427835Y-74548643D01*
X89395300Y-74570382D01*
X89395300Y-74054537D01*
X93295039Y-70154800D01*
X93470619Y-70154800D01*
X93937397Y-69961454D01*
X94294654Y-69604197D01*
X94488000Y-69137419D01*
X94488000Y-68632181D01*
X94294654Y-68165403D01*
X94110051Y-67980800D01*
X95579760Y-67980800D01*
X95579760Y-69280800D01*
X95629043Y-69528565D01*
X95769391Y-69738609D01*
X95979435Y-69878957D01*
X96227200Y-69928240D01*
X97727200Y-69928240D01*
X97974965Y-69878957D01*
X98185009Y-69738609D01*
X98325357Y-69528565D01*
X98327200Y-69519300D01*
X98329043Y-69528565D01*
X98469391Y-69738609D01*
X98679435Y-69878957D01*
X98927200Y-69928240D01*
X100427200Y-69928240D01*
X100674965Y-69878957D01*
X100885009Y-69738609D01*
X101025357Y-69528565D01*
X101034895Y-69480612D01*
X101064643Y-69630165D01*
X101204991Y-69840209D01*
X101415035Y-69980557D01*
X101662800Y-70029840D01*
X103162800Y-70029840D01*
X103410565Y-69980557D01*
X103620609Y-69840209D01*
X103760957Y-69630165D01*
X103810240Y-69382400D01*
X103810240Y-68082400D01*
X103760957Y-67834635D01*
X103620609Y-67624591D01*
X103491915Y-67538600D01*
X103620609Y-67452609D01*
X103760957Y-67242565D01*
X103810240Y-66994800D01*
X103810240Y-65694800D01*
X103760957Y-65447035D01*
X103620609Y-65236991D01*
X103410565Y-65096643D01*
X103162800Y-65047360D01*
X103009758Y-65047360D01*
X103130609Y-64966609D01*
X103270957Y-64756565D01*
X103320240Y-64508800D01*
X103320240Y-63608800D01*
X103270957Y-63361035D01*
X103130609Y-63150991D01*
X102920565Y-63010643D01*
X102854000Y-62997403D01*
X102854000Y-60201489D01*
X102972837Y-60152265D01*
X103410265Y-59714837D01*
X103647000Y-59143309D01*
X103647000Y-58524691D01*
X103410265Y-57953163D01*
X102972837Y-57515735D01*
X102401309Y-57279000D01*
X101782691Y-57279000D01*
X101211163Y-57515735D01*
X101079500Y-57647398D01*
X100972837Y-57540735D01*
X100401309Y-57304000D01*
X99782691Y-57304000D01*
X99211163Y-57540735D01*
X98870713Y-57881185D01*
X98489830Y-57500302D01*
X97907276Y-57259000D01*
X97276724Y-57259000D01*
X96694170Y-57500302D01*
X96248302Y-57946170D01*
X96007000Y-58528724D01*
X96007000Y-59159276D01*
X96248302Y-59741830D01*
X96639500Y-60133028D01*
X96639501Y-65298160D01*
X96514000Y-65298160D01*
X96266235Y-65347443D01*
X96056191Y-65487791D01*
X95915843Y-65697835D01*
X95866560Y-65945600D01*
X95866560Y-66845600D01*
X95915843Y-67093365D01*
X96056191Y-67303409D01*
X96129962Y-67352702D01*
X95979435Y-67382643D01*
X95769391Y-67522991D01*
X95629043Y-67733035D01*
X95579760Y-67980800D01*
X94110051Y-67980800D01*
X93937397Y-67808146D01*
X93470619Y-67614800D01*
X92965381Y-67614800D01*
X92498603Y-67808146D01*
X92141346Y-68165403D01*
X91948000Y-68632181D01*
X91948000Y-68807761D01*
X91454043Y-69301719D01*
X91386534Y-69138738D01*
X90982862Y-68735066D01*
X90455439Y-68516600D01*
X89884561Y-68516600D01*
X89357138Y-68735066D01*
X88953466Y-69138738D01*
X88735000Y-69666161D01*
X88735000Y-70237039D01*
X88953466Y-70764462D01*
X89357138Y-71168134D01*
X89520119Y-71235643D01*
X88238400Y-72517363D01*
X88238400Y-59791600D01*
X88706887Y-59791600D01*
X88818260Y-60351509D01*
X89135423Y-60826177D01*
X89610091Y-61143340D01*
X90028667Y-61226600D01*
X90311333Y-61226600D01*
X90729909Y-61143340D01*
X91204577Y-60826177D01*
X91521740Y-60351509D01*
X91633113Y-59791600D01*
X91521740Y-59231691D01*
X91204577Y-58757023D01*
X90729909Y-58439860D01*
X90311333Y-58356600D01*
X90028667Y-58356600D01*
X89610091Y-58439860D01*
X89135423Y-58757023D01*
X88818260Y-59231691D01*
X88706887Y-59791600D01*
X88238400Y-59791600D01*
X88238400Y-57563512D01*
X88493070Y-57669000D01*
X89103730Y-57669000D01*
X89667907Y-57435310D01*
X90099710Y-57003507D01*
X90333400Y-56439330D01*
X90333400Y-55828670D01*
X90099710Y-55264493D01*
X89667907Y-54832690D01*
X89103730Y-54599000D01*
X88493070Y-54599000D01*
X88238400Y-54704488D01*
X88238400Y-54354800D01*
X109373600Y-54354800D01*
X109373601Y-76103080D01*
G04 #@! TD*
M02*
