G04 #@! TF.GenerationSoftware,KiCad,Pcbnew,(5.0.0-3-g5ebb6b6)*
G04 #@! TF.CreationDate,2018-09-18T17:23:57-07:00*
G04 #@! TF.ProjectId,phone_charger,70686F6E655F636861726765722E6B69,rev?*
G04 #@! TF.SameCoordinates,Original*
G04 #@! TF.FileFunction,Legend,Top*
G04 #@! TF.FilePolarity,Positive*
%FSLAX46Y46*%
G04 Gerber Fmt 4.6, Leading zero omitted, Abs format (unit mm)*
G04 Created by KiCad (PCBNEW (5.0.0-3-g5ebb6b6)) date Tuesday, September 18, 2018 at 05:23:57 PM*
%MOMM*%
%LPD*%
G01*
G04 APERTURE LIST*
%ADD10C,0.580000*%
%ADD11C,0.150000*%
%ADD12C,0.120000*%
G04 APERTURE END LIST*
D10*
X109626400Y-70053200D02*
G75*
G03X109626400Y-70053200I-152400J0D01*
G01*
X99771200Y-76962000D02*
G75*
G03X99771200Y-76962000I-152400J0D01*
G01*
D11*
G04 #@! TO.C,U1*
X101788001Y-77517001D02*
X101788001Y-77567001D01*
X105938001Y-77517001D02*
X105938001Y-77662001D01*
X105938001Y-82667001D02*
X105938001Y-82522001D01*
X101788001Y-82667001D02*
X101788001Y-82522001D01*
X101788001Y-77517001D02*
X105938001Y-77517001D01*
X101788001Y-82667001D02*
X105938001Y-82667001D01*
X101788001Y-77567001D02*
X100388001Y-77567001D01*
D12*
G04 #@! TO.C,C2*
X107980000Y-77003200D02*
X107280000Y-77003200D01*
X107280000Y-75803200D02*
X107980000Y-75803200D01*
G04 #@! TO.C,C4*
X98132000Y-70787200D02*
X98132000Y-69787200D01*
X96432000Y-69787200D02*
X96432000Y-70787200D01*
G04 #@! TO.C,C3*
X96049200Y-70787200D02*
X96049200Y-69787200D01*
X94349200Y-69787200D02*
X94349200Y-70787200D01*
G04 #@! TO.C,C1*
X92960000Y-77352400D02*
X92960000Y-79352400D01*
X95000000Y-79352400D02*
X95000000Y-77352400D01*
G04 #@! TO.C,D3*
X109502000Y-75048000D02*
X109502000Y-70748000D01*
X109502000Y-70748000D02*
X102202000Y-70748000D01*
X109502000Y-75048000D02*
X102202000Y-75048000D01*
G04 #@! TO.C,R2*
X97952000Y-83230000D02*
X96952000Y-83230000D01*
X96952000Y-81870000D02*
X97952000Y-81870000D01*
G04 #@! TO.C,U1*
D11*
X103101096Y-76044381D02*
X103101096Y-76853905D01*
X103148715Y-76949143D01*
X103196334Y-76996762D01*
X103291572Y-77044381D01*
X103482048Y-77044381D01*
X103577286Y-76996762D01*
X103624905Y-76949143D01*
X103672524Y-76853905D01*
X103672524Y-76044381D01*
X104672524Y-77044381D02*
X104101096Y-77044381D01*
X104386810Y-77044381D02*
X104386810Y-76044381D01*
X104291572Y-76187239D01*
X104196334Y-76282477D01*
X104101096Y-76330096D01*
G04 #@! TO.C,C2*
X108646933Y-79401942D02*
X108599314Y-79449561D01*
X108456457Y-79497180D01*
X108361219Y-79497180D01*
X108218361Y-79449561D01*
X108123123Y-79354323D01*
X108075504Y-79259085D01*
X108027885Y-79068609D01*
X108027885Y-78925752D01*
X108075504Y-78735276D01*
X108123123Y-78640038D01*
X108218361Y-78544800D01*
X108361219Y-78497180D01*
X108456457Y-78497180D01*
X108599314Y-78544800D01*
X108646933Y-78592419D01*
X109027885Y-78592419D02*
X109075504Y-78544800D01*
X109170742Y-78497180D01*
X109408838Y-78497180D01*
X109504076Y-78544800D01*
X109551695Y-78592419D01*
X109599314Y-78687657D01*
X109599314Y-78782895D01*
X109551695Y-78925752D01*
X108980266Y-79497180D01*
X109599314Y-79497180D01*
G04 #@! TO.C,C4*
X97537542Y-73928266D02*
X97585161Y-73975885D01*
X97632780Y-74118742D01*
X97632780Y-74213980D01*
X97585161Y-74356838D01*
X97489923Y-74452076D01*
X97394685Y-74499695D01*
X97204209Y-74547314D01*
X97061352Y-74547314D01*
X96870876Y-74499695D01*
X96775638Y-74452076D01*
X96680400Y-74356838D01*
X96632780Y-74213980D01*
X96632780Y-74118742D01*
X96680400Y-73975885D01*
X96728019Y-73928266D01*
X96966114Y-73071123D02*
X97632780Y-73071123D01*
X96585161Y-73309219D02*
X97299447Y-73547314D01*
X97299447Y-72928266D01*
G04 #@! TO.C,C3*
X95911942Y-73877466D02*
X95959561Y-73925085D01*
X96007180Y-74067942D01*
X96007180Y-74163180D01*
X95959561Y-74306038D01*
X95864323Y-74401276D01*
X95769085Y-74448895D01*
X95578609Y-74496514D01*
X95435752Y-74496514D01*
X95245276Y-74448895D01*
X95150038Y-74401276D01*
X95054800Y-74306038D01*
X95007180Y-74163180D01*
X95007180Y-74067942D01*
X95054800Y-73925085D01*
X95102419Y-73877466D01*
X95007180Y-73544133D02*
X95007180Y-72925085D01*
X95388133Y-73258419D01*
X95388133Y-73115561D01*
X95435752Y-73020323D01*
X95483371Y-72972704D01*
X95578609Y-72925085D01*
X95816704Y-72925085D01*
X95911942Y-72972704D01*
X95959561Y-73020323D01*
X96007180Y-73115561D01*
X96007180Y-73401276D01*
X95959561Y-73496514D01*
X95911942Y-73544133D01*
G04 #@! TO.C,C1*
X92587142Y-78519066D02*
X92634761Y-78566685D01*
X92682380Y-78709542D01*
X92682380Y-78804780D01*
X92634761Y-78947638D01*
X92539523Y-79042876D01*
X92444285Y-79090495D01*
X92253809Y-79138114D01*
X92110952Y-79138114D01*
X91920476Y-79090495D01*
X91825238Y-79042876D01*
X91730000Y-78947638D01*
X91682380Y-78804780D01*
X91682380Y-78709542D01*
X91730000Y-78566685D01*
X91777619Y-78519066D01*
X92682380Y-77566685D02*
X92682380Y-78138114D01*
X92682380Y-77852400D02*
X91682380Y-77852400D01*
X91825238Y-77947638D01*
X91920476Y-78042876D01*
X91968095Y-78138114D01*
G04 #@! TO.C,D3*
X98525104Y-73451980D02*
X98525104Y-72451980D01*
X98763200Y-72451980D01*
X98906057Y-72499600D01*
X99001295Y-72594838D01*
X99048914Y-72690076D01*
X99096533Y-72880552D01*
X99096533Y-73023409D01*
X99048914Y-73213885D01*
X99001295Y-73309123D01*
X98906057Y-73404361D01*
X98763200Y-73451980D01*
X98525104Y-73451980D01*
X99429866Y-72451980D02*
X100048914Y-72451980D01*
X99715580Y-72832933D01*
X99858438Y-72832933D01*
X99953676Y-72880552D01*
X100001295Y-72928171D01*
X100048914Y-73023409D01*
X100048914Y-73261504D01*
X100001295Y-73356742D01*
X99953676Y-73404361D01*
X99858438Y-73451980D01*
X99572723Y-73451980D01*
X99477485Y-73404361D01*
X99429866Y-73356742D01*
G04 #@! TO.C,R2*
X97285333Y-81552380D02*
X96952000Y-81076190D01*
X96713904Y-81552380D02*
X96713904Y-80552380D01*
X97094857Y-80552380D01*
X97190095Y-80600000D01*
X97237714Y-80647619D01*
X97285333Y-80742857D01*
X97285333Y-80885714D01*
X97237714Y-80980952D01*
X97190095Y-81028571D01*
X97094857Y-81076190D01*
X96713904Y-81076190D01*
X97666285Y-80647619D02*
X97713904Y-80600000D01*
X97809142Y-80552380D01*
X98047238Y-80552380D01*
X98142476Y-80600000D01*
X98190095Y-80647619D01*
X98237714Y-80742857D01*
X98237714Y-80838095D01*
X98190095Y-80980952D01*
X97618666Y-81552380D01*
X98237714Y-81552380D01*
G04 #@! TO.C,L1*
X97318533Y-65577980D02*
X96842342Y-65577980D01*
X96842342Y-64577980D01*
X98175676Y-65577980D02*
X97604247Y-65577980D01*
X97889961Y-65577980D02*
X97889961Y-64577980D01*
X97794723Y-64720838D01*
X97699485Y-64816076D01*
X97604247Y-64863695D01*
G04 #@! TD*
M02*
