G04 #@! TF.GenerationSoftware,KiCad,Pcbnew,(5.0.0-3-g5ebb6b6)*
G04 #@! TF.CreationDate,2019-01-13T20:11:43-05:00*
G04 #@! TF.ProjectId,phone_charger,70686F6E655F636861726765722E6B69,2*
G04 #@! TF.SameCoordinates,Original*
G04 #@! TF.FileFunction,Copper,L2,Bot,Signal*
G04 #@! TF.FilePolarity,Positive*
%FSLAX46Y46*%
G04 Gerber Fmt 4.6, Leading zero omitted, Abs format (unit mm)*
G04 Created by KiCad (PCBNEW (5.0.0-3-g5ebb6b6)) date Sunday, January 13, 2019 at 08:11:43 PM*
%MOMM*%
%LPD*%
G01*
G04 APERTURE LIST*
G04 #@! TA.AperFunction,ComponentPad*
%ADD10C,3.300000*%
G04 #@! TD*
G04 #@! TA.AperFunction,ComponentPad*
%ADD11C,1.900000*%
G04 #@! TD*
G04 #@! TA.AperFunction,ComponentPad*
%ADD12C,1.840000*%
G04 #@! TD*
G04 #@! TA.AperFunction,SMDPad,CuDef*
%ADD13R,1.800000X1.800000*%
G04 #@! TD*
G04 #@! TA.AperFunction,Conductor*
%ADD14C,0.100000*%
G04 #@! TD*
G04 #@! TA.AperFunction,SMDPad,CuDef*
%ADD15C,0.950000*%
G04 #@! TD*
G04 #@! TA.AperFunction,SMDPad,CuDef*
%ADD16C,1.150000*%
G04 #@! TD*
G04 #@! TA.AperFunction,ComponentPad*
%ADD17O,1.600000X1.600000*%
G04 #@! TD*
G04 #@! TA.AperFunction,ComponentPad*
%ADD18C,1.600000*%
G04 #@! TD*
G04 #@! TA.AperFunction,ComponentPad*
%ADD19R,1.800000X1.800000*%
G04 #@! TD*
G04 #@! TA.AperFunction,ComponentPad*
%ADD20C,1.800000*%
G04 #@! TD*
G04 #@! TA.AperFunction,ComponentPad*
%ADD21O,1.700000X1.700000*%
G04 #@! TD*
G04 #@! TA.AperFunction,ComponentPad*
%ADD22R,1.700000X1.700000*%
G04 #@! TD*
G04 #@! TA.AperFunction,SMDPad,CuDef*
%ADD23R,5.600000X2.300000*%
G04 #@! TD*
G04 #@! TA.AperFunction,ViaPad*
%ADD24C,1.270000*%
G04 #@! TD*
G04 #@! TA.AperFunction,ViaPad*
%ADD25C,2.032000*%
G04 #@! TD*
G04 #@! TA.AperFunction,Conductor*
%ADD26C,0.381000*%
G04 #@! TD*
G04 #@! TA.AperFunction,Conductor*
%ADD27C,0.635000*%
G04 #@! TD*
G04 #@! TA.AperFunction,Conductor*
%ADD28C,0.254000*%
G04 #@! TD*
G04 #@! TA.AperFunction,Conductor*
%ADD29C,1.270000*%
G04 #@! TD*
G04 APERTURE END LIST*
D10*
G04 #@! TO.P,J2,SH*
G04 #@! TO.N,EPAD*
X94522000Y-56134000D03*
X107662000Y-56134000D03*
D11*
G04 #@! TO.P,J2,1*
G04 #@! TO.N,VBUS*
X97592000Y-58844000D03*
D12*
G04 #@! TO.P,J2,2*
G04 #@! TO.N,/D-*
X100092000Y-58859000D03*
G04 #@! TO.P,J2,3*
G04 #@! TO.N,/D+*
X102092000Y-58834000D03*
D11*
G04 #@! TO.P,J2,4*
G04 #@! TO.N,EPAD*
X104592000Y-58844000D03*
G04 #@! TD*
D13*
G04 #@! TO.P,D2,2*
G04 #@! TO.N,Net-(D2-Pad2)*
X90322400Y-82245200D03*
G04 #@! TO.P,D2,1*
G04 #@! TO.N,/reg_in*
X90322400Y-79045200D03*
G04 #@! TD*
D14*
G04 #@! TO.N,/D+*
G04 #@! TO.C,R7*
G36*
X102158579Y-63584944D02*
X102181634Y-63588363D01*
X102204243Y-63594027D01*
X102226187Y-63601879D01*
X102247257Y-63611844D01*
X102267248Y-63623826D01*
X102285968Y-63637710D01*
X102303238Y-63653362D01*
X102318890Y-63670632D01*
X102332774Y-63689352D01*
X102344756Y-63709343D01*
X102354721Y-63730413D01*
X102362573Y-63752357D01*
X102368237Y-63774966D01*
X102371656Y-63798021D01*
X102372800Y-63821300D01*
X102372800Y-64296300D01*
X102371656Y-64319579D01*
X102368237Y-64342634D01*
X102362573Y-64365243D01*
X102354721Y-64387187D01*
X102344756Y-64408257D01*
X102332774Y-64428248D01*
X102318890Y-64446968D01*
X102303238Y-64464238D01*
X102285968Y-64479890D01*
X102267248Y-64493774D01*
X102247257Y-64505756D01*
X102226187Y-64515721D01*
X102204243Y-64523573D01*
X102181634Y-64529237D01*
X102158579Y-64532656D01*
X102135300Y-64533800D01*
X101560300Y-64533800D01*
X101537021Y-64532656D01*
X101513966Y-64529237D01*
X101491357Y-64523573D01*
X101469413Y-64515721D01*
X101448343Y-64505756D01*
X101428352Y-64493774D01*
X101409632Y-64479890D01*
X101392362Y-64464238D01*
X101376710Y-64446968D01*
X101362826Y-64428248D01*
X101350844Y-64408257D01*
X101340879Y-64387187D01*
X101333027Y-64365243D01*
X101327363Y-64342634D01*
X101323944Y-64319579D01*
X101322800Y-64296300D01*
X101322800Y-63821300D01*
X101323944Y-63798021D01*
X101327363Y-63774966D01*
X101333027Y-63752357D01*
X101340879Y-63730413D01*
X101350844Y-63709343D01*
X101362826Y-63689352D01*
X101376710Y-63670632D01*
X101392362Y-63653362D01*
X101409632Y-63637710D01*
X101428352Y-63623826D01*
X101448343Y-63611844D01*
X101469413Y-63601879D01*
X101491357Y-63594027D01*
X101513966Y-63588363D01*
X101537021Y-63584944D01*
X101560300Y-63583800D01*
X102135300Y-63583800D01*
X102158579Y-63584944D01*
X102158579Y-63584944D01*
G37*
D15*
G04 #@! TD*
G04 #@! TO.P,R7,2*
G04 #@! TO.N,/D+*
X101847800Y-64058800D03*
D14*
G04 #@! TO.N,/D-*
G04 #@! TO.C,R7*
G36*
X100408579Y-63584944D02*
X100431634Y-63588363D01*
X100454243Y-63594027D01*
X100476187Y-63601879D01*
X100497257Y-63611844D01*
X100517248Y-63623826D01*
X100535968Y-63637710D01*
X100553238Y-63653362D01*
X100568890Y-63670632D01*
X100582774Y-63689352D01*
X100594756Y-63709343D01*
X100604721Y-63730413D01*
X100612573Y-63752357D01*
X100618237Y-63774966D01*
X100621656Y-63798021D01*
X100622800Y-63821300D01*
X100622800Y-64296300D01*
X100621656Y-64319579D01*
X100618237Y-64342634D01*
X100612573Y-64365243D01*
X100604721Y-64387187D01*
X100594756Y-64408257D01*
X100582774Y-64428248D01*
X100568890Y-64446968D01*
X100553238Y-64464238D01*
X100535968Y-64479890D01*
X100517248Y-64493774D01*
X100497257Y-64505756D01*
X100476187Y-64515721D01*
X100454243Y-64523573D01*
X100431634Y-64529237D01*
X100408579Y-64532656D01*
X100385300Y-64533800D01*
X99810300Y-64533800D01*
X99787021Y-64532656D01*
X99763966Y-64529237D01*
X99741357Y-64523573D01*
X99719413Y-64515721D01*
X99698343Y-64505756D01*
X99678352Y-64493774D01*
X99659632Y-64479890D01*
X99642362Y-64464238D01*
X99626710Y-64446968D01*
X99612826Y-64428248D01*
X99600844Y-64408257D01*
X99590879Y-64387187D01*
X99583027Y-64365243D01*
X99577363Y-64342634D01*
X99573944Y-64319579D01*
X99572800Y-64296300D01*
X99572800Y-63821300D01*
X99573944Y-63798021D01*
X99577363Y-63774966D01*
X99583027Y-63752357D01*
X99590879Y-63730413D01*
X99600844Y-63709343D01*
X99612826Y-63689352D01*
X99626710Y-63670632D01*
X99642362Y-63653362D01*
X99659632Y-63637710D01*
X99678352Y-63623826D01*
X99698343Y-63611844D01*
X99719413Y-63601879D01*
X99741357Y-63594027D01*
X99763966Y-63588363D01*
X99787021Y-63584944D01*
X99810300Y-63583800D01*
X100385300Y-63583800D01*
X100408579Y-63584944D01*
X100408579Y-63584944D01*
G37*
D15*
G04 #@! TD*
G04 #@! TO.P,R7,1*
G04 #@! TO.N,/D-*
X100097800Y-64058800D03*
D14*
G04 #@! TO.N,/D+*
G04 #@! TO.C,R5*
G36*
X99399779Y-65921744D02*
X99422834Y-65925163D01*
X99445443Y-65930827D01*
X99467387Y-65938679D01*
X99488457Y-65948644D01*
X99508448Y-65960626D01*
X99527168Y-65974510D01*
X99544438Y-65990162D01*
X99560090Y-66007432D01*
X99573974Y-66026152D01*
X99585956Y-66046143D01*
X99595921Y-66067213D01*
X99603773Y-66089157D01*
X99609437Y-66111766D01*
X99612856Y-66134821D01*
X99614000Y-66158100D01*
X99614000Y-66633100D01*
X99612856Y-66656379D01*
X99609437Y-66679434D01*
X99603773Y-66702043D01*
X99595921Y-66723987D01*
X99585956Y-66745057D01*
X99573974Y-66765048D01*
X99560090Y-66783768D01*
X99544438Y-66801038D01*
X99527168Y-66816690D01*
X99508448Y-66830574D01*
X99488457Y-66842556D01*
X99467387Y-66852521D01*
X99445443Y-66860373D01*
X99422834Y-66866037D01*
X99399779Y-66869456D01*
X99376500Y-66870600D01*
X98801500Y-66870600D01*
X98778221Y-66869456D01*
X98755166Y-66866037D01*
X98732557Y-66860373D01*
X98710613Y-66852521D01*
X98689543Y-66842556D01*
X98669552Y-66830574D01*
X98650832Y-66816690D01*
X98633562Y-66801038D01*
X98617910Y-66783768D01*
X98604026Y-66765048D01*
X98592044Y-66745057D01*
X98582079Y-66723987D01*
X98574227Y-66702043D01*
X98568563Y-66679434D01*
X98565144Y-66656379D01*
X98564000Y-66633100D01*
X98564000Y-66158100D01*
X98565144Y-66134821D01*
X98568563Y-66111766D01*
X98574227Y-66089157D01*
X98582079Y-66067213D01*
X98592044Y-66046143D01*
X98604026Y-66026152D01*
X98617910Y-66007432D01*
X98633562Y-65990162D01*
X98650832Y-65974510D01*
X98669552Y-65960626D01*
X98689543Y-65948644D01*
X98710613Y-65938679D01*
X98732557Y-65930827D01*
X98755166Y-65925163D01*
X98778221Y-65921744D01*
X98801500Y-65920600D01*
X99376500Y-65920600D01*
X99399779Y-65921744D01*
X99399779Y-65921744D01*
G37*
D15*
G04 #@! TD*
G04 #@! TO.P,R5,2*
G04 #@! TO.N,/D+*
X99089000Y-66395600D03*
D14*
G04 #@! TO.N,VBUS*
G04 #@! TO.C,R5*
G36*
X97649779Y-65921744D02*
X97672834Y-65925163D01*
X97695443Y-65930827D01*
X97717387Y-65938679D01*
X97738457Y-65948644D01*
X97758448Y-65960626D01*
X97777168Y-65974510D01*
X97794438Y-65990162D01*
X97810090Y-66007432D01*
X97823974Y-66026152D01*
X97835956Y-66046143D01*
X97845921Y-66067213D01*
X97853773Y-66089157D01*
X97859437Y-66111766D01*
X97862856Y-66134821D01*
X97864000Y-66158100D01*
X97864000Y-66633100D01*
X97862856Y-66656379D01*
X97859437Y-66679434D01*
X97853773Y-66702043D01*
X97845921Y-66723987D01*
X97835956Y-66745057D01*
X97823974Y-66765048D01*
X97810090Y-66783768D01*
X97794438Y-66801038D01*
X97777168Y-66816690D01*
X97758448Y-66830574D01*
X97738457Y-66842556D01*
X97717387Y-66852521D01*
X97695443Y-66860373D01*
X97672834Y-66866037D01*
X97649779Y-66869456D01*
X97626500Y-66870600D01*
X97051500Y-66870600D01*
X97028221Y-66869456D01*
X97005166Y-66866037D01*
X96982557Y-66860373D01*
X96960613Y-66852521D01*
X96939543Y-66842556D01*
X96919552Y-66830574D01*
X96900832Y-66816690D01*
X96883562Y-66801038D01*
X96867910Y-66783768D01*
X96854026Y-66765048D01*
X96842044Y-66745057D01*
X96832079Y-66723987D01*
X96824227Y-66702043D01*
X96818563Y-66679434D01*
X96815144Y-66656379D01*
X96814000Y-66633100D01*
X96814000Y-66158100D01*
X96815144Y-66134821D01*
X96818563Y-66111766D01*
X96824227Y-66089157D01*
X96832079Y-66067213D01*
X96842044Y-66046143D01*
X96854026Y-66026152D01*
X96867910Y-66007432D01*
X96883562Y-65990162D01*
X96900832Y-65974510D01*
X96919552Y-65960626D01*
X96939543Y-65948644D01*
X96960613Y-65938679D01*
X96982557Y-65930827D01*
X97005166Y-65925163D01*
X97028221Y-65921744D01*
X97051500Y-65920600D01*
X97626500Y-65920600D01*
X97649779Y-65921744D01*
X97649779Y-65921744D01*
G37*
D15*
G04 #@! TD*
G04 #@! TO.P,R5,1*
G04 #@! TO.N,VBUS*
X97339000Y-66395600D03*
D14*
G04 #@! TO.N,EPAD*
G04 #@! TO.C,R6*
G36*
X105137305Y-65646004D02*
X105161573Y-65649604D01*
X105185372Y-65655565D01*
X105208471Y-65663830D01*
X105230650Y-65674320D01*
X105251693Y-65686932D01*
X105271399Y-65701547D01*
X105289577Y-65718023D01*
X105306053Y-65736201D01*
X105320668Y-65755907D01*
X105333280Y-65776950D01*
X105343770Y-65799129D01*
X105352035Y-65822228D01*
X105357996Y-65846027D01*
X105361596Y-65870295D01*
X105362800Y-65894799D01*
X105362800Y-66794801D01*
X105361596Y-66819305D01*
X105357996Y-66843573D01*
X105352035Y-66867372D01*
X105343770Y-66890471D01*
X105333280Y-66912650D01*
X105320668Y-66933693D01*
X105306053Y-66953399D01*
X105289577Y-66971577D01*
X105271399Y-66988053D01*
X105251693Y-67002668D01*
X105230650Y-67015280D01*
X105208471Y-67025770D01*
X105185372Y-67034035D01*
X105161573Y-67039996D01*
X105137305Y-67043596D01*
X105112801Y-67044800D01*
X104462799Y-67044800D01*
X104438295Y-67043596D01*
X104414027Y-67039996D01*
X104390228Y-67034035D01*
X104367129Y-67025770D01*
X104344950Y-67015280D01*
X104323907Y-67002668D01*
X104304201Y-66988053D01*
X104286023Y-66971577D01*
X104269547Y-66953399D01*
X104254932Y-66933693D01*
X104242320Y-66912650D01*
X104231830Y-66890471D01*
X104223565Y-66867372D01*
X104217604Y-66843573D01*
X104214004Y-66819305D01*
X104212800Y-66794801D01*
X104212800Y-65894799D01*
X104214004Y-65870295D01*
X104217604Y-65846027D01*
X104223565Y-65822228D01*
X104231830Y-65799129D01*
X104242320Y-65776950D01*
X104254932Y-65755907D01*
X104269547Y-65736201D01*
X104286023Y-65718023D01*
X104304201Y-65701547D01*
X104323907Y-65686932D01*
X104344950Y-65674320D01*
X104367129Y-65663830D01*
X104390228Y-65655565D01*
X104414027Y-65649604D01*
X104438295Y-65646004D01*
X104462799Y-65644800D01*
X105112801Y-65644800D01*
X105137305Y-65646004D01*
X105137305Y-65646004D01*
G37*
D16*
G04 #@! TD*
G04 #@! TO.P,R6,2*
G04 #@! TO.N,EPAD*
X104787800Y-66344800D03*
D14*
G04 #@! TO.N,/D+*
G04 #@! TO.C,R6*
G36*
X103087305Y-65646004D02*
X103111573Y-65649604D01*
X103135372Y-65655565D01*
X103158471Y-65663830D01*
X103180650Y-65674320D01*
X103201693Y-65686932D01*
X103221399Y-65701547D01*
X103239577Y-65718023D01*
X103256053Y-65736201D01*
X103270668Y-65755907D01*
X103283280Y-65776950D01*
X103293770Y-65799129D01*
X103302035Y-65822228D01*
X103307996Y-65846027D01*
X103311596Y-65870295D01*
X103312800Y-65894799D01*
X103312800Y-66794801D01*
X103311596Y-66819305D01*
X103307996Y-66843573D01*
X103302035Y-66867372D01*
X103293770Y-66890471D01*
X103283280Y-66912650D01*
X103270668Y-66933693D01*
X103256053Y-66953399D01*
X103239577Y-66971577D01*
X103221399Y-66988053D01*
X103201693Y-67002668D01*
X103180650Y-67015280D01*
X103158471Y-67025770D01*
X103135372Y-67034035D01*
X103111573Y-67039996D01*
X103087305Y-67043596D01*
X103062801Y-67044800D01*
X102412799Y-67044800D01*
X102388295Y-67043596D01*
X102364027Y-67039996D01*
X102340228Y-67034035D01*
X102317129Y-67025770D01*
X102294950Y-67015280D01*
X102273907Y-67002668D01*
X102254201Y-66988053D01*
X102236023Y-66971577D01*
X102219547Y-66953399D01*
X102204932Y-66933693D01*
X102192320Y-66912650D01*
X102181830Y-66890471D01*
X102173565Y-66867372D01*
X102167604Y-66843573D01*
X102164004Y-66819305D01*
X102162800Y-66794801D01*
X102162800Y-65894799D01*
X102164004Y-65870295D01*
X102167604Y-65846027D01*
X102173565Y-65822228D01*
X102181830Y-65799129D01*
X102192320Y-65776950D01*
X102204932Y-65755907D01*
X102219547Y-65736201D01*
X102236023Y-65718023D01*
X102254201Y-65701547D01*
X102273907Y-65686932D01*
X102294950Y-65674320D01*
X102317129Y-65663830D01*
X102340228Y-65655565D01*
X102364027Y-65649604D01*
X102388295Y-65646004D01*
X102412799Y-65644800D01*
X103062801Y-65644800D01*
X103087305Y-65646004D01*
X103087305Y-65646004D01*
G37*
D16*
G04 #@! TD*
G04 #@! TO.P,R6,1*
G04 #@! TO.N,/D+*
X102737800Y-66344800D03*
D14*
G04 #@! TO.N,EPAD*
G04 #@! TO.C,R4*
G36*
X105137305Y-68033604D02*
X105161573Y-68037204D01*
X105185372Y-68043165D01*
X105208471Y-68051430D01*
X105230650Y-68061920D01*
X105251693Y-68074532D01*
X105271399Y-68089147D01*
X105289577Y-68105623D01*
X105306053Y-68123801D01*
X105320668Y-68143507D01*
X105333280Y-68164550D01*
X105343770Y-68186729D01*
X105352035Y-68209828D01*
X105357996Y-68233627D01*
X105361596Y-68257895D01*
X105362800Y-68282399D01*
X105362800Y-69182401D01*
X105361596Y-69206905D01*
X105357996Y-69231173D01*
X105352035Y-69254972D01*
X105343770Y-69278071D01*
X105333280Y-69300250D01*
X105320668Y-69321293D01*
X105306053Y-69340999D01*
X105289577Y-69359177D01*
X105271399Y-69375653D01*
X105251693Y-69390268D01*
X105230650Y-69402880D01*
X105208471Y-69413370D01*
X105185372Y-69421635D01*
X105161573Y-69427596D01*
X105137305Y-69431196D01*
X105112801Y-69432400D01*
X104462799Y-69432400D01*
X104438295Y-69431196D01*
X104414027Y-69427596D01*
X104390228Y-69421635D01*
X104367129Y-69413370D01*
X104344950Y-69402880D01*
X104323907Y-69390268D01*
X104304201Y-69375653D01*
X104286023Y-69359177D01*
X104269547Y-69340999D01*
X104254932Y-69321293D01*
X104242320Y-69300250D01*
X104231830Y-69278071D01*
X104223565Y-69254972D01*
X104217604Y-69231173D01*
X104214004Y-69206905D01*
X104212800Y-69182401D01*
X104212800Y-68282399D01*
X104214004Y-68257895D01*
X104217604Y-68233627D01*
X104223565Y-68209828D01*
X104231830Y-68186729D01*
X104242320Y-68164550D01*
X104254932Y-68143507D01*
X104269547Y-68123801D01*
X104286023Y-68105623D01*
X104304201Y-68089147D01*
X104323907Y-68074532D01*
X104344950Y-68061920D01*
X104367129Y-68051430D01*
X104390228Y-68043165D01*
X104414027Y-68037204D01*
X104438295Y-68033604D01*
X104462799Y-68032400D01*
X105112801Y-68032400D01*
X105137305Y-68033604D01*
X105137305Y-68033604D01*
G37*
D16*
G04 #@! TD*
G04 #@! TO.P,R4,2*
G04 #@! TO.N,EPAD*
X104787800Y-68732400D03*
D14*
G04 #@! TO.N,/D-*
G04 #@! TO.C,R4*
G36*
X103087305Y-68033604D02*
X103111573Y-68037204D01*
X103135372Y-68043165D01*
X103158471Y-68051430D01*
X103180650Y-68061920D01*
X103201693Y-68074532D01*
X103221399Y-68089147D01*
X103239577Y-68105623D01*
X103256053Y-68123801D01*
X103270668Y-68143507D01*
X103283280Y-68164550D01*
X103293770Y-68186729D01*
X103302035Y-68209828D01*
X103307996Y-68233627D01*
X103311596Y-68257895D01*
X103312800Y-68282399D01*
X103312800Y-69182401D01*
X103311596Y-69206905D01*
X103307996Y-69231173D01*
X103302035Y-69254972D01*
X103293770Y-69278071D01*
X103283280Y-69300250D01*
X103270668Y-69321293D01*
X103256053Y-69340999D01*
X103239577Y-69359177D01*
X103221399Y-69375653D01*
X103201693Y-69390268D01*
X103180650Y-69402880D01*
X103158471Y-69413370D01*
X103135372Y-69421635D01*
X103111573Y-69427596D01*
X103087305Y-69431196D01*
X103062801Y-69432400D01*
X102412799Y-69432400D01*
X102388295Y-69431196D01*
X102364027Y-69427596D01*
X102340228Y-69421635D01*
X102317129Y-69413370D01*
X102294950Y-69402880D01*
X102273907Y-69390268D01*
X102254201Y-69375653D01*
X102236023Y-69359177D01*
X102219547Y-69340999D01*
X102204932Y-69321293D01*
X102192320Y-69300250D01*
X102181830Y-69278071D01*
X102173565Y-69254972D01*
X102167604Y-69231173D01*
X102164004Y-69206905D01*
X102162800Y-69182401D01*
X102162800Y-68282399D01*
X102164004Y-68257895D01*
X102167604Y-68233627D01*
X102173565Y-68209828D01*
X102181830Y-68186729D01*
X102192320Y-68164550D01*
X102204932Y-68143507D01*
X102219547Y-68123801D01*
X102236023Y-68105623D01*
X102254201Y-68089147D01*
X102273907Y-68074532D01*
X102294950Y-68061920D01*
X102317129Y-68051430D01*
X102340228Y-68043165D01*
X102364027Y-68037204D01*
X102388295Y-68033604D01*
X102412799Y-68032400D01*
X103062801Y-68032400D01*
X103087305Y-68033604D01*
X103087305Y-68033604D01*
G37*
D16*
G04 #@! TD*
G04 #@! TO.P,R4,1*
G04 #@! TO.N,/D-*
X102737800Y-68732400D03*
D14*
G04 #@! TO.N,/D-*
G04 #@! TO.C,R3*
G36*
X99701705Y-67932004D02*
X99725973Y-67935604D01*
X99749772Y-67941565D01*
X99772871Y-67949830D01*
X99795050Y-67960320D01*
X99816093Y-67972932D01*
X99835799Y-67987547D01*
X99853977Y-68004023D01*
X99870453Y-68022201D01*
X99885068Y-68041907D01*
X99897680Y-68062950D01*
X99908170Y-68085129D01*
X99916435Y-68108228D01*
X99922396Y-68132027D01*
X99925996Y-68156295D01*
X99927200Y-68180799D01*
X99927200Y-69080801D01*
X99925996Y-69105305D01*
X99922396Y-69129573D01*
X99916435Y-69153372D01*
X99908170Y-69176471D01*
X99897680Y-69198650D01*
X99885068Y-69219693D01*
X99870453Y-69239399D01*
X99853977Y-69257577D01*
X99835799Y-69274053D01*
X99816093Y-69288668D01*
X99795050Y-69301280D01*
X99772871Y-69311770D01*
X99749772Y-69320035D01*
X99725973Y-69325996D01*
X99701705Y-69329596D01*
X99677201Y-69330800D01*
X99027199Y-69330800D01*
X99002695Y-69329596D01*
X98978427Y-69325996D01*
X98954628Y-69320035D01*
X98931529Y-69311770D01*
X98909350Y-69301280D01*
X98888307Y-69288668D01*
X98868601Y-69274053D01*
X98850423Y-69257577D01*
X98833947Y-69239399D01*
X98819332Y-69219693D01*
X98806720Y-69198650D01*
X98796230Y-69176471D01*
X98787965Y-69153372D01*
X98782004Y-69129573D01*
X98778404Y-69105305D01*
X98777200Y-69080801D01*
X98777200Y-68180799D01*
X98778404Y-68156295D01*
X98782004Y-68132027D01*
X98787965Y-68108228D01*
X98796230Y-68085129D01*
X98806720Y-68062950D01*
X98819332Y-68041907D01*
X98833947Y-68022201D01*
X98850423Y-68004023D01*
X98868601Y-67987547D01*
X98888307Y-67972932D01*
X98909350Y-67960320D01*
X98931529Y-67949830D01*
X98954628Y-67941565D01*
X98978427Y-67935604D01*
X99002695Y-67932004D01*
X99027199Y-67930800D01*
X99677201Y-67930800D01*
X99701705Y-67932004D01*
X99701705Y-67932004D01*
G37*
D16*
G04 #@! TD*
G04 #@! TO.P,R3,2*
G04 #@! TO.N,/D-*
X99352200Y-68630800D03*
D14*
G04 #@! TO.N,VBUS*
G04 #@! TO.C,R3*
G36*
X97651705Y-67932004D02*
X97675973Y-67935604D01*
X97699772Y-67941565D01*
X97722871Y-67949830D01*
X97745050Y-67960320D01*
X97766093Y-67972932D01*
X97785799Y-67987547D01*
X97803977Y-68004023D01*
X97820453Y-68022201D01*
X97835068Y-68041907D01*
X97847680Y-68062950D01*
X97858170Y-68085129D01*
X97866435Y-68108228D01*
X97872396Y-68132027D01*
X97875996Y-68156295D01*
X97877200Y-68180799D01*
X97877200Y-69080801D01*
X97875996Y-69105305D01*
X97872396Y-69129573D01*
X97866435Y-69153372D01*
X97858170Y-69176471D01*
X97847680Y-69198650D01*
X97835068Y-69219693D01*
X97820453Y-69239399D01*
X97803977Y-69257577D01*
X97785799Y-69274053D01*
X97766093Y-69288668D01*
X97745050Y-69301280D01*
X97722871Y-69311770D01*
X97699772Y-69320035D01*
X97675973Y-69325996D01*
X97651705Y-69329596D01*
X97627201Y-69330800D01*
X96977199Y-69330800D01*
X96952695Y-69329596D01*
X96928427Y-69325996D01*
X96904628Y-69320035D01*
X96881529Y-69311770D01*
X96859350Y-69301280D01*
X96838307Y-69288668D01*
X96818601Y-69274053D01*
X96800423Y-69257577D01*
X96783947Y-69239399D01*
X96769332Y-69219693D01*
X96756720Y-69198650D01*
X96746230Y-69176471D01*
X96737965Y-69153372D01*
X96732004Y-69129573D01*
X96728404Y-69105305D01*
X96727200Y-69080801D01*
X96727200Y-68180799D01*
X96728404Y-68156295D01*
X96732004Y-68132027D01*
X96737965Y-68108228D01*
X96746230Y-68085129D01*
X96756720Y-68062950D01*
X96769332Y-68041907D01*
X96783947Y-68022201D01*
X96800423Y-68004023D01*
X96818601Y-67987547D01*
X96838307Y-67972932D01*
X96859350Y-67960320D01*
X96881529Y-67949830D01*
X96904628Y-67941565D01*
X96928427Y-67935604D01*
X96952695Y-67932004D01*
X96977199Y-67930800D01*
X97627201Y-67930800D01*
X97651705Y-67932004D01*
X97651705Y-67932004D01*
G37*
D16*
G04 #@! TD*
G04 #@! TO.P,R3,1*
G04 #@! TO.N,VBUS*
X97302200Y-68630800D03*
D17*
G04 #@! TO.P,R1,2*
G04 #@! TO.N,Net-(D1-Pad2)*
X90170000Y-59791600D03*
D18*
G04 #@! TO.P,R1,1*
G04 #@! TO.N,VBUS*
X90170000Y-69951600D03*
G04 #@! TD*
D19*
G04 #@! TO.P,D1,1*
G04 #@! TO.N,EPAD*
X91338400Y-56134000D03*
D20*
G04 #@! TO.P,D1,2*
G04 #@! TO.N,Net-(D1-Pad2)*
X88798400Y-56134000D03*
G04 #@! TD*
D21*
G04 #@! TO.P,J1,2*
G04 #@! TO.N,EPAD*
X90525600Y-73456800D03*
D22*
G04 #@! TO.P,J1,1*
G04 #@! TO.N,Net-(F1-Pad2)*
X90525600Y-75996800D03*
G04 #@! TD*
D23*
G04 #@! TO.P,F1,1*
G04 #@! TO.N,Net-(D2-Pad2)*
X96367600Y-81720400D03*
G04 #@! TO.P,F1,2*
G04 #@! TO.N,Net-(F1-Pad2)*
X96367600Y-74320400D03*
G04 #@! TD*
D24*
G04 #@! TO.N,VBUS*
X93218000Y-68884800D03*
X103378000Y-83566000D03*
G04 #@! TO.N,EPAD*
X93345000Y-71882000D03*
X99187000Y-71882000D03*
X96647000Y-76835000D03*
X101219000Y-75565000D03*
X103759000Y-75565000D03*
X103759000Y-77978000D03*
D25*
G04 #@! TO.N,/reg_in*
X91694000Y-80264000D03*
D24*
G04 #@! TO.N,Net-(C2-Pad1)*
X99314000Y-77597000D03*
X108864400Y-77266800D03*
G04 #@! TD*
D26*
G04 #@! TO.N,VBUS*
X96977200Y-66532400D02*
X97114000Y-66395600D01*
X96977200Y-68630800D02*
X96977200Y-66532400D01*
D27*
X97592000Y-65917600D02*
X97114000Y-66395600D01*
X97592000Y-58844000D02*
X97592000Y-65917600D01*
X93218000Y-68884800D02*
X88442800Y-73660000D01*
X88442800Y-73660000D02*
X88442800Y-82961422D01*
X89198879Y-83717501D02*
X102328474Y-83717501D01*
X88442800Y-82961422D02*
X89198879Y-83717501D01*
X102328474Y-83717501D02*
X102479975Y-83566000D01*
X102479975Y-83566000D02*
X103378000Y-83566000D01*
D28*
G04 #@! TO.N,/D-*
X100007200Y-63924400D02*
X99872800Y-64058800D01*
X99872800Y-59078200D02*
X100092000Y-58859000D01*
X99872800Y-64058800D02*
X99872800Y-59078200D01*
X102311200Y-68630800D02*
X102412800Y-68732400D01*
X99577200Y-68630800D02*
X102311200Y-68630800D01*
X98728828Y-68007428D02*
X99352200Y-68630800D01*
X98188910Y-67467510D02*
X98728828Y-68007428D01*
X98188910Y-65967690D02*
X98188910Y-67467510D01*
X100097800Y-64058800D02*
X98188910Y-65967690D01*
G04 #@! TO.N,/D+*
X102007200Y-63993200D02*
X102072800Y-64058800D01*
X102072800Y-66004800D02*
X102412800Y-66344800D01*
X102072800Y-64058800D02*
X102072800Y-66004800D01*
X99364800Y-66344800D02*
X99314000Y-66395600D01*
X102412800Y-66344800D02*
X99364800Y-66344800D01*
X102092000Y-64039600D02*
X102072800Y-64058800D01*
X102092000Y-58834000D02*
X102092000Y-64039600D01*
D29*
G04 #@! TO.N,/reg_in*
X90527600Y-79097600D02*
X91694000Y-80264000D01*
X90474800Y-79097600D02*
X90527600Y-79097600D01*
G04 #@! TO.N,Net-(F1-Pad2)*
X94691200Y-75996800D02*
X96367600Y-74320400D01*
X90525600Y-75996800D02*
X94691200Y-75996800D01*
D27*
G04 #@! TO.N,Net-(C2-Pad1)*
X107382176Y-76682601D02*
X107966375Y-77266800D01*
X99314000Y-77597000D02*
X100228399Y-76682601D01*
X107966375Y-77266800D02*
X108864400Y-77266800D01*
X100228399Y-76682601D02*
X107382176Y-76682601D01*
D29*
G04 #@! TO.N,Net-(D2-Pad2)*
X95690400Y-82397600D02*
X90474800Y-82397600D01*
X96367600Y-81720400D02*
X95690400Y-82397600D01*
G04 #@! TD*
D28*
G04 #@! TO.N,EPAD*
G36*
X109373601Y-76103080D02*
X109117019Y-75996800D01*
X108611781Y-75996800D01*
X108209884Y-76163272D01*
X108122033Y-76075421D01*
X108068890Y-75995887D01*
X107753823Y-75785366D01*
X107475986Y-75730101D01*
X107382176Y-75711441D01*
X107288366Y-75730101D01*
X100322203Y-75730101D01*
X100228398Y-75711442D01*
X100134593Y-75730101D01*
X100134589Y-75730101D01*
X99856752Y-75785366D01*
X99541685Y-75995887D01*
X99488544Y-76075418D01*
X99236962Y-76327000D01*
X99061381Y-76327000D01*
X98594603Y-76520346D01*
X98237346Y-76877603D01*
X98044000Y-77344381D01*
X98044000Y-77849619D01*
X98237346Y-78316397D01*
X98594603Y-78673654D01*
X99061381Y-78867000D01*
X99566619Y-78867000D01*
X100033397Y-78673654D01*
X100390654Y-78316397D01*
X100584000Y-77849619D01*
X100584000Y-77674038D01*
X100622937Y-77635101D01*
X106987639Y-77635101D01*
X107226518Y-77873980D01*
X107279661Y-77953514D01*
X107594728Y-78164035D01*
X107872565Y-78219300D01*
X107966374Y-78237960D01*
X108027375Y-78225826D01*
X108145003Y-78343454D01*
X108611781Y-78536800D01*
X109117019Y-78536800D01*
X109373601Y-78430520D01*
X109373601Y-83719600D01*
X104648000Y-83719600D01*
X104648000Y-83313381D01*
X104454654Y-82846603D01*
X104097397Y-82489346D01*
X103630619Y-82296000D01*
X103125381Y-82296000D01*
X102658603Y-82489346D01*
X102540975Y-82606974D01*
X102479975Y-82594840D01*
X102386165Y-82613500D01*
X102108328Y-82668765D01*
X101964301Y-82765001D01*
X99815040Y-82765001D01*
X99815040Y-80570400D01*
X99765757Y-80322635D01*
X99625409Y-80112591D01*
X99415365Y-79972243D01*
X99167600Y-79922960D01*
X93567600Y-79922960D01*
X93345000Y-79967237D01*
X93345000Y-79935596D01*
X93093650Y-79328784D01*
X92629216Y-78864350D01*
X92022404Y-78613000D01*
X91869840Y-78613000D01*
X91869840Y-78145200D01*
X91820557Y-77897435D01*
X91680209Y-77687391D01*
X91470165Y-77547043D01*
X91222400Y-77497760D01*
X89422400Y-77497760D01*
X89395300Y-77503150D01*
X89395300Y-77423218D01*
X89427835Y-77444957D01*
X89675600Y-77494240D01*
X91375600Y-77494240D01*
X91623365Y-77444957D01*
X91833409Y-77304609D01*
X91858672Y-77266800D01*
X94566125Y-77266800D01*
X94691200Y-77291679D01*
X94816275Y-77266800D01*
X94816280Y-77266800D01*
X95186729Y-77193113D01*
X95606818Y-76912418D01*
X95677671Y-76806379D01*
X96366210Y-76117840D01*
X99167600Y-76117840D01*
X99415365Y-76068557D01*
X99625409Y-75928209D01*
X99765757Y-75718165D01*
X99815040Y-75470400D01*
X99815040Y-73170400D01*
X99765757Y-72922635D01*
X99625409Y-72712591D01*
X99415365Y-72572243D01*
X99167600Y-72522960D01*
X93567600Y-72522960D01*
X93319835Y-72572243D01*
X93109791Y-72712591D01*
X92969443Y-72922635D01*
X92920160Y-73170400D01*
X92920160Y-74726800D01*
X91858672Y-74726800D01*
X91833409Y-74688991D01*
X91623365Y-74548643D01*
X91375600Y-74499360D01*
X89675600Y-74499360D01*
X89427835Y-74548643D01*
X89395300Y-74570382D01*
X89395300Y-74054537D01*
X93295039Y-70154800D01*
X93470619Y-70154800D01*
X93937397Y-69961454D01*
X94294654Y-69604197D01*
X94488000Y-69137419D01*
X94488000Y-68632181D01*
X94294654Y-68165403D01*
X93937397Y-67808146D01*
X93470619Y-67614800D01*
X92965381Y-67614800D01*
X92498603Y-67808146D01*
X92141346Y-68165403D01*
X91948000Y-68632181D01*
X91948000Y-68807761D01*
X91454043Y-69301719D01*
X91386534Y-69138738D01*
X90982862Y-68735066D01*
X90455439Y-68516600D01*
X89884561Y-68516600D01*
X89357138Y-68735066D01*
X88953466Y-69138738D01*
X88735000Y-69666161D01*
X88735000Y-70237039D01*
X88953466Y-70764462D01*
X89357138Y-71168134D01*
X89520119Y-71235643D01*
X88238400Y-72517363D01*
X88238400Y-59791600D01*
X88706887Y-59791600D01*
X88818260Y-60351509D01*
X89135423Y-60826177D01*
X89610091Y-61143340D01*
X90028667Y-61226600D01*
X90311333Y-61226600D01*
X90729909Y-61143340D01*
X91204577Y-60826177D01*
X91521740Y-60351509D01*
X91633113Y-59791600D01*
X91521740Y-59231691D01*
X91204577Y-58757023D01*
X90862904Y-58528724D01*
X96007000Y-58528724D01*
X96007000Y-59159276D01*
X96248302Y-59741830D01*
X96639500Y-60133028D01*
X96639501Y-65389531D01*
X96425753Y-65532353D01*
X96233922Y-65819448D01*
X96166560Y-66158100D01*
X96166560Y-66276352D01*
X96142840Y-66395600D01*
X96152790Y-66445620D01*
X96135528Y-66532400D01*
X96151701Y-66613706D01*
X96151700Y-67831935D01*
X96148073Y-67837364D01*
X96079760Y-68180799D01*
X96079760Y-69080801D01*
X96148073Y-69424236D01*
X96342614Y-69715386D01*
X96633764Y-69909927D01*
X96977199Y-69978240D01*
X97627201Y-69978240D01*
X97970636Y-69909927D01*
X98261786Y-69715386D01*
X98327200Y-69617487D01*
X98392614Y-69715386D01*
X98683764Y-69909927D01*
X99027199Y-69978240D01*
X99677201Y-69978240D01*
X100020636Y-69909927D01*
X100311786Y-69715386D01*
X100506327Y-69424236D01*
X100512580Y-69392800D01*
X101557211Y-69392800D01*
X101583673Y-69525836D01*
X101778214Y-69816986D01*
X102069364Y-70011527D01*
X102412799Y-70079840D01*
X103062801Y-70079840D01*
X103406236Y-70011527D01*
X103697386Y-69816986D01*
X103891927Y-69525836D01*
X103960240Y-69182401D01*
X103960240Y-68282399D01*
X103891927Y-67938964D01*
X103697386Y-67647814D01*
X103533936Y-67538600D01*
X103697386Y-67429386D01*
X103891927Y-67138236D01*
X103960240Y-66794801D01*
X103960240Y-65894799D01*
X103891927Y-65551364D01*
X103697386Y-65260214D01*
X103406236Y-65065673D01*
X103062801Y-64997360D01*
X102834800Y-64997360D01*
X102834800Y-64811668D01*
X102952878Y-64634952D01*
X103020240Y-64296300D01*
X103020240Y-63821300D01*
X102952878Y-63482648D01*
X102854000Y-63334667D01*
X102854000Y-60201489D01*
X102972837Y-60152265D01*
X103410265Y-59714837D01*
X103647000Y-59143309D01*
X103647000Y-58524691D01*
X103410265Y-57953163D01*
X102972837Y-57515735D01*
X102401309Y-57279000D01*
X101782691Y-57279000D01*
X101211163Y-57515735D01*
X101079500Y-57647398D01*
X100972837Y-57540735D01*
X100401309Y-57304000D01*
X99782691Y-57304000D01*
X99211163Y-57540735D01*
X98870713Y-57881185D01*
X98489830Y-57500302D01*
X97907276Y-57259000D01*
X97276724Y-57259000D01*
X96694170Y-57500302D01*
X96248302Y-57946170D01*
X96007000Y-58528724D01*
X90862904Y-58528724D01*
X90729909Y-58439860D01*
X90311333Y-58356600D01*
X90028667Y-58356600D01*
X89610091Y-58439860D01*
X89135423Y-58757023D01*
X88818260Y-59231691D01*
X88706887Y-59791600D01*
X88238400Y-59791600D01*
X88238400Y-57563512D01*
X88493070Y-57669000D01*
X89103730Y-57669000D01*
X89667907Y-57435310D01*
X90099710Y-57003507D01*
X90333400Y-56439330D01*
X90333400Y-55828670D01*
X90099710Y-55264493D01*
X89667907Y-54832690D01*
X89103730Y-54599000D01*
X88493070Y-54599000D01*
X88238400Y-54704488D01*
X88238400Y-54354800D01*
X109373600Y-54354800D01*
X109373601Y-76103080D01*
X109373601Y-76103080D01*
G37*
X109373601Y-76103080D02*
X109117019Y-75996800D01*
X108611781Y-75996800D01*
X108209884Y-76163272D01*
X108122033Y-76075421D01*
X108068890Y-75995887D01*
X107753823Y-75785366D01*
X107475986Y-75730101D01*
X107382176Y-75711441D01*
X107288366Y-75730101D01*
X100322203Y-75730101D01*
X100228398Y-75711442D01*
X100134593Y-75730101D01*
X100134589Y-75730101D01*
X99856752Y-75785366D01*
X99541685Y-75995887D01*
X99488544Y-76075418D01*
X99236962Y-76327000D01*
X99061381Y-76327000D01*
X98594603Y-76520346D01*
X98237346Y-76877603D01*
X98044000Y-77344381D01*
X98044000Y-77849619D01*
X98237346Y-78316397D01*
X98594603Y-78673654D01*
X99061381Y-78867000D01*
X99566619Y-78867000D01*
X100033397Y-78673654D01*
X100390654Y-78316397D01*
X100584000Y-77849619D01*
X100584000Y-77674038D01*
X100622937Y-77635101D01*
X106987639Y-77635101D01*
X107226518Y-77873980D01*
X107279661Y-77953514D01*
X107594728Y-78164035D01*
X107872565Y-78219300D01*
X107966374Y-78237960D01*
X108027375Y-78225826D01*
X108145003Y-78343454D01*
X108611781Y-78536800D01*
X109117019Y-78536800D01*
X109373601Y-78430520D01*
X109373601Y-83719600D01*
X104648000Y-83719600D01*
X104648000Y-83313381D01*
X104454654Y-82846603D01*
X104097397Y-82489346D01*
X103630619Y-82296000D01*
X103125381Y-82296000D01*
X102658603Y-82489346D01*
X102540975Y-82606974D01*
X102479975Y-82594840D01*
X102386165Y-82613500D01*
X102108328Y-82668765D01*
X101964301Y-82765001D01*
X99815040Y-82765001D01*
X99815040Y-80570400D01*
X99765757Y-80322635D01*
X99625409Y-80112591D01*
X99415365Y-79972243D01*
X99167600Y-79922960D01*
X93567600Y-79922960D01*
X93345000Y-79967237D01*
X93345000Y-79935596D01*
X93093650Y-79328784D01*
X92629216Y-78864350D01*
X92022404Y-78613000D01*
X91869840Y-78613000D01*
X91869840Y-78145200D01*
X91820557Y-77897435D01*
X91680209Y-77687391D01*
X91470165Y-77547043D01*
X91222400Y-77497760D01*
X89422400Y-77497760D01*
X89395300Y-77503150D01*
X89395300Y-77423218D01*
X89427835Y-77444957D01*
X89675600Y-77494240D01*
X91375600Y-77494240D01*
X91623365Y-77444957D01*
X91833409Y-77304609D01*
X91858672Y-77266800D01*
X94566125Y-77266800D01*
X94691200Y-77291679D01*
X94816275Y-77266800D01*
X94816280Y-77266800D01*
X95186729Y-77193113D01*
X95606818Y-76912418D01*
X95677671Y-76806379D01*
X96366210Y-76117840D01*
X99167600Y-76117840D01*
X99415365Y-76068557D01*
X99625409Y-75928209D01*
X99765757Y-75718165D01*
X99815040Y-75470400D01*
X99815040Y-73170400D01*
X99765757Y-72922635D01*
X99625409Y-72712591D01*
X99415365Y-72572243D01*
X99167600Y-72522960D01*
X93567600Y-72522960D01*
X93319835Y-72572243D01*
X93109791Y-72712591D01*
X92969443Y-72922635D01*
X92920160Y-73170400D01*
X92920160Y-74726800D01*
X91858672Y-74726800D01*
X91833409Y-74688991D01*
X91623365Y-74548643D01*
X91375600Y-74499360D01*
X89675600Y-74499360D01*
X89427835Y-74548643D01*
X89395300Y-74570382D01*
X89395300Y-74054537D01*
X93295039Y-70154800D01*
X93470619Y-70154800D01*
X93937397Y-69961454D01*
X94294654Y-69604197D01*
X94488000Y-69137419D01*
X94488000Y-68632181D01*
X94294654Y-68165403D01*
X93937397Y-67808146D01*
X93470619Y-67614800D01*
X92965381Y-67614800D01*
X92498603Y-67808146D01*
X92141346Y-68165403D01*
X91948000Y-68632181D01*
X91948000Y-68807761D01*
X91454043Y-69301719D01*
X91386534Y-69138738D01*
X90982862Y-68735066D01*
X90455439Y-68516600D01*
X89884561Y-68516600D01*
X89357138Y-68735066D01*
X88953466Y-69138738D01*
X88735000Y-69666161D01*
X88735000Y-70237039D01*
X88953466Y-70764462D01*
X89357138Y-71168134D01*
X89520119Y-71235643D01*
X88238400Y-72517363D01*
X88238400Y-59791600D01*
X88706887Y-59791600D01*
X88818260Y-60351509D01*
X89135423Y-60826177D01*
X89610091Y-61143340D01*
X90028667Y-61226600D01*
X90311333Y-61226600D01*
X90729909Y-61143340D01*
X91204577Y-60826177D01*
X91521740Y-60351509D01*
X91633113Y-59791600D01*
X91521740Y-59231691D01*
X91204577Y-58757023D01*
X90862904Y-58528724D01*
X96007000Y-58528724D01*
X96007000Y-59159276D01*
X96248302Y-59741830D01*
X96639500Y-60133028D01*
X96639501Y-65389531D01*
X96425753Y-65532353D01*
X96233922Y-65819448D01*
X96166560Y-66158100D01*
X96166560Y-66276352D01*
X96142840Y-66395600D01*
X96152790Y-66445620D01*
X96135528Y-66532400D01*
X96151701Y-66613706D01*
X96151700Y-67831935D01*
X96148073Y-67837364D01*
X96079760Y-68180799D01*
X96079760Y-69080801D01*
X96148073Y-69424236D01*
X96342614Y-69715386D01*
X96633764Y-69909927D01*
X96977199Y-69978240D01*
X97627201Y-69978240D01*
X97970636Y-69909927D01*
X98261786Y-69715386D01*
X98327200Y-69617487D01*
X98392614Y-69715386D01*
X98683764Y-69909927D01*
X99027199Y-69978240D01*
X99677201Y-69978240D01*
X100020636Y-69909927D01*
X100311786Y-69715386D01*
X100506327Y-69424236D01*
X100512580Y-69392800D01*
X101557211Y-69392800D01*
X101583673Y-69525836D01*
X101778214Y-69816986D01*
X102069364Y-70011527D01*
X102412799Y-70079840D01*
X103062801Y-70079840D01*
X103406236Y-70011527D01*
X103697386Y-69816986D01*
X103891927Y-69525836D01*
X103960240Y-69182401D01*
X103960240Y-68282399D01*
X103891927Y-67938964D01*
X103697386Y-67647814D01*
X103533936Y-67538600D01*
X103697386Y-67429386D01*
X103891927Y-67138236D01*
X103960240Y-66794801D01*
X103960240Y-65894799D01*
X103891927Y-65551364D01*
X103697386Y-65260214D01*
X103406236Y-65065673D01*
X103062801Y-64997360D01*
X102834800Y-64997360D01*
X102834800Y-64811668D01*
X102952878Y-64634952D01*
X103020240Y-64296300D01*
X103020240Y-63821300D01*
X102952878Y-63482648D01*
X102854000Y-63334667D01*
X102854000Y-60201489D01*
X102972837Y-60152265D01*
X103410265Y-59714837D01*
X103647000Y-59143309D01*
X103647000Y-58524691D01*
X103410265Y-57953163D01*
X102972837Y-57515735D01*
X102401309Y-57279000D01*
X101782691Y-57279000D01*
X101211163Y-57515735D01*
X101079500Y-57647398D01*
X100972837Y-57540735D01*
X100401309Y-57304000D01*
X99782691Y-57304000D01*
X99211163Y-57540735D01*
X98870713Y-57881185D01*
X98489830Y-57500302D01*
X97907276Y-57259000D01*
X97276724Y-57259000D01*
X96694170Y-57500302D01*
X96248302Y-57946170D01*
X96007000Y-58528724D01*
X90862904Y-58528724D01*
X90729909Y-58439860D01*
X90311333Y-58356600D01*
X90028667Y-58356600D01*
X89610091Y-58439860D01*
X89135423Y-58757023D01*
X88818260Y-59231691D01*
X88706887Y-59791600D01*
X88238400Y-59791600D01*
X88238400Y-57563512D01*
X88493070Y-57669000D01*
X89103730Y-57669000D01*
X89667907Y-57435310D01*
X90099710Y-57003507D01*
X90333400Y-56439330D01*
X90333400Y-55828670D01*
X90099710Y-55264493D01*
X89667907Y-54832690D01*
X89103730Y-54599000D01*
X88493070Y-54599000D01*
X88238400Y-54704488D01*
X88238400Y-54354800D01*
X109373600Y-54354800D01*
X109373601Y-76103080D01*
G04 #@! TD*
M02*
