G04 #@! TF.GenerationSoftware,KiCad,Pcbnew,(5.0.0-3-g5ebb6b6)*
G04 #@! TF.CreationDate,2019-01-13T20:11:43-05:00*
G04 #@! TF.ProjectId,phone_charger,70686F6E655F636861726765722E6B69,2*
G04 #@! TF.SameCoordinates,Original*
G04 #@! TF.FileFunction,Copper,L1,Top,Signal*
G04 #@! TF.FilePolarity,Positive*
%FSLAX46Y46*%
G04 Gerber Fmt 4.6, Leading zero omitted, Abs format (unit mm)*
G04 Created by KiCad (PCBNEW (5.0.0-3-g5ebb6b6)) date Sunday, January 13, 2019 at 08:11:43 PM*
%MOMM*%
%LPD*%
G01*
G04 APERTURE LIST*
G04 #@! TA.AperFunction,SMDPad,CuDef*
%ADD10R,1.700000X3.600000*%
G04 #@! TD*
G04 #@! TA.AperFunction,ComponentPad*
%ADD11C,3.300000*%
G04 #@! TD*
G04 #@! TA.AperFunction,ComponentPad*
%ADD12C,1.900000*%
G04 #@! TD*
G04 #@! TA.AperFunction,ComponentPad*
%ADD13C,1.840000*%
G04 #@! TD*
G04 #@! TA.AperFunction,SMDPad,CuDef*
%ADD14R,3.500000X2.300000*%
G04 #@! TD*
G04 #@! TA.AperFunction,Conductor*
%ADD15C,0.100000*%
G04 #@! TD*
G04 #@! TA.AperFunction,SMDPad,CuDef*
%ADD16C,0.950000*%
G04 #@! TD*
G04 #@! TA.AperFunction,SMDPad,CuDef*
%ADD17C,1.150000*%
G04 #@! TD*
G04 #@! TA.AperFunction,SMDPad,CuDef*
%ADD18C,1.425000*%
G04 #@! TD*
G04 #@! TA.AperFunction,ComponentPad*
%ADD19O,1.600000X1.600000*%
G04 #@! TD*
G04 #@! TA.AperFunction,ComponentPad*
%ADD20C,1.600000*%
G04 #@! TD*
G04 #@! TA.AperFunction,ComponentPad*
%ADD21R,1.800000X1.800000*%
G04 #@! TD*
G04 #@! TA.AperFunction,ComponentPad*
%ADD22C,1.800000*%
G04 #@! TD*
G04 #@! TA.AperFunction,ComponentPad*
%ADD23O,1.700000X1.700000*%
G04 #@! TD*
G04 #@! TA.AperFunction,ComponentPad*
%ADD24R,1.700000X1.700000*%
G04 #@! TD*
G04 #@! TA.AperFunction,SMDPad,CuDef*
%ADD25R,1.550000X0.600000*%
G04 #@! TD*
G04 #@! TA.AperFunction,SMDPad,CuDef*
%ADD26R,1.175000X1.175000*%
G04 #@! TD*
G04 #@! TA.AperFunction,ViaPad*
%ADD27C,1.270000*%
G04 #@! TD*
G04 #@! TA.AperFunction,ViaPad*
%ADD28C,2.032000*%
G04 #@! TD*
G04 #@! TA.AperFunction,Conductor*
%ADD29C,0.381000*%
G04 #@! TD*
G04 #@! TA.AperFunction,Conductor*
%ADD30C,1.270000*%
G04 #@! TD*
G04 #@! TA.AperFunction,Conductor*
%ADD31C,0.635000*%
G04 #@! TD*
G04 #@! TA.AperFunction,Conductor*
%ADD32C,0.254000*%
G04 #@! TD*
G04 APERTURE END LIST*
D10*
G04 #@! TO.P,L1,2*
G04 #@! TO.N,VBUS*
X99284400Y-64947800D03*
G04 #@! TO.P,L1,1*
G04 #@! TO.N,/SWN*
X108284400Y-64947800D03*
G04 #@! TD*
D11*
G04 #@! TO.P,J2,SH*
G04 #@! TO.N,EPAD*
X94522000Y-56134000D03*
X107662000Y-56134000D03*
D12*
G04 #@! TO.P,J2,1*
G04 #@! TO.N,VBUS*
X97592000Y-58844000D03*
D13*
G04 #@! TO.P,J2,2*
G04 #@! TO.N,/D-*
X100092000Y-58859000D03*
G04 #@! TO.P,J2,3*
G04 #@! TO.N,/D+*
X102092000Y-58834000D03*
D12*
G04 #@! TO.P,J2,4*
G04 #@! TO.N,EPAD*
X104592000Y-58844000D03*
G04 #@! TD*
D14*
G04 #@! TO.P,D3,2*
G04 #@! TO.N,EPAD*
X102202000Y-72898000D03*
G04 #@! TO.P,D3,1*
G04 #@! TO.N,/SWN*
X107602000Y-72898000D03*
G04 #@! TD*
D15*
G04 #@! TO.N,/SWN*
G04 #@! TO.C,C2*
G36*
X107065779Y-75421344D02*
X107088834Y-75424763D01*
X107111443Y-75430427D01*
X107133387Y-75438279D01*
X107154457Y-75448244D01*
X107174448Y-75460226D01*
X107193168Y-75474110D01*
X107210438Y-75489762D01*
X107226090Y-75507032D01*
X107239974Y-75525752D01*
X107251956Y-75545743D01*
X107261921Y-75566813D01*
X107269773Y-75588757D01*
X107275437Y-75611366D01*
X107278856Y-75634421D01*
X107280000Y-75657700D01*
X107280000Y-76132700D01*
X107278856Y-76155979D01*
X107275437Y-76179034D01*
X107269773Y-76201643D01*
X107261921Y-76223587D01*
X107251956Y-76244657D01*
X107239974Y-76264648D01*
X107226090Y-76283368D01*
X107210438Y-76300638D01*
X107193168Y-76316290D01*
X107174448Y-76330174D01*
X107154457Y-76342156D01*
X107133387Y-76352121D01*
X107111443Y-76359973D01*
X107088834Y-76365637D01*
X107065779Y-76369056D01*
X107042500Y-76370200D01*
X106467500Y-76370200D01*
X106444221Y-76369056D01*
X106421166Y-76365637D01*
X106398557Y-76359973D01*
X106376613Y-76352121D01*
X106355543Y-76342156D01*
X106335552Y-76330174D01*
X106316832Y-76316290D01*
X106299562Y-76300638D01*
X106283910Y-76283368D01*
X106270026Y-76264648D01*
X106258044Y-76244657D01*
X106248079Y-76223587D01*
X106240227Y-76201643D01*
X106234563Y-76179034D01*
X106231144Y-76155979D01*
X106230000Y-76132700D01*
X106230000Y-75657700D01*
X106231144Y-75634421D01*
X106234563Y-75611366D01*
X106240227Y-75588757D01*
X106248079Y-75566813D01*
X106258044Y-75545743D01*
X106270026Y-75525752D01*
X106283910Y-75507032D01*
X106299562Y-75489762D01*
X106316832Y-75474110D01*
X106335552Y-75460226D01*
X106355543Y-75448244D01*
X106376613Y-75438279D01*
X106398557Y-75430427D01*
X106421166Y-75424763D01*
X106444221Y-75421344D01*
X106467500Y-75420200D01*
X107042500Y-75420200D01*
X107065779Y-75421344D01*
X107065779Y-75421344D01*
G37*
D16*
G04 #@! TD*
G04 #@! TO.P,C2,2*
G04 #@! TO.N,/SWN*
X106755000Y-75895200D03*
D15*
G04 #@! TO.N,Net-(C2-Pad1)*
G04 #@! TO.C,C2*
G36*
X108815779Y-75421344D02*
X108838834Y-75424763D01*
X108861443Y-75430427D01*
X108883387Y-75438279D01*
X108904457Y-75448244D01*
X108924448Y-75460226D01*
X108943168Y-75474110D01*
X108960438Y-75489762D01*
X108976090Y-75507032D01*
X108989974Y-75525752D01*
X109001956Y-75545743D01*
X109011921Y-75566813D01*
X109019773Y-75588757D01*
X109025437Y-75611366D01*
X109028856Y-75634421D01*
X109030000Y-75657700D01*
X109030000Y-76132700D01*
X109028856Y-76155979D01*
X109025437Y-76179034D01*
X109019773Y-76201643D01*
X109011921Y-76223587D01*
X109001956Y-76244657D01*
X108989974Y-76264648D01*
X108976090Y-76283368D01*
X108960438Y-76300638D01*
X108943168Y-76316290D01*
X108924448Y-76330174D01*
X108904457Y-76342156D01*
X108883387Y-76352121D01*
X108861443Y-76359973D01*
X108838834Y-76365637D01*
X108815779Y-76369056D01*
X108792500Y-76370200D01*
X108217500Y-76370200D01*
X108194221Y-76369056D01*
X108171166Y-76365637D01*
X108148557Y-76359973D01*
X108126613Y-76352121D01*
X108105543Y-76342156D01*
X108085552Y-76330174D01*
X108066832Y-76316290D01*
X108049562Y-76300638D01*
X108033910Y-76283368D01*
X108020026Y-76264648D01*
X108008044Y-76244657D01*
X107998079Y-76223587D01*
X107990227Y-76201643D01*
X107984563Y-76179034D01*
X107981144Y-76155979D01*
X107980000Y-76132700D01*
X107980000Y-75657700D01*
X107981144Y-75634421D01*
X107984563Y-75611366D01*
X107990227Y-75588757D01*
X107998079Y-75566813D01*
X108008044Y-75545743D01*
X108020026Y-75525752D01*
X108033910Y-75507032D01*
X108049562Y-75489762D01*
X108066832Y-75474110D01*
X108085552Y-75460226D01*
X108105543Y-75448244D01*
X108126613Y-75438279D01*
X108148557Y-75430427D01*
X108171166Y-75424763D01*
X108194221Y-75421344D01*
X108217500Y-75420200D01*
X108792500Y-75420200D01*
X108815779Y-75421344D01*
X108815779Y-75421344D01*
G37*
D16*
G04 #@! TD*
G04 #@! TO.P,C2,1*
G04 #@! TO.N,Net-(C2-Pad1)*
X108505000Y-75895200D03*
D15*
G04 #@! TO.N,EPAD*
G04 #@! TO.C,C4*
G36*
X97756505Y-70738404D02*
X97780773Y-70742004D01*
X97804572Y-70747965D01*
X97827671Y-70756230D01*
X97849850Y-70766720D01*
X97870893Y-70779332D01*
X97890599Y-70793947D01*
X97908777Y-70810423D01*
X97925253Y-70828601D01*
X97939868Y-70848307D01*
X97952480Y-70869350D01*
X97962970Y-70891529D01*
X97971235Y-70914628D01*
X97977196Y-70938427D01*
X97980796Y-70962695D01*
X97982000Y-70987199D01*
X97982000Y-71637201D01*
X97980796Y-71661705D01*
X97977196Y-71685973D01*
X97971235Y-71709772D01*
X97962970Y-71732871D01*
X97952480Y-71755050D01*
X97939868Y-71776093D01*
X97925253Y-71795799D01*
X97908777Y-71813977D01*
X97890599Y-71830453D01*
X97870893Y-71845068D01*
X97849850Y-71857680D01*
X97827671Y-71868170D01*
X97804572Y-71876435D01*
X97780773Y-71882396D01*
X97756505Y-71885996D01*
X97732001Y-71887200D01*
X96831999Y-71887200D01*
X96807495Y-71885996D01*
X96783227Y-71882396D01*
X96759428Y-71876435D01*
X96736329Y-71868170D01*
X96714150Y-71857680D01*
X96693107Y-71845068D01*
X96673401Y-71830453D01*
X96655223Y-71813977D01*
X96638747Y-71795799D01*
X96624132Y-71776093D01*
X96611520Y-71755050D01*
X96601030Y-71732871D01*
X96592765Y-71709772D01*
X96586804Y-71685973D01*
X96583204Y-71661705D01*
X96582000Y-71637201D01*
X96582000Y-70987199D01*
X96583204Y-70962695D01*
X96586804Y-70938427D01*
X96592765Y-70914628D01*
X96601030Y-70891529D01*
X96611520Y-70869350D01*
X96624132Y-70848307D01*
X96638747Y-70828601D01*
X96655223Y-70810423D01*
X96673401Y-70793947D01*
X96693107Y-70779332D01*
X96714150Y-70766720D01*
X96736329Y-70756230D01*
X96759428Y-70747965D01*
X96783227Y-70742004D01*
X96807495Y-70738404D01*
X96831999Y-70737200D01*
X97732001Y-70737200D01*
X97756505Y-70738404D01*
X97756505Y-70738404D01*
G37*
D17*
G04 #@! TD*
G04 #@! TO.P,C4,2*
G04 #@! TO.N,EPAD*
X97282000Y-71312200D03*
D15*
G04 #@! TO.N,VBUS*
G04 #@! TO.C,C4*
G36*
X97756505Y-68688404D02*
X97780773Y-68692004D01*
X97804572Y-68697965D01*
X97827671Y-68706230D01*
X97849850Y-68716720D01*
X97870893Y-68729332D01*
X97890599Y-68743947D01*
X97908777Y-68760423D01*
X97925253Y-68778601D01*
X97939868Y-68798307D01*
X97952480Y-68819350D01*
X97962970Y-68841529D01*
X97971235Y-68864628D01*
X97977196Y-68888427D01*
X97980796Y-68912695D01*
X97982000Y-68937199D01*
X97982000Y-69587201D01*
X97980796Y-69611705D01*
X97977196Y-69635973D01*
X97971235Y-69659772D01*
X97962970Y-69682871D01*
X97952480Y-69705050D01*
X97939868Y-69726093D01*
X97925253Y-69745799D01*
X97908777Y-69763977D01*
X97890599Y-69780453D01*
X97870893Y-69795068D01*
X97849850Y-69807680D01*
X97827671Y-69818170D01*
X97804572Y-69826435D01*
X97780773Y-69832396D01*
X97756505Y-69835996D01*
X97732001Y-69837200D01*
X96831999Y-69837200D01*
X96807495Y-69835996D01*
X96783227Y-69832396D01*
X96759428Y-69826435D01*
X96736329Y-69818170D01*
X96714150Y-69807680D01*
X96693107Y-69795068D01*
X96673401Y-69780453D01*
X96655223Y-69763977D01*
X96638747Y-69745799D01*
X96624132Y-69726093D01*
X96611520Y-69705050D01*
X96601030Y-69682871D01*
X96592765Y-69659772D01*
X96586804Y-69635973D01*
X96583204Y-69611705D01*
X96582000Y-69587201D01*
X96582000Y-68937199D01*
X96583204Y-68912695D01*
X96586804Y-68888427D01*
X96592765Y-68864628D01*
X96601030Y-68841529D01*
X96611520Y-68819350D01*
X96624132Y-68798307D01*
X96638747Y-68778601D01*
X96655223Y-68760423D01*
X96673401Y-68743947D01*
X96693107Y-68729332D01*
X96714150Y-68716720D01*
X96736329Y-68706230D01*
X96759428Y-68697965D01*
X96783227Y-68692004D01*
X96807495Y-68688404D01*
X96831999Y-68687200D01*
X97732001Y-68687200D01*
X97756505Y-68688404D01*
X97756505Y-68688404D01*
G37*
D17*
G04 #@! TD*
G04 #@! TO.P,C4,1*
G04 #@! TO.N,VBUS*
X97282000Y-69262200D03*
D15*
G04 #@! TO.N,EPAD*
G04 #@! TO.C,C3*
G36*
X95673705Y-70738404D02*
X95697973Y-70742004D01*
X95721772Y-70747965D01*
X95744871Y-70756230D01*
X95767050Y-70766720D01*
X95788093Y-70779332D01*
X95807799Y-70793947D01*
X95825977Y-70810423D01*
X95842453Y-70828601D01*
X95857068Y-70848307D01*
X95869680Y-70869350D01*
X95880170Y-70891529D01*
X95888435Y-70914628D01*
X95894396Y-70938427D01*
X95897996Y-70962695D01*
X95899200Y-70987199D01*
X95899200Y-71637201D01*
X95897996Y-71661705D01*
X95894396Y-71685973D01*
X95888435Y-71709772D01*
X95880170Y-71732871D01*
X95869680Y-71755050D01*
X95857068Y-71776093D01*
X95842453Y-71795799D01*
X95825977Y-71813977D01*
X95807799Y-71830453D01*
X95788093Y-71845068D01*
X95767050Y-71857680D01*
X95744871Y-71868170D01*
X95721772Y-71876435D01*
X95697973Y-71882396D01*
X95673705Y-71885996D01*
X95649201Y-71887200D01*
X94749199Y-71887200D01*
X94724695Y-71885996D01*
X94700427Y-71882396D01*
X94676628Y-71876435D01*
X94653529Y-71868170D01*
X94631350Y-71857680D01*
X94610307Y-71845068D01*
X94590601Y-71830453D01*
X94572423Y-71813977D01*
X94555947Y-71795799D01*
X94541332Y-71776093D01*
X94528720Y-71755050D01*
X94518230Y-71732871D01*
X94509965Y-71709772D01*
X94504004Y-71685973D01*
X94500404Y-71661705D01*
X94499200Y-71637201D01*
X94499200Y-70987199D01*
X94500404Y-70962695D01*
X94504004Y-70938427D01*
X94509965Y-70914628D01*
X94518230Y-70891529D01*
X94528720Y-70869350D01*
X94541332Y-70848307D01*
X94555947Y-70828601D01*
X94572423Y-70810423D01*
X94590601Y-70793947D01*
X94610307Y-70779332D01*
X94631350Y-70766720D01*
X94653529Y-70756230D01*
X94676628Y-70747965D01*
X94700427Y-70742004D01*
X94724695Y-70738404D01*
X94749199Y-70737200D01*
X95649201Y-70737200D01*
X95673705Y-70738404D01*
X95673705Y-70738404D01*
G37*
D17*
G04 #@! TD*
G04 #@! TO.P,C3,2*
G04 #@! TO.N,EPAD*
X95199200Y-71312200D03*
D15*
G04 #@! TO.N,VBUS*
G04 #@! TO.C,C3*
G36*
X95673705Y-68688404D02*
X95697973Y-68692004D01*
X95721772Y-68697965D01*
X95744871Y-68706230D01*
X95767050Y-68716720D01*
X95788093Y-68729332D01*
X95807799Y-68743947D01*
X95825977Y-68760423D01*
X95842453Y-68778601D01*
X95857068Y-68798307D01*
X95869680Y-68819350D01*
X95880170Y-68841529D01*
X95888435Y-68864628D01*
X95894396Y-68888427D01*
X95897996Y-68912695D01*
X95899200Y-68937199D01*
X95899200Y-69587201D01*
X95897996Y-69611705D01*
X95894396Y-69635973D01*
X95888435Y-69659772D01*
X95880170Y-69682871D01*
X95869680Y-69705050D01*
X95857068Y-69726093D01*
X95842453Y-69745799D01*
X95825977Y-69763977D01*
X95807799Y-69780453D01*
X95788093Y-69795068D01*
X95767050Y-69807680D01*
X95744871Y-69818170D01*
X95721772Y-69826435D01*
X95697973Y-69832396D01*
X95673705Y-69835996D01*
X95649201Y-69837200D01*
X94749199Y-69837200D01*
X94724695Y-69835996D01*
X94700427Y-69832396D01*
X94676628Y-69826435D01*
X94653529Y-69818170D01*
X94631350Y-69807680D01*
X94610307Y-69795068D01*
X94590601Y-69780453D01*
X94572423Y-69763977D01*
X94555947Y-69745799D01*
X94541332Y-69726093D01*
X94528720Y-69705050D01*
X94518230Y-69682871D01*
X94509965Y-69659772D01*
X94504004Y-69635973D01*
X94500404Y-69611705D01*
X94499200Y-69587201D01*
X94499200Y-68937199D01*
X94500404Y-68912695D01*
X94504004Y-68888427D01*
X94509965Y-68864628D01*
X94518230Y-68841529D01*
X94528720Y-68819350D01*
X94541332Y-68798307D01*
X94555947Y-68778601D01*
X94572423Y-68760423D01*
X94590601Y-68743947D01*
X94610307Y-68729332D01*
X94631350Y-68716720D01*
X94653529Y-68706230D01*
X94676628Y-68697965D01*
X94700427Y-68692004D01*
X94724695Y-68688404D01*
X94749199Y-68687200D01*
X95649201Y-68687200D01*
X95673705Y-68688404D01*
X95673705Y-68688404D01*
G37*
D17*
G04 #@! TD*
G04 #@! TO.P,C3,1*
G04 #@! TO.N,VBUS*
X95199200Y-69262200D03*
D15*
G04 #@! TO.N,EPAD*
G04 #@! TO.C,C1*
G36*
X94629504Y-76153604D02*
X94653773Y-76157204D01*
X94677571Y-76163165D01*
X94700671Y-76171430D01*
X94722849Y-76181920D01*
X94743893Y-76194533D01*
X94763598Y-76209147D01*
X94781777Y-76225623D01*
X94798253Y-76243802D01*
X94812867Y-76263507D01*
X94825480Y-76284551D01*
X94835970Y-76306729D01*
X94844235Y-76329829D01*
X94850196Y-76353627D01*
X94853796Y-76377896D01*
X94855000Y-76402400D01*
X94855000Y-77327400D01*
X94853796Y-77351904D01*
X94850196Y-77376173D01*
X94844235Y-77399971D01*
X94835970Y-77423071D01*
X94825480Y-77445249D01*
X94812867Y-77466293D01*
X94798253Y-77485998D01*
X94781777Y-77504177D01*
X94763598Y-77520653D01*
X94743893Y-77535267D01*
X94722849Y-77547880D01*
X94700671Y-77558370D01*
X94677571Y-77566635D01*
X94653773Y-77572596D01*
X94629504Y-77576196D01*
X94605000Y-77577400D01*
X93355000Y-77577400D01*
X93330496Y-77576196D01*
X93306227Y-77572596D01*
X93282429Y-77566635D01*
X93259329Y-77558370D01*
X93237151Y-77547880D01*
X93216107Y-77535267D01*
X93196402Y-77520653D01*
X93178223Y-77504177D01*
X93161747Y-77485998D01*
X93147133Y-77466293D01*
X93134520Y-77445249D01*
X93124030Y-77423071D01*
X93115765Y-77399971D01*
X93109804Y-77376173D01*
X93106204Y-77351904D01*
X93105000Y-77327400D01*
X93105000Y-76402400D01*
X93106204Y-76377896D01*
X93109804Y-76353627D01*
X93115765Y-76329829D01*
X93124030Y-76306729D01*
X93134520Y-76284551D01*
X93147133Y-76263507D01*
X93161747Y-76243802D01*
X93178223Y-76225623D01*
X93196402Y-76209147D01*
X93216107Y-76194533D01*
X93237151Y-76181920D01*
X93259329Y-76171430D01*
X93282429Y-76163165D01*
X93306227Y-76157204D01*
X93330496Y-76153604D01*
X93355000Y-76152400D01*
X94605000Y-76152400D01*
X94629504Y-76153604D01*
X94629504Y-76153604D01*
G37*
D18*
G04 #@! TD*
G04 #@! TO.P,C1,2*
G04 #@! TO.N,EPAD*
X93980000Y-76864900D03*
D15*
G04 #@! TO.N,/reg_in*
G04 #@! TO.C,C1*
G36*
X94629504Y-79128604D02*
X94653773Y-79132204D01*
X94677571Y-79138165D01*
X94700671Y-79146430D01*
X94722849Y-79156920D01*
X94743893Y-79169533D01*
X94763598Y-79184147D01*
X94781777Y-79200623D01*
X94798253Y-79218802D01*
X94812867Y-79238507D01*
X94825480Y-79259551D01*
X94835970Y-79281729D01*
X94844235Y-79304829D01*
X94850196Y-79328627D01*
X94853796Y-79352896D01*
X94855000Y-79377400D01*
X94855000Y-80302400D01*
X94853796Y-80326904D01*
X94850196Y-80351173D01*
X94844235Y-80374971D01*
X94835970Y-80398071D01*
X94825480Y-80420249D01*
X94812867Y-80441293D01*
X94798253Y-80460998D01*
X94781777Y-80479177D01*
X94763598Y-80495653D01*
X94743893Y-80510267D01*
X94722849Y-80522880D01*
X94700671Y-80533370D01*
X94677571Y-80541635D01*
X94653773Y-80547596D01*
X94629504Y-80551196D01*
X94605000Y-80552400D01*
X93355000Y-80552400D01*
X93330496Y-80551196D01*
X93306227Y-80547596D01*
X93282429Y-80541635D01*
X93259329Y-80533370D01*
X93237151Y-80522880D01*
X93216107Y-80510267D01*
X93196402Y-80495653D01*
X93178223Y-80479177D01*
X93161747Y-80460998D01*
X93147133Y-80441293D01*
X93134520Y-80420249D01*
X93124030Y-80398071D01*
X93115765Y-80374971D01*
X93109804Y-80351173D01*
X93106204Y-80326904D01*
X93105000Y-80302400D01*
X93105000Y-79377400D01*
X93106204Y-79352896D01*
X93109804Y-79328627D01*
X93115765Y-79304829D01*
X93124030Y-79281729D01*
X93134520Y-79259551D01*
X93147133Y-79238507D01*
X93161747Y-79218802D01*
X93178223Y-79200623D01*
X93196402Y-79184147D01*
X93216107Y-79169533D01*
X93237151Y-79156920D01*
X93259329Y-79146430D01*
X93282429Y-79138165D01*
X93306227Y-79132204D01*
X93330496Y-79128604D01*
X93355000Y-79127400D01*
X94605000Y-79127400D01*
X94629504Y-79128604D01*
X94629504Y-79128604D01*
G37*
D18*
G04 #@! TD*
G04 #@! TO.P,C1,1*
G04 #@! TO.N,/reg_in*
X93980000Y-79839900D03*
D15*
G04 #@! TO.N,Net-(R8-Pad2)*
G04 #@! TO.C,R8*
G36*
X108950179Y-83092144D02*
X108973234Y-83095563D01*
X108995843Y-83101227D01*
X109017787Y-83109079D01*
X109038857Y-83119044D01*
X109058848Y-83131026D01*
X109077568Y-83144910D01*
X109094838Y-83160562D01*
X109110490Y-83177832D01*
X109124374Y-83196552D01*
X109136356Y-83216543D01*
X109146321Y-83237613D01*
X109154173Y-83259557D01*
X109159837Y-83282166D01*
X109163256Y-83305221D01*
X109164400Y-83328500D01*
X109164400Y-83803500D01*
X109163256Y-83826779D01*
X109159837Y-83849834D01*
X109154173Y-83872443D01*
X109146321Y-83894387D01*
X109136356Y-83915457D01*
X109124374Y-83935448D01*
X109110490Y-83954168D01*
X109094838Y-83971438D01*
X109077568Y-83987090D01*
X109058848Y-84000974D01*
X109038857Y-84012956D01*
X109017787Y-84022921D01*
X108995843Y-84030773D01*
X108973234Y-84036437D01*
X108950179Y-84039856D01*
X108926900Y-84041000D01*
X108351900Y-84041000D01*
X108328621Y-84039856D01*
X108305566Y-84036437D01*
X108282957Y-84030773D01*
X108261013Y-84022921D01*
X108239943Y-84012956D01*
X108219952Y-84000974D01*
X108201232Y-83987090D01*
X108183962Y-83971438D01*
X108168310Y-83954168D01*
X108154426Y-83935448D01*
X108142444Y-83915457D01*
X108132479Y-83894387D01*
X108124627Y-83872443D01*
X108118963Y-83849834D01*
X108115544Y-83826779D01*
X108114400Y-83803500D01*
X108114400Y-83328500D01*
X108115544Y-83305221D01*
X108118963Y-83282166D01*
X108124627Y-83259557D01*
X108132479Y-83237613D01*
X108142444Y-83216543D01*
X108154426Y-83196552D01*
X108168310Y-83177832D01*
X108183962Y-83160562D01*
X108201232Y-83144910D01*
X108219952Y-83131026D01*
X108239943Y-83119044D01*
X108261013Y-83109079D01*
X108282957Y-83101227D01*
X108305566Y-83095563D01*
X108328621Y-83092144D01*
X108351900Y-83091000D01*
X108926900Y-83091000D01*
X108950179Y-83092144D01*
X108950179Y-83092144D01*
G37*
D16*
G04 #@! TD*
G04 #@! TO.P,R8,2*
G04 #@! TO.N,Net-(R8-Pad2)*
X108639400Y-83566000D03*
D15*
G04 #@! TO.N,VBUS*
G04 #@! TO.C,R8*
G36*
X107200179Y-83092144D02*
X107223234Y-83095563D01*
X107245843Y-83101227D01*
X107267787Y-83109079D01*
X107288857Y-83119044D01*
X107308848Y-83131026D01*
X107327568Y-83144910D01*
X107344838Y-83160562D01*
X107360490Y-83177832D01*
X107374374Y-83196552D01*
X107386356Y-83216543D01*
X107396321Y-83237613D01*
X107404173Y-83259557D01*
X107409837Y-83282166D01*
X107413256Y-83305221D01*
X107414400Y-83328500D01*
X107414400Y-83803500D01*
X107413256Y-83826779D01*
X107409837Y-83849834D01*
X107404173Y-83872443D01*
X107396321Y-83894387D01*
X107386356Y-83915457D01*
X107374374Y-83935448D01*
X107360490Y-83954168D01*
X107344838Y-83971438D01*
X107327568Y-83987090D01*
X107308848Y-84000974D01*
X107288857Y-84012956D01*
X107267787Y-84022921D01*
X107245843Y-84030773D01*
X107223234Y-84036437D01*
X107200179Y-84039856D01*
X107176900Y-84041000D01*
X106601900Y-84041000D01*
X106578621Y-84039856D01*
X106555566Y-84036437D01*
X106532957Y-84030773D01*
X106511013Y-84022921D01*
X106489943Y-84012956D01*
X106469952Y-84000974D01*
X106451232Y-83987090D01*
X106433962Y-83971438D01*
X106418310Y-83954168D01*
X106404426Y-83935448D01*
X106392444Y-83915457D01*
X106382479Y-83894387D01*
X106374627Y-83872443D01*
X106368963Y-83849834D01*
X106365544Y-83826779D01*
X106364400Y-83803500D01*
X106364400Y-83328500D01*
X106365544Y-83305221D01*
X106368963Y-83282166D01*
X106374627Y-83259557D01*
X106382479Y-83237613D01*
X106392444Y-83216543D01*
X106404426Y-83196552D01*
X106418310Y-83177832D01*
X106433962Y-83160562D01*
X106451232Y-83144910D01*
X106469952Y-83131026D01*
X106489943Y-83119044D01*
X106511013Y-83109079D01*
X106532957Y-83101227D01*
X106555566Y-83095563D01*
X106578621Y-83092144D01*
X106601900Y-83091000D01*
X107176900Y-83091000D01*
X107200179Y-83092144D01*
X107200179Y-83092144D01*
G37*
D16*
G04 #@! TD*
G04 #@! TO.P,R8,1*
G04 #@! TO.N,VBUS*
X106889400Y-83566000D03*
D15*
G04 #@! TO.N,Net-(R2-Pad2)*
G04 #@! TO.C,R2*
G36*
X98637779Y-82076144D02*
X98660834Y-82079563D01*
X98683443Y-82085227D01*
X98705387Y-82093079D01*
X98726457Y-82103044D01*
X98746448Y-82115026D01*
X98765168Y-82128910D01*
X98782438Y-82144562D01*
X98798090Y-82161832D01*
X98811974Y-82180552D01*
X98823956Y-82200543D01*
X98833921Y-82221613D01*
X98841773Y-82243557D01*
X98847437Y-82266166D01*
X98850856Y-82289221D01*
X98852000Y-82312500D01*
X98852000Y-82787500D01*
X98850856Y-82810779D01*
X98847437Y-82833834D01*
X98841773Y-82856443D01*
X98833921Y-82878387D01*
X98823956Y-82899457D01*
X98811974Y-82919448D01*
X98798090Y-82938168D01*
X98782438Y-82955438D01*
X98765168Y-82971090D01*
X98746448Y-82984974D01*
X98726457Y-82996956D01*
X98705387Y-83006921D01*
X98683443Y-83014773D01*
X98660834Y-83020437D01*
X98637779Y-83023856D01*
X98614500Y-83025000D01*
X98039500Y-83025000D01*
X98016221Y-83023856D01*
X97993166Y-83020437D01*
X97970557Y-83014773D01*
X97948613Y-83006921D01*
X97927543Y-82996956D01*
X97907552Y-82984974D01*
X97888832Y-82971090D01*
X97871562Y-82955438D01*
X97855910Y-82938168D01*
X97842026Y-82919448D01*
X97830044Y-82899457D01*
X97820079Y-82878387D01*
X97812227Y-82856443D01*
X97806563Y-82833834D01*
X97803144Y-82810779D01*
X97802000Y-82787500D01*
X97802000Y-82312500D01*
X97803144Y-82289221D01*
X97806563Y-82266166D01*
X97812227Y-82243557D01*
X97820079Y-82221613D01*
X97830044Y-82200543D01*
X97842026Y-82180552D01*
X97855910Y-82161832D01*
X97871562Y-82144562D01*
X97888832Y-82128910D01*
X97907552Y-82115026D01*
X97927543Y-82103044D01*
X97948613Y-82093079D01*
X97970557Y-82085227D01*
X97993166Y-82079563D01*
X98016221Y-82076144D01*
X98039500Y-82075000D01*
X98614500Y-82075000D01*
X98637779Y-82076144D01*
X98637779Y-82076144D01*
G37*
D16*
G04 #@! TD*
G04 #@! TO.P,R2,2*
G04 #@! TO.N,Net-(R2-Pad2)*
X98327000Y-82550000D03*
D15*
G04 #@! TO.N,/reg_in*
G04 #@! TO.C,R2*
G36*
X96887779Y-82076144D02*
X96910834Y-82079563D01*
X96933443Y-82085227D01*
X96955387Y-82093079D01*
X96976457Y-82103044D01*
X96996448Y-82115026D01*
X97015168Y-82128910D01*
X97032438Y-82144562D01*
X97048090Y-82161832D01*
X97061974Y-82180552D01*
X97073956Y-82200543D01*
X97083921Y-82221613D01*
X97091773Y-82243557D01*
X97097437Y-82266166D01*
X97100856Y-82289221D01*
X97102000Y-82312500D01*
X97102000Y-82787500D01*
X97100856Y-82810779D01*
X97097437Y-82833834D01*
X97091773Y-82856443D01*
X97083921Y-82878387D01*
X97073956Y-82899457D01*
X97061974Y-82919448D01*
X97048090Y-82938168D01*
X97032438Y-82955438D01*
X97015168Y-82971090D01*
X96996448Y-82984974D01*
X96976457Y-82996956D01*
X96955387Y-83006921D01*
X96933443Y-83014773D01*
X96910834Y-83020437D01*
X96887779Y-83023856D01*
X96864500Y-83025000D01*
X96289500Y-83025000D01*
X96266221Y-83023856D01*
X96243166Y-83020437D01*
X96220557Y-83014773D01*
X96198613Y-83006921D01*
X96177543Y-82996956D01*
X96157552Y-82984974D01*
X96138832Y-82971090D01*
X96121562Y-82955438D01*
X96105910Y-82938168D01*
X96092026Y-82919448D01*
X96080044Y-82899457D01*
X96070079Y-82878387D01*
X96062227Y-82856443D01*
X96056563Y-82833834D01*
X96053144Y-82810779D01*
X96052000Y-82787500D01*
X96052000Y-82312500D01*
X96053144Y-82289221D01*
X96056563Y-82266166D01*
X96062227Y-82243557D01*
X96070079Y-82221613D01*
X96080044Y-82200543D01*
X96092026Y-82180552D01*
X96105910Y-82161832D01*
X96121562Y-82144562D01*
X96138832Y-82128910D01*
X96157552Y-82115026D01*
X96177543Y-82103044D01*
X96198613Y-82093079D01*
X96220557Y-82085227D01*
X96243166Y-82079563D01*
X96266221Y-82076144D01*
X96289500Y-82075000D01*
X96864500Y-82075000D01*
X96887779Y-82076144D01*
X96887779Y-82076144D01*
G37*
D16*
G04 #@! TD*
G04 #@! TO.P,R2,1*
G04 #@! TO.N,/reg_in*
X96577000Y-82550000D03*
D15*
G04 #@! TO.N,EPAD*
G04 #@! TO.C,R9*
G36*
X109338905Y-78846804D02*
X109363173Y-78850404D01*
X109386972Y-78856365D01*
X109410071Y-78864630D01*
X109432250Y-78875120D01*
X109453293Y-78887732D01*
X109472999Y-78902347D01*
X109491177Y-78918823D01*
X109507653Y-78937001D01*
X109522268Y-78956707D01*
X109534880Y-78977750D01*
X109545370Y-78999929D01*
X109553635Y-79023028D01*
X109559596Y-79046827D01*
X109563196Y-79071095D01*
X109564400Y-79095599D01*
X109564400Y-79745601D01*
X109563196Y-79770105D01*
X109559596Y-79794373D01*
X109553635Y-79818172D01*
X109545370Y-79841271D01*
X109534880Y-79863450D01*
X109522268Y-79884493D01*
X109507653Y-79904199D01*
X109491177Y-79922377D01*
X109472999Y-79938853D01*
X109453293Y-79953468D01*
X109432250Y-79966080D01*
X109410071Y-79976570D01*
X109386972Y-79984835D01*
X109363173Y-79990796D01*
X109338905Y-79994396D01*
X109314401Y-79995600D01*
X108414399Y-79995600D01*
X108389895Y-79994396D01*
X108365627Y-79990796D01*
X108341828Y-79984835D01*
X108318729Y-79976570D01*
X108296550Y-79966080D01*
X108275507Y-79953468D01*
X108255801Y-79938853D01*
X108237623Y-79922377D01*
X108221147Y-79904199D01*
X108206532Y-79884493D01*
X108193920Y-79863450D01*
X108183430Y-79841271D01*
X108175165Y-79818172D01*
X108169204Y-79794373D01*
X108165604Y-79770105D01*
X108164400Y-79745601D01*
X108164400Y-79095599D01*
X108165604Y-79071095D01*
X108169204Y-79046827D01*
X108175165Y-79023028D01*
X108183430Y-78999929D01*
X108193920Y-78977750D01*
X108206532Y-78956707D01*
X108221147Y-78937001D01*
X108237623Y-78918823D01*
X108255801Y-78902347D01*
X108275507Y-78887732D01*
X108296550Y-78875120D01*
X108318729Y-78864630D01*
X108341828Y-78856365D01*
X108365627Y-78850404D01*
X108389895Y-78846804D01*
X108414399Y-78845600D01*
X109314401Y-78845600D01*
X109338905Y-78846804D01*
X109338905Y-78846804D01*
G37*
D17*
G04 #@! TD*
G04 #@! TO.P,R9,2*
G04 #@! TO.N,EPAD*
X108864400Y-79420600D03*
D15*
G04 #@! TO.N,Net-(R8-Pad2)*
G04 #@! TO.C,R9*
G36*
X109338905Y-80896804D02*
X109363173Y-80900404D01*
X109386972Y-80906365D01*
X109410071Y-80914630D01*
X109432250Y-80925120D01*
X109453293Y-80937732D01*
X109472999Y-80952347D01*
X109491177Y-80968823D01*
X109507653Y-80987001D01*
X109522268Y-81006707D01*
X109534880Y-81027750D01*
X109545370Y-81049929D01*
X109553635Y-81073028D01*
X109559596Y-81096827D01*
X109563196Y-81121095D01*
X109564400Y-81145599D01*
X109564400Y-81795601D01*
X109563196Y-81820105D01*
X109559596Y-81844373D01*
X109553635Y-81868172D01*
X109545370Y-81891271D01*
X109534880Y-81913450D01*
X109522268Y-81934493D01*
X109507653Y-81954199D01*
X109491177Y-81972377D01*
X109472999Y-81988853D01*
X109453293Y-82003468D01*
X109432250Y-82016080D01*
X109410071Y-82026570D01*
X109386972Y-82034835D01*
X109363173Y-82040796D01*
X109338905Y-82044396D01*
X109314401Y-82045600D01*
X108414399Y-82045600D01*
X108389895Y-82044396D01*
X108365627Y-82040796D01*
X108341828Y-82034835D01*
X108318729Y-82026570D01*
X108296550Y-82016080D01*
X108275507Y-82003468D01*
X108255801Y-81988853D01*
X108237623Y-81972377D01*
X108221147Y-81954199D01*
X108206532Y-81934493D01*
X108193920Y-81913450D01*
X108183430Y-81891271D01*
X108175165Y-81868172D01*
X108169204Y-81844373D01*
X108165604Y-81820105D01*
X108164400Y-81795601D01*
X108164400Y-81145599D01*
X108165604Y-81121095D01*
X108169204Y-81096827D01*
X108175165Y-81073028D01*
X108183430Y-81049929D01*
X108193920Y-81027750D01*
X108206532Y-81006707D01*
X108221147Y-80987001D01*
X108237623Y-80968823D01*
X108255801Y-80952347D01*
X108275507Y-80937732D01*
X108296550Y-80925120D01*
X108318729Y-80914630D01*
X108341828Y-80906365D01*
X108365627Y-80900404D01*
X108389895Y-80896804D01*
X108414399Y-80895600D01*
X109314401Y-80895600D01*
X109338905Y-80896804D01*
X109338905Y-80896804D01*
G37*
D17*
G04 #@! TD*
G04 #@! TO.P,R9,1*
G04 #@! TO.N,Net-(R8-Pad2)*
X108864400Y-81470600D03*
D19*
G04 #@! TO.P,R1,2*
G04 #@! TO.N,Net-(D1-Pad2)*
X90170000Y-59791600D03*
D20*
G04 #@! TO.P,R1,1*
G04 #@! TO.N,VBUS*
X90170000Y-69951600D03*
G04 #@! TD*
D21*
G04 #@! TO.P,D1,1*
G04 #@! TO.N,EPAD*
X91338400Y-56134000D03*
D22*
G04 #@! TO.P,D1,2*
G04 #@! TO.N,Net-(D1-Pad2)*
X88798400Y-56134000D03*
G04 #@! TD*
D23*
G04 #@! TO.P,J1,2*
G04 #@! TO.N,EPAD*
X90525600Y-73456800D03*
D24*
G04 #@! TO.P,J1,1*
G04 #@! TO.N,Net-(F1-Pad2)*
X90525600Y-75996800D03*
G04 #@! TD*
D25*
G04 #@! TO.P,U1,1*
G04 #@! TO.N,Net-(C2-Pad1)*
X101163001Y-78187001D03*
G04 #@! TO.P,U1,2*
G04 #@! TO.N,/reg_in*
X101163001Y-79457001D03*
G04 #@! TO.P,U1,3*
X101163001Y-80727001D03*
G04 #@! TO.P,U1,4*
G04 #@! TO.N,Net-(R2-Pad2)*
X101163001Y-81997001D03*
G04 #@! TO.P,U1,5*
G04 #@! TO.N,Net-(R8-Pad2)*
X106563001Y-81997001D03*
G04 #@! TO.P,U1,6*
G04 #@! TO.N,Net-(U1-Pad6)*
X106563001Y-80727001D03*
G04 #@! TO.P,U1,7*
G04 #@! TO.N,EPAD*
X106563001Y-79457001D03*
G04 #@! TO.P,U1,8*
G04 #@! TO.N,/SWN*
X106563001Y-78187001D03*
D26*
G04 #@! TO.P,U1,9*
G04 #@! TO.N,EPAD*
X104450501Y-80679501D03*
X104450501Y-79504501D03*
X103275501Y-80679501D03*
X103275501Y-79504501D03*
G04 #@! TD*
D27*
G04 #@! TO.N,VBUS*
X93218000Y-68884800D03*
X103378000Y-83566000D03*
G04 #@! TO.N,EPAD*
X93345000Y-71882000D03*
X99187000Y-71882000D03*
X96647000Y-76835000D03*
X101219000Y-75565000D03*
X103759000Y-75565000D03*
X103759000Y-77978000D03*
D28*
G04 #@! TO.N,/reg_in*
X91694000Y-80264000D03*
D27*
G04 #@! TO.N,Net-(C2-Pad1)*
X99314000Y-77597000D03*
X108864400Y-77266800D03*
G04 #@! TD*
D29*
G04 #@! TO.N,VBUS*
X92506800Y-69596000D02*
X93218000Y-68884800D01*
X92151200Y-69951600D02*
X92506800Y-69596000D01*
X90170000Y-69951600D02*
X92151200Y-69951600D01*
D30*
X97592000Y-58844000D02*
X95207000Y-58844000D01*
X93218000Y-60833000D02*
X93218000Y-68884800D01*
X95207000Y-58844000D02*
X93218000Y-60833000D01*
D31*
X104276025Y-83566000D02*
X103378000Y-83566000D01*
X106664400Y-83515200D02*
X106613600Y-83566000D01*
X106613600Y-83566000D02*
X104276025Y-83566000D01*
D32*
G04 #@! TO.N,Net-(D1-Pad2)*
X88900000Y-58521600D02*
X90170000Y-59791600D01*
X88900000Y-56134000D02*
X88900000Y-58521600D01*
D29*
G04 #@! TO.N,EPAD*
X103275501Y-79504501D02*
X104450501Y-79504501D01*
X104450501Y-79504501D02*
X104450501Y-80679501D01*
X104450501Y-80679501D02*
X103275501Y-80679501D01*
X106515501Y-79504501D02*
X106563001Y-79457001D01*
X102802000Y-72898000D02*
X102202000Y-72898000D01*
D31*
X104498001Y-79457001D02*
X104450501Y-79504501D01*
X106563001Y-79457001D02*
X104498001Y-79457001D01*
X106568802Y-79451200D02*
X106563001Y-79457001D01*
X108508800Y-79451200D02*
X106568802Y-79451200D01*
X108864400Y-79095600D02*
X108508800Y-79451200D01*
D32*
G04 #@! TO.N,Net-(R2-Pad2)*
X100610002Y-82550000D02*
X101163001Y-81997001D01*
X98552000Y-82550000D02*
X100610002Y-82550000D01*
G04 #@! TO.N,Net-(C2-Pad1)*
X101055600Y-78079600D02*
X101163001Y-78187001D01*
D31*
X101163001Y-78187001D02*
X99753001Y-78187001D01*
X99314000Y-77748000D02*
X99314000Y-77597000D01*
X99753001Y-78187001D02*
X99314000Y-77748000D01*
X108580000Y-76982400D02*
X108864400Y-77266800D01*
X108580000Y-75895200D02*
X108580000Y-76982400D01*
D32*
G04 #@! TO.N,Net-(R8-Pad2)*
X108662999Y-81997001D02*
X108864400Y-81795600D01*
X106563001Y-81997001D02*
X108662999Y-81997001D01*
X108864400Y-83515200D02*
X108864400Y-81795600D01*
G04 #@! TD*
G04 #@! TO.N,/SWN*
G36*
X109373601Y-74955400D02*
X109303678Y-74955400D01*
X109131152Y-74840122D01*
X108792500Y-74772760D01*
X108217500Y-74772760D01*
X107878848Y-74840122D01*
X107706323Y-74955400D01*
X107645200Y-74955400D01*
X107596599Y-74965067D01*
X107555397Y-74992597D01*
X107527867Y-75033799D01*
X107518200Y-75082400D01*
X107518200Y-75142033D01*
X107399922Y-75319048D01*
X107332560Y-75657700D01*
X107332560Y-76132700D01*
X107399922Y-76471352D01*
X107518200Y-76648367D01*
X107518200Y-78460600D01*
X105791000Y-78460600D01*
X105791000Y-62661800D01*
X109373600Y-62661800D01*
X109373601Y-74955400D01*
X109373601Y-74955400D01*
G37*
X109373601Y-74955400D02*
X109303678Y-74955400D01*
X109131152Y-74840122D01*
X108792500Y-74772760D01*
X108217500Y-74772760D01*
X107878848Y-74840122D01*
X107706323Y-74955400D01*
X107645200Y-74955400D01*
X107596599Y-74965067D01*
X107555397Y-74992597D01*
X107527867Y-75033799D01*
X107518200Y-75082400D01*
X107518200Y-75142033D01*
X107399922Y-75319048D01*
X107332560Y-75657700D01*
X107332560Y-76132700D01*
X107399922Y-76471352D01*
X107518200Y-76648367D01*
X107518200Y-78460600D01*
X105791000Y-78460600D01*
X105791000Y-62661800D01*
X109373600Y-62661800D01*
X109373601Y-74955400D01*
G04 #@! TO.N,/reg_in*
G36*
X99381354Y-79084236D02*
X99659191Y-79139501D01*
X99753000Y-79158161D01*
X99846809Y-79139501D01*
X101256811Y-79139501D01*
X101282249Y-79134441D01*
X101930200Y-79134441D01*
X101930200Y-81049561D01*
X100388001Y-81049561D01*
X100140236Y-81098844D01*
X99983159Y-81203800D01*
X97383600Y-81203800D01*
X97334999Y-81213467D01*
X97293797Y-81240997D01*
X97266267Y-81282199D01*
X97256600Y-81330800D01*
X97256600Y-81921949D01*
X97221922Y-81973848D01*
X97154560Y-82312500D01*
X97154560Y-82787500D01*
X97221922Y-83126152D01*
X97256600Y-83178051D01*
X97256600Y-83719600D01*
X88238400Y-83719600D01*
X88238400Y-78968600D01*
X99208292Y-78968600D01*
X99381354Y-79084236D01*
X99381354Y-79084236D01*
G37*
X99381354Y-79084236D02*
X99659191Y-79139501D01*
X99753000Y-79158161D01*
X99846809Y-79139501D01*
X101256811Y-79139501D01*
X101282249Y-79134441D01*
X101930200Y-79134441D01*
X101930200Y-81049561D01*
X100388001Y-81049561D01*
X100140236Y-81098844D01*
X99983159Y-81203800D01*
X97383600Y-81203800D01*
X97334999Y-81213467D01*
X97293797Y-81240997D01*
X97266267Y-81282199D01*
X97256600Y-81330800D01*
X97256600Y-81921949D01*
X97221922Y-81973848D01*
X97154560Y-82312500D01*
X97154560Y-82787500D01*
X97221922Y-83126152D01*
X97256600Y-83178051D01*
X97256600Y-83719600D01*
X88238400Y-83719600D01*
X88238400Y-78968600D01*
X99208292Y-78968600D01*
X99381354Y-79084236D01*
G04 #@! TO.N,EPAD*
G36*
X104978200Y-76829346D02*
X100351846Y-76838795D01*
X100033397Y-76520346D01*
X99566619Y-76327000D01*
X99061381Y-76327000D01*
X98594603Y-76520346D01*
X98237346Y-76877603D01*
X98044000Y-77344381D01*
X98044000Y-77849619D01*
X98086656Y-77952600D01*
X92379800Y-77952600D01*
X92379800Y-74726800D01*
X92370133Y-74678199D01*
X92342603Y-74636997D01*
X92301401Y-74609467D01*
X92252800Y-74599800D01*
X91699926Y-74599800D01*
X91623365Y-74548643D01*
X91375600Y-74499360D01*
X89675600Y-74499360D01*
X89427835Y-74548643D01*
X89351274Y-74599800D01*
X88238400Y-74599800D01*
X88238400Y-71755000D01*
X92608400Y-71755000D01*
X92657001Y-71745333D01*
X92698203Y-71717803D01*
X92725733Y-71676601D01*
X92735400Y-71628000D01*
X92735400Y-70739000D01*
X104978200Y-70739000D01*
X104978200Y-76829346D01*
X104978200Y-76829346D01*
G37*
X104978200Y-76829346D02*
X100351846Y-76838795D01*
X100033397Y-76520346D01*
X99566619Y-76327000D01*
X99061381Y-76327000D01*
X98594603Y-76520346D01*
X98237346Y-76877603D01*
X98044000Y-77344381D01*
X98044000Y-77849619D01*
X98086656Y-77952600D01*
X92379800Y-77952600D01*
X92379800Y-74726800D01*
X92370133Y-74678199D01*
X92342603Y-74636997D01*
X92301401Y-74609467D01*
X92252800Y-74599800D01*
X91699926Y-74599800D01*
X91623365Y-74548643D01*
X91375600Y-74499360D01*
X89675600Y-74499360D01*
X89427835Y-74548643D01*
X89351274Y-74599800D01*
X88238400Y-74599800D01*
X88238400Y-71755000D01*
X92608400Y-71755000D01*
X92657001Y-71745333D01*
X92698203Y-71717803D01*
X92725733Y-71676601D01*
X92735400Y-71628000D01*
X92735400Y-70739000D01*
X104978200Y-70739000D01*
X104978200Y-76829346D01*
G36*
X104978200Y-81915000D02*
X102743000Y-81915000D01*
X102743000Y-75565000D01*
X104978200Y-75565000D01*
X104978200Y-81915000D01*
X104978200Y-81915000D01*
G37*
X104978200Y-81915000D02*
X102743000Y-81915000D01*
X102743000Y-75565000D01*
X104978200Y-75565000D01*
X104978200Y-81915000D01*
G04 #@! TO.N,VBUS*
G36*
X102235000Y-69578770D02*
X96300090Y-69570843D01*
X96299860Y-69570843D01*
X92075000Y-69572844D01*
X92075000Y-62661800D01*
X102235000Y-62661800D01*
X102235000Y-69578770D01*
X102235000Y-69578770D01*
G37*
X102235000Y-69578770D02*
X96300090Y-69570843D01*
X96299860Y-69570843D01*
X92075000Y-69572844D01*
X92075000Y-62661800D01*
X102235000Y-62661800D01*
X102235000Y-69578770D01*
G04 #@! TD*
M02*
