G04 #@! TF.GenerationSoftware,KiCad,Pcbnew,(5.0.0-3-g5ebb6b6)*
G04 #@! TF.CreationDate,2018-09-18T15:00:12-07:00*
G04 #@! TF.ProjectId,phone_charger,70686F6E655F636861726765722E6B69,rev?*
G04 #@! TF.SameCoordinates,Original*
G04 #@! TF.FileFunction,Legend,Bot*
G04 #@! TF.FilePolarity,Positive*
%FSLAX46Y46*%
G04 Gerber Fmt 4.6, Leading zero omitted, Abs format (unit mm)*
G04 Created by KiCad (PCBNEW (5.0.0-3-g5ebb6b6)) date Tuesday, September 18, 2018 at 03:00:12 PM*
%MOMM*%
%LPD*%
G01*
G04 APERTURE LIST*
%ADD10C,0.100000*%
%ADD11C,0.120000*%
%ADD12C,0.150000*%
G04 APERTURE END LIST*
D10*
G04 #@! TO.C,J2*
X107682200Y-61091000D02*
X107682200Y-60366000D01*
X106732200Y-61091000D02*
X107682200Y-61091000D01*
X94332200Y-61091000D02*
X94332200Y-60291000D01*
X95357200Y-61091000D02*
X94332200Y-61091000D01*
X107682200Y-47741000D02*
X106982200Y-47741000D01*
X107682200Y-48391000D02*
X107682200Y-47741000D01*
X94317200Y-47752000D02*
X94317200Y-48427000D01*
X95292200Y-47752000D02*
X94317200Y-47752000D01*
D11*
G04 #@! TO.C,D2*
X89474800Y-78497600D02*
X91474800Y-78497600D01*
X91474800Y-78497600D02*
X91474800Y-82397600D01*
X89474800Y-78497600D02*
X89474800Y-82397600D01*
G04 #@! TO.C,F1*
X99417600Y-81580400D02*
X99417600Y-74460400D01*
X93317600Y-81580400D02*
X93317600Y-74460400D01*
G04 #@! TO.C,D1*
X91705808Y-70920865D02*
G75*
G02X91862716Y-74153200I-1078608J-1672335D01*
G01*
X89548592Y-70920865D02*
G75*
G03X89391684Y-74153200I1078608J-1672335D01*
G01*
X91707037Y-71552070D02*
G75*
G02X91707200Y-73634161I-1079837J-1041130D01*
G01*
X89547363Y-71552070D02*
G75*
G03X89547200Y-73634161I1079837J-1041130D01*
G01*
X91863200Y-74153200D02*
X91707200Y-74153200D01*
X89547200Y-74153200D02*
X89391200Y-74153200D01*
G04 #@! TO.C,R7*
X101472800Y-63378800D02*
X100472800Y-63378800D01*
X100472800Y-64738800D02*
X101472800Y-64738800D01*
G04 #@! TO.C,R5*
X98714000Y-65715600D02*
X97714000Y-65715600D01*
X97714000Y-67075600D02*
X98714000Y-67075600D01*
G04 #@! TO.C,R6*
X104362800Y-65464800D02*
X103162800Y-65464800D01*
X103162800Y-67224800D02*
X104362800Y-67224800D01*
G04 #@! TO.C,R4*
X104362800Y-67852400D02*
X103162800Y-67852400D01*
X103162800Y-69612400D02*
X104362800Y-69612400D01*
G04 #@! TO.C,R3*
X98927200Y-67750800D02*
X97727200Y-67750800D01*
X97727200Y-69510800D02*
X98927200Y-69510800D01*
G04 #@! TO.C,R1*
X88713200Y-58076400D02*
X92033200Y-58076400D01*
X92033200Y-58076400D02*
X92033200Y-67196400D01*
X92033200Y-67196400D02*
X88713200Y-67196400D01*
X88713200Y-67196400D02*
X88713200Y-58076400D01*
X90373200Y-57266400D02*
X90373200Y-58076400D01*
X90373200Y-68006400D02*
X90373200Y-67196400D01*
G04 #@! TO.C,J2*
D12*
X101265533Y-62543380D02*
X101265533Y-63257666D01*
X101313152Y-63400523D01*
X101408390Y-63495761D01*
X101551247Y-63543380D01*
X101646485Y-63543380D01*
X100836961Y-62638619D02*
X100789342Y-62591000D01*
X100694104Y-62543380D01*
X100456009Y-62543380D01*
X100360771Y-62591000D01*
X100313152Y-62638619D01*
X100265533Y-62733857D01*
X100265533Y-62829095D01*
X100313152Y-62971952D01*
X100884580Y-63543380D01*
X100265533Y-63543380D01*
G04 #@! TO.C,D2*
X88927180Y-80009504D02*
X87927180Y-80009504D01*
X87927180Y-80247600D01*
X87974800Y-80390457D01*
X88070038Y-80485695D01*
X88165276Y-80533314D01*
X88355752Y-80580933D01*
X88498609Y-80580933D01*
X88689085Y-80533314D01*
X88784323Y-80485695D01*
X88879561Y-80390457D01*
X88927180Y-80247600D01*
X88927180Y-80009504D01*
X88022419Y-80961885D02*
X87974800Y-81009504D01*
X87927180Y-81104742D01*
X87927180Y-81342838D01*
X87974800Y-81438076D01*
X88022419Y-81485695D01*
X88117657Y-81533314D01*
X88212895Y-81533314D01*
X88355752Y-81485695D01*
X88927180Y-80914266D01*
X88927180Y-81533314D01*
G04 #@! TO.C,F1*
X100426171Y-77687066D02*
X100426171Y-77353733D01*
X100949980Y-77353733D02*
X99949980Y-77353733D01*
X99949980Y-77829923D01*
X100949980Y-78734685D02*
X100949980Y-78163257D01*
X100949980Y-78448971D02*
X99949980Y-78448971D01*
X100092838Y-78353733D01*
X100188076Y-78258495D01*
X100235695Y-78163257D01*
G04 #@! TO.C,D1*
X94039580Y-71855104D02*
X93039580Y-71855104D01*
X93039580Y-72093200D01*
X93087200Y-72236057D01*
X93182438Y-72331295D01*
X93277676Y-72378914D01*
X93468152Y-72426533D01*
X93611009Y-72426533D01*
X93801485Y-72378914D01*
X93896723Y-72331295D01*
X93991961Y-72236057D01*
X94039580Y-72093200D01*
X94039580Y-71855104D01*
X94039580Y-73378914D02*
X94039580Y-72807485D01*
X94039580Y-73093200D02*
X93039580Y-73093200D01*
X93182438Y-72997961D01*
X93277676Y-72902723D01*
X93325295Y-72807485D01*
G04 #@! TO.C,R7*
X101139466Y-65961180D02*
X101472800Y-65484990D01*
X101710895Y-65961180D02*
X101710895Y-64961180D01*
X101329942Y-64961180D01*
X101234704Y-65008800D01*
X101187085Y-65056419D01*
X101139466Y-65151657D01*
X101139466Y-65294514D01*
X101187085Y-65389752D01*
X101234704Y-65437371D01*
X101329942Y-65484990D01*
X101710895Y-65484990D01*
X100806133Y-64961180D02*
X100139466Y-64961180D01*
X100568038Y-65961180D01*
G04 #@! TO.C,R5*
X98380666Y-68297980D02*
X98714000Y-67821790D01*
X98952095Y-68297980D02*
X98952095Y-67297980D01*
X98571142Y-67297980D01*
X98475904Y-67345600D01*
X98428285Y-67393219D01*
X98380666Y-67488457D01*
X98380666Y-67631314D01*
X98428285Y-67726552D01*
X98475904Y-67774171D01*
X98571142Y-67821790D01*
X98952095Y-67821790D01*
X97475904Y-67297980D02*
X97952095Y-67297980D01*
X97999714Y-67774171D01*
X97952095Y-67726552D01*
X97856857Y-67678933D01*
X97618761Y-67678933D01*
X97523523Y-67726552D01*
X97475904Y-67774171D01*
X97428285Y-67869409D01*
X97428285Y-68107504D01*
X97475904Y-68202742D01*
X97523523Y-68250361D01*
X97618761Y-68297980D01*
X97856857Y-68297980D01*
X97952095Y-68250361D01*
X97999714Y-68202742D01*
G04 #@! TO.C,R6*
X103929466Y-68497180D02*
X104262800Y-68020990D01*
X104500895Y-68497180D02*
X104500895Y-67497180D01*
X104119942Y-67497180D01*
X104024704Y-67544800D01*
X103977085Y-67592419D01*
X103929466Y-67687657D01*
X103929466Y-67830514D01*
X103977085Y-67925752D01*
X104024704Y-67973371D01*
X104119942Y-68020990D01*
X104500895Y-68020990D01*
X103072323Y-67497180D02*
X103262800Y-67497180D01*
X103358038Y-67544800D01*
X103405657Y-67592419D01*
X103500895Y-67735276D01*
X103548514Y-67925752D01*
X103548514Y-68306704D01*
X103500895Y-68401942D01*
X103453276Y-68449561D01*
X103358038Y-68497180D01*
X103167561Y-68497180D01*
X103072323Y-68449561D01*
X103024704Y-68401942D01*
X102977085Y-68306704D01*
X102977085Y-68068609D01*
X103024704Y-67973371D01*
X103072323Y-67925752D01*
X103167561Y-67878133D01*
X103358038Y-67878133D01*
X103453276Y-67925752D01*
X103500895Y-67973371D01*
X103548514Y-68068609D01*
G04 #@! TO.C,R4*
X103929466Y-70884780D02*
X104262800Y-70408590D01*
X104500895Y-70884780D02*
X104500895Y-69884780D01*
X104119942Y-69884780D01*
X104024704Y-69932400D01*
X103977085Y-69980019D01*
X103929466Y-70075257D01*
X103929466Y-70218114D01*
X103977085Y-70313352D01*
X104024704Y-70360971D01*
X104119942Y-70408590D01*
X104500895Y-70408590D01*
X103072323Y-70218114D02*
X103072323Y-70884780D01*
X103310419Y-69837161D02*
X103548514Y-70551447D01*
X102929466Y-70551447D01*
G04 #@! TO.C,R3*
X98493866Y-70783180D02*
X98827200Y-70306990D01*
X99065295Y-70783180D02*
X99065295Y-69783180D01*
X98684342Y-69783180D01*
X98589104Y-69830800D01*
X98541485Y-69878419D01*
X98493866Y-69973657D01*
X98493866Y-70116514D01*
X98541485Y-70211752D01*
X98589104Y-70259371D01*
X98684342Y-70306990D01*
X99065295Y-70306990D01*
X98160533Y-69783180D02*
X97541485Y-69783180D01*
X97874819Y-70164133D01*
X97731961Y-70164133D01*
X97636723Y-70211752D01*
X97589104Y-70259371D01*
X97541485Y-70354609D01*
X97541485Y-70592704D01*
X97589104Y-70687942D01*
X97636723Y-70735561D01*
X97731961Y-70783180D01*
X98017676Y-70783180D01*
X98112914Y-70735561D01*
X98160533Y-70687942D01*
G04 #@! TO.C,R1*
X88165580Y-62469733D02*
X87689390Y-62136400D01*
X88165580Y-61898304D02*
X87165580Y-61898304D01*
X87165580Y-62279257D01*
X87213200Y-62374495D01*
X87260819Y-62422114D01*
X87356057Y-62469733D01*
X87498914Y-62469733D01*
X87594152Y-62422114D01*
X87641771Y-62374495D01*
X87689390Y-62279257D01*
X87689390Y-61898304D01*
X88165580Y-63422114D02*
X88165580Y-62850685D01*
X88165580Y-63136400D02*
X87165580Y-63136400D01*
X87308438Y-63041161D01*
X87403676Y-62945923D01*
X87451295Y-62850685D01*
G04 #@! TD*
M02*
