G04 #@! TF.GenerationSoftware,KiCad,Pcbnew,(5.0.0-3-g5ebb6b6)*
G04 #@! TF.CreationDate,2018-09-18T15:00:12-07:00*
G04 #@! TF.ProjectId,phone_charger,70686F6E655F636861726765722E6B69,rev?*
G04 #@! TF.SameCoordinates,Original*
G04 #@! TF.FileFunction,Legend,Top*
G04 #@! TF.FilePolarity,Positive*
%FSLAX46Y46*%
G04 Gerber Fmt 4.6, Leading zero omitted, Abs format (unit mm)*
G04 Created by KiCad (PCBNEW (5.0.0-3-g5ebb6b6)) date Tuesday, September 18, 2018 at 03:00:12 PM*
%MOMM*%
%LPD*%
G01*
G04 APERTURE LIST*
%ADD10C,0.150000*%
%ADD11C,0.120000*%
G04 APERTURE END LIST*
D10*
G04 #@! TO.C,U1*
X101788001Y-77517001D02*
X101788001Y-77567001D01*
X105938001Y-77517001D02*
X105938001Y-77662001D01*
X105938001Y-82667001D02*
X105938001Y-82522001D01*
X101788001Y-82667001D02*
X101788001Y-82522001D01*
X101788001Y-77517001D02*
X105938001Y-77517001D01*
X101788001Y-82667001D02*
X105938001Y-82667001D01*
X101788001Y-77567001D02*
X100388001Y-77567001D01*
D11*
G04 #@! TO.C,C2*
X107980000Y-77003200D02*
X107280000Y-77003200D01*
X107280000Y-75803200D02*
X107980000Y-75803200D01*
G04 #@! TO.C,C4*
X98132000Y-70787200D02*
X98132000Y-69787200D01*
X96432000Y-69787200D02*
X96432000Y-70787200D01*
G04 #@! TO.C,C3*
X96049200Y-70787200D02*
X96049200Y-69787200D01*
X94349200Y-69787200D02*
X94349200Y-70787200D01*
G04 #@! TO.C,C1*
X92960000Y-77352400D02*
X92960000Y-79352400D01*
X95000000Y-79352400D02*
X95000000Y-77352400D01*
G04 #@! TO.C,D3*
X109502000Y-75048000D02*
X109502000Y-70748000D01*
X109502000Y-70748000D02*
X102202000Y-70748000D01*
X109502000Y-75048000D02*
X102202000Y-75048000D01*
G04 #@! TO.C,J1*
X91169800Y-75605200D02*
X90869293Y-75605200D01*
X90080307Y-75605200D02*
X89779800Y-75605200D01*
X91169800Y-76480200D02*
X91169800Y-75605200D01*
X89779800Y-76480200D02*
X89779800Y-75605200D01*
X91169800Y-76480200D02*
X91083076Y-76480200D01*
X89866524Y-76480200D02*
X89779800Y-76480200D01*
X91169800Y-77165200D02*
X91169800Y-77850200D01*
X91169800Y-77850200D02*
X90474800Y-77850200D01*
G04 #@! TO.C,R2*
X97952000Y-83230000D02*
X96952000Y-83230000D01*
X96952000Y-81870000D02*
X97952000Y-81870000D01*
G04 #@! TO.C,U1*
D10*
X103101096Y-76044381D02*
X103101096Y-76853905D01*
X103148715Y-76949143D01*
X103196334Y-76996762D01*
X103291572Y-77044381D01*
X103482048Y-77044381D01*
X103577286Y-76996762D01*
X103624905Y-76949143D01*
X103672524Y-76853905D01*
X103672524Y-76044381D01*
X104672524Y-77044381D02*
X104101096Y-77044381D01*
X104386810Y-77044381D02*
X104386810Y-76044381D01*
X104291572Y-76187239D01*
X104196334Y-76282477D01*
X104101096Y-76330096D01*
G04 #@! TO.C,C2*
X107463333Y-78010342D02*
X107415714Y-78057961D01*
X107272857Y-78105580D01*
X107177619Y-78105580D01*
X107034761Y-78057961D01*
X106939523Y-77962723D01*
X106891904Y-77867485D01*
X106844285Y-77677009D01*
X106844285Y-77534152D01*
X106891904Y-77343676D01*
X106939523Y-77248438D01*
X107034761Y-77153200D01*
X107177619Y-77105580D01*
X107272857Y-77105580D01*
X107415714Y-77153200D01*
X107463333Y-77200819D01*
X107844285Y-77200819D02*
X107891904Y-77153200D01*
X107987142Y-77105580D01*
X108225238Y-77105580D01*
X108320476Y-77153200D01*
X108368095Y-77200819D01*
X108415714Y-77296057D01*
X108415714Y-77391295D01*
X108368095Y-77534152D01*
X107796666Y-78105580D01*
X108415714Y-78105580D01*
G04 #@! TO.C,C4*
X99389142Y-70453866D02*
X99436761Y-70501485D01*
X99484380Y-70644342D01*
X99484380Y-70739580D01*
X99436761Y-70882438D01*
X99341523Y-70977676D01*
X99246285Y-71025295D01*
X99055809Y-71072914D01*
X98912952Y-71072914D01*
X98722476Y-71025295D01*
X98627238Y-70977676D01*
X98532000Y-70882438D01*
X98484380Y-70739580D01*
X98484380Y-70644342D01*
X98532000Y-70501485D01*
X98579619Y-70453866D01*
X98817714Y-69596723D02*
X99484380Y-69596723D01*
X98436761Y-69834819D02*
X99151047Y-70072914D01*
X99151047Y-69453866D01*
G04 #@! TO.C,C3*
X97306342Y-70453866D02*
X97353961Y-70501485D01*
X97401580Y-70644342D01*
X97401580Y-70739580D01*
X97353961Y-70882438D01*
X97258723Y-70977676D01*
X97163485Y-71025295D01*
X96973009Y-71072914D01*
X96830152Y-71072914D01*
X96639676Y-71025295D01*
X96544438Y-70977676D01*
X96449200Y-70882438D01*
X96401580Y-70739580D01*
X96401580Y-70644342D01*
X96449200Y-70501485D01*
X96496819Y-70453866D01*
X96401580Y-70120533D02*
X96401580Y-69501485D01*
X96782533Y-69834819D01*
X96782533Y-69691961D01*
X96830152Y-69596723D01*
X96877771Y-69549104D01*
X96973009Y-69501485D01*
X97211104Y-69501485D01*
X97306342Y-69549104D01*
X97353961Y-69596723D01*
X97401580Y-69691961D01*
X97401580Y-69977676D01*
X97353961Y-70072914D01*
X97306342Y-70120533D01*
G04 #@! TO.C,C1*
X92587142Y-78519066D02*
X92634761Y-78566685D01*
X92682380Y-78709542D01*
X92682380Y-78804780D01*
X92634761Y-78947638D01*
X92539523Y-79042876D01*
X92444285Y-79090495D01*
X92253809Y-79138114D01*
X92110952Y-79138114D01*
X91920476Y-79090495D01*
X91825238Y-79042876D01*
X91730000Y-78947638D01*
X91682380Y-78804780D01*
X91682380Y-78709542D01*
X91730000Y-78566685D01*
X91777619Y-78519066D01*
X92682380Y-77566685D02*
X92682380Y-78138114D01*
X92682380Y-77852400D02*
X91682380Y-77852400D01*
X91825238Y-77947638D01*
X91920476Y-78042876D01*
X91968095Y-78138114D01*
G04 #@! TO.C,D3*
X104163904Y-76350380D02*
X104163904Y-75350380D01*
X104402000Y-75350380D01*
X104544857Y-75398000D01*
X104640095Y-75493238D01*
X104687714Y-75588476D01*
X104735333Y-75778952D01*
X104735333Y-75921809D01*
X104687714Y-76112285D01*
X104640095Y-76207523D01*
X104544857Y-76302761D01*
X104402000Y-76350380D01*
X104163904Y-76350380D01*
X105068666Y-75350380D02*
X105687714Y-75350380D01*
X105354380Y-75731333D01*
X105497238Y-75731333D01*
X105592476Y-75778952D01*
X105640095Y-75826571D01*
X105687714Y-75921809D01*
X105687714Y-76159904D01*
X105640095Y-76255142D01*
X105592476Y-76302761D01*
X105497238Y-76350380D01*
X105211523Y-76350380D01*
X105116285Y-76302761D01*
X105068666Y-76255142D01*
G04 #@! TO.C,J1*
X90141466Y-78177580D02*
X90141466Y-78891866D01*
X90093847Y-79034723D01*
X89998609Y-79129961D01*
X89855752Y-79177580D01*
X89760514Y-79177580D01*
X91141466Y-79177580D02*
X90570038Y-79177580D01*
X90855752Y-79177580D02*
X90855752Y-78177580D01*
X90760514Y-78320438D01*
X90665276Y-78415676D01*
X90570038Y-78463295D01*
G04 #@! TO.C,R2*
X97285333Y-81552380D02*
X96952000Y-81076190D01*
X96713904Y-81552380D02*
X96713904Y-80552380D01*
X97094857Y-80552380D01*
X97190095Y-80600000D01*
X97237714Y-80647619D01*
X97285333Y-80742857D01*
X97285333Y-80885714D01*
X97237714Y-80980952D01*
X97190095Y-81028571D01*
X97094857Y-81076190D01*
X96713904Y-81076190D01*
X97666285Y-80647619D02*
X97713904Y-80600000D01*
X97809142Y-80552380D01*
X98047238Y-80552380D01*
X98142476Y-80600000D01*
X98190095Y-80647619D01*
X98237714Y-80742857D01*
X98237714Y-80838095D01*
X98190095Y-80980952D01*
X97618666Y-81552380D01*
X98237714Y-81552380D01*
G04 #@! TO.C,L1*
X103617733Y-65773180D02*
X103141542Y-65773180D01*
X103141542Y-64773180D01*
X104474876Y-65773180D02*
X103903447Y-65773180D01*
X104189161Y-65773180D02*
X104189161Y-64773180D01*
X104093923Y-64916038D01*
X103998685Y-65011276D01*
X103903447Y-65058895D01*
G04 #@! TD*
M02*
