999
"DXF R12 Output" (www.mydxf.blogspot.com)
 0 
SECTION
 2 
HEADER
 9 
$ACADVER
 1 
AC1009
 9 
$EXTMIN
 10 
 0 
 20 
 0 
 9 
$EXTMAX
 10 
 8.5 
 20 
 11 
 0 
ENDSEC
 0 
SECTION
 2 
ENTITIES
0
LINE
8
Layer 1
10
0.000000
20
0.000000
11
0.000000
21
0.177000
0
LINE
8
Layer 1
10
0.000000
20
0.177000
11
0.000000
21
0.354000
0
LINE
8
Layer 1
10
0.000000
20
0.354000
11
0.000000
21
0.531000
0
LINE
8
Layer 1
10
0.000000
20
0.531000
11
0.000000
21
0.708000
0
LINE
8
Layer 1
10
0.000000
20
0.708000
11
0.000000
21
0.886000
0
LINE
8
Layer 1
10
0.000000
20
0.886000
11
0.000000
21
1.062000
0
LINE
8
Layer 1
10
0.000000
20
1.062000
11
0.000000
21
1.240000
0
LINE
8
Layer 1
10
0.000000
20
1.240000
11
0.000000
21
1.417000
0
LINE
8
Layer 1
10
0.000000
20
1.417000
11
0.000000
21
1.594000
0
LINE
8
Layer 1
10
0.000000
20
1.594000
11
0.000000
21
1.771000
0
LINE
8
Layer 1
10
0.000000
20
1.771000
11
0.000000
21
1.949000
0
LINE
8
Layer 1
10
0.000000
20
1.949000
11
0.000000
21
2.125000
0
LINE
8
Layer 1
10
0.000000
20
2.125000
11
0.000000
21
2.303000
0
LINE
8
Layer 1
10
0.000000
20
2.303000
11
0.000000
21
2.480000
0
LINE
8
Layer 1
10
0.000000
20
2.480000
11
0.000000
21
2.657000
0
LINE
8
Layer 1
10
0.000000
20
2.657000
11
0.000000
21
2.834000
0
LINE
8
Layer 1
10
0.000000
20
2.834000
11
0.030000
21
3.675000
0
LINE
8
Layer 1
10
0.030000
20
3.675000
11
0.118000
21
4.491000
0
LINE
8
Layer 1
10
0.118000
20
4.491000
11
0.261000
21
5.278000
0
LINE
8
Layer 1
10
0.261000
20
5.278000
11
0.457000
21
6.033000
0
LINE
8
Layer 1
10
0.457000
20
6.033000
11
0.701000
21
6.751000
0
LINE
8
Layer 1
10
0.701000
20
6.751000
11
0.993000
21
7.429000
0
LINE
8
Layer 1
10
0.993000
20
7.429000
11
1.327000
21
8.062000
0
LINE
8
Layer 1
10
1.327000
20
8.062000
11
1.702000
21
8.646000
0
LINE
8
Layer 1
10
1.702000
20
8.646000
11
2.115000
21
9.176000
0
LINE
8
Layer 1
10
2.115000
20
9.176000
11
2.562000
21
9.649000
0
LINE
8
Layer 1
10
2.562000
20
9.649000
11
3.041000
21
10.061000
0
LINE
8
Layer 1
10
3.041000
20
10.061000
11
3.549000
21
10.407000
0
LINE
8
Layer 1
10
3.549000
20
10.407000
11
4.083000
21
10.683000
0
LINE
8
Layer 1
10
4.083000
20
10.683000
11
4.640000
21
10.885000
0
LINE
8
Layer 1
10
4.640000
20
10.885000
11
5.217000
21
11.010000
0
LINE
8
Layer 1
10
5.217000
20
11.010000
11
5.811000
21
11.052000
0
LINE
8
Layer 1
10
5.811000
20
11.052000
11
6.405000
21
11.010000
0
LINE
8
Layer 1
10
6.405000
20
11.010000
11
6.982000
21
10.885000
0
LINE
8
Layer 1
10
6.982000
20
10.885000
11
7.539000
21
10.683000
0
LINE
8
Layer 1
10
7.539000
20
10.683000
11
8.073000
21
10.407000
0
LINE
8
Layer 1
10
8.073000
20
10.407000
11
8.581000
21
10.061000
0
LINE
8
Layer 1
10
8.581000
20
10.061000
11
9.060000
21
9.649000
0
LINE
8
Layer 1
10
9.060000
20
9.649000
11
9.507000
21
9.176000
0
LINE
8
Layer 1
10
9.507000
20
9.176000
11
9.920000
21
8.646000
0
LINE
8
Layer 1
10
9.920000
20
8.646000
11
10.295000
21
8.062000
0
LINE
8
Layer 1
10
10.295000
20
8.062000
11
10.629000
21
7.429000
0
LINE
8
Layer 1
10
10.629000
20
7.429000
11
10.920000
21
6.751000
0
LINE
8
Layer 1
10
10.920000
20
6.751000
11
11.166000
21
6.033000
0
LINE
8
Layer 1
10
11.166000
20
6.033000
11
11.361000
21
5.278000
0
LINE
8
Layer 1
10
11.361000
20
5.278000
11
11.504000
21
4.491000
0
LINE
8
Layer 1
10
11.504000
20
4.491000
11
11.592000
21
3.675000
0
LINE
8
Layer 1
10
11.592000
20
3.675000
11
11.622000
21
2.834000
0
LINE
8
Layer 1
10
11.622000
20
2.834000
11
11.622000
21
2.657000
0
LINE
8
Layer 1
10
11.622000
20
2.657000
11
11.622000
21
2.480000
0
LINE
8
Layer 1
10
11.622000
20
2.480000
11
11.622000
21
2.303000
0
LINE
8
Layer 1
10
11.622000
20
2.303000
11
11.622000
21
2.125000
0
LINE
8
Layer 1
10
11.622000
20
2.125000
11
11.622000
21
1.949000
0
LINE
8
Layer 1
10
11.622000
20
1.949000
11
11.622000
21
1.771000
0
LINE
8
Layer 1
10
11.622000
20
1.771000
11
11.622000
21
1.594000
0
LINE
8
Layer 1
10
11.622000
20
1.594000
11
11.622000
21
1.417000
0
LINE
8
Layer 1
10
11.622000
20
1.417000
11
11.622000
21
1.240000
0
LINE
8
Layer 1
10
11.622000
20
1.240000
11
11.622000
21
1.062000
0
LINE
8
Layer 1
10
11.622000
20
1.062000
11
11.622000
21
0.886000
0
LINE
8
Layer 1
10
11.622000
20
0.886000
11
11.622000
21
0.708000
0
LINE
8
Layer 1
10
11.622000
20
0.708000
11
11.622000
21
0.531000
0
LINE
8
Layer 1
10
11.622000
20
0.531000
11
11.622000
21
0.354000
0
LINE
8
Layer 1
10
11.622000
20
0.354000
11
11.622000
21
0.177000
0
LINE
8
Layer 1
10
11.622000
20
0.177000
11
11.622000
21
0.000000
0
LINE
8
Layer 1
10
11.622000
20
0.000000
11
11.592000
21
-0.841000
0
LINE
8
Layer 1
10
11.592000
20
-0.841000
11
11.504000
21
-1.656000
0
LINE
8
Layer 1
10
11.504000
20
-1.656000
11
11.361000
21
-2.444000
0
LINE
8
Layer 1
10
11.361000
20
-2.444000
11
11.166000
21
-3.199000
0
LINE
8
Layer 1
10
11.166000
20
-3.199000
11
10.920000
21
-3.918000
0
LINE
8
Layer 1
10
10.920000
20
-3.918000
11
10.629000
21
-4.595000
0
LINE
8
Layer 1
10
10.629000
20
-4.595000
11
10.295000
21
-5.228000
0
LINE
8
Layer 1
10
10.295000
20
-5.228000
11
9.920000
21
-5.812000
0
LINE
8
Layer 1
10
9.920000
20
-5.812000
11
9.507000
21
-6.342000
0
LINE
8
Layer 1
10
9.507000
20
-6.342000
11
9.060000
21
-6.814000
0
LINE
8
Layer 1
10
9.060000
20
-6.814000
11
8.581000
21
-7.227000
0
LINE
8
Layer 1
10
8.581000
20
-7.227000
11
8.073000
21
-7.572000
0
LINE
8
Layer 1
10
8.073000
20
-7.572000
11
7.539000
21
-7.849000
0
LINE
8
Layer 1
10
7.539000
20
-7.849000
11
6.982000
21
-8.052000
0
LINE
8
Layer 1
10
6.982000
20
-8.052000
11
6.405000
21
-8.176000
0
LINE
8
Layer 1
10
6.405000
20
-8.176000
11
5.811000
21
-8.219000
0
LINE
8
Layer 1
10
5.811000
20
-8.219000
11
5.217000
21
-8.176000
0
LINE
8
Layer 1
10
5.217000
20
-8.176000
11
4.640000
21
-8.052000
0
LINE
8
Layer 1
10
4.640000
20
-8.052000
11
4.083000
21
-7.849000
0
LINE
8
Layer 1
10
4.083000
20
-7.849000
11
3.549000
21
-7.572000
0
LINE
8
Layer 1
10
3.549000
20
-7.572000
11
3.041000
21
-7.227000
0
LINE
8
Layer 1
10
3.041000
20
-7.227000
11
2.562000
21
-6.814000
0
LINE
8
Layer 1
10
2.562000
20
-6.814000
11
2.115000
21
-6.342000
0
LINE
8
Layer 1
10
2.115000
20
-6.342000
11
1.702000
21
-5.812000
0
LINE
8
Layer 1
10
1.702000
20
-5.812000
11
1.327000
21
-5.228000
0
LINE
8
Layer 1
10
1.327000
20
-5.228000
11
0.993000
21
-4.595000
0
LINE
8
Layer 1
10
0.993000
20
-4.595000
11
0.701000
21
-3.918000
0
LINE
8
Layer 1
10
0.701000
20
-3.918000
11
0.457000
21
-3.199000
0
LINE
8
Layer 1
10
0.457000
20
-3.199000
11
0.261000
21
-2.444000
0
LINE
8
Layer 1
10
0.261000
20
-2.444000
11
0.118000
21
-1.656000
0
LINE
8
Layer 1
10
0.118000
20
-1.656000
11
0.030000
21
-0.841000
0
LINE
8
Layer 1
10
0.030000
20
-0.841000
11
0.000000
21
0.000000
 0 
ENDSEC
 0 
EOF