  0
SECTION
  2
HEADER
  9
$ACADVER
  1
AC1014
  9
$HANDSEED
  5
FFFF
  9
$MEASUREMENT
 70
     1
  0
ENDSEC
  0
SECTION
  2
TABLES
  0
TABLE
  2
VPORT
  5
8
330
0
100
AcDbSymbolTable
 70
     4
  0
VPORT
  5
2E
330
8
100
AcDbSymbolTableRecord
100
AcDbViewportTableRecord
  2
*ACTIVE
 70
     0
 10
0.0
 20
0.0
 11
1.0
 21
1.0
 12
210.0
 22
148.5
 13
0.0
 23
0.0
 14
10.0
 24
10.0
 15
10.0
 25
10.0
 16
0.0
 26
0.0
 36
1.0
 17
0.0
 27
0.0
 37
0.0
 40
341.0
 41
1.24
 42
50.0
 43
0.0
 44
0.0
 50
0.0
 51
0.0
 71
     0
 72
   100
 73
     1
 74
     3
 75
     0
 76
     0
 77
     0
 78
     0
  0
ENDTAB
  0
TABLE
  2
LTYPE
  5
5
330
0
100
AcDbSymbolTable
 70
     1
  0
LTYPE
  5
14
330
5
100
AcDbSymbolTableRecord
100
AcDbLinetypeTableRecord
  2
BYBLOCK
 70
     0
  3

 72
    65
 73
     0
 40
0.0
  0
LTYPE
  5
15
330
5
100
AcDbSymbolTableRecord
100
AcDbLinetypeTableRecord
  2
BYLAYER
 70
     0
  3

 72
    65
 73
     0
 40
0.0
  0
LTYPE
  5
16
330
5
100
AcDbSymbolTableRecord
100
AcDbLinetypeTableRecord
  2
CONTINUOUS
 70
     0
  3
Solid line
 72
    65
 73
     0
 40
0.0
  0
ENDTAB
  0
TABLE
  2
LAYER
  5
2
100
AcDbSymbolTable
 70
1
  0
LAYER
  5
50
100
AcDbSymbolTableRecord
100
AcDbLayerTableRecord
  2
0
 70
0
  6
CONTINUOUS
  0
ENDTAB
  0
TABLE
  2
STYLE
  5
3
330
0
100
AcDbSymbolTable
 70
     1
  0
STYLE
  5
11
330
3
100
AcDbSymbolTableRecord
100
AcDbTextStyleTableRecord
  2
STANDARD
 70
     0
 40
0.0
 41
1.0
 50
0.0
 71
     0
 42
2.5
  3
txt
  4

  0
ENDTAB
  0
TABLE
  2
VIEW
  5
6
330
0
100
AcDbSymbolTable
 70
     0
  0
ENDTAB
  0
TABLE
  2
UCS
  5
7
330
0
100
AcDbSymbolTable
 70
     0
  0
ENDTAB
  0
TABLE
  2
APPID
  5
9
330
0
100
AcDbSymbolTable
 70
     2
  0
APPID
  5
12
330
9
100
AcDbSymbolTableRecord
100
AcDbRegAppTableRecord
  2
ACAD
 70
     0
  0
ENDTAB
  0
TABLE
  2
DIMSTYLE
  5
A
330
0
100
AcDbSymbolTable
 70
     1
  0
DIMSTYLE
105
27
330
A
100
AcDbSymbolTableRecord
100
AcDbDimStyleTableRecord
  2
ISO-25
 70
     0
  3

  4

  5

  6

  7

 40
1.0
 41
2.5
 42
0.625
 43
3.75
 44
1.25
 45
0.0
 46
0.0
 47
0.0
 48
0.0
140
2.5
141
2.5
142
0.0
143
0.03937007874016
144
1.0
145
0.0
146
1.0
147
0.625
 71
     0
 72
     0
 73
     0
 74
     0
 75
     0
 76
     0
 77
     1
 78
     8
170
     0
171
     3
172
     1
173
     0
174
     0
175
     0
176
     0
177
     0
178
     0
270
     2
271
     2
272
     2
273
     2
274
     3
340
11
275
     0
280
     0
281
     0
282
     0
283
     0
284
     8
285
     0
286
     0
287
     3
288
     0
  0
ENDTAB
  0
TABLE
  2
BLOCK_RECORD
  5
1
330
0
100
AcDbSymbolTable
 70
     1
  0
BLOCK_RECORD
  5
1F
330
1
100
AcDbSymbolTableRecord
100
AcDbBlockTableRecord
  2
*MODEL_SPACE
  0
BLOCK_RECORD
  5
1B
330
1
100
AcDbSymbolTableRecord
100
AcDbBlockTableRecord
  2
*PAPER_SPACE
  0
ENDTAB
  0
ENDSEC
  0
SECTION
  2
BLOCKS
  0
BLOCK
  5
20
330
1F
100
AcDbEntity
  8
0
100
AcDbBlockBegin
  2
*MODEL_SPACE
 70
     0
 10
0.0
 20
0.0
 30
0.0
  3
*MODEL_SPACE
  1

  0
ENDBLK
  5
21
330
1F
100
AcDbEntity
  8
0
100
AcDbBlockEnd
  0
BLOCK
  5
1C
330
1B
100
AcDbEntity
 67
     1
  8
0
100
AcDbBlockBegin
  2
*PAPER_SPACE
  1

  0
ENDBLK
  5
1D
330
1B
100
AcDbEntity
 67
     1
  8
0
100
AcDbBlockEnd
  0
ENDSEC
  0
SECTION
  2
ENTITIES
  0
LWPOLYLINE
  5
100
100
AcDbEntity
  8
0
 62
7
100
AcDbPolyline
 90
66
 70
1
 10
52.679035
 20
73.447756
 30
0.0
 10
52.668346
 20
73.744065
 30
0.0
 10
52.637199
 20
74.031805
 30
0.0
 10
52.586619
 20
74.309522
 30
0.0
 10
52.517631
 20
74.575759
 30
0.0
 10
52.431269
 20
74.829060
 30
0.0
 10
52.328563
 20
75.067971
 30
0.0
 10
52.210540
 20
75.291039
 30
0.0
 10
52.078230
 20
75.496802
 30
0.0
 10
51.932667
 20
75.683810
 30
0.0
 10
51.774875
 20
75.850606
 30
0.0
 10
51.605885
 20
75.995735
 30
0.0
 10
51.426731
 20
76.117740
 30
0.0
 10
51.238437
 20
76.215167
 30
0.0
 10
51.042037
 20
76.286557
 30
0.0
 10
50.838557
 20
76.330462
 30
0.0
 10
50.629031
 20
76.345411
 30
0.0
 10
50.419504
 20
76.330462
 30
0.0
 10
50.216024
 20
76.286557
 30
0.0
 10
50.019624
 20
76.215167
 30
0.0
 10
49.831331
 20
76.117740
 30
0.0
 10
49.652176
 20
75.995735
 30
0.0
 10
49.483187
 20
75.850606
 30
0.0
 10
49.325394
 20
75.683810
 30
0.0
 10
49.179831
 20
75.496802
 30
0.0
 10
49.047521
 20
75.291039
 30
0.0
 10
48.929499
 20
75.067971
 30
0.0
 10
48.826793
 20
74.829060
 30
0.0
 10
48.740430
 20
74.575759
 30
0.0
 10
48.671443
 20
74.309522
 30
0.0
 10
48.620862
 20
74.031805
 30
0.0
 10
48.589715
 20
73.744065
 30
0.0
 10
48.579026
 20
73.447756
 30
0.0
 10
48.579037
 20
72.447758
 30
0.0
 10
48.589514
 20
72.151226
 30
0.0
 10
48.620494
 20
71.863251
 30
0.0
 10
48.670945
 20
71.585293
 30
0.0
 10
48.739827
 20
71.318810
 30
0.0
 10
48.826115
 20
71.065260
 30
0.0
 10
48.928776
 20
70.826103
 30
0.0
 10
49.046778
 20
70.602800
 30
0.0
 10
49.179090
 20
70.396807
 30
0.0
 10
49.324683
 20
70.209582
 30
0.0
 10
49.482523
 20
70.042590
 30
0.0
 10
49.651581
 20
69.897284
 30
0.0
 10
49.830823
 20
69.775126
 30
0.0
 10
50.019219
 20
69.677574
 30
0.0
 10
50.215741
 20
69.606089
 30
0.0
 10
50.419354
 20
69.562126
 30
0.0
 10
50.629028
 20
69.547150
 30
0.0
 10
50.838700
 20
69.562126
 30
0.0
 10
51.042315
 20
69.606089
 30
0.0
 10
51.238834
 20
69.677574
 30
0.0
 10
51.427231
 20
69.775126
 30
0.0
 10
51.606475
 20
69.897284
 30
0.0
 10
51.775531
 20
70.042588
 30
0.0
 10
51.933370
 20
70.209582
 30
0.0
 10
52.078963
 20
70.396804
 30
0.0
 10
52.211275
 20
70.602798
 30
0.0
 10
52.329280
 20
70.826101
 30
0.0
 10
52.431941
 20
71.065258
 30
0.0
 10
52.518226
 20
71.318808
 30
0.0
 10
52.587111
 20
71.585291
 30
0.0
 10
52.637559
 20
71.863249
 30
0.0
 10
52.668542
 20
72.151224
 30
0.0
 10
52.679019
 20
72.447755
 30
0.0
  0
ENDSEC
  0
SECTION
  2
OBJECTS
  0
DICTIONARY
  5
C
330
0
100
AcDbDictionary
  3
ACAD_GROUP
350
D
  3
ACAD_MLINESTYLE
350
17
  0
DICTIONARY
  5
D
330
C
100
AcDbDictionary
  0
DICTIONARY
  5
1A
330
C
100
AcDbDictionary
  0
DICTIONARY
  5
17
330
C
100
AcDbDictionary
  3
STANDARD
350
18
  0
DICTIONARY
  5
19
330
C
100
AcDbDictionary
  0
ENDSEC
  0
EOF
